<svg xmlns="http://www.w3.org/2000/svg" viewBox="0 0 107.3 148.1"><g data-name="Calque 2"><path d="M54 0A54 54 0 000 54c0 36 48 90 50 92a5 5 0 007 0c2-2 50-56 50-92A54 54 0 0054 0z" fill="#25506d"/><path d="M45 65L34 41a6 6 0 00-11 0L11 65c0 6 8 10 17 10s17-4 17-10zM28 44l10 19H19zm68 21L85 41a6 6 0 00-12 0L62 65c0 6 8 10 17 10s17-4 17-10zm-26-2l9-19 10 19zm11 17H58V41a11 11 0 006-8h17a2 2 0 002-2v-4a2 2 0 00-2-2H62a10 10 0 00-17 0H26a2 2 0 00-2 2v4a2 2 0 002 2h17a11 11 0 006 8v39H26a2 2 0 00-2 2v4a2 2 0 002 2h55a2 2 0 002-2v-4a2 2 0 00-2-2z" fill="#fff"/></g></svg>