<?xml version="1.0" standalone="no"?>
<!DOCTYPE svg PUBLIC "-//W3C//DTD SVG 1.1//EN" "http://www.w3.org/Graphics/SVG/1.1/DTD/svg11.dtd" >
<svg xmlns="http://www.w3.org/2000/svg" xmlns:xlink="http://www.w3.org/1999/xlink" version="1.1">
<metadata>
Created by FontForge 20170731 at Thu Jan 14 17:15:37 2021
 By Aleksey,,,
Mathieu Reguer
</metadata>
<defs>
<font id="Marianne-Medium" horiz-adv-x="1228" >
  <font-face 
    font-family="Marianne Medium"
    font-weight="500"
    font-stretch="normal"
    units-per-em="2048"
    panose-1="2 0 0 0 0 0 0 0 0 0"
    ascent="1536"
    descent="-512"
    x-height="1032"
    cap-height="1434"
    bbox="-436 -512 2494 1978"
    underline-thickness="182"
    underline-position="-450"
    unicode-range="U+0020-25CC"
  />
<missing-glyph 
d="M2 -504v2040h1227v-2040h-1227zM455 254h172l10 154q196 33 314 144.5t118 283.5q0 180 -128.5 294.5t-311.5 114.5q-153 0 -266 -65.5t-197 -194.5l199 -123q60 87 117 126.5t136 39.5q86 0 143.5 -54.5t57.5 -137.5q0 -124 -98.5 -183.5t-294.5 -79.5zM541 -205
q66 0 113.5 47.5t47.5 112.5t-47.5 112.5t-113.5 47.5t-113 -47.5t-47 -112.5t47 -112.5t113 -47.5z" />
    <glyph glyph-name=".notdef" 
d="M2 -504v2040h1227v-2040h-1227zM455 254h172l10 154q196 33 314 144.5t118 283.5q0 180 -128.5 294.5t-311.5 114.5q-153 0 -266 -65.5t-197 -194.5l199 -123q60 87 117 126.5t136 39.5q86 0 143.5 -54.5t57.5 -137.5q0 -124 -98.5 -183.5t-294.5 -79.5zM541 -205
q66 0 113.5 47.5t47.5 112.5t-47.5 112.5t-113.5 47.5t-113 -47.5t-47 -112.5t47 -112.5t113 -47.5z" />
    <glyph glyph-name=".null" horiz-adv-x="0" 
 />
    <glyph glyph-name="nonmarkingreturn" horiz-adv-x="682" 
 />
    <glyph glyph-name="space" unicode=" " horiz-adv-x="552" 
 />
    <glyph glyph-name="exclam" unicode="!" horiz-adv-x="647" 
d="M244 436l-43 998h243l-43 -998h-157zM324 -25q-62 0 -107 45.5t-45 108.5q0 61 45 105.5t107 44.5t106.5 -44.5t44.5 -105.5q0 -63 -44 -108.5t-107 -45.5z" />
    <glyph glyph-name="quotedbl" unicode="&#x22;" horiz-adv-x="972" 
d="M371 866h-187l-26 568h239zM786 866h-186l-27 568h240z" />
    <glyph glyph-name="numbersign" unicode="#" horiz-adv-x="1384" 
d="M76 549h211l90 336h-301v172h350l102 377h193l-103 -377h336l103 377h192l-102 -377h162v-172h-211l-90 -336h301v-172h-351l-102 -377h-192l102 377h-336l-102 -377h-193l103 377h-162v172zM479 549h336l90 336h-336z" />
    <glyph glyph-name="dollar" unicode="$" horiz-adv-x="1226" 
d="M94 227l154 142q124 -142 282 -172v458q-64 24 -109 44.5t-97.5 55.5t-84.5 74t-53.5 97t-21.5 129q0 142 101 247t265 128v147h183v-147q243 -34 391 -218l-152 -137q-96 131 -239 162v-428q46 -17 80 -31t76 -35.5t71.5 -43.5t60 -53t49.5 -66t30.5 -80.5t11.5 -98.5
q-1 -158 -106 -264t-273 -131v-149h-183v147q-270 26 -436 223zM373 1061q0 -63 40.5 -105.5t116.5 -76.5v362q-78 -17 -117.5 -64t-39.5 -116zM885 397q0 67 -44.5 111t-127.5 80v-389q84 18 128 70.5t44 127.5z" />
    <glyph glyph-name="percent" unicode="%" horiz-adv-x="1691" 
d="M420 1479q151 0 248.5 -99t97.5 -243t-97.5 -243t-248.5 -99q-154 0 -251 99t-97 243t97 243t251 99zM209 2l1051 1434h219l-1051 -1434h-219zM420 940q79 0 131.5 56.5t52.5 140.5q0 85 -52 140.5t-132 55.5q-82 0 -134.5 -55.5t-52.5 -140.5t53 -141t134 -56zM1272 645
q151 0 248.5 -99t97.5 -243t-97.5 -243t-248.5 -99q-154 0 -251 99t-97 243t97 243t251 99zM1272 106q79 0 131.5 56.5t52.5 140.5q0 85 -52.5 141t-131.5 56q-81 0 -134 -56t-53 -141t53 -141t134 -56z" />
    <glyph glyph-name="ampersand" unicode="&#x26;" horiz-adv-x="1521" 
d="M1477 0h-275l-131 125q-184 -166 -444 -166q-226 0 -368 123t-142 332q0 136 74 236t194 153q-64 78 -94.5 151.5t-30.5 159.5q0 157 109.5 259t287.5 102q168 0 276.5 -98t108.5 -257q0 -139 -83.5 -232.5t-225.5 -142.5l318 -317q82 139 129 340h217
q-75 -301 -197 -489zM477 1102q0 -39 9 -71t31 -62t38.5 -47.5t52.5 -51.5q122 35 178 93.5t56 148.5q0 72 -48.5 122t-129.5 50q-87 0 -137 -51t-50 -131zM338 414q0 -121 85.5 -191.5t215.5 -70.5q160 0 285 116l-398 385q-2 2 -7 7.5t-7 7.5q-82 -36 -128 -101.5
t-46 -152.5z" />
    <glyph glyph-name="quotesingle" unicode="'" horiz-adv-x="552" 
d="M371 866h-187l-26 568h239z" />
    <glyph glyph-name="parenleft" unicode="(" horiz-adv-x="696" 
d="M305 565q0 -509 342 -848l-153 -127q-191 176 -295.5 424.5t-104.5 550.5q0 299 108 547.5t292 423.5l153 -127q-342 -339 -342 -844z" />
    <glyph glyph-name="parenright" unicode=")" horiz-adv-x="696" 
d="M389 561q0 512 -342 848l154 127q188 -174 293.5 -423t105.5 -552q0 -301 -106 -549.5t-293 -421.5l-154 127q342 336 342 844z" />
    <glyph glyph-name="asterisk" unicode="*" horiz-adv-x="917" 
d="M774 743l-147 -104l-168 264l-168 -264l-148 104l201 242l-303 78l55 174l293 -117l-20 314h182l-21 -314l291 117l56 -174l-302 -78z" />
    <glyph glyph-name="plus" unicode="+" 
d="M1128 426h-423v-426h-183v426h-424v182h424v424h183v-424h423v-182z" />
    <glyph glyph-name="comma" unicode="," horiz-adv-x="555" 
d="M264 -328h-196l178 574h241z" />
    <glyph glyph-name="hyphen" unicode="-" horiz-adv-x="634" 
d="M41 627h553v-205h-553v205z" />
    <glyph glyph-name="period" unicode="." horiz-adv-x="552" 
d="M279 -25q-63 0 -108.5 45.5t-45.5 108.5q0 60 45.5 105t108.5 45q61 0 106 -45t45 -105q0 -63 -44.5 -108.5t-106.5 -45.5z" />
    <glyph glyph-name="slash" unicode="/" horiz-adv-x="749" 
d="M27 -403l481 1939h213l-481 -1939h-213z" />
    <glyph glyph-name="zero" unicode="0" 
d="M614 1475q134 0 239 -58t170.5 -161t99.5 -239.5t34 -299.5t-34 -299.5t-99.5 -239.5t-170.5 -161t-239 -58t-239 58t-171 161t-100 239.5t-34 299.5t34 299.5t100 239.5t171 161t239 58zM614 1266q-152 0 -232.5 -150.5t-80.5 -398.5q0 -250 80.5 -399.5t232.5 -149.5
q101 0 172.5 71.5t105.5 193.5t34 284q0 249 -80.5 399t-231.5 150z" />
    <glyph glyph-name="one" unicode="1" horiz-adv-x="946" 
d="M465 2v1204l-342 -190l-115 160l461 260h219v-1434h-223z" />
    <glyph glyph-name="two" unicode="2" 
d="M131 0v203l487 493q124 127 171 198.5t47 164.5q0 100 -64.5 157.5t-165.5 57.5q-104 0 -178.5 -53.5t-138.5 -159.5l-185 113q193 301 523 301q187 0 312.5 -110.5t125.5 -287.5q0 -70 -20.5 -136t-64.5 -130.5t-88 -115.5t-114 -122l-375 -370h701v-203h-973z" />
    <glyph glyph-name="three" unicode="3" 
d="M1118 401q0 -197 -144 -319.5t-366 -122.5q-189 0 -320 76.5t-220 228.5l196 121q63 -118 145 -171.5t197 -53.5q124 0 203.5 68t79.5 184q0 113 -77 180t-206 67h-239v201h215q109 0 175 58t66 153t-63 149t-164 54q-177 0 -279 -178l-184 112q165 267 477 267
q194 0 319.5 -105t125.5 -276q0 -102 -45.5 -186t-132.5 -136q116 -54 178.5 -151t62.5 -220z" />
    <glyph glyph-name="four" unicode="4" 
d="M78 399v203l649 832h266v-832h158v-203h-158v-399h-223v399h-692zM313 602h457v584z" />
    <glyph glyph-name="five" unicode="5" 
d="M201 662l41 772h819v-203h-604l-21 -369h164q252 0 386 -121.5t134 -332.5q0 -200 -144.5 -324.5t-365.5 -124.5q-364 0 -540 305l196 121q64 -117 147 -171t197 -54q124 0 202.5 68t78.5 184t-79 183t-222 67h-389z" />
    <glyph glyph-name="six" unicode="6" 
d="M688 1475q299 0 467 -240l-172 -137q-60 87 -129 129.5t-162 42.5q-170 0 -269 -133.5t-110 -376.5q151 145 375 145q135 0 240.5 -61.5t162 -165.5t56.5 -232q0 -100 -35 -188t-99.5 -154.5t-164 -105.5t-219.5 -39q-265 0 -407 189t-142 552q0 173 38 314t112 244.5
t190.5 160t267.5 56.5zM651 705q-213 0 -332 -168q46 -373 318 -373q128 0 203 77t75 197q0 115 -74.5 191t-189.5 76z" />
    <glyph glyph-name="seven" unicode="7" 
d="M422 0h-258l741 1231h-772v203h1012v-203z" />
    <glyph glyph-name="eight" unicode="8" 
d="M614 1475q218 0 342.5 -109.5t124.5 -271.5q0 -104 -51.5 -185.5t-148.5 -126.5q129 -51 197.5 -150t68.5 -233q0 -193 -142 -316.5t-391 -123.5q-247 0 -389.5 123.5t-142.5 316.5q0 134 69 233t199 150q-99 45 -151 126.5t-52 185.5q0 161 125 271t342 110zM618 866
q103 0 167.5 57t64.5 150q0 92 -64.5 149.5t-167.5 57.5q-109 0 -174 -57t-65 -150q0 -94 65 -150.5t174 -56.5zM616 156q135 0 217 70t82 184q0 118 -82.5 191t-216.5 73q-137 0 -220 -73t-83 -191q0 -116 82.5 -185t220.5 -69z" />
    <glyph glyph-name="nine" unicode="9" 
d="M535 -41q-297 0 -465 240l172 137q60 -88 128.5 -130t161.5 -42q170 0 269 133.5t110 376.5q-152 -146 -374 -146q-135 0 -240.5 61.5t-162 165.5t-56.5 232q0 134 59.5 243.5t178.5 177t278 67.5q266 0 408.5 -189.5t142.5 -552.5q0 -173 -38 -314t-112 -244
t-191 -159.5t-269 -56.5zM309 995q0 -115 74 -190.5t190 -75.5q213 0 332 168q-46 373 -319 373q-126 0 -201.5 -77.5t-75.5 -197.5z" />
    <glyph glyph-name="colon" unicode=":" horiz-adv-x="555" 
d="M279 754q-63 0 -108.5 45t-45.5 108q0 60 45.5 105t108.5 45q61 0 106 -45t45 -105q0 -63 -44.5 -108t-106.5 -45zM279 -25q-63 0 -108.5 45.5t-45.5 108.5q0 60 45.5 105t108.5 45q61 0 106 -45t45 -105q0 -63 -44.5 -108.5t-106.5 -45.5z" />
    <glyph glyph-name="semicolon" unicode=";" horiz-adv-x="555" 
d="M279 754q-63 0 -108.5 45t-45.5 108q0 60 45.5 105t108.5 45q61 0 106 -45t45 -105q0 -63 -44.5 -108t-106.5 -45zM213 -328h-197l181 574h239z" />
    <glyph glyph-name="less" unicode="&#x3c;" 
d="M1128 197v-197l-1030 412v209l1030 411v-196l-823 -320z" />
    <glyph glyph-name="equal" unicode="=" 
d="M1128 643h-1030v182h1030v-182zM1128 207h-1030v182h1030v-182z" />
    <glyph glyph-name="greater" unicode="&#x3e;" 
d="M98 197l824 319l-824 320v196l1030 -411v-209l-1030 -412v197z" />
    <glyph glyph-name="question" unicode="?" horiz-adv-x="1050" 
d="M362 436l-26 322q211 25 317.5 93t106.5 202q0 96 -65.5 159.5t-164.5 63.5q-87 0 -150.5 -41.5t-127.5 -132.5l-182 112q173 261 471 261q121 0 223 -52.5t163.5 -150t61.5 -219.5q0 -179 -124 -295.5t-330 -151.5l-13 -170h-160zM444 -25q-63 0 -108 45.5t-45 108.5
q0 60 45 105t108 45q61 0 106.5 -45t45.5 -105q0 -63 -45 -108.5t-107 -45.5z" />
    <glyph glyph-name="at" unicode="@" horiz-adv-x="1712" 
d="M471 512q0 156 96.5 263.5t253.5 107.5q130 0 226 -90v63h165v-471q0 -50 25 -77t66 -27q73 0 120 86t47 225q0 151 -77 276.5t-215.5 199t-309.5 73.5q-178 0 -321.5 -85.5t-222 -228.5t-78.5 -313q0 -171 78.5 -314.5t222 -229t321.5 -85.5q136 0 245 39t220 135
l80 -120q-122 -96 -253 -139.5t-294 -43.5q-168 0 -313.5 61t-244.5 164t-155.5 241.5t-56.5 291.5t56.5 291.5t155.5 241.5t244.5 164t313.5 61q163 0 304 -54t238 -146t152.5 -216.5t55.5 -263.5q0 -196 -89 -322.5t-237 -126.5q-76 0 -131 30.5t-84 84.5
q-98 -115 -254 -115q-157 0 -253.5 107t-96.5 262zM651 512q0 -92 55.5 -152.5t145.5 -60.5q116 0 195 117v188q-78 121 -195 121q-90 0 -145.5 -60.5t-55.5 -152.5z" />
    <glyph glyph-name="A" unicode="A" horiz-adv-x="1519" 
d="M45 0l559 1434h311l560 -1434h-250l-152 401h-627l-151 -401h-250zM524 602h471l-235 621z" />
    <glyph glyph-name="B" unicode="B" horiz-adv-x="1251" 
d="M221 0v1434h371q214 0 336.5 -102t122.5 -279q0 -92 -42.5 -167t-121.5 -122q119 -47 183.5 -138t64.5 -210q0 -192 -136 -304t-372 -112h-406zM598 1231h-143v-377h143q99 0 154 49t55 141q0 88 -55.5 137.5t-153.5 49.5zM639 651h-184v-448h184q119 0 186.5 60
t67.5 167q0 104 -67.5 162.5t-186.5 58.5z" />
    <glyph glyph-name="C" unicode="C" horiz-adv-x="1536" 
d="M854 180q131 0 238.5 58.5t177.5 158.5l188 -145q-103 -136 -258.5 -214.5t-345.5 -78.5q-165 0 -307.5 61t-240 164t-153 241.5t-55.5 291.5t55.5 291.5t153 241.5t240 164t307.5 61q190 0 345.5 -78.5t258.5 -214.5l-188 -146q-70 100 -177.5 158.5t-238.5 58.5
q-147 0 -265 -71.5t-183.5 -194t-65.5 -270.5q0 -228 146 -382.5t368 -154.5z" />
    <glyph glyph-name="D" unicode="D" horiz-adv-x="1632" 
d="M221 0v1434h557q165 0 307.5 -57.5t240 -155.5t153 -229t55.5 -275t-55.5 -275t-153 -229t-240 -155.5t-307.5 -57.5h-557zM780 1219h-325v-1004h325q220 0 365 145t145 357q0 139 -65 254t-182 181.5t-263 66.5z" />
    <glyph glyph-name="E" unicode="E" horiz-adv-x="1171" 
d="M221 0v1434h799v-203h-565v-400h483v-202h-483v-426h565v-203h-799z" />
    <glyph glyph-name="F" unicode="F" horiz-adv-x="1089" 
d="M221 0v1434h799v-203h-565v-400h483v-202h-483v-629h-234z" />
    <glyph glyph-name="G" unicode="G" horiz-adv-x="1644" 
d="M874 180q118 0 218.5 42.5t171.5 117.5v283h-396v215h631v-586q-104 -137 -266 -215t-359 -78q-169 0 -315.5 61t-246.5 164t-157 241.5t-57 291.5t55.5 291.5t153 241.5t240 164t307.5 61q190 0 345.5 -78.5t258.5 -214.5l-188 -146q-70 100 -177.5 158.5t-238.5 58.5
q-147 0 -265 -71.5t-183.5 -194t-65.5 -270.5q0 -149 68 -272t190.5 -194t275.5 -71z" />
    <glyph glyph-name="H" unicode="H" horiz-adv-x="1716" 
d="M221 0v1434h234v-596h807v596h235v-1434h-235v623h-807v-623h-234z" />
    <glyph glyph-name="I" unicode="I" horiz-adv-x="675" 
d="M221 0v1434h234v-1434h-234z" />
    <glyph glyph-name="J" unicode="J" horiz-adv-x="698" 
d="M481 111q0 -455 -424 -455q-70 0 -106 8v209q31 -8 76 -8q107 0 163 53t56 180v1336h235v-1323z" />
    <glyph glyph-name="K" unicode="K" horiz-adv-x="1501" 
d="M221 0v1434h234v-686l690 686h295l-604 -600l612 -834h-289l-487 672l-217 -215v-457h-234z" />
    <glyph glyph-name="L" unicode="L" horiz-adv-x="1089" 
d="M221 0v1434h234v-1219h565v-215h-799z" />
    <glyph glyph-name="M" unicode="M" horiz-adv-x="1830" 
d="M221 0v1434h299l398 -660l395 660h301v-1434h-236v1104l-374 -612h-173l-376 612v-1104h-234z" />
    <glyph glyph-name="N" unicode="N" horiz-adv-x="1716" 
d="M221 0v1434h303l738 -1125v1125h235v-1434h-305l-737 1124v-1124h-234z" />
    <glyph glyph-name="O" unicode="O" horiz-adv-x="1708" 
d="M854 1475q164 0 306.5 -61t240.5 -164t153.5 -241.5t55.5 -291.5t-55.5 -291.5t-153.5 -241.5t-240.5 -164t-306.5 -61q-165 0 -307.5 61t-240 164t-153 241.5t-55.5 291.5t55.5 291.5t153 241.5t240 164t307.5 61zM854 180q146 0 264 71.5t183 194.5t65 271
q0 228 -145 382t-367 154q-147 0 -265 -71.5t-183.5 -194t-65.5 -270.5q0 -228 146 -382.5t368 -154.5z" />
    <glyph glyph-name="P" unicode="P" horiz-adv-x="1204" 
d="M221 0v1434h441q225 0 355 -111.5t130 -302.5t-130 -302.5t-355 -111.5h-207v-606h-234zM672 1231h-217v-422h217q109 0 170 56.5t61 158.5q0 97 -61 152t-170 55z" />
    <glyph glyph-name="Q" unicode="Q" horiz-adv-x="1708" 
d="M1413 6q159 -141 311 -141q60 0 103 14v-201q-64 -22 -139 -22q-225 0 -431 180l-178 154q-112 -31 -225 -31q-165 0 -307.5 61t-240 164t-153 241.5t-55.5 291.5t55.5 291.5t153 241.5t240 164t307.5 61q164 0 306.5 -61t240.5 -164t153.5 -241.5t55.5 -291.5
q0 -186 -80.5 -348t-222.5 -267zM854 180q146 0 264 71.5t183 194.5t65 271q0 228 -145 382t-367 154q-147 0 -265 -71.5t-183.5 -194t-65.5 -270.5q0 -228 146 -382.5t368 -154.5z" />
    <glyph glyph-name="R" unicode="R" horiz-adv-x="1337" 
d="M221 0v1434h406q225 0 355 -111.5t130 -302.5q0 -128 -61 -222.5t-172 -144.5l456 -653h-284l-400 606h-24h-172v-606h-234zM639 1231h-184v-422h184q109 0 169 56t60 159q0 97 -60.5 152t-168.5 55z" />
    <glyph glyph-name="S" unicode="S" horiz-adv-x="1204" 
d="M102 199l172 157q141 -186 336 -186q103 0 162 55t59 146q0 58 -37 104.5t-96 80t-130 66t-142.5 72.5t-130.5 88.5t-96 124t-37 170.5q0 165 123 281.5t313 116.5q287 0 475 -238l-174 -154q-134 183 -299 183q-89 0 -144 -52t-55 -131q0 -46 23 -84t61.5 -67t89 -55.5
t106 -52.5t111 -54.5t106 -66t89 -82t61.5 -108t23 -138.5q-3 -186 -132.5 -301t-324.5 -115q-314 0 -512 240z" />
    <glyph glyph-name="T" unicode="T" horiz-adv-x="1294" 
d="M68 1219v215h1157v-215h-461v-1219h-236v1219h-460z" />
    <glyph glyph-name="U" unicode="U" horiz-adv-x="1490" 
d="M1077 532v902h236v-885q0 -277 -152 -433.5t-413 -156.5q-262 0 -415 157t-153 433v885h234v-902q0 -167 89.5 -259.5t244.5 -92.5q152 0 240.5 92.5t88.5 259.5z" />
    <glyph glyph-name="V" unicode="V" horiz-adv-x="1519" 
d="M45 1434h250l465 -1190l465 1190h250l-562 -1434h-309z" />
    <glyph glyph-name="W" unicode="W" horiz-adv-x="2158" 
d="M61 1434h234l293 -1168l336 1168h311l334 -1168l297 1168h231l-362 -1434h-318l-338 1180l-340 -1180h-315z" />
    <glyph glyph-name="X" unicode="X" horiz-adv-x="1488" 
d="M334 0h-281l525 743l-484 691h279l370 -523l373 523h281l-488 -691l527 -743h-281l-412 578z" />
    <glyph glyph-name="Y" unicode="Y" horiz-adv-x="1413" 
d="M1411 1434l-586 -805v-629h-235v627l-586 807h285l420 -576l417 576h285z" />
    <glyph glyph-name="Z" unicode="Z" horiz-adv-x="1392" 
d="M117 0v215l852 1004h-832v215h1116v-215l-850 -1004h871v-215h-1157z" />
    <glyph glyph-name="bracketleft" unicode="[" horiz-adv-x="649" 
d="M141 1536h475v-182h-276v-1575h276v-182h-475v1939z" />
    <glyph glyph-name="backslash" unicode="\" horiz-adv-x="749" 
d="M721 -403h-213l-481 1939h213z" />
    <glyph glyph-name="bracketright" unicode="]" horiz-adv-x="649" 
d="M510 -403h-475v182h274v1575h-274v182h475v-1939z" />
    <glyph glyph-name="asciicircum" unicode="^" 
d="M391 315h-190l274 463h279l274 -463h-190l-224 355z" />
    <glyph glyph-name="underscore" unicode="_" horiz-adv-x="1105" 
d="M18 -178h1069v-182h-1069v182z" />
    <glyph glyph-name="grave" unicode="`" 
d="M633 1196l-242 340h234l213 -340h-205z" />
    <glyph glyph-name="a" unicode="a" horiz-adv-x="1157" 
d="M459 -41q-154 0 -248 82.5t-94 220.5q0 121 88 203t252 108l331 56v53q0 94 -63 149.5t-164 55.5q-83 0 -150 -35t-108 -100l-158 120q71 95 180 148t244 53q204 0 318 -108t114 -283v-682h-213v117q-54 -72 -142.5 -115t-186.5 -43zM328 270q0 -61 46.5 -99t125.5 -38
q184 0 288 168v174l-276 -49q-184 -28 -184 -156z" />
    <glyph glyph-name="b" unicode="b" horiz-adv-x="1349" 
d="M1257 516q0 -151 -63 -277t-184.5 -203t-278.5 -77q-209 0 -348 139v-98h-211v1536h211v-602q139 139 348 139q157 0 278.5 -77t184.5 -203t63 -277zM383 338q117 -180 322 -180q147 0 239 102t92 256t-92 256t-239 102q-205 0 -322 -180v-356z" />
    <glyph glyph-name="c" unicode="c" horiz-adv-x="1138" 
d="M655 158q84 0 153.5 38t113.5 103l168 -131q-72 -98 -185 -153.5t-252 -55.5q-168 0 -298 77t-197.5 203t-67.5 277t67.5 277t197.5 203t298 77q138 0 251.5 -55.5t185.5 -153.5l-168 -131q-44 65 -113.5 103t-155.5 38q-148 0 -245 -102.5t-97 -255.5q0 -154 97 -256
t247 -102z" />
    <glyph glyph-name="d" unicode="d" horiz-adv-x="1345" 
d="M90 516q0 152 63 277.5t185 202.5t280 77q207 0 345 -135v598h215v-1536h-215v94q-138 -135 -345 -135q-158 0 -280 77t-185 202.5t-63 277.5zM313 516q0 -154 92.5 -256t239.5 -102q99 0 180.5 45.5t137.5 130.5v364q-116 176 -318 176q-147 0 -239.5 -102t-92.5 -256z
" />
    <glyph glyph-name="e" unicode="e" horiz-adv-x="1187" 
d="M1104 168q-73 -99 -189 -154t-258 -55q-130 0 -238 44.5t-179.5 121t-110.5 177.5t-39 214q0 116 36 217.5t102.5 177t166 119t219.5 43.5q211 0 340 -128t129 -327q0 -72 -14 -126h-762q6 -154 103 -248t252 -94q90 0 165 37.5t123 103.5zM616 893q-114 0 -189.5 -60
t-102.5 -178h546q-5 101 -73 169.5t-181 68.5z" />
    <glyph glyph-name="f" unicode="f" horiz-adv-x="808" 
d="M39 1032h194v119q0 168 105.5 276.5t277.5 108.5q169 0 275 -98l-133 -154q-55 62 -140 62q-75 0 -123.5 -52t-48.5 -137v-125h342v-192h-342v-840h-213v840h-194v192z" />
    <glyph glyph-name="g" unicode="g" horiz-adv-x="1140" 
d="M61 -184q0 146 148 256q-68 62 -68 149q0 121 119 203q-67 51 -104 126t-37 161q0 154 110.5 258t294.5 104q116 0 203 -41h381v-180h-203q29 -69 29 -141q0 -156 -111.5 -261.5t-298.5 -105.5q-57 0 -125 14q-51 -42 -51 -88q0 -67 78 -67h281q193 0 296 -89.5
t103 -234.5q0 -172 -145.5 -281.5t-385.5 -109.5t-377 85.5t-137 242.5zM526 506q98 0 154.5 57.5t56.5 147.5q0 88 -56.5 144t-154.5 56t-154.5 -56t-56.5 -144q0 -90 56.5 -147.5t154.5 -57.5zM262 -156q0 -86 81.5 -135t227.5 -49q152 0 238 54.5t86 146.5
q0 157 -209 157h-305q-119 -69 -119 -174z" />
    <glyph glyph-name="h" unicode="h" horiz-adv-x="1267" 
d="M172 0v1536h211v-604q134 141 328 141q179 0 290 -117.5t111 -334.5v-621h-213v612q0 123 -63.5 192.5t-173.5 69.5q-170 0 -279 -178v-696h-211z" />
    <glyph glyph-name="i" unicode="i" horiz-adv-x="555" 
d="M279 1262q-59 0 -101.5 42.5t-42.5 100.5t42.5 100.5t101.5 42.5t101 -42t42 -101t-42 -101t-101 -42zM172 0v1032h211v-1032h-211z" />
    <glyph glyph-name="j" unicode="j" horiz-adv-x="555" 
d="M274 1262q-58 0 -100.5 42t-42.5 101t42.5 101t100.5 42q59 0 101.5 -42.5t42.5 -100.5t-42.5 -100.5t-101.5 -42.5zM383 -125q0 -387 -367 -387q-110 0 -186 31v186q55 -22 154 -22q92 0 140 43.5t48 148.5v1157h211v-1157z" />
    <glyph glyph-name="k" unicode="k" horiz-adv-x="1128" 
d="M176 0v1434h213v-848l440 446h267l-428 -434l432 -598h-262l-322 446l-127 -129v-317h-213z" />
    <glyph glyph-name="l" unicode="l" horiz-adv-x="555" 
d="M172 0v1536h211v-1536h-211z" />
    <glyph glyph-name="m" unicode="m" horiz-adv-x="1912" 
d="M172 0v1032h211v-96q127 137 307 137q111 0 197 -49.5t135 -144.5q146 194 354 194q168 0 274.5 -112.5t106.5 -319.5v-641h-213v633q0 113 -58.5 177t-158.5 64q-156 0 -258 -176q2 -18 2 -57v-641h-213v633q0 114 -57.5 177.5t-159.5 63.5q-159 0 -258 -178v-696h-211z
" />
    <glyph glyph-name="n" unicode="n" horiz-adv-x="1267" 
d="M172 0v1032h211v-100q134 141 328 141q177 0 289 -117.5t112 -334.5v-621h-213v612q0 123 -63.5 192.5t-173.5 69.5q-174 0 -279 -178v-696h-211z" />
    <glyph glyph-name="o" unicode="o" horiz-adv-x="1304" 
d="M651 1073q123 0 229 -44.5t178 -120t113 -177t41 -215.5t-41 -215.5t-113 -177t-178 -120t-229 -44.5q-122 0 -228 44.5t-178.5 119.5t-113.5 177t-41 216t41 216t113.5 177t178.5 119.5t228 44.5zM653 158q145 0 241.5 104.5t96.5 253.5q0 152 -96.5 255t-241.5 103
q-148 0 -245 -103.5t-97 -254.5t97 -254.5t245 -103.5z" />
    <glyph glyph-name="p" unicode="p" horiz-adv-x="1347" 
d="M172 -504v1536h211v-98q139 139 348 139q157 0 278.5 -77t184.5 -203t63 -277t-63 -277t-184.5 -203t-278.5 -77q-209 0 -348 139v-602h-211zM383 338q117 -180 322 -180q147 0 239 102t92 256t-92 256t-239 102q-205 0 -322 -180v-356z" />
    <glyph glyph-name="q" unicode="q" horiz-adv-x="1347" 
d="M90 516q0 151 63 277t184.5 203t278.5 77q210 0 347 -137v96h215v-1536h-215v600q-137 -137 -347 -137q-157 0 -278.5 77t-184.5 203t-63 277zM311 516q0 -154 92.5 -256t239.5 -102q205 0 320 176v364q-116 176 -320 176q-147 0 -239.5 -102t-92.5 -256z" />
    <glyph glyph-name="r" unicode="r" horiz-adv-x="821" 
d="M172 0v1032h211v-117q124 138 289 138q39 0 90 -15v-219q-62 15 -109 15q-174 0 -270 -156v-678h-211z" />
    <glyph glyph-name="s" unicode="s" horiz-adv-x="919" 
d="M70 145l145 129q110 -139 252 -139q73 0 114.5 37.5t41.5 97.5q0 42 -27.5 73.5t-71 52.5t-96.5 41t-106 46.5t-96.5 61t-71 92.5t-27.5 133q0 131 98 217t250 86q112 0 208.5 -48t154.5 -124l-146 -127q-88 123 -215 123q-69 0 -107 -32t-38 -87q0 -42 27.5 -73.5
t71 -53t96 -41.5t105.5 -46.5t96.5 -60.5t71 -90t27.5 -130q-1 -98 -50.5 -173t-130 -113t-177.5 -38q-246 0 -399 186z" />
    <glyph glyph-name="t" unicode="t" horiz-adv-x="868" 
d="M233 358v482h-194v192h194v258h213v-258h342v-192h-342v-482q0 -99 48.5 -141.5t140.5 -42.5t153 23v-187q-74 -30 -186 -30q-182 0 -275.5 95t-93.5 283z" />
    <glyph glyph-name="u" unicode="u" horiz-adv-x="1234" 
d="M872 442v590h213v-579q0 -231 -125 -362.5t-342 -131.5q-219 0 -343.5 131.5t-124.5 362.5v579h212v-590q0 -134 67.5 -209t188.5 -75q119 0 186.5 75.5t67.5 208.5z" />
    <glyph glyph-name="v" unicode="v" horiz-adv-x="1099" 
d="M20 1032h228l303 -803l301 803h229l-391 -1032h-280z" />
    <glyph glyph-name="w" unicode="w" horiz-adv-x="1673" 
d="M61 1032h211l199 -811l221 811h289l219 -809l199 809h211l-252 -1032h-297l-225 825l-226 -825h-293z" />
    <glyph glyph-name="x" unicode="x" horiz-adv-x="1112" 
d="M291 0h-246l373 532l-348 500h243l244 -354l244 354h243l-350 -500l373 -532h-242l-268 389z" />
    <glyph glyph-name="y" unicode="y" horiz-adv-x="1134" 
d="M582 -244q-112 -268 -375 -268q-96 0 -174 33v188q60 -26 131 -26q82 0 137 34.5t90 118.5l70 166l-441 1030h234l319 -760l316 760h225z" />
    <glyph glyph-name="z" unicode="z" horiz-adv-x="1060" 
d="M106 0v193l572 647h-557v192h819v-192l-571 -647h585v-193h-848z" />
    <glyph glyph-name="braceleft" unicode="{" horiz-adv-x="649" 
d="M340 -78q0 -65 38.5 -104t102.5 -39h135v-182h-137q-158 0 -248 88.5t-90 236.5q0 64 27.5 147t54.5 158.5t27 120.5q0 57 -24 92t-68 35h-131v184h131q45 0 68.5 34t23.5 93q0 45 -27 120t-54.5 157.5t-27.5 146.5q0 149 90 237.5t248 88.5h137v-182h-135
q-64 0 -102.5 -39.5t-38.5 -104.5q0 -49 28 -124t56.5 -156t28.5 -144q0 -146 -115 -219q115 -73 115 -219q0 -63 -28.5 -144.5t-56.5 -157t-28 -124.5z" />
    <glyph glyph-name="bar" unicode="|" horiz-adv-x="749" 
d="M274 -403v1939h201v-1939h-201z" />
    <glyph glyph-name="braceright" unicode="}" horiz-adv-x="649" 
d="M311 -78q0 49 -27.5 124t-55 156t-27.5 144q0 148 112 219q-112 71 -112 219q0 63 27.5 144.5t55 157t27.5 124.5q0 65 -38.5 104.5t-102.5 39.5h-135v182h137q157 0 247.5 -88.5t90.5 -237.5q0 -64 -28 -147t-55.5 -158.5t-27.5 -120.5q0 -57 24.5 -92t70.5 -35h131
v-184h-131q-46 0 -70.5 -34t-24.5 -93q0 -45 27.5 -120t55.5 -157.5t28 -146.5q0 -148 -90.5 -236.5t-247.5 -88.5h-137v182h135q64 0 102.5 39t38.5 104z" />
    <glyph glyph-name="asciitilde" unicode="~" 
d="M1047 766v-156q0 -133 -61 -215t-171 -82q-73 0 -130 37t-107 117l-31 45q-20 33 -29 47t-25 32.5t-31 25t-34 6.5q-90 0 -90 -123v-172h-156v164q0 133 60.5 210.5t171.5 77.5q72 0 129 -37t108 -116l29 -45q22 -35 30.5 -47.5t25 -32t31.5 -25.5t34 -6q90 0 90 123v172
h156z" />
    <glyph glyph-name="exclamdown" unicode="&#xa1;" horiz-adv-x="647" 
d="M324 1073q62 0 106.5 -45t44.5 -108q0 -61 -44.5 -105.5t-106.5 -44.5q-63 0 -107.5 44t-44.5 106q0 63 44.5 108t107.5 45zM403 612l41 -997h-241l41 997h159z" />
    <glyph glyph-name="cent" unicode="&#xa2;" horiz-adv-x="1226" 
d="M569 1434h183v-170q114 -12 208.5 -66t159.5 -139l-172 -131q-72 109 -196 133v-701q126 27 196 134l172 -132q-64 -85 -158.5 -138.5t-209.5 -65.5v-158h-183v164q-206 36 -328 189.5t-122 357.5t122 357t328 189v177zM340 711q0 -121 62 -212t167 -126v676
q-105 -35 -167 -126t-62 -212z" />
    <glyph glyph-name="sterling" unicode="&#xa3;" 
d="M139 0v203l170 153q76 68 103.5 112.5t27.5 109.5q0 22 -6 43h-295v178h197q-36 52 -55.5 85.5t-38 89.5t-17.5 111q0 169 118 279.5t304 110.5q146 0 245.5 -58.5t172.5 -171.5l-170 -129q-90 156 -236 156q-93 0 -151.5 -55.5t-58.5 -147.5q0 -26 5.5 -53t11 -45.5
t22 -47.5t23.5 -40t30 -44t28 -40h439v-178h-363q4 -28 4 -46q-1 -92 -41 -164.5t-137 -160.5l-55 -47h694v-203h-971z" />
    <glyph glyph-name="currency" unicode="&#xa4;" 
d="M1001 0l-217 217q-74 -41 -170 -41t-170 41l-219 -219l-127 129l215 217q-45 79 -45 174q0 96 43 172l-211 211l127 129l213 -211q74 41 174 41q101 0 174 -43l213 213l129 -127l-212 -213q45 -76 45 -172q0 -97 -48 -176l215 -215zM616 322q78 0 131.5 56.5t53.5 139.5
q0 84 -53.5 140.5t-131.5 56.5q-82 0 -135 -56t-53 -141t53 -140.5t135 -55.5z" />
    <glyph glyph-name="yen" unicode="&#xa5;" 
d="M119 463v178h383v147h-383v181h243l-303 465h263l294 -457l295 457h258l-301 -465h242v-181h-383v-147h383v-178h-383v-463h-225v463h-383z" />
    <glyph glyph-name="brokenbar" unicode="&#xa6;" horiz-adv-x="749" 
d="M475 815h-201v721h201v-721zM475 -403h-201v720h201v-720z" />
    <glyph glyph-name="section" unicode="&#xa7;" horiz-adv-x="1077" 
d="M719 -43q0 60 -35 102.5t-90.5 67.5t-123 47t-134.5 50t-122.5 66.5t-90.5 105.5t-35 159q1 100 51.5 172.5t136.5 112.5q-135 95 -135 274q0 153 114 257t290 104q253 0 426 -201l-131 -135q-122 157 -295 157q-88 0 -142.5 -49.5t-54.5 -126.5q0 -60 35 -102.5
t90.5 -68t123 -47.5t134.5 -50t122.5 -66.5t90.5 -106t35 -159.5q-3 -97 -54 -169.5t-134 -112.5q135 -95 135 -273q0 -154 -113.5 -258t-288.5 -104q-258 0 -430 200l133 134q126 -156 295 -156q89 0 143 49t54 127zM297 563q0 -27 8 -51t18.5 -41.5t32.5 -35t38.5 -28
t49 -24t51.5 -20.5t59 -20.5t58 -20.5q72 18 115 68.5t43 121.5q0 24 -5 45.5t-17 39.5t-23.5 32t-34 28t-38.5 23t-46 21t-47 18.5t-52.5 18.5t-51.5 18q-72 -18 -115 -69.5t-43 -123.5z" />
    <glyph glyph-name="dieresis" unicode="&#xa8;" 
d="M403 1280q-55 0 -95 40t-40 95q0 54 40 93.5t95 39.5q54 0 94 -39.5t40 -93.5q0 -55 -40 -95t-94 -40zM827 1280q-55 0 -95 40t-40 95q0 54 40 93.5t95 39.5q54 0 94 -39.5t40 -93.5q0 -55 -40 -95t-94 -40z" />
    <glyph glyph-name="copyright" unicode="&#xa9;" horiz-adv-x="1726" 
d="M1628 717q0 -153 -56 -291.5t-155 -241.5t-244 -164t-313 -61q-167 0 -311 61t-242.5 164t-154.5 241.5t-56 291.5t56 291.5t155 241.5t244 164t313 61q167 0 311 -61t242.5 -164t154.5 -241.5t56 -291.5zM236 717q0 -172 78.5 -316.5t223 -230.5t324.5 -86
q181 0 325.5 86t223 230.5t78.5 316.5t-78.5 316.5t-223 230.5t-325.5 86q-136 0 -254 -50.5t-199 -136t-127 -201.5t-46 -245zM877 414q75 0 135 33t98 90l137 -105q-63 -85 -158 -132.5t-212 -47.5q-102 0 -190.5 37.5t-149 100.5t-95 148t-34.5 179t34.5 179t95 148
t149 100.5t190.5 37.5q116 0 211 -47.5t159 -130.5l-137 -107q-38 57 -98 90t-135 33q-126 0 -207.5 -87t-81.5 -216q0 -130 81.5 -216.5t207.5 -86.5z" />
    <glyph glyph-name="ordfeminine" unicode="&#xaa;" horiz-adv-x="733" 
d="M287 805q-94 0 -151.5 51t-57.5 139q0 75 55.5 126.5t155.5 66.5l186 33v20q0 51 -33.5 82t-89.5 31q-89 0 -139 -76l-117 84q96 127 262 127q129 0 201 -70t72 -178v-412h-156v64q-29 -40 -80.5 -64t-107.5 -24zM229 999q0 -33 24 -53t66 -20q96 0 156 94v92l-145 -25
q-101 -16 -101 -88zM115 518v148h516v-148h-516z" />
    <glyph glyph-name="guillemetleft" unicode="&#xab;" horiz-adv-x="1116" 
d="M588 98h-230l-266 404l266 416h230l-264 -414zM1022 98h-229l-267 404l267 416h229l-264 -414z" />
    <glyph glyph-name="logicalnot" unicode="&#xac;" 
d="M1128 825v-618h-182v436h-848v182h1030z" />
    <glyph glyph-name="registered" unicode="&#xae;" horiz-adv-x="1726" 
d="M1628 717q0 -153 -56 -291.5t-155 -241.5t-244 -164t-313 -61q-167 0 -311 61t-242.5 164t-154.5 241.5t-56 291.5t56 291.5t155 241.5t244 164t313 61q167 0 311 -61t242.5 -164t154.5 -241.5t56 -291.5zM236 717q0 -172 78.5 -316.5t223 -230.5t324.5 -86
q181 0 325.5 86t223 230.5t78.5 316.5t-78.5 316.5t-223 230.5t-325.5 86q-136 0 -254 -50.5t-199 -136t-127 -201.5t-46 -245zM594 281v880h266q145 0 228 -69.5t83 -192.5q0 -78 -36.5 -136t-104.5 -89l219 -393h-192l-189 358h-100v-358h-174zM870 1014h-102v-228h102
q59 0 92 30.5t33 86.5q0 52 -33 81.5t-92 29.5z" />
    <glyph glyph-name="macron" unicode="&#xaf;" 
d="M279 1315v160h671v-160h-671z" />
    <glyph glyph-name="degree" unicode="&#xb0;" horiz-adv-x="837" 
d="M420 1475q152 0 249 -98.5t97 -243.5t-97 -243.5t-249 -98.5q-154 0 -251 98.5t-97 243.5t97 243.5t251 98.5zM420 936q79 0 131.5 56.5t52.5 140.5q0 85 -52 140.5t-132 55.5q-82 0 -134.5 -55.5t-52.5 -140.5t53 -141t134 -56z" />
    <glyph glyph-name="plusminus" unicode="&#xb1;" 
d="M705 1032v-272h423v-182h-423v-273h-183v273h-424v182h424v272h183zM1128 0h-1030v182h1030v-182z" />
    <glyph glyph-name="twosuperior" unicode="&#xb2;" horiz-adv-x="796" 
d="M94 829v148l303 299q5 5 24 25t24.5 26.5t20 24t20 28t13 27t10.5 32.5t3 34q0 54 -35 85t-92 31q-58 0 -101 -33t-81 -96l-133 82q59 94 137 143.5t188 49.5q123 0 203 -68.5t80 -179.5q0 -46 -12.5 -87.5t-39.5 -80.5t-50.5 -66t-63.5 -67l-217 -209h407v-148h-608z
" />
    <glyph glyph-name="threesuperior" unicode="&#xb3;" horiz-adv-x="796" 
d="M713 1081q0 -127 -88.5 -201.5t-231.5 -74.5q-236 0 -342 184l144 88q35 -66 82.5 -96.5t113.5 -30.5q68 0 111 37t43 100t-43 99.5t-115 36.5h-145v145h133q58 0 94.5 30.5t36.5 82.5q0 51 -34 79.5t-89 28.5q-102 0 -156 -102l-135 84q106 164 303 164q121 0 200 -64.5
t79 -169.5q0 -129 -101 -198q67 -32 103.5 -90.5t36.5 -131.5z" />
    <glyph glyph-name="acute" unicode="&#xb4;" horiz-adv-x="1230" 
d="M596 1196h-205l213 340h234z" />
    <glyph glyph-name="paragraph" unicode="&#xb6;" horiz-adv-x="1409" 
d="M774 -403h-201v1009h-32q-224 0 -354 111.5t-130 302.5t130 302.5t354 111.5h233v-1837zM989 -403v1837h201v-1837h-201z" />
    <glyph glyph-name="periodcentered" unicode="&#xb7;" horiz-adv-x="555" 
d="M279 369q-63 0 -108.5 45t-45.5 108q0 60 45.5 105t108.5 45q61 0 106 -45t45 -105q0 -63 -44.5 -108t-106.5 -45z" />
    <glyph glyph-name="cedilla" unicode="&#xb8;" 
d="M575 16l168 -8l-112 -129q89 0 152 -52t63 -130q0 -89 -69 -148t-175 -59q-140 0 -219 70l78 110q56 -53 131 -53q41 0 66.5 21t25.5 57t-26.5 56t-71.5 20q-44 0 -82 -21l-72 86z" />
    <glyph glyph-name="onesuperior" unicode="&#xb9;" horiz-adv-x="796" 
d="M115 829v148h235v565l-198 -106l-82 116l284 158h160v-733h209v-148h-608z" />
    <glyph glyph-name="ordmasculine" unicode="&#xba;" horiz-adv-x="837" 
d="M420 1489q151 0 248.5 -99t97.5 -243t-97.5 -243t-248.5 -99q-154 0 -251 99t-97 243t97 243t251 99zM420 950q79 0 131.5 56.5t52.5 140.5q0 85 -52 140.5t-132 55.5q-82 0 -134.5 -55.5t-52.5 -140.5t53 -141t134 -56zM121 518v148h598v-148h-598z" />
    <glyph glyph-name="guillemetright" unicode="&#xbb;" horiz-adv-x="1116" 
d="M94 918h228l266 -404l-266 -416h-228l264 416zM528 918h228l266 -404l-266 -416h-228l265 416z" />
    <glyph glyph-name="onequarter" unicode="&#xbc;" horiz-adv-x="1921" 
d="M115 553v147h235v566l-198 -107l-82 117l284 158h160v-734h209v-147h-608zM430 0l1051 1434h219l-1051 -1434h-219zM1198 236v137l375 508h190v-508h92v-137h-92v-236h-164v236h-401zM1364 373h235v315z" />
    <glyph glyph-name="onehalf" unicode="&#xbd;" horiz-adv-x="2078" 
d="M115 553v147h235v566l-198 -107l-82 117l284 158h160v-734h209v-147h-608zM430 0l1051 1434h219l-1051 -1434h-219zM1376 0v147l303 299q5 5 24 25t24.5 26.5t20 24t20 28t13 27t10.5 32.5t3 34q0 54 -35 85.5t-92 31.5q-58 0 -101 -33t-81 -96l-133 82q59 93 137 142.5
t188 49.5q123 0 203 -68.5t80 -179.5q0 -46 -12.5 -87.5t-39.5 -80.5t-50.5 -66t-63.5 -67l-217 -209h408v-147h-609z" />
    <glyph glyph-name="threequarters" unicode="&#xbe;" horiz-adv-x="1847" 
d="M713 805q0 -127 -88.5 -202t-231.5 -75q-235 0 -342 185l144 88q35 -66 82.5 -96.5t113.5 -30.5q68 0 111 37t43 100t-43 99t-115 36h-145v146h133q58 0 94.5 30t36.5 82q0 51 -34 80t-89 29q-101 0 -156 -103l-135 84q106 164 303 164q122 0 200.5 -64.5t78.5 -168.5
q0 -130 -101 -199q67 -32 103.5 -90t36.5 -131zM356 0l1051 1434h219l-1051 -1434h-219zM1124 236v137l375 508h191v-508h92v-137h-92v-236h-164v236h-402zM1290 373h236v315z" />
    <glyph glyph-name="questiondown" unicode="&#xbf;" horiz-adv-x="1050" 
d="M606 1073q63 0 108.5 -45t45.5 -108q0 -61 -45.5 -105.5t-108.5 -44.5q-62 0 -106.5 44.5t-44.5 105.5q0 63 44.5 108t106.5 45zM688 612l27 -321q-212 -24 -318 -92.5t-106 -202.5q0 -96 65 -159.5t164 -63.5q87 0 151 41.5t128 132.5l184 -113q-176 -260 -471 -260
q-122 0 -224.5 52.5t-164.5 150t-62 219.5q0 180 124 295.5t331 150.5l14 170h158z" />
    <glyph glyph-name="Agrave" unicode="&#xc0;" horiz-adv-x="1519" 
d="M657 1556l-264 277h250l231 -277h-217zM45 0l559 1434h311l560 -1434h-250l-152 401h-627l-151 -401h-250zM524 602h471l-235 621z" />
    <glyph glyph-name="Aacute" unicode="&#xc1;" horiz-adv-x="1519" 
d="M868 1556h-217l232 277h250zM45 0l559 1434h311l560 -1434h-250l-152 401h-627l-151 -401h-250zM524 602h471l-235 621z" />
    <glyph glyph-name="Acircumflex" unicode="&#xc2;" horiz-adv-x="1519" 
d="M594 1556h-191l232 277h252l229 -277h-190l-166 173zM45 0l559 1434h311l560 -1434h-250l-152 401h-627l-151 -401h-250zM524 602h471l-235 621z" />
    <glyph glyph-name="Atilde" unicode="&#xc3;" horiz-adv-x="1519" 
d="M389 1556v80q0 99 57 158t150 59q41 0 79.5 -14t59 -28t60.5 -44l26 -22q5 -4 17.5 -15t17 -15t14.5 -10.5t16 -9t15 -5t19 -2.5q25 0 40 18t15 51v76h155v-80q0 -100 -56.5 -158.5t-149.5 -58.5q-42 0 -81 14.5t-58 27.5t-60 44l-27 23q-4 4 -17.5 15.5t-17.5 14.5
l-14 10.5t-16 9.5t-15 4.5t-18 2.5q-55 0 -55 -70v-76h-156zM45 0l559 1434h311l560 -1434h-250l-152 401h-627l-151 -401h-250zM524 602h471l-235 621z" />
    <glyph glyph-name="Adieresis" unicode="&#xc4;" horiz-adv-x="1519" 
d="M551 1591q-53 0 -90 35.5t-37 87.5q0 51 37.5 88t89.5 37q50 0 87.5 -37t37.5 -88q0 -52 -37.5 -87.5t-87.5 -35.5zM969 1591q-52 0 -88.5 35.5t-36.5 87.5t37 88.5t88 36.5q53 0 90 -36.5t37 -88.5t-37 -87.5t-90 -35.5zM45 0l559 1434h311l560 -1434h-250l-152 401
h-627l-151 -401h-250zM524 602h471l-235 621z" />
    <glyph glyph-name="Aring" unicode="&#xc5;" horiz-adv-x="1519" 
d="M760 1516q-111 0 -184.5 59.5t-73.5 171.5t73.5 171.5t184.5 59.5q114 0 188 -59.5t74 -171.5t-74 -171.5t-188 -59.5zM760 1634q59 0 94 29.5t35 83.5t-35 83.5t-94 29.5q-57 0 -92 -29.5t-35 -83.5t35 -83.5t92 -29.5zM45 0l559 1434h311l560 -1434h-250l-152 401h-627
l-151 -401h-250zM524 602h471l-235 621z" />
    <glyph glyph-name="AE" unicode="&#xc6;" horiz-adv-x="2015" 
d="M33 0l899 1434h934v-215h-563v-381h481v-215h-481v-408h563v-215h-799v401h-514l-248 -401h-272zM676 602h391v635z" />
    <glyph glyph-name="Ccedilla" unicode="&#xc7;" horiz-adv-x="1536" 
d="M854 180q131 0 238.5 58.5t177.5 158.5l188 -145q-89 -119 -222 -195t-294 -94l-180 -293h-213l184 297q-188 28 -333.5 135.5t-223.5 268t-78 346.5q0 153 55.5 291.5t153 241.5t240 164t307.5 61q190 0 345.5 -78.5t258.5 -214.5l-188 -146q-70 100 -177.5 158.5
t-238.5 58.5q-147 0 -265 -71.5t-183.5 -194t-65.5 -270.5q0 -228 146 -382.5t368 -154.5z" />
    <glyph glyph-name="Egrave" unicode="&#xc8;" horiz-adv-x="1171" 
d="M518 1556l-264 277h250l231 -277h-217zM221 0v1434h799v-203h-565v-400h483v-202h-483v-426h565v-203h-799z" />
    <glyph glyph-name="Eacute" unicode="&#xc9;" horiz-adv-x="1171" 
d="M729 1556h-217l231 277h250zM221 0v1434h799v-203h-565v-400h483v-202h-483v-426h565v-203h-799z" />
    <glyph glyph-name="Ecircumflex" unicode="&#xca;" horiz-adv-x="1171" 
d="M455 1556h-191l232 277h252l229 -277h-191l-165 173zM221 0v1434h799v-203h-565v-400h483v-202h-483v-426h565v-203h-799z" />
    <glyph glyph-name="Edieresis" unicode="&#xcb;" horiz-adv-x="1171" 
d="M412 1591q-53 0 -90 35.5t-37 87.5q0 51 37.5 88t89.5 37q50 0 87.5 -37t37.5 -88q0 -52 -37.5 -87.5t-87.5 -35.5zM829 1591q-51 0 -87.5 35.5t-36.5 87.5t36.5 88.5t87.5 36.5q53 0 90 -36.5t37 -88.5t-37 -87.5t-90 -35.5zM221 0v1434h799v-203h-565v-400h483v-202
h-483v-426h565v-203h-799z" />
    <glyph glyph-name="Igrave" unicode="&#xcc;" horiz-adv-x="675" 
d="M236 1556l-265 277h250l232 -277h-217zM221 0v1434h234v-1434h-234z" />
    <glyph glyph-name="Iacute" unicode="&#xcd;" horiz-adv-x="675" 
d="M446 1556h-217l232 277h250zM221 0v1434h234v-1434h-234z" />
    <glyph glyph-name="Icircumflex" unicode="&#xce;" horiz-adv-x="675" 
d="M172 1556h-190l231 277h252l229 -277h-190l-166 173zM221 0v1434h234v-1434h-234z" />
    <glyph glyph-name="Idieresis" unicode="&#xcf;" horiz-adv-x="675" 
d="M129 1591q-53 0 -90 35.5t-37 87.5q0 51 37.5 88t89.5 37q50 0 87.5 -37t37.5 -88q0 -52 -37.5 -87.5t-87.5 -35.5zM547 1591q-52 0 -88.5 35.5t-36.5 87.5t37 88.5t88 36.5q53 0 90 -36.5t37 -88.5t-37 -87.5t-90 -35.5zM221 0v1434h234v-1434h-234z" />
    <glyph glyph-name="Eth" unicode="&#xd0;" horiz-adv-x="1632" 
d="M221 0v653h-221v160h221v621h557q165 0 307.5 -57.5t240 -155.5t153 -229t55.5 -275t-55.5 -275t-153 -229t-240 -155.5t-307.5 -57.5h-557zM815 653h-360v-438h325q220 0 365 145t145 357q0 139 -65 254t-182 181.5t-263 66.5h-325v-406h360v-160z" />
    <glyph glyph-name="Ntilde" unicode="&#xd1;" horiz-adv-x="1716" 
d="M487 1556v80q0 99 57 158t150 59q41 0 79.5 -14t59 -28t60.5 -44l27 -22q5 -4 20.5 -18t20.5 -17.5t16 -10.5t20.5 -9t20.5 -2q25 0 40 18t15 51v76h156v-80q0 -100 -57 -158.5t-150 -58.5q-42 0 -81 14.5t-58 27.5t-60 44l-26 23q-4 3 -15.5 13t-15 13t-12.5 10t-14 9.5
t-12.5 6t-14.5 4.5t-15 1q-55 0 -55 -70v-76h-156zM221 0v1434h303l738 -1125v1125h235v-1434h-305l-737 1124v-1124h-234z" />
    <glyph glyph-name="Ograve" unicode="&#xd2;" horiz-adv-x="1708" 
d="M752 1556l-265 277h250l232 -277h-217zM854 1475q164 0 306.5 -61t240.5 -164t153.5 -241.5t55.5 -291.5t-55.5 -291.5t-153.5 -241.5t-240.5 -164t-306.5 -61q-165 0 -307.5 61t-240 164t-153 241.5t-55.5 291.5t55.5 291.5t153 241.5t240 164t307.5 61zM854 180
q146 0 264 71.5t183 194.5t65 271q0 228 -145 382t-367 154q-147 0 -265 -71.5t-183.5 -194t-65.5 -270.5q0 -228 146 -382.5t368 -154.5z" />
    <glyph glyph-name="Oacute" unicode="&#xd3;" horiz-adv-x="1708" 
d="M963 1556h-218l232 277h250zM854 1475q164 0 306.5 -61t240.5 -164t153.5 -241.5t55.5 -291.5t-55.5 -291.5t-153.5 -241.5t-240.5 -164t-306.5 -61q-165 0 -307.5 61t-240 164t-153 241.5t-55.5 291.5t55.5 291.5t153 241.5t240 164t307.5 61zM854 180q146 0 264 71.5
t183 194.5t65 271q0 228 -145 382t-367 154q-147 0 -265 -71.5t-183.5 -194t-65.5 -270.5q0 -228 146 -382.5t368 -154.5z" />
    <glyph glyph-name="Ocircumflex" unicode="&#xd4;" horiz-adv-x="1708" 
d="M688 1556h-190l231 277h252l229 -277h-190l-166 173zM854 1475q164 0 306.5 -61t240.5 -164t153.5 -241.5t55.5 -291.5t-55.5 -291.5t-153.5 -241.5t-240.5 -164t-306.5 -61q-165 0 -307.5 61t-240 164t-153 241.5t-55.5 291.5t55.5 291.5t153 241.5t240 164t307.5 61z
M854 180q146 0 264 71.5t183 194.5t65 271q0 228 -145 382t-367 154q-147 0 -265 -71.5t-183.5 -194t-65.5 -270.5q0 -228 146 -382.5t368 -154.5z" />
    <glyph glyph-name="Otilde" unicode="&#xd5;" horiz-adv-x="1708" 
d="M483 1556v80q0 99 57 158t150 59q41 0 79.5 -14t59 -28t60.5 -44l26 -22q5 -4 17.5 -15t17 -15t14.5 -10.5t16 -9t15 -5t19 -2.5q25 0 40 18t15 51v76h156v-80q0 -100 -57 -158.5t-150 -58.5q-42 0 -81 14.5t-58 27.5t-60 44l-26 23q-4 3 -15.5 13t-15 13t-12.5 10
t-14 9.5t-12.5 6t-14.5 4.5t-15 1q-55 0 -55 -70v-76h-156zM854 1475q164 0 306.5 -61t240.5 -164t153.5 -241.5t55.5 -291.5t-55.5 -291.5t-153.5 -241.5t-240.5 -164t-306.5 -61q-165 0 -307.5 61t-240 164t-153 241.5t-55.5 291.5t55.5 291.5t153 241.5t240 164t307.5 61
zM854 180q146 0 264 71.5t183 194.5t65 271q0 228 -145 382t-367 154q-147 0 -265 -71.5t-183.5 -194t-65.5 -270.5q0 -228 146 -382.5t368 -154.5z" />
    <glyph glyph-name="Odieresis" unicode="&#xd6;" horiz-adv-x="1708" 
d="M645 1591q-53 0 -90 35.5t-37 87.5q0 51 37.5 88t89.5 37q50 0 87.5 -37t37.5 -88q0 -52 -37.5 -87.5t-87.5 -35.5zM1063 1591q-52 0 -88.5 35.5t-36.5 87.5t37 88.5t88 36.5q53 0 90 -36.5t37 -88.5t-37 -87.5t-90 -35.5zM854 1475q164 0 306.5 -61t240.5 -164
t153.5 -241.5t55.5 -291.5t-55.5 -291.5t-153.5 -241.5t-240.5 -164t-306.5 -61q-165 0 -307.5 61t-240 164t-153 241.5t-55.5 291.5t55.5 291.5t153 241.5t240 164t307.5 61zM854 180q146 0 264 71.5t183 194.5t65 271q0 228 -145 382t-367 154q-147 0 -265 -71.5
t-183.5 -194t-65.5 -270.5q0 -228 146 -382.5t368 -154.5z" />
    <glyph glyph-name="multiply" unicode="&#xd7;" 
d="M1001 0l-387 389l-389 -389l-127 129l387 387l-385 387l127 129l387 -387l387 387l129 -127l-389 -389l389 -389z" />
    <glyph glyph-name="Oslash" unicode="&#xd8;" horiz-adv-x="1708" 
d="M319 -41h-221l197 240q-94 102 -145.5 236t-51.5 282q0 153 55.5 291.5t153 241.5t240 164t307.5 61q241 0 430 -127l105 127h221l-197 -240q95 -104 146 -237t51 -281q0 -153 -55.5 -291.5t-153.5 -241.5t-240.5 -164t-306.5 -61q-241 0 -430 127zM340 717
q0 -200 113 -344l675 803q-123 77 -274 77q-147 0 -265 -71.5t-183.5 -194t-65.5 -270.5zM854 180q146 0 264 71.5t183 194.5t65 271q0 200 -113 344l-673 -803q124 -78 274 -78z" />
    <glyph glyph-name="Ugrave" unicode="&#xd9;" horiz-adv-x="1490" 
d="M645 1556l-264 277h250l231 -277h-217zM1077 532v902h236v-885q0 -277 -152 -433.5t-413 -156.5q-262 0 -415 157t-153 433v885h234v-902q0 -167 89.5 -259.5t244.5 -92.5q152 0 240.5 92.5t88.5 259.5z" />
    <glyph glyph-name="Uacute" unicode="&#xda;" horiz-adv-x="1490" 
d="M856 1556h-217l231 277h250zM1077 532v902h236v-885q0 -277 -152 -433.5t-413 -156.5q-262 0 -415 157t-153 433v885h234v-902q0 -167 89.5 -259.5t244.5 -92.5q152 0 240.5 92.5t88.5 259.5z" />
    <glyph glyph-name="Ucircumflex" unicode="&#xdb;" horiz-adv-x="1490" 
d="M582 1556h-191l232 277h251l230 -277h-191l-165 173zM1077 532v902h236v-885q0 -277 -152 -433.5t-413 -156.5q-262 0 -415 157t-153 433v885h234v-902q0 -167 89.5 -259.5t244.5 -92.5q152 0 240.5 92.5t88.5 259.5z" />
    <glyph glyph-name="Udieresis" unicode="&#xdc;" horiz-adv-x="1490" 
d="M539 1591q-53 0 -90 35.5t-37 87.5q0 51 37.5 88t89.5 37q50 0 87.5 -37t37.5 -88q0 -52 -37.5 -87.5t-87.5 -35.5zM956 1591q-52 0 -88.5 35.5t-36.5 87.5t37 88.5t88 36.5q53 0 90 -36.5t37 -88.5t-37 -87.5t-90 -35.5zM1077 532v902h236v-885q0 -277 -152 -433.5
t-413 -156.5q-262 0 -415 157t-153 433v885h234v-902q0 -167 89.5 -259.5t244.5 -92.5q152 0 240.5 92.5t88.5 259.5z" />
    <glyph glyph-name="Yacute" unicode="&#xdd;" horiz-adv-x="1413" 
d="M815 1556h-217l231 277h250zM1411 1434l-586 -805v-629h-235v627l-586 807h285l420 -576l417 576h285z" />
    <glyph glyph-name="Thorn" unicode="&#xde;" horiz-adv-x="1204" 
d="M221 0v1434h234v-287h207q225 0 355 -111.5t130 -302.5t-130 -302.5t-355 -111.5h-207v-319h-234zM672 934h-217v-399h217q109 0 170 52t61 148q0 94 -61 146.5t-170 52.5z" />
    <glyph glyph-name="germandbls" unicode="&#xdf;" horiz-adv-x="1208" 
d="M653 -8q-65 0 -112 12v199q47 -13 100 -13q115 0 185.5 66.5t70.5 175.5q0 106 -76 177t-194 71h-86v201h73q103 0 165.5 64.5t62.5 170.5q0 96 -63 158.5t-165 62.5t-165.5 -60.5t-63.5 -160.5v-1116h-213v1116q0 183 120.5 301.5t319.5 118.5q207 0 329 -119t122 -301
q0 -106 -55 -200.5t-148 -131.5q120 -35 188 -139.5t68 -224.5q0 -194 -131.5 -311t-331.5 -117z" />
    <glyph glyph-name="agrave" unicode="&#xe0;" horiz-adv-x="1128" 
d="M451 1196l-242 340h233l213 -340h-204zM459 -41q-154 0 -248 82.5t-94 220.5q0 121 88 203t252 108l331 56v53q0 94 -63 149.5t-164 55.5q-83 0 -150 -35t-108 -100l-158 120q71 95 180 148t244 53q204 0 318 -108t114 -283v-682h-213v117q-54 -72 -142.5 -115
t-186.5 -43zM328 270q0 -61 46.5 -99t125.5 -38q184 0 288 168v174l-276 -49q-184 -28 -184 -156z" />
    <glyph glyph-name="aacute" unicode="&#xe1;" horiz-adv-x="1157" 
d="M686 1196h-205l213 340h234zM459 -41q-154 0 -248 82.5t-94 220.5q0 121 88 203t252 108l331 56v53q0 94 -63 149.5t-164 55.5q-83 0 -150 -35t-108 -100l-158 120q71 95 180 148t244 53q204 0 318 -108t114 -283v-682h-213v117q-54 -72 -142.5 -115t-186.5 -43zM328 270
q0 -61 46.5 -99t125.5 -38q184 0 288 168v174l-276 -49q-184 -28 -184 -156z" />
    <glyph glyph-name="acircumflex" unicode="&#xe2;" horiz-adv-x="1157" 
d="M416 1196h-191l213 340h279l213 -340h-191l-161 240zM459 -41q-154 0 -248 82.5t-94 220.5q0 121 88 203t252 108l331 56v53q0 94 -63 149.5t-164 55.5q-83 0 -150 -35t-108 -100l-158 120q71 95 180 148t244 53q204 0 318 -108t114 -283v-682h-213v117
q-54 -72 -142.5 -115t-186.5 -43zM328 270q0 -61 46.5 -99t125.5 -38q184 0 288 168v174l-276 -49q-184 -28 -184 -156z" />
    <glyph glyph-name="atilde" unicode="&#xe3;" horiz-adv-x="1157" 
d="M948 1536v-94q0 -116 -53 -188t-147 -72q-101 0 -195 104l-35 33q-41 51 -58 62q-18 12 -40 12q-28 0 -43 -22.5t-15 -59.5v-115h-155v102q0 116 52 184t149 68q56 0 100.5 -26t93.5 -78l33 -33q41 -51 58 -62q18 -12 40 -12q30 0 45 22.5t15 59.5v115h155zM459 -41
q-154 0 -248 82.5t-94 220.5q0 121 88 203t252 108l331 56v53q0 94 -63 149.5t-164 55.5q-83 0 -150 -35t-108 -100l-158 120q71 95 180 148t244 53q204 0 318 -108t114 -283v-682h-213v117q-54 -72 -142.5 -115t-186.5 -43zM328 270q0 -61 46.5 -99t125.5 -38
q184 0 288 168v174l-276 -49q-184 -28 -184 -156z" />
    <glyph glyph-name="adieresis" unicode="&#xe4;" horiz-adv-x="1157" 
d="M367 1280q-56 0 -96 40t-40 95q0 54 40.5 93.5t95.5 39.5q54 0 93.5 -39.5t39.5 -93.5q0 -55 -39.5 -95t-93.5 -40zM791 1280q-56 0 -96 40t-40 95q0 54 40.5 93.5t95.5 39.5q54 0 93.5 -39.5t39.5 -93.5q0 -55 -39.5 -95t-93.5 -40zM459 -41q-154 0 -248 82.5t-94 220.5
q0 121 88 203t252 108l331 56v53q0 94 -63 149.5t-164 55.5q-83 0 -150 -35t-108 -100l-158 120q71 95 180 148t244 53q204 0 318 -108t114 -283v-682h-213v117q-54 -72 -142.5 -115t-186.5 -43zM328 270q0 -61 46.5 -99t125.5 -38q184 0 288 168v174l-276 -49
q-184 -28 -184 -156z" />
    <glyph glyph-name="aring" unicode="&#xe5;" horiz-adv-x="1157" 
d="M578 1139q-107 0 -183 68t-76 175q0 108 76 176t183 68q110 0 186 -68t76 -176t-76 -175.5t-186 -67.5zM582 1253q57 2 92.5 37.5t34.5 93.5t-38.5 92.5t-95.5 32.5q-56 0 -91.5 -36.5t-34.5 -94.5q1 -56 39 -90.5t94 -34.5zM459 -41q-154 0 -248 82.5t-94 220.5
q0 121 88 203t252 108l331 56v53q0 94 -63 149.5t-164 55.5q-83 0 -150 -35t-108 -100l-158 120q71 95 180 148t244 53q204 0 318 -108t114 -283v-682h-213v117q-54 -72 -142.5 -115t-186.5 -43zM328 270q0 -61 46.5 -99t125.5 -38q184 0 288 168v174l-276 -49
q-184 -28 -184 -156z" />
    <glyph glyph-name="ae" unicode="&#xe6;" horiz-adv-x="1886" 
d="M465 -41q-155 0 -248.5 82t-93.5 221q0 121 87.5 203t248.5 108l329 56v53q0 94 -61.5 149.5t-161.5 55.5q-86 0 -153 -35t-109 -100l-158 120q71 94 181 147.5t245 53.5q122 0 212.5 -43.5t142.5 -122.5q69 79 168 122.5t219 43.5q211 0 340 -128t129 -327
q0 -68 -15 -126h-761q6 -154 102.5 -248t251.5 -94q92 0 166.5 37.5t122.5 103.5l153 -123q-74 -99 -188.5 -154t-257.5 -55q-157 0 -279 63.5t-196 174.5q-68 -106 -179.5 -172t-236.5 -66zM1315 893q-114 0 -190 -60t-103 -178h547q-5 101 -73 169.5t-181 68.5zM332 270
q0 -58 45.5 -94.5t120.5 -36.5q194 0 315 203q-15 53 -22 127l-281 -47q-178 -33 -178 -152z" />
    <glyph glyph-name="ccedilla" unicode="&#xe7;" horiz-adv-x="1138" 
d="M655 158q84 0 153.5 38t113.5 103l168 -131q-68 -90 -169 -145t-225 -62l-71 -82q89 0 152 -52t63 -130q0 -89 -69 -148t-175 -59q-140 0 -219 70l78 110q56 -53 131 -53q41 0 66.5 21t25.5 57t-26.5 56t-71.5 20q-44 0 -82 -21l-72 86l106 133q-202 39 -322 192
t-120 355q0 151 67.5 277t197.5 203t298 77q138 0 251.5 -55.5t185.5 -153.5l-168 -131q-44 65 -113.5 103t-155.5 38q-148 0 -245 -102.5t-97 -255.5q0 -154 97 -256t247 -102z" />
    <glyph glyph-name="egrave" unicode="&#xe8;" horiz-adv-x="1187" 
d="M510 1196l-242 340h234l213 -340h-205zM1104 168q-73 -99 -189 -154t-258 -55q-130 0 -238 44.5t-179.5 121t-110.5 177.5t-39 214q0 116 36 217.5t102.5 177t166 119t219.5 43.5q211 0 340 -128t129 -327q0 -72 -14 -126h-762q6 -154 103 -248t252 -94q90 0 165 37.5
t123 103.5zM616 893q-114 0 -189.5 -60t-102.5 -178h546q-5 101 -73 169.5t-181 68.5z" />
    <glyph glyph-name="eacute" unicode="&#xe9;" horiz-adv-x="1187" 
d="M729 1196h-205l213 340h234zM1104 168q-73 -99 -189 -154t-258 -55q-130 0 -238 44.5t-179.5 121t-110.5 177.5t-39 214q0 116 36 217.5t102.5 177t166 119t219.5 43.5q211 0 340 -128t129 -327q0 -72 -14 -126h-762q6 -154 103 -248t252 -94q90 0 165 37.5t123 103.5z
M616 893q-114 0 -189.5 -60t-102.5 -178h546q-5 101 -73 169.5t-181 68.5z" />
    <glyph glyph-name="ecircumflex" unicode="&#xea;" horiz-adv-x="1187" 
d="M459 1196h-191l213 340h279l213 -340h-191l-161 240zM1104 168q-73 -99 -189 -154t-258 -55q-130 0 -238 44.5t-179.5 121t-110.5 177.5t-39 214q0 116 36 217.5t102.5 177t166 119t219.5 43.5q211 0 340 -128t129 -327q0 -72 -14 -126h-762q6 -154 103 -248t252 -94
q90 0 165 37.5t123 103.5zM616 893q-114 0 -189.5 -60t-102.5 -178h546q-5 101 -73 169.5t-181 68.5z" />
    <glyph glyph-name="edieresis" unicode="&#xeb;" horiz-adv-x="1187" 
d="M410 1280q-56 0 -96 40t-40 95q0 54 40.5 93.5t95.5 39.5q54 0 93.5 -39.5t39.5 -93.5q0 -55 -39.5 -95t-93.5 -40zM834 1280q-56 0 -96 40t-40 95q0 54 40.5 93.5t95.5 39.5q54 0 93.5 -39.5t39.5 -93.5q0 -55 -39.5 -95t-93.5 -40zM1104 168q-73 -99 -189 -154
t-258 -55q-130 0 -238 44.5t-179.5 121t-110.5 177.5t-39 214q0 116 36 217.5t102.5 177t166 119t219.5 43.5q211 0 340 -128t129 -327q0 -72 -14 -126h-762q6 -154 103 -248t252 -94q90 0 165 37.5t123 103.5zM616 893q-114 0 -189.5 -60t-102.5 -178h546q-5 101 -73 169.5
t-181 68.5z" />
    <glyph glyph-name="igrave" unicode="&#xec;" horiz-adv-x="555" 
d="M168 1196l-242 340h234l213 -340h-205zM172 0v1032h211v-1032h-211z" />
    <glyph glyph-name="iacute" unicode="&#xed;" horiz-adv-x="555" 
d="M387 1196h-205l213 340h234zM172 0v1032h211v-1032h-211z" />
    <glyph glyph-name="icircumflex" unicode="&#xee;" horiz-adv-x="555" 
d="M117 1196h-191l213 340h279l213 -340h-191l-161 240zM172 0v1032h211v-1032h-211z" />
    <glyph glyph-name="idieresis" unicode="&#xef;" horiz-adv-x="555" 
d="M68 1280q-56 0 -96 40t-40 95q0 54 40.5 93.5t95.5 39.5q54 0 93.5 -39.5t39.5 -93.5q0 -55 -39.5 -95t-93.5 -40zM492 1280q-56 0 -96 40t-40 95q0 54 40.5 93.5t95.5 39.5q54 0 93.5 -39.5t39.5 -93.5q0 -55 -39.5 -95t-93.5 -40zM172 0v1032h211v-1032h-211z" />
    <glyph glyph-name="eth" unicode="&#xf0;" horiz-adv-x="1292" 
d="M283 1130v162l237 72q-116 85 -272 172h317q87 -46 172 -109l361 109v-164l-224 -65q152 -160 240 -352t88 -371q0 -284 -148.5 -454.5t-402.5 -170.5q-165 0 -294 73t-198 197t-69 275q0 241 150 394t383 153q155 0 272 -90q-78 149 -227 284zM311 504q0 -152 96 -249
t242 -97q159 0 247.5 108.5t88.5 304.5q0 53 -2 78q-58 94 -147 147.5t-193 53.5q-146 0 -239 -96t-93 -250z" />
    <glyph glyph-name="ntilde" unicode="&#xf1;" horiz-adv-x="1267" 
d="M1030 1536v-94q0 -116 -53.5 -188t-147.5 -72q-57 0 -102 26.5t-92 77.5l-35 33q-41 51 -58 62q-18 12 -40 12q-28 0 -43 -22.5t-15 -59.5v-115h-155v102q0 116 52 184t148 68q56 0 101 -26t94 -78l33 -33q41 -51 58 -62q18 -12 40 -12q29 0 44 22.5t15 59.5v115h156z
M172 0v1032h211v-100q134 141 328 141q177 0 289 -117.5t112 -334.5v-621h-213v612q0 123 -63.5 192.5t-173.5 69.5q-174 0 -279 -178v-696h-211z" />
    <glyph glyph-name="ograve" unicode="&#xf2;" horiz-adv-x="1304" 
d="M541 1196l-242 340h233l213 -340h-204zM651 1073q123 0 229 -44.5t178 -120t113 -177t41 -215.5t-41 -215.5t-113 -177t-178 -120t-229 -44.5q-122 0 -228 44.5t-178.5 119.5t-113.5 177t-41 216t41 216t113.5 177t178.5 119.5t228 44.5zM653 158q145 0 241.5 104.5
t96.5 253.5q0 152 -96.5 255t-241.5 103q-148 0 -245 -103.5t-97 -254.5t97 -254.5t245 -103.5z" />
    <glyph glyph-name="oacute" unicode="&#xf3;" horiz-adv-x="1304" 
d="M760 1196h-205l213 340h233zM651 1073q123 0 229 -44.5t178 -120t113 -177t41 -215.5t-41 -215.5t-113 -177t-178 -120t-229 -44.5q-122 0 -228 44.5t-178.5 119.5t-113.5 177t-41 216t41 216t113.5 177t178.5 119.5t228 44.5zM653 158q145 0 241.5 104.5t96.5 253.5
q0 152 -96.5 255t-241.5 103q-148 0 -245 -103.5t-97 -254.5t97 -254.5t245 -103.5z" />
    <glyph glyph-name="ocircumflex" unicode="&#xf4;" horiz-adv-x="1304" 
d="M489 1196h-190l213 340h279l213 -340h-191l-162 240zM651 1073q123 0 229 -44.5t178 -120t113 -177t41 -215.5t-41 -215.5t-113 -177t-178 -120t-229 -44.5q-122 0 -228 44.5t-178.5 119.5t-113.5 177t-41 216t41 216t113.5 177t178.5 119.5t228 44.5zM653 158
q145 0 241.5 104.5t96.5 253.5q0 152 -96.5 255t-241.5 103q-148 0 -245 -103.5t-97 -254.5t97 -254.5t245 -103.5z" />
    <glyph glyph-name="otilde" unicode="&#xf5;" horiz-adv-x="1304" 
d="M1022 1536v-94q0 -116 -53.5 -188t-147.5 -72q-57 0 -102 26.5t-92 77.5l-35 33q-41 51 -58 62q-18 12 -40 12q-28 0 -43 -22.5t-15 -59.5v-115h-155v102q0 116 52 184t148 68q56 0 101 -26t94 -78l33 -33q41 -51 58 -62q18 -12 40 -12q29 0 44 22.5t15 59.5v115h156z
M651 1073q123 0 229 -44.5t178 -120t113 -177t41 -215.5t-41 -215.5t-113 -177t-178 -120t-229 -44.5q-122 0 -228 44.5t-178.5 119.5t-113.5 177t-41 216t41 216t113.5 177t178.5 119.5t228 44.5zM653 158q145 0 241.5 104.5t96.5 253.5q0 152 -96.5 255t-241.5 103
q-148 0 -245 -103.5t-97 -254.5t97 -254.5t245 -103.5z" />
    <glyph glyph-name="odieresis" unicode="&#xf6;" horiz-adv-x="1304" 
d="M440 1280q-56 0 -95.5 40t-39.5 95q0 54 40 93.5t95 39.5q54 0 93.5 -39.5t39.5 -93.5q0 -55 -39.5 -95t-93.5 -40zM864 1280q-56 0 -95.5 40t-39.5 95q0 54 40 93.5t95 39.5q54 0 93.5 -39.5t39.5 -93.5q0 -55 -39.5 -95t-93.5 -40zM651 1073q123 0 229 -44.5t178 -120
t113 -177t41 -215.5t-41 -215.5t-113 -177t-178 -120t-229 -44.5q-122 0 -228 44.5t-178.5 119.5t-113.5 177t-41 216t41 216t113.5 177t178.5 119.5t228 44.5zM653 158q145 0 241.5 104.5t96.5 253.5q0 152 -96.5 255t-241.5 103q-148 0 -245 -103.5t-97 -254.5t97 -254.5
t245 -103.5z" />
    <glyph glyph-name="divide" unicode="&#xf7;" 
d="M614 815q-52 0 -89.5 37t-37.5 88t37.5 88t89.5 37q51 0 88 -37t37 -88t-37 -88t-88 -37zM1128 426h-1030v182h1030v-182zM614 -33q-52 0 -89.5 37t-37.5 88t37.5 88t89.5 37q51 0 88 -37t37 -88t-37 -88t-88 -37z" />
    <glyph glyph-name="oslash" unicode="&#xf8;" horiz-adv-x="1304" 
d="M307 -41h-217l141 178q-141 157 -141 379q0 114 41 216t113.5 177t178.5 119.5t228 44.5q160 0 289 -74l57 74h215l-139 -180q139 -155 139 -377q0 -114 -41 -215.5t-113 -177t-178 -120t-229 -44.5q-155 0 -286 72zM311 516q0 -121 64 -213l428 537q-67 34 -150 34
q-148 0 -245 -103.5t-97 -254.5zM653 158q145 0 241.5 104.5t96.5 253.5q0 121 -61 213l-426 -536q68 -35 149 -35z" />
    <glyph glyph-name="ugrave" unicode="&#xf9;" horiz-adv-x="1234" 
d="M506 1196l-242 340h234l213 -340h-205zM872 442v590h213v-579q0 -231 -125 -362.5t-342 -131.5q-219 0 -343.5 131.5t-124.5 362.5v579h212v-590q0 -134 67.5 -209t188.5 -75q119 0 186.5 75.5t67.5 208.5z" />
    <glyph glyph-name="uacute" unicode="&#xfa;" horiz-adv-x="1234" 
d="M725 1196h-205l213 340h234zM872 442v590h213v-579q0 -231 -125 -362.5t-342 -131.5q-219 0 -343.5 131.5t-124.5 362.5v579h212v-590q0 -134 67.5 -209t188.5 -75q119 0 186.5 75.5t67.5 208.5z" />
    <glyph glyph-name="ucircumflex" unicode="&#xfb;" horiz-adv-x="1234" 
d="M455 1196h-191l213 340h279l213 -340h-191l-162 240zM872 442v590h213v-579q0 -231 -125 -362.5t-342 -131.5q-219 0 -343.5 131.5t-124.5 362.5v579h212v-590q0 -134 67.5 -209t188.5 -75q119 0 186.5 75.5t67.5 208.5z" />
    <glyph glyph-name="udieresis" unicode="&#xfc;" horiz-adv-x="1234" 
d="M406 1280q-56 0 -96 40t-40 95q0 54 40.5 93.5t95.5 39.5q54 0 93.5 -39.5t39.5 -93.5q0 -55 -39.5 -95t-93.5 -40zM829 1280q-55 0 -95 40t-40 95q0 54 40 93.5t95 39.5q54 0 94 -39.5t40 -93.5q0 -55 -40 -95t-94 -40zM872 442v590h213v-579q0 -231 -125 -362.5
t-342 -131.5q-219 0 -343.5 131.5t-124.5 362.5v579h212v-590q0 -134 67.5 -209t188.5 -75q119 0 186.5 75.5t67.5 208.5z" />
    <glyph glyph-name="yacute" unicode="&#xfd;" horiz-adv-x="1134" 
d="M676 1196h-205l213 340h234zM582 -244q-112 -268 -375 -268q-96 0 -174 33v188q60 -26 131 -26q82 0 137 34.5t90 118.5l70 166l-441 1030h234l319 -760l316 760h225z" />
    <glyph glyph-name="thorn" unicode="&#xfe;" horiz-adv-x="1347" 
d="M172 -504v2003h211v-565q139 139 348 139q157 0 278.5 -77t184.5 -203t63 -277t-63 -277t-184.5 -203t-278.5 -77q-209 0 -348 139v-602h-211zM383 338q117 -180 322 -180q147 0 239 102t92 256t-92 256t-239 102q-205 0 -322 -180v-356z" />
    <glyph glyph-name="ydieresis" unicode="&#xff;" horiz-adv-x="1134" 
d="M356 1280q-56 0 -95.5 40t-39.5 95q0 54 40 93.5t95 39.5q54 0 93.5 -39.5t39.5 -93.5q0 -55 -39.5 -95t-93.5 -40zM780 1280q-56 0 -95.5 40t-39.5 95q0 54 40 93.5t95 39.5q54 0 93.5 -39.5t39.5 -93.5q0 -55 -39.5 -95t-93.5 -40zM582 -244q-112 -268 -375 -268
q-96 0 -174 33v188q60 -26 131 -26q82 0 137 34.5t90 118.5l70 166l-441 1030h234l319 -760l316 760h225z" />
    <glyph glyph-name="Amacron" unicode="&#x100;" horiz-adv-x="1519" 
d="M424 1634v158h672v-158h-672zM45 0l559 1434h311l560 -1434h-250l-152 401h-627l-151 -401h-250zM524 602h471l-235 621z" />
    <glyph glyph-name="amacron" unicode="&#x101;" horiz-adv-x="1157" 
d="M242 1315v160h671v-160h-671zM459 -41q-154 0 -248 82.5t-94 220.5q0 121 88 203t252 108l331 56v53q0 94 -63 149.5t-164 55.5q-83 0 -150 -35t-108 -100l-158 120q71 95 180 148t244 53q204 0 318 -108t114 -283v-682h-213v117q-54 -72 -142.5 -115t-186.5 -43z
M328 270q0 -61 46.5 -99t125.5 -38q184 0 288 168v174l-276 -49q-184 -28 -184 -156z" />
    <glyph glyph-name="Abreve" unicode="&#x102;" horiz-adv-x="1519" 
d="M760 1683q87 0 133 38.5t51 111.5h176q0 -142 -98 -219.5t-262 -77.5q-162 0 -260 77.5t-99 219.5h177q6 -73 52 -111.5t130 -38.5zM45 0l559 1434h311l560 -1434h-250l-152 401h-627l-151 -401h-250zM524 602h471l-235 621z" />
    <glyph glyph-name="abreve" unicode="&#x103;" horiz-adv-x="1157" 
d="M578 1343q88 0 132 49.5t44 143.5h176q0 -164 -93 -252t-259 -88q-164 0 -258.5 88.5t-94.5 251.5h176q0 -93 45.5 -143t131.5 -50zM459 -41q-154 0 -248 82.5t-94 220.5q0 121 88 203t252 108l331 56v53q0 94 -63 149.5t-164 55.5q-83 0 -150 -35t-108 -100l-158 120
q71 95 180 148t244 53q204 0 318 -108t114 -283v-682h-213v117q-54 -72 -142.5 -115t-186.5 -43zM328 270q0 -61 46.5 -99t125.5 -38q184 0 288 168v174l-276 -49q-184 -28 -184 -156z" />
    <glyph glyph-name="Aogonek" unicode="&#x104;" horiz-adv-x="1519" 
d="M45 0l559 1434h311l560 -1434h-33l-105 -68q-89 -62 -124 -104t-35 -84q0 -100 122 -100q80 0 142 28v-145q-71 -31 -172 -31q-125 0 -194.5 65.5t-69.5 155.5q0 145 184 267l33 20l-150 397h-627l-151 -401h-250zM524 602h471l-235 621z" />
    <glyph glyph-name="aogonek" unicode="&#x105;" horiz-adv-x="1157" 
d="M459 -41q-154 0 -248 82.5t-94 220.5q0 121 88 203t252 108l331 56v53q0 94 -63 149.5t-164 55.5q-83 0 -150 -35t-108 -100l-158 120q71 95 180 148t244 53q204 0 318 -108t114 -283v-682l-104 -68q-89 -62 -124.5 -104t-35.5 -84q0 -100 123 -100q79 0 141 28v-145
q-71 -31 -172 -31q-125 0 -194.5 65.5t-69.5 155.5q0 145 185 267l38 24v109q-54 -72 -142.5 -115t-186.5 -43zM328 270q0 -61 46.5 -99t125.5 -38q184 0 288 168v174l-276 -49q-184 -28 -184 -156z" />
    <glyph glyph-name="Cacute" unicode="&#x106;" horiz-adv-x="1536" 
d="M963 1556h-218l232 277h250zM854 180q131 0 238.5 58.5t177.5 158.5l188 -145q-103 -136 -258.5 -214.5t-345.5 -78.5q-165 0 -307.5 61t-240 164t-153 241.5t-55.5 291.5t55.5 291.5t153 241.5t240 164t307.5 61q190 0 345.5 -78.5t258.5 -214.5l-188 -146
q-70 100 -177.5 158.5t-238.5 58.5q-147 0 -265 -71.5t-183.5 -194t-65.5 -270.5q0 -228 146 -382.5t368 -154.5z" />
    <glyph glyph-name="cacute" unicode="&#x107;" horiz-adv-x="1138" 
d="M762 1196h-205l213 340h234zM655 158q84 0 153.5 38t113.5 103l168 -131q-72 -98 -185 -153.5t-252 -55.5q-168 0 -298 77t-197.5 203t-67.5 277t67.5 277t197.5 203t298 77q138 0 251.5 -55.5t185.5 -153.5l-168 -131q-44 65 -113.5 103t-155.5 38q-148 0 -245 -102.5
t-97 -255.5q0 -154 97 -256t247 -102z" />
    <glyph glyph-name="Ccircumflex" unicode="&#x108;" horiz-adv-x="1536" 
d="M688 1556h-190l231 277h252l229 -277h-190l-166 173zM854 180q131 0 238.5 58.5t177.5 158.5l188 -145q-103 -136 -258.5 -214.5t-345.5 -78.5q-165 0 -307.5 61t-240 164t-153 241.5t-55.5 291.5t55.5 291.5t153 241.5t240 164t307.5 61q190 0 345.5 -78.5t258.5 -214.5
l-188 -146q-70 100 -177.5 158.5t-238.5 58.5q-147 0 -265 -71.5t-183.5 -194t-65.5 -270.5q0 -228 146 -382.5t368 -154.5z" />
    <glyph glyph-name="ccircumflex" unicode="&#x109;" horiz-adv-x="1138" 
d="M492 1196h-191l213 340h279l213 -340h-191l-162 240zM655 158q84 0 153.5 38t113.5 103l168 -131q-72 -98 -185 -153.5t-252 -55.5q-168 0 -298 77t-197.5 203t-67.5 277t67.5 277t197.5 203t298 77q138 0 251.5 -55.5t185.5 -153.5l-168 -131q-44 65 -113.5 103
t-155.5 38q-148 0 -245 -102.5t-97 -255.5q0 -154 97 -256t247 -102z" />
    <glyph glyph-name="Cdotaccent" unicode="&#x10a;" horiz-adv-x="1536" 
d="M854 1591q-53 0 -90 35.5t-37 87.5t37 88.5t90 36.5q51 0 88 -36.5t37 -88.5t-36.5 -87.5t-88.5 -35.5zM854 180q131 0 238.5 58.5t177.5 158.5l188 -145q-103 -136 -258.5 -214.5t-345.5 -78.5q-165 0 -307.5 61t-240 164t-153 241.5t-55.5 291.5t55.5 291.5t153 241.5
t240 164t307.5 61q190 0 345.5 -78.5t258.5 -214.5l-188 -146q-70 100 -177.5 158.5t-238.5 58.5q-147 0 -265 -71.5t-183.5 -194t-65.5 -270.5q0 -228 146 -382.5t368 -154.5z" />
    <glyph glyph-name="cdotaccent" unicode="&#x10b;" horiz-adv-x="1138" 
d="M653 1262q-59 0 -101 42t-42 101t42 101t101 42t101.5 -42.5t42.5 -100.5t-42.5 -100.5t-101.5 -42.5zM655 158q84 0 153.5 38t113.5 103l168 -131q-72 -98 -185 -153.5t-252 -55.5q-168 0 -298 77t-197.5 203t-67.5 277t67.5 277t197.5 203t298 77q138 0 251.5 -55.5
t185.5 -153.5l-168 -131q-44 65 -113.5 103t-155.5 38q-148 0 -245 -102.5t-97 -255.5q0 -154 97 -256t247 -102z" />
    <glyph glyph-name="Ccaron" unicode="&#x10c;" horiz-adv-x="1536" 
d="M688 1833l166 -172l166 172h190l-229 -277h-252l-231 277h190zM854 180q131 0 238.5 58.5t177.5 158.5l188 -145q-103 -136 -258.5 -214.5t-345.5 -78.5q-165 0 -307.5 61t-240 164t-153 241.5t-55.5 291.5t55.5 291.5t153 241.5t240 164t307.5 61q190 0 345.5 -78.5
t258.5 -214.5l-188 -146q-70 100 -177.5 158.5t-238.5 58.5q-147 0 -265 -71.5t-183.5 -194t-65.5 -270.5q0 -228 146 -382.5t368 -154.5z" />
    <glyph glyph-name="ccaron" unicode="&#x10d;" horiz-adv-x="1138" 
d="M492 1536l161 -240l162 240h191l-213 -340h-279l-213 340h191zM655 158q84 0 153.5 38t113.5 103l168 -131q-72 -98 -185 -153.5t-252 -55.5q-168 0 -298 77t-197.5 203t-67.5 277t67.5 277t197.5 203t298 77q138 0 251.5 -55.5t185.5 -153.5l-168 -131
q-44 65 -113.5 103t-155.5 38q-148 0 -245 -102.5t-97 -255.5q0 -154 97 -256t247 -102z" />
    <glyph glyph-name="Dcaron" unicode="&#x10e;" horiz-adv-x="1632" 
d="M649 1833l166 -172l166 172h190l-229 -277h-252l-231 277h190zM221 0v1434h557q165 0 307.5 -57.5t240 -155.5t153 -229t55.5 -275t-55.5 -275t-153 -229t-240 -155.5t-307.5 -57.5h-557zM780 1219h-325v-1004h325q220 0 365 145t145 357q0 139 -65 254t-182 181.5
t-263 66.5z" />
    <glyph glyph-name="dcaron" unicode="&#x10f;" horiz-adv-x="1333" 
d="M90 516q0 152 63 277.5t185 202.5t280 77q207 0 345 -135v598h215v-1536h-215v94q-138 -135 -345 -135q-158 0 -280 77t-185 202.5t-63 277.5zM1407 1155h-180l172 381h223zM313 516q0 -154 92.5 -256t239.5 -102q99 0 180.5 45.5t137.5 130.5v364q-116 176 -318 176
q-147 0 -239.5 -102t-92.5 -256z" />
    <glyph glyph-name="Dcroat" unicode="&#x110;" horiz-adv-x="1632" 
d="M221 0v653h-221v160h221v621h557q165 0 307.5 -57.5t240 -155.5t153 -229t55.5 -275t-55.5 -275t-153 -229t-240 -155.5t-307.5 -57.5h-557zM815 653h-360v-438h325q220 0 365 145t145 357q0 139 -65 254t-182 181.5t-263 66.5h-325v-406h360v-160z" />
    <glyph glyph-name="dcroat" unicode="&#x111;" horiz-adv-x="1345" 
d="M90 516q0 152 63 277.5t185 202.5t280 77q207 0 345 -135v250h-398v158h398v190h215v-190h168v-158h-168v-1188h-215v94q-138 -135 -345 -135q-158 0 -280 77t-185 202.5t-63 277.5zM313 516q0 -154 92.5 -256t239.5 -102q99 0 180.5 45.5t137.5 130.5v364
q-116 176 -318 176q-147 0 -239.5 -102t-92.5 -256z" />
    <glyph glyph-name="Emacron" unicode="&#x112;" horiz-adv-x="1171" 
d="M285 1634v158h671v-158h-671zM221 0v1434h799v-203h-565v-400h483v-202h-483v-426h565v-203h-799z" />
    <glyph glyph-name="emacron" unicode="&#x113;" horiz-adv-x="1187" 
d="M285 1315v160h671v-160h-671zM1104 168q-73 -99 -189 -154t-258 -55q-130 0 -238 44.5t-179.5 121t-110.5 177.5t-39 214q0 116 36 217.5t102.5 177t166 119t219.5 43.5q211 0 340 -128t129 -327q0 -72 -14 -126h-762q6 -154 103 -248t252 -94q90 0 165 37.5t123 103.5z
M616 893q-114 0 -189.5 -60t-102.5 -178h546q-5 101 -73 169.5t-181 68.5z" />
    <glyph glyph-name="Ebreve" unicode="&#x114;" horiz-adv-x="1171" 
d="M621 1683q87 0 133 38.5t51 111.5h176q0 -142 -98 -219.5t-262 -77.5q-162 0 -260 77.5t-99 219.5h176q6 -73 52.5 -111.5t130.5 -38.5zM221 0v1434h799v-203h-565v-400h483v-202h-483v-426h565v-203h-799z" />
    <glyph glyph-name="ebreve" unicode="&#x115;" horiz-adv-x="1187" 
d="M621 1343q88 0 132 49.5t44 143.5h176q0 -164 -93 -252t-259 -88q-164 0 -258.5 88.5t-94.5 251.5h176q0 -93 45.5 -143t131.5 -50zM1104 168q-73 -99 -189 -154t-258 -55q-130 0 -238 44.5t-179.5 121t-110.5 177.5t-39 214q0 116 36 217.5t102.5 177t166 119
t219.5 43.5q211 0 340 -128t129 -327q0 -72 -14 -126h-762q6 -154 103 -248t252 -94q90 0 165 37.5t123 103.5zM616 893q-114 0 -189.5 -60t-102.5 -178h546q-5 101 -73 169.5t-181 68.5z" />
    <glyph glyph-name="Edotaccent" unicode="&#x116;" horiz-adv-x="1171" 
d="M621 1591q-53 0 -90 35.5t-37 87.5t37 88.5t90 36.5q51 0 87.5 -36.5t36.5 -88.5t-36.5 -87.5t-87.5 -35.5zM221 0v1434h799v-203h-565v-400h483v-202h-483v-426h565v-203h-799z" />
    <glyph glyph-name="edotaccent" unicode="&#x117;" horiz-adv-x="1187" 
d="M621 1262q-59 0 -101.5 42.5t-42.5 100.5t42.5 100.5t101.5 42.5t101 -42t42 -101t-42 -101t-101 -42zM1104 168q-73 -99 -189 -154t-258 -55q-130 0 -238 44.5t-179.5 121t-110.5 177.5t-39 214q0 116 36 217.5t102.5 177t166 119t219.5 43.5q211 0 340 -128t129 -327
q0 -72 -14 -126h-762q6 -154 103 -248t252 -94q90 0 165 37.5t123 103.5zM616 893q-114 0 -189.5 -60t-102.5 -178h546q-5 101 -73 169.5t-181 68.5z" />
    <glyph glyph-name="Eogonek" unicode="&#x118;" horiz-adv-x="1171" 
d="M221 0v1434h799v-203h-565v-400h483v-202h-483v-426h565v-203l-105 -68q-89 -62 -124 -104t-35 -84q0 -100 123 -100q79 0 141 28v-145q-71 -31 -172 -31q-125 0 -194.5 65.5t-69.5 155.5q0 145 184 267l27 16h-574z" />
    <glyph glyph-name="eogonek" unicode="&#x119;" horiz-adv-x="1187" 
d="M442 -283q0 134 154 244q-155 14 -271.5 93t-175.5 199t-59 263q0 116 36 217.5t102.5 177t166 119t219.5 43.5q211 0 340 -128t129 -327q0 -72 -14 -126h-762q6 -154 103 -248t252 -94q90 0 165 37.5t123 103.5l154 -123q-87 -116 -230 -172l-100 -64
q-89 -62 -124.5 -104t-35.5 -84q0 -100 123 -100q80 0 142 28v-145q-71 -31 -172 -31q-125 0 -195 65.5t-70 155.5zM616 893q-114 0 -189.5 -60t-102.5 -178h546q-5 101 -73 169.5t-181 68.5z" />
    <glyph glyph-name="Ecaron" unicode="&#x11a;" horiz-adv-x="1171" 
d="M455 1833l166 -172l165 172h191l-229 -277h-252l-232 277h191zM221 0v1434h799v-203h-565v-400h483v-202h-483v-426h565v-203h-799z" />
    <glyph glyph-name="ecaron" unicode="&#x11b;" horiz-adv-x="1187" 
d="M459 1536l162 -240l161 240h191l-213 -340h-279l-213 340h191zM1104 168q-73 -99 -189 -154t-258 -55q-130 0 -238 44.5t-179.5 121t-110.5 177.5t-39 214q0 116 36 217.5t102.5 177t166 119t219.5 43.5q211 0 340 -128t129 -327q0 -72 -14 -126h-762q6 -154 103 -248
t252 -94q90 0 165 37.5t123 103.5zM616 893q-114 0 -189.5 -60t-102.5 -178h546q-5 101 -73 169.5t-181 68.5z" />
    <glyph glyph-name="Gcircumflex" unicode="&#x11c;" horiz-adv-x="1644" 
d="M688 1556h-190l231 277h252l229 -277h-190l-166 173zM874 180q118 0 218.5 42.5t171.5 117.5v283h-396v215h631v-586q-104 -137 -266 -215t-359 -78q-169 0 -315.5 61t-246.5 164t-157 241.5t-57 291.5t55.5 291.5t153 241.5t240 164t307.5 61q190 0 345.5 -78.5
t258.5 -214.5l-188 -146q-70 100 -177.5 158.5t-238.5 58.5q-147 0 -265 -71.5t-183.5 -194t-65.5 -270.5q0 -149 68 -272t190.5 -194t275.5 -71z" />
    <glyph glyph-name="gcircumflex" unicode="&#x11d;" horiz-adv-x="1140" 
d="M385 1194h-190l213 340h278l213 -340h-190l-162 240zM61 -184q0 146 148 256q-68 62 -68 149q0 121 119 203q-67 51 -104 126t-37 161q0 154 110.5 258t294.5 104q116 0 203 -41h381v-180h-203q29 -69 29 -141q0 -156 -111.5 -261.5t-298.5 -105.5q-57 0 -125 14
q-51 -42 -51 -88q0 -67 78 -67h281q193 0 296 -89.5t103 -234.5q0 -172 -145.5 -281.5t-385.5 -109.5t-377 85.5t-137 242.5zM526 506q98 0 154.5 57.5t56.5 147.5q0 88 -56.5 144t-154.5 56t-154.5 -56t-56.5 -144q0 -90 56.5 -147.5t154.5 -57.5zM262 -156
q0 -86 81.5 -135t227.5 -49q152 0 238 54.5t86 146.5q0 157 -209 157h-305q-119 -69 -119 -174z" />
    <glyph glyph-name="Gbreve" unicode="&#x11e;" horiz-adv-x="1644" 
d="M854 1683q87 0 133 38.5t51 111.5h176q0 -142 -98 -219.5t-262 -77.5q-162 0 -259.5 77.5t-98.5 219.5h176q6 -73 52 -111.5t130 -38.5zM874 180q118 0 218.5 42.5t171.5 117.5v283h-396v215h631v-586q-104 -137 -266 -215t-359 -78q-169 0 -315.5 61t-246.5 164
t-157 241.5t-57 291.5t55.5 291.5t153 241.5t240 164t307.5 61q190 0 345.5 -78.5t258.5 -214.5l-188 -146q-70 100 -177.5 158.5t-238.5 58.5q-147 0 -265 -71.5t-183.5 -194t-65.5 -270.5q0 -149 68 -272t190.5 -194t275.5 -71z" />
    <glyph glyph-name="gbreve" unicode="&#x11f;" horiz-adv-x="1140" 
d="M547 1341q88 0 132 49.5t44 143.5h176q0 -164 -93 -252t-259 -88q-164 0 -258 88.5t-94 251.5h176q0 -93 45 -143t131 -50zM61 -184q0 146 148 256q-68 62 -68 149q0 121 119 203q-67 51 -104 126t-37 161q0 154 110.5 258t294.5 104q116 0 203 -41h381v-180h-203
q29 -69 29 -141q0 -156 -111.5 -261.5t-298.5 -105.5q-57 0 -125 14q-51 -42 -51 -88q0 -67 78 -67h281q193 0 296 -89.5t103 -234.5q0 -172 -145.5 -281.5t-385.5 -109.5t-377 85.5t-137 242.5zM526 506q98 0 154.5 57.5t56.5 147.5q0 88 -56.5 144t-154.5 56t-154.5 -56
t-56.5 -144q0 -90 56.5 -147.5t154.5 -57.5zM262 -156q0 -86 81.5 -135t227.5 -49q152 0 238 54.5t86 146.5q0 157 -209 157h-305q-119 -69 -119 -174z" />
    <glyph glyph-name="Gdotaccent" unicode="&#x120;" horiz-adv-x="1644" 
d="M854 1591q-53 0 -90 35.5t-37 87.5t37 88.5t90 36.5q51 0 88 -36.5t37 -88.5t-36.5 -87.5t-88.5 -35.5zM874 180q118 0 218.5 42.5t171.5 117.5v283h-396v215h631v-586q-104 -137 -266 -215t-359 -78q-169 0 -315.5 61t-246.5 164t-157 241.5t-57 291.5t55.5 291.5
t153 241.5t240 164t307.5 61q190 0 345.5 -78.5t258.5 -214.5l-188 -146q-70 100 -177.5 158.5t-238.5 58.5q-147 0 -265 -71.5t-183.5 -194t-65.5 -270.5q0 -149 68 -272t190.5 -194t275.5 -71z" />
    <glyph glyph-name="gdotaccent" unicode="&#x121;" horiz-adv-x="1140" 
d="M547 1260q-59 0 -101.5 42.5t-42.5 100.5t42.5 100.5t101.5 42.5t101 -42t42 -101t-42 -101t-101 -42zM61 -184q0 146 148 256q-68 62 -68 149q0 121 119 203q-67 51 -104 126t-37 161q0 154 110.5 258t294.5 104q116 0 203 -41h381v-180h-203q29 -69 29 -141
q0 -156 -111.5 -261.5t-298.5 -105.5q-57 0 -125 14q-51 -42 -51 -88q0 -67 78 -67h281q193 0 296 -89.5t103 -234.5q0 -172 -145.5 -281.5t-385.5 -109.5t-377 85.5t-137 242.5zM526 506q98 0 154.5 57.5t56.5 147.5q0 88 -56.5 144t-154.5 56t-154.5 -56t-56.5 -144
q0 -90 56.5 -147.5t154.5 -57.5zM262 -156q0 -86 81.5 -135t227.5 -49q152 0 238 54.5t86 146.5q0 157 -209 157h-305q-119 -69 -119 -174z" />
    <glyph glyph-name="Gcedilla" unicode="&#x122;" horiz-adv-x="1644" 
d="M874 180q118 0 218.5 42.5t171.5 117.5v283h-396v215h631v-586q-104 -137 -266 -215t-359 -78q-169 0 -315.5 61t-246.5 164t-157 241.5t-57 291.5t55.5 291.5t153 241.5t240 164t307.5 61q190 0 345.5 -78.5t258.5 -214.5l-188 -146q-70 100 -177.5 158.5t-238.5 58.5
q-147 0 -265 -71.5t-183.5 -194t-65.5 -270.5q0 -149 68 -272t190.5 -194t275.5 -71zM760 -504h-205l213 340h233z" />
    <glyph glyph-name="gcedilla" unicode="&#x123;" horiz-adv-x="1140" 
d="M692 1534h203l-211 -340h-235zM61 -184q0 146 148 256q-68 62 -68 149q0 121 119 203q-67 51 -104 126t-37 161q0 154 110.5 258t294.5 104q116 0 203 -41h381v-180h-203q29 -69 29 -141q0 -156 -111.5 -261.5t-298.5 -105.5q-57 0 -125 14q-51 -42 -51 -88q0 -67 78 -67
h281q193 0 296 -89.5t103 -234.5q0 -172 -145.5 -281.5t-385.5 -109.5t-377 85.5t-137 242.5zM526 506q98 0 154.5 57.5t56.5 147.5q0 88 -56.5 144t-154.5 56t-154.5 -56t-56.5 -144q0 -90 56.5 -147.5t154.5 -57.5zM262 -156q0 -86 81.5 -135t227.5 -49q152 0 238 54.5
t86 146.5q0 157 -209 157h-305q-119 -69 -119 -174z" />
    <glyph glyph-name="Hcircumflex" unicode="&#x124;" horiz-adv-x="1716" 
d="M692 1556h-190l231 277h252l229 -277h-190l-166 173zM221 0v1434h234v-596h807v596h235v-1434h-235v623h-807v-623h-234z" />
    <glyph glyph-name="hcircumflex" unicode="&#x125;" horiz-adv-x="1267" 
d="M465 1659h-191l232 276h252l229 -276h-190l-166 172zM172 0v1536h211v-604q134 141 328 141q179 0 290 -117.5t111 -334.5v-621h-213v612q0 123 -63.5 192.5t-173.5 69.5q-170 0 -279 -178v-696h-211z" />
    <glyph glyph-name="Hbar" unicode="&#x126;" horiz-adv-x="1716" 
d="M221 0v1055h-221v159h221v220h234v-220h807v220h235v-220h219v-159h-219v-1055h-235v623h-807v-623h-234zM455 838h807v217h-807v-217z" />
    <glyph glyph-name="hbar" unicode="&#x127;" horiz-adv-x="1267" 
d="M172 0v1188h-172v158h172v190h211v-190h383v-158h-383v-256q134 141 328 141q179 0 290 -117.5t111 -334.5v-621h-213v612q0 123 -63.5 192.5t-173.5 69.5q-170 0 -279 -178v-696h-211z" />
    <glyph glyph-name="Itilde" unicode="&#x128;" horiz-adv-x="675" 
d="M-33 1556v80q0 99 57 158t150 59q41 0 79.5 -14t59 -28t60.5 -44l26 -22q5 -4 17.5 -15t17 -15t14.5 -10.5t16 -9t15 -5t19 -2.5q25 0 40 18t15 51v76h156v-80q0 -100 -57 -158.5t-150 -58.5q-42 0 -81 14.5t-58 27.5t-60 44l-27 23q-4 4 -17.5 15.5t-17.5 14.5l-14 10.5
t-16 9.5t-15 4.5t-18 2.5q-55 0 -55 -70v-76h-156zM221 0v1434h234v-1434h-234z" />
    <glyph glyph-name="itilde" unicode="&#x129;" horiz-adv-x="555" 
d="M649 1536v-94q0 -116 -53 -188t-147 -72q-101 0 -195 104l-35 33q-41 51 -58 62q-18 12 -40 12q-28 0 -43 -22.5t-15 -59.5v-115h-155v102q0 116 52 184t149 68q56 0 100.5 -26t93.5 -78l33 -33q41 -51 58 -62q18 -12 40 -12q30 0 45 22.5t15 59.5v115h155zM172 0v1032
h211v-1032h-211z" />
    <glyph glyph-name="Imacron" unicode="&#x12a;" horiz-adv-x="675" 
d="M2 1634v158h672v-158h-672zM221 0v1434h234v-1434h-234z" />
    <glyph glyph-name="imacron" unicode="&#x12b;" horiz-adv-x="555" 
d="M-57 1315v160h671v-160h-671zM172 0v1032h211v-1032h-211z" />
    <glyph glyph-name="Ibreve" unicode="&#x12c;" horiz-adv-x="675" 
d="M338 1683q87 0 133 38.5t51 111.5h176q0 -142 -98 -219.5t-262 -77.5q-162 0 -259.5 77.5t-98.5 219.5h176q6 -73 52 -111.5t130 -38.5zM221 0v1434h234v-1434h-234z" />
    <glyph glyph-name="ibreve" unicode="&#x12d;" horiz-adv-x="555" 
d="M279 1343q88 0 132 49.5t44 143.5h176q0 -164 -93 -252t-259 -88q-164 0 -258.5 88.5t-94.5 251.5h176q0 -93 45.5 -143t131.5 -50zM172 0v1032h211v-1032h-211z" />
    <glyph glyph-name="Iogonek" unicode="&#x12e;" horiz-adv-x="675" 
d="M0 -283q0 145 184 267l37 22v1428h234v-1434h-19l-104 -68q-89 -62 -124.5 -104t-35.5 -84q0 -100 123 -100q79 0 141 28v-145q-71 -31 -172 -31q-125 0 -194.5 65.5t-69.5 155.5z" />
    <glyph glyph-name="iogonek" unicode="&#x12f;" horiz-adv-x="555" 
d="M279 1262q-59 0 -101.5 42.5t-42.5 100.5t42.5 100.5t101.5 42.5t101 -42t42 -101t-42 -101t-101 -42zM-53 -283q0 145 184 267l41 24v1024h211v-1032l-104 -68q-89 -62 -124.5 -104t-35.5 -84q0 -100 123 -100q79 0 141 28v-145q-71 -31 -172 -31q-125 0 -194.5 65.5
t-69.5 155.5z" />
    <glyph glyph-name="Idotaccent" unicode="&#x130;" horiz-adv-x="675" 
d="M338 1591q-53 0 -90 35.5t-37 87.5t37 88.5t90 36.5q51 0 88 -36.5t37 -88.5t-36.5 -87.5t-88.5 -35.5zM221 0v1434h234v-1434h-234z" />
    <glyph glyph-name="dotlessi" unicode="&#x131;" horiz-adv-x="555" 
d="M172 0v1032h211v-1032h-211z" />
    <glyph glyph-name="IJ" unicode="&#x132;" horiz-adv-x="1361" 
d="M221 0v1434h234v-1434h-234zM1143 111q0 -455 -424 -455q-71 0 -107 8v209q31 -8 76 -8q107 0 163 53t56 180v1336h236v-1323z" />
    <glyph glyph-name="ij" unicode="&#x133;" horiz-adv-x="1112" 
d="M279 1262q-59 0 -101.5 42.5t-42.5 100.5t42.5 100.5t101.5 42.5t101 -42t42 -101t-42 -101t-101 -42zM829 1262q-59 0 -101 42t-42 101t42 101t101 42t101.5 -42.5t42.5 -100.5t-42.5 -100.5t-101.5 -42.5zM172 0v1032h211v-1032h-211zM938 -125q0 -387 -367 -387
q-110 0 -186 31v186q55 -22 154 -22q92 0 140 43.5t48 148.5v1157h211v-1157z" />
    <glyph glyph-name="Jcircumflex" unicode="&#x134;" horiz-adv-x="698" 
d="M197 1556h-191l232 277h251l230 -277h-191l-166 173zM481 111q0 -455 -424 -455q-70 0 -106 8v209q31 -8 76 -8q107 0 163 53t56 180v1336h235v-1323z" />
    <glyph glyph-name="jcircumflex" unicode="&#x135;" horiz-adv-x="555" 
d="M117 1196h-191l213 340h279l213 -340h-191l-161 240zM383 -125q0 -387 -367 -387q-110 0 -186 31v186q55 -22 154 -22q92 0 140 43.5t48 148.5v1157h211v-1157z" />
    <glyph glyph-name="Kcedilla" unicode="&#x136;" horiz-adv-x="1501" 
d="M221 0v1434h234v-686l690 686h295l-604 -600l612 -834h-289l-487 672l-217 -215v-457h-234zM678 -504h-205l213 340h234z" />
    <glyph glyph-name="kcedilla" unicode="&#x137;" horiz-adv-x="1128" 
d="M176 0v1434h213v-848l440 446h267l-428 -434l432 -598h-262l-322 446l-127 -129v-317h-213zM496 -504h-205l213 340h233z" />
    <glyph glyph-name="kra" unicode="&#x138;" horiz-adv-x="1128" 
d="M176 0v1032h213v-442l436 442h271l-428 -434l432 -598h-262l-322 446l-127 -129v-317h-213z" />
    <glyph glyph-name="Lacute" unicode="&#x139;" horiz-adv-x="1089" 
d="M449 1556h-218l232 277h250zM221 0v1434h234v-1219h565v-215h-799z" />
    <glyph glyph-name="lacute" unicode="&#x13a;" horiz-adv-x="555" 
d="M387 1659h-217l231 276h250zM172 0v1536h211v-1536h-211z" />
    <glyph glyph-name="Lcedilla" unicode="&#x13b;" horiz-adv-x="1089" 
d="M221 0v1434h234v-1219h565v-215h-799zM508 -504h-205l213 340h234z" />
    <glyph glyph-name="lcedilla" unicode="&#x13c;" horiz-adv-x="555" 
d="M172 0v1536h211v-1536h-211zM164 -504h-205l213 340h234z" />
    <glyph glyph-name="Lcaron" unicode="&#x13d;" horiz-adv-x="1089" 
d="M221 0v1434h234v-1219h565v-215h-799zM725 1053h-180l172 381h223z" />
    <glyph glyph-name="lcaron" unicode="&#x13e;" horiz-adv-x="555" 
d="M172 0v1536h211v-1536h-211zM629 1155h-180l172 381h223z" />
    <glyph glyph-name="Ldot" unicode="&#x13f;" horiz-adv-x="1089" 
d="M221 0v1434h234v-1219h565v-215h-799zM881 655q-63 0 -108.5 45.5t-45.5 108.5q0 60 45.5 104.5t108.5 44.5q61 0 106 -44.5t45 -104.5q0 -63 -44.5 -108.5t-106.5 -45.5z" />
    <glyph glyph-name="ldot" unicode="&#x140;" horiz-adv-x="800" 
d="M172 0v1536h211v-1536h-211zM680 369q-63 0 -108.5 45t-45.5 108q0 60 45.5 105t108.5 45q61 0 106 -45t45 -105q0 -63 -44.5 -108t-106.5 -45z" />
    <glyph glyph-name="Lslash" unicode="&#x141;" horiz-adv-x="1089" 
d="M221 0v535l-221 -119v176l221 119v723h234v-600l303 161v-176l-303 -162v-442h565v-215h-799z" />
    <glyph glyph-name="lslash" unicode="&#x142;" horiz-adv-x="555" 
d="M172 0v655l-172 -92v174l172 92v707h211v-596l172 92v-174l-172 -92v-766h-211z" />
    <glyph glyph-name="Nacute" unicode="&#x143;" horiz-adv-x="1716" 
d="M967 1556h-217l231 277h250zM221 0v1434h303l738 -1125v1125h235v-1434h-305l-737 1124v-1124h-234z" />
    <glyph glyph-name="nacute" unicode="&#x144;" horiz-adv-x="1267" 
d="M768 1196h-205l213 340h234zM172 0v1032h211v-100q134 141 328 141q177 0 289 -117.5t112 -334.5v-621h-213v612q0 123 -63.5 192.5t-173.5 69.5q-174 0 -279 -178v-696h-211z" />
    <glyph glyph-name="Ncedilla" unicode="&#x145;" horiz-adv-x="1716" 
d="M221 0v1434h303l738 -1125v1125h235v-1434h-305l-737 1124v-1124h-234zM743 -504h-204l213 340h233z" />
    <glyph glyph-name="ncedilla" unicode="&#x146;" horiz-adv-x="1267" 
d="M172 0v1032h211v-100q134 141 328 141q177 0 289 -117.5t112 -334.5v-621h-213v612q0 123 -63.5 192.5t-173.5 69.5q-174 0 -279 -178v-696h-211zM526 -504h-204l213 340h233z" />
    <glyph glyph-name="Ncaron" unicode="&#x147;" horiz-adv-x="1716" 
d="M692 1833l166 -172l166 172h190l-229 -277h-252l-231 277h190zM221 0v1434h303l738 -1125v1125h235v-1434h-305l-737 1124v-1124h-234z" />
    <glyph glyph-name="ncaron" unicode="&#x148;" horiz-adv-x="1267" 
d="M498 1536l161 -240l162 240h191l-213 -340h-279l-213 340h191zM172 0v1032h211v-100q134 141 328 141q177 0 289 -117.5t112 -334.5v-621h-213v612q0 123 -63.5 192.5t-173.5 69.5q-174 0 -279 -178v-696h-211z" />
    <glyph glyph-name="Eng" unicode="&#x14a;" horiz-adv-x="1716" 
d="M221 0v1434h309l734 -1012v1012h235v-1336q0 -446 -416 -446q-72 0 -116 8v211q42 -10 84 -10q108 0 160.5 43t52.5 135l-809 1116v-1155h-234z" />
    <glyph glyph-name="eng" unicode="&#x14b;" horiz-adv-x="1267" 
d="M899 612q0 123 -64.5 192.5t-177.5 69.5q-169 0 -274 -178v-696h-211v1032h211v-102q136 143 324 143q180 0 292.5 -117.5t112.5 -334.5v-746q0 -387 -369 -387q-107 0 -186 31v186q58 -22 156 -22q92 0 139 43.5t47 148.5v737z" />
    <glyph glyph-name="Omacron" unicode="&#x14c;" horiz-adv-x="1708" 
d="M518 1634v158h672v-158h-672zM854 1475q164 0 306.5 -61t240.5 -164t153.5 -241.5t55.5 -291.5t-55.5 -291.5t-153.5 -241.5t-240.5 -164t-306.5 -61q-165 0 -307.5 61t-240 164t-153 241.5t-55.5 291.5t55.5 291.5t153 241.5t240 164t307.5 61zM854 180q146 0 264 71.5
t183 194.5t65 271q0 228 -145 382t-367 154q-147 0 -265 -71.5t-183.5 -194t-65.5 -270.5q0 -228 146 -382.5t368 -154.5z" />
    <glyph glyph-name="omacron" unicode="&#x14d;" horiz-adv-x="1304" 
d="M315 1315v160h672v-160h-672zM651 1073q123 0 229 -44.5t178 -120t113 -177t41 -215.5t-41 -215.5t-113 -177t-178 -120t-229 -44.5q-122 0 -228 44.5t-178.5 119.5t-113.5 177t-41 216t41 216t113.5 177t178.5 119.5t228 44.5zM653 158q145 0 241.5 104.5t96.5 253.5
q0 152 -96.5 255t-241.5 103q-148 0 -245 -103.5t-97 -254.5t97 -254.5t245 -103.5z" />
    <glyph glyph-name="Obreve" unicode="&#x14e;" horiz-adv-x="1708" 
d="M854 1683q87 0 133 38.5t51 111.5h176q0 -142 -98 -219.5t-262 -77.5q-162 0 -259.5 77.5t-98.5 219.5h176q6 -73 52 -111.5t130 -38.5zM854 1475q164 0 306.5 -61t240.5 -164t153.5 -241.5t55.5 -291.5t-55.5 -291.5t-153.5 -241.5t-240.5 -164t-306.5 -61
q-165 0 -307.5 61t-240 164t-153 241.5t-55.5 291.5t55.5 291.5t153 241.5t240 164t307.5 61zM854 180q146 0 264 71.5t183 194.5t65 271q0 228 -145 382t-367 154q-147 0 -265 -71.5t-183.5 -194t-65.5 -270.5q0 -228 146 -382.5t368 -154.5z" />
    <glyph glyph-name="obreve" unicode="&#x14f;" horiz-adv-x="1304" 
d="M651 1343q88 0 132 49.5t44 143.5h177q0 -164 -93.5 -252t-259.5 -88q-164 0 -258 88.5t-94 251.5h176q0 -93 45 -143t131 -50zM651 1073q123 0 229 -44.5t178 -120t113 -177t41 -215.5t-41 -215.5t-113 -177t-178 -120t-229 -44.5q-122 0 -228 44.5t-178.5 119.5
t-113.5 177t-41 216t41 216t113.5 177t178.5 119.5t228 44.5zM653 158q145 0 241.5 104.5t96.5 253.5q0 152 -96.5 255t-241.5 103q-148 0 -245 -103.5t-97 -254.5t97 -254.5t245 -103.5z" />
    <glyph glyph-name="Ohungarumlaut" unicode="&#x150;" horiz-adv-x="1708" 
d="M745 1556h-217l232 277h250zM1176 1556h-218l232 277h250zM854 1475q164 0 306.5 -61t240.5 -164t153.5 -241.5t55.5 -291.5t-55.5 -291.5t-153.5 -241.5t-240.5 -164t-306.5 -61q-165 0 -307.5 61t-240 164t-153 241.5t-55.5 291.5t55.5 291.5t153 241.5t240 164
t307.5 61zM854 180q146 0 264 71.5t183 194.5t65 271q0 228 -145 382t-367 154q-147 0 -265 -71.5t-183.5 -194t-65.5 -270.5q0 -228 146 -382.5t368 -154.5z" />
    <glyph glyph-name="ohungarumlaut" unicode="&#x151;" horiz-adv-x="1304" 
d="M557 1196h-203l211 340h236zM944 1196h-205l213 340h234zM651 1073q123 0 229 -44.5t178 -120t113 -177t41 -215.5t-41 -215.5t-113 -177t-178 -120t-229 -44.5q-122 0 -228 44.5t-178.5 119.5t-113.5 177t-41 216t41 216t113.5 177t178.5 119.5t228 44.5zM653 158
q145 0 241.5 104.5t96.5 253.5q0 152 -96.5 255t-241.5 103q-148 0 -245 -103.5t-97 -254.5t97 -254.5t245 -103.5z" />
    <glyph glyph-name="OE" unicode="&#x152;" horiz-adv-x="2125" 
d="M854 1434h1120v-215h-563v-381h481v-215h-481v-408h563v-215h-1120q-165 0 -307.5 57.5t-240 155.5t-153 229t-55.5 275t55.5 275t153 229t240 155.5t307.5 57.5zM850 215h326v1004h-326q-219 0 -364.5 -145.5t-145.5 -356.5q0 -139 65.5 -254t182.5 -181.5t262 -66.5z
" />
    <glyph glyph-name="oe" unicode="&#x153;" horiz-adv-x="2105" 
d="M651 1073q143 0 258 -59.5t189 -165.5q66 106 175.5 165.5t252.5 59.5q203 0 329.5 -128t126.5 -327q0 -64 -12 -126h-758q6 -154 102 -248t251 -94q92 0 166.5 37.5t119.5 103.5l154 -123q-74 -99 -188.5 -154t-257.5 -55q-152 0 -269 61.5t-188 169.5
q-73 -107 -189.5 -169t-261.5 -62q-122 0 -228 44.5t-178.5 119.5t-113.5 177t-41 216t41 216t113.5 177t178.5 119.5t228 44.5zM1307 813q-59 -59 -78 -147h543q-5 96 -75.5 161.5t-187.5 65.5q-125 0 -202 -80zM653 158q145 0 241.5 104.5t96.5 253.5q0 152 -96.5 255
t-241.5 103q-148 0 -245 -103.5t-97 -254.5t97 -254.5t245 -103.5z" />
    <glyph glyph-name="Racute" unicode="&#x154;" horiz-adv-x="1337" 
d="M762 1556h-217l231 277h250zM221 0v1434h406q225 0 355 -111.5t130 -302.5q0 -128 -61 -222.5t-172 -144.5l456 -653h-284l-400 606h-24h-172v-606h-234zM639 1231h-184v-422h184q109 0 169 56t60 159q0 97 -60.5 152t-168.5 55z" />
    <glyph glyph-name="racute" unicode="&#x155;" horiz-adv-x="821" 
d="M510 1196h-205l213 340h234zM172 0v1032h211v-117q124 138 289 138q39 0 90 -15v-219q-62 15 -109 15q-174 0 -270 -156v-678h-211z" />
    <glyph glyph-name="Rcedilla" unicode="&#x156;" horiz-adv-x="1337" 
d="M221 0v1434h406q225 0 355 -111.5t130 -302.5q0 -128 -61 -222.5t-172 -144.5l456 -653h-284l-400 606h-24h-172v-606h-234zM639 1231h-184v-422h184q109 0 169 56t60 159q0 97 -60.5 152t-168.5 55zM618 -504h-204l213 340h233z" />
    <glyph glyph-name="rcedilla" unicode="&#x157;" horiz-adv-x="821" 
d="M172 0v1032h211v-117q124 138 289 138q39 0 90 -15v-219q-62 15 -109 15q-174 0 -270 -156v-678h-211zM190 -504h-204l213 340h233z" />
    <glyph glyph-name="Rcaron" unicode="&#x158;" horiz-adv-x="1337" 
d="M487 1833l166 -172l166 172h191l-230 -277h-252l-231 277h190zM221 0v1434h406q225 0 355 -111.5t130 -302.5q0 -128 -61 -222.5t-172 -144.5l456 -653h-284l-400 606h-24h-172v-606h-234zM639 1231h-184v-422h184q109 0 169 56t60 159q0 97 -60.5 152t-168.5 55z" />
    <glyph glyph-name="rcaron" unicode="&#x159;" horiz-adv-x="821" 
d="M240 1536l161 -240l162 240h191l-213 -340h-279l-213 340h191zM172 0v1032h211v-117q124 138 289 138q39 0 90 -15v-219q-62 15 -109 15q-174 0 -270 -156v-678h-211z" />
    <glyph glyph-name="Sacute" unicode="&#x15a;" horiz-adv-x="1204" 
d="M717 1556h-217l231 277h250zM102 199l172 157q141 -186 336 -186q103 0 162 55t59 146q0 58 -37 104.5t-96 80t-130 66t-142.5 72.5t-130.5 88.5t-96 124t-37 170.5q0 165 123 281.5t313 116.5q287 0 475 -238l-174 -154q-134 183 -299 183q-89 0 -144 -52t-55 -131
q0 -46 23 -84t61.5 -67t89 -55.5t106 -52.5t111 -54.5t106 -66t89 -82t61.5 -108t23 -138.5q-3 -186 -132.5 -301t-324.5 -115q-314 0 -512 240z" />
    <glyph glyph-name="sacute" unicode="&#x15b;" horiz-adv-x="919" 
d="M584 1196h-205l213 340h233zM70 145l145 129q110 -139 252 -139q73 0 114.5 37.5t41.5 97.5q0 42 -27.5 73.5t-71 52.5t-96.5 41t-106 46.5t-96.5 61t-71 92.5t-27.5 133q0 131 98 217t250 86q112 0 208.5 -48t154.5 -124l-146 -127q-88 123 -215 123q-69 0 -107 -32
t-38 -87q0 -42 27.5 -73.5t71 -53t96 -41.5t105.5 -46.5t96.5 -60.5t71 -90t27.5 -130q-1 -98 -50.5 -173t-130 -113t-177.5 -38q-246 0 -399 186z" />
    <glyph glyph-name="Scircumflex" unicode="&#x15c;" horiz-adv-x="1204" 
d="M442 1556h-190l231 277h252l230 -277h-191l-166 173zM102 199l172 157q141 -186 336 -186q103 0 162 55t59 146q0 58 -37 104.5t-96 80t-130 66t-142.5 72.5t-130.5 88.5t-96 124t-37 170.5q0 165 123 281.5t313 116.5q287 0 475 -238l-174 -154q-134 183 -299 183
q-89 0 -144 -52t-55 -131q0 -46 23 -84t61.5 -67t89 -55.5t106 -52.5t111 -54.5t106 -66t89 -82t61.5 -108t23 -138.5q-3 -186 -132.5 -301t-324.5 -115q-314 0 -512 240z" />
    <glyph glyph-name="scircumflex" unicode="&#x15d;" horiz-adv-x="919" 
d="M313 1196h-190l213 340h278l213 -340h-190l-162 240zM70 145l145 129q110 -139 252 -139q73 0 114.5 37.5t41.5 97.5q0 42 -27.5 73.5t-71 52.5t-96.5 41t-106 46.5t-96.5 61t-71 92.5t-27.5 133q0 131 98 217t250 86q112 0 208.5 -48t154.5 -124l-146 -127
q-88 123 -215 123q-69 0 -107 -32t-38 -87q0 -42 27.5 -73.5t71 -53t96 -41.5t105.5 -46.5t96.5 -60.5t71 -90t27.5 -130q-1 -98 -50.5 -173t-130 -113t-177.5 -38q-246 0 -399 186z" />
    <glyph glyph-name="Scedilla" unicode="&#x15e;" horiz-adv-x="1204" 
d="M102 199l172 157q141 -186 336 -186q103 0 162 55t59 146q0 58 -37 104.5t-96 80t-130 66t-142.5 72.5t-130.5 88.5t-96 124t-37 170.5q0 165 123 281.5t313 116.5q287 0 475 -238l-174 -154q-134 183 -299 183q-89 0 -144 -52t-55 -131q0 -46 23 -84t61.5 -67t89 -55.5
t106 -52.5t111 -54.5t106 -66t89 -82t61.5 -108t23 -138.5q-3 -163 -105 -273t-264 -137l-75 -86q89 0 152 -52t63 -130q0 -89 -69 -148t-175 -59q-140 0 -219 70l78 110q56 -53 131 -53q41 0 66.5 21t25.5 57t-26.5 56t-71.5 20q-44 0 -82 -21l-72 86l100 127
q-252 28 -426 236z" />
    <glyph glyph-name="scedilla" unicode="&#x15f;" horiz-adv-x="919" 
d="M70 145l145 129q110 -139 252 -139q73 0 114.5 37.5t41.5 97.5q0 42 -27.5 73.5t-71 52.5t-96.5 41t-106 46.5t-96.5 61t-71 92.5t-27.5 133q0 131 98 217t250 86q112 0 208.5 -48t154.5 -124l-146 -127q-88 123 -215 123q-69 0 -107 -32t-38 -87q0 -42 27.5 -73.5
t71 -53t96 -41.5t105.5 -46.5t96.5 -60.5t71 -90t27.5 -130q-1 -128 -81 -212.5t-203 -105.5l-76 -86q89 0 152 -52t63 -130q0 -89 -69 -148t-175 -59q-140 0 -219 70l78 110q56 -53 131 -53q41 0 66.5 21t25.5 57t-26.5 56t-71.5 20q-44 0 -82 -21l-72 86l105 131
q-179 28 -303 178z" />
    <glyph glyph-name="Scaron" unicode="&#x160;" horiz-adv-x="1204" 
d="M442 1833l166 -172l166 172h191l-230 -277h-252l-231 277h190zM102 199l172 157q141 -186 336 -186q103 0 162 55t59 146q0 58 -37 104.5t-96 80t-130 66t-142.5 72.5t-130.5 88.5t-96 124t-37 170.5q0 165 123 281.5t313 116.5q287 0 475 -238l-174 -154
q-134 183 -299 183q-89 0 -144 -52t-55 -131q0 -46 23 -84t61.5 -67t89 -55.5t106 -52.5t111 -54.5t106 -66t89 -82t61.5 -108t23 -138.5q-3 -186 -132.5 -301t-324.5 -115q-314 0 -512 240z" />
    <glyph glyph-name="scaron" unicode="&#x161;" horiz-adv-x="919" 
d="M313 1536l162 -240l162 240h190l-213 -340h-278l-213 340h190zM70 145l145 129q110 -139 252 -139q73 0 114.5 37.5t41.5 97.5q0 42 -27.5 73.5t-71 52.5t-96.5 41t-106 46.5t-96.5 61t-71 92.5t-27.5 133q0 131 98 217t250 86q112 0 208.5 -48t154.5 -124l-146 -127
q-88 123 -215 123q-69 0 -107 -32t-38 -87q0 -42 27.5 -73.5t71 -53t96 -41.5t105.5 -46.5t96.5 -60.5t71 -90t27.5 -130q-1 -98 -50.5 -173t-130 -113t-177.5 -38q-246 0 -399 186z" />
    <glyph glyph-name="Tcedilla" unicode="&#x162;" horiz-adv-x="1294" 
d="M68 1219v215h1157v-215h-461v-1219h-12l-107 -121q89 0 152 -52t63 -130q0 -89 -69 -148t-175 -59q-140 0 -219 70l78 110q56 -53 131 -53q41 0 66.5 21t25.5 57t-26.5 56t-71.5 20q-44 0 -82 -21l-72 86l132 164h-50v1219h-460z" />
    <glyph glyph-name="tcedilla" unicode="&#x163;" horiz-adv-x="878" 
d="M233 358v482h-194v192h194v258h213v-258h342v-192h-342v-482q0 -99 48.5 -141.5t140.5 -42.5t153 23v-187q-61 -25 -135 -28l-90 -103q89 0 152 -52t63 -130q0 -89 -68.5 -148t-174.5 -59q-141 0 -220 70l78 110q56 -53 131 -53q41 0 66.5 21t25.5 57t-26.5 56t-71.5 20
q-44 0 -82 -21l-71 86l122 156q-254 53 -254 366z" />
    <glyph glyph-name="Tcaron" unicode="&#x164;" horiz-adv-x="1294" 
d="M483 1833l166 -172l166 172h191l-230 -277h-252l-231 277h190zM68 1219v215h1157v-215h-461v-1219h-236v1219h-460z" />
    <glyph glyph-name="tcaron" unicode="&#x165;" horiz-adv-x="868" 
d="M690 1155h-180l172 381h223zM233 358v482h-194v192h194v258h213v-258h342v-192h-342v-482q0 -99 48.5 -141.5t140.5 -42.5t153 23v-187q-74 -30 -186 -30q-182 0 -275.5 95t-93.5 283z" />
    <glyph glyph-name="Tbar" unicode="&#x166;" horiz-adv-x="1294" 
d="M242 571v160h286v488h-460v215h1157v-215h-461v-488h291v-160h-291v-571h-236v571h-286z" />
    <glyph glyph-name="tbar" unicode="&#x167;" horiz-adv-x="868" 
d="M233 358v150h-194v160h194v172h-194v192h194v258h213v-258h342v-192h-342v-172h345v-160h-345v-150q0 -99 48.5 -141.5t140.5 -42.5t153 23v-187q-74 -30 -186 -30q-182 0 -275.5 95t-93.5 283z" />
    <glyph glyph-name="Utilde" unicode="&#x168;" horiz-adv-x="1490" 
d="M377 1556v80q0 99 57 158t150 59q41 0 79.5 -14t58 -27.5t60.5 -44.5l27 -22q5 -4 20.5 -18t20.5 -17.5t16 -10.5t20.5 -9t20.5 -2q25 0 40.5 18t15.5 51v76h155v-80q0 -100 -57 -158.5t-150 -58.5q-42 0 -81 14.5t-57 27t-60 44.5l-27 23q-4 4 -17.5 15.5t-17.5 14.5
l-14 10.5t-16 9.5t-15 4.5t-18 2.5q-56 0 -56 -70v-76h-155zM1077 532v902h236v-885q0 -277 -152 -433.5t-413 -156.5q-262 0 -415 157t-153 433v885h234v-902q0 -167 89.5 -259.5t244.5 -92.5q152 0 240.5 92.5t88.5 259.5z" />
    <glyph glyph-name="utilde" unicode="&#x169;" horiz-adv-x="1234" 
d="M987 1536v-94q0 -116 -53.5 -188t-147.5 -72q-57 0 -102 26.5t-92 77.5l-35 33q-41 51 -58 62q-18 12 -40 12q-28 0 -43 -22.5t-15 -59.5v-115h-155v102q0 116 52 184t148 68q56 0 101 -26t94 -78l33 -33q41 -51 58 -62q18 -12 40 -12q29 0 44 22.5t15 59.5v115h156z
M872 442v590h213v-579q0 -231 -125 -362.5t-342 -131.5q-219 0 -343.5 131.5t-124.5 362.5v579h212v-590q0 -134 67.5 -209t188.5 -75q119 0 186.5 75.5t67.5 208.5z" />
    <glyph glyph-name="Umacron" unicode="&#x16a;" horiz-adv-x="1490" 
d="M412 1634v158h671v-158h-671zM1077 532v902h236v-885q0 -277 -152 -433.5t-413 -156.5q-262 0 -415 157t-153 433v885h234v-902q0 -167 89.5 -259.5t244.5 -92.5q152 0 240.5 92.5t88.5 259.5z" />
    <glyph glyph-name="umacron" unicode="&#x16b;" horiz-adv-x="1234" 
d="M281 1315v160h671v-160h-671zM872 442v590h213v-579q0 -231 -125 -362.5t-342 -131.5q-219 0 -343.5 131.5t-124.5 362.5v579h212v-590q0 -134 67.5 -209t188.5 -75q119 0 186.5 75.5t67.5 208.5z" />
    <glyph glyph-name="Ubreve" unicode="&#x16c;" horiz-adv-x="1490" 
d="M748 1683q87 0 133 38.5t51 111.5h176q0 -142 -98 -219.5t-262 -77.5q-162 0 -260 77.5t-99 219.5h176q13 -150 183 -150zM1077 532v902h236v-885q0 -277 -152 -433.5t-413 -156.5q-262 0 -415 157t-153 433v885h234v-902q0 -167 89.5 -259.5t244.5 -92.5
q152 0 240.5 92.5t88.5 259.5z" />
    <glyph glyph-name="ubreve" unicode="&#x16d;" horiz-adv-x="1234" 
d="M616 1343q88 0 132.5 49.5t44.5 143.5h176q0 -164 -93.5 -252t-259.5 -88q-164 0 -258 88.5t-94 251.5h176q0 -93 45 -143t131 -50zM872 442v590h213v-579q0 -231 -125 -362.5t-342 -131.5q-219 0 -343.5 131.5t-124.5 362.5v579h212v-590q0 -134 67.5 -209t188.5 -75
q119 0 186.5 75.5t67.5 208.5z" />
    <glyph glyph-name="Uring" unicode="&#x16e;" horiz-adv-x="1490" 
d="M748 1516q-111 0 -185 59.5t-74 171.5t74 171.5t185 59.5q114 0 188 -59.5t74 -171.5t-74 -171.5t-188 -59.5zM748 1634q59 0 94 29.5t35 83.5t-35 83.5t-94 29.5q-57 0 -92 -29.5t-35 -83.5t35 -83.5t92 -29.5zM1077 532v902h236v-885q0 -277 -152 -433.5t-413 -156.5
q-262 0 -415 157t-153 433v885h234v-902q0 -167 89.5 -259.5t244.5 -92.5q152 0 240.5 92.5t88.5 259.5z" />
    <glyph glyph-name="uring" unicode="&#x16f;" horiz-adv-x="1234" 
d="M616 1139q-107 0 -182.5 68t-75.5 175q0 108 75.5 176t182.5 68q110 0 186.5 -68t76.5 -176t-76.5 -175.5t-186.5 -67.5zM621 1253q57 2 92.5 37.5t34.5 93.5t-38.5 92.5t-95.5 32.5q-56 0 -92 -36.5t-35 -94.5q1 -56 39.5 -90.5t94.5 -34.5zM872 442v590h213v-579
q0 -231 -125 -362.5t-342 -131.5q-219 0 -343.5 131.5t-124.5 362.5v579h212v-590q0 -134 67.5 -209t188.5 -75q119 0 186.5 75.5t67.5 208.5z" />
    <glyph glyph-name="Uhungarumlaut" unicode="&#x170;" horiz-adv-x="1490" 
d="M639 1556h-217l231 277h250zM1069 1556h-217l231 277h250zM1077 532v902h236v-885q0 -277 -152 -433.5t-413 -156.5q-262 0 -415 157t-153 433v885h234v-902q0 -167 89.5 -259.5t244.5 -92.5q152 0 240.5 92.5t88.5 259.5z" />
    <glyph glyph-name="uhungarumlaut" unicode="&#x171;" horiz-adv-x="1234" 
d="M522 1196h-203l211 340h236zM909 1196h-204l213 340h233zM872 442v590h213v-579q0 -231 -125 -362.5t-342 -131.5q-219 0 -343.5 131.5t-124.5 362.5v579h212v-590q0 -134 67.5 -209t188.5 -75q119 0 186.5 75.5t67.5 208.5z" />
    <glyph glyph-name="Uogonek" unicode="&#x172;" horiz-adv-x="1490" 
d="M532 -283q0 131 154 244q-235 19 -370.5 174t-135.5 414v885h234v-902q0 -167 89.5 -259.5t244.5 -92.5q152 0 240.5 92.5t88.5 259.5v902h236v-885q0 -216 -95.5 -361t-267.5 -200l-86 -56q-89 -62 -124 -104t-35 -84q0 -100 122 -100q80 0 142 28v-145
q-71 -31 -172 -31q-125 0 -195 65.5t-70 155.5z" />
    <glyph glyph-name="uogonek" unicode="&#x173;" horiz-adv-x="1234" 
d="M377 -283q0 135 158 248q-182 25 -283.5 152.5t-101.5 335.5v579h212v-590q0 -134 67.5 -209t188.5 -75q119 0 186.5 75.5t67.5 208.5v590h213v-579q0 -181 -78 -302.5t-219 -166.5l-79 -52q-89 -62 -124.5 -104t-35.5 -84q0 -100 123 -100q79 0 141 28v-145
q-71 -31 -172 -31q-125 0 -194.5 65.5t-69.5 155.5z" />
    <glyph glyph-name="Wcircumflex" unicode="&#x174;" horiz-adv-x="2097" 
d="M883 1556h-191l232 277h252l229 -277h-191l-165 173zM61 1434h234l293 -1168l336 1168h311l334 -1168l297 1168h231l-362 -1434h-318l-338 1180l-340 -1180h-315z" />
    <glyph glyph-name="wcircumflex" unicode="&#x175;" horiz-adv-x="1673" 
d="M674 1196h-191l213 340h279l213 -340h-191l-161 240zM61 1032h211l199 -811l221 811h289l219 -809l199 809h211l-252 -1032h-297l-225 825l-226 -825h-293z" />
    <glyph glyph-name="Ycircumflex" unicode="&#x176;" horiz-adv-x="1413" 
d="M541 1556h-191l232 277h252l229 -277h-191l-165 173zM1411 1434l-586 -805v-629h-235v627l-586 807h285l420 -576l417 576h285z" />
    <glyph glyph-name="ycircumflex" unicode="&#x177;" horiz-adv-x="1134" 
d="M406 1196h-191l213 340h279l213 -340h-191l-162 240zM582 -244q-112 -268 -375 -268q-96 0 -174 33v188q60 -26 131 -26q82 0 137 34.5t90 118.5l70 166l-441 1030h234l319 -760l316 760h225z" />
    <glyph glyph-name="Ydieresis" unicode="&#x178;" horiz-adv-x="1413" 
d="M498 1591q-53 0 -90 35.5t-37 87.5q0 51 37.5 88t89.5 37q50 0 87.5 -37t37.5 -88q0 -52 -37.5 -87.5t-87.5 -35.5zM915 1591q-51 0 -87.5 35.5t-36.5 87.5t36.5 88.5t87.5 36.5q53 0 90 -36.5t37 -88.5t-37 -87.5t-90 -35.5zM1411 1434l-586 -805v-629h-235v627
l-586 807h285l420 -576l417 576h285z" />
    <glyph glyph-name="Zacute" unicode="&#x179;" horiz-adv-x="1392" 
d="M813 1556h-217l231 277h250zM117 0v215l852 1004h-832v215h1116v-215l-850 -1004h871v-215h-1157z" />
    <glyph glyph-name="zacute" unicode="&#x17a;" horiz-adv-x="1060" 
d="M639 1196h-205l213 340h234zM106 0v193l572 647h-557v192h819v-192l-571 -647h585v-193h-848z" />
    <glyph glyph-name="Zdotaccent" unicode="&#x17b;" horiz-adv-x="1392" 
d="M705 1591q-53 0 -90 35.5t-37 87.5t37 88.5t90 36.5q51 0 87.5 -36.5t36.5 -88.5t-36.5 -87.5t-87.5 -35.5zM117 0v215l852 1004h-832v215h1116v-215l-850 -1004h871v-215h-1157z" />
    <glyph glyph-name="zdotaccent" unicode="&#x17c;" horiz-adv-x="1060" 
d="M530 1262q-58 0 -100.5 42t-42.5 101t42.5 101t100.5 42q59 0 101.5 -42.5t42.5 -100.5t-42.5 -100.5t-101.5 -42.5zM106 0v193l572 647h-557v192h819v-192l-571 -647h585v-193h-848z" />
    <glyph glyph-name="Zcaron" unicode="&#x17d;" horiz-adv-x="1392" 
d="M539 1833l166 -172l165 172h191l-230 -277h-251l-232 277h191zM117 0v215l852 1004h-832v215h1116v-215l-850 -1004h871v-215h-1157z" />
    <glyph glyph-name="zcaron" unicode="&#x17e;" horiz-adv-x="1060" 
d="M369 1536l161 -240l162 240h191l-213 -340h-279l-213 340h191zM106 0v193l572 647h-557v192h819v-192l-571 -647h585v-193h-848z" />
    <glyph glyph-name="Scommaaccent" unicode="&#x218;" horiz-adv-x="1204" 
d="M102 199l172 157q141 -186 336 -186q103 0 162 55t59 146q0 58 -37 104.5t-96 80t-130 66t-142.5 72.5t-130.5 88.5t-96 124t-37 170.5q0 165 123 281.5t313 116.5q287 0 475 -238l-174 -154q-134 183 -299 183q-89 0 -144 -52t-55 -131q0 -46 23 -84t61.5 -67t89 -55.5
t106 -52.5t111 -54.5t106 -66t89 -82t61.5 -108t23 -138.5q-3 -186 -132.5 -301t-324.5 -115q-314 0 -512 240zM506 -504h-205l213 340h234z" />
    <glyph glyph-name="scommaaccent" unicode="&#x219;" horiz-adv-x="919" 
d="M70 145l145 129q110 -139 252 -139q73 0 114.5 37.5t41.5 97.5q0 42 -27.5 73.5t-71 52.5t-96.5 41t-106 46.5t-96.5 61t-71 92.5t-27.5 133q0 131 98 217t250 86q112 0 208.5 -48t154.5 -124l-146 -127q-88 123 -215 123q-69 0 -107 -32t-38 -87q0 -42 27.5 -73.5
t71 -53t96 -41.5t105.5 -46.5t96.5 -60.5t71 -90t27.5 -130q-1 -98 -50.5 -173t-130 -113t-177.5 -38q-246 0 -399 186zM346 -504h-205l213 340h234z" />
    <glyph glyph-name="Tcommaaccent" unicode="&#x21a;" horiz-adv-x="1294" 
d="M68 1219v215h1157v-215h-461v-1219h-236v1219h-460zM535 -504h-205l213 340h233z" />
    <glyph glyph-name="tcommaaccent" unicode="&#x21b;" horiz-adv-x="868" 
d="M233 358v482h-194v192h194v258h213v-258h342v-192h-342v-482q0 -99 48.5 -141.5t140.5 -42.5t153 23v-187q-74 -30 -186 -30q-182 0 -275.5 95t-93.5 283zM442 -504h-204l213 340h233z" />
    <glyph glyph-name="dotlessj" unicode="&#x237;" horiz-adv-x="555" 
d="M383 -125q0 -387 -367 -387q-110 0 -186 31v186q55 -22 154 -22q92 0 140 43.5t48 148.5v1157h211v-1157z" />
    <glyph glyph-name="circumflex" unicode="&#x2c6;" 
d="M453 1196h-191l213 340h279l213 -340h-191l-162 240z" />
    <glyph glyph-name="caron" unicode="&#x2c7;" 
d="M453 1536l161 -240l162 240h191l-213 -340h-279l-213 340h191z" />
    <glyph glyph-name="breve" unicode="&#x2d8;" 
d="M614 1343q88 0 132.5 49.5t44.5 143.5h176q0 -164 -93.5 -252t-259.5 -88q-164 0 -258 88.5t-94 251.5h176q0 -93 45 -143t131 -50z" />
    <glyph glyph-name="dotaccent" unicode="&#x2d9;" horiz-adv-x="1230" 
d="M616 1262q-58 0 -100.5 42t-42.5 101t42.5 101t100.5 42q59 0 101.5 -42.5t42.5 -100.5t-42.5 -100.5t-101.5 -42.5z" />
    <glyph glyph-name="ring" unicode="&#x2da;" horiz-adv-x="1226" 
d="M612 1139q-107 0 -182.5 68t-75.5 175q0 108 75.5 176t182.5 68q110 0 186 -68t76 -176t-76 -175.5t-186 -67.5zM616 1253q57 2 92.5 37.5t34.5 93.5t-38 92.5t-95 32.5q-56 0 -92 -36.5t-35 -94.5q1 -56 39 -90.5t94 -34.5z" />
    <glyph glyph-name="ogonek" unicode="&#x2db;" 
d="M397 -283q0 145 185 267l80 49l172 -33l-105 -68q-89 -62 -124.5 -104t-35.5 -84q0 -100 123 -100q80 0 142 28v-145q-71 -31 -172 -31q-125 0 -195 65.5t-70 155.5z" />
    <glyph glyph-name="tilde" unicode="&#x2dc;" 
d="M985 1536v-94q0 -116 -53.5 -188t-147.5 -72q-57 0 -102 26.5t-92 77.5l-35 33q-41 51 -58 62q-18 12 -40 12q-28 0 -43 -22.5t-15 -59.5v-115h-155v102q0 116 52 184t148 68q56 0 101 -26t94 -78l33 -33q41 -51 58 -62q18 -12 40 -12q29 0 44 22.5t15 59.5v115h156z" />
    <glyph glyph-name="hungarumlaut" unicode="&#x2dd;" horiz-adv-x="1230" 
d="M401 1196h-202l211 340h235zM788 1196h-204l213 340h233z" />
    <glyph glyph-name="gravecmb" unicode="&#x300;" horiz-adv-x="0" 
d="M-111 1196l-241 340h233l213 -340h-205z" />
    <glyph glyph-name="acutecmb" unicode="&#x301;" horiz-adv-x="0" 
d="M109 1196h-205l213 340h233z" />
    <glyph glyph-name="circumflexcmb" unicode="&#x302;" horiz-adv-x="0" 
d="M-162 1196h-190l213 340h278l213 -340h-190l-162 240z" />
    <glyph glyph-name="tildecmb" unicode="&#x303;" horiz-adv-x="0" 
d="M371 1536v-94q0 -116 -53.5 -188t-147.5 -72q-101 0 -195 104l-34 33q-24 30 -33.5 40.5t-28 22t-37.5 11.5q-28 0 -42.5 -22.5t-14.5 -59.5v-115h-156v102q0 116 52 184t149 68q56 0 101 -26t94 -78l32 -33q24 -30 33.5 -40.5t28 -22t37.5 -11.5q29 0 44 22.5t15 59.5
v115h156z" />
    <glyph glyph-name="macroncmb" unicode="&#x304;" horiz-adv-x="0" 
d="M-336 1315v160h672v-160h-672z" />
    <glyph glyph-name="brevecmb" unicode="&#x306;" horiz-adv-x="0" 
d="M0 1343q88 0 132 49.5t44 143.5h176q0 -164 -93 -252t-259 -88q-164 0 -258 88.5t-94 251.5h176q0 -93 45 -143t131 -50z" />
    <glyph glyph-name="dotaccentcmb" unicode="&#x307;" horiz-adv-x="0" 
d="M0 1262q-58 0 -100.5 42t-42.5 101t42.5 101t100.5 42t100.5 -42t42.5 -101t-42.5 -101t-100.5 -42z" />
    <glyph glyph-name="dieresiscmb" unicode="&#x308;" horiz-adv-x="0" 
d="M-211 1280q-55 0 -95 40t-40 95q0 54 40 93.5t95 39.5q54 0 93.5 -39.5t39.5 -93.5q0 -55 -39.5 -95t-93.5 -40zM213 1280q-55 0 -95 40t-40 95q0 54 40 93.5t95 39.5q54 0 93.5 -39.5t39.5 -93.5q0 -55 -39.5 -95t-93.5 -40z" />
    <glyph glyph-name="ringabovecmb" unicode="&#x30a;" horiz-adv-x="0" 
d="M0 1139q-107 0 -182.5 68t-75.5 175q0 108 75.5 176t182.5 68q110 0 186 -68t76 -176t-76 -175.5t-186 -67.5zM4 1253q57 2 92.5 37.5t34.5 93.5t-38 92.5t-95 32.5q-56 0 -92 -36.5t-35 -94.5q1 -56 39 -90.5t94 -34.5z" />
    <glyph glyph-name="hungarumlautcmb" unicode="&#x30b;" horiz-adv-x="0" 
d="M-94 1196h-203l211 340h236zM293 1196h-205l213 340h234z" />
    <glyph glyph-name="caroncmb" unicode="&#x30c;" horiz-adv-x="0" 
d="M162 1536h190l-213 -340h-278l-213 340h190l162 -240z" />
    <glyph glyph-name="commaturnedabovecmb" unicode="&#x312;" horiz-adv-x="0" 
d="M145 1536h203l-211 -340h-235z" />
    <glyph glyph-name="commaaccentbelowcmb" unicode="&#x326;" horiz-adv-x="0" 
d="M-115 -504h-204l213 340h233z" />
    <glyph glyph-name="cedillacmb" unicode="&#x327;" horiz-adv-x="0" 
d="M-49 16l168 -8l-113 -129q89 0 152 -52t63 -130q0 -89 -69 -148t-175 -59q-140 0 -219 70l78 110q56 -53 131 -53q41 0 66.5 21t25.5 57t-26.5 56t-71.5 20t-82 -21l-72 86z" />
    <glyph glyph-name="ogonekcmb" unicode="&#x328;" horiz-adv-x="0" 
d="M-436 -283q0 145 184 267l80 49l172 -33l-104 -68q-89 -62 -124.5 -104t-35.5 -84q0 -100 123 -100q79 0 141 28v-145q-71 -31 -172 -31q-125 0 -194.5 65.5t-69.5 155.5z" />
    <glyph glyph-name="endash" unicode="&#x2013;" horiz-adv-x="1105" 
d="M43 614h1020v-182h-1020v182z" />
    <glyph glyph-name="emdash" unicode="&#x2014;" horiz-adv-x="2211" 
d="M43 614h2126v-182h-2126v182z" />
    <glyph glyph-name="quoteleft" unicode="&#x2018;" horiz-adv-x="550" 
d="M291 1434h194l-178 -568h-239z" />
    <glyph glyph-name="quoteright" unicode="&#x2019;" horiz-adv-x="550" 
d="M262 866h-194l178 568h239z" />
    <glyph glyph-name="quotesinglbase" unicode="&#x201a;" horiz-adv-x="555" 
d="M264 -328h-196l178 574h241z" />
    <glyph glyph-name="quotedblleft" unicode="&#x201c;" horiz-adv-x="968" 
d="M291 1434h194l-178 -568h-239zM707 1434h194l-178 -568h-240z" />
    <glyph glyph-name="quotedblright" unicode="&#x201d;" horiz-adv-x="968" 
d="M262 866h-194l178 568h239zM678 866h-195l179 568h239z" />
    <glyph glyph-name="quotedblbase" unicode="&#x201e;" horiz-adv-x="970" 
d="M264 -328h-196l178 574h241zM680 -328h-197l179 574h241z" />
    <glyph glyph-name="dagger" unicode="&#x2020;" horiz-adv-x="905" 
d="M352 225v813h-317v183h317v315h201v-315h317v-183h-317v-813h-201z" />
    <glyph glyph-name="daggerdbl" unicode="&#x2021;" horiz-adv-x="905" 
d="M352 225v316h-317v182h317v315h-317v183h317v315h201v-315h317v-183h-317v-315h317v-182h-317v-316h-201z" />
    <glyph glyph-name="bullet" unicode="&#x2022;" horiz-adv-x="784" 
d="M395 242q-124 0 -211.5 84.5t-87.5 203.5q0 117 87.5 199t211.5 82t208.5 -81.5t84.5 -199.5q0 -119 -84.5 -203.5t-208.5 -84.5z" />
    <glyph glyph-name="ellipsis" unicode="&#x2026;" horiz-adv-x="1486" 
d="M279 -25q-63 0 -108.5 45.5t-45.5 108.5q0 60 45.5 105t108.5 45q61 0 106 -45t45 -105q0 -63 -44.5 -108.5t-106.5 -45.5zM745 -25q-63 0 -108 45.5t-45 108.5q0 60 45 105t108 45q60 0 105 -45t45 -105q0 -63 -45 -108.5t-105 -45.5zM1210 -25q-63 0 -108 45.5
t-45 108.5q0 60 45 105t108 45q61 0 106.5 -45t45.5 -105q0 -63 -45 -108.5t-107 -45.5z" />
    <glyph glyph-name="perthousand" unicode="&#x2030;" horiz-adv-x="2461" 
d="M420 1479q151 0 248.5 -99t97.5 -243t-97.5 -243t-248.5 -99q-154 0 -251 99t-97 243t97 243t251 99zM209 2l1051 1434h219l-1051 -1434h-219zM420 940q79 0 131.5 56.5t52.5 140.5q0 85 -52 140.5t-132 55.5q-82 0 -134.5 -55.5t-52.5 -140.5t53 -141t134 -56zM1272 645
q151 0 248.5 -99t97.5 -243t-97.5 -243t-248.5 -99q-154 0 -251 99t-97 243t97 243t251 99zM2044 645q151 0 248.5 -99t97.5 -243t-97.5 -243t-248.5 -99q-154 0 -251 99t-97 243t97 243t251 99zM1272 106q79 0 131.5 56.5t52.5 140.5q0 85 -52.5 141t-131.5 56
q-81 0 -134 -56t-53 -141t53 -141t134 -56zM2044 106q79 0 131.5 56.5t52.5 140.5q0 85 -52.5 141t-131.5 56q-81 0 -133.5 -56t-52.5 -141t52.5 -141t133.5 -56z" />
    <glyph glyph-name="guilsinglleft" unicode="&#x2039;" horiz-adv-x="679" 
d="M588 98h-230l-266 404l266 416h230l-264 -414z" />
    <glyph glyph-name="guilsinglright" unicode="&#x203a;" horiz-adv-x="679" 
d="M94 918h228l266 -404l-266 -416h-228l264 416z" />
    <glyph glyph-name="fraction" unicode="&#x2044;" horiz-adv-x="493" 
d="M-393 0l1050 1434h220l-1051 -1434h-219z" />
    <glyph glyph-name="zerosuperior" unicode="&#x2070;" horiz-adv-x="796" 
d="M397 1735q166 0 252 -128.5t86 -336.5t-86 -336.5t-252 -128.5q-165 0 -251.5 128.5t-86.5 336.5t86.5 336.5t251.5 128.5zM399 1583q-85 0 -127.5 -83.5t-42.5 -229.5t42.5 -230t127.5 -84q81 0 124.5 84.5t43.5 229.5t-43.5 229t-124.5 84z" />
    <glyph glyph-name="i.superior" unicode="&#x2071;" horiz-adv-x="391" 
d="M197 1571q-43 0 -73 29.5t-30 70.5q0 42 30.5 72.5t72.5 30.5q40 0 70 -31t30 -72t-30 -70.5t-70 -29.5zM119 829v635h153v-635h-153z" />
    <glyph glyph-name="foursuperior" unicode="&#x2074;" horiz-adv-x="796" 
d="M475 829v236h-401v137l375 508h190v-508h92v-137h-92v-236h-164zM240 1202h235v316z" />
    <glyph glyph-name="fivesuperior" unicode="&#x2075;" horiz-adv-x="796" 
d="M139 1225l27 485h522v-147h-366l-9 -193h74q154 0 244 -76t90 -209q0 -129 -90.5 -204.5t-231.5 -75.5q-236 0 -342 184l144 88q66 -127 198 -127q69 0 111.5 37t42.5 100q0 64 -45.5 100t-128.5 36h-150z" />
    <glyph glyph-name="sixsuperior" unicode="&#x2076;" horiz-adv-x="796" 
d="M442 1735q194 0 303 -144l-124 -100q-37 48 -78 72t-97 24q-196 0 -208 -289q92 95 225 95q126 0 202 -81t76 -204q0 -130 -86.5 -216.5t-236.5 -86.5q-169 0 -258.5 119t-89.5 340q0 219 94 345t278 126zM428 1247q-123 0 -184 -92q13 -106 57 -154.5t119 -48.5
q70 0 110.5 42t40.5 110q0 63 -39 103t-104 40z" />
    <glyph glyph-name="sevensuperior" unicode="&#x2077;" horiz-adv-x="796" 
d="M307 829h-198l438 734h-449v147h631v-147z" />
    <glyph glyph-name="eightsuperior" unicode="&#x2078;" horiz-adv-x="796" 
d="M397 1735q140 0 218.5 -68.5t78.5 -169.5q0 -60 -31 -110t-90 -80q77 -32 118.5 -93t41.5 -139q0 -118 -89 -194t-247 -76q-157 0 -246.5 76t-89.5 194q0 77 42.5 138.5t119.5 93.5q-59 30 -90 80t-31 110q0 101 77.5 169.5t217.5 68.5zM401 1370q56 0 89.5 30t33.5 81
t-34 82.5t-89 31.5q-61 0 -96 -31t-35 -83q0 -51 35 -81t96 -30zM399 946q75 0 120.5 38t45.5 101t-45.5 102.5t-120.5 39.5q-76 0 -122 -39.5t-46 -102.5t46 -101t122 -38z" />
    <glyph glyph-name="ninesuperior" unicode="&#x2079;" horiz-adv-x="796" 
d="M362 805q-197 0 -301 143l123 101q77 -97 176 -97q96 0 148.5 73.5t58.5 215.5q-85 -94 -223 -94q-128 0 -204.5 81t-76.5 204q0 130 87 216.5t239 86.5q169 0 257.5 -119t88.5 -340q0 -219 -94.5 -345t-278.5 -126zM233 1436q0 -62 40.5 -103t105.5 -41q116 0 182 90
q-13 108 -57 156.5t-119 48.5q-71 0 -111.5 -42t-40.5 -109z" />
    <glyph glyph-name="n.superior" unicode="&#x207f;" horiz-adv-x="813" 
d="M119 829v635h153v-53q78 78 189 78q109 0 178.5 -73.5t69.5 -209.5v-377h-156v373q0 66 -34.5 103.5t-94.5 37.5q-89 0 -152 -96v-418h-153z" />
    <glyph glyph-name="zeroinferior" unicode="&#x2080;" horiz-adv-x="796" 
d="M397 629q166 0 252 -128.5t86 -336.5t-86 -336.5t-252 -128.5q-165 0 -251.5 128.5t-86.5 336.5t86.5 336.5t251.5 128.5zM399 477q-85 0 -127.5 -83.5t-42.5 -229.5t42.5 -230t127.5 -84q81 0 124.5 84.5t43.5 229.5t-43.5 229t-124.5 84z" />
    <glyph glyph-name="oneinferior" unicode="&#x2081;" horiz-adv-x="796" 
d="M115 -276v147h235v565l-198 -106l-82 116l284 158h160v-733h209v-147h-608z" />
    <glyph glyph-name="twoinferior" unicode="&#x2082;" horiz-adv-x="796" 
d="M94 -276v147l303 299q5 5 24 25t24.5 26.5t20 24t20 28t13 27t10.5 32.5t3 34q0 54 -35 85t-92 31q-58 0 -101 -33t-81 -96l-133 82q59 94 137 143.5t188 49.5q123 0 203 -68.5t80 -179.5q0 -46 -12.5 -87.5t-39.5 -80.5t-50.5 -66t-63.5 -67l-217 -209h407v-147h-608z
" />
    <glyph glyph-name="threeinferior" unicode="&#x2083;" horiz-adv-x="796" 
d="M383 483q-102 0 -156 -102l-135 84q106 164 303 164q121 0 200 -64.5t79 -169.5q0 -129 -101 -198q67 -32 103.5 -90.5t36.5 -131.5q0 -127 -88.5 -201.5t-231.5 -74.5q-236 0 -342 184l144 88q35 -66 82.5 -96.5t113.5 -30.5q67 0 110.5 37.5t43.5 100.5t-43 99t-115 36
h-145v145h133q58 0 94.5 30.5t36.5 82.5q0 51 -34 79.5t-89 28.5z" />
    <glyph glyph-name="fourinferior" unicode="&#x2084;" horiz-adv-x="796" 
d="M74 -41v137l375 508h190v-508h92v-137h-92v-235h-164v235h-401zM240 96h235v316z" />
    <glyph glyph-name="fiveinferior" unicode="&#x2085;" horiz-adv-x="796" 
d="M139 119l27 485h522v-147h-366l-9 -193h74q155 0 244.5 -75.5t89.5 -208.5q0 -129 -90.5 -205t-231.5 -76q-236 0 -342 184l144 88q66 -127 198 -127q69 0 111.5 37t42.5 101q0 63 -45.5 99t-128.5 36h-150z" />
    <glyph glyph-name="sixinferior" unicode="&#x2086;" horiz-adv-x="796" 
d="M442 629q194 0 303 -144l-124 -100q-37 48 -78 72t-97 24q-196 0 -208 -288q91 94 225 94q126 0 202 -81t76 -204q0 -130 -86.5 -216.5t-236.5 -86.5q-169 0 -258.5 119t-89.5 340q0 219 94 345t278 126zM428 141q-123 0 -184 -92q13 -106 57 -154.5t119 -48.5
q70 0 110.5 42t40.5 110q0 63 -39 103t-104 40z" />
    <glyph glyph-name="seveninferior" unicode="&#x2087;" horiz-adv-x="796" 
d="M307 -276h-198l438 733h-449v147h631v-147z" />
    <glyph glyph-name="eightinferior" unicode="&#x2088;" horiz-adv-x="796" 
d="M397 629q140 0 218.5 -68.5t78.5 -169.5q0 -60 -31 -110t-90 -80q77 -32 118.5 -93t41.5 -139q0 -118 -89 -194t-247 -76q-157 0 -246.5 76t-89.5 194q0 77 42.5 138.5t119.5 93.5q-59 30 -90 80t-31 110q0 101 77.5 169.5t217.5 68.5zM401 264q56 0 89.5 30t33.5 81
t-34 82.5t-89 31.5q-61 0 -96 -31t-35 -83q0 -51 35 -81t96 -30zM399 -160q75 0 120.5 38.5t45.5 101.5t-45.5 102t-120.5 39q-76 0 -122 -39t-46 -102t46 -101.5t122 -38.5z" />
    <glyph glyph-name="nineinferior" unicode="&#x2089;" horiz-adv-x="796" 
d="M362 -301q-197 0 -301 143l123 101q77 -97 176 -97q96 0 148.5 73.5t58.5 215.5q-85 -94 -223 -94q-128 0 -204.5 81t-76.5 204q0 130 87 216.5t239 86.5q169 0 257.5 -119t88.5 -340q0 -219 -94.5 -345t-278.5 -126zM233 330q0 -62 40.5 -103t105.5 -41q116 0 182 90
q-13 108 -57 156.5t-119 48.5q-71 0 -111.5 -42t-40.5 -109z" />
    <glyph glyph-name="Euro" unicode="&#x20ac;" 
d="M43 463v178h168q-2 25 -2 78q0 46 2 69h-168v181h184q41 254 173.5 381t347.5 127q265 0 426 -209l-170 -131q-96 141 -252 141q-118 0 -191.5 -72t-103.5 -237h540v-181h-557q-2 -23 -2 -69q0 -53 2 -78h557v-178h-538q29 -163 103 -234t190 -71q156 0 252 139l170 -129
q-155 -209 -426 -209q-213 0 -345.5 126.5t-173.5 377.5h-186z" />
    <glyph glyph-name="numero" unicode="&#x2116;" horiz-adv-x="2508" 
d="M2073 1489q151 0 248.5 -99t97.5 -243t-97.5 -243t-248.5 -99q-154 0 -251.5 99t-97.5 243t97.5 243t251.5 99zM221 0v1434h303l738 -1125v1125h235v-1434h-305l-737 1124v-1124h-234zM2073 950q79 0 131.5 56.5t52.5 140.5q0 85 -52 140.5t-132 55.5q-82 0 -134.5 -55.5
t-52.5 -140.5t53 -141t134 -56zM1774 518v148h598v-148h-598z" />
    <glyph glyph-name="trademark" unicode="&#x2122;" horiz-adv-x="1961" 
d="M61 1276v158h719v-158h-274v-723h-172v723h-273zM938 553v881h217l219 -369l219 369h217v-881h-172v635l-202 -334h-123l-203 334v-635h-172z" />
    <glyph glyph-name="arrowleft" unicode="&#x2190;" horiz-adv-x="1630" 
d="M698 117l-620 620l620 623l129 -129l-411 -404h1136v-182h-1134l409 -399z" />
    <glyph glyph-name="arrowup" unicode="&#x2191;" horiz-adv-x="1630" 
d="M721 0v1124l-399 -399l-129 129l620 621l623 -621l-129 -129l-404 401v-1126h-182z" />
    <glyph glyph-name="arrowright" unicode="&#x2192;" horiz-adv-x="1630" 
d="M78 831h1122l-397 400l129 129l620 -621l-622 -622l-129 129l405 403h-1128v182z" />
    <glyph glyph-name="arrowdown" unicode="&#x2193;" horiz-adv-x="1630" 
d="M1436 580l-623 -621l-620 621l129 129l403 -402v1127h182v-1125l400 400z" />
    <glyph glyph-name="arrowNW" unicode="&#x2196;" horiz-adv-x="1630" 
d="M293 381v879h881v-183h-574l799 -796l-129 -129l-795 796v-567h-182z" />
    <glyph glyph-name="arrowNE" unicode="&#x2197;" horiz-adv-x="1630" 
d="M422 152l-129 129l799 796h-574v183h881v-879h-182v567z" />
    <glyph glyph-name="arrowSE" unicode="&#x2198;" horiz-adv-x="1630" 
d="M422 1260l795 -797v567h182v-878h-881v182h574l-799 796z" />
    <glyph glyph-name="arrowSW" unicode="&#x2199;" horiz-adv-x="1630" 
d="M293 1030h182v-567l795 797l129 -130l-799 -796h574v-182h-881v878z" />
    <glyph glyph-name="minus" unicode="&#x2212;" 
d="M1128 426h-1030v182h1030v-182z" />
    <glyph glyph-name="radical" unicode="&#x221a;" 
d="M272 827l236 -641l444 1248h199l-516 -1434h-254l-305 827h196z" />
    <glyph glyph-name="integral" unicode="&#x222b;" horiz-adv-x="808" 
d="M512 -127q0 -168 -105.5 -276.5t-277.5 -108.5q-168 0 -274 98l131 154q55 -62 139 -62q76 0 124 52t48 137v1284q0 168 105.5 276.5t277.5 108.5q168 0 274 -98l-131 -154q-55 62 -139 62q-76 0 -124 -52t-48 -137v-1284z" />
    <glyph glyph-name="approxequal" unicode="&#x2248;" 
d="M535 680q-27 20 -45 30.5t-46 20.5t-57 10q-104 0 -104 -127v-43h-183v62q0 128 76 205t197 77q54 0 110.5 -18.5t81 -32.5t88.5 -53l41 -25q27 -20 45 -30.5t47 -20.5t58 -10q104 0 104 125v43h180v-62q0 -128 -75 -205t-197 -77q-55 0 -110 18t-83.5 34.5t-87.5 53.5z
M535 276q-28 20 -45 31t-46 21t-57 10q-104 0 -104 -125v-43h-183v59q0 128 76 206.5t197 78.5q19 0 37 -1.5t36.5 -6.5t32 -8t32.5 -12t28.5 -12.5t30 -15.5t27 -15.5t29.5 -17.5t27 -17l41 -25q27 -20 45 -30.5t47 -20.5t58 -10q50 0 77 32.5t27 94.5v43h180v-62
q0 -128 -75 -205.5t-197 -77.5q-39 0 -73.5 6.5t-73.5 24.5t-55 27t-62 37q-11 7 -17 10z" />
    <glyph glyph-name="notequal" unicode="&#x2260;" 
d="M1128 207h-663l-166 -207h-201l166 207h-166v182h314l204 254h-518v182h666l166 207h198l-165 -207h165v-182h-313l-203 -254h516v-182z" />
    <glyph glyph-name="lessequal" unicode="&#x2264;" 
d="M1128 233l-1030 412v209l1030 412v-197l-823 -319l823 -320v-197zM1128 0h-1030v182h1030v-182z" />
    <glyph glyph-name="greaterequal" unicode="&#x2265;" 
d="M98 430l824 320l-824 319v197l1030 -412v-209l-1030 -412v197zM98 0v182h1030v-182h-1030z" />
    <glyph glyph-name="lozenge" unicode="&#x25ca;" 
d="M508 0l-363 717l363 717h211l362 -717l-362 -717h-211zM338 717l276 -547l275 547l-275 547z" />
    <glyph glyph-name="circledotted" unicode="&#x25cc;" horiz-adv-x="1236" 
d="M618 -20q-145 0 -268.5 72t-195.5 195.5t-72 268.5t72 269t195.5 196t268.5 72q109 0 208 -43t171 -115t115 -171t43 -208q0 -145 -72 -268.5t-196 -195.5t-269 -72zM618 1032q-140 0 -259 -69t-188 -188t-69 -259t69 -259t188 -188t259 -69t259 69t188.5 188t69.5 259
t-69.5 259t-188.5 188t-259 69z" />
    <glyph glyph-name="Ccedilla.1" horiz-adv-x="1536" 
d="M854 180q131 0 238.5 58.5t177.5 158.5l188 -145q-95 -125 -235 -202t-310 -89l-73 -84q89 0 152 -52t63 -130q0 -89 -69 -148t-175 -59q-140 0 -219 70l78 110q56 -53 131 -53q41 0 66.5 21t25.5 57t-26.5 56t-71.5 20t-82 -21l-72 86l104 131q-143 19 -264.5 86
t-205 167.5t-130.5 229.5t-47 269q0 153 55.5 291.5t153 241.5t240 164t307.5 61q190 0 345.5 -78.5t258.5 -214.5l-188 -146q-70 100 -177.5 158.5t-238.5 58.5q-147 0 -265 -71.5t-183.5 -194t-65.5 -270.5q0 -228 146 -382.5t368 -154.5z" />
    <glyph glyph-name="Q.1" horiz-adv-x="1708" 
d="M1454 -252l-276 279q-152 -68 -324 -68q-165 0 -307.5 61t-240 164t-153 241.5t-55.5 291.5t55.5 291.5t153 241.5t240 164t307.5 61q164 0 306.5 -61t240.5 -164t153.5 -241.5t55.5 -291.5q0 -161 -61.5 -305.5t-172.5 -249.5l422 -414h-344zM854 180q146 0 264 71.5
t183 194.5t65 271q0 228 -145 382t-367 154q-147 0 -265 -71.5t-183.5 -194t-65.5 -270.5q0 -228 146 -382.5t368 -154.5z" />
    <glyph glyph-name="Q.2" horiz-adv-x="1708" 
d="M1667 -68q305 -235 588 -235q132 0 239 39v-207q-90 -41 -247 -41q-381 0 -742 283l-327 256q-152 -68 -324 -68q-165 0 -307.5 61t-240 164t-153 241.5t-55.5 291.5t55.5 291.5t153 241.5t240 164t307.5 61q164 0 306.5 -61t240.5 -164t153.5 -241.5t55.5 -291.5
q0 -163 -62.5 -308.5t-175.5 -252.5zM854 180q146 0 264 71.5t183 194.5t65 271q0 228 -145 382t-367 154q-147 0 -265 -71.5t-183.5 -194t-65.5 -270.5q0 -228 146 -382.5t368 -154.5z" />
    <glyph glyph-name="Scedilla.1" horiz-adv-x="1204" 
d="M102 199l172 157q141 -186 336 -186q103 0 162 55t59 146q0 58 -37 104.5t-96 80t-130 66t-142.5 72.5t-130.5 88.5t-96 124t-37 170.5q0 165 123 281.5t313 116.5q287 0 475 -238l-174 -154q-134 183 -299 183q-89 0 -144 -52t-55 -131q0 -46 23 -84t61.5 -67t89 -55.5
t106 -52.5t111 -54.5t106 -66t89 -82t61.5 -108t23 -138.5q-3 -155 -96 -263t-242 -141l-184 -299h-213l182 293q-244 28 -416 234z" />
    <glyph glyph-name="germandbls.cap" horiz-adv-x="2381" 
d="M102 199l172 157q141 -186 336 -186q103 0 162 55t59 146q0 58 -37 104.5t-96 80t-130 66t-142.5 72.5t-130.5 88.5t-96 124t-37 170.5q0 165 123 281.5t313 116.5q287 0 475 -238l-174 -154q-134 183 -299 183q-89 0 -144 -52t-55 -131q0 -46 23 -84t61.5 -67t89 -55.5
t106 -52.5t111 -54.5t106 -66t89 -82t61.5 -108t23 -138.5q-3 -186 -132.5 -301t-324.5 -115q-314 0 -512 240zM1280 199l172 157q141 -186 336 -186q103 0 162 55t59 146q0 58 -37 104.5t-96 80t-130.5 66t-143 72.5t-130.5 88.5t-96 124t-37 170.5q0 165 123.5 281.5
t313.5 116.5q287 0 475 -238l-174 -154q-134 183 -299 183q-89 0 -144 -52t-55 -131q0 -46 23 -84t61.5 -67t89 -55.5t106 -52.5t111 -54.5t106 -66t89 -82t61.5 -108t23 -138.5q-3 -186 -132.5 -301t-324.5 -115q-314 0 -512 240z" />
    <glyph glyph-name="Tcedilla.1" horiz-adv-x="1294" 
d="M68 1219v215h1157v-215h-461v-1180h20l-20 -33v-6h-4l-201 -328h-213l203 328h-21v1219h-460z" />
    <glyph glyph-name="ccedilla.1" horiz-adv-x="1138" 
d="M655 158q84 0 153.5 38t113.5 103l168 -131q-132 -178 -365 -205l-178 -291h-213l186 301q-197 40 -313.5 192t-116.5 351q0 151 67.5 277t197.5 203t298 77q138 0 251.5 -55.5t185.5 -153.5l-168 -131q-44 65 -113.5 103t-155.5 38q-148 0 -245 -102.5t-97 -255.5
q0 -154 97 -256t247 -102z" />
    <glyph glyph-name="i.trk" horiz-adv-x="555" 
d="M279 1262q-59 0 -101.5 42.5t-42.5 100.5t42.5 100.5t101.5 42.5t101 -42t42 -101t-42 -101t-101 -42zM172 0v1032h211v-1032h-211z" />
    <glyph glyph-name="scedilla.1" horiz-adv-x="919" 
d="M70 145l145 129q110 -139 252 -139q73 0 114.5 37.5t41.5 97.5q0 42 -27.5 73.5t-71 52.5t-96.5 41t-106 46.5t-96.5 61t-71 92.5t-27.5 133q0 131 98 217t250 86q112 0 208.5 -48t154.5 -124l-146 -127q-88 123 -215 123q-69 0 -107 -32t-38 -87q0 -42 27.5 -73.5
t71 -53t96 -41.5t105.5 -46.5t96.5 -60.5t71 -90t27.5 -130q-1 -120 -71.5 -202.5t-182.5 -109.5l-184 -299h-213l184 297q-168 32 -290 176z" />
    <glyph glyph-name="tcedilla.1" horiz-adv-x="878" 
d="M231 356v482h-194v192h194v258h213v-258h342v-192h-342v-482q0 -99 48.5 -141.5t140.5 -42.5t153 23v-187q-48 -20 -110 -26l-191 -310h-213l199 320q-240 62 -240 364z" />
    <glyph glyph-name="y.1" horiz-adv-x="1134" 
d="M20 1032h234l317 -756l314 756h229l-645 -1544h-225l213 512z" />
    <glyph glyph-name="yacute.1" horiz-adv-x="1134" 
d="M676 1196h-205l213 340h234zM20 1032h234l317 -756l314 756h229l-645 -1544h-225l213 512z" />
    <glyph glyph-name="ycircumflex.1" horiz-adv-x="1134" 
d="M406 1196h-191l213 340h279l213 -340h-191l-162 240zM20 1032h234l317 -756l314 756h229l-645 -1544h-225l213 512z" />
    <glyph glyph-name="ydieresis.1" horiz-adv-x="1134" 
d="M356 1280q-56 0 -95.5 40t-39.5 95q0 54 40 93.5t95 39.5q54 0 93.5 -39.5t39.5 -93.5q0 -55 -39.5 -95t-93.5 -40zM780 1280q-56 0 -95.5 40t-39.5 95q0 54 40 93.5t95 39.5q54 0 93.5 -39.5t39.5 -93.5q0 -55 -39.5 -95t-93.5 -40zM20 1032h234l317 -756l314 756h229
l-645 -1544h-225l213 512z" />
    <glyph glyph-name="caron.slovak" horiz-adv-x="0" 
d="M86 1155h-180l172 381h223z" />
    <glyph glyph-name="cedilla.1" horiz-adv-x="0" 
d="M-57 39h211l-226 -367h-213z" />
    <glyph glyph-name="commaaccentbelow" horiz-adv-x="1230" 
d="M596 -504h-205l213 340h234z" />
    <glyph glyph-name="commaturnedabove" horiz-adv-x="1230" 
d="M635 1536h203l-211 -340h-236z" />
    <glyph glyph-name="grave.case" horiz-adv-x="0" 
d="M-102 1556l-265 277h250l232 -277h-217z" />
    <glyph glyph-name="acute.case" horiz-adv-x="0" 
d="M109 1556h-218l232 277h250z" />
    <glyph glyph-name="hungarumlaut.case" horiz-adv-x="0" 
d="M-109 1556h-217l232 277h250zM322 1556h-218l232 277h250z" />
    <glyph glyph-name="circumflex.case" horiz-adv-x="0" 
d="M-166 1556h-190l231 277h252l229 -277h-190l-166 173z" />
    <glyph glyph-name="caron.case" horiz-adv-x="0" 
d="M166 1833h190l-229 -277h-252l-231 277h190l166 -172z" />
    <glyph glyph-name="breve.case" horiz-adv-x="0" 
d="M0 1683q87 0 133 38.5t51 111.5h176q0 -142 -98 -219.5t-262 -77.5q-162 0 -259.5 77.5t-98.5 219.5h176q6 -73 52 -111.5t130 -38.5z" />
    <glyph glyph-name="ring.case" horiz-adv-x="0" 
d="M0 1516q-111 0 -184.5 59.5t-73.5 171.5t73.5 171.5t184.5 59.5q114 0 188 -59.5t74 -171.5t-74 -171.5t-188 -59.5zM0 1634q59 0 94 29.5t35 83.5t-35 83.5t-94 29.5q-57 0 -92 -29.5t-35 -83.5t35 -83.5t92 -29.5z" />
    <glyph glyph-name="tilde.case" horiz-adv-x="0" 
d="M-371 1556v80q0 99 57 158t150 59q41 0 79.5 -14t59 -28t60.5 -44l26 -22q5 -4 17.5 -15t17 -15t14.5 -10.5t16 -9t15 -5t19 -2.5q25 0 40 18t15 51v76h156v-80q0 -100 -57 -158.5t-150 -58.5q-42 0 -81 14.5t-58 27.5t-60 44l-26 23q-4 3 -15.5 13t-15 13t-12.5 10
t-14 9.5t-12.5 6t-14.5 4.5t-15 1q-55 0 -55 -70v-76h-156z" />
    <glyph glyph-name="dotaccent.case" horiz-adv-x="0" 
d="M0 1591q-53 0 -90 35.5t-37 87.5t37 88.5t90 36.5q51 0 88 -36.5t37 -88.5t-36.5 -87.5t-88.5 -35.5z" />
    <glyph glyph-name="dieresis.case" horiz-adv-x="0" 
d="M-209 1591q-53 0 -90 35.5t-37 87.5q0 51 37.5 88t89.5 37q50 0 87.5 -37t37.5 -88q0 -52 -37.5 -87.5t-87.5 -35.5zM209 1591q-52 0 -88.5 35.5t-36.5 87.5t37 88.5t88 36.5q53 0 90 -36.5t37 -88.5t-37 -87.5t-90 -35.5z" />
    <glyph glyph-name="macron.case" horiz-adv-x="0" 
d="M-336 1634v158h672v-158h-672z" />
    <glyph glyph-name="exclamdown.case" horiz-adv-x="647" 
d="M324 1458q62 0 106.5 -45t44.5 -108q0 -61 -44.5 -105.5t-106.5 -44.5q-63 0 -107.5 44t-44.5 106q0 63 44.5 108t107.5 45zM403 997l41 -997h-241l41 997h159z" />
    <glyph glyph-name="questiondown.case" horiz-adv-x="1050" 
d="M606 1466q63 0 108.5 -45t45.5 -108q0 -61 -45.5 -105.5t-108.5 -44.5q-62 0 -106.5 44.5t-44.5 105.5q0 63 44.5 108t106.5 45zM688 1006l27 -322q-212 -24 -318 -92.5t-106 -202.5q0 -96 65 -159.5t164 -63.5q87 0 151 41.5t128 132.5l184 -113q-176 -260 -471 -260
q-122 0 -224.5 52.5t-164.5 150t-62 219.5q0 180 124 296t331 151l14 170h158z" />
    <glyph glyph-name="hyphen.case" horiz-adv-x="634" 
d="M41 819h553v-205h-553v205z" />
    <glyph glyph-name="guilsinglleft.case" horiz-adv-x="681" 
d="M588 307h-230l-266 404l266 415h230l-264 -413z" />
    <glyph glyph-name="guilsinglright.case" horiz-adv-x="681" 
d="M94 1126h228l266 -403l-266 -416h-228l264 416z" />
    <glyph glyph-name="guillemetleft.case" horiz-adv-x="1116" 
d="M588 307h-230l-266 404l266 415h230l-264 -413zM1022 307h-229l-267 404l267 415h229l-264 -413z" />
    <glyph glyph-name="guillemetright.case" horiz-adv-x="1116" 
d="M94 1126h228l266 -403l-266 -416h-228l264 416zM528 1126h228l266 -403l-266 -416h-228l265 416z" />
    <glyph glyph-name="parenleft.case" horiz-adv-x="696" 
d="M305 719q0 -509 342 -848l-153 -127q-191 176 -295.5 424.5t-104.5 550.5q0 299 108 547.5t292 423.5l153 -127q-342 -339 -342 -844z" />
    <glyph glyph-name="parenright.case" horiz-adv-x="696" 
d="M389 715q0 512 -342 848l154 127q188 -174 293.5 -423t105.5 -552q0 -301 -106 -549.5t-293 -421.5l-154 127q342 336 342 844z" />
    <glyph glyph-name="braceleft.case" horiz-adv-x="649" 
d="M340 74q0 -65 38.5 -104.5t102.5 -39.5h135v-182h-137q-158 0 -248 89t-90 237q0 64 27.5 147t54.5 158.5t27 120.5q0 57 -24 92t-68 35h-131v184h131q45 0 68.5 34t23.5 93q0 45 -27 120t-54.5 157.5t-27.5 146.5q0 149 90 237.5t248 88.5h137v-183h-135
q-64 0 -102.5 -39t-38.5 -104q0 -49 28 -124t56.5 -156t28.5 -144q0 -146 -115 -219q115 -73 115 -219q0 -63 -28.5 -144.5t-56.5 -157t-28 -124.5z" />
    <glyph glyph-name="braceright.case" horiz-adv-x="649" 
d="M311 74q0 49 -27.5 124t-55 156t-27.5 144q0 148 112 219q-112 71 -112 219q0 63 27.5 144.5t55 157t27.5 124.5q0 65 -38.5 104t-102.5 39h-135v183h137q157 0 247.5 -88.5t90.5 -237.5q0 -64 -28 -147t-55.5 -158.5t-27.5 -120.5q0 -57 24.5 -92t70.5 -35h131v-184
h-131q-46 0 -70.5 -34t-24.5 -93q0 -45 27.5 -120t55.5 -157.5t28 -146.5q0 -148 -90.5 -237t-247.5 -89h-137v182h135q64 0 102.5 39.5t38.5 104.5z" />
    <glyph glyph-name="bracketleft.case" horiz-adv-x="649" 
d="M141 1688h475v-183h-276v-1575h276v-182h-475v1940z" />
    <glyph glyph-name="bracketright.case" horiz-adv-x="649" 
d="M510 -252h-475v182h274v1575h-274v183h475v-1940z" />
    <glyph glyph-name="endash.case" horiz-adv-x="1105" 
d="M43 807h1020v-182h-1020v182z" />
    <glyph glyph-name="emdash.case" horiz-adv-x="2211" 
d="M43 807h2126v-182h-2126v182z" />
    <glyph glyph-name="bullet.case" horiz-adv-x="784" 
d="M395 432q-124 0 -211.5 85t-87.5 204q0 117 87 198.5t212 81.5q124 0 208.5 -81.5t84.5 -198.5q0 -119 -85 -204t-208 -85z" />
    <glyph glyph-name="periodcentered.case" horiz-adv-x="555" 
d="M279 565q-63 0 -108.5 45.5t-45.5 108.5q0 60 45.5 104.5t108.5 44.5q61 0 106 -44.5t45 -104.5q0 -63 -44.5 -108.5t-106.5 -45.5z" />
    <glyph glyph-name="at.case" horiz-adv-x="1712" 
d="M471 715q0 155 96.5 262.5t253.5 107.5q130 0 226 -90v64h165v-471q0 -50 25 -77.5t66 -27.5q73 0 120 86.5t47 225.5q0 113 -45.5 214t-124.5 174.5t-191.5 116.5t-240.5 43q-178 0 -321.5 -85t-222 -228t-78.5 -313q0 -171 78.5 -314.5t222 -229t321.5 -85.5
q136 0 245 39t220 135l80 -121q-122 -96 -253 -139t-294 -43q-168 0 -313.5 61t-244.5 164t-155.5 241.5t-56.5 291.5t56.5 291.5t155.5 241.5t244.5 164t313.5 61q163 0 304 -54t238 -146t152.5 -216.5t55.5 -263.5q0 -196 -89 -322.5t-237 -126.5q-76 0 -131 30.5
t-84 84.5q-98 -115 -254 -115q-157 0 -253.5 107t-96.5 262zM651 715q0 -92 55.5 -152.5t145.5 -60.5q117 0 195 116v189q-78 121 -195 121q-90 0 -145.5 -60.5t-55.5 -152.5z" />
    <glyph glyph-name="dollar.lt" horiz-adv-x="1226" 
d="M94 227l154 142q124 -142 282 -172v458q-64 24 -109 44.5t-97.5 55.5t-84.5 74t-53.5 97t-21.5 129q0 142 101 247t265 128v147h183v-147q243 -34 391 -218l-152 -137q-96 131 -239 162v-428q46 -17 80 -31t76 -35.5t71.5 -43.5t60 -53t49.5 -66t30.5 -80.5t11.5 -98.5
q-1 -158 -106 -264t-273 -131v-149h-183v147q-270 26 -436 223zM373 1061q0 -63 40.5 -105.5t116.5 -76.5v362q-78 -17 -117.5 -64t-39.5 -116zM885 397q0 67 -44.5 111t-127.5 80v-389q84 18 128 70.5t44 127.5z" />
    <glyph glyph-name="Euro.lt" 
d="M43 463v178h168q-2 25 -2 78q0 46 2 69h-168v181h184q41 254 173.5 381t347.5 127q265 0 426 -209l-170 -131q-96 141 -252 141q-118 0 -191.5 -72t-103.5 -237h540v-181h-557q-2 -23 -2 -69q0 -53 2 -78h557v-178h-538q29 -163 103 -234t190 -71q156 0 252 139l170 -129
q-155 -209 -426 -209q-213 0 -345.5 126.5t-173.5 377.5h-186z" />
    <glyph glyph-name="cent.lt" 
d="M569 1434h183v-170q114 -12 208.5 -66t159.5 -139l-172 -131q-72 109 -196 133v-701q126 27 196 134l172 -132q-64 -85 -158.5 -138.5t-209.5 -65.5v-158h-183v164q-206 36 -328 189.5t-122 357.5t122 357t328 189v177zM340 711q0 -121 62 -212t167 -126v676
q-105 -35 -167 -126t-62 -212z" />
    <glyph glyph-name="sterling.lt" 
d="M139 0v203l170 153q76 68 103.5 112.5t27.5 109.5q0 22 -6 43h-295v178h197q-36 52 -55.5 85.5t-38 89.5t-17.5 111q0 169 118 279.5t304 110.5q146 0 245.5 -58.5t172.5 -171.5l-170 -129q-90 156 -236 156q-93 0 -151.5 -55.5t-58.5 -147.5q0 -26 5.5 -53t11 -45.5
t22 -47.5t23.5 -40t30 -44t28 -40h439v-178h-363q4 -28 4 -46q-1 -92 -41 -164.5t-137 -160.5l-55 -47h694v-203h-971z" />
    <glyph glyph-name="yen.lt" 
d="M119 463v178h383v147h-383v181h243l-303 465h263l294 -457l295 457h258l-301 -465h242v-181h-383v-147h383v-178h-383v-463h-225v463h-383z" />
    <glyph glyph-name="zero.lt" 
d="M614 1475q134 0 239 -58t170.5 -161t99.5 -239.5t34 -299.5t-34 -299.5t-99.5 -239.5t-170.5 -161t-239 -58t-239 58t-171 161t-100 239.5t-34 299.5t34 299.5t100 239.5t171 161t239 58zM614 1266q-152 0 -232.5 -150.5t-80.5 -398.5q0 -250 80.5 -399.5t232.5 -149.5
q101 0 172.5 71.5t105.5 193.5t34 284q0 249 -80.5 399t-231.5 150z" />
    <glyph glyph-name="one.lt" 
d="M113 0v203h417v1003l-350 -190l-112 160l467 260h221v-1233h366v-203h-1009z" />
    <glyph glyph-name="two.lt" 
d="M131 0v203l487 493q124 127 171 198.5t47 164.5q0 100 -64.5 157.5t-165.5 57.5q-104 0 -178.5 -53.5t-138.5 -159.5l-185 113q193 301 523 301q187 0 312.5 -110.5t125.5 -287.5q0 -70 -20.5 -136t-64.5 -130.5t-88 -115.5t-114 -122l-375 -370h701v-203h-973z" />
    <glyph glyph-name="three.lt" 
d="M1118 401q0 -197 -144 -319.5t-366 -122.5q-189 0 -320 76.5t-220 228.5l196 121q63 -118 145 -171.5t197 -53.5q124 0 203.5 68t79.5 184q0 113 -77 180t-206 67h-239v201h215q109 0 175 58t66 153t-63 149t-164 54q-177 0 -279 -178l-184 112q165 267 477 267
q194 0 319.5 -105t125.5 -276q0 -102 -45.5 -186t-132.5 -136q116 -54 178.5 -151t62.5 -220z" />
    <glyph glyph-name="four.lt" 
d="M78 399v203l649 832h266v-832h158v-203h-158v-399h-223v399h-692zM313 602h457v584z" />
    <glyph glyph-name="five.lt" 
d="M201 662l41 772h819v-203h-604l-21 -369h164q252 0 386 -121.5t134 -332.5q0 -200 -144.5 -324.5t-365.5 -124.5q-364 0 -540 305l196 121q64 -117 147 -171t197 -54q124 0 202.5 68t78.5 184t-79 183t-222 67h-389z" />
    <glyph glyph-name="six.lt" 
d="M688 1475q299 0 467 -240l-172 -137q-60 87 -129 129.5t-162 42.5q-170 0 -269 -133.5t-110 -376.5q151 145 375 145q135 0 240.5 -61.5t162 -165.5t56.5 -232q0 -100 -35 -188t-99.5 -154.5t-164 -105.5t-219.5 -39q-265 0 -407 189t-142 552q0 173 38 314t112 244.5
t190.5 160t267.5 56.5zM651 705q-213 0 -332 -168q46 -373 318 -373q128 0 203 77t75 197q0 115 -74.5 191t-189.5 76z" />
    <glyph glyph-name="seven.lt" 
d="M422 0h-258l741 1231h-772v203h1012v-203z" />
    <glyph glyph-name="eight.lt" 
d="M614 1475q218 0 342.5 -109.5t124.5 -271.5q0 -104 -51.5 -185.5t-148.5 -126.5q129 -51 197.5 -150t68.5 -233q0 -193 -142 -316.5t-391 -123.5q-247 0 -389.5 123.5t-142.5 316.5q0 134 69 233t199 150q-99 45 -151 126.5t-52 185.5q0 161 125 271t342 110zM618 866
q103 0 167.5 57t64.5 150q0 92 -64.5 149.5t-167.5 57.5q-109 0 -174 -57t-65 -150q0 -94 65 -150.5t174 -56.5zM616 156q135 0 217 70t82 184q0 118 -82.5 191t-216.5 73q-137 0 -220 -73t-83 -191q0 -116 82.5 -185t220.5 -69z" />
    <glyph glyph-name="nine.lt" 
d="M535 -41q-297 0 -465 240l172 137q60 -88 128.5 -130t161.5 -42q170 0 269 133.5t110 376.5q-152 -146 -374 -146q-135 0 -240.5 61.5t-162 165.5t-56.5 232q0 134 59.5 243.5t178.5 177t278 67.5q266 0 408.5 -189.5t142.5 -552.5q0 -173 -38 -314t-112 -244
t-191 -159.5t-269 -56.5zM309 995q0 -115 74 -190.5t190 -75.5q213 0 332 168q-46 373 -319 373q-126 0 -201.5 -77.5t-75.5 -197.5z" />
    <glyph glyph-name="dollar.ot" horiz-adv-x="1232" 
d="M115 207l133 145q124 -124 291 -159v292q-59 13 -103.5 26.5t-93.5 38t-80.5 55.5t-52.5 79t-21 107q0 128 92 221t259 110v133h180v-141q112 -20 210 -69.5t156 -112.5l-131 -144q-94 104 -235 142v-275q61 -14 106 -28.5t95 -40.5t81.5 -58.5t52.5 -82.5t21 -113
q-3 -137 -98.5 -226.5t-257.5 -101.5v-133h-180v141q-123 17 -234 68t-190 127zM393 807q0 -46 37.5 -72t108.5 -43v248q-71 -12 -108.5 -48.5t-37.5 -84.5zM868 317q0 51 -37.5 79.5t-111.5 49.5v-264q70 10 109.5 46t39.5 89z" />
    <glyph glyph-name="Euro.ot" horiz-adv-x="1232" 
d="M39 330v178h137q-2 16 -2 53q0 33 2 47h-137v178h168q54 177 189.5 278t334.5 101q135 0 249 -51.5t183 -134.5l-159 -129q-97 115 -275 115q-98 0 -173 -46.5t-116 -132.5h559v-178h-602q-2 -14 -2 -47q0 -37 2 -53h602v-178h-555q41 -83 115.5 -126.5t173.5 -43.5
q172 0 271 114l159 -127q-69 -85 -182 -136.5t-250 -51.5q-196 0 -331.5 99.5t-190.5 271.5h-170z" />
    <glyph glyph-name="cent.ot" 
d="M571 1264h181v-144q235 -24 370 -205l-170 -129q-74 109 -200 132v-711q127 24 200 131l170 -129q-65 -87 -159 -141t-211 -64v-147h-181v153q-209 36 -333.5 191t-124.5 360q0 206 124.5 361.5t333.5 191.5v150zM334 561q0 -122 64 -214.5t173 -127.5v686
q-107 -34 -172 -127.5t-65 -216.5z" />
    <glyph glyph-name="sterling.ot" horiz-adv-x="1232" 
d="M135 0v201h2l146 100q78 55 106.5 86t28.5 68v14h-281v178h156q-68 90 -68 191q0 142 116.5 234.5t297.5 92.5q315 -3 481 -264l-182 -113q-59 89 -125.5 134t-157.5 45q-92 0 -147 -45t-55 -117q0 -43 20.5 -78.5t58.5 -79.5h482v-178h-379v-16q0 -70 -38 -121.5
t-136 -118.5l-19 -12h672v-201h-979z" />
    <glyph glyph-name="yen.ot" horiz-adv-x="1232" 
d="M119 330v178h387v100h-387v178h229l-270 340h262l274 -340h9l272 340h260l-270 -340h229v-178h-385v-100h385v-178h-385v-330h-223v330h-387z" />
    <glyph glyph-name="zero.ot" 
d="M614 1167q171 0 300.5 -83t195.5 -219t66 -302q0 -165 -66 -301t-195.5 -219.5t-300.5 -83.5q-129 0 -236 48.5t-177.5 131.5t-109 192t-38.5 232q0 98 24 188.5t72 166t115 131.5t157 87t193 31zM614 168q147 0 238.5 111t91.5 284q0 174 -91.5 284.5t-238.5 110.5
q-148 0 -239.5 -110.5t-91.5 -284.5q0 -173 91.5 -284t239.5 -111z" />
    <glyph glyph-name="one.ot" 
d="M154 0v203h389v690l-322 -184l-112 159l438 258h221v-923h336v-203h-950z" />
    <glyph glyph-name="two.ot" 
d="M158 0v203l442 325q119 93 147 123q63 72 66 148q0 78 -59.5 123t-155.5 45q-94 0 -162 -45t-125 -134l-184 113q170 266 473 266q197 0 319.5 -97t122.5 -255q0 -68 -17 -122.5t-59 -106.5t-93 -96t-136 -107l-254 -180h607v-203h-932z" />
    <glyph glyph-name="three.ot" 
d="M1118 94q0 -197 -144 -319.5t-366 -122.5q-189 0 -320 76.5t-220 228.5l196 121q63 -118 145 -171.5t197 -53.5q124 0 203.5 67.5t79.5 183.5q0 113 -77 180.5t-206 67.5h-239v201h215q109 0 175 58t66 153t-63 149t-164 54q-176 0 -279 -179l-184 113q165 266 477 266
q194 0 319.5 -105t125.5 -276q0 -102 -45.5 -185.5t-132.5 -135.5q116 -54 178.5 -151t62.5 -220z" />
    <glyph glyph-name="four.ot" 
d="M78 92v203l649 831h266v-831h158v-203h-158v-399h-223v399h-692zM313 295h457v584z" />
    <glyph glyph-name="five.ot" 
d="M201 354l41 772h819v-202h-604l-21 -369h164q252 0 386 -122t134 -333q0 -200 -144.5 -324t-365.5 -124q-364 0 -540 305l196 121q64 -117 147 -171t197 -54q124 0 202.5 67.5t78.5 183.5t-79 183t-222 67h-389z" />
    <glyph glyph-name="six.ot" 
d="M688 1475q299 0 467 -240l-172 -137q-60 87 -129 129.5t-162 42.5q-170 0 -269 -133.5t-110 -376.5q151 145 375 145q135 0 240.5 -61.5t162 -165.5t56.5 -232q0 -100 -35 -188t-99.5 -154.5t-164 -105.5t-219.5 -39q-265 0 -407 189t-142 552q0 173 38 314t112 244.5
t190.5 160t267.5 56.5zM651 705q-213 0 -332 -168q46 -373 318 -373q128 0 203 77t75 197q0 115 -74.5 191t-189.5 76z" />
    <glyph glyph-name="seven.ot" 
d="M422 -307h-258l741 1231h-772v202h1012v-202z" />
    <glyph glyph-name="eight.ot" 
d="M614 1475q218 0 342.5 -109.5t124.5 -271.5q0 -104 -51.5 -185.5t-148.5 -126.5q129 -51 197.5 -150t68.5 -233q0 -193 -142 -316.5t-391 -123.5q-247 0 -389.5 123.5t-142.5 316.5q0 134 69 233t199 150q-99 45 -151 126.5t-52 185.5q0 161 125 271t342 110zM618 866
q103 0 167.5 57t64.5 150q0 92 -64.5 149.5t-167.5 57.5q-109 0 -174 -57t-65 -150q0 -94 65 -150.5t174 -56.5zM616 156q135 0 217 70t82 184q0 118 -82.5 191t-216.5 73q-137 0 -220 -73t-83 -191q0 -116 82.5 -185t220.5 -69z" />
    <glyph glyph-name="nine.ot" 
d="M535 -348q-298 0 -465 239l172 138q60 -88 128.5 -130t161.5 -42q170 0 269 133.5t110 376.5q-152 -146 -374 -146q-135 0 -240.5 61.5t-162 165.5t-56.5 232q0 99 35 187.5t99.5 155t163 105.5t218.5 39q266 0 408.5 -189t142.5 -552q0 -173 -38 -314t-112 -244
t-191 -159.5t-269 -56.5zM309 688q0 -115 74 -190.5t190 -75.5q213 0 332 168q-46 373 -319 373q-126 0 -201.5 -77.5t-75.5 -197.5z" />
    <glyph glyph-name="Euro.op" 
d="M39 330v178h137q-2 16 -2 53q0 33 2 47h-137v178h168q54 177 189.5 278t334.5 101q135 0 249 -51.5t183 -134.5l-159 -129q-97 115 -275 115q-98 0 -173 -46.5t-116 -132.5h559v-178h-602q-2 -14 -2 -47q0 -37 2 -53h602v-178h-555q41 -83 115.5 -126.5t173.5 -43.5
q172 0 271 114l159 -127q-69 -85 -182 -136.5t-250 -51.5q-196 0 -331.5 99.5t-190.5 271.5h-170z" />
    <glyph glyph-name="dollar.op" horiz-adv-x="1230" 
d="M115 207l133 145q124 -124 291 -159v292q-59 13 -103.5 26.5t-93.5 38t-80.5 55.5t-52.5 79t-21 107q0 128 92 221t259 110v133h180v-141q112 -20 210 -69.5t156 -112.5l-131 -144q-94 104 -235 142v-275q61 -14 106 -28.5t95 -40.5t81.5 -58.5t52.5 -82.5t21 -113
q-3 -137 -98.5 -226.5t-257.5 -101.5v-133h-180v141q-123 17 -234 68t-190 127zM393 807q0 -46 37.5 -72t108.5 -43v248q-71 -12 -108.5 -48.5t-37.5 -84.5zM868 317q0 51 -37.5 79.5t-111.5 49.5v-264q70 10 109.5 46t39.5 89z" />
    <glyph glyph-name="cent.op" 
d="M571 1264h181v-144q235 -24 370 -205l-170 -129q-74 109 -200 132v-711q127 24 200 131l170 -129q-65 -87 -159 -141t-211 -64v-147h-181v153q-209 36 -333.5 191t-124.5 360q0 206 124.5 361.5t333.5 191.5v150zM334 561q0 -122 64 -214.5t173 -127.5v686
q-107 -34 -172 -127.5t-65 -216.5z" />
    <glyph glyph-name="sterling.op" horiz-adv-x="1232" 
d="M135 0v201h2l146 100q78 55 106.5 86t28.5 68v14h-281v178h156q-68 90 -68 191q0 142 116.5 234.5t297.5 92.5q315 -3 481 -264l-182 -113q-59 89 -125.5 134t-157.5 45q-92 0 -147 -45t-55 -117q0 -43 20.5 -78.5t58.5 -79.5h482v-178h-379v-16q0 -70 -38 -121.5
t-136 -118.5l-19 -12h672v-201h-979z" />
    <glyph glyph-name="yen.op" 
d="M119 330v178h387v100h-387v178h229l-270 340h262l274 -340h9l272 340h260l-270 -340h229v-178h-385v-100h385v-178h-385v-330h-223v330h-387z" />
    <glyph glyph-name="zero.op" horiz-adv-x="1230" 
d="M614 1167q171 0 300.5 -83t195.5 -219t66 -302q0 -165 -66 -301t-195.5 -219.5t-300.5 -83.5q-129 0 -236 48.5t-177.5 131.5t-109 192t-38.5 232q0 98 24 188.5t72 166t115 131.5t157 87t193 31zM614 168q147 0 238.5 111t91.5 284q0 174 -91.5 284.5t-238.5 110.5
q-148 0 -239.5 -110.5t-91.5 -284.5q0 -173 91.5 -284t239.5 -111z" />
    <glyph glyph-name="one.op" horiz-adv-x="946" 
d="M465 0v897l-326 -180l-112 160l442 249h219v-1126h-223z" />
    <glyph glyph-name="two.op" 
d="M158 0v203l442 325q119 93 147 123q63 72 66 148q0 78 -59.5 123t-155.5 45q-94 0 -162 -45t-125 -134l-184 113q170 266 473 266q197 0 319.5 -97t122.5 -255q0 -68 -17 -122.5t-59 -106.5t-93 -96t-136 -107l-254 -180h607v-203h-932z" />
    <glyph glyph-name="three.op" 
d="M1118 94q0 -197 -144 -319.5t-366 -122.5q-189 0 -320 76.5t-220 228.5l196 121q63 -118 145 -171.5t197 -53.5q124 0 203.5 67.5t79.5 183.5q0 113 -77 180.5t-206 67.5h-239v201h215q109 0 175 58t66 153t-63 149t-164 54q-176 0 -279 -179l-184 113q165 266 477 266
q194 0 319.5 -105t125.5 -276q0 -102 -45.5 -185.5t-132.5 -135.5q116 -54 178.5 -151t62.5 -220z" />
    <glyph glyph-name="four.op" 
d="M78 92v203l649 831h266v-831h158v-203h-158v-399h-223v399h-692zM313 295h457v584z" />
    <glyph glyph-name="five.op" 
d="M201 354l41 772h819v-202h-604l-21 -369h164q252 0 386 -122t134 -333q0 -200 -144.5 -324t-365.5 -124q-364 0 -540 305l196 121q64 -117 147 -171t197 -54q124 0 202.5 67.5t78.5 183.5t-79 183t-222 67h-389z" />
    <glyph glyph-name="six.op" 
d="M688 1475q299 0 467 -240l-172 -137q-60 87 -129 129.5t-162 42.5q-170 0 -269 -133.5t-110 -376.5q151 145 375 145q135 0 240.5 -61.5t162 -165.5t56.5 -232q0 -100 -35 -188t-99.5 -154.5t-164 -105.5t-219.5 -39q-265 0 -407 189t-142 552q0 173 38 314t112 244.5
t190.5 160t267.5 56.5zM651 705q-213 0 -332 -168q46 -373 318 -373q128 0 203 77t75 197q0 115 -74.5 191t-189.5 76z" />
    <glyph glyph-name="seven.op" 
d="M422 -307h-258l741 1231h-772v202h1012v-202z" />
    <glyph glyph-name="eight.op" 
d="M614 1475q218 0 342.5 -109.5t124.5 -271.5q0 -104 -51.5 -185.5t-148.5 -126.5q129 -51 197.5 -150t68.5 -233q0 -193 -142 -316.5t-391 -123.5q-247 0 -389.5 123.5t-142.5 316.5q0 134 69 233t199 150q-99 45 -151 126.5t-52 185.5q0 161 125 271t342 110zM618 866
q103 0 167.5 57t64.5 150q0 92 -64.5 149.5t-167.5 57.5q-109 0 -174 -57t-65 -150q0 -94 65 -150.5t174 -56.5zM616 156q135 0 217 70t82 184q0 118 -82.5 191t-216.5 73q-137 0 -220 -73t-83 -191q0 -116 82.5 -185t220.5 -69z" />
    <glyph glyph-name="nine.op" 
d="M535 -348q-298 0 -465 239l172 138q60 -88 128.5 -130t161.5 -42q170 0 269 133.5t110 376.5q-152 -146 -374 -146q-135 0 -240.5 61.5t-162 165.5t-56.5 232q0 99 35 187.5t99.5 155t163 105.5t218.5 39q266 0 408.5 -189t142.5 -552q0 -173 -38 -314t-112 -244
t-191 -159.5t-269 -56.5zM309 688q0 -115 74 -190.5t190 -75.5q213 0 332 168q-46 373 -319 373q-126 0 -201.5 -77.5t-75.5 -197.5z" />
    <glyph glyph-name="dollar.weight" horiz-adv-x="1226" 
d="M94 227l154 142q156 -181 370 -181q130 0 198.5 57t68.5 152q0 61 -40 105.5t-103.5 73t-140 54.5t-153.5 59t-140.5 76.5t-103.5 117.5t-40 172q0 142 101 247t265 128v147h183v-147q243 -34 391 -218l-152 -137q-62 85 -150 129.5t-186 44.5q-119 0 -181 -51t-62 -137
q0 -53 31 -94t81.5 -66.5t115 -51.5t132 -47.5t132 -56.5t115 -77.5t81.5 -111t31 -155.5q-1 -158 -106 -264t-273 -131v-149h-183v147q-270 26 -436 223z" />
    <glyph glyph-name="cent.weight" horiz-adv-x="1226" 
d="M684 362q84 0 152.5 38t111.5 102l172 -131q-65 -85 -159.5 -139t-208.5 -66v-166h-183v172q-206 36 -328 189.5t-122 357.5t122 357.5t328 189.5v168h183v-162q114 -12 208.5 -66t159.5 -139l-172 -131q-42 65 -110 102t-154 37q-150 0 -247 -101.5t-97 -254.5t97 -255
t247 -102z" />
    <glyph glyph-name="dollar.lt.weight" horiz-adv-x="1226" 
d="M94 227l154 142q156 -181 370 -181q130 0 198.5 57t68.5 152q0 61 -40 105.5t-103.5 73t-140 54.5t-153.5 59t-140.5 76.5t-103.5 117.5t-40 172q0 142 101 247t265 128v147h183v-147q243 -34 391 -218l-152 -137q-62 85 -150 129.5t-186 44.5q-119 0 -181 -51t-62 -137
q0 -53 31 -94t81.5 -66.5t115 -51.5t132 -47.5t132 -56.5t115 -77.5t81.5 -111t31 -155.5q-1 -158 -106 -264t-273 -131v-149h-183v147q-270 26 -436 223z" />
    <glyph glyph-name="cent.lt.weight" horiz-adv-x="1226" 
d="M684 362q84 0 152.5 38t111.5 102l172 -131q-65 -85 -159.5 -139t-208.5 -66v-166h-183v172q-206 36 -328 189.5t-122 357.5t122 357.5t328 189.5v168h183v-162q114 -12 208.5 -66t159.5 -139l-172 -131q-42 65 -110 102t-154 37q-150 0 -247 -101.5t-97 -254.5t97 -255
t247 -102z" />
    <glyph glyph-name="dollar.op.weight" horiz-adv-x="1232" 
d="M115 207l133 145q83 -83 190 -128.5t221 -45.5q97 0 153 37.5t56 101.5q0 27 -12.5 49t-32.5 36.5t-54 27t-66 20.5t-80 17q-173 35 -245 66q-183 77 -190 245v13q0 128 92 221t259 110v133h182v-141q113 -22 210.5 -71t153.5 -111l-131 -144q-63 69 -158.5 113.5
t-191.5 44.5q-102 0 -156.5 -40t-54.5 -99q0 -32 19 -55t55 -37t76.5 -23.5t94.5 -19.5q6 -1 8.5 -1.5t7 -1t8.5 -1.5q51 -11 85.5 -19t82 -23.5t78.5 -31.5t65.5 -41.5t54.5 -56t33.5 -72.5t13.5 -92q-3 -137 -97.5 -226t-256.5 -102v-133h-182v141q-123 17 -234 68
t-190 127z" />
    <glyph glyph-name="Euro.op.weight" 
d="M37 469v178h141q24 235 170 376.5t383 141.5q136 0 248 -55.5t184 -153.5l-170 -129q-43 64 -111 101t-153 37q-133 0 -220.5 -83.5t-107.5 -234.5h594v-178h-594q22 -148 109.5 -228.5t222.5 -80.5q82 0 149.5 37.5t110.5 101.5l170 -129q-72 -99 -183 -155t-249 -56
q-235 0 -380.5 139t-172.5 371h-141z" />
    <glyph glyph-name="cent.op.weight" horiz-adv-x="1232" 
d="M698 201q84 0 152 37t111 100l172 -129q-135 -181 -371 -205v-147h-182v153q-209 36 -333 191t-124 360q0 206 124 361.5t333 191.5v152h182v-146q236 -24 371 -205l-172 -129q-43 63 -112 100.5t-153 37.5q-154 0 -253 -104t-99 -259q0 -154 99.5 -257t254.5 -103z" />
    <glyph glyph-name="yen.op.weight" 
d="M115 469v178h307l-346 479h264l278 -405l277 405h260l-344 -479h303v-178h-385v-469h-223v469h-391z" />
    <glyph glyph-name="dollar.ot.weight" horiz-adv-x="1230" 
d="M113 207l133 145q83 -83 190 -128.5t221 -45.5q97 0 153 37.5t56 101.5q0 27 -12.5 49t-32.5 36.5t-54 27t-66 20.5t-80 17q-173 35 -245 66q-183 77 -190 245v13q0 128 92 221t259 110v133h182v-141q113 -22 210.5 -71t153.5 -111l-131 -144q-63 69 -158.5 113.5
t-191.5 44.5q-102 0 -156.5 -40t-54.5 -99q0 -32 18 -54.5t56 -37t75 -23.5t96 -20q15 -3 23 -4q51 -11 85.5 -19t82 -23.5t79 -31.5t66 -41.5t54.5 -56t33.5 -72.5t13.5 -92q-3 -137 -97.5 -226t-256.5 -102v-133h-182v141q-123 17 -234 68t-190 127z" />
    <glyph glyph-name="Euro.ot.weight" 
d="M35 469v178h141q24 235 170 376.5t383 141.5q136 0 248 -55.5t184 -153.5l-170 -129q-43 64 -111 101t-153 37q-133 0 -220.5 -83.5t-107.5 -234.5h594v-178h-594q22 -148 109.5 -228.5t222.5 -80.5q82 0 149.5 37.5t110.5 101.5l170 -129q-72 -99 -183 -155t-249 -56
q-235 0 -380.5 139t-172.5 371h-141z" />
    <glyph glyph-name="cent.ot.weight" horiz-adv-x="1232" 
d="M696 201q84 0 151.5 36.5t110.5 100.5l172 -129q-135 -181 -370 -205v-147h-182v153q-209 36 -333 191t-124 360q0 206 124 361.5t333 191.5v152h182v-146q235 -24 370 -205l-172 -129q-43 63 -111.5 100.5t-152.5 37.5q-154 0 -253 -104t-99 -259q0 -154 99.5 -257
t254.5 -103z" />
    <glyph glyph-name="yen.ot.weight" 
d="M113 469v178h307l-346 479h264l278 -405l277 405h260l-344 -479h303v-178h-385v-469h-223v469h-391z" />
    <glyph glyph-name="a.superior" horiz-adv-x="733" 
d="M287 805q-94 0 -151.5 51t-57.5 139q0 75 55.5 126.5t155.5 66.5l186 33v20q0 51 -33.5 82t-89.5 31q-89 0 -139 -76l-117 84q96 127 262 127q129 0 201 -70t72 -178v-412h-156v64q-29 -40 -80.5 -64t-107.5 -24zM229 999q0 -33 24 -53t66 -20q96 0 156 94v92l-145 -25
q-101 -16 -101 -88z" />
    <glyph glyph-name="b.superior" horiz-adv-x="866" 
d="M795 1147q0 -143 -88 -242.5t-234 -99.5q-121 0 -201 74v-50h-153v945h153v-359q80 74 201 74q146 0 234 -99.5t88 -242.5zM272 1049q71 -99 181 -99q81 0 131.5 55t50.5 142q0 86 -50.5 141t-131.5 55q-111 0 -181 -98v-196z" />
    <glyph glyph-name="c.superior" horiz-adv-x="753" 
d="M422 950q45 0 82.5 21t60.5 55l123 -94q-44 -60 -113 -93.5t-155 -33.5q-158 0 -253 99.5t-95 242.5t95 242.5t253 99.5q86 0 155 -34.5t113 -94.5l-123 -92q-51 75 -147 75q-80 0 -132.5 -55.5t-52.5 -140.5q0 -86 53 -141.5t136 -55.5z" />
    <glyph glyph-name="d.superior" horiz-adv-x="866" 
d="M72 1147q0 143 88.5 242.5t234.5 99.5q117 0 199 -72v357h156v-945h-156v48q-82 -72 -199 -72q-146 0 -234.5 99.5t-88.5 242.5zM233 1147q0 -87 50 -142t133 -55q110 0 178 97v200q-69 96 -178 96q-82 0 -132.5 -55t-50.5 -141z" />
    <glyph glyph-name="e.superior" horiz-adv-x="778" 
d="M700 932q-45 -60 -116.5 -93.5t-159.5 -33.5q-163 0 -257.5 99t-94.5 243q0 146 85.5 244t231.5 98q134 0 216.5 -80t82.5 -205q0 -56 -10 -86h-451q8 -82 60.5 -129t138.5 -47q111 0 162 78zM393 1360q-125 0 -155 -127h297q-2 54 -39.5 90.5t-102.5 36.5z" />
    <glyph glyph-name="egrave.superior" horiz-adv-x="778" 
d="M322 1565l-152 209h170l129 -209h-147zM700 932q-45 -60 -116.5 -93.5t-159.5 -33.5q-163 0 -257.5 99t-94.5 243q0 146 87 244t236 98q132 0 212.5 -79.5t80.5 -205.5q0 -56 -10 -86h-445q6 -82 58 -129t135 -47q111 0 162 78zM397 1360q-123 0 -153 -127h291
q-2 54 -38.5 90.5t-99.5 36.5z" />
    <glyph glyph-name="f.superior" horiz-adv-x="548" 
d="M39 1464h119v66q0 106 66 175t179 69q106 0 172 -60l-96 -112q-26 32 -73 32q-40 0 -66.5 -27.5t-26.5 -70.5v-72h199v-141h-199v-494h-155v494h-119v141z" />
    <glyph glyph-name="g.superior" horiz-adv-x="761" 
d="M74 711q0 92 96 157q-49 42 -49 97q0 74 74 125q-89 64 -89 176q0 95 68.5 159t183.5 64q70 0 125 -25h236v-131h-115q10 -33 10 -67q0 -97 -69 -160.5t-187 -63.5q-28 0 -63 7q-21 -21 -21 -39q0 -43 48 -43h155q116 0 181 -55.5t65 -143.5q0 -113 -92.5 -183.5
t-245.5 -70.5q-146 0 -228.5 51.5t-82.5 145.5zM360 1159q51 0 83 31t32 76t-31.5 74.5t-83.5 29.5t-83 -30t-31 -74q0 -46 31 -76.5t83 -30.5zM223 739q0 -46 43.5 -73t124.5 -27t125.5 30t44.5 79q0 83 -108 83h-174q-56 -32 -56 -92z" />
    <glyph glyph-name="h.superior" horiz-adv-x="813" 
d="M119 829v945h153v-363q78 78 189 78q109 0 178.5 -73.5t69.5 -209.5v-377h-156v373q0 66 -34.5 103.5t-94.5 37.5q-93 0 -152 -96v-418h-153z" />
    <glyph glyph-name="j.superior" horiz-adv-x="391" 
d="M193 1571q-41 0 -71 29.5t-30 70.5t30 72t71 31t71.5 -31t30.5 -72t-30.5 -70.5t-71.5 -29.5zM272 760q0 -246 -231 -246q-67 0 -121 21v135q50 -15 94 -15q105 0 105 105v704h153v-704z" />
    <glyph glyph-name="k.superior" horiz-adv-x="729" 
d="M113 829v881h155v-496l240 250h192l-260 -268l260 -367h-190l-178 256l-64 -65v-191h-155z" />
    <glyph glyph-name="l.superior" horiz-adv-x="391" 
d="M119 829v945h153v-945h-153z" />
    <glyph glyph-name="m.superior" horiz-adv-x="1196" 
d="M119 829v635h153v-51q76 76 177 76q136 0 200 -113q86 113 209 113q103 0 168.5 -70t65.5 -200v-390h-156v385q0 60 -31 94.5t-86 34.5q-90 0 -135 -96v-28v-390h-158v385q0 60 -30.5 94.5t-85.5 34.5q-34 0 -63.5 -17t-44 -35t-30.5 -44v-418h-153z" />
    <glyph glyph-name="o.superior" horiz-adv-x="837" 
d="M420 1489q151 0 248.5 -99t97.5 -243t-97.5 -243t-248.5 -99q-154 0 -251 99t-97 243t97 243t251 99zM420 950q79 0 131.5 56.5t52.5 140.5q0 85 -52 140.5t-132 55.5q-82 0 -134.5 -55.5t-52.5 -140.5t53 -141t134 -56z" />
    <glyph glyph-name="p.superior" horiz-adv-x="866" 
d="M119 520v944h153v-49q80 74 201 74q146 0 234 -99.5t88 -242.5t-88 -242.5t-234 -99.5q-121 0 -201 74v-359h-153zM272 1049q71 -99 181 -99q81 0 131.5 55t50.5 142q0 86 -50.5 141t-131.5 55q-111 0 -181 -98v-196z" />
    <glyph glyph-name="q.superior" horiz-adv-x="866" 
d="M750 520h-156v359q-80 -74 -201 -74q-145 0 -233 99.5t-88 242.5t88 242.5t233 99.5q121 0 201 -74v49h156v-944zM231 1147q0 -87 51 -142t132 -55q112 0 180 99v196q-67 98 -180 98q-81 0 -132 -55.5t-51 -140.5z" />
    <glyph glyph-name="r.superior" horiz-adv-x="542" 
d="M119 829v635h153v-65q75 78 170 78q28 0 54 -11v-159q-36 8 -70 8q-54 0 -93 -24.5t-61 -59.5v-402h-153z" />
    <glyph glyph-name="s.superior" horiz-adv-x="614" 
d="M61 922l103 94q66 -86 147 -86q39 0 60.5 19.5t21.5 49.5t-31 51t-74.5 37.5t-87.5 37.5t-75 64t-31 105q0 85 63 140t160 55q69 0 132 -30.5t100 -76.5l-105 -94q-57 74 -127 74q-36 0 -54.5 -16.5t-18.5 -45.5q0 -24 22 -43t55 -30t71.5 -29t71.5 -38t55 -59t22 -91
q-1 -96 -67 -150.5t-161 -54.5q-159 0 -252 117z" />
    <glyph glyph-name="t.superior" horiz-adv-x="587" 
d="M158 1059v264h-119v141h119v158h155v-158h199v-141h-199v-264q0 -101 103 -101q64 0 96 13v-133q-49 -21 -121 -21q-233 0 -233 242z" />
    <glyph glyph-name="u.superior" horiz-adv-x="798" 
d="M539 1102v362h155v-352q0 -143 -78.5 -225t-216.5 -82q-139 0 -217 82t-78 225v352h156v-362q0 -71 36 -111.5t103 -40.5q66 0 103 40.5t37 111.5z" />
    <glyph glyph-name="v.superior" horiz-adv-x="720" 
d="M27 1464h166l167 -460l168 460h166l-231 -635h-205z" />
    <glyph glyph-name="w.superior" horiz-adv-x="1075" 
d="M47 1464h154l112 -469l119 469h209l121 -465l115 465h151l-151 -635h-215l-123 480l-125 -480h-215z" />
    <glyph glyph-name="x.superior" horiz-adv-x="741" 
d="M219 829h-172l227 326l-213 309h168l142 -207l141 207h170l-215 -309l227 -326h-170l-153 224z" />
    <glyph glyph-name="y.superior" horiz-adv-x="743" 
d="M395 684q-70 -170 -235 -170q-60 0 -111 23v135q34 -17 78 -17q48 0 77.5 19.5t49.5 68.5l37 88l-264 633h172l176 -430l176 430h166z" />
    <glyph glyph-name="z.superior" horiz-adv-x="702" 
d="M86 829v142l328 352h-318v141h510v-141l-325 -352h333v-142h-528z" />
    <glyph glyph-name="zero.numr" horiz-adv-x="796" 
d="M397 1458q166 0 252 -128.5t86 -336.5t-86 -336.5t-252 -128.5q-165 0 -251.5 128.5t-86.5 336.5t86.5 336.5t251.5 128.5zM399 1307q-85 0 -127.5 -84t-42.5 -230t42.5 -229.5t127.5 -83.5q81 0 124.5 84t43.5 229t-43.5 229.5t-124.5 84.5z" />
    <glyph glyph-name="one.numr" horiz-adv-x="796" 
d="M115 553v147h235v566l-198 -107l-82 117l284 158h160v-734h209v-147h-608z" />
    <glyph glyph-name="two.numr" horiz-adv-x="796" 
d="M94 553v147l303 299q5 5 24 25t24.5 26.5t20 24t20 28t13 27t10.5 32.5t3 34q0 54 -35 85.5t-92 31.5q-58 0 -101 -33t-81 -96l-133 82q59 93 137 142.5t188 49.5q123 0 203 -68.5t80 -179.5q0 -46 -12.5 -87.5t-39.5 -80.5t-50.5 -66t-63.5 -67l-217 -209h407v-147h-608
z" />
    <glyph glyph-name="three.numr" horiz-adv-x="796" 
d="M713 805q0 -127 -88.5 -202t-231.5 -75q-235 0 -342 185l144 88q35 -66 82.5 -96.5t113.5 -30.5q68 0 111 37t43 100t-43 99t-115 36h-145v146h133q58 0 94.5 30t36.5 82q0 51 -34 80t-89 29q-101 0 -156 -103l-135 84q106 164 303 164q122 0 200.5 -64.5t78.5 -168.5
q0 -130 -101 -199q67 -32 103.5 -90t36.5 -131z" />
    <glyph glyph-name="four.numr" horiz-adv-x="796" 
d="M475 553v235h-401v138l375 508h190v-508h92v-138h-92v-235h-164zM240 926h235v315z" />
    <glyph glyph-name="five.numr" horiz-adv-x="796" 
d="M139 948l27 486h522v-148h-366l-9 -192h74q154 0 244 -76t90 -209q0 -129 -90.5 -205t-231.5 -76q-235 0 -342 185l144 88q66 -127 198 -127q69 0 111.5 37t42.5 100t-45.5 99t-128.5 36h-150z" />
    <glyph glyph-name="six.numr" horiz-adv-x="796" 
d="M442 1458q195 0 303 -143l-124 -101q-38 49 -78.5 73t-96.5 24q-196 0 -208 -289q91 94 225 94q126 0 202 -81t76 -204q0 -130 -86.5 -216.5t-236.5 -86.5q-169 0 -258.5 119t-89.5 340q0 219 94 345t278 126zM428 971q-123 0 -184 -92q13 -106 57 -154.5t119 -48.5
q71 0 111 42t40 109q0 63 -39 103.5t-104 40.5z" />
    <glyph glyph-name="seven.numr" horiz-adv-x="796" 
d="M307 553h-198l438 733h-449v148h631v-148z" />
    <glyph glyph-name="eight.numr" horiz-adv-x="796" 
d="M397 1458q140 0 218.5 -68t78.5 -169q0 -60 -31 -110.5t-90 -80.5q77 -32 118.5 -93t41.5 -138q0 -118 -89 -194.5t-247 -76.5q-157 0 -246.5 76.5t-89.5 194.5q0 77 42.5 138t119.5 93q-59 30 -90 80.5t-31 110.5q0 101 77.5 169t217.5 68zM401 1094q56 0 89.5 29.5
t33.5 80.5t-34 83t-89 32q-61 0 -96 -31.5t-35 -83.5q0 -51 35 -80.5t96 -29.5zM399 670q75 0 120.5 38t45.5 101t-45.5 102t-120.5 39q-76 0 -122 -39t-46 -102t46 -101t122 -38z" />
    <glyph glyph-name="nine.numr" horiz-adv-x="796" 
d="M362 528q-196 0 -301 144l123 100q76 -96 176 -96q96 0 148.5 73.5t58.5 215.5q-86 -95 -223 -95q-128 0 -204.5 81t-76.5 204q0 130 87 216.5t239 86.5q169 0 257.5 -119t88.5 -340q0 -219 -94.5 -345t-278.5 -126zM233 1159q0 -62 40.5 -102.5t105.5 -40.5
q116 0 182 90q-13 108 -57 156.5t-119 48.5q-71 0 -111.5 -42.5t-40.5 -109.5z" />
    <glyph glyph-name="zero.dnom" horiz-adv-x="796" 
d="M397 905q166 0 252 -128.5t86 -336.5t-86 -336.5t-252 -128.5q-165 0 -251.5 128.5t-86.5 336.5t86.5 336.5t251.5 128.5zM399 754q-85 0 -127.5 -84t-42.5 -230t42.5 -229.5t127.5 -83.5q81 0 124.5 84t43.5 229t-43.5 229.5t-124.5 84.5z" />
    <glyph glyph-name="one.dnom" horiz-adv-x="796" 
d="M115 0v147h235v566l-198 -107l-82 117l284 158h160v-734h209v-147h-608z" />
    <glyph glyph-name="two.dnom" horiz-adv-x="796" 
d="M94 0v147l303 299q5 5 24 25t24.5 26.5t20 24t20 28t13 27t10.5 32.5t3 34q0 54 -35 85.5t-92 31.5q-58 0 -101 -33t-81 -96l-133 82q59 93 137 142.5t188 49.5q123 0 203 -68.5t80 -179.5q0 -46 -12.5 -87.5t-39.5 -80.5t-50.5 -66t-63.5 -67l-217 -209h407v-147h-608z
" />
    <glyph glyph-name="three.dnom" horiz-adv-x="796" 
d="M713 252q0 -127 -88.5 -202t-231.5 -75q-235 0 -342 185l144 88q35 -66 82.5 -96.5t113.5 -30.5q68 0 111 37t43 100t-43 99t-115 36h-145v146h133q58 0 94.5 30t36.5 82q0 51 -34 80t-89 29q-101 0 -156 -103l-135 84q106 164 303 164q122 0 200.5 -64.5t78.5 -168.5
q0 -130 -101 -199q67 -32 103.5 -90t36.5 -131z" />
    <glyph glyph-name="four.dnom" horiz-adv-x="796" 
d="M74 236v137l375 508h190v-508h92v-137h-92v-236h-164v236h-401zM240 373h235v315z" />
    <glyph glyph-name="five.dnom" horiz-adv-x="796" 
d="M139 395l27 486h522v-148h-366l-9 -192h74q154 0 244 -76t90 -209q0 -129 -90.5 -205t-231.5 -76q-235 0 -342 185l144 88q66 -127 198 -127q69 0 111.5 37t42.5 100t-45.5 99t-128.5 36h-150z" />
    <glyph glyph-name="six.dnom" horiz-adv-x="796" 
d="M442 905q195 0 303 -143l-124 -100q-37 48 -78 72t-97 24q-196 0 -208 -289q91 94 225 94q126 0 202 -80.5t76 -203.5q0 -130 -86.5 -217t-236.5 -87q-169 0 -258.5 119t-89.5 340q0 219 94 345t278 126zM428 418q-123 0 -184 -92q13 -106 57 -154.5t119 -48.5
q71 0 111 42t40 109q0 63 -39 103.5t-104 40.5z" />
    <glyph glyph-name="seven.dnom" horiz-adv-x="794" 
d="M307 0h-198l438 733h-449v148h631v-148z" />
    <glyph glyph-name="eight.dnom" horiz-adv-x="796" 
d="M397 905q140 0 218.5 -68t78.5 -169q0 -60 -31 -110.5t-90 -80.5q77 -32 118.5 -93t41.5 -138q0 -118 -89 -194.5t-247 -76.5q-157 0 -246.5 76.5t-89.5 194.5q0 77 42.5 138t119.5 93q-59 30 -90 80.5t-31 110.5q0 101 77.5 169t217.5 68zM401 541q56 0 89.5 29.5
t33.5 80.5t-34 83t-89 32q-61 0 -96 -31.5t-35 -83.5q0 -51 35 -80.5t96 -29.5zM399 117q75 0 120.5 38t45.5 101t-45.5 102t-120.5 39q-76 0 -122 -39t-46 -102t46 -101t122 -38z" />
    <glyph glyph-name="nine.dnom" horiz-adv-x="796" 
d="M362 -25q-196 0 -301 144l123 100q76 -96 176 -96q96 0 148.5 73.5t58.5 215.5q-86 -95 -223 -95q-128 0 -204.5 81t-76.5 204q0 130 87 216.5t239 86.5q169 0 257.5 -119t88.5 -340q0 -219 -94.5 -345t-278.5 -126zM233 606q0 -62 40.5 -102.5t105.5 -40.5q116 0 182 90
q-13 108 -57 156.5t-119 48.5q-71 0 -111.5 -42.5t-40.5 -109.5z" />
    </font>
</defs>
</svg>
