<?xml version="1.0" standalone="no"?>
<!DOCTYPE svg PUBLIC "-//W3C//DTD SVG 1.1//EN" "http://www.w3.org/Graphics/SVG/1.1/DTD/svg11.dtd" >
<svg xmlns="http://www.w3.org/2000/svg" xmlns:xlink="http://www.w3.org/1999/xlink" version="1.1">
<metadata>
Created by FontForge 20170731 at Thu Jan 14 17:15:37 2021
 By Aleksey,,,
Mathieu Reguer
</metadata>
<defs>
<font id="Marianne-Light" horiz-adv-x="1228" >
  <font-face 
    font-family="Marianne Light"
    font-weight="300"
    font-stretch="normal"
    units-per-em="2048"
    panose-1="2 0 0 0 0 0 0 0 0 0"
    ascent="1536"
    descent="-512"
    x-height="1032"
    cap-height="1434"
    bbox="-395 -512 2513 1978"
    underline-thickness="106"
    underline-position="-368"
    unicode-range="U+0020-25CC"
  />
<missing-glyph 
d="M2 -504v2040h1227v-2040h-1227zM459 287h200l15 129q181 32 290 137.5t109 269.5q0 121 -62 214t-161 140.5t-215 47.5q-301 0 -467 -273l235 -143q54 82 103 119t117 37q64 0 108.5 -40t44.5 -102q0 -57 -24.5 -96t-74.5 -61.5t-108.5 -34.5t-144.5 -19zM561 -186
q74 0 129 54.5t55 129.5q0 73 -55 127.5t-129 54.5q-76 0 -131 -54t-55 -128q0 -75 55 -129.5t131 -54.5z" />
    <glyph glyph-name=".notdef" 
d="M2 -504v2040h1227v-2040h-1227zM459 287h200l15 129q181 32 290 137.5t109 269.5q0 121 -62 214t-161 140.5t-215 47.5q-301 0 -467 -273l235 -143q54 82 103 119t117 37q64 0 108.5 -40t44.5 -102q0 -57 -24.5 -96t-74.5 -61.5t-108.5 -34.5t-144.5 -19zM561 -186
q74 0 129 54.5t55 129.5q0 73 -55 127.5t-129 54.5q-76 0 -131 -54t-55 -128q0 -75 55 -129.5t131 -54.5z" />
    <glyph glyph-name=".null" horiz-adv-x="0" 
 />
    <glyph glyph-name="nonmarkingreturn" horiz-adv-x="682" 
 />
    <glyph glyph-name="space" unicode=" " horiz-adv-x="552" 
 />
    <glyph glyph-name="exclam" unicode="!" horiz-adv-x="589" 
d="M246 389l-21 1045h137l-20 -1045h-96zM295 -23q-41 0 -70.5 30.5t-29.5 72.5q0 41 29.5 69.5t70.5 28.5q43 0 71.5 -28.5t28.5 -69.5q0 -42 -29 -72.5t-71 -30.5z" />
    <glyph glyph-name="quotedbl" unicode="&#x22;" horiz-adv-x="915" 
d="M330 909h-103l-18 525h139zM686 909h-102l-19 525h140z" />
    <glyph glyph-name="numbersign" unicode="#" horiz-adv-x="1312" 
d="M53 498h215l119 438h-334v104h363l108 394h115l-109 -394h428l109 394h115l-109 -394h187v-104h-216l-118 -438h334v-105h-363l-109 -393h-114l108 393h-428l-108 -393h-115l109 393h-187v105zM383 498h428l119 438h-428z" />
    <glyph glyph-name="dollar" unicode="$" 
d="M119 223l92 86q140 -175 342 -194v577q-63 24 -106 44t-93.5 53.5t-81 71t-51 93.5t-20.5 123q0 139 97.5 238.5t254.5 116.5v145h113v-145q246 -21 383 -213l-93 -78q-103 156 -290 178v-543q50 -19 79.5 -31t74 -34t71.5 -41.5t59 -50t49.5 -63.5t30 -77.5t12.5 -95.5
q0 -155 -104 -259.5t-272 -121.5v-145h-113v145q-273 19 -434 221zM324 1077q0 -50 17 -90.5t51 -70.5t71 -51.5t90 -43.5v496q-109 -13 -169 -77.5t-60 -162.5zM922 385q0 52 -19 93.5t-58 73t-79 52.5t-100 45v-532q121 15 188.5 89t67.5 179z" />
    <glyph glyph-name="percent" unicode="%" horiz-adv-x="1679" 
d="M424 1479q149 0 245.5 -100.5t96.5 -241.5t-96.5 -241.5t-245.5 -100.5q-150 0 -246 100t-96 242t96 242t246 100zM248 2l1048 1434h131l-1048 -1434h-131zM426 885q101 0 169.5 74.5t68.5 177.5t-68.5 176t-169.5 73q-105 0 -174.5 -73t-69.5 -176t69.5 -177.5
t174.5 -74.5zM1253 645q149 0 245.5 -100.5t96.5 -241.5t-96.5 -241.5t-245.5 -100.5q-150 0 -246 100t-96 242t96 242t246 100zM1255 51q101 0 169.5 74.5t68.5 177.5t-68.5 176.5t-169.5 73.5q-105 0 -174 -73.5t-69 -176.5q0 -104 69 -178t174 -74z" />
    <glyph glyph-name="ampersand" unicode="&#x26;" horiz-adv-x="1531" 
d="M1452 0h-158l-194 182q-186 -221 -473 -221q-208 0 -342.5 120t-134.5 310q0 149 82.5 255t213.5 155q-82 82 -122.5 158.5t-40.5 181.5q0 143 101 238.5t259 95.5q157 0 257.5 -95t100.5 -241q0 -270 -342 -375l420 -406q99 160 164 410h129q-87 -311 -205 -494z
M410 1133q0 -50 10.5 -89t39 -77t49 -59t69.5 -66q153 39 229 110.5t76 184.5q0 93 -65.5 159t-170.5 66q-112 0 -174.5 -64.5t-62.5 -164.5zM279 391q0 -140 103 -228.5t251 -88.5q227 0 381 190l-479 451l-7 6q-109 -39 -179 -122.5t-70 -207.5z" />
    <glyph glyph-name="quotesingle" unicode="'" horiz-adv-x="552" 
d="M330 909h-103l-18 525h139z" />
    <glyph glyph-name="parenleft" unicode="(" horiz-adv-x="606" 
d="M199 563q0 -548 348 -899l-90 -74q-180 172 -281.5 422.5t-101.5 550.5t104.5 551.5t278.5 421.5l90 -74q-164 -166 -256 -394t-92 -505z" />
    <glyph glyph-name="parenright" unicode=")" horiz-adv-x="606" 
d="M408 563q0 276 -93 505t-258 394l90 74q176 -170 279.5 -421.5t103.5 -551.5q0 -301 -102 -551.5t-281 -421.5l-90 74q351 351 351 899z" />
    <glyph glyph-name="asterisk" unicode="*" horiz-adv-x="831" 
d="M682 784l-88 -63l-178 268l-176 -268l-90 63l200 250l-309 86l33 105l303 -113l-15 322h109l-14 -320l301 111l33 -105l-310 -86z" />
    <glyph glyph-name="plus" unicode="+" 
d="M1130 463h-462v-463h-109v463h-461v108h461v461h109v-461h462v-108z" />
    <glyph glyph-name="comma" unicode="," horiz-adv-x="552" 
d="M236 -328h-111l166 498h139z" />
    <glyph glyph-name="hyphen" unicode="-" horiz-adv-x="634" 
d="M41 582h553v-115h-553v115z" />
    <glyph glyph-name="period" unicode="." horiz-adv-x="552" 
d="M279 -23q-41 0 -72 31t-31 72t30.5 69.5t72.5 28.5q43 0 71.5 -28.5t28.5 -69.5q0 -42 -29 -72.5t-71 -30.5z" />
    <glyph glyph-name="slash" unicode="/" horiz-adv-x="704" 
d="M33 -403l516 1939h123l-516 -1939h-123z" />
    <glyph glyph-name="zero" unicode="0" 
d="M612 1475q127 0 228.5 -58.5t166 -161.5t98.5 -240t34 -298t-34 -298t-98.5 -240t-166 -161.5t-228.5 -58.5q-126 0 -226.5 58.5t-165 161.5t-98.5 240.5t-34 297.5t34 297.5t98.5 240.5t165 161.5t226.5 58.5zM612 1354q-125 0 -215.5 -86t-134 -228t-43.5 -323
t43.5 -323t134 -228t215.5 -86t216 86t135.5 228t44.5 323t-44.5 323t-135.5 228t-216 86z" />
    <glyph glyph-name="one" unicode="1" horiz-adv-x="946" 
d="M514 0v1307l-428 -228l-70 92l492 263h131v-1434h-125z" />
    <glyph glyph-name="two" unicode="2" 
d="M154 0v115l481 510q67 71 92.5 98.5t68.5 77.5t57.5 75t34 64.5t25 74.5t5.5 77q0 125 -82 195.5t-209 70.5q-119 0 -204.5 -53t-152.5 -164l-106 65q175 269 471 269q176 0 295 -105.5t119 -271.5q0 -58 -15.5 -113.5t-39 -102t-68.5 -105.5t-85.5 -104.5t-109.5 -117.5
l-422 -440h783v-115h-938z" />
    <glyph glyph-name="three" unicode="3" 
d="M1098 387q0 -189 -137 -308.5t-349 -119.5q-175 0 -297 66.5t-206 203.5l110 70q69 -117 164.5 -170t226.5 -53q157 0 257 84t100 231q0 139 -91 227.5t-245 88.5h-250v112h213q140 0 222.5 78t82.5 199q0 124 -81 193t-210 69q-215 0 -327 -207l-107 66q155 258 438 258
q183 0 301.5 -103.5t118.5 -269.5q0 -107 -55 -195t-156 -137q132 -43 204.5 -146.5t72.5 -236.5z" />
    <glyph glyph-name="four" unicode="4" 
d="M86 434v115l713 885h159v-885h179v-115h-179v-434h-124v434h-748zM227 549h607v751z" />
    <glyph glyph-name="five" unicode="5" 
d="M227 709l43 725h748v-115h-627l-29 -496h265q223 0 346 -122t123 -312q0 -191 -137 -310.5t-349 -119.5q-338 0 -504 270l111 70q69 -117 165 -170t226 -53q158 0 257.5 84t99.5 231q0 141 -91.5 229.5t-250.5 88.5h-396z" />
    <glyph glyph-name="six" unicode="6" 
d="M680 1475q152 0 258.5 -62.5t185.5 -187.5l-102 -72q-68 106 -149.5 155.5t-188.5 49.5q-218 0 -331 -178.5t-113 -487.5q78 91 188 140t236 49q192 0 319 -131t127 -320q0 -96 -32.5 -181t-92.5 -149.5t-151.5 -102.5t-202.5 -38q-245 0 -385 178.5t-140 546.5
q0 241 62.5 416.5t192.5 275t319 99.5zM649 764q-124 0 -229 -54.5t-174 -158.5q22 -246 123.5 -360.5t261.5 -114.5q159 0 251.5 100t92.5 252q0 139 -94 237.5t-232 98.5z" />
    <glyph glyph-name="seven" unicode="7" horiz-adv-x="1226" 
d="M350 0h-147l782 1319h-838v115h975v-115z" />
    <glyph glyph-name="eight" unicode="8" 
d="M614 1475q196 0 314.5 -104t118.5 -263q0 -113 -59.5 -195.5t-166.5 -121.5q140 -44 218.5 -149t78.5 -247q0 -189 -138 -312.5t-366 -123.5t-365.5 123t-137.5 313q0 142 78.5 245.5t218.5 147.5q-108 40 -168 123.5t-60 196.5q0 159 118.5 263t315.5 104zM616 838
q131 0 214 73.5t83 188.5q0 118 -83 190t-214 72q-137 0 -220 -72t-83 -190q0 -117 84 -189.5t219 -72.5zM616 74q163 0 267 90.5t104 232.5q0 145 -104.5 239.5t-266.5 94.5q-166 0 -270 -94t-104 -240q0 -143 103.5 -233t270.5 -90z" />
    <glyph glyph-name="nine" unicode="9" 
d="M547 -41q-152 0 -259 62.5t-186 187.5l103 72q66 -106 148 -155.5t192 -49.5q109 0 194 47.5t139 135.5t81.5 209t27.5 271q-79 -90 -188 -138t-234 -48q-128 0 -231.5 61t-160 164t-56.5 226q0 128 56 234.5t166.5 171.5t256.5 65q245 0 384.5 -178.5t139.5 -546.5
q0 -241 -62 -416.5t-192 -275t-319 -99.5zM252 1006q0 -140 93.5 -238t232.5 -98q125 0 230 55t173 160q-22 245 -124 359t-263 114q-158 0 -250 -100.5t-92 -251.5z" />
    <glyph glyph-name="colon" unicode=":" horiz-adv-x="552" 
d="M279 854q-42 0 -72.5 30t-30.5 72q0 40 31 69.5t72 29.5q42 0 71 -29.5t29 -69.5q0 -43 -28.5 -72.5t-71.5 -29.5zM279 -23q-41 0 -72 31t-31 72t30.5 69.5t72.5 28.5q43 0 71.5 -28.5t28.5 -69.5q0 -42 -29 -72.5t-71 -30.5z" />
    <glyph glyph-name="semicolon" unicode=";" horiz-adv-x="552" 
d="M279 854q-42 0 -72.5 30t-30.5 72q0 40 31 69.5t72 29.5q42 0 71 -29.5t29 -69.5q0 -43 -28.5 -72.5t-71.5 -29.5zM219 -328h-110l165 498h140z" />
    <glyph glyph-name="less" unicode="&#x3c;" 
d="M1130 117v-117l-1032 455v123l1032 454v-117l-915 -399z" />
    <glyph glyph-name="equal" unicode="=" 
d="M1130 686h-1032v107h1032v-107zM1130 240h-1032v108h1032v-108z" />
    <glyph glyph-name="greater" unicode="&#x3e;" 
d="M98 117l916 399l-916 399v117l1032 -454v-123l-1032 -455v117z" />
    <glyph glyph-name="question" unicode="?" horiz-adv-x="1032" 
d="M375 389l-17 295q482 61 482 375q0 131 -86.5 218t-218.5 87q-102 0 -180.5 -44t-149.5 -136l-105 63q171 228 439 228q183 0 306.5 -120.5t123.5 -293.5q0 -186 -132.5 -305.5t-355.5 -159.5l-10 -207h-96zM426 -23q-41 0 -71.5 31t-30.5 72t30 69.5t72 28.5
q41 0 70.5 -28.5t29.5 -69.5q0 -42 -29.5 -72.5t-70.5 -30.5z" />
    <glyph glyph-name="at" unicode="@" horiz-adv-x="1724" 
d="M492 512q0 151 98.5 254.5t255.5 103.5q142 0 246 -110v86h106v-467q0 -62 30.5 -97.5t82.5 -35.5q89 0 145.5 96.5t56.5 255.5q0 123 -47.5 231.5t-130.5 187t-201 124t-253 45.5q-191 0 -345 -92t-238.5 -245t-84.5 -335t83 -335.5t233.5 -245t336.5 -91.5
q167 0 292.5 49t246.5 162l57 -73q-134 -117 -274 -170.5t-324 -53.5q-163 0 -304.5 61t-238.5 164t-152.5 241.5t-55.5 291.5t56.5 291.5t155.5 241.5t243 164t311 61q159 0 296.5 -53t232.5 -143.5t148.5 -214.5t53.5 -263q0 -192 -85.5 -318t-215.5 -126q-74 0 -126 33
t-75 94q-108 -127 -262 -127q-156 0 -255 104t-99 254zM604 512q0 -109 71.5 -184.5t180.5 -75.5q72 0 133.5 38.5t102.5 104.5v228q-43 71 -104 110t-132 39q-109 0 -180.5 -75.5t-71.5 -184.5z" />
    <glyph glyph-name="A" unicode="A" horiz-adv-x="1501" 
d="M70 0l592 1434h178l590 -1434h-138l-184 451h-715l-184 -451h-139zM440 567h621l-309 764z" />
    <glyph glyph-name="B" unicode="B" horiz-adv-x="1179" 
d="M238 0v1434h307q192 0 305 -99t113 -264q0 -104 -48 -182.5t-141 -120.5q133 -39 204 -134.5t71 -227.5q0 -185 -125.5 -295.5t-341.5 -110.5h-344zM545 1317h-176v-500h176q132 0 206 66t74 186q0 118 -74 183t-206 65zM586 700h-217v-583h217q154 0 239.5 77t85.5 218
q0 138 -85.5 213t-239.5 75z" />
    <glyph glyph-name="C" unicode="C" horiz-adv-x="1572" 
d="M864 82q154 0 281 68.5t211 187.5l106 -84q-102 -136 -256.5 -215.5t-341.5 -79.5q-163 0 -304.5 61t-238 164t-151.5 241.5t-55 291.5t55 291.5t151.5 241.5t238 164t304.5 61q186 0 341.5 -80t256.5 -217l-108 -82q-82 119 -209.5 187.5t-280.5 68.5q-175 0 -316 -86
t-218.5 -231t-77.5 -318t77.5 -318t218.5 -231t316 -86z" />
    <glyph glyph-name="D" unicode="D" horiz-adv-x="1644" 
d="M238 0v1434h544q163 0 304 -58t237.5 -155.5t151.5 -228.5t55 -275t-55 -275t-151.5 -228.5t-237.5 -155.5t-304 -58h-544zM784 1313h-415v-1192h415q130 0 244 47.5t193.5 128t125.5 190t46 230.5q0 122 -46 231.5t-125.5 190t-193.5 127.5t-244 47z" />
    <glyph glyph-name="E" unicode="E" horiz-adv-x="1126" 
d="M238 0v1434h729v-117h-598v-531h516v-114h-516v-555h598v-117h-729z" />
    <glyph glyph-name="F" unicode="F" horiz-adv-x="1044" 
d="M238 0v1434h729v-117h-598v-531h516v-114h-516v-672h-131z" />
    <glyph glyph-name="G" unicode="G" horiz-adv-x="1675" 
d="M885 82q151 0 276.5 59t210.5 164v365h-446v121h577v-537q-102 -137 -262.5 -216t-355.5 -79q-168 0 -313.5 61t-244.5 164t-155.5 241.5t-56.5 291.5t55 291.5t151.5 241.5t238 164t304.5 61q186 0 341.5 -80t256.5 -217l-108 -82q-82 119 -209.5 187.5t-280.5 68.5
q-175 0 -316 -86t-218.5 -231t-77.5 -318t80 -318t226 -231t327 -86z" />
    <glyph glyph-name="H" unicode="H" horiz-adv-x="1699" 
d="M238 0v1434h131v-643h962v643h131v-1434h-131v670h-962v-670h-131z" />
    <glyph glyph-name="I" unicode="I" horiz-adv-x="606" 
d="M238 0v1434h131v-1434h-131z" />
    <glyph glyph-name="J" unicode="J" horiz-adv-x="630" 
d="M397 90q0 -412 -381 -412q-49 0 -90 13v116q34 -10 80 -10q58 0 102.5 13t81.5 44t56.5 89.5t19.5 142.5v1348h131v-1344z" />
    <glyph glyph-name="K" unicode="K" horiz-adv-x="1441" 
d="M238 0v1434h131v-783l819 783h168l-613 -588l641 -846h-165l-566 760l-284 -273v-487h-131z" />
    <glyph glyph-name="L" unicode="L" horiz-adv-x="1044" 
d="M238 0v1434h131v-1313h598v-121h-729z" />
    <glyph glyph-name="M" unicode="M" horiz-adv-x="1806" 
d="M238 0v1434h174l491 -795l492 795h174v-1434h-131v1260l-480 -768h-110l-479 768v-1260h-131z" />
    <glyph glyph-name="N" unicode="N" horiz-adv-x="1699" 
d="M238 0v1434h176l917 -1282v1282h131v-1434h-176l-917 1282v-1282h-131z" />
    <glyph glyph-name="O" unicode="O" horiz-adv-x="1724" 
d="M864 1475q162 0 302.5 -61t237 -164t151.5 -241.5t55 -291.5t-55 -291.5t-151.5 -241.5t-237 -164t-302.5 -61q-163 0 -304.5 61t-238 164t-151.5 241.5t-55 291.5t55 291.5t151.5 241.5t238 164t304.5 61zM864 82q173 0 313.5 86.5t218 231.5t77.5 317q0 173 -77.5 318
t-218 231t-313.5 86q-175 0 -316 -86t-218.5 -231t-77.5 -318t77.5 -318t218.5 -231t316 -86z" />
    <glyph glyph-name="P" unicode="P" horiz-adv-x="1136" 
d="M238 0v1434h385q203 0 321.5 -106t118.5 -284q0 -175 -118.5 -280t-321.5 -105h-254v-659h-131zM625 1317h-256v-541h256q142 0 221.5 71.5t79.5 201.5q0 126 -80 197t-221 71z" />
    <glyph glyph-name="Q" unicode="Q" horiz-adv-x="1724" 
d="M1411 -55q178 -146 332 -146q53 0 100 13v-117q-49 -17 -110 -17q-200 0 -402 166l-196 162q-124 -47 -271 -47q-163 0 -304.5 61t-238 164t-151.5 241.5t-55 291.5t55 291.5t151.5 241.5t238 164t304.5 61q162 0 302.5 -61t237 -164t151.5 -241.5t55 -291.5
q0 -202 -92.5 -374t-255.5 -273zM864 82q173 0 313.5 86.5t218 231.5t77.5 317q0 173 -77.5 318t-218 231t-313.5 86q-175 0 -316 -86t-218.5 -231t-77.5 -318t77.5 -318t218.5 -231t316 -86z" />
    <glyph glyph-name="R" unicode="R" horiz-adv-x="1277" 
d="M238 0v1434h344q204 0 323 -106t119 -284q0 -127 -64.5 -219t-181.5 -135l469 -690h-160l-436 664q-58 -5 -69 -5h-213v-659h-131zM586 1317h-217v-541h217q142 0 221.5 71.5t79.5 201.5q0 126 -80 197t-221 71z" />
    <glyph glyph-name="S" unicode="S" horiz-adv-x="1204" 
d="M141 197l97 88q163 -205 374 -205q132 0 209.5 77.5t77.5 192.5q0 54 -23.5 100.5t-63.5 81.5t-92 67t-109.5 61.5t-115 60.5t-109.5 69.5t-92 82.5t-63.5 105t-23.5 132q0 150 110.5 257.5t278.5 107.5q269 0 428 -230l-100 -82q-128 193 -326 193q-115 0 -185.5 -70
t-70.5 -176q0 -70 38 -127t99 -98t135 -79.5t148 -81t135 -91.5t99 -122t38 -163q0 -170 -118.5 -278.5t-301.5 -108.5q-286 0 -473 236z" />
    <glyph glyph-name="T" unicode="T" horiz-adv-x="1277" 
d="M78 1313v121h1122v-121h-495v-1313h-132v1313h-495z" />
    <glyph glyph-name="U" unicode="U" horiz-adv-x="1474" 
d="M1147 524v910h131v-906q0 -269 -146.5 -419t-392.5 -150t-394 150t-148 419v906h131v-910q0 -210 111 -326t298 -116t298.5 116t111.5 326z" />
    <glyph glyph-name="V" unicode="V" horiz-adv-x="1501" 
d="M70 1434h139l543 -1313l540 1313h138l-592 -1434h-174z" />
    <glyph glyph-name="W" unicode="W" horiz-adv-x="2086" 
d="M76 1434h137l338 -1297l401 1297h181l403 -1295l340 1295h133l-377 -1434h-182l-406 1296l-407 -1296h-182z" />
    <glyph glyph-name="X" unicode="X" horiz-adv-x="1435" 
d="M231 0h-157l551 750l-502 684h156l438 -592l440 592h158l-506 -684l553 -750h-156l-489 657z" />
    <glyph glyph-name="Y" unicode="Y" horiz-adv-x="1339" 
d="M1311 1434l-576 -764v-670h-131v670l-575 764h157l486 -641l483 641h156z" />
    <glyph glyph-name="Z" unicode="Z" horiz-adv-x="1335" 
d="M104 0v121l949 1192h-928v121h1081v-121l-946 -1192h967v-121h-1123z" />
    <glyph glyph-name="bracketleft" unicode="[" horiz-adv-x="589" 
d="M137 1536h428v-106h-311v-1727h311v-106h-428v1939z" />
    <glyph glyph-name="backslash" unicode="\" horiz-adv-x="704" 
d="M672 -403h-123l-516 1939h123z" />
    <glyph glyph-name="bracketright" unicode="]" horiz-adv-x="589" 
d="M453 -403h-428v106h311v1727h-311v106h428v-1939z" />
    <glyph glyph-name="asciicircum" unicode="^" 
d="M365 315h-115l278 463h174l279 -463h-115l-250 394z" />
    <glyph glyph-name="underscore" unicode="_" horiz-adv-x="1105" 
d="M33 -209h1040v-106h-1040v106z" />
    <glyph glyph-name="grave" unicode="`" 
d="M672 1196l-236 340h142l215 -340h-121z" />
    <glyph glyph-name="a" unicode="a" horiz-adv-x="1148" 
d="M477 -41q-151 0 -242.5 77.5t-91.5 207.5q0 119 87 199t249 106l367 61v97q0 122 -76.5 189t-202.5 67q-98 0 -177.5 -41.5t-131.5 -116.5l-94 72q69 93 173.5 144.5t233.5 51.5q181 0 288.5 -98.5t107.5 -267.5v-707h-121v147q-66 -90 -162 -139t-207 -49zM266 246
q0 -78 61.5 -129t164.5 -51q110 0 202 55t152 155v238l-340 -57q-121 -21 -180.5 -75.5t-59.5 -135.5z" />
    <glyph glyph-name="b" unicode="b" horiz-adv-x="1359" 
d="M1253 516q0 -151 -65.5 -277.5t-188.5 -203t-280 -76.5q-243 0 -395 182v-141h-121v1536h121v-645q152 182 395 182q157 0 280 -76.5t188.5 -203t65.5 -277.5zM709 958q-119 0 -220 -56t-165 -159v-454q65 -104 165.5 -159.5t219.5 -55.5q182 0 298.5 128t116.5 314
t-116.5 314t-298.5 128z" />
    <glyph glyph-name="c" unicode="c" horiz-adv-x="1161" 
d="M664 74q105 0 190 46t141 126l99 -76q-73 -98 -184.5 -154.5t-247.5 -56.5q-162 0 -290.5 76.5t-197 203t-68.5 277.5t68.5 277.5t197 203t290.5 76.5q136 0 247.5 -56.5t184.5 -154.5l-99 -76q-55 80 -141.5 126t-191.5 46q-123 0 -222.5 -59.5t-154 -160.5t-54.5 -222
q0 -186 122.5 -314t310.5 -128z" />
    <glyph glyph-name="d" unicode="d" horiz-adv-x="1353" 
d="M106 516q0 112 38.5 213.5t107 177.5t169 121t218.5 45q243 0 395 -182v645h121v-1536h-121v141q-152 -182 -395 -182q-118 0 -218.5 45t-169 121t-107 177.5t-38.5 213.5zM233 516q0 -121 52.5 -222t148.5 -160.5t215 -59.5q121 0 221 55.5t164 159.5v454
q-65 105 -165 160t-220 55q-119 0 -215 -59.5t-148.5 -160.5t-52.5 -222z" />
    <glyph glyph-name="e" unicode="e" horiz-adv-x="1193" 
d="M1098 170q-72 -99 -184 -155t-250 -56q-164 0 -293 76.5t-197 203t-68 277.5q0 242 143 399.5t372 157.5q204 0 328 -124.5t124 -315.5q0 -53 -8 -86h-834v-35q0 -188 122.5 -315t312.5 -127q106 0 193.5 46t146.5 128zM623 965q-147 0 -247 -83t-132 -235h706
q-5 136 -96 227t-231 91z" />
    <glyph glyph-name="f" unicode="f" horiz-adv-x="770" 
d="M61 1032h195v137q0 165 95.5 266t248.5 101q154 0 260 -102l-78 -91q-75 82 -178 82q-100 0 -162.5 -68t-62.5 -186v-139h387v-110h-387v-922h-123v922h-195v110z" />
    <glyph glyph-name="g" unicode="g" horiz-adv-x="1136" 
d="M74 -190q0 79 39.5 143t122.5 123q-78 52 -78 147q0 59 34 110t95 87q-69 51 -107.5 127t-38.5 162q0 151 109 258.5t282 107.5q105 0 193 -43h387v-106h-258q72 -98 72 -217q0 -151 -109.5 -259t-284.5 -108q-81 0 -165 31q-45 -26 -70 -61t-25 -70q0 -84 99 -84h315
q202 0 299.5 -83.5t97.5 -224.5q0 -159 -144 -260.5t-372 -101.5q-221 0 -357 87t-136 235zM535 444q125 0 197.5 77.5t72.5 187.5q0 112 -72 188t-198 76q-129 0 -202 -76t-73 -188q0 -111 73.5 -188t201.5 -77zM195 -180q0 -104 102.5 -166t267.5 -62q180 0 289 68
t109 184q0 203 -281 203h-328q-159 -95 -159 -227z" />
    <glyph glyph-name="h" unicode="h" horiz-adv-x="1277" 
d="M203 0v1536h121v-647q144 184 368 184q182 0 294 -115.5t112 -324.5v-633h-123v629q0 157 -80.5 243t-218.5 86q-219 0 -352 -217v-741h-121z" />
    <glyph glyph-name="i" unicode="i" horiz-adv-x="526" 
d="M264 1358q-39 0 -66.5 26.5t-27.5 65.5q0 37 28 63.5t66 26.5t65 -26.5t27 -63.5q0 -39 -26.5 -65.5t-65.5 -26.5zM203 0v1032h121v-1032h-121z" />
    <glyph glyph-name="j" unicode="j" horiz-adv-x="526" 
d="M262 1358q-39 0 -66.5 26.5t-27.5 65.5q0 37 28 63.5t66 26.5t65 -26.5t27 -63.5q0 -39 -26.5 -65.5t-65.5 -26.5zM324 -150q0 -190 -89 -276t-255 -86q-93 0 -166 25v110q64 -22 153 -22q55 0 95 10.5t73.5 37.5t50.5 77t17 124v1182h121v-1182z" />
    <glyph glyph-name="k" unicode="k" horiz-adv-x="1101" 
d="M205 0v1434h119v-938l555 536h155l-436 -424l455 -608h-152l-391 522l-186 -180v-342h-119z" />
    <glyph glyph-name="l" unicode="l" horiz-adv-x="526" 
d="M203 0v1536h121v-1536h-121z" />
    <glyph glyph-name="m" unicode="m" horiz-adv-x="1968" 
d="M203 0v1032h121v-137q137 178 348 178q123 0 214.5 -58t135.5 -167q145 225 381 225q173 0 279 -110.5t106 -309.5v-653h-121v649q0 148 -76 228.5t-205 80.5q-107 0 -188.5 -54t-146.5 -167q6 -41 6 -84v-653h-123v649q0 148 -75.5 228.5t-203.5 80.5q-215 0 -331 -217
v-741h-121z" />
    <glyph glyph-name="n" unicode="n" horiz-adv-x="1277" 
d="M203 0v1032h121v-141q145 182 368 182q182 0 294 -115.5t112 -324.5v-633h-123v629q0 157 -80.5 243t-218.5 86q-221 0 -352 -217v-741h-121z" />
    <glyph glyph-name="o" unicode="o" horiz-adv-x="1318" 
d="M659 1073q161 0 289.5 -78t197 -204.5t68.5 -274.5t-68.5 -274.5t-197 -204.5t-289.5 -78q-160 0 -288 78t-196.5 204.5t-68.5 274.5t68.5 274.5t196.5 204.5t288 78zM662 74q119 0 217 62t152 163t54 217q0 181 -121.5 311.5t-301.5 130.5q-185 0 -308 -130.5
t-123 -311.5t123 -311.5t308 -130.5z" />
    <glyph glyph-name="p" unicode="p" horiz-adv-x="1357" 
d="M203 -504v1536h121v-141q152 182 395 182q157 0 280 -76.5t188.5 -203t65.5 -277.5t-65.5 -277.5t-188.5 -203t-280 -76.5q-243 0 -395 182v-645h-121zM709 958q-119 0 -220 -56t-165 -159v-454q65 -104 165.5 -159.5t219.5 -55.5q182 0 298.5 128t116.5 314t-116.5 314
t-298.5 128z" />
    <glyph glyph-name="q" unicode="q" horiz-adv-x="1357" 
d="M104 516q0 112 39 213.5t107.5 177.5t169.5 121t219 45q243 0 395 -182v141h121v-1536h-121v645q-152 -182 -395 -182q-118 0 -219 45t-169.5 121t-107.5 177.5t-39 213.5zM233 516q0 -186 117 -314t299 -128q119 0 220 56t165 159v454q-65 104 -165.5 159.5t-219.5 55.5
q-182 0 -299 -128t-117 -314z" />
    <glyph glyph-name="r" unicode="r" horiz-adv-x="800" 
d="M203 0v1032h121v-147q66 83 142.5 125.5t176.5 42.5q42 0 86 -13v-120q-47 12 -94 12q-102 0 -176 -49t-135 -148v-735h-121z" />
    <glyph glyph-name="s" unicode="s" horiz-adv-x="890" 
d="M80 135l90 76q118 -148 279 -148q98 0 155.5 55.5t57.5 137.5q0 53 -29 93t-75 65.5t-101.5 48.5t-111.5 50t-102 61.5t-75 92t-29 132.5q0 118 87.5 196t224.5 78q105 0 191 -44.5t142 -121.5l-90 -71q-86 133 -239 133q-92 0 -143.5 -46.5t-51.5 -123.5
q0 -54 28.5 -95.5t74.5 -68t101.5 -50t111 -50.5t101.5 -60.5t74.5 -88t28.5 -126.5q0 -132 -93.5 -216.5t-235.5 -84.5q-233 0 -371 176z" />
    <glyph glyph-name="t" unicode="t" horiz-adv-x="849" 
d="M256 326v596h-195v110h195v258h123v-258h387v-110h-387v-596q0 -132 60 -183t175 -51q85 0 152 23v-111q-70 -24 -164 -24q-346 0 -346 346z" />
    <glyph glyph-name="u" unicode="u" horiz-adv-x="1241" 
d="M942 438v594h121v-592q0 -227 -119.5 -354t-320.5 -127q-203 0 -324 127t-121 354v592h121v-594q0 -172 87.5 -268t236.5 -96q145 0 232 96t87 268z" />
    <glyph glyph-name="v" unicode="v" horiz-adv-x="1085" 
d="M43 1032h129l371 -915l368 915h131l-419 -1032h-160z" />
    <glyph glyph-name="w" unicode="w" horiz-adv-x="1595" 
d="M82 1032h123l235 -911l273 911h168l274 -907l236 907h122l-268 -1032h-170l-278 915l-279 -915h-168z" />
    <glyph glyph-name="x" unicode="x" horiz-adv-x="1048" 
d="M190 0h-139l391 537l-360 495h139l303 -414l301 414h142l-363 -495l393 -537h-139l-334 459z" />
    <glyph glyph-name="y" unicode="y" horiz-adv-x="1110" 
d="M510 -260q-107 -252 -354 -252q-92 0 -152 31v112q61 -30 137 -30q183 0 262 182l95 219l-455 1030h133l385 -880l375 880h131z" />
    <glyph glyph-name="z" unicode="z" horiz-adv-x="999" 
d="M92 0v111l658 811h-644v110h787v-110l-657 -811h671v-111h-815z" />
    <glyph glyph-name="braceleft" unicode="{" horiz-adv-x="589" 
d="M254 -96q0 -91 51 -146t139 -55h121v-106h-123q-142 0 -223.5 83.5t-81.5 223.5q0 69 59.5 232.5t59.5 223.5q0 69 -30 111.5t-91 42.5h-127v109h127q62 0 91.5 41.5t29.5 111.5q0 60 -59.5 222t-59.5 231q0 142 81.5 224.5t223.5 82.5h123v-106h-121q-88 0 -139 -55
t-51 -146q0 -61 59.5 -221.5t59.5 -229.5q0 -150 -113 -211q56 -29 84.5 -83.5t28.5 -125.5q0 -69 -59.5 -231t-59.5 -223z" />
    <glyph glyph-name="bar" unicode="|" horiz-adv-x="704" 
d="M293 -403v1939h117v-1939h-117z" />
    <glyph glyph-name="braceright" unicode="}" horiz-adv-x="589" 
d="M336 -96q0 61 -59.5 221t-59.5 229q0 151 111 211q-111 57 -111 209q0 69 59.5 231.5t59.5 223.5q0 91 -51 146t-140 55h-120v106h122q142 0 224 -83t82 -224q0 -69 -59.5 -233t-59.5 -224q0 -70 29.5 -112t91.5 -42h127v-108h-127q-63 0 -92 -41.5t-29 -112.5
q0 -60 59.5 -221.5t59.5 -230.5q0 -140 -82 -223.5t-224 -83.5h-122v106h120q89 0 140 55t51 146z" />
    <glyph glyph-name="asciitilde" unicode="~" 
d="M1018 754v-166q0 -113 -54 -187.5t-151 -74.5q-75 0 -125 43t-96 125l-23 36q-3 6 -14 25t-14.5 25t-13.5 21.5t-15 21t-14.5 16.5t-17 15.5t-18 10t-21.5 7.5t-23 2q-56 0 -84.5 -43t-28.5 -117v-174h-96v170q0 111 54 184.5t151 73.5q75 0 125 -43t96 -125l22 -37
q48 -84 71 -107q36 -36 81 -36q56 0 85.5 43t29.5 117v174h94z" />
    <glyph glyph-name="exclamdown" unicode="&#xa1;" horiz-adv-x="589" 
d="M295 1073q40 0 70 -30.5t30 -71.5q0 -40 -30 -69.5t-70 -29.5q-42 0 -71 29.5t-29 69.5q0 42 29 72t71 30zM344 662l18 -1045h-135l19 1045h98z" />
    <glyph glyph-name="cent" unicode="&#xa2;" 
d="M610 1434h113v-170q125 -7 226 -62t169 -147l-98 -76q-50 73 -127.5 117.5t-169.5 50.5v-875q93 6 169.5 50t127.5 118l98 -75q-68 -93 -169 -148.5t-226 -62.5v-154h-113v156q-143 18 -253 97t-169 198t-59 258t59 258t169 198t253 97v172zM256 709q0 -164 98.5 -285.5
t255.5 -147.5v867q-157 -26 -255.5 -147.5t-98.5 -286.5z" />
    <glyph glyph-name="sterling" unicode="&#xa3;" 
d="M156 0v115l137 125q106 98 145 161.5t39 145.5q0 52 -22 104h-299v109h235q-76 108 -100 155q-47 93 -47 187q0 161 111.5 267t281.5 106q255 0 397 -232l-98 -76q-56 98 -127 144.5t-168 46.5q-117 0 -192.5 -70.5t-75.5 -187.5q-1 -49 16 -98.5t35.5 -80.5t54.5 -83.5
t51 -77.5h461v-109h-407q16 -53 16 -104q0 -104 -48 -184.5t-171 -194.5l-59 -53h772v-115h-938z" />
    <glyph glyph-name="currency" unicode="&#xa4;" 
d="M174 1032l236 -235q85 63 202 63q118 0 205 -65l238 237l75 -76l-237 -237q61 -89 61 -201q0 -115 -63 -203l239 -239l-75 -76l-240 240q-90 -64 -203 -64t-200 62l-238 -238l-76 76l238 237q-66 87 -66 205q0 114 64 203l-236 235zM614 266q101 0 169.5 74.5t68.5 177.5
t-68.5 176.5t-169.5 73.5q-105 0 -174 -73.5t-69 -176.5q0 -104 69 -178t174 -74z" />
    <glyph glyph-name="yen" unicode="&#xa5;" 
d="M137 496v108h416v205h-416v109h332l-371 518h150l368 -514l367 512h147l-368 -516h332v-109h-414v-205h414v-108h-414v-496h-127v496h-416z" />
    <glyph glyph-name="brokenbar" unicode="&#xa6;" horiz-adv-x="704" 
d="M410 817h-117v719h117v-719zM410 -403h-117v718h117v-718z" />
    <glyph glyph-name="section" unicode="&#xa7;" horiz-adv-x="1073" 
d="M768 -61q0 71 -35.5 121.5t-92 79.5t-124.5 53.5t-136.5 52t-125 64t-92 101t-35.5 152.5q0 108 58 181t157 110q-83 44 -129.5 111.5t-46.5 173.5q0 143 105.5 239.5t267.5 96.5q228 0 381 -181l-80 -80q-122 154 -299 154q-116 0 -186 -62.5t-70 -166.5
q0 -70 35.5 -120.5t92 -79.5t124.5 -53t136.5 -51.5t125 -64.5t92 -101.5t35.5 -152.5q-1 -109 -58 -182.5t-155 -108.5q82 -46 128 -112.5t46 -171.5q0 -145 -105 -240.5t-266 -95.5q-230 0 -383 178l80 80q126 -154 301 -154q114 0 184 63.5t70 166.5zM246 567
q0 -34 9 -63.5t20.5 -51t37.5 -43t43 -34t55.5 -29.5t57 -24t65 -23.5t62.5 -22.5q95 15 153 79t58 155q0 34 -9 63.5t-21 51t-36.5 42.5t-43.5 34t-55 29.5t-57.5 25t-64.5 24t-63 23.5q-96 -17 -153.5 -81.5t-57.5 -154.5z" />
    <glyph glyph-name="dieresis" unicode="&#xa8;" 
d="M430 1362q-38 0 -64 26t-26 64q0 37 26 62.5t64 25.5q37 0 63.5 -25.5t26.5 -62.5q0 -38 -26.5 -64t-63.5 -26zM799 1362q-37 0 -63.5 26t-26.5 64q0 37 26.5 62.5t63.5 25.5q38 0 64 -25.5t26 -62.5q0 -38 -26 -64t-64 -26z" />
    <glyph glyph-name="copyright" unicode="&#xa9;" horiz-adv-x="1759" 
d="M1645 717q0 -153 -56 -291.5t-155 -241.5t-243.5 -164t-311.5 -61t-311.5 61t-243.5 164t-155 241.5t-56 291.5t56 291.5t155 241.5t243.5 164t311.5 61t311.5 -61t243.5 -164t155 -241.5t56 -291.5zM209 717q0 -137 49.5 -260t136 -214.5t213 -145.5t271.5 -54
q195 0 349.5 92t237 245.5t82.5 336.5t-83 336.5t-237.5 245.5t-348.5 92q-146 0 -272.5 -54t-213 -145.5t-135.5 -214.5t-49 -260zM891 352q90 0 163 39.5t122 108.5l84 -66q-63 -85 -158 -133.5t-211 -48.5q-134 0 -240.5 63.5t-164.5 169.5t-58 232t58 232t164.5 169.5
t240.5 63.5q114 0 209.5 -49t159.5 -132l-86 -67q-47 69 -120.5 108t-162.5 39q-152 0 -251 -105.5t-99 -258.5t99 -259t251 -106z" />
    <glyph glyph-name="ordfeminine" unicode="&#xaa;" horiz-adv-x="735" 
d="M301 805q-93 0 -150 48.5t-57 129.5q0 74 54 124t155 67l213 36v47q0 68 -43.5 106t-114.5 38q-112 0 -174 -90l-75 55q92 123 251 123q117 0 184.5 -63.5t67.5 -168.5v-428h-96v82q-38 -51 -94.5 -78.5t-120.5 -27.5zM193 985q0 -44 32.5 -72t89.5 -28q125 0 201 123
v125l-190 -29q-67 -10 -100 -41.5t-33 -77.5zM129 541v92h483v-92h-483z" />
    <glyph glyph-name="guillemetleft" unicode="&#xab;" horiz-adv-x="1042" 
d="M530 98h-135l-276 408l276 412h135l-276 -410zM920 98h-136l-276 408l276 412h136l-277 -410z" />
    <glyph glyph-name="logicalnot" unicode="&#xac;" 
d="M1130 793v-553h-108v446h-924v107h1032z" />
    <glyph glyph-name="registered" unicode="&#xae;" horiz-adv-x="1759" 
d="M1645 717q0 -153 -56 -291.5t-155 -241.5t-243.5 -164t-311.5 -61t-311.5 61t-243.5 164t-155 241.5t-56 291.5t56 291.5t155 241.5t243.5 164t311.5 61t311.5 -61t243.5 -164t155 -241.5t56 -291.5zM209 717q0 -137 49.5 -260t136 -214.5t213 -145.5t271.5 -54
q195 0 349.5 92t237 245.5t82.5 336.5t-83 336.5t-237.5 245.5t-348.5 92q-146 0 -272.5 -54t-213 -145.5t-135.5 -214.5t-49 -260zM635 285v880h227q132 0 208.5 -66t76.5 -179q0 -78 -38.5 -135t-109.5 -85l263 -415h-123l-242 393q-10 -2 -35 -2h-121v-391h-106z
M868 1071h-127v-301h127q79 0 122.5 39.5t43.5 112.5q0 70 -44 109.5t-122 39.5z" />
    <glyph glyph-name="macron" unicode="&#xaf;" 
d="M324 1401v94h581v-94h-581z" />
    <glyph glyph-name="degree" unicode="&#xb0;" horiz-adv-x="847" 
d="M424 1475q149 0 245.5 -100.5t96.5 -241.5t-96.5 -241.5t-245.5 -100.5q-150 0 -246 100t-96 242t96 242t246 100zM426 881q101 0 169.5 74.5t68.5 177.5t-68.5 176t-169.5 73q-105 0 -174.5 -73t-69.5 -176t69.5 -177.5t174.5 -74.5z" />
    <glyph glyph-name="plusminus" unicode="&#xb1;" 
d="M668 1032v-327h462v-109h-462v-328h-109v328h-461v109h461v327h109zM1130 0h-1032v106h1032v-106z" />
    <glyph glyph-name="twosuperior" unicode="&#xb2;" horiz-adv-x="796" 
d="M109 829v93l299 309q5 6 15 16q43 46 62 68t41 54t29.5 60.5t7.5 63.5q0 70 -45.5 109.5t-118.5 39.5q-69 0 -118.5 -32.5t-90.5 -100.5l-84 54q110 172 297 172q115 0 191 -65.5t76 -170.5q0 -45 -12.5 -85t-43 -83t-56.5 -72.5t-77 -82.5l-248 -254h459v-93h-583z" />
    <glyph glyph-name="threesuperior" unicode="&#xb3;" horiz-adv-x="796" 
d="M700 1071q0 -120 -85 -193t-220 -73q-215 0 -317 170l88 55q78 -133 227 -133q90 0 145.5 47.5t55.5 130.5q0 79 -51.5 127.5t-139.5 48.5h-153v92h133q77 0 123.5 43t46.5 111t-45.5 106.5t-116.5 38.5q-123 0 -188 -118l-86 51q99 160 280 160q114 0 188 -64t74 -166
q0 -66 -31 -118.5t-89 -83.5q77 -29 119 -91t42 -141z" />
    <glyph glyph-name="acute" unicode="&#xb4;" 
d="M555 1196h-119l215 340h142z" />
    <glyph glyph-name="paragraph" unicode="&#xb6;" horiz-adv-x="1288" 
d="M700 -403h-122v1062h-66q-201 0 -319.5 105.5t-118.5 279.5q0 178 118 284t320 106h188v-1837zM934 -403v1837h117v-1837h-117z" />
    <glyph glyph-name="periodcentered" unicode="&#xb7;" horiz-adv-x="552" 
d="M279 424q-41 0 -72 30.5t-31 71.5t30.5 70t72.5 29q43 0 71.5 -28.5t28.5 -70.5t-29 -72t-71 -30z" />
    <glyph glyph-name="cedilla" unicode="&#xb8;" horiz-adv-x="1230" 
d="M612 18l103 -14l-119 -151q8 2 22 2q90 0 149.5 -48t59.5 -126q0 -80 -60.5 -133.5t-156.5 -53.5q-125 0 -204 70l53 78q69 -62 147 -62q54 0 85.5 27.5t31.5 73.5t-32 71t-93 25q-42 0 -82 -21l-57 60z" />
    <glyph glyph-name="onesuperior" unicode="&#xb9;" horiz-adv-x="796" 
d="M129 829v93h254v684l-244 -129l-55 73l299 160h102v-788h228v-93h-584z" />
    <glyph glyph-name="ordmasculine" unicode="&#xba;" horiz-adv-x="847" 
d="M424 1489q149 0 245.5 -100.5t96.5 -241.5t-96.5 -241.5t-245.5 -100.5q-150 0 -246 100t-96 242t96 242t246 100zM426 895q101 0 169.5 74.5t68.5 177.5t-68.5 176.5t-169.5 73.5q-105 0 -174.5 -73.5t-69.5 -176.5t69.5 -177.5t174.5 -74.5zM131 541v92h586v-92h-586z
" />
    <glyph glyph-name="guillemetright" unicode="&#xbb;" horiz-adv-x="1042" 
d="M121 918h133l276 -408l-276 -412h-133l276 412zM510 918h133l277 -408l-277 -412h-133l276 412z" />
    <glyph glyph-name="onequarter" unicode="&#xbc;" horiz-adv-x="1835" 
d="M129 553v92h254v684l-244 -129l-55 74l299 160h102v-789h228v-92h-584zM451 0l1048 1434h131l-1048 -1434h-131zM1126 258v90l406 533h123v-533h104v-90h-104v-258h-101v258h-428zM1235 348h319v420z" />
    <glyph glyph-name="onehalf" unicode="&#xbd;" horiz-adv-x="2021" 
d="M129 553v92h254v684l-244 -129l-55 74l299 160h102v-789h228v-92h-584zM451 0l1048 1434h131l-1048 -1434h-131zM1333 0v92l299 309q5 6 15 16q44 47 63 68.5t41 54t29.5 61t7.5 63.5q0 70 -45.5 109.5t-118.5 39.5q-69 0 -118.5 -32.5t-90.5 -100.5l-84 53
q110 172 297 172q115 0 190.5 -65t75.5 -170q0 -45 -12.5 -85.5t-42 -83t-56.5 -73t-77 -82.5l-248 -254h459v-92h-584z" />
    <glyph glyph-name="threequarters" unicode="&#xbe;" horiz-adv-x="1769" 
d="M700 795q0 -120 -85 -193.5t-220 -73.5q-215 0 -317 170l88 56q78 -133 227 -133q90 0 145.5 47.5t55.5 130.5q0 79 -51.5 127.5t-139.5 48.5h-153v92h133q77 0 123.5 43t46.5 111t-45.5 106.5t-116.5 38.5q-122 0 -188 -119l-86 51q99 160 280 160q114 0 188 -63.5
t74 -165.5q0 -67 -31 -119.5t-89 -83.5q77 -29 119 -90.5t42 -140.5zM385 0l1049 1434h131l-1049 -1434h-131zM1061 258v90l405 533h123v-533h105v-90h-105v-258h-100v258h-428zM1169 348h320v420z" />
    <glyph glyph-name="questiondown" unicode="&#xbf;" horiz-adv-x="1032" 
d="M606 1073q41 0 72 -30.5t31 -71.5q0 -40 -31 -69.5t-72 -29.5q-42 0 -71 29.5t-29 69.5q0 42 29 72t71 30zM659 662l15 -295q-481 -58 -481 -375q0 -131 86.5 -217t218.5 -86q102 0 180.5 43.5t148.5 136.5l105 -66q-83 -108 -187 -167.5t-251 -59.5q-183 0 -307 120.5
t-124 293.5q0 187 133 307t357 160l8 205h98z" />
    <glyph glyph-name="Agrave" unicode="&#xc0;" horiz-adv-x="1501" 
d="M692 1556l-260 277h152l231 -277h-123zM70 0l592 1434h178l590 -1434h-138l-184 451h-715l-184 -451h-139zM440 567h621l-309 764z" />
    <glyph glyph-name="Aacute" unicode="&#xc1;" horiz-adv-x="1501" 
d="M813 1556h-123l232 277h151zM70 0l592 1434h178l590 -1434h-138l-184 451h-715l-184 -451h-139zM440 567h621l-309 764z" />
    <glyph glyph-name="Acircumflex" unicode="&#xc2;" horiz-adv-x="1501" 
d="M553 1556h-115l232 277h161l230 -277h-113l-196 211zM70 0l592 1434h178l590 -1434h-138l-184 451h-715l-184 -451h-139zM440 567h621l-309 764z" />
    <glyph glyph-name="Atilde" unicode="&#xc3;" horiz-adv-x="1501" 
d="M406 1556v103q0 83 46.5 138.5t129.5 55.5q41 0 76.5 -16.5t53 -33t48.5 -51.5q5 -6 8 -9l23 -27q3 -4 15.5 -19t16.5 -19.5t14 -15.5t16.5 -14.5t16.5 -9.5t20.5 -8t22.5 -2q39 0 61.5 27.5t22.5 73.5v104h95v-102q0 -83 -47 -139t-130 -56q-41 0 -75 15.5t-54.5 35
t-47.5 49.5q-2 3 -3 4l-3 3t-3 4l-22 26q-2 2 -12.5 15t-12.5 15t-11 12.5t-12.5 13t-12 10t-14 9t-14 5.5t-17 5t-17.5 1q-39 0 -60.5 -26t-21.5 -72v-105h-96zM70 0l592 1434h178l590 -1434h-138l-184 451h-715l-184 -451h-139zM440 567h621l-309 764z" />
    <glyph glyph-name="Adieresis" unicode="&#xc4;" horiz-adv-x="1501" 
d="M565 1651q-36 0 -61 25t-25 61q0 35 25.5 60.5t60.5 25.5t61.5 -25.5t26.5 -60.5q0 -36 -26 -61t-62 -25zM934 1651q-37 0 -62.5 24.5t-25.5 61.5t25.5 61.5t62.5 24.5q36 0 61 -25t25 -61t-25 -61t-61 -25zM70 0l592 1434h178l590 -1434h-138l-184 451h-715l-184 -451
h-139zM440 567h621l-309 764z" />
    <glyph glyph-name="Aring" unicode="&#xc5;" horiz-adv-x="1501" 
d="M750 1516q-98 0 -170 62.5t-72 166.5q0 105 72 169t170 64q101 0 173 -63.5t72 -169.5q0 -105 -71.5 -167t-173.5 -62zM752 1599q64 0 107.5 40t43.5 106q0 69 -43 109t-108 40q-64 0 -108 -40.5t-44 -108.5q0 -66 44 -106t108 -40zM70 0l592 1434h178l590 -1434h-138
l-184 451h-715l-184 -451h-139zM440 567h621l-309 764z" />
    <glyph glyph-name="AE" unicode="&#xc6;" horiz-adv-x="1982" 
d="M59 0l965 1434h799v-121h-598v-522h516v-121h-516v-549h598v-121h-729v451h-580l-301 -451h-154zM592 567h502v754z" />
    <glyph glyph-name="Ccedilla" unicode="&#xc7;" horiz-adv-x="1572" 
d="M864 82q154 0 281 68.5t211 187.5l106 -84q-97 -130 -240.5 -208t-318.5 -87l-184 -287h-129l190 291q-147 15 -272 81.5t-210.5 167.5t-134 231.5t-48.5 273.5q0 153 55 291.5t151.5 241.5t238 164t304.5 61q186 0 341.5 -80t256.5 -217l-108 -82q-82 119 -209.5 187.5
t-280.5 68.5q-175 0 -316 -86t-218.5 -231t-77.5 -318t77.5 -318t218.5 -231t316 -86z" />
    <glyph glyph-name="Egrave" unicode="&#xc8;" horiz-adv-x="1126" 
d="M551 1556l-260 277h151l232 -277h-123zM238 0v1434h729v-117h-598v-531h516v-114h-516v-555h598v-117h-729z" />
    <glyph glyph-name="Eacute" unicode="&#xc9;" horiz-adv-x="1126" 
d="M672 1556h-123l231 277h152zM238 0v1434h729v-117h-598v-531h516v-114h-516v-555h598v-117h-729z" />
    <glyph glyph-name="Ecircumflex" unicode="&#xca;" horiz-adv-x="1126" 
d="M412 1556h-115l231 277h162l230 -277h-113l-197 211zM238 0v1434h729v-117h-598v-531h516v-114h-516v-555h598v-117h-729z" />
    <glyph glyph-name="Edieresis" unicode="&#xcb;" horiz-adv-x="1126" 
d="M424 1651q-36 0 -61 25t-25 61q0 35 25.5 60.5t60.5 25.5t61.5 -25.5t26.5 -60.5q0 -36 -26 -61t-62 -25zM793 1651q-37 0 -62.5 24.5t-25.5 61.5t25.5 61.5t62.5 24.5q36 0 61 -25t25 -61t-25 -61t-61 -25zM238 0v1434h729v-117h-598v-531h516v-114h-516v-555h598v-117
h-729z" />
    <glyph glyph-name="Igrave" unicode="&#xcc;" horiz-adv-x="606" 
d="M246 1556l-260 277h151l232 -277h-123zM238 0v1434h131v-1434h-131z" />
    <glyph glyph-name="Iacute" unicode="&#xcd;" horiz-adv-x="606" 
d="M367 1556h-123l231 277h152zM238 0v1434h131v-1434h-131z" />
    <glyph glyph-name="Icircumflex" unicode="&#xce;" horiz-adv-x="606" 
d="M106 1556h-114l231 277h162l229 -277h-112l-197 211zM238 0v1434h131v-1434h-131z" />
    <glyph glyph-name="Idieresis" unicode="&#xcf;" horiz-adv-x="606" 
d="M119 1651q-36 0 -61 25t-25 61q0 35 25.5 60.5t60.5 25.5t61.5 -25.5t26.5 -60.5q0 -36 -26 -61t-62 -25zM487 1651q-37 0 -62.5 24.5t-25.5 61.5t25.5 61.5t62.5 24.5q36 0 61 -25t25 -61t-25 -61t-61 -25zM238 0v1434h131v-1434h-131z" />
    <glyph glyph-name="Eth" unicode="&#xd0;" horiz-adv-x="1644" 
d="M238 0v686h-238v96h238v652h544q163 0 304 -58t237.5 -155.5t151.5 -228.5t55 -275t-55 -275t-151.5 -228.5t-237.5 -155.5t-304 -58h-544zM770 686h-401v-565h415q130 0 244 47.5t193.5 128t125.5 190t46 230.5q0 122 -46 231.5t-125.5 190t-193.5 127.5t-244 47h-415
v-531h401v-96z" />
    <glyph glyph-name="Ntilde" unicode="&#xd1;" horiz-adv-x="1699" 
d="M504 1556v103q0 83 46.5 138.5t129.5 55.5q41 0 76.5 -16.5t53 -33t48.5 -51.5q5 -6 8 -9l23 -27q3 -4 13.5 -17t14 -17t13 -14t14.5 -14t14 -10.5t16.5 -9t17.5 -4.5t20 -2q39 0 61.5 27.5t22.5 73.5v104h94v-102q0 -83 -46.5 -139t-129.5 -56q-32 0 -58 7.5t-49 25
t-36 30.5t-36 39l-3 3t-2.5 3t-2.5 3l-22 26q-2 2 -12.5 15t-12.5 15t-11 12.5t-12.5 13t-12 10t-14 9t-14 5.5t-17 5t-17.5 1q-39 0 -60.5 -26t-21.5 -72v-105h-96zM238 0v1434h176l917 -1282v1282h131v-1434h-176l-917 1282v-1282h-131z" />
    <glyph glyph-name="Ograve" unicode="&#xd2;" horiz-adv-x="1724" 
d="M807 1556l-260 277h151l232 -277h-123zM864 1475q162 0 302.5 -61t237 -164t151.5 -241.5t55 -291.5t-55 -291.5t-151.5 -241.5t-237 -164t-302.5 -61q-163 0 -304.5 61t-238 164t-151.5 241.5t-55 291.5t55 291.5t151.5 241.5t238 164t304.5 61zM864 82
q173 0 313.5 86.5t218 231.5t77.5 317q0 173 -77.5 318t-218 231t-313.5 86q-175 0 -316 -86t-218.5 -231t-77.5 -318t77.5 -318t218.5 -231t316 -86z" />
    <glyph glyph-name="Oacute" unicode="&#xd3;" horiz-adv-x="1724" 
d="M928 1556h-123l231 277h152zM864 1475q162 0 302.5 -61t237 -164t151.5 -241.5t55 -291.5t-55 -291.5t-151.5 -241.5t-237 -164t-302.5 -61q-163 0 -304.5 61t-238 164t-151.5 241.5t-55 291.5t55 291.5t151.5 241.5t238 164t304.5 61zM864 82q173 0 313.5 86.5
t218 231.5t77.5 317q0 173 -77.5 318t-218 231t-313.5 86q-175 0 -316 -86t-218.5 -231t-77.5 -318t77.5 -318t218.5 -231t316 -86z" />
    <glyph glyph-name="Ocircumflex" unicode="&#xd4;" horiz-adv-x="1724" 
d="M668 1556h-115l231 277h162l230 -277h-113l-197 211zM864 1475q162 0 302.5 -61t237 -164t151.5 -241.5t55 -291.5t-55 -291.5t-151.5 -241.5t-237 -164t-302.5 -61q-163 0 -304.5 61t-238 164t-151.5 241.5t-55 291.5t55 291.5t151.5 241.5t238 164t304.5 61zM864 82
q173 0 313.5 86.5t218 231.5t77.5 317q0 173 -77.5 318t-218 231t-313.5 86q-175 0 -316 -86t-218.5 -231t-77.5 -318t77.5 -318t218.5 -231t316 -86z" />
    <glyph glyph-name="Otilde" unicode="&#xd5;" horiz-adv-x="1724" 
d="M520 1556v103q0 83 46.5 138.5t129.5 55.5q27 0 52 -7.5t39.5 -14t36.5 -27t28.5 -27.5t30.5 -34l22 -27q3 -4 13.5 -17t14 -17t13 -14t14.5 -14t14 -10.5t16.5 -9t17.5 -4.5t20 -2q39 0 61.5 27.5t22.5 73.5v104h94v-102q0 -83 -46.5 -139t-129.5 -56q-41 0 -75 15.5
t-54.5 35t-47.5 49.5q-2 3 -3 4l-3 3t-3 4l-23 26q-2 2 -12.5 15t-12.5 15t-11 12.5t-12.5 13t-12 10t-14 9t-14 5.5t-17 5t-17.5 1q-39 0 -60.5 -26t-21.5 -72v-105h-96zM864 1475q162 0 302.5 -61t237 -164t151.5 -241.5t55 -291.5t-55 -291.5t-151.5 -241.5t-237 -164
t-302.5 -61q-163 0 -304.5 61t-238 164t-151.5 241.5t-55 291.5t55 291.5t151.5 241.5t238 164t304.5 61zM864 82q173 0 313.5 86.5t218 231.5t77.5 317q0 173 -77.5 318t-218 231t-313.5 86q-175 0 -316 -86t-218.5 -231t-77.5 -318t77.5 -318t218.5 -231t316 -86z" />
    <glyph glyph-name="Odieresis" unicode="&#xd6;" horiz-adv-x="1724" 
d="M680 1651q-36 0 -61 25t-25 61q0 35 25.5 60.5t60.5 25.5t61.5 -25.5t26.5 -60.5q0 -36 -26 -61t-62 -25zM1049 1651q-37 0 -62.5 24.5t-25.5 61.5t25.5 61.5t62.5 24.5q36 0 61 -25t25 -61t-25 -61t-61 -25zM864 1475q162 0 302.5 -61t237 -164t151.5 -241.5t55 -291.5
t-55 -291.5t-151.5 -241.5t-237 -164t-302.5 -61q-163 0 -304.5 61t-238 164t-151.5 241.5t-55 291.5t55 291.5t151.5 241.5t238 164t304.5 61zM864 82q173 0 313.5 86.5t218 231.5t77.5 317q0 173 -77.5 318t-218 231t-313.5 86q-175 0 -316 -86t-218.5 -231t-77.5 -318
t77.5 -318t218.5 -231t316 -86z" />
    <glyph glyph-name="multiply" unicode="&#xd7;" 
d="M1055 0l-441 440l-440 -440l-76 76l441 440l-441 440l76 76l440 -440l441 440l75 -76l-440 -440l440 -440z" />
    <glyph glyph-name="Oslash" unicode="&#xd8;" horiz-adv-x="1724" 
d="M250 -41h-135l202 229q-97 103 -149.5 240t-52.5 289q0 153 55 291.5t151.5 241.5t238 164t304.5 61q269 0 469 -160l142 160h135l-203 -230q97 -103 150 -240t53 -288q0 -153 -55 -291.5t-151.5 -241.5t-237 -164t-302.5 -61q-271 0 -471 160zM252 717q0 -250 158 -432
l833 934q-161 133 -379 133q-175 0 -316 -86t-218.5 -231t-77.5 -318zM864 82q173 0 313.5 86.5t218 231.5t77.5 317q0 250 -158 432l-834 -934q161 -133 383 -133z" />
    <glyph glyph-name="Ugrave" unicode="&#xd9;" horiz-adv-x="1474" 
d="M680 1556l-260 277h151l232 -277h-123zM1147 524v910h131v-906q0 -269 -146.5 -419t-392.5 -150t-394 150t-148 419v906h131v-910q0 -210 111 -326t298 -116t298.5 116t111.5 326z" />
    <glyph glyph-name="Uacute" unicode="&#xda;" horiz-adv-x="1474" 
d="M801 1556h-123l231 277h152zM1147 524v910h131v-906q0 -269 -146.5 -419t-392.5 -150t-394 150t-148 419v906h131v-910q0 -210 111 -326t298 -116t298.5 116t111.5 326z" />
    <glyph glyph-name="Ucircumflex" unicode="&#xdb;" horiz-adv-x="1474" 
d="M541 1556h-115l231 277h162l230 -277h-113l-197 211zM1147 524v910h131v-906q0 -269 -146.5 -419t-392.5 -150t-394 150t-148 419v906h131v-910q0 -210 111 -326t298 -116t298.5 116t111.5 326z" />
    <glyph glyph-name="Udieresis" unicode="&#xdc;" horiz-adv-x="1474" 
d="M553 1651q-36 0 -61 25t-25 61q0 35 25.5 60.5t60.5 25.5t61.5 -25.5t26.5 -60.5q0 -36 -26 -61t-62 -25zM922 1651q-37 0 -62.5 24.5t-25.5 61.5t25.5 61.5t62.5 24.5q36 0 61 -25t25 -61t-25 -61t-61 -25zM1147 524v910h131v-906q0 -269 -146.5 -419t-392.5 -150
t-394 150t-148 419v906h131v-910q0 -210 111 -326t298 -116t298.5 116t111.5 326z" />
    <glyph glyph-name="Yacute" unicode="&#xdd;" horiz-adv-x="1339" 
d="M733 1556h-123l232 277h151zM1311 1434l-576 -764v-670h-131v670l-575 764h157l486 -641l483 641h156z" />
    <glyph glyph-name="Thorn" unicode="&#xde;" horiz-adv-x="1136" 
d="M238 0v1434h131v-316h254q203 0 321.5 -105.5t118.5 -281.5t-118.5 -281.5t-321.5 -105.5h-254v-344h-131zM625 999h-256v-534h256q142 0 221.5 70t79.5 198q0 125 -80 195.5t-221 70.5z" />
    <glyph glyph-name="germandbls" unicode="&#xdf;" horiz-adv-x="1175" 
d="M625 -6q-66 0 -115 14v113q66 -15 108 -15q143 0 232.5 84.5t89.5 223.5q0 133 -94.5 225t-241.5 92h-94v113h92q123 0 200 83t77 220q0 117 -76.5 196.5t-192.5 79.5q-130 0 -208 -72.5t-78 -201.5v-1149h-121v1149q0 175 111 281t294 106q178 0 288 -112t110 -277
q0 -118 -58 -214.5t-166 -139.5q136 -42 210.5 -150t74.5 -235q0 -178 -125 -296t-317 -118z" />
    <glyph glyph-name="agrave" unicode="&#xe0;" horiz-adv-x="1132" 
d="M496 1196l-236 340h141l215 -340h-120zM477 -41q-151 0 -242.5 77.5t-91.5 207.5q0 119 87 199t249 106l367 61v97q0 122 -76.5 189t-202.5 67q-98 0 -177.5 -41.5t-131.5 -116.5l-94 72q69 93 173.5 144.5t233.5 51.5q181 0 288.5 -98.5t107.5 -267.5v-707h-121v147
q-66 -90 -162 -139t-207 -49zM266 246q0 -78 61.5 -129t164.5 -51q110 0 202 55t152 155v238l-340 -57q-121 -21 -180.5 -75.5t-59.5 -135.5z" />
    <glyph glyph-name="aacute" unicode="&#xe1;" horiz-adv-x="1148" 
d="M629 1196h-119l215 340h141zM477 -41q-151 0 -242.5 77.5t-91.5 207.5q0 119 87 199t249 106l367 61v97q0 122 -76.5 189t-202.5 67q-98 0 -177.5 -41.5t-131.5 -116.5l-94 72q69 93 173.5 144.5t233.5 51.5q181 0 288.5 -98.5t107.5 -267.5v-707h-121v147
q-66 -90 -162 -139t-207 -49zM266 246q0 -78 61.5 -129t164.5 -51q110 0 202 55t152 155v238l-340 -57q-121 -21 -180.5 -75.5t-59.5 -135.5z" />
    <glyph glyph-name="acircumflex" unicode="&#xe2;" horiz-adv-x="1148" 
d="M383 1196h-115l217 340h174l218 -340h-115l-189 277zM477 -41q-151 0 -242.5 77.5t-91.5 207.5q0 119 87 199t249 106l367 61v97q0 122 -76.5 189t-202.5 67q-98 0 -177.5 -41.5t-131.5 -116.5l-94 72q69 93 173.5 144.5t233.5 51.5q181 0 288.5 -98.5t107.5 -267.5v-707
h-121v147q-66 -90 -162 -139t-207 -49zM266 246q0 -78 61.5 -129t164.5 -51q110 0 202 55t152 155v238l-340 -57q-121 -21 -180.5 -75.5t-59.5 -135.5z" />
    <glyph glyph-name="atilde" unicode="&#xe3;" horiz-adv-x="1148" 
d="M913 1536v-127q0 -98 -45 -162.5t-129 -64.5q-42 0 -78.5 19.5t-59 45t-50.5 66.5l-23 30q-20 33 -27 44.5t-24.5 32.5t-34.5 28.5t-39 7.5q-37 0 -58 -34t-21 -91v-135h-97v127q0 98 45.5 162.5t128.5 64.5q63 0 104.5 -33.5t84.5 -97.5l22 -30q3 -4 13.5 -21t13.5 -22
t12.5 -18.5t14 -17.5t14 -13t17 -12t17.5 -6t21 -3q40 0 62 34t22 91v135h94zM477 -41q-151 0 -242.5 77.5t-91.5 207.5q0 119 87 199t249 106l367 61v97q0 122 -76.5 189t-202.5 67q-98 0 -177.5 -41.5t-131.5 -116.5l-94 72q69 93 173.5 144.5t233.5 51.5
q181 0 288.5 -98.5t107.5 -267.5v-707h-121v147q-66 -90 -162 -139t-207 -49zM266 246q0 -78 61.5 -129t164.5 -51q110 0 202 55t152 155v238l-340 -57q-121 -21 -180.5 -75.5t-59.5 -135.5z" />
    <glyph glyph-name="adieresis" unicode="&#xe4;" horiz-adv-x="1148" 
d="M387 1362q-38 0 -64 26t-26 64q0 37 26 62.5t64 25.5q37 0 63.5 -25.5t26.5 -62.5q0 -38 -26.5 -64t-63.5 -26zM756 1362q-37 0 -63.5 26t-26.5 64q0 37 26.5 62.5t63.5 25.5q38 0 64 -25.5t26 -62.5q0 -38 -26 -64t-64 -26zM477 -41q-151 0 -242.5 77.5t-91.5 207.5
q0 119 87 199t249 106l367 61v97q0 122 -76.5 189t-202.5 67q-98 0 -177.5 -41.5t-131.5 -116.5l-94 72q69 93 173.5 144.5t233.5 51.5q181 0 288.5 -98.5t107.5 -267.5v-707h-121v147q-66 -90 -162 -139t-207 -49zM266 246q0 -78 61.5 -129t164.5 -51q110 0 202 55t152 155
v238l-340 -57q-121 -21 -180.5 -75.5t-59.5 -135.5z" />
    <glyph glyph-name="aring" unicode="&#xe5;" horiz-adv-x="1148" 
d="M571 1139q-97 0 -169 65t-72 168q0 105 72 171.5t169 66.5q101 0 173.5 -66.5t72.5 -171.5q0 -104 -72.5 -168.5t-173.5 -64.5zM578 1217q67 3 110.5 46t40.5 113q-1 71 -47.5 113.5t-114.5 40.5q-65 -2 -108.5 -47t-42.5 -115q3 -68 50 -109.5t112 -41.5zM477 -41
q-151 0 -242.5 77.5t-91.5 207.5q0 119 87 199t249 106l367 61v97q0 122 -76.5 189t-202.5 67q-98 0 -177.5 -41.5t-131.5 -116.5l-94 72q69 93 173.5 144.5t233.5 51.5q181 0 288.5 -98.5t107.5 -267.5v-707h-121v147q-66 -90 -162 -139t-207 -49zM266 246q0 -78 61.5 -129
t164.5 -51q110 0 202 55t152 155v238l-340 -57q-121 -21 -180.5 -75.5t-59.5 -135.5z" />
    <glyph glyph-name="ae" unicode="&#xe6;" horiz-adv-x="1935" 
d="M479 -41q-150 0 -242 77.5t-92 207.5q0 119 87 199t249 106l367 61v97q0 121 -76 188.5t-199 67.5q-101 0 -182 -41.5t-131 -116.5l-94 72q67 93 173 144.5t239 51.5t227 -60t131 -169q69 108 179 168.5t247 60.5q204 0 329.5 -124.5t125.5 -315.5q0 -30 -9 -86h-833v-35
q0 -188 122 -315t310 -127q107 0 195 46.5t145 127.5l94 -74q-72 -99 -185 -155t-251 -56q-162 0 -288 73.5t-197 200.5q-79 -130 -193 -202t-248 -72zM1366 965q-147 0 -247 -83t-132 -235h705q-5 136 -95.5 227t-230.5 91zM268 246q0 -78 61 -128t163 -50q234 0 387 262
q-31 91 -31 180l-342 -55q-119 -21 -178.5 -75t-59.5 -134z" />
    <glyph glyph-name="ccedilla" unicode="&#xe7;" horiz-adv-x="1161" 
d="M664 74q105 0 190 46t141 126l99 -76q-66 -90 -166 -145t-223 -64l-84 -108q8 2 22 2q90 0 149.5 -48t59.5 -126q0 -80 -60.5 -133.5t-156.5 -53.5q-126 0 -205 70l53 78q69 -62 148 -62q54 0 85.5 27.5t31.5 73.5t-32 71t-93 25q-42 0 -82 -21l-58 60l111 147
q-217 23 -352.5 180.5t-135.5 372.5q0 151 68.5 277.5t197 203t290.5 76.5q136 0 247.5 -56.5t184.5 -154.5l-99 -76q-55 80 -141.5 126t-191.5 46q-123 0 -222.5 -59.5t-154 -160.5t-54.5 -222q0 -186 122.5 -314t310.5 -128z" />
    <glyph glyph-name="egrave" unicode="&#xe8;" horiz-adv-x="1193" 
d="M557 1196l-235 340h141l215 -340h-121zM1098 170q-72 -99 -184 -155t-250 -56q-164 0 -293 76.5t-197 203t-68 277.5q0 242 143 399.5t372 157.5q204 0 328 -124.5t124 -315.5q0 -53 -8 -86h-834v-35q0 -188 122.5 -315t312.5 -127q106 0 193.5 46t146.5 128zM623 965
q-147 0 -247 -83t-132 -235h706q-5 136 -96 227t-231 91z" />
    <glyph glyph-name="eacute" unicode="&#xe9;" horiz-adv-x="1193" 
d="M678 1196h-119l215 340h141zM1098 170q-72 -99 -184 -155t-250 -56q-164 0 -293 76.5t-197 203t-68 277.5q0 242 143 399.5t372 157.5q204 0 328 -124.5t124 -315.5q0 -53 -8 -86h-834v-35q0 -188 122.5 -315t312.5 -127q106 0 193.5 46t146.5 128zM623 965
q-147 0 -247 -83t-132 -235h706q-5 136 -96 227t-231 91z" />
    <glyph glyph-name="ecircumflex" unicode="&#xea;" horiz-adv-x="1193" 
d="M432 1196h-115l218 340h174l217 -340h-115l-188 277zM1098 170q-72 -99 -184 -155t-250 -56q-164 0 -293 76.5t-197 203t-68 277.5q0 242 143 399.5t372 157.5q204 0 328 -124.5t124 -315.5q0 -53 -8 -86h-834v-35q0 -188 122.5 -315t312.5 -127q106 0 193.5 46
t146.5 128zM623 965q-147 0 -247 -83t-132 -235h706q-5 136 -96 227t-231 91z" />
    <glyph glyph-name="edieresis" unicode="&#xeb;" horiz-adv-x="1193" 
d="M436 1362q-38 0 -64 26t-26 64q0 37 26 62.5t64 25.5q37 0 63.5 -25.5t26.5 -62.5q0 -38 -26.5 -64t-63.5 -26zM805 1362q-37 0 -63.5 26t-26.5 64q0 37 26.5 62.5t63.5 25.5q38 0 64 -25.5t26 -62.5q0 -38 -26 -64t-64 -26zM1098 170q-72 -99 -184 -155t-250 -56
q-164 0 -293 76.5t-197 203t-68 277.5q0 242 143 399.5t372 157.5q204 0 328 -124.5t124 -315.5q0 -53 -8 -86h-834v-35q0 -188 122.5 -315t312.5 -127q106 0 193.5 46t146.5 128zM623 965q-147 0 -247 -83t-132 -235h706q-5 136 -96 227t-231 91z" />
    <glyph glyph-name="igrave" unicode="&#xec;" horiz-adv-x="526" 
d="M199 1196l-236 340h141l215 -340h-120zM203 0v1032h121v-1032h-121z" />
    <glyph glyph-name="iacute" unicode="&#xed;" horiz-adv-x="526" 
d="M319 1196h-118l215 340h141zM203 0v1032h121v-1032h-121z" />
    <glyph glyph-name="icircumflex" unicode="&#xee;" horiz-adv-x="526" 
d="M74 1196h-115l217 340h174l217 -340h-114l-189 277zM203 0v1032h121v-1032h-121z" />
    <glyph glyph-name="idieresis" unicode="&#xef;" horiz-adv-x="526" 
d="M78 1362q-38 0 -64 26t-26 64q0 37 26 62.5t64 25.5q37 0 63.5 -25.5t26.5 -62.5q0 -38 -26.5 -64t-63.5 -26zM446 1362q-37 0 -63.5 26t-26.5 64q0 37 26.5 62.5t63.5 25.5q38 0 64.5 -25.5t26.5 -62.5q0 -38 -26.5 -64t-64.5 -26zM203 0v1032h121v-1032h-121z" />
    <glyph glyph-name="eth" unicode="&#xf0;" horiz-adv-x="1296" 
d="M326 1178v100l268 92q-143 95 -295 166h199q112 -50 217 -125l358 123v-98l-270 -95q183 -157 285 -359t102 -396q0 -293 -147.5 -460t-389.5 -167q-161 0 -286.5 73.5t-193 200.5t-67.5 285q0 239 149.5 393t381.5 154q211 0 360 -152q-94 214 -311 390zM233 518
q0 -196 117.5 -321t302.5 -125q189 0 301.5 133t112.5 377q0 66 -8 118q-64 112 -172.5 180t-241.5 68q-179 0 -295.5 -120t-116.5 -310z" />
    <glyph glyph-name="ntilde" unicode="&#xf1;" horiz-adv-x="1277" 
d="M999 1536v-127q0 -98 -45 -162.5t-129 -64.5q-42 0 -78.5 19.5t-59 45t-50.5 66.5l-23 30q-20 33 -27 44.5t-24.5 32.5t-34.5 28.5t-39 7.5q-37 0 -58 -34t-21 -91v-135h-97v127q0 98 45.5 162.5t128.5 64.5q63 0 104.5 -33.5t84.5 -97.5l22 -30q3 -4 13.5 -21t13.5 -22
t12.5 -18.5t14 -17.5t14 -13t17 -12t17.5 -6t21 -3q40 0 62 34t22 91v135h94zM203 0v1032h121v-141q145 182 368 182q182 0 294 -115.5t112 -324.5v-633h-123v629q0 157 -80.5 243t-218.5 86q-221 0 -352 -217v-741h-121z" />
    <glyph glyph-name="ograve" unicode="&#xf2;" horiz-adv-x="1318" 
d="M596 1196l-236 340h142l215 -340h-121zM659 1073q161 0 289.5 -78t197 -204.5t68.5 -274.5t-68.5 -274.5t-197 -204.5t-289.5 -78q-160 0 -288 78t-196.5 204.5t-68.5 274.5t68.5 274.5t196.5 204.5t288 78zM662 74q119 0 217 62t152 163t54 217q0 181 -121.5 311.5
t-301.5 130.5q-185 0 -308 -130.5t-123 -311.5t123 -311.5t308 -130.5z" />
    <glyph glyph-name="oacute" unicode="&#xf3;" horiz-adv-x="1318" 
d="M717 1196h-119l215 340h141zM659 1073q161 0 289.5 -78t197 -204.5t68.5 -274.5t-68.5 -274.5t-197 -204.5t-289.5 -78q-160 0 -288 78t-196.5 204.5t-68.5 274.5t68.5 274.5t196.5 204.5t288 78zM662 74q119 0 217 62t152 163t54 217q0 181 -121.5 311.5t-301.5 130.5
q-185 0 -308 -130.5t-123 -311.5t123 -311.5t308 -130.5z" />
    <glyph glyph-name="ocircumflex" unicode="&#xf4;" horiz-adv-x="1318" 
d="M471 1196h-115l217 340h175l217 -340h-115l-188 277zM659 1073q161 0 289.5 -78t197 -204.5t68.5 -274.5t-68.5 -274.5t-197 -204.5t-289.5 -78q-160 0 -288 78t-196.5 204.5t-68.5 274.5t68.5 274.5t196.5 204.5t288 78zM662 74q119 0 217 62t152 163t54 217
q0 181 -121.5 311.5t-301.5 130.5q-185 0 -308 -130.5t-123 -311.5t123 -311.5t308 -130.5z" />
    <glyph glyph-name="otilde" unicode="&#xf5;" horiz-adv-x="1318" 
d="M1001 1536v-127q0 -98 -45 -162.5t-129 -64.5q-42 0 -78.5 19.5t-59 45t-50.5 66.5l-23 30q-41 69 -61 87q-28 26 -63 26q-38 0 -59 -34t-21 -91v-135h-97v127q0 98 45.5 162.5t128.5 64.5q63 0 104.5 -33.5t84.5 -97.5l22 -30q3 -4 13.5 -21t13.5 -22t12.5 -18.5
t14 -17.5t14 -13t17 -12t17.5 -6t21 -3q40 0 62 34t22 91v135h94zM659 1073q161 0 289.5 -78t197 -204.5t68.5 -274.5t-68.5 -274.5t-197 -204.5t-289.5 -78q-160 0 -288 78t-196.5 204.5t-68.5 274.5t68.5 274.5t196.5 204.5t288 78zM662 74q119 0 217 62t152 163t54 217
q0 181 -121.5 311.5t-301.5 130.5q-185 0 -308 -130.5t-123 -311.5t123 -311.5t308 -130.5z" />
    <glyph glyph-name="odieresis" unicode="&#xf6;" horiz-adv-x="1318" 
d="M475 1362q-38 0 -64 26t-26 64q0 37 26 62.5t64 25.5q37 0 63.5 -25.5t26.5 -62.5q0 -38 -26.5 -64t-63.5 -26zM844 1362q-37 0 -63.5 26t-26.5 64q0 37 26.5 62.5t63.5 25.5q38 0 64 -25.5t26 -62.5q0 -38 -26 -64t-64 -26zM659 1073q161 0 289.5 -78t197 -204.5
t68.5 -274.5t-68.5 -274.5t-197 -204.5t-289.5 -78q-160 0 -288 78t-196.5 204.5t-68.5 274.5t68.5 274.5t196.5 204.5t288 78zM662 74q119 0 217 62t152 163t54 217q0 181 -121.5 311.5t-301.5 130.5q-185 0 -308 -130.5t-123 -311.5t123 -311.5t308 -130.5z" />
    <glyph glyph-name="divide" unicode="&#xf7;" 
d="M612 887q-36 0 -61 25t-25 61q0 35 25.5 59.5t60.5 24.5q37 0 61.5 -24.5t24.5 -59.5q0 -37 -24.5 -61.5t-61.5 -24.5zM1130 463h-1032v108h1032v-108zM612 -25q-35 0 -60.5 24.5t-25.5 59.5t25.5 60.5t60.5 25.5q36 0 61 -25t25 -61q0 -35 -24.5 -59.5t-61.5 -24.5z" />
    <glyph glyph-name="oslash" unicode="&#xf8;" horiz-adv-x="1318" 
d="M238 -41h-132l148 174q-71 75 -109.5 175t-38.5 208q0 148 68.5 274.5t196.5 204.5t288 78q192 0 332 -106l90 106h133l-149 -172q72 -76 110.5 -176t38.5 -209q0 -148 -68.5 -274.5t-197 -204.5t-289.5 -78q-191 0 -329 107zM231 516q0 -167 107 -293l571 654
q-111 81 -247 81q-185 0 -308 -130.5t-123 -311.5zM662 74q119 0 217 62t152 163t54 217q0 167 -104 293l-569 -655q111 -80 250 -80z" />
    <glyph glyph-name="ugrave" unicode="&#xf9;" horiz-adv-x="1241" 
d="M555 1196l-236 340h142l215 -340h-121zM942 438v594h121v-592q0 -227 -119.5 -354t-320.5 -127q-203 0 -324 127t-121 354v592h121v-594q0 -172 87.5 -268t236.5 -96q145 0 232 96t87 268z" />
    <glyph glyph-name="uacute" unicode="&#xfa;" horiz-adv-x="1241" 
d="M676 1196h-119l215 340h141zM942 438v594h121v-592q0 -227 -119.5 -354t-320.5 -127q-203 0 -324 127t-121 354v592h121v-594q0 -172 87.5 -268t236.5 -96q145 0 232 96t87 268z" />
    <glyph glyph-name="ucircumflex" unicode="&#xfb;" horiz-adv-x="1241" 
d="M430 1196h-115l217 340h175l217 -340h-115l-188 277zM942 438v594h121v-592q0 -227 -119.5 -354t-320.5 -127q-203 0 -324 127t-121 354v592h121v-594q0 -172 87.5 -268t236.5 -96q145 0 232 96t87 268z" />
    <glyph glyph-name="udieresis" unicode="&#xfc;" horiz-adv-x="1241" 
d="M434 1362q-38 0 -64 26t-26 64q0 37 26 62.5t64 25.5q37 0 63.5 -25.5t26.5 -62.5q0 -38 -26.5 -64t-63.5 -26zM803 1362q-37 0 -63.5 26t-26.5 64q0 37 26.5 62.5t63.5 25.5q38 0 64 -25.5t26 -62.5q0 -38 -26 -64t-64 -26zM942 438v594h121v-592q0 -227 -119.5 -354
t-320.5 -127q-203 0 -324 127t-121 354v592h121v-594q0 -172 87.5 -268t236.5 -96q145 0 232 96t87 268z" />
    <glyph glyph-name="yacute" unicode="&#xfd;" horiz-adv-x="1110" 
d="M612 1196h-118l215 340h141zM510 -260q-107 -252 -354 -252q-92 0 -152 31v112q61 -30 137 -30q183 0 262 182l95 219l-455 1030h133l385 -880l375 880h131z" />
    <glyph glyph-name="thorn" unicode="&#xfe;" horiz-adv-x="1357" 
d="M203 -504v1958h121v-563q152 182 395 182q157 0 280 -76.5t188.5 -203t65.5 -277.5t-65.5 -277.5t-188.5 -203t-280 -76.5q-243 0 -395 182v-645h-121zM709 958q-119 0 -220 -56t-165 -159v-454q65 -104 165.5 -159.5t219.5 -55.5q182 0 298.5 128t116.5 314t-116.5 314
t-298.5 128z" />
    <glyph glyph-name="ydieresis" unicode="&#xff;" horiz-adv-x="1110" 
d="M371 1362q-38 0 -64 26t-26 64q0 37 26 62.5t64 25.5q37 0 63.5 -25.5t26.5 -62.5q0 -38 -26.5 -64t-63.5 -26zM739 1362q-37 0 -63.5 26t-26.5 64q0 37 26.5 62.5t63.5 25.5q38 0 64 -25.5t26 -62.5q0 -38 -26 -64t-64 -26zM510 -260q-107 -252 -354 -252q-92 0 -152 31
v112q61 -30 137 -30q183 0 262 182l95 219l-455 1030h133l385 -880l375 880h131z" />
    <glyph glyph-name="Amacron" unicode="&#x100;" horiz-adv-x="1501" 
d="M459 1688v94h581v-94h-581zM70 0l592 1434h178l590 -1434h-138l-184 451h-715l-184 -451h-139zM440 567h621l-309 764z" />
    <glyph glyph-name="amacron" unicode="&#x101;" horiz-adv-x="1148" 
d="M281 1401v94h581v-94h-581zM477 -41q-151 0 -242.5 77.5t-91.5 207.5q0 119 87 199t249 106l367 61v97q0 122 -76.5 189t-202.5 67q-98 0 -177.5 -41.5t-131.5 -116.5l-94 72q69 93 173.5 144.5t233.5 51.5q181 0 288.5 -98.5t107.5 -267.5v-707h-121v147
q-66 -90 -162 -139t-207 -49zM266 246q0 -78 61.5 -129t164.5 -51q110 0 202 55t152 155v238l-340 -57q-121 -21 -180.5 -75.5t-59.5 -135.5z" />
    <glyph glyph-name="Abreve" unicode="&#x102;" horiz-adv-x="1501" 
d="M752 1628q96 0 151.5 52t59.5 153h106q0 -141 -89.5 -219t-229.5 -78q-136 0 -224.5 78t-91.5 219h105q7 -101 63 -153t150 -52zM70 0l592 1434h178l590 -1434h-138l-184 451h-715l-184 -451h-139zM440 567h621l-309 764z" />
    <glyph glyph-name="abreve" unicode="&#x103;" horiz-adv-x="1148" 
d="M573 1288q209 0 209 248h105q0 -168 -82.5 -254t-233.5 -86q-147 0 -230 87t-83 253h104q0 -122 54 -185t157 -63zM477 -41q-151 0 -242.5 77.5t-91.5 207.5q0 119 87 199t249 106l367 61v97q0 122 -76.5 189t-202.5 67q-98 0 -177.5 -41.5t-131.5 -116.5l-94 72
q69 93 173.5 144.5t233.5 51.5q181 0 288.5 -98.5t107.5 -267.5v-707h-121v147q-66 -90 -162 -139t-207 -49zM266 246q0 -78 61.5 -129t164.5 -51q110 0 202 55t152 155v238l-340 -57q-121 -21 -180.5 -75.5t-59.5 -135.5z" />
    <glyph glyph-name="Aogonek" unicode="&#x104;" horiz-adv-x="1501" 
d="M70 0l592 1434h178l590 -1434h-9l-75 -55q-112 -85 -153.5 -137.5t-41.5 -104.5q0 -55 34.5 -84t90.5 -29q85 0 145 31v-94q-64 -31 -155 -31q-104 0 -161.5 58.5t-57.5 140.5q0 72 53.5 143t161.5 150l28 20l-182 443h-715l-184 -451h-139zM440 567h621l-309 764z" />
    <glyph glyph-name="aogonek" unicode="&#x105;" horiz-adv-x="1148" 
d="M477 -41q-151 0 -242.5 77.5t-91.5 207.5q0 119 87 199t249 106l367 61v97q0 122 -76.5 189t-202.5 67q-98 0 -177.5 -41.5t-131.5 -116.5l-94 72q69 93 173.5 144.5t233.5 51.5q181 0 288.5 -98.5t107.5 -267.5v-707l-76 -55q-112 -85 -153.5 -137.5t-41.5 -104.5
q0 -55 34.5 -84t90.5 -29q86 0 146 31v-94q-64 -31 -156 -31q-104 0 -161.5 58.5t-57.5 140.5q0 72 53.5 143t161.5 150l39 26v133q-66 -90 -162 -139t-207 -49zM266 246q0 -78 61.5 -129t164.5 -51q110 0 202 55t152 155v238l-340 -57q-121 -21 -180.5 -75.5t-59.5 -135.5z
" />
    <glyph glyph-name="Cacute" unicode="&#x106;" horiz-adv-x="1572" 
d="M928 1556h-123l231 277h152zM864 82q154 0 281 68.5t211 187.5l106 -84q-102 -136 -256.5 -215.5t-341.5 -79.5q-163 0 -304.5 61t-238 164t-151.5 241.5t-55 291.5t55 291.5t151.5 241.5t238 164t304.5 61q186 0 341.5 -80t256.5 -217l-108 -82q-82 119 -209.5 187.5
t-280.5 68.5q-175 0 -316 -86t-218.5 -231t-77.5 -318t77.5 -318t218.5 -231t316 -86z" />
    <glyph glyph-name="cacute" unicode="&#x107;" horiz-adv-x="1161" 
d="M717 1196h-119l215 340h141zM664 74q105 0 190 46t141 126l99 -76q-73 -98 -184.5 -154.5t-247.5 -56.5q-162 0 -290.5 76.5t-197 203t-68.5 277.5t68.5 277.5t197 203t290.5 76.5q136 0 247.5 -56.5t184.5 -154.5l-99 -76q-55 80 -141.5 126t-191.5 46
q-123 0 -222.5 -59.5t-154 -160.5t-54.5 -222q0 -186 122.5 -314t310.5 -128z" />
    <glyph glyph-name="Ccircumflex" unicode="&#x108;" horiz-adv-x="1572" 
d="M668 1556h-115l231 277h162l230 -277h-113l-197 211zM864 82q154 0 281 68.5t211 187.5l106 -84q-102 -136 -256.5 -215.5t-341.5 -79.5q-163 0 -304.5 61t-238 164t-151.5 241.5t-55 291.5t55 291.5t151.5 241.5t238 164t304.5 61q186 0 341.5 -80t256.5 -217l-108 -82
q-82 119 -209.5 187.5t-280.5 68.5q-175 0 -316 -86t-218.5 -231t-77.5 -318t77.5 -318t218.5 -231t316 -86z" />
    <glyph glyph-name="ccircumflex" unicode="&#x109;" horiz-adv-x="1161" 
d="M471 1196h-115l217 340h175l217 -340h-115l-188 277zM664 74q105 0 190 46t141 126l99 -76q-73 -98 -184.5 -154.5t-247.5 -56.5q-162 0 -290.5 76.5t-197 203t-68.5 277.5t68.5 277.5t197 203t290.5 76.5q136 0 247.5 -56.5t184.5 -154.5l-99 -76q-55 80 -141.5 126
t-191.5 46q-123 0 -222.5 -59.5t-154 -160.5t-54.5 -222q0 -186 122.5 -314t310.5 -128z" />
    <glyph glyph-name="Cdotaccent" unicode="&#x10a;" horiz-adv-x="1572" 
d="M864 1651q-37 0 -62.5 24.5t-25.5 61.5t25.5 61.5t62.5 24.5t62.5 -24.5t25.5 -61.5t-25.5 -61.5t-62.5 -24.5zM864 82q154 0 281 68.5t211 187.5l106 -84q-102 -136 -256.5 -215.5t-341.5 -79.5q-163 0 -304.5 61t-238 164t-151.5 241.5t-55 291.5t55 291.5t151.5 241.5
t238 164t304.5 61q186 0 341.5 -80t256.5 -217l-108 -82q-82 119 -209.5 187.5t-280.5 68.5q-175 0 -316 -86t-218.5 -231t-77.5 -318t77.5 -318t218.5 -231t316 -86z" />
    <glyph glyph-name="cdotaccent" unicode="&#x10b;" horiz-adv-x="1161" 
d="M659 1358q-39 0 -66.5 26.5t-27.5 65.5q0 37 28 63.5t66 26.5q39 0 66 -26.5t27 -63.5q0 -40 -26.5 -66t-66.5 -26zM664 74q105 0 190 46t141 126l99 -76q-73 -98 -184.5 -154.5t-247.5 -56.5q-162 0 -290.5 76.5t-197 203t-68.5 277.5t68.5 277.5t197 203t290.5 76.5
q136 0 247.5 -56.5t184.5 -154.5l-99 -76q-55 80 -141.5 126t-191.5 46q-123 0 -222.5 -59.5t-154 -160.5t-54.5 -222q0 -186 122.5 -314t310.5 -128z" />
    <glyph glyph-name="Ccaron" unicode="&#x10c;" horiz-adv-x="1572" 
d="M668 1833l198 -211l197 211h113l-230 -277h-162l-231 277h115zM864 82q154 0 281 68.5t211 187.5l106 -84q-102 -136 -256.5 -215.5t-341.5 -79.5q-163 0 -304.5 61t-238 164t-151.5 241.5t-55 291.5t55 291.5t151.5 241.5t238 164t304.5 61q186 0 341.5 -80t256.5 -217
l-108 -82q-82 119 -209.5 187.5t-280.5 68.5q-175 0 -316 -86t-218.5 -231t-77.5 -318t77.5 -318t218.5 -231t316 -86z" />
    <glyph glyph-name="ccaron" unicode="&#x10d;" horiz-adv-x="1161" 
d="M471 1536l191 -276l188 276h115l-217 -340h-175l-217 340h115zM664 74q105 0 190 46t141 126l99 -76q-73 -98 -184.5 -154.5t-247.5 -56.5q-162 0 -290.5 76.5t-197 203t-68.5 277.5t68.5 277.5t197 203t290.5 76.5q136 0 247.5 -56.5t184.5 -154.5l-99 -76
q-55 80 -141.5 126t-191.5 46q-123 0 -222.5 -59.5t-154 -160.5t-54.5 -222q0 -186 122.5 -314t310.5 -128z" />
    <glyph glyph-name="Dcaron" unicode="&#x10e;" horiz-adv-x="1644" 
d="M625 1833l198 -211l197 211h113l-230 -277h-162l-231 277h115zM238 0v1434h544q163 0 304 -58t237.5 -155.5t151.5 -228.5t55 -275t-55 -275t-151.5 -228.5t-237.5 -155.5t-304 -58h-544zM784 1313h-415v-1192h415q130 0 244 47.5t193.5 128t125.5 190t46 230.5
q0 122 -46 231.5t-125.5 190t-193.5 127.5t-244 47z" />
    <glyph glyph-name="dcaron" unicode="&#x10f;" horiz-adv-x="1347" 
d="M106 516q0 112 38.5 213.5t107 177.5t169 121t218.5 45q243 0 395 -182v645h121v-1536h-121v141q-152 -182 -395 -182q-118 0 -218.5 45t-169 121t-107 177.5t-38.5 213.5zM1350 1155h-113l176 381h139zM233 516q0 -121 52.5 -222t148.5 -160.5t215 -59.5q121 0 221 55.5
t164 159.5v454q-65 105 -165 160t-220 55q-119 0 -215 -59.5t-148.5 -160.5t-52.5 -222z" />
    <glyph glyph-name="Dcroat" unicode="&#x110;" horiz-adv-x="1644" 
d="M238 0v686h-238v96h238v652h544q163 0 304 -58t237.5 -155.5t151.5 -228.5t55 -275t-55 -275t-151.5 -228.5t-237.5 -155.5t-304 -58h-544zM770 686h-401v-565h415q130 0 244 47.5t193.5 128t125.5 190t46 230.5q0 122 -46 231.5t-125.5 190t-193.5 127.5t-244 47h-415
v-531h401v-96z" />
    <glyph glyph-name="dcroat" unicode="&#x111;" horiz-adv-x="1353" 
d="M106 516q0 112 38.5 213.5t107 177.5t169 121t218.5 45q243 0 395 -182v330h-426v94h426v221h121v-221h199v-94h-199v-1221h-121v141q-152 -182 -395 -182q-118 0 -218.5 45t-169 121t-107 177.5t-38.5 213.5zM233 516q0 -121 52.5 -222t148.5 -160.5t215 -59.5
q121 0 221 55.5t164 159.5v454q-65 105 -165 160t-220 55q-119 0 -215 -59.5t-148.5 -160.5t-52.5 -222z" />
    <glyph glyph-name="Emacron" unicode="&#x112;" horiz-adv-x="1126" 
d="M317 1688v94h582v-94h-582zM238 0v1434h729v-117h-598v-531h516v-114h-516v-555h598v-117h-729z" />
    <glyph glyph-name="emacron" unicode="&#x113;" horiz-adv-x="1193" 
d="M330 1401v94h581v-94h-581zM1098 170q-72 -99 -184 -155t-250 -56q-164 0 -293 76.5t-197 203t-68 277.5q0 242 143 399.5t372 157.5q204 0 328 -124.5t124 -315.5q0 -53 -8 -86h-834v-35q0 -188 122.5 -315t312.5 -127q106 0 193.5 46t146.5 128zM623 965
q-147 0 -247 -83t-132 -235h706q-5 136 -96 227t-231 91z" />
    <glyph glyph-name="Ebreve" unicode="&#x114;" horiz-adv-x="1126" 
d="M610 1628q96 0 151.5 52t59.5 153h107q0 -141 -89.5 -219t-230.5 -78q-136 0 -224 78t-91 219h104q7 -101 63 -153t150 -52zM238 0v1434h729v-117h-598v-531h516v-114h-516v-555h598v-117h-729z" />
    <glyph glyph-name="ebreve" unicode="&#x115;" horiz-adv-x="1193" 
d="M623 1288q208 0 208 248h105q0 -168 -82 -254t-233 -86q-148 0 -231 87t-83 253h105q0 -122 54 -185t157 -63zM1098 170q-72 -99 -184 -155t-250 -56q-164 0 -293 76.5t-197 203t-68 277.5q0 242 143 399.5t372 157.5q204 0 328 -124.5t124 -315.5q0 -53 -8 -86h-834v-35
q0 -188 122.5 -315t312.5 -127q106 0 193.5 46t146.5 128zM623 965q-147 0 -247 -83t-132 -235h706q-5 136 -96 227t-231 91z" />
    <glyph glyph-name="Edotaccent" unicode="&#x116;" horiz-adv-x="1126" 
d="M608 1651q-37 0 -62.5 24.5t-25.5 61.5t25.5 61.5t62.5 24.5t62.5 -24.5t25.5 -61.5t-25.5 -61.5t-62.5 -24.5zM238 0v1434h729v-117h-598v-531h516v-114h-516v-555h598v-117h-729z" />
    <glyph glyph-name="edotaccent" unicode="&#x117;" horiz-adv-x="1193" 
d="M621 1358q-39 0 -67 26.5t-28 65.5q0 37 28.5 63.5t66.5 26.5q39 0 65.5 -26.5t26.5 -63.5q0 -40 -26 -66t-66 -26zM1098 170q-72 -99 -184 -155t-250 -56q-164 0 -293 76.5t-197 203t-68 277.5q0 242 143 399.5t372 157.5q204 0 328 -124.5t124 -315.5q0 -53 -8 -86
h-834v-35q0 -188 122.5 -315t312.5 -127q106 0 193.5 46t146.5 128zM623 965q-147 0 -247 -83t-132 -235h706q-5 136 -96 227t-231 91z" />
    <glyph glyph-name="Eogonek" unicode="&#x118;" horiz-adv-x="1126" 
d="M238 0v1434h729v-117h-598v-531h516v-114h-516v-555h598v-117l-76 -55q-112 -85 -153.5 -137.5t-41.5 -104.5q0 -55 34.5 -84t90.5 -29q86 0 146 31v-94q-64 -31 -156 -31q-104 0 -161.5 58.5t-57.5 140.5q0 72 53.5 143t161.5 150l18 12h-587z" />
    <glyph glyph-name="eogonek" unicode="&#x119;" horiz-adv-x="1193" 
d="M502 -305q0 127 178 264h-16q-164 0 -293 76.5t-197 203t-68 277.5q0 242 143 399.5t372 157.5q204 0 328 -124.5t124 -315.5q0 -53 -8 -86h-834v-35q0 -188 122.5 -315t312.5 -127q106 0 193.5 46t146.5 128l92 -74q-82 -116 -226 -174l-71 -51q-112 -85 -153.5 -137.5
t-41.5 -104.5q0 -55 34.5 -84t90.5 -29q86 0 146 31v-94q-64 -31 -156 -31q-104 0 -161.5 58.5t-57.5 140.5zM623 965q-147 0 -247 -83t-132 -235h706q-5 136 -96 227t-231 91z" />
    <glyph glyph-name="Ecaron" unicode="&#x11a;" horiz-adv-x="1126" 
d="M412 1833l198 -211l197 211h113l-230 -277h-162l-231 277h115zM238 0v1434h729v-117h-598v-531h516v-114h-516v-555h598v-117h-729z" />
    <glyph glyph-name="ecaron" unicode="&#x11b;" horiz-adv-x="1193" 
d="M432 1536l191 -276l188 276h115l-217 -340h-174l-218 340h115zM1098 170q-72 -99 -184 -155t-250 -56q-164 0 -293 76.5t-197 203t-68 277.5q0 242 143 399.5t372 157.5q204 0 328 -124.5t124 -315.5q0 -53 -8 -86h-834v-35q0 -188 122.5 -315t312.5 -127q106 0 193.5 46
t146.5 128zM623 965q-147 0 -247 -83t-132 -235h706q-5 136 -96 227t-231 91z" />
    <glyph glyph-name="Gcircumflex" unicode="&#x11c;" horiz-adv-x="1675" 
d="M668 1556h-115l231 277h162l230 -277h-113l-197 211zM885 82q151 0 276.5 59t210.5 164v365h-446v121h577v-537q-102 -137 -262.5 -216t-355.5 -79q-168 0 -313.5 61t-244.5 164t-155.5 241.5t-56.5 291.5t55 291.5t151.5 241.5t238 164t304.5 61q186 0 341.5 -80
t256.5 -217l-108 -82q-82 119 -209.5 187.5t-280.5 68.5q-175 0 -316 -86t-218.5 -231t-77.5 -318t80 -318t226 -231t327 -86z" />
    <glyph glyph-name="gcircumflex" unicode="&#x11d;" horiz-adv-x="1136" 
d="M350 1192h-114l217 340h174l217 -340h-115l-188 276zM74 -190q0 79 39.5 143t122.5 123q-78 52 -78 147q0 59 34 110t95 87q-69 51 -107.5 127t-38.5 162q0 151 109 258.5t282 107.5q105 0 193 -43h387v-106h-258q72 -98 72 -217q0 -151 -109.5 -259t-284.5 -108
q-81 0 -165 31q-45 -26 -70 -61t-25 -70q0 -84 99 -84h315q202 0 299.5 -83.5t97.5 -224.5q0 -159 -144 -260.5t-372 -101.5q-221 0 -357 87t-136 235zM535 444q125 0 197.5 77.5t72.5 187.5q0 112 -72 188t-198 76q-129 0 -202 -76t-73 -188q0 -111 73.5 -188t201.5 -77z
M195 -180q0 -104 102.5 -166t267.5 -62q180 0 289 68t109 184q0 203 -281 203h-328q-159 -95 -159 -227z" />
    <glyph glyph-name="Gbreve" unicode="&#x11e;" horiz-adv-x="1675" 
d="M866 1628q96 0 151.5 52t59.5 153h107q0 -141 -89.5 -219t-230.5 -78q-136 0 -224 78t-91 219h104q7 -101 63 -153t150 -52zM885 82q151 0 276.5 59t210.5 164v365h-446v121h577v-537q-102 -137 -262.5 -216t-355.5 -79q-168 0 -313.5 61t-244.5 164t-155.5 241.5
t-56.5 291.5t55 291.5t151.5 241.5t238 164t304.5 61q186 0 341.5 -80t256.5 -217l-108 -82q-82 119 -209.5 187.5t-280.5 68.5q-175 0 -316 -86t-218.5 -231t-77.5 -318t80 -318t226 -231t327 -86z" />
    <glyph glyph-name="gbreve" unicode="&#x11f;" horiz-adv-x="1136" 
d="M541 1284q209 0 209 248h104q0 -168 -82 -254t-233 -86q-148 0 -231 87t-83 253h105q0 -122 54 -185t157 -63zM74 -190q0 79 39.5 143t122.5 123q-78 52 -78 147q0 59 34 110t95 87q-69 51 -107.5 127t-38.5 162q0 151 109 258.5t282 107.5q105 0 193 -43h387v-106h-258
q72 -98 72 -217q0 -151 -109.5 -259t-284.5 -108q-81 0 -165 31q-45 -26 -70 -61t-25 -70q0 -84 99 -84h315q202 0 299.5 -83.5t97.5 -224.5q0 -159 -144 -260.5t-372 -101.5q-221 0 -357 87t-136 235zM535 444q125 0 197.5 77.5t72.5 187.5q0 112 -72 188t-198 76
q-129 0 -202 -76t-73 -188q0 -111 73.5 -188t201.5 -77zM195 -180q0 -104 102.5 -166t267.5 -62q180 0 289 68t109 184q0 203 -281 203h-328q-159 -95 -159 -227z" />
    <glyph glyph-name="Gdotaccent" unicode="&#x120;" horiz-adv-x="1675" 
d="M864 1651q-37 0 -62.5 24.5t-25.5 61.5t25.5 61.5t62.5 24.5t62.5 -24.5t25.5 -61.5t-25.5 -61.5t-62.5 -24.5zM885 82q151 0 276.5 59t210.5 164v365h-446v121h577v-537q-102 -137 -262.5 -216t-355.5 -79q-168 0 -313.5 61t-244.5 164t-155.5 241.5t-56.5 291.5
t55 291.5t151.5 241.5t238 164t304.5 61q186 0 341.5 -80t256.5 -217l-108 -82q-82 119 -209.5 187.5t-280.5 68.5q-175 0 -316 -86t-218.5 -231t-77.5 -318t80 -318t226 -231t327 -86z" />
    <glyph glyph-name="gdotaccent" unicode="&#x121;" horiz-adv-x="1136" 
d="M539 1354q-39 0 -67 26.5t-28 65.5q0 37 28.5 63.5t66.5 26.5q39 0 65.5 -26.5t26.5 -63.5q0 -40 -26 -66t-66 -26zM74 -190q0 79 39.5 143t122.5 123q-78 52 -78 147q0 59 34 110t95 87q-69 51 -107.5 127t-38.5 162q0 151 109 258.5t282 107.5q105 0 193 -43h387v-106
h-258q72 -98 72 -217q0 -151 -109.5 -259t-284.5 -108q-81 0 -165 31q-45 -26 -70 -61t-25 -70q0 -84 99 -84h315q202 0 299.5 -83.5t97.5 -224.5q0 -159 -144 -260.5t-372 -101.5q-221 0 -357 87t-136 235zM535 444q125 0 197.5 77.5t72.5 187.5q0 112 -72 188t-198 76
q-129 0 -202 -76t-73 -188q0 -111 73.5 -188t201.5 -77zM195 -180q0 -104 102.5 -166t267.5 -62q180 0 289 68t109 184q0 203 -281 203h-328q-159 -95 -159 -227z" />
    <glyph glyph-name="Gcedilla" unicode="&#x122;" horiz-adv-x="1675" 
d="M885 82q151 0 276.5 59t210.5 164v365h-446v121h577v-537q-102 -137 -262.5 -216t-355.5 -79q-168 0 -313.5 61t-244.5 164t-155.5 241.5t-56.5 291.5t55 291.5t151.5 241.5t238 164t304.5 61q186 0 341.5 -80t256.5 -217l-108 -82q-82 119 -209.5 187.5t-280.5 68.5
q-175 0 -316 -86t-218.5 -231t-77.5 -318t80 -318t226 -231t327 -86zM723 -504h-119l215 340h142z" />
    <glyph glyph-name="gcedilla" unicode="&#x123;" horiz-adv-x="1136" 
d="M711 1532h118l-213 -340h-143zM74 -190q0 79 39.5 143t122.5 123q-78 52 -78 147q0 59 34 110t95 87q-69 51 -107.5 127t-38.5 162q0 151 109 258.5t282 107.5q105 0 193 -43h387v-106h-258q72 -98 72 -217q0 -151 -109.5 -259t-284.5 -108q-81 0 -165 31
q-45 -26 -70 -61t-25 -70q0 -84 99 -84h315q202 0 299.5 -83.5t97.5 -224.5q0 -159 -144 -260.5t-372 -101.5q-221 0 -357 87t-136 235zM535 444q125 0 197.5 77.5t72.5 187.5q0 112 -72 188t-198 76q-129 0 -202 -76t-73 -188q0 -111 73.5 -188t201.5 -77zM195 -180
q0 -104 102.5 -166t267.5 -62q180 0 289 68t109 184q0 203 -281 203h-328q-159 -95 -159 -227z" />
    <glyph glyph-name="Hcircumflex" unicode="&#x124;" horiz-adv-x="1699" 
d="M651 1556h-114l231 277h162l229 -277h-112l-197 211zM238 0v1434h131v-643h962v643h131v-1434h-131v670h-962v-670h-131z" />
    <glyph glyph-name="hcircumflex" unicode="&#x125;" horiz-adv-x="1277" 
d="M440 1659h-114l231 276h162l229 -276h-112l-197 211zM203 0v1536h121v-647q144 184 368 184q182 0 294 -115.5t112 -324.5v-633h-123v629q0 157 -80.5 243t-218.5 86q-219 0 -352 -217v-741h-121z" />
    <glyph glyph-name="Hbar" unicode="&#x126;" horiz-adv-x="1699" 
d="M238 0v1079h-238v97h238v258h131v-258h962v258h131v-258h238v-97h-238v-1079h-131v670h-962v-670h-131zM369 791h962v288h-962v-288z" />
    <glyph glyph-name="hbar" unicode="&#x127;" horiz-adv-x="1277" 
d="M203 0v1221h-203v94h203v221h121v-221h417v-94h-417v-332q144 184 368 184q182 0 294 -115.5t112 -324.5v-633h-123v629q0 157 -80.5 243t-218.5 86q-219 0 -352 -217v-741h-121z" />
    <glyph glyph-name="Itilde" unicode="&#x128;" horiz-adv-x="606" 
d="M-41 1556v103q0 83 46.5 138.5t129.5 55.5q27 0 52 -7.5t39.5 -14t36.5 -27t28.5 -27.5t30.5 -34l22 -27q3 -4 13.5 -17t14 -17t13 -14t14.5 -14t14 -10.5t16.5 -9t17.5 -4.5t20 -2q39 0 61.5 27.5t22.5 73.5v104h94v-102q0 -83 -46.5 -139t-129.5 -56q-41 0 -75 15.5
t-54.5 35t-47.5 49.5q-2 3 -3 4l-3 3t-3 4l-23 26q-2 2 -12.5 15t-12.5 15t-11 12.5t-12.5 13t-12 10t-14 9t-14 5.5t-17 5t-17.5 1q-39 0 -60.5 -26t-21.5 -72v-105h-96zM238 0v1434h131v-1434h-131z" />
    <glyph glyph-name="itilde" unicode="&#x129;" horiz-adv-x="526" 
d="M604 1536v-127q0 -98 -45 -162.5t-129 -64.5q-42 0 -78.5 19.5t-59 45t-50.5 66.5l-23 30q-20 33 -27 44.5t-24.5 32.5t-34.5 28.5t-39 7.5q-38 0 -59 -34t-21 -91v-135h-96v127q0 98 45.5 162.5t128.5 64.5q63 0 104.5 -33.5t84.5 -97.5l22 -30q3 -4 13.5 -21t13.5 -22
t12.5 -18.5t14 -17.5t14 -13t17 -12t17.5 -6t21 -3q40 0 62 34t22 91v135h94zM203 0v1032h121v-1032h-121z" />
    <glyph glyph-name="Imacron" unicode="&#x12a;" horiz-adv-x="606" 
d="M12 1688v94h582v-94h-582zM238 0v1434h131v-1434h-131z" />
    <glyph glyph-name="imacron" unicode="&#x12b;" horiz-adv-x="526" 
d="M-29 1401v94h582v-94h-582zM203 0v1032h121v-1032h-121z" />
    <glyph glyph-name="Ibreve" unicode="&#x12c;" horiz-adv-x="606" 
d="M305 1628q96 0 151.5 52t59.5 153h107q0 -141 -89.5 -219t-230.5 -78q-136 0 -224 78t-91 219h104q7 -101 63 -153t150 -52zM238 0v1434h131v-1434h-131z" />
    <glyph glyph-name="ibreve" unicode="&#x12d;" horiz-adv-x="526" 
d="M264 1288q209 0 209 248h105q0 -168 -82.5 -254t-233.5 -86q-147 0 -230 87t-83 253h104q0 -122 54 -185t157 -63zM203 0v1032h121v-1032h-121z" />
    <glyph glyph-name="Iogonek" unicode="&#x12e;" horiz-adv-x="606" 
d="M-12 -305q0 72 53.5 143t161.5 150l35 24v1422h131v-1434h-7l-75 -55q-112 -85 -153.5 -137.5t-41.5 -104.5q0 -55 34.5 -84t90.5 -29q85 0 145 31v-94q-64 -31 -155 -31q-104 0 -161.5 58.5t-57.5 140.5z" />
    <glyph glyph-name="iogonek" unicode="&#x12f;" horiz-adv-x="526" 
d="M264 1358q-39 0 -66.5 26.5t-27.5 65.5q0 37 28 63.5t66 26.5t65 -26.5t27 -63.5q0 -39 -26.5 -65.5t-65.5 -26.5zM-51 -305q0 72 53.5 143t161.5 150l39 26v1018h121v-1032l-76 -55q-112 -85 -153.5 -137.5t-41.5 -104.5q0 -55 34.5 -84t90.5 -29q86 0 146 31v-94
q-64 -31 -156 -31q-104 0 -161.5 58.5t-57.5 140.5z" />
    <glyph glyph-name="Idotaccent" unicode="&#x130;" horiz-adv-x="606" 
d="M303 1651q-37 0 -62.5 24.5t-25.5 61.5t25.5 61.5t62.5 24.5t62.5 -24.5t25.5 -61.5t-25.5 -61.5t-62.5 -24.5zM238 0v1434h131v-1434h-131z" />
    <glyph glyph-name="dotlessi" unicode="&#x131;" horiz-adv-x="526" 
d="M203 0v1032h121v-1032h-121z" />
    <glyph glyph-name="IJ" unicode="&#x132;" horiz-adv-x="1212" 
d="M238 0v1434h131v-1434h-131zM979 90q0 -412 -381 -412q-49 0 -90 13v116q34 -10 80 -10q58 0 102.5 13t81.5 44t56.5 89.5t19.5 142.5v1348h131v-1344z" />
    <glyph glyph-name="ij" unicode="&#x133;" horiz-adv-x="1052" 
d="M264 1358q-39 0 -66.5 26.5t-27.5 65.5q0 37 28 63.5t66 26.5t65 -26.5t27 -63.5q0 -39 -26.5 -65.5t-65.5 -26.5zM788 1358q-39 0 -66.5 26.5t-27.5 65.5q0 37 28 63.5t66 26.5t65.5 -26.5t27.5 -63.5q0 -39 -27 -65.5t-66 -26.5zM203 0v1032h121v-1032h-121zM850 -150
q0 -190 -89 -276t-255 -86q-93 0 -166 25v110q64 -22 154 -22q55 0 95 10.5t73 37.5t50 77t17 124v1182h121v-1182z" />
    <glyph glyph-name="Jcircumflex" unicode="&#x134;" horiz-adv-x="630" 
d="M133 1556h-115l232 277h162l229 -277h-113l-196 211zM397 90q0 -412 -381 -412q-49 0 -90 13v116q34 -10 80 -10q58 0 102.5 13t81.5 44t56.5 89.5t19.5 142.5v1348h131v-1344z" />
    <glyph glyph-name="jcircumflex" unicode="&#x135;" horiz-adv-x="526" 
d="M74 1196h-115l217 340h174l217 -340h-114l-189 277zM324 -150q0 -190 -89 -276t-255 -86q-93 0 -166 25v110q64 -22 153 -22q55 0 95 10.5t73.5 37.5t50.5 77t17 124v1182h121v-1182z" />
    <glyph glyph-name="Kcedilla" unicode="&#x136;" horiz-adv-x="1441" 
d="M238 0v1434h131v-783l819 783h168l-613 -588l641 -846h-165l-566 760l-284 -273v-487h-131zM600 -504h-119l215 340h142z" />
    <glyph glyph-name="kcedilla" unicode="&#x137;" horiz-adv-x="1101" 
d="M205 0v1434h119v-938l555 536h155l-436 -424l455 -608h-152l-391 522l-186 -180v-342h-119zM440 -504h-118l215 340h141z" />
    <glyph glyph-name="kra" unicode="&#x138;" horiz-adv-x="1101" 
d="M205 0v1032h119v-532l550 532h160l-436 -424l455 -608h-152l-391 522l-186 -180v-342h-119z" />
    <glyph glyph-name="Lacute" unicode="&#x139;" horiz-adv-x="1044" 
d="M367 1556h-123l231 277h152zM238 0v1434h131v-1313h598v-121h-729z" />
    <glyph glyph-name="lacute" unicode="&#x13a;" horiz-adv-x="526" 
d="M326 1659h-123l231 276h152zM203 0v1536h121v-1536h-121z" />
    <glyph glyph-name="Lcedilla" unicode="&#x13b;" horiz-adv-x="1044" 
d="M238 0v1434h131v-1313h598v-121h-729zM457 -504h-119l215 340h141z" />
    <glyph glyph-name="lcedilla" unicode="&#x13c;" horiz-adv-x="526" 
d="M203 0v1536h121v-1536h-121zM100 -504h-118l215 340h141z" />
    <glyph glyph-name="Lcaron" unicode="&#x13d;" horiz-adv-x="1044" 
d="M238 0v1434h131v-1313h598v-121h-729zM578 1053h-113l176 381h139z" />
    <glyph glyph-name="lcaron" unicode="&#x13e;" horiz-adv-x="526" 
d="M203 0v1536h121v-1536h-121zM524 1155h-112l176 381h139z" />
    <glyph glyph-name="Ldot" unicode="&#x13f;" horiz-adv-x="1044" 
d="M238 0v1434h131v-1313h598v-121h-729zM825 676q-41 0 -71.5 30.5t-30.5 71.5t30 70t72 29q43 0 72 -29t29 -70q0 -42 -29.5 -72t-71.5 -30z" />
    <glyph glyph-name="ldot" unicode="&#x140;" horiz-adv-x="604" 
d="M203 0v1536h121v-1536h-121zM567 424q-41 0 -71.5 30.5t-30.5 71.5t30 70t72 29q43 0 72 -29t29 -70q0 -42 -29.5 -72t-71.5 -30z" />
    <glyph glyph-name="Lslash" unicode="&#x141;" horiz-adv-x="1044" 
d="M238 0v575l-238 -122v106l238 125v750h131v-682l383 200v-108l-383 -199v-524h598v-121h-729z" />
    <glyph glyph-name="lslash" unicode="&#x142;" horiz-adv-x="526" 
d="M203 0v760l-203 -107v107l203 106v670h121v-608l202 106v-106l-202 -107v-821h-121z" />
    <glyph glyph-name="Nacute" unicode="&#x143;" horiz-adv-x="1699" 
d="M911 1556h-123l232 277h151zM238 0v1434h176l917 -1282v1282h131v-1434h-176l-917 1282v-1282h-131z" />
    <glyph glyph-name="nacute" unicode="&#x144;" horiz-adv-x="1277" 
d="M715 1196h-119l215 340h141zM203 0v1032h121v-141q145 182 368 182q182 0 294 -115.5t112 -324.5v-633h-123v629q0 157 -80.5 243t-218.5 86q-221 0 -352 -217v-741h-121z" />
    <glyph glyph-name="Ncedilla" unicode="&#x145;" horiz-adv-x="1699" 
d="M238 0v1434h176l917 -1282v1282h131v-1434h-176l-917 1282v-1282h-131zM686 -504h-119l215 340h142z" />
    <glyph glyph-name="ncedilla" unicode="&#x146;" horiz-adv-x="1277" 
d="M203 0v1032h121v-141q145 182 368 182q182 0 294 -115.5t112 -324.5v-633h-123v629q0 157 -80.5 243t-218.5 86q-221 0 -352 -217v-741h-121zM489 -504h-118l215 340h141z" />
    <glyph glyph-name="Ncaron" unicode="&#x147;" horiz-adv-x="1699" 
d="M651 1833l199 -211l197 211h112l-229 -277h-162l-231 277h114zM238 0v1434h176l917 -1282v1282h131v-1434h-176l-917 1282v-1282h-131z" />
    <glyph glyph-name="ncaron" unicode="&#x148;" horiz-adv-x="1277" 
d="M469 1536l190 -276l189 276h115l-218 -340h-174l-217 340h115zM203 0v1032h121v-141q145 182 368 182q182 0 294 -115.5t112 -324.5v-633h-123v629q0 157 -80.5 243t-218.5 86q-221 0 -352 -217v-741h-121z" />
    <glyph glyph-name="Eng" unicode="&#x14a;" horiz-adv-x="1699" 
d="M238 0v1434h178l915 -1215v1215h131v-1387q0 -207 -96 -301t-266 -94q-60 0 -109 12v117q47 -12 96 -12q113 0 176.5 53.5t67.5 189.5l-962 1278v-1290h-131z" />
    <glyph glyph-name="eng" unicode="&#x14b;" horiz-adv-x="1277" 
d="M324 1032v-141q142 182 360 182q186 0 300 -115.5t114 -324.5v-783q0 -191 -89.5 -276.5t-256.5 -85.5q-91 0 -164 25v110q64 -22 153 -22q55 0 95 10.5t73 37.5t49.5 77t16.5 124v779q0 157 -82.5 243t-224.5 86q-114 0 -197 -56t-147 -161v-741h-121v1032h121z" />
    <glyph glyph-name="Omacron" unicode="&#x14c;" horiz-adv-x="1724" 
d="M573 1688v94h582v-94h-582zM864 1475q162 0 302.5 -61t237 -164t151.5 -241.5t55 -291.5t-55 -291.5t-151.5 -241.5t-237 -164t-302.5 -61q-163 0 -304.5 61t-238 164t-151.5 241.5t-55 291.5t55 291.5t151.5 241.5t238 164t304.5 61zM864 82q173 0 313.5 86.5t218 231.5
t77.5 317q0 173 -77.5 318t-218 231t-313.5 86q-175 0 -316 -86t-218.5 -231t-77.5 -318t77.5 -318t218.5 -231t316 -86z" />
    <glyph glyph-name="omacron" unicode="&#x14d;" horiz-adv-x="1318" 
d="M369 1401v94h581v-94h-581zM659 1073q161 0 289.5 -78t197 -204.5t68.5 -274.5t-68.5 -274.5t-197 -204.5t-289.5 -78q-160 0 -288 78t-196.5 204.5t-68.5 274.5t68.5 274.5t196.5 204.5t288 78zM662 74q119 0 217 62t152 163t54 217q0 181 -121.5 311.5t-301.5 130.5
q-185 0 -308 -130.5t-123 -311.5t123 -311.5t308 -130.5z" />
    <glyph glyph-name="Obreve" unicode="&#x14e;" horiz-adv-x="1724" 
d="M866 1628q96 0 151.5 52t59.5 153h107q0 -141 -89.5 -219t-230.5 -78q-136 0 -224 78t-91 219h104q7 -101 63 -153t150 -52zM864 1475q162 0 302.5 -61t237 -164t151.5 -241.5t55 -291.5t-55 -291.5t-151.5 -241.5t-237 -164t-302.5 -61q-163 0 -304.5 61t-238 164
t-151.5 241.5t-55 291.5t55 291.5t151.5 241.5t238 164t304.5 61zM864 82q173 0 313.5 86.5t218 231.5t77.5 317q0 173 -77.5 318t-218 231t-313.5 86q-175 0 -316 -86t-218.5 -231t-77.5 -318t77.5 -318t218.5 -231t316 -86z" />
    <glyph glyph-name="obreve" unicode="&#x14f;" horiz-adv-x="1318" 
d="M662 1288q208 0 208 248h105q0 -168 -82.5 -254t-233.5 -86q-147 0 -230 87t-83 253h105q0 -122 54 -185t157 -63zM659 1073q161 0 289.5 -78t197 -204.5t68.5 -274.5t-68.5 -274.5t-197 -204.5t-289.5 -78q-160 0 -288 78t-196.5 204.5t-68.5 274.5t68.5 274.5
t196.5 204.5t288 78zM662 74q119 0 217 62t152 163t54 217q0 181 -121.5 311.5t-301.5 130.5q-185 0 -308 -130.5t-123 -311.5t123 -311.5t308 -130.5z" />
    <glyph glyph-name="Ohungarumlaut" unicode="&#x150;" horiz-adv-x="1724" 
d="M733 1556h-123l232 277h153zM1118 1556h-125l232 277h153zM864 1475q162 0 302.5 -61t237 -164t151.5 -241.5t55 -291.5t-55 -291.5t-151.5 -241.5t-237 -164t-302.5 -61q-163 0 -304.5 61t-238 164t-151.5 241.5t-55 291.5t55 291.5t151.5 241.5t238 164t304.5 61z
M864 82q173 0 313.5 86.5t218 231.5t77.5 317q0 173 -77.5 318t-218 231t-313.5 86q-175 0 -316 -86t-218.5 -231t-77.5 -318t77.5 -318t218.5 -231t316 -86z" />
    <glyph glyph-name="ohungarumlaut" unicode="&#x151;" horiz-adv-x="1318" 
d="M539 1196h-119l213 340h143zM897 1196h-119l215 340h142zM659 1073q161 0 289.5 -78t197 -204.5t68.5 -274.5t-68.5 -274.5t-197 -204.5t-289.5 -78q-160 0 -288 78t-196.5 204.5t-68.5 274.5t68.5 274.5t196.5 204.5t288 78zM662 74q119 0 217 62t152 163t54 217
q0 181 -121.5 311.5t-301.5 130.5q-185 0 -308 -130.5t-123 -311.5t123 -311.5t308 -130.5z" />
    <glyph glyph-name="OE" unicode="&#x152;" horiz-adv-x="2164" 
d="M864 1434h1141v-121h-598v-522h516v-121h-516v-549h598v-121h-1141q-163 0 -304.5 58t-238 155.5t-151.5 228.5t-55 275t55 275t151.5 228.5t238 155.5t304.5 58zM860 121h416v1192h-416q-173 0 -313.5 -81t-217.5 -217t-77 -298q0 -163 77.5 -299t217.5 -216.5
t313 -80.5z" />
    <glyph glyph-name="oe" unicode="&#x153;" horiz-adv-x="2193" 
d="M659 1073q165 0 292 -82t194 -219q60 140 180 220.5t281 80.5q200 0 324 -125t124 -315q0 -44 -10 -86h-830v-35q0 -188 121.5 -315t311.5 -127q107 0 195 46.5t145 127.5l92 -74q-74 -99 -185 -155t-249 -56q-172 0 -301.5 83.5t-194.5 223.5q-65 -138 -194 -222.5
t-296 -84.5q-160 0 -288 78t-196.5 204.5t-68.5 274.5t68.5 274.5t196.5 204.5t288 78zM1339 862q-80 -80 -110 -211h700q-5 135 -96 224.5t-234 89.5q-157 0 -260 -103zM662 74q119 0 217 62t152 163t54 217q0 181 -121.5 311.5t-301.5 130.5q-185 0 -308 -130.5
t-123 -311.5t123 -311.5t308 -130.5z" />
    <glyph glyph-name="Racute" unicode="&#x154;" horiz-adv-x="1277" 
d="M670 1556h-123l231 277h152zM238 0v1434h344q204 0 323 -106t119 -284q0 -127 -64.5 -219t-181.5 -135l469 -690h-160l-436 664q-58 -5 -69 -5h-213v-659h-131zM586 1317h-217v-541h217q142 0 221.5 71.5t79.5 201.5q0 126 -80 197t-221 71z" />
    <glyph glyph-name="racute" unicode="&#x155;" horiz-adv-x="800" 
d="M442 1196h-118l215 340h141zM203 0v1032h121v-147q66 83 142.5 125.5t176.5 42.5q42 0 86 -13v-120q-47 12 -94 12q-102 0 -176 -49t-135 -148v-735h-121z" />
    <glyph glyph-name="Rcedilla" unicode="&#x156;" horiz-adv-x="1277" 
d="M238 0v1434h344q204 0 323 -106t119 -284q0 -127 -64.5 -219t-181.5 -135l469 -690h-160l-436 664q-58 -5 -69 -5h-213v-659h-131zM586 1317h-217v-541h217q142 0 221.5 71.5t79.5 201.5q0 126 -80 197t-221 71zM539 -504h-119l215 340h141z" />
    <glyph glyph-name="rcedilla" unicode="&#x157;" horiz-adv-x="800" 
d="M203 0v1032h121v-147q66 83 142.5 125.5t176.5 42.5q42 0 86 -13v-120q-47 12 -94 12q-102 0 -176 -49t-135 -148v-735h-121zM193 -504h-119l215 340h141z" />
    <glyph glyph-name="Rcaron" unicode="&#x158;" horiz-adv-x="1277" 
d="M410 1833l198 -211l197 211h113l-230 -277h-162l-231 277h115zM238 0v1434h344q204 0 323 -106t119 -284q0 -127 -64.5 -219t-181.5 -135l469 -690h-160l-436 664q-58 -5 -69 -5h-213v-659h-131zM586 1317h-217v-541h217q142 0 221.5 71.5t79.5 201.5q0 126 -80 197
t-221 71z" />
    <glyph glyph-name="rcaron" unicode="&#x159;" horiz-adv-x="800" 
d="M197 1536l190 -276l188 276h115l-217 -340h-174l-217 340h115zM203 0v1032h121v-147q66 83 142.5 125.5t176.5 42.5q42 0 86 -13v-120q-47 12 -94 12q-102 0 -176 -49t-135 -148v-735h-121z" />
    <glyph glyph-name="Sacute" unicode="&#x15a;" horiz-adv-x="1204" 
d="M682 1556h-123l232 277h151zM141 197l97 88q163 -205 374 -205q132 0 209.5 77.5t77.5 192.5q0 54 -23.5 100.5t-63.5 81.5t-92 67t-109.5 61.5t-115 60.5t-109.5 69.5t-92 82.5t-63.5 105t-23.5 132q0 150 110.5 257.5t278.5 107.5q269 0 428 -230l-100 -82
q-128 193 -326 193q-115 0 -185.5 -70t-70.5 -176q0 -70 38 -127t99 -98t135 -79.5t148 -81t135 -91.5t99 -122t38 -163q0 -170 -118.5 -278.5t-301.5 -108.5q-286 0 -473 236z" />
    <glyph glyph-name="sacute" unicode="&#x15b;" horiz-adv-x="890" 
d="M508 1196h-119l215 340h141zM80 135l90 76q118 -148 279 -148q98 0 155.5 55.5t57.5 137.5q0 53 -29 93t-75 65.5t-101.5 48.5t-111.5 50t-102 61.5t-75 92t-29 132.5q0 118 87.5 196t224.5 78q105 0 191 -44.5t142 -121.5l-90 -71q-86 133 -239 133q-92 0 -143.5 -46.5
t-51.5 -123.5q0 -54 28.5 -95.5t74.5 -68t101.5 -50t111 -50.5t101.5 -60.5t74.5 -88t28.5 -126.5q0 -132 -93.5 -216.5t-235.5 -84.5q-233 0 -371 176z" />
    <glyph glyph-name="Scircumflex" unicode="&#x15c;" horiz-adv-x="1204" 
d="M422 1556h-115l232 277h161l230 -277h-113l-196 211zM141 197l97 88q163 -205 374 -205q132 0 209.5 77.5t77.5 192.5q0 54 -23.5 100.5t-63.5 81.5t-92 67t-109.5 61.5t-115 60.5t-109.5 69.5t-92 82.5t-63.5 105t-23.5 132q0 150 110.5 257.5t278.5 107.5
q269 0 428 -230l-100 -82q-128 193 -326 193q-115 0 -185.5 -70t-70.5 -176q0 -70 38 -127t99 -98t135 -79.5t148 -81t135 -91.5t99 -122t38 -163q0 -170 -118.5 -278.5t-301.5 -108.5q-286 0 -473 236z" />
    <glyph glyph-name="scircumflex" unicode="&#x15d;" horiz-adv-x="890" 
d="M262 1196h-115l218 340h174l217 -340h-115l-188 277zM80 135l90 76q118 -148 279 -148q98 0 155.5 55.5t57.5 137.5q0 53 -29 93t-75 65.5t-101.5 48.5t-111.5 50t-102 61.5t-75 92t-29 132.5q0 118 87.5 196t224.5 78q105 0 191 -44.5t142 -121.5l-90 -71
q-86 133 -239 133q-92 0 -143.5 -46.5t-51.5 -123.5q0 -54 28.5 -95.5t74.5 -68t101.5 -50t111 -50.5t101.5 -60.5t74.5 -88t28.5 -126.5q0 -132 -93.5 -216.5t-235.5 -84.5q-233 0 -371 176z" />
    <glyph glyph-name="Scedilla" unicode="&#x15e;" horiz-adv-x="1204" 
d="M141 197l97 88q163 -205 374 -205q132 0 209.5 77.5t77.5 192.5q0 54 -23.5 100.5t-63.5 81.5t-92 67t-109.5 61.5t-115 60.5t-109.5 69.5t-92 82.5t-63.5 105t-23.5 132q0 150 110.5 257.5t278.5 107.5q269 0 428 -230l-100 -82q-128 193 -326 193q-115 0 -185.5 -70
t-70.5 -176q0 -70 38 -127t99 -98t135 -79.5t148 -81t135 -91.5t99 -122t38 -163q0 -152 -96.5 -256.5t-253.5 -126.5l-88 -112q8 2 22 2q90 0 149.5 -48t59.5 -126q0 -80 -60.5 -133.5t-156.5 -53.5q-125 0 -204 70l53 78q69 -62 147 -62q54 0 85.5 27.5t31.5 73.5t-32 71
t-93 25q-42 0 -82 -21l-57 60l110 147q-254 15 -428 234z" />
    <glyph glyph-name="scedilla" unicode="&#x15f;" horiz-adv-x="890" 
d="M80 135l90 76q118 -148 279 -148q98 0 155.5 55.5t57.5 137.5q0 53 -29 93t-75 65.5t-101.5 48.5t-111.5 50t-102 61.5t-75 92t-29 132.5q0 118 87.5 196t224.5 78q105 0 191 -44.5t142 -121.5l-90 -71q-86 133 -239 133q-92 0 -143.5 -46.5t-51.5 -123.5
q0 -54 28.5 -95.5t74.5 -68t101.5 -50t111 -50.5t101.5 -60.5t74.5 -88t28.5 -126.5q0 -120 -76.5 -201t-199.5 -96l-86 -110q8 2 22 2q90 0 149.5 -48t59.5 -126q0 -80 -60.5 -133.5t-156.5 -53.5q-126 0 -205 70l54 78q69 -62 147 -62q54 0 85.5 27.5t31.5 73.5t-32 71
t-93 25q-42 0 -82 -21l-57 60l110 147q-191 18 -311 172z" />
    <glyph glyph-name="Scaron" unicode="&#x160;" horiz-adv-x="1204" 
d="M422 1833l199 -211l196 211h113l-230 -277h-161l-232 277h115zM141 197l97 88q163 -205 374 -205q132 0 209.5 77.5t77.5 192.5q0 54 -23.5 100.5t-63.5 81.5t-92 67t-109.5 61.5t-115 60.5t-109.5 69.5t-92 82.5t-63.5 105t-23.5 132q0 150 110.5 257.5t278.5 107.5
q269 0 428 -230l-100 -82q-128 193 -326 193q-115 0 -185.5 -70t-70.5 -176q0 -70 38 -127t99 -98t135 -79.5t148 -81t135 -91.5t99 -122t38 -163q0 -170 -118.5 -278.5t-301.5 -108.5q-286 0 -473 236z" />
    <glyph glyph-name="scaron" unicode="&#x161;" horiz-adv-x="890" 
d="M262 1536l191 -276l188 276h115l-217 -340h-174l-218 340h115zM80 135l90 76q118 -148 279 -148q98 0 155.5 55.5t57.5 137.5q0 53 -29 93t-75 65.5t-101.5 48.5t-111.5 50t-102 61.5t-75 92t-29 132.5q0 118 87.5 196t224.5 78q105 0 191 -44.5t142 -121.5l-90 -71
q-86 133 -239 133q-92 0 -143.5 -46.5t-51.5 -123.5q0 -54 28.5 -95.5t74.5 -68t101.5 -50t111 -50.5t101.5 -60.5t74.5 -88t28.5 -126.5q0 -132 -93.5 -216.5t-235.5 -84.5q-233 0 -371 176z" />
    <glyph glyph-name="Tcedilla" unicode="&#x162;" horiz-adv-x="1277" 
d="M78 1313v121h1122v-121h-495v-1307l12 -2l-119 -151q8 2 23 2q89 0 148.5 -48t59.5 -126q0 -80 -60.5 -133.5t-156.5 -53.5q-125 0 -204 70l53 78q69 -62 147 -62q54 0 85.5 27.5t31.5 73.5t-32 71t-93 25q-42 0 -82 -21l-57 60l139 184h-27v1313h-495z" />
    <glyph glyph-name="tcedilla" unicode="&#x163;" horiz-adv-x="854" 
d="M256 326v596h-195v110h195v258h123v-258h387v-110h-387v-596q0 -132 60 -183t175 -51q85 0 152 23v-111q-65 -21 -143 -24l-101 -127q8 2 23 2q90 0 149.5 -48t59.5 -126q0 -80 -60.5 -133.5t-156.5 -53.5q-126 0 -205 70l53 78q69 -62 147 -62q54 0 85.5 27.5t31.5 73.5
t-32 71t-93 25q-42 0 -82 -21l-57 60l129 170q-258 40 -258 340z" />
    <glyph glyph-name="Tcaron" unicode="&#x164;" horiz-adv-x="1277" 
d="M442 1833l199 -211l197 211h112l-229 -277h-162l-231 277h114zM78 1313v121h1122v-121h-495v-1313h-132v1313h-495z" />
    <glyph glyph-name="tcaron" unicode="&#x165;" horiz-adv-x="849" 
d="M578 1155h-113l176 381h139zM256 326v596h-195v110h195v258h123v-258h387v-110h-387v-596q0 -132 60 -183t175 -51q85 0 152 23v-111q-70 -24 -164 -24q-346 0 -346 346z" />
    <glyph glyph-name="Tbar" unicode="&#x166;" horiz-adv-x="1277" 
d="M254 604v96h319v613h-495v121h1122v-121h-495v-613h319v-96h-319v-604h-132v604h-319z" />
    <glyph glyph-name="tbar" unicode="&#x167;" horiz-adv-x="849" 
d="M256 326v258h-197v96h197v242h-195v110h195v258h123v-258h387v-110h-387v-242h389v-96h-389v-258q0 -132 60 -183t175 -51q85 0 152 23v-111q-70 -24 -164 -24q-346 0 -346 346z" />
    <glyph glyph-name="Utilde" unicode="&#x168;" horiz-adv-x="1474" 
d="M393 1556v103q0 83 46.5 138.5t129.5 55.5q27 0 52 -7.5t39.5 -14t36.5 -27t28.5 -27.5t30.5 -34l22 -27q3 -4 13.5 -17t14 -17t13 -14t14.5 -14t14 -10.5t16.5 -9t17.5 -4.5t20 -2q39 0 61.5 27.5t22.5 73.5v104h94v-102q0 -83 -46.5 -139t-129.5 -56q-41 0 -75 15.5
t-54.5 35t-47.5 49.5q-2 3 -3 4l-3 3t-3 4l-23 26q-2 2 -12.5 15t-12.5 15t-11 12.5t-12.5 13t-12 10t-14 9t-14 5.5t-17 5t-17.5 1q-39 0 -60.5 -26t-21.5 -72v-105h-96zM1147 524v910h131v-906q0 -269 -146.5 -419t-392.5 -150t-394 150t-148 419v906h131v-910
q0 -210 111 -326t298 -116t298.5 116t111.5 326z" />
    <glyph glyph-name="utilde" unicode="&#x169;" horiz-adv-x="1241" 
d="M961 1536v-127q0 -98 -45.5 -162.5t-129.5 -64.5q-42 0 -78.5 19.5t-59 45t-50.5 66.5l-23 30q-41 69 -61 87q-28 26 -63 26q-38 0 -59 -34t-21 -91v-135h-97v127q0 98 46 162.5t129 64.5q62 0 103.5 -33.5t84.5 -97.5l22 -30q3 -4 13.5 -21t13.5 -22t12.5 -18.5
t14 -17.5t14 -13t17 -12t17.5 -6t21 -3q40 0 62 34t22 91v135h95zM942 438v594h121v-592q0 -227 -119.5 -354t-320.5 -127q-203 0 -324 127t-121 354v592h121v-594q0 -172 87.5 -268t236.5 -96q145 0 232 96t87 268z" />
    <glyph glyph-name="Umacron" unicode="&#x16a;" horiz-adv-x="1474" 
d="M446 1688v94h582v-94h-582zM1147 524v910h131v-906q0 -269 -146.5 -419t-392.5 -150t-394 150t-148 419v906h131v-910q0 -210 111 -326t298 -116t298.5 116t111.5 326z" />
    <glyph glyph-name="umacron" unicode="&#x16b;" horiz-adv-x="1241" 
d="M328 1401v94h581v-94h-581zM942 438v594h121v-592q0 -227 -119.5 -354t-320.5 -127q-203 0 -324 127t-121 354v592h121v-594q0 -172 87.5 -268t236.5 -96q145 0 232 96t87 268z" />
    <glyph glyph-name="Ubreve" unicode="&#x16c;" horiz-adv-x="1474" 
d="M739 1628q96 0 151.5 52t59.5 153h107q0 -141 -89.5 -219t-230.5 -78q-136 0 -224 78t-91 219h104q7 -101 63 -153t150 -52zM1147 524v910h131v-906q0 -269 -146.5 -419t-392.5 -150t-394 150t-148 419v906h131v-910q0 -210 111 -326t298 -116t298.5 116t111.5 326z" />
    <glyph glyph-name="ubreve" unicode="&#x16d;" horiz-adv-x="1241" 
d="M621 1288q208 0 208 248h105q0 -168 -82.5 -254t-233.5 -86q-147 0 -230 87t-83 253h105q0 -122 54 -185t157 -63zM942 438v594h121v-592q0 -227 -119.5 -354t-320.5 -127q-203 0 -324 127t-121 354v592h121v-594q0 -172 87.5 -268t236.5 -96q145 0 232 96t87 268z" />
    <glyph glyph-name="Uring" unicode="&#x16e;" horiz-adv-x="1474" 
d="M737 1516q-98 0 -169.5 62.5t-71.5 166.5q0 106 71.5 169.5t169.5 63.5q102 0 174 -63.5t72 -169.5q0 -105 -72 -167t-174 -62zM739 1599q64 0 108 40t44 106q0 68 -43.5 108.5t-108.5 40.5q-64 0 -107.5 -40.5t-43.5 -108.5q0 -66 43.5 -106t107.5 -40zM1147 524v910
h131v-906q0 -269 -146.5 -419t-392.5 -150t-394 150t-148 419v906h131v-910q0 -210 111 -326t298 -116t298.5 116t111.5 326z" />
    <glyph glyph-name="uring" unicode="&#x16f;" horiz-adv-x="1241" 
d="M618 1139q-97 0 -169 65t-72 168q0 105 72 171.5t169 66.5q101 0 173.5 -66.5t72.5 -171.5q0 -104 -72.5 -168.5t-173.5 -64.5zM625 1217q67 3 110.5 46t40.5 113q-1 71 -47.5 113.5t-114.5 40.5q-65 -2 -108.5 -47t-42.5 -115q3 -68 50 -109.5t112 -41.5zM942 438v594
h121v-592q0 -227 -119.5 -354t-320.5 -127q-203 0 -324 127t-121 354v592h121v-594q0 -172 87.5 -268t236.5 -96q145 0 232 96t87 268z" />
    <glyph glyph-name="Uhungarumlaut" unicode="&#x170;" horiz-adv-x="1474" 
d="M606 1556h-123l232 277h153zM991 1556h-125l232 277h153zM1147 524v910h131v-906q0 -269 -146.5 -419t-392.5 -150t-394 150t-148 419v906h131v-910q0 -210 111 -326t298 -116t298.5 116t111.5 326z" />
    <glyph glyph-name="uhungarumlaut" unicode="&#x171;" horiz-adv-x="1241" 
d="M498 1196h-119l213 340h143zM856 1196h-119l215 340h142zM942 438v594h121v-592q0 -227 -119.5 -354t-320.5 -127q-203 0 -324 127t-121 354v592h121v-594q0 -172 87.5 -268t236.5 -96q145 0 232 96t87 268z" />
    <glyph glyph-name="Uogonek" unicode="&#x172;" horiz-adv-x="1474" 
d="M584 -305q0 127 178 264h-23q-246 0 -394 150t-148 419v906h131v-910q0 -210 111 -326t298 -116t298.5 116t111.5 326v910h131v-906q0 -205 -87 -342t-243 -192l-65 -49q-112 -85 -153.5 -137.5t-41.5 -104.5q0 -55 34.5 -84t90.5 -29q85 0 145 31v-94q-64 -31 -155 -31
q-104 0 -161.5 58.5t-57.5 140.5z" />
    <glyph glyph-name="uogonek" unicode="&#x173;" horiz-adv-x="1241" 
d="M442 -305q0 126 179 264q-203 2 -323 128.5t-120 352.5v592h121v-594q0 -172 87.5 -268t236.5 -96q145 0 232 96t87 268v594h121v-592q0 -168 -67 -283t-189 -163l-66 -49q-111 -84 -152.5 -137t-41.5 -105q0 -55 34.5 -84t90.5 -29q85 0 145 31v-94q-64 -31 -155 -31
q-104 0 -162 58.5t-58 140.5z" />
    <glyph glyph-name="Wcircumflex" unicode="&#x174;" horiz-adv-x="2064" 
d="M836 1556h-115l231 277h162l229 -277h-112l-197 211zM76 1434h137l338 -1297l401 1297h181l403 -1295l340 1295h133l-377 -1434h-182l-406 1296l-407 -1296h-182z" />
    <glyph glyph-name="wcircumflex" unicode="&#x175;" horiz-adv-x="1595" 
d="M608 1196h-114l217 340h174l217 -340h-115l-188 277zM82 1032h123l235 -911l273 911h168l274 -907l236 907h122l-268 -1032h-170l-278 915l-279 -915h-168z" />
    <glyph glyph-name="Ycircumflex" unicode="&#x176;" horiz-adv-x="1339" 
d="M473 1556h-115l232 277h162l229 -277h-113l-196 211zM1311 1434l-576 -764v-670h-131v670l-575 764h157l486 -641l483 641h156z" />
    <glyph glyph-name="ycircumflex" unicode="&#x177;" horiz-adv-x="1110" 
d="M367 1196h-115l217 340h174l217 -340h-115l-188 277zM510 -260q-107 -252 -354 -252q-92 0 -152 31v112q61 -30 137 -30q183 0 262 182l95 219l-455 1030h133l385 -880l375 880h131z" />
    <glyph glyph-name="Ydieresis" unicode="&#x178;" horiz-adv-x="1339" 
d="M485 1651q-36 0 -61 25t-25 61q0 35 25.5 60.5t60.5 25.5t61.5 -25.5t26.5 -60.5q0 -36 -26 -61t-62 -25zM854 1651q-37 0 -62.5 24.5t-25.5 61.5t25.5 61.5t62.5 24.5q36 0 61 -25t25 -61t-25 -61t-61 -25zM1311 1434l-576 -764v-670h-131v670l-575 764h157l486 -641
l483 641h156z" />
    <glyph glyph-name="Zacute" unicode="&#x179;" horiz-adv-x="1335" 
d="M748 1556h-123l231 277h152zM104 0v121l949 1192h-928v121h1081v-121l-946 -1192h967v-121h-1123z" />
    <glyph glyph-name="zacute" unicode="&#x17a;" horiz-adv-x="999" 
d="M557 1196h-119l215 340h142zM92 0v111l658 811h-644v110h787v-110l-657 -811h671v-111h-815z" />
    <glyph glyph-name="Zdotaccent" unicode="&#x17b;" horiz-adv-x="1335" 
d="M684 1651q-37 0 -62.5 24.5t-25.5 61.5t25.5 61.5t62.5 24.5t62.5 -24.5t25.5 -61.5t-25.5 -61.5t-62.5 -24.5zM104 0v121l949 1192h-928v121h1081v-121l-946 -1192h967v-121h-1123z" />
    <glyph glyph-name="zdotaccent" unicode="&#x17c;" horiz-adv-x="999" 
d="M500 1358q-39 0 -66.5 26.5t-27.5 65.5q0 37 28 63.5t66 26.5q39 0 65.5 -26.5t26.5 -63.5q0 -40 -26 -66t-66 -26zM92 0v111l658 811h-644v110h787v-110l-657 -811h671v-111h-815z" />
    <glyph glyph-name="Zcaron" unicode="&#x17d;" horiz-adv-x="1335" 
d="M487 1833l199 -211l197 211h112l-229 -277h-162l-231 277h114zM104 0v121l949 1192h-928v121h1081v-121l-946 -1192h967v-121h-1123z" />
    <glyph glyph-name="zcaron" unicode="&#x17e;" horiz-adv-x="999" 
d="M311 1536l191 -276l188 276h115l-217 -340h-174l-217 340h114zM92 0v111l658 811h-644v110h787v-110l-657 -811h671v-111h-815z" />
    <glyph glyph-name="Scommaaccent" unicode="&#x218;" horiz-adv-x="1204" 
d="M141 197l97 88q163 -205 374 -205q132 0 209.5 77.5t77.5 192.5q0 54 -23.5 100.5t-63.5 81.5t-92 67t-109.5 61.5t-115 60.5t-109.5 69.5t-92 82.5t-63.5 105t-23.5 132q0 150 110.5 257.5t278.5 107.5q269 0 428 -230l-100 -82q-128 193 -326 193q-115 0 -185.5 -70
t-70.5 -176q0 -70 38 -127t99 -98t135 -79.5t148 -81t135 -91.5t99 -122t38 -163q0 -170 -118.5 -278.5t-301.5 -108.5q-286 0 -473 236zM461 -504h-119l215 340h141z" />
    <glyph glyph-name="scommaaccent" unicode="&#x219;" horiz-adv-x="890" 
d="M80 135l90 76q118 -148 279 -148q98 0 155.5 55.5t57.5 137.5q0 53 -29 93t-75 65.5t-101.5 48.5t-111.5 50t-102 61.5t-75 92t-29 132.5q0 118 87.5 196t224.5 78q105 0 191 -44.5t142 -121.5l-90 -71q-86 133 -239 133q-92 0 -143.5 -46.5t-51.5 -123.5
q0 -54 28.5 -95.5t74.5 -68t101.5 -50t111 -50.5t101.5 -60.5t74.5 -88t28.5 -126.5q0 -132 -93.5 -216.5t-235.5 -84.5q-233 0 -371 176zM283 -504h-119l215 340h141z" />
    <glyph glyph-name="Tcommaaccent" unicode="&#x21a;" horiz-adv-x="1277" 
d="M78 1313v121h1122v-121h-495v-1313h-132v1313h-495zM477 -504h-119l215 340h142z" />
    <glyph glyph-name="tcommaaccent" unicode="&#x21b;" horiz-adv-x="849" 
d="M256 326v596h-195v110h195v258h123v-258h387v-110h-387v-596q0 -132 60 -183t175 -51q85 0 152 23v-111q-70 -24 -164 -24q-346 0 -346 346zM387 -504h-119l215 340h142z" />
    <glyph glyph-name="dotlessj" unicode="&#x237;" horiz-adv-x="526" 
d="M324 -150q0 -190 -89 -276t-255 -86q-93 0 -166 25v110q64 -22 153 -22q55 0 95 10.5t73.5 37.5t50.5 77t17 124v1182h121v-1182z" />
    <glyph glyph-name="circumflex" unicode="&#x2c6;" horiz-adv-x="1230" 
d="M426 1196h-115l217 340h174l218 -340h-115l-189 277z" />
    <glyph glyph-name="caron" unicode="&#x2c7;" horiz-adv-x="1230" 
d="M426 1536l190 -276l189 276h115l-218 -340h-174l-217 340h115z" />
    <glyph glyph-name="breve" unicode="&#x2d8;" 
d="M614 1288q209 0 209 248h105q0 -168 -82.5 -254t-233.5 -86q-147 0 -230 87t-83 253h104q0 -122 54 -185t157 -63z" />
    <glyph glyph-name="dotaccent" unicode="&#x2d9;" 
d="M614 1358q-39 0 -66.5 26.5t-27.5 65.5q0 37 28 63.5t66 26.5q39 0 66 -26.5t27 -63.5q0 -40 -26.5 -66t-66.5 -26z" />
    <glyph glyph-name="ring" unicode="&#x2da;" 
d="M612 1139q-97 0 -169 65t-72 168q0 105 72 171.5t169 66.5q101 0 173.5 -66.5t72.5 -171.5q0 -104 -72.5 -168.5t-173.5 -64.5zM618 1217q67 3 111 46t41 113q-1 71 -47.5 113.5t-114.5 40.5q-65 -2 -108.5 -47t-42.5 -115q3 -68 49.5 -109.5t111.5 -41.5z" />
    <glyph glyph-name="ogonek" unicode="&#x2db;" horiz-adv-x="1230" 
d="M428 -305q0 72 53.5 143t161.5 150l70 49l90 -37l-76 -55q-112 -85 -153.5 -137.5t-41.5 -104.5q0 -55 34.5 -84t90.5 -29q86 0 146 31v-94q-64 -31 -156 -31q-104 0 -161.5 58.5t-57.5 140.5z" />
    <glyph glyph-name="tilde" unicode="&#x2dc;" horiz-adv-x="1226" 
d="M956 1536v-127q0 -98 -45 -162.5t-129 -64.5q-42 0 -78.5 19.5t-59 45t-50.5 66.5l-23 30q-20 33 -27 44.5t-24.5 32.5t-34.5 28.5t-39 7.5q-37 0 -58 -34t-21 -91v-135h-97v127q0 98 45.5 162.5t128.5 64.5q63 0 104.5 -33.5t84.5 -97.5l22 -30q3 -4 13.5 -21t13.5 -22
t12.5 -18.5t14 -17.5t14 -13t17 -12t17.5 -6t21 -3q40 0 62 34t22 91v135h94z" />
    <glyph glyph-name="hungarumlaut" unicode="&#x2dd;" 
d="M377 1196h-119l213 340h143zM735 1196h-119l215 340h142z" />
    <glyph glyph-name="gravecmb" unicode="&#x300;" horiz-adv-x="0" 
d="M-63 1196l-236 340h141l215 -340h-120z" />
    <glyph glyph-name="acutecmb" unicode="&#x301;" horiz-adv-x="0" 
d="M57 1196h-118l215 340h141z" />
    <glyph glyph-name="circumflexcmb" unicode="&#x302;" horiz-adv-x="0" 
d="M-188 1196h-115l217 340h174l217 -340h-115l-188 277z" />
    <glyph glyph-name="tildecmb" unicode="&#x303;" horiz-adv-x="0" 
d="M342 1536v-127q0 -98 -45 -162.5t-129 -64.5q-42 0 -78.5 19.5t-59 45t-50.5 66.5l-23 30q-20 33 -27 44.5t-24.5 32.5t-34.5 28.5t-39 7.5q-38 0 -59 -34t-21 -91v-135h-96v127q0 98 45.5 162.5t128.5 64.5q62 0 103.5 -33.5t84.5 -97.5l23 -30q3 -4 13.5 -21t13.5 -22
t12.5 -18.5t14 -17.5t14 -13t17 -12t17.5 -6t21 -3q40 0 62 34t22 91v135h94z" />
    <glyph glyph-name="macroncmb" unicode="&#x304;" horiz-adv-x="0" 
d="M-291 1401v94h582v-94h-582z" />
    <glyph glyph-name="brevecmb" unicode="&#x306;" horiz-adv-x="0" 
d="M2 1288q209 0 209 248h104q0 -168 -82 -254t-233 -86q-147 0 -230 87t-83 253h104q0 -122 54 -185t157 -63z" />
    <glyph glyph-name="dotaccentcmb" unicode="&#x307;" horiz-adv-x="0" 
d="M0 1358q-39 0 -66.5 26.5t-27.5 65.5q0 37 28 63.5t66 26.5q39 0 65.5 -26.5t26.5 -63.5q0 -40 -26 -66t-66 -26z" />
    <glyph glyph-name="dieresiscmb" unicode="&#x308;" horiz-adv-x="0" 
d="M-184 1362q-38 0 -64 26t-26 64q0 37 26 62.5t64 25.5q37 0 63.5 -25.5t26.5 -62.5q0 -38 -26.5 -64t-63.5 -26zM184 1362q-37 0 -63.5 26t-26.5 64q0 37 26.5 62.5t63.5 25.5q38 0 64 -25.5t26 -62.5q0 -38 -26 -64t-64 -26z" />
    <glyph glyph-name="ringabovecmb" unicode="&#x30a;" horiz-adv-x="0" 
d="M0 1139q-97 0 -169.5 65t-72.5 168q0 105 72.5 171.5t169.5 66.5q101 0 173.5 -66.5t72.5 -171.5q0 -104 -72.5 -168.5t-173.5 -64.5zM6 1217q67 3 111 46t41 113q-1 71 -47.5 113.5t-114.5 40.5q-65 -2 -109 -47t-43 -115q3 -68 50 -109.5t112 -41.5z" />
    <glyph glyph-name="hungarumlautcmb" unicode="&#x30b;" horiz-adv-x="0" 
d="M-121 1196h-119l213 340h144zM238 1196h-119l215 340h141z" />
    <glyph glyph-name="caroncmb" unicode="&#x30c;" horiz-adv-x="0" 
d="M-188 1536l190 -276l188 276h115l-217 -340h-174l-217 340h115z" />
    <glyph glyph-name="commaturnedabovecmb" unicode="&#x312;" horiz-adv-x="0" 
d="M172 1536h119l-213 -340h-144z" />
    <glyph glyph-name="commaaccentbelowcmb" unicode="&#x326;" horiz-adv-x="0" 
d="M-162 -504h-119l215 340h142z" />
    <glyph glyph-name="cedillacmb" unicode="&#x327;" horiz-adv-x="0" 
d="M-10 18l102 -14l-119 -151q8 2 23 2q90 0 149.5 -48t59.5 -126q0 -80 -60.5 -133.5t-156.5 -53.5q-126 0 -205 70l53 78q69 -62 148 -62q54 0 85 27.5t31 73.5t-32 71t-93 25q-41 0 -81 -21l-58 60z" />
    <glyph glyph-name="ogonekcmb" unicode="&#x328;" horiz-adv-x="0" 
d="M-375 -305q0 72 53.5 143t161.5 150l70 49l90 -37l-76 -55q-111 -84 -152.5 -137t-41.5 -105q0 -55 34.5 -84t90.5 -29q85 0 145 31v-94q-64 -31 -156 -31q-104 0 -161.5 58.5t-57.5 140.5z" />
    <glyph glyph-name="endash" unicode="&#x2013;" horiz-adv-x="1105" 
d="M41 578h1024v-107h-1024v107z" />
    <glyph glyph-name="emdash" unicode="&#x2014;" horiz-adv-x="2211" 
d="M41 578h2130v-107h-2130v107z" />
    <glyph glyph-name="quoteleft" unicode="&#x2018;" horiz-adv-x="552" 
d="M319 1434h111l-166 -525h-139z" />
    <glyph glyph-name="quoteright" unicode="&#x2019;" horiz-adv-x="552" 
d="M236 909h-111l166 525h139z" />
    <glyph glyph-name="quotesinglbase" unicode="&#x201a;" horiz-adv-x="552" 
d="M236 -328h-111l166 498h139z" />
    <glyph glyph-name="quotedblleft" unicode="&#x201c;" horiz-adv-x="909" 
d="M319 1434h111l-166 -525h-139zM676 1434h110l-165 -525h-140z" />
    <glyph glyph-name="quotedblright" unicode="&#x201d;" horiz-adv-x="909" 
d="M236 909h-111l166 525h139zM592 909h-111l166 525h139z" />
    <glyph glyph-name="quotedblbase" unicode="&#x201e;" horiz-adv-x="909" 
d="M236 -328h-111l166 498h139zM592 -328h-111l166 498h139z" />
    <glyph glyph-name="dagger" unicode="&#x2020;" horiz-adv-x="811" 
d="M348 225v889h-319v107h319v315h117v-315h315v-107h-315v-889h-117z" />
    <glyph glyph-name="daggerdbl" unicode="&#x2021;" horiz-adv-x="811" 
d="M348 225v316h-319v106h319v467h-319v107h319v315h117v-315h315v-107h-315v-467h315v-106h-315v-316h-117z" />
    <glyph glyph-name="bullet" unicode="&#x2022;" horiz-adv-x="626" 
d="M315 309q-93 0 -159 65t-66 156q0 89 65.5 151t159.5 62q95 0 159.5 -61.5t64.5 -151.5q0 -92 -64.5 -156.5t-159.5 -64.5z" />
    <glyph glyph-name="ellipsis" unicode="&#x2026;" horiz-adv-x="1382" 
d="M279 -23q-41 0 -72 31t-31 72t30.5 69.5t72.5 28.5q43 0 71.5 -28.5t28.5 -69.5q0 -42 -29 -72.5t-71 -30.5zM692 -23q-41 0 -71.5 31t-30.5 72t30 69.5t72 28.5q40 0 70.5 -28.5t30.5 -69.5t-30.5 -72t-70.5 -31zM1106 -23q-41 0 -71.5 31t-30.5 72t30 69.5t72 28.5
q43 0 71.5 -28.5t28.5 -69.5q0 -42 -29 -72.5t-71 -30.5z" />
    <glyph glyph-name="perthousand" unicode="&#x2030;" horiz-adv-x="2447" 
d="M424 1479q149 0 245.5 -100.5t96.5 -241.5t-96.5 -241.5t-245.5 -100.5q-150 0 -246 100t-96 242t96 242t246 100zM248 4l1048 1434h131l-1048 -1434h-131zM426 885q101 0 169.5 74.5t68.5 177.5t-68.5 176t-169.5 73q-105 0 -174.5 -73t-69.5 -176t69.5 -177.5
t174.5 -74.5zM1253 645q149 0 245.5 -100.5t96.5 -241.5t-96.5 -241.5t-245.5 -100.5q-150 0 -246 100t-96 242t96 242t246 100zM2023 645q149 0 245.5 -100.5t96.5 -241.5t-96.5 -241.5t-245.5 -100.5q-150 0 -246 100t-96 242t96 242t246 100zM1255 51q101 0 169.5 74.5
t68.5 177.5t-68.5 176.5t-169.5 73.5q-105 0 -174 -73.5t-69 -176.5q0 -104 69 -178t174 -74zM2025 51q101 0 169.5 74.5t68.5 177.5t-68.5 176.5t-169.5 73.5q-105 0 -174 -73.5t-69 -176.5q0 -104 69 -178t174 -74z" />
    <glyph glyph-name="guilsinglleft" unicode="&#x2039;" horiz-adv-x="651" 
d="M530 98h-135l-276 408l276 412h135l-276 -410z" />
    <glyph glyph-name="guilsinglright" unicode="&#x203a;" horiz-adv-x="651" 
d="M121 918h133l276 -408l-276 -412h-133l276 412z" />
    <glyph glyph-name="fraction" unicode="&#x2044;" horiz-adv-x="393" 
d="M-395 0l1048 1434h131l-1048 -1434h-131z" />
    <glyph glyph-name="zerosuperior" unicode="&#x2070;" horiz-adv-x="796" 
d="M397 1735q158 0 243 -129.5t85 -335.5t-85 -335.5t-243 -129.5q-157 0 -242 130t-85 335t85 335t242 130zM397 1640q-107 0 -164 -102.5t-57 -267.5t57 -268t164 -103q105 0 163 103.5t58 267.5t-58 267t-163 103z" />
    <glyph glyph-name="i.superior" unicode="&#x2071;" horiz-adv-x="370" 
d="M186 1634q-29 0 -49 20.5t-20 49.5t20 49.5t49 20.5t49.5 -20.5t20.5 -49.5t-20.5 -49.5t-49.5 -20.5zM137 829v635h96v-635h-96z" />
    <glyph glyph-name="foursuperior" unicode="&#x2074;" horiz-adv-x="796" 
d="M516 829v258h-428v91l406 532h122v-532h105v-91h-105v-258h-100zM197 1178h319v419z" />
    <glyph glyph-name="fivesuperior" unicode="&#x2075;" horiz-adv-x="796" 
d="M156 1253l26 457h475v-92h-378l-17 -272h139q141 0 221 -75.5t80 -197.5q0 -121 -85.5 -194.5t-219.5 -73.5q-215 0 -317 170l88 55q78 -133 229 -133q88 0 143.5 47.5t55.5 130.5q0 81 -53 129.5t-146 48.5h-241z" />
    <glyph glyph-name="sixsuperior" unicode="&#x2076;" horiz-adv-x="796" 
d="M451 1735q183 0 282 -150l-80 -61q-40 61 -87 89.5t-111 28.5q-126 0 -190 -101t-64 -279q94 114 252 114q120 0 197 -80.5t77 -197.5q0 -123 -82 -208t-219 -85q-157 0 -244.5 112t-87.5 336t90.5 353t266.5 129zM436 1284q-147 0 -231 -119q25 -268 221 -268
q89 0 140.5 56.5t51.5 142.5q0 79 -51.5 133.5t-130.5 54.5z" />
    <glyph glyph-name="sevensuperior" unicode="&#x2077;" horiz-adv-x="796" 
d="M258 829h-123l467 789h-496v92h609v-92z" />
    <glyph glyph-name="eightsuperior" unicode="&#x2078;" horiz-adv-x="796" 
d="M397 1735q126 0 200.5 -65.5t74.5 -164.5q0 -65 -34 -114.5t-97 -77.5q83 -29 128.5 -92t45.5 -148q0 -117 -86 -192.5t-232 -75.5q-143 0 -229 75.5t-86 192.5q0 85 45.5 147t128.5 93q-64 26 -98.5 76.5t-34.5 115.5q0 100 74 165t200 65zM399 1352q74 0 120 40.5
t46 106.5t-46 107t-120 41q-76 0 -123 -41t-47 -107t47 -106.5t123 -40.5zM399 895q93 0 151 50.5t58 131.5q0 82 -58.5 134.5t-150.5 52.5q-95 0 -154 -52.5t-59 -134.5t59 -132t154 -50z" />
    <glyph glyph-name="ninesuperior" unicode="&#x2079;" horiz-adv-x="796" 
d="M360 805q-183 0 -282 149l80 62q41 -61 88 -90t112 -29q125 0 188.5 101t63.5 278q-96 -113 -250 -113q-121 0 -197.5 80.5t-76.5 198.5q0 123 81.5 208t219.5 85q157 0 243.5 -112t86.5 -337q0 -224 -90.5 -352.5t-266.5 -128.5zM193 1444q0 -79 52 -134t132 -55
q70 0 130 30.5t99 88.5q-25 268 -219 268q-91 0 -142.5 -56t-51.5 -142z" />
    <glyph glyph-name="n.superior" unicode="&#x207f;" horiz-adv-x="823" 
d="M137 829v635h96v-78q86 103 218 103q110 0 178.5 -72.5t68.5 -202.5v-385h-98v383q0 88 -45 136.5t-121 48.5q-125 0 -201 -123v-445h-96z" />
    <glyph glyph-name="zeroinferior" unicode="&#x2080;" horiz-adv-x="796" 
d="M397 629q158 0 243 -129.5t85 -335.5t-85 -335.5t-243 -129.5q-157 0 -242 130t-85 335t85 335t242 130zM397 535q-107 0 -164 -103t-57 -268t57 -268t164 -103q105 0 163 103.5t58 267.5t-58 267.5t-163 103.5z" />
    <glyph glyph-name="oneinferior" unicode="&#x2081;" horiz-adv-x="796" 
d="M129 -276v92h254v684l-244 -129l-55 73l299 160h102v-788h228v-92h-584z" />
    <glyph glyph-name="twoinferior" unicode="&#x2082;" horiz-adv-x="796" 
d="M109 -276v92l299 309q5 6 15 16q43 46 62 68t41 54t29.5 60.5t7.5 63.5q0 70 -45.5 110t-118.5 40q-69 0 -118.5 -33t-90.5 -101l-84 54q110 172 297 172q115 0 191 -65.5t76 -170.5q0 -45 -12.5 -85t-43 -83t-56.5 -72.5t-77 -82.5l-248 -254h459v-92h-583z" />
    <glyph glyph-name="threeinferior" unicode="&#x2083;" horiz-adv-x="796" 
d="M391 537q-122 0 -188 -119l-86 51q99 160 280 160q114 0 188 -64t74 -166q0 -66 -31 -118.5t-89 -83.5q77 -29 119 -91t42 -141q0 -120 -85 -193t-220 -73q-215 0 -317 170l88 55q78 -133 227 -133q90 0 145.5 47.5t55.5 130.5q0 79 -51.5 127.5t-139.5 48.5h-153v93h133
q77 0 123.5 42.5t46.5 110.5q0 69 -45.5 107.5t-116.5 38.5z" />
    <glyph glyph-name="fourinferior" unicode="&#x2084;" horiz-adv-x="796" 
d="M88 -18v90l406 532h122v-532h105v-90h-105v-258h-100v258h-428zM197 72h319v420z" />
    <glyph glyph-name="fiveinferior" unicode="&#x2085;" horiz-adv-x="796" 
d="M156 147l26 457h475v-92h-378l-17 -272h139q141 0 221 -75.5t80 -197.5q0 -121 -85.5 -194.5t-219.5 -73.5q-215 0 -317 170l88 55q78 -133 229 -133q88 0 143.5 47.5t55.5 130.5q0 81 -53 129.5t-146 48.5h-241z" />
    <glyph glyph-name="sixinferior" unicode="&#x2086;" horiz-adv-x="796" 
d="M451 629q183 0 282 -150l-80 -61q-41 61 -88 90t-110 29q-126 0 -190 -101.5t-64 -279.5q94 114 252 114q120 0 197 -80.5t77 -197.5q0 -123 -82 -208t-219 -85q-157 0 -244.5 112t-87.5 336t90.5 353t266.5 129zM436 178q-147 0 -231 -119q25 -268 221 -268
q89 0 140.5 56.5t51.5 142.5q0 79 -51.5 133.5t-130.5 54.5z" />
    <glyph glyph-name="seveninferior" unicode="&#x2087;" horiz-adv-x="796" 
d="M258 -276h-123l467 788h-496v92h609v-92z" />
    <glyph glyph-name="eightinferior" unicode="&#x2088;" horiz-adv-x="796" 
d="M397 629q126 0 200.5 -65.5t74.5 -164.5q0 -65 -34 -114.5t-97 -77.5q83 -29 128.5 -92t45.5 -148q0 -117 -86 -192.5t-232 -75.5q-143 0 -229 75.5t-86 192.5q0 85 45.5 147t128.5 93q-64 26 -98.5 76.5t-34.5 115.5q0 100 74 165t200 65zM399 246q74 0 120 40.5
t46 106.5t-46 107t-120 41q-76 0 -123 -41t-47 -107t47 -106.5t123 -40.5zM399 -211q93 0 151 50.5t58 131.5q0 82 -58.5 134.5t-150.5 52.5q-95 0 -154 -52.5t-59 -134.5t59 -132t154 -50z" />
    <glyph glyph-name="nineinferior" unicode="&#x2089;" horiz-adv-x="796" 
d="M360 -301q-183 0 -282 149l80 62q41 -61 88 -90t112 -29q125 0 188.5 101t63.5 278q-96 -113 -250 -113q-121 0 -197.5 80.5t-76.5 198.5q0 123 81.5 208t219.5 85q157 0 243.5 -112t86.5 -337q0 -224 -90.5 -352.5t-266.5 -128.5zM193 338q0 -79 51.5 -133.5
t132.5 -54.5q70 0 130 30t99 88q-25 269 -219 269q-91 0 -142.5 -56.5t-51.5 -142.5z" />
    <glyph glyph-name="Euro" unicode="&#x20ac;" 
d="M45 496v108h178q-4 74 -4 113q0 63 2 92h-176v109h186q35 276 167 416.5t339 140.5q261 0 416 -211l-96 -78q-61 84 -135 129t-181 45q-324 0 -379 -442h625v-109h-635q-2 -29 -2 -92q0 -43 4 -113h633v-108h-622q60 -420 376 -420q198 0 316 172l96 -78
q-150 -211 -416 -211q-204 0 -335 135.5t-169 401.5h-188z" />
    <glyph glyph-name="numero" unicode="&#x2116;" horiz-adv-x="2531" 
d="M2075 1489q149 0 245.5 -100.5t96.5 -241.5t-96.5 -241.5t-245.5 -100.5q-150 0 -246 100t-96 242t96 242t246 100zM238 0v1434h176l917 -1282v1282h131v-1434h-176l-917 1282v-1282h-131zM2077 895q101 0 169 74.5t68 177.5t-68 176.5t-169 73.5q-105 0 -174.5 -73.5
t-69.5 -176.5t69.5 -177.5t174.5 -74.5zM1782 541v92h585v-92h-585z" />
    <glyph glyph-name="trademark" unicode="&#x2122;" horiz-adv-x="1949" 
d="M66 1335v99h698v-99h-297v-782h-107v782h-294zM956 553v881h138l278 -455l281 455h137v-881h-107v733l-268 -432h-84l-268 434v-735h-107z" />
    <glyph glyph-name="arrowleft" unicode="&#x2190;" horiz-adv-x="1622" 
d="M659 152l-585 587l588 588l75 -76l-465 -460h1276v-109h-1269l456 -455z" />
    <glyph glyph-name="arrowup" unicode="&#x2191;" horiz-adv-x="1622" 
d="M754 0v1268l-455 -455l-78 76l588 586l590 -588l-76 -76l-463 461v-1272h-106z" />
    <glyph glyph-name="arrowright" unicode="&#x2192;" horiz-adv-x="1622" 
d="M74 795h1267l-454 454l76 78l585 -588l-587 -589l-76 75l461 463h-1272v107z" />
    <glyph glyph-name="arrowdown" unicode="&#x2193;" horiz-adv-x="1622" 
d="M1399 545l-588 -586l-590 588l78 76l461 -461v1272h106v-1268l457 455z" />
    <glyph glyph-name="arrowNW" unicode="&#x2196;" horiz-adv-x="1622" 
d="M289 432v830h833v-109h-655l901 -899l-76 -76l-897 895v-641h-106z" />
    <glyph glyph-name="arrowNE" unicode="&#x2197;" horiz-adv-x="1622" 
d="M365 178l-76 76l901 899h-655v109h833v-830h-106v641z" />
    <glyph glyph-name="arrowSE" unicode="&#x2198;" horiz-adv-x="1622" 
d="M365 1262l897 -895v641h106v-830h-833v109h655l-901 899z" />
    <glyph glyph-name="arrowSW" unicode="&#x2199;" horiz-adv-x="1622" 
d="M289 1008h106v-641l897 895l76 -76l-901 -899h655v-109h-833v830z" />
    <glyph glyph-name="minus" unicode="&#x2212;" 
d="M1130 463h-1032v108h1032v-108z" />
    <glyph glyph-name="radical" unicode="&#x221a;" 
d="M207 795l276 -682l535 1321h121l-584 -1434h-141l-324 795h117z" />
    <glyph glyph-name="integral" unicode="&#x222b;" horiz-adv-x="770" 
d="M446 -145q0 -165 -95.5 -266t-248.5 -101q-154 0 -260 102l78 91q75 -82 178 -82q101 0 163.5 68t62.5 186v1316q0 165 95.5 266t248.5 101q154 0 260 -102l-78 -91q-75 82 -178 82q-100 0 -163 -68t-63 -186v-1316z" />
    <glyph glyph-name="approxequal" unicode="&#x2248;" 
d="M555 694q-39 29 -60.5 43.5t-59.5 28.5t-77 14q-73 0 -111 -43.5t-38 -122.5v-47h-109v56q0 113 67 188.5t187 75.5q35 0 71 -8.5t56.5 -16t58 -31t46 -29.5t49.5 -36l39 -29q41 -30 60.5 -43t58.5 -27t79 -14q73 0 111.5 43.5t38.5 120.5v47h108v-55
q0 -113 -66.5 -187.5t-186.5 -74.5q-44 0 -83 9t-79 31t-59 34.5t-62 44.5zM555 309q-41 30 -61 43t-58.5 27t-77.5 14q-73 0 -111 -43.5t-38 -122.5v-45h-109v54q0 113 67 188.5t187 75.5q18 0 36 -2t32.5 -4.5t32 -9t28.5 -10t29 -13.5t25.5 -14t26 -16.5t23.5 -16
t24.5 -17t23.5 -16.5l39 -31q41 -30 60.5 -43t58.5 -27t79 -14q73 0 111.5 43.5t38.5 122.5v47h108v-55q0 -113 -66.5 -188.5t-186.5 -75.5q-18 0 -36.5 2t-33 4.5t-32.5 9t-29 10t-29 13.5t-25.5 14t-26 16.5t-23.5 16l-25 17.5t-23 16z" />
    <glyph glyph-name="notequal" unicode="&#x2260;" 
d="M1130 240h-690l-209 -240h-133l209 240h-209v108h303l295 338h-598v107h690l209 239h133l-208 -239h208v-107h-301l-294 -338h595v-108z" />
    <glyph glyph-name="lessequal" unicode="&#x2264;" 
d="M1130 188l-1032 455v125l1032 453v-115l-917 -399l917 -402v-117zM1130 0h-1032v106h1032v-106z" />
    <glyph glyph-name="greaterequal" unicode="&#x2265;" 
d="M98 305l918 402l-918 399v115l1032 -453v-125l-1032 -455v117zM98 0v106h1032v-106h-1032z" />
    <glyph glyph-name="lozenge" unicode="&#x25ca;" 
d="M553 0l-371 717l371 717h123l371 -717l-371 -717h-123zM299 717l315 -615l316 615l-316 614z" />
    <glyph glyph-name="circledotted" unicode="&#x25cc;" horiz-adv-x="1236" 
d="M618 -20q-145 0 -268.5 72t-195.5 195.5t-72 268.5t72 269t195.5 196t268.5 72q109 0 208 -43t171 -115t115 -171t43 -208q0 -145 -72 -268.5t-196 -195.5t-269 -72zM618 1032q-140 0 -259 -69t-188 -188t-69 -259t69 -259t188 -188t259 -69t259 69t188.5 188t69.5 259
t-69.5 259t-188.5 188t-259 69z" />
    <glyph glyph-name="Ccedilla.1" horiz-adv-x="1572" 
d="M864 82q154 0 281 68.5t211 187.5l106 -84q-95 -129 -237 -206.5t-314 -86.5l-84 -108q8 2 23 2q90 0 149.5 -48t59.5 -126q0 -80 -60.5 -133.5t-156.5 -53.5q-126 0 -205 70l53 78q69 -62 148 -62q54 0 85 27.5t31 73.5t-32 71t-93 25q-41 0 -81 -21l-58 60l111 145
q-201 15 -359 122t-242.5 273.5t-84.5 360.5q0 153 55 291.5t151.5 241.5t238 164t304.5 61q186 0 341.5 -80t256.5 -217l-108 -82q-82 119 -209.5 187.5t-280.5 68.5q-175 0 -316 -86t-218.5 -231t-77.5 -318t77.5 -318t218.5 -231t316 -86z" />
    <glyph glyph-name="Q.1" horiz-adv-x="1722" 
d="M1536 -252l-303 305q-169 -94 -369 -94q-163 0 -304.5 61t-238 164t-151.5 241.5t-55 291.5t55 291.5t151.5 241.5t238 164t304.5 61q162 0 302.5 -61t237 -164t151.5 -241.5t55 -291.5q0 -174 -69.5 -328t-194.5 -260l387 -381h-197zM864 82q173 0 313.5 86.5t218 231.5
t77.5 317q0 173 -77.5 318t-218 231t-313.5 86q-175 0 -316 -86t-218.5 -231t-77.5 -318t77.5 -318t218.5 -231t316 -86z" />
    <glyph glyph-name="Q.2" horiz-adv-x="1722" 
d="M1677 -133q337 -260 596 -260q130 0 240 47v-123q-98 -43 -244 -43q-310 0 -676 281l-362 282q-162 -92 -367 -92q-163 0 -304.5 61t-238 164t-151.5 241.5t-55 291.5t55 291.5t151.5 241.5t238 164t304.5 61q162 0 302.5 -61t237 -164t151.5 -241.5t55 -291.5
q0 -175 -71 -329t-198 -261zM864 82q173 0 313.5 86.5t218 231.5t77.5 317q0 173 -77.5 318t-218 231t-313.5 86q-175 0 -316 -86t-218.5 -231t-77.5 -318t77.5 -318t218.5 -231t316 -86z" />
    <glyph glyph-name="Scedilla.1" horiz-adv-x="1204" 
d="M141 197l97 88q163 -205 374 -205q132 0 209.5 77.5t77.5 192.5q0 54 -23.5 100.5t-63.5 81.5t-92 67t-109.5 61.5t-115 60.5t-109.5 69.5t-92 82.5t-63.5 105t-23.5 132q0 150 110.5 257.5t278.5 107.5q269 0 428 -230l-100 -82q-128 193 -326 193q-115 0 -185.5 -70
t-70.5 -176q0 -70 38 -127t99 -98t135 -79.5t148 -81t135 -91.5t99 -122t38 -163q0 -154 -99.5 -259t-258.5 -124l-189 -293h-129l191 291q-240 23 -408 234z" />
    <glyph glyph-name="germandbls.cap" horiz-adv-x="2359" 
d="M141 197l97 88q163 -205 374 -205q132 0 209.5 77.5t77.5 192.5q0 54 -23.5 100.5t-63.5 81.5t-92 67t-109.5 61.5t-115 60.5t-109.5 69.5t-92 82.5t-63.5 105t-23.5 132q0 150 110.5 257.5t278.5 107.5q269 0 428 -230l-100 -82q-128 193 -326 193q-115 0 -185.5 -70
t-70.5 -176q0 -70 38 -127t99 -98t135 -79.5t148 -81t135 -91.5t99 -122t38 -163q0 -170 -118.5 -278.5t-301.5 -108.5q-286 0 -473 236zM1296 197l97 88q163 -205 374 -205q132 0 209.5 77.5t77.5 192.5q0 54 -23.5 100.5t-63.5 81.5t-92 67t-109.5 61.5t-115 60.5
t-109.5 69.5t-92 82.5t-63.5 105t-23.5 132q0 150 110.5 257.5t278.5 107.5q269 0 428 -230l-100 -82q-128 193 -326 193q-115 0 -185.5 -70t-70.5 -176q0 -70 38 -127t99 -98t135 -79.5t148 -81t135 -91.5t99 -122t38 -163q0 -170 -118.5 -278.5t-301.5 -108.5
q-286 0 -473 236z" />
    <glyph glyph-name="Tcedilla.1" horiz-adv-x="1277" 
d="M78 1313v121h1122v-121h-495v-1313h-21l-211 -328h-129l229 351v1290h-495z" />
    <glyph glyph-name="ccedilla.1" horiz-adv-x="1161" 
d="M664 74q105 0 190 46t141 126l99 -76q-68 -92 -171 -147.5t-227 -61.5l-184 -289h-129l192 293q-210 30 -339.5 186t-129.5 365q0 151 68.5 277.5t197 203t290.5 76.5q136 0 247.5 -56.5t184.5 -154.5l-99 -76q-55 80 -141.5 126t-191.5 46q-123 0 -222.5 -59.5
t-154 -160.5t-54.5 -222q0 -186 122.5 -314t310.5 -128z" />
    <glyph glyph-name="i.trk" horiz-adv-x="526" 
d="M262 1358q-39 0 -66.5 26.5t-27.5 65.5q0 37 28 63.5t66 26.5q39 0 65.5 -26.5t26.5 -63.5q0 -40 -26 -66t-66 -26zM203 0v1032h121v-1032h-121z" />
    <glyph glyph-name="scedilla.1" horiz-adv-x="890" 
d="M80 135l90 76q118 -148 279 -148q98 0 155.5 55.5t57.5 137.5q0 53 -29 93t-75 65.5t-101.5 48.5t-111.5 50t-102 61.5t-75 92t-29 132.5q0 118 87.5 196t224.5 78q105 0 191 -44.5t142 -121.5l-90 -71q-86 133 -239 133q-92 0 -143.5 -46.5t-51.5 -123.5
q0 -54 28.5 -95.5t74.5 -68t101.5 -50t111 -50.5t101.5 -60.5t74.5 -88t28.5 -126.5q0 -122 -79 -203.5t-205 -95.5l-187 -289h-129l193 293q-178 24 -293 170z" />
    <glyph glyph-name="tcedilla.1" horiz-adv-x="854" 
d="M256 326v596h-195v110h195v258h123v-258h387v-110h-387v-596q0 -132 60 -183t175 -51q85 0 152 23v-111q-70 -24 -154 -24l-198 -308h-129l209 318q-238 50 -238 336z" />
    <glyph glyph-name="y.1" horiz-adv-x="1110" 
d="M43 1032h133l385 -876l375 876h131l-666 -1544h-125l220 512z" />
    <glyph glyph-name="yacute.1" horiz-adv-x="1110" 
d="M614 1196h-118l215 340h141zM43 1032h133l385 -876l375 876h131l-666 -1544h-125l220 512z" />
    <glyph glyph-name="ycircumflex.1" horiz-adv-x="1110" 
d="M369 1196h-115l217 340h174l217 -340h-114l-189 277zM43 1032h133l385 -876l375 876h131l-666 -1544h-125l220 512z" />
    <glyph glyph-name="ydieresis.1" horiz-adv-x="1110" 
d="M373 1362q-38 0 -64 26t-26 64q0 37 26 62.5t64 25.5q37 0 63.5 -25.5t26.5 -62.5q0 -38 -26.5 -64t-63.5 -26zM741 1362q-37 0 -63.5 26t-26.5 64q0 37 26.5 62.5t63.5 25.5q38 0 64 -25.5t26 -62.5q0 -38 -26 -64t-64 -26zM43 1032h133l385 -876l375 876h131
l-666 -1544h-125l220 512z" />
    <glyph glyph-name="caron.slovak" horiz-adv-x="0" 
d="M55 1155h-112l176 381h139z" />
    <glyph glyph-name="cedilla.1" horiz-adv-x="0" 
d="M-31 29h125l-229 -357h-129z" />
    <glyph glyph-name="commaaccentbelow" 
d="M555 -504h-119l215 340h142z" />
    <glyph glyph-name="commaturnedabove" 
d="M674 1536h119l-213 -340h-144z" />
    <glyph glyph-name="grave.case" horiz-adv-x="0" 
d="M-57 1556l-260 277h151l232 -277h-123z" />
    <glyph glyph-name="acute.case" horiz-adv-x="0" 
d="M63 1556h-122l231 277h152z" />
    <glyph glyph-name="hungarumlaut.case" horiz-adv-x="0" 
d="M-131 1556h-123l231 277h154zM254 1556h-125l231 277h154z" />
    <glyph glyph-name="circumflex.case" horiz-adv-x="0" 
d="M-197 1556h-114l231 277h162l229 -277h-112l-197 211z" />
    <glyph glyph-name="caron.case" horiz-adv-x="0" 
d="M-197 1833l199 -211l197 211h112l-229 -277h-162l-231 277h114z" />
    <glyph glyph-name="breve.case" horiz-adv-x="0" 
d="M2 1628q96 0 151.5 52t59.5 153h106q0 -141 -89.5 -219t-229.5 -78q-136 0 -224 78t-91 219h104q7 -101 63 -153t150 -52z" />
    <glyph glyph-name="ring.case" horiz-adv-x="0" 
d="M0 1516q-98 0 -170 62.5t-72 166.5q0 105 72 169t170 64q102 0 174 -63.5t72 -169.5q0 -105 -72 -167t-174 -62zM2 1599q64 0 108 40t44 106q0 68 -43.5 108.5t-108.5 40.5q-64 0 -108 -40.5t-44 -108.5q0 -66 44 -106t108 -40z" />
    <glyph glyph-name="tilde.case" horiz-adv-x="0" 
d="M-344 1556v103q0 83 46.5 138.5t129.5 55.5q41 0 76.5 -16.5t53 -33t48.5 -51.5q5 -6 8 -9l23 -27q3 -4 13.5 -17t14 -17t13 -14t14.5 -14t14 -10.5t16.5 -9t17.5 -4.5t20 -2q39 0 61.5 27.5t22.5 73.5v104h94v-102q0 -83 -46.5 -139t-129.5 -56q-41 0 -75 15.5t-54.5 35
t-47.5 49.5q-2 3 -3 4l-3 3t-3 4l-23 26q-2 2 -12.5 15t-12.5 15t-11 12.5t-12.5 13t-12 10t-14 9t-14 5.5t-17 5t-17.5 1q-39 0 -60.5 -26t-21.5 -72v-105h-96z" />
    <glyph glyph-name="dotaccent.case" horiz-adv-x="0" 
d="M0 1651q-37 0 -62.5 24.5t-25.5 61.5t25.5 61.5t62.5 24.5t62.5 -24.5t25.5 -61.5t-25.5 -61.5t-62.5 -24.5z" />
    <glyph glyph-name="dieresis.case" horiz-adv-x="0" 
d="M-184 1651q-36 0 -61 25t-25 61q0 35 25.5 60.5t60.5 25.5t61.5 -25.5t26.5 -60.5q0 -36 -26 -61t-62 -25zM184 1651q-37 0 -62.5 24.5t-25.5 61.5t25.5 61.5t62.5 24.5q36 0 61 -25t25 -61t-25 -61t-61 -25z" />
    <glyph glyph-name="macron.case" horiz-adv-x="0" 
d="M-291 1688v94h582v-94h-582z" />
    <glyph glyph-name="exclamdown.case" horiz-adv-x="589" 
d="M295 1456q40 0 70 -30.5t30 -71.5q0 -40 -30 -69.5t-70 -29.5q-42 0 -71 29.5t-29 69.5q0 42 29 72t71 30zM344 1044l18 -1044h-135l19 1044h98z" />
    <glyph glyph-name="questiondown.case" horiz-adv-x="1032" 
d="M606 1464q41 0 72 -30.5t31 -71.5q0 -40 -31 -69t-72 -29q-42 0 -71 29t-29 69q0 42 29 72t71 30zM659 1053l15 -295q-481 -58 -481 -375q0 -131 86.5 -217t218.5 -86q102 0 180.5 43.5t148.5 136.5l105 -65q-83 -108 -187 -168t-251 -60q-183 0 -307 120.5t-124 293.5
q0 187 133 307t357 160l8 205h98z" />
    <glyph glyph-name="hyphen.case" horiz-adv-x="634" 
d="M41 774h553v-115h-553v115z" />
    <glyph glyph-name="guilsinglleft.case" horiz-adv-x="653" 
d="M530 307h-135l-276 408l276 411h135l-276 -409z" />
    <glyph glyph-name="guilsinglright.case" horiz-adv-x="653" 
d="M121 1126h133l276 -407l-276 -412h-133l276 412z" />
    <glyph glyph-name="guillemetleft.case" horiz-adv-x="1042" 
d="M530 307h-135l-276 408l276 411h135l-276 -409zM920 307h-136l-276 408l276 411h136l-277 -409z" />
    <glyph glyph-name="guillemetright.case" horiz-adv-x="1042" 
d="M121 1126h133l276 -407l-276 -412h-133l276 412zM510 1126h133l277 -407l-277 -412h-133l276 412z" />
    <glyph glyph-name="parenleft.case" horiz-adv-x="606" 
d="M199 717q0 -548 348 -899l-90 -74q-180 172 -281.5 422.5t-101.5 550.5t104.5 551.5t278.5 421.5l90 -74q-164 -166 -256 -394t-92 -505z" />
    <glyph glyph-name="parenright.case" horiz-adv-x="606" 
d="M408 717q0 276 -93 505t-258 394l90 74q176 -170 279.5 -421.5t103.5 -551.5q0 -301 -102 -551.5t-281 -421.5l-90 74q351 351 351 899z" />
    <glyph glyph-name="braceleft.case" horiz-adv-x="589" 
d="M254 55q0 -90 51 -145t139 -55h121v-107h-123q-142 0 -223.5 83.5t-81.5 223.5q0 69 59.5 233t59.5 224q0 69 -30 111.5t-91 42.5h-127v108h127q62 0 91.5 42t29.5 112q0 60 -59.5 221.5t-59.5 230.5q0 142 81.5 225t223.5 83h123v-107h-121q-88 0 -139 -55t-51 -146
q0 -61 59.5 -221t59.5 -229q0 -150 -113 -211q56 -29 84.5 -83.5t28.5 -125.5q0 -69 -59.5 -231.5t-59.5 -223.5z" />
    <glyph glyph-name="braceright.case" horiz-adv-x="589" 
d="M336 55q0 61 -59.5 221.5t-59.5 229.5q0 151 111 211q-111 57 -111 209q0 69 59.5 231t59.5 223q0 91 -51 146t-140 55h-120v107h122q142 0 224 -83t82 -225q0 -69 -59.5 -232.5t-59.5 -223.5q0 -70 29.5 -112t91.5 -42h127v-108h-127q-63 0 -92 -41.5t-29 -112.5
q0 -60 59.5 -222t59.5 -231q0 -140 -82 -223.5t-224 -83.5h-122v107h120q89 0 140 54.5t51 145.5z" />
    <glyph glyph-name="bracketleft.case" horiz-adv-x="589" 
d="M137 1688h428v-107h-311v-1726h311v-107h-428v1940z" />
    <glyph glyph-name="bracketright.case" horiz-adv-x="589" 
d="M453 -252h-428v107h311v1726h-311v107h428v-1940z" />
    <glyph glyph-name="endash.case" horiz-adv-x="1105" 
d="M41 770h1024v-106h-1024v106z" />
    <glyph glyph-name="emdash.case" horiz-adv-x="2211" 
d="M41 770h2130v-106h-2130v106z" />
    <glyph glyph-name="bullet.case" horiz-adv-x="626" 
d="M315 500q-93 0 -159 65t-66 156q0 89 65.5 151t159.5 62q95 0 159.5 -61.5t64.5 -151.5q0 -91 -64.5 -156t-159.5 -65z" />
    <glyph glyph-name="periodcentered.case" horiz-adv-x="552" 
d="M279 616q-41 0 -72 31t-31 72t30.5 69.5t72.5 28.5q43 0 71.5 -28.5t28.5 -69.5q0 -42 -29 -72.5t-71 -30.5z" />
    <glyph glyph-name="at.case" horiz-adv-x="1724" 
d="M492 715q0 151 98.5 254.5t255.5 103.5q142 0 246 -110v86h106v-467q0 -62 30.5 -97.5t82.5 -35.5q89 0 145.5 96.5t56.5 255.5q0 123 -47.5 231.5t-130.5 187t-201 124t-253 45.5q-191 0 -345 -92t-238.5 -245t-84.5 -335t83 -335.5t233.5 -245t336.5 -91.5
q167 0 292.5 49t246.5 162l57 -74q-134 -117 -274 -170t-324 -53q-163 0 -304.5 61t-238.5 164t-152.5 241.5t-55.5 291.5t56.5 291.5t155.5 241.5t243 164t311 61q159 0 296.5 -53t232.5 -143.5t148.5 -214.5t53.5 -263q0 -192 -85.5 -318.5t-215.5 -126.5q-74 0 -126 33
t-75 94q-108 -127 -262 -127q-156 0 -255 104.5t-99 254.5zM604 715q0 -109 71.5 -184.5t180.5 -75.5q72 0 133.5 38.5t102.5 104.5v227q-43 71 -104 110.5t-132 39.5q-109 0 -180.5 -75.5t-71.5 -184.5z" />
    <glyph glyph-name="dollar.lt" 
d="M119 223l92 86q140 -175 342 -194v577q-63 24 -106 44t-93.5 53.5t-81 71t-51 93.5t-20.5 123q0 139 97.5 238.5t254.5 116.5v145h113v-145q246 -21 383 -213l-93 -78q-103 156 -290 178v-543q50 -19 79.5 -31t74 -34t71.5 -41.5t59 -50t49.5 -63.5t30 -77.5t12.5 -95.5
q0 -155 -104 -259.5t-272 -121.5v-145h-113v145q-273 19 -434 221zM324 1077q0 -50 17 -90.5t51 -70.5t71 -51.5t90 -43.5v496q-109 -13 -169 -77.5t-60 -162.5zM922 385q0 52 -19 93.5t-58 73t-79 52.5t-100 45v-532q121 15 188.5 89t67.5 179z" />
    <glyph glyph-name="Euro.lt" 
d="M45 496v108h178q-4 74 -4 113q0 63 2 92h-176v109h186q35 276 167 416.5t339 140.5q261 0 416 -211l-96 -78q-61 84 -135 129t-181 45q-324 0 -379 -442h625v-109h-635q-2 -29 -2 -92q0 -43 4 -113h633v-108h-622q60 -420 376 -420q198 0 316 172l96 -78
q-150 -211 -416 -211q-204 0 -335 135.5t-169 401.5h-188z" />
    <glyph glyph-name="cent.lt" 
d="M610 1434h113v-170q125 -7 226 -62t169 -147l-98 -76q-50 73 -127.5 117.5t-169.5 50.5v-875q93 6 169.5 50t127.5 118l98 -75q-68 -93 -169 -148.5t-226 -62.5v-154h-113v156q-143 18 -253 97t-169 198t-59 258t59 258t169 198t253 97v172zM256 709q0 -164 98.5 -285.5
t255.5 -147.5v867q-157 -26 -255.5 -147.5t-98.5 -286.5z" />
    <glyph glyph-name="sterling.lt" 
d="M156 0v115l137 125q106 98 145 161.5t39 145.5q0 52 -22 104h-299v109h235q-76 108 -100 155q-47 93 -47 187q0 161 111.5 267t281.5 106q255 0 397 -232l-98 -76q-56 98 -127 144.5t-168 46.5q-117 0 -192.5 -70.5t-75.5 -187.5q-1 -49 16 -98.5t35.5 -80.5t54.5 -83.5
t51 -77.5h461v-109h-407q16 -53 16 -104q0 -104 -48 -184.5t-171 -194.5l-59 -53h772v-115h-938z" />
    <glyph glyph-name="yen.lt" 
d="M137 496v108h416v205h-416v109h332l-371 518h150l368 -514l367 512h147l-368 -516h332v-109h-414v-205h414v-108h-414v-496h-127v496h-416z" />
    <glyph glyph-name="zero.lt" 
d="M612 1475q127 0 228.5 -58.5t166 -161.5t98.5 -240t34 -298t-34 -298t-98.5 -240t-166 -161.5t-228.5 -58.5q-126 0 -226.5 58.5t-165 161.5t-98.5 240.5t-34 297.5t34 297.5t98.5 240.5t165 161.5t226.5 58.5zM612 1354q-125 0 -215.5 -86t-134 -228t-43.5 -323
t43.5 -323t134 -228t215.5 -86t216 86t135.5 228t44.5 323t-44.5 323t-135.5 228t-216 86z" />
    <glyph glyph-name="one.lt" 
d="M121 0v115h469v1194l-445 -230l-67 92l506 263h131v-1319h409v-115h-1003z" />
    <glyph glyph-name="two.lt" 
d="M154 0v115l481 510q67 71 92.5 98.5t68.5 77.5t57.5 75t34 64.5t25 74.5t5.5 77q0 125 -82 195.5t-209 70.5q-119 0 -204.5 -53t-152.5 -164l-106 65q175 269 471 269q176 0 295 -105.5t119 -271.5q0 -58 -15.5 -113.5t-39 -102t-68.5 -105.5t-85.5 -104.5t-109.5 -117.5
l-422 -440h783v-115h-938z" />
    <glyph glyph-name="three.lt" 
d="M1098 387q0 -189 -137 -308.5t-349 -119.5q-175 0 -297 66.5t-206 203.5l110 70q69 -117 164.5 -170t226.5 -53q157 0 257 84t100 231q0 139 -91 227.5t-245 88.5h-250v112h213q140 0 222.5 78t82.5 199q0 124 -81 193t-210 69q-215 0 -327 -207l-107 66q155 258 438 258
q183 0 301.5 -103.5t118.5 -269.5q0 -107 -55 -195t-156 -137q132 -43 204.5 -146.5t72.5 -236.5z" />
    <glyph glyph-name="four.lt" 
d="M86 434v115l713 885h159v-885h179v-115h-179v-434h-124v434h-748zM227 549h607v751z" />
    <glyph glyph-name="five.lt" 
d="M227 709l43 725h748v-115h-627l-29 -496h265q223 0 346 -122t123 -312q0 -191 -137 -310.5t-349 -119.5q-338 0 -504 270l111 70q69 -117 165 -170t226 -53q158 0 257.5 84t99.5 231q0 141 -91.5 229.5t-250.5 88.5h-396z" />
    <glyph glyph-name="six.lt" 
d="M680 1475q152 0 258.5 -62.5t185.5 -187.5l-102 -72q-68 106 -149.5 155.5t-188.5 49.5q-218 0 -331 -178.5t-113 -487.5q78 91 188 140t236 49q192 0 319 -131t127 -320q0 -96 -32.5 -181t-92.5 -149.5t-151.5 -102.5t-202.5 -38q-245 0 -385 178.5t-140 546.5
q0 241 62.5 416.5t192.5 275t319 99.5zM649 764q-124 0 -229 -54.5t-174 -158.5q22 -246 123.5 -360.5t261.5 -114.5q159 0 251.5 100t92.5 252q0 139 -94 237.5t-232 98.5z" />
    <glyph glyph-name="seven.lt" horiz-adv-x="1226" 
d="M350 0h-147l782 1319h-838v115h975v-115z" />
    <glyph glyph-name="eight.lt" 
d="M614 1475q196 0 314.5 -104t118.5 -263q0 -113 -59.5 -195.5t-166.5 -121.5q140 -44 218.5 -149t78.5 -247q0 -189 -138 -312.5t-366 -123.5t-365.5 123t-137.5 313q0 142 78.5 245.5t218.5 147.5q-108 40 -168 123.5t-60 196.5q0 159 118.5 263t315.5 104zM616 838
q131 0 214 73.5t83 188.5q0 118 -83 190t-214 72q-137 0 -220 -72t-83 -190q0 -117 84 -189.5t219 -72.5zM616 74q163 0 267 90.5t104 232.5q0 145 -104.5 239.5t-266.5 94.5q-166 0 -270 -94t-104 -240q0 -143 103.5 -233t270.5 -90z" />
    <glyph glyph-name="nine.lt" 
d="M547 -41q-152 0 -259 62.5t-186 187.5l103 72q66 -106 148 -155.5t192 -49.5q109 0 194 47.5t139 135.5t81.5 209t27.5 271q-79 -90 -188 -138t-234 -48q-128 0 -231.5 61t-160 164t-56.5 226q0 128 56 234.5t166.5 171.5t256.5 65q245 0 384.5 -178.5t139.5 -546.5
q0 -241 -62 -416.5t-192 -275t-319 -99.5zM252 1006q0 -140 93.5 -238t232.5 -98q125 0 230 55t173 160q-22 245 -124 359t-263 114q-158 0 -250 -100.5t-92 -251.5z" />
    <glyph glyph-name="dollar.ot" horiz-adv-x="1230" 
d="M147 213l86 82q145 -157 351 -182v407q-62 12 -107 23.5t-96.5 34.5t-84 52t-54 76t-21.5 107q0 128 97.5 217t265.5 96v119h110v-125q114 -17 213.5 -70.5t159.5 -125.5l-86 -80q-55 64 -129.5 107.5t-157.5 58.5v-389q67 -13 114.5 -26.5t99.5 -37.5t83.5 -55t52.5 -80
t21 -111q-2 -134 -101 -219t-270 -92v-119h-110v123q-130 14 -245.5 68t-191.5 141zM342 815q0 -41 18 -71t54 -49.5t75 -31t95 -22.5v377q-118 -7 -180 -63t-62 -140zM942 307q0 85 -62 126.5t-186 66.5v-394q117 7 182.5 61t65.5 140z" />
    <glyph glyph-name="Euro.ot" horiz-adv-x="1230" 
d="M43 375v104h150q-5 67 -5 84q0 45 2 68h-147v104h164q43 199 182 315.5t340 116.5q136 0 248.5 -55t183.5 -149l-96 -72q-57 75 -143.5 117.5t-190.5 42.5q-148 0 -251.5 -83.5t-143.5 -232.5h657v-104h-676q-2 -23 -2 -68q0 -30 4 -84h674v-104h-653
q41 -142 144.5 -221.5t246.5 -79.5q104 0 190.5 44t143.5 120l96 -74q-72 -94 -183.5 -149.5t-248.5 -55.5q-196 0 -334 112t-184 304h-168z" />
    <glyph glyph-name="cent.ot" 
d="M602 1262h111v-136q125 -6 229.5 -62.5t175.5 -150.5l-102 -73q-50 73 -129.5 118.5t-173.5 51.5v-895q96 6 174 51t129 119l102 -74q-152 -199 -405 -211v-143h-111v149q-214 29 -345.5 188t-131.5 369t131.5 369t345.5 188v142zM252 563q0 -163 97 -287t253 -153v878
q-157 -29 -253.5 -152t-96.5 -286z" />
    <glyph glyph-name="sterling.ot" horiz-adv-x="1230" 
d="M152 0v115l129 92q104 75 141 121t37 102q0 32 -21 72h-286v104h200q-51 55 -80.5 109.5t-29.5 126.5q0 144 113 234.5t282 90.5q288 -3 455 -258l-105 -65q-72 105 -153 156t-191 51q-118 0 -195 -59.5t-77 -160.5q0 -24 6 -47t13 -39t23 -39t24.5 -33t30.5 -35t28 -32
h497v-104h-424q15 -43 15 -72q0 -77 -45 -138.5t-164 -148.5l-41 -28h762v-115h-944z" />
    <glyph glyph-name="yen.ot" horiz-adv-x="1230" 
d="M135 375v104h420v152h-420v104h322l-342 393h151l348 -393h4l345 391h151l-338 -391h320v-104h-418v-152h418v-104h-418v-375h-123v375h-420z" />
    <glyph glyph-name="zero.ot" 
d="M612 1167q124 0 227.5 -47.5t173 -129.5t108 -192t38.5 -235q0 -124 -38.5 -234t-108 -192.5t-173 -130t-227.5 -47.5q-163 0 -288.5 82t-190.5 218.5t-65 303.5q0 168 65 304.5t190 218t289 81.5zM612 78q184 0 300 139.5t116 345.5t-116 346t-300 140
q-122 0 -217.5 -65t-146.5 -175.5t-51 -245.5q0 -206 115.5 -345.5t299.5 -139.5z" />
    <glyph glyph-name="one.ot" 
d="M162 0v115h432v882l-408 -225l-67 90l469 264h133v-1011h371v-115h-930z" />
    <glyph glyph-name="two.ot" 
d="M178 0v115l428 342q12 10 34 28q66 54 94.5 78.5t66 62t51.5 64t24.5 62t10.5 77.5q0 103 -80 163.5t-201 60.5q-111 0 -190 -51t-152 -158l-106 65q85 127 193.5 192.5t254.5 65.5q177 0 293.5 -91.5t116.5 -241.5q0 -47 -8 -86t-29 -77.5t-43.5 -68.5t-67 -71.5
t-82.5 -73.5t-106 -86l-324 -256h719v-115h-897z" />
    <glyph glyph-name="three.ot" 
d="M1098 80q0 -189 -137 -308.5t-349 -119.5q-175 0 -297 66.5t-206 203.5l110 70q69 -117 164.5 -170t226.5 -53q157 0 257 84t100 231q0 139 -91 227t-245 88h-250v113h213q140 0 222.5 77.5t82.5 198.5q0 124 -81 193.5t-210 69.5q-215 0 -327 -207l-107 65
q155 258 438 258q183 0 301.5 -103t118.5 -269q0 -107 -55 -195t-156 -137q132 -43 204.5 -146.5t72.5 -236.5z" />
    <glyph glyph-name="four.ot" 
d="M86 127v115l713 884h159v-884h179v-115h-179v-434h-124v434h-748zM227 242h607v751z" />
    <glyph glyph-name="five.ot" 
d="M227 401l43 725h748v-114h-627l-29 -496h265q223 0 346 -122t123 -312q0 -191 -137 -310.5t-349 -119.5q-338 0 -504 270l111 70q69 -117 165 -170t226 -53q158 0 257.5 84t99.5 231q0 141 -91.5 229t-250.5 88h-396z" />
    <glyph glyph-name="six.ot" 
d="M680 1475q152 0 258.5 -62.5t185.5 -187.5l-102 -72q-68 106 -149.5 155.5t-188.5 49.5q-218 0 -331 -178.5t-113 -487.5q78 91 188 140t236 49q192 0 319 -131t127 -320q0 -96 -32.5 -181t-92.5 -149.5t-151.5 -102.5t-202.5 -38q-245 0 -385 178.5t-140 546.5
q0 241 62.5 416.5t192.5 275t319 99.5zM649 764q-124 0 -229 -54.5t-174 -158.5q22 -246 123.5 -360.5t261.5 -114.5q159 0 251.5 100t92.5 252q0 139 -94 237.5t-232 98.5z" />
    <glyph glyph-name="seven.ot" 
d="M350 -307h-147l782 1319h-838v114h975v-114z" />
    <glyph glyph-name="eight.ot" 
d="M614 1475q196 0 314.5 -104t118.5 -263q0 -113 -59.5 -195.5t-166.5 -121.5q140 -44 218.5 -149t78.5 -247q0 -189 -138 -312.5t-366 -123.5t-365.5 123t-137.5 313q0 142 78.5 245.5t218.5 147.5q-108 40 -168 123.5t-60 196.5q0 159 118.5 263t315.5 104zM616 838
q131 0 214 73.5t83 188.5q0 118 -83 190t-214 72q-137 0 -220 -72t-83 -190q0 -117 84 -189.5t219 -72.5zM616 74q163 0 267 90.5t104 232.5q0 145 -104.5 239.5t-266.5 94.5q-166 0 -270 -94t-104 -240q0 -143 103.5 -233t270.5 -90z" />
    <glyph glyph-name="nine.ot" 
d="M547 -348q-152 0 -259 62.5t-186 187.5l103 71q66 -106 148 -155t192 -49q109 0 194 47.5t139 135.5t81.5 209t27.5 271q-79 -90 -188 -138t-234 -48q-194 0 -321 130.5t-127 319.5q0 128 56 234.5t166.5 171.5t256.5 65q245 0 384.5 -178.5t139.5 -546.5
q0 -241 -62 -416t-192 -274.5t-319 -99.5zM252 698q0 -140 93.5 -238t232.5 -98q125 0 230 55t173 161q-22 245 -124 359t-263 114q-158 0 -250 -100.5t-92 -252.5z" />
    <glyph glyph-name="Euro.op" 
d="M43 375v104h150q-5 67 -5 84q0 45 2 68h-147v104h164q43 199 182 315.5t340 116.5q136 0 248.5 -55t183.5 -149l-96 -72q-57 75 -143.5 117.5t-190.5 42.5q-148 0 -251.5 -83.5t-143.5 -232.5h657v-104h-676q-2 -23 -2 -68q0 -30 4 -84h674v-104h-653
q41 -142 144.5 -221.5t246.5 -79.5q104 0 190.5 44t143.5 120l96 -74q-72 -94 -183.5 -149.5t-248.5 -55.5q-196 0 -334 112t-184 304h-168z" />
    <glyph glyph-name="dollar.op" 
d="M147 213l86 82q145 -157 351 -182v407q-62 12 -107 23.5t-96.5 34.5t-84 52t-54 76t-21.5 107q0 128 97.5 217t265.5 96v119h110v-125q114 -17 213.5 -70.5t159.5 -125.5l-86 -80q-55 64 -129.5 107.5t-157.5 58.5v-389q67 -13 114.5 -26.5t99.5 -37.5t83.5 -55t52.5 -80
t21 -111q-2 -134 -101 -219t-270 -92v-119h-110v123q-130 14 -245.5 68t-191.5 141zM342 815q0 -41 18 -71t54 -49.5t75 -31t95 -22.5v377q-118 -7 -180 -63t-62 -140zM942 307q0 85 -62 126.5t-186 66.5v-394q117 7 182.5 61t65.5 140z" />
    <glyph glyph-name="cent.op" 
d="M602 1262h111v-136q125 -6 229.5 -62.5t175.5 -150.5l-102 -73q-50 73 -129.5 118.5t-173.5 51.5v-895q96 6 174 51t129 119l102 -74q-152 -199 -405 -211v-143h-111v149q-214 29 -345.5 188t-131.5 369t131.5 369t345.5 188v142zM252 563q0 -163 97 -287t253 -153v878
q-157 -29 -253.5 -152t-96.5 -286z" />
    <glyph glyph-name="sterling.op" horiz-adv-x="1230" 
d="M152 0v115l129 92q104 75 141 121t37 102q0 32 -21 72h-286v104h200q-51 55 -80.5 109.5t-29.5 126.5q0 144 113 234.5t282 90.5q288 -3 455 -258l-105 -65q-72 105 -153 156t-191 51q-118 0 -195 -59.5t-77 -160.5q0 -24 6 -47t13 -39t23 -39t24.5 -33t30.5 -35t28 -32
h497v-104h-424q15 -43 15 -72q0 -77 -45 -138.5t-164 -148.5l-41 -28h762v-115h-944z" />
    <glyph glyph-name="yen.op" 
d="M135 375v104h420v152h-420v104h322l-342 393h151l348 -393h4l345 391h151l-338 -391h320v-104h-418v-152h418v-104h-418v-375h-123v375h-420z" />
    <glyph glyph-name="zero.op" 
d="M612 1167q124 0 227.5 -47.5t173 -129.5t108 -192t38.5 -235q0 -124 -38.5 -234t-108 -192.5t-173 -130t-227.5 -47.5q-163 0 -288.5 82t-190.5 218.5t-65 303.5q0 168 65 304.5t190 218t289 81.5zM612 78q184 0 300 139.5t116 345.5t-116 346t-300 140
q-122 0 -217.5 -65t-146.5 -175.5t-51 -245.5q0 -206 115.5 -345.5t299.5 -139.5z" />
    <glyph glyph-name="one.op" horiz-adv-x="946" 
d="M514 0v999l-397 -211l-68 91l459 247h131v-1126h-125z" />
    <glyph glyph-name="two.op" 
d="M178 0v115l428 342q12 10 34 28q66 54 94.5 78.5t66 62t51.5 64t24.5 62t10.5 77.5q0 103 -80 163.5t-201 60.5q-111 0 -190 -51t-152 -158l-106 65q85 127 193.5 192.5t254.5 65.5q177 0 293.5 -91.5t116.5 -241.5q0 -47 -8 -86t-29 -77.5t-43.5 -68.5t-67 -71.5
t-82.5 -73.5t-106 -86l-324 -256h719v-115h-897z" />
    <glyph glyph-name="three.op" 
d="M1098 80q0 -189 -137 -308.5t-349 -119.5q-175 0 -297 66.5t-206 203.5l110 70q69 -117 164.5 -170t226.5 -53q157 0 257 84t100 231q0 139 -91 227t-245 88h-250v113h213q140 0 222.5 77.5t82.5 198.5q0 124 -81 193.5t-210 69.5q-215 0 -327 -207l-107 65
q155 258 438 258q183 0 301.5 -103t118.5 -269q0 -107 -55 -195t-156 -137q132 -43 204.5 -146.5t72.5 -236.5z" />
    <glyph glyph-name="four.op" 
d="M86 127v115l713 884h159v-884h179v-115h-179v-434h-124v434h-748zM227 242h607v751z" />
    <glyph glyph-name="five.op" 
d="M227 401l43 725h748v-114h-627l-29 -496h265q223 0 346 -122t123 -312q0 -191 -137 -310.5t-349 -119.5q-338 0 -504 270l111 70q69 -117 165 -170t226 -53q158 0 257.5 84t99.5 231q0 141 -91.5 229t-250.5 88h-396z" />
    <glyph glyph-name="six.op" 
d="M680 1475q152 0 258.5 -62.5t185.5 -187.5l-102 -72q-68 106 -149.5 155.5t-188.5 49.5q-218 0 -331 -178.5t-113 -487.5q78 91 188 140t236 49q192 0 319 -131t127 -320q0 -96 -32.5 -181t-92.5 -149.5t-151.5 -102.5t-202.5 -38q-245 0 -385 178.5t-140 546.5
q0 241 62.5 416.5t192.5 275t319 99.5zM649 764q-124 0 -229 -54.5t-174 -158.5q22 -246 123.5 -360.5t261.5 -114.5q159 0 251.5 100t92.5 252q0 139 -94 237.5t-232 98.5z" />
    <glyph glyph-name="seven.op" 
d="M350 -307h-147l782 1319h-838v114h975v-114z" />
    <glyph glyph-name="eight.op" 
d="M614 1475q196 0 314.5 -104t118.5 -263q0 -113 -59.5 -195.5t-166.5 -121.5q140 -44 218.5 -149t78.5 -247q0 -189 -138 -312.5t-366 -123.5t-365.5 123t-137.5 313q0 142 78.5 245.5t218.5 147.5q-108 40 -168 123.5t-60 196.5q0 159 118.5 263t315.5 104zM616 838
q131 0 214 73.5t83 188.5q0 118 -83 190t-214 72q-137 0 -220 -72t-83 -190q0 -117 84 -189.5t219 -72.5zM616 74q163 0 267 90.5t104 232.5q0 145 -104.5 239.5t-266.5 94.5q-166 0 -270 -94t-104 -240q0 -143 103.5 -233t270.5 -90z" />
    <glyph glyph-name="nine.op" 
d="M547 -348q-152 0 -259 62.5t-186 187.5l103 71q66 -106 148 -155t192 -49q109 0 194 47.5t139 135.5t81.5 209t27.5 271q-79 -90 -188 -138t-234 -48q-194 0 -321 130.5t-127 319.5q0 128 56 234.5t166.5 171.5t256.5 65q245 0 384.5 -178.5t139.5 -546.5
q0 -241 -62 -416t-192 -274.5t-319 -99.5zM252 698q0 -140 93.5 -238t232.5 -98q125 0 230 55t173 161q-22 245 -124 359t-263 114q-158 0 -250 -100.5t-92 -252.5z" />
    <glyph glyph-name="dollar.weight" 
d="M119 223l92 86q159 -196 395 -196q148 0 232 77t84 195q0 73 -40 126.5t-103.5 86.5t-140 61t-153.5 61t-140.5 75t-103.5 114t-40 168q0 139 97.5 238.5t254.5 116.5v145h113v-145q246 -21 383 -213l-93 -78q-118 180 -346 180q-136 0 -211 -66.5t-75 -177.5
q0 -59 24.5 -104.5t66 -76.5t95 -56t113 -47t119 -45.5t113.5 -55.5t95.5 -72t66.5 -100.5t25 -136.5q0 -155 -104 -259.5t-272 -121.5v-145h-113v145q-273 19 -434 221z" />
    <glyph glyph-name="cent.weight" 
d="M688 279q105 0 191 45t141 125l98 -76q-68 -93 -169 -148.5t-226 -62.5v-162h-113v164q-143 18 -253 97t-169 198t-59 258t59 258t169 198t253 97v164h113v-162q125 -7 226 -62t169 -147l-98 -76q-55 79 -141.5 124.5t-190.5 45.5q-187 0 -309.5 -127t-122.5 -313
q0 -185 122.5 -311.5t309.5 -126.5z" />
    <glyph glyph-name="dollar.lt.weight" 
d="M119 223l92 86q159 -196 395 -196q148 0 232 77t84 195q0 73 -40 126.5t-103.5 86.5t-140 61t-153.5 61t-140.5 75t-103.5 114t-40 168q0 139 97.5 238.5t254.5 116.5v145h113v-145q246 -21 383 -213l-93 -78q-118 180 -346 180q-136 0 -211 -66.5t-75 -177.5
q0 -59 24.5 -104.5t66 -76.5t95 -56t113 -47t119 -45.5t113.5 -55.5t95.5 -72t66.5 -100.5t25 -136.5q0 -155 -104 -259.5t-272 -121.5v-145h-113v145q-273 19 -434 221z" />
    <glyph glyph-name="cent.lt.weight" 
d="M688 279q105 0 191 45t141 125l98 -76q-68 -93 -169 -148.5t-226 -62.5v-162h-113v164q-143 18 -253 97t-169 198t-59 258t59 258t169 198t253 97v164h113v-162q125 -7 226 -62t169 -147l-98 -76q-55 79 -141.5 124.5t-190.5 45.5q-187 0 -309.5 -127t-122.5 -313
q0 -185 122.5 -311.5t309.5 -126.5z" />
    <glyph glyph-name="dollar.op.weight" horiz-adv-x="1230" 
d="M147 213l86 82q85 -92 196.5 -140.5t232.5 -48.5q132 0 206 54.5t74 146.5q0 40 -15.5 71t-40 51t-66.5 36t-81.5 25t-99.5 20q-176 32 -250 63q-165 78 -168 240q0 128 98 217.5t267 95.5v119h110v-125q112 -17 211 -70.5t160 -125.5l-86 -80q-67 80 -165.5 127
t-203.5 47q-131 0 -200.5 -57t-69.5 -146q0 -28 10 -51t23 -39t40.5 -30.5t47.5 -23t60.5 -18t63.5 -14t70 -12.5q53 -10 89 -18t82.5 -21.5t77.5 -29t63.5 -39.5t51.5 -52.5t31.5 -68t12.5 -87.5q-2 -132 -101 -218t-268 -93v-119h-110v123q-130 12 -246 66.5t-193 142.5z
" />
    <glyph glyph-name="Euro.op.weight" 
d="M39 502v104h151q12 254 158.5 407.5t380.5 153.5q136 0 247.5 -57t184.5 -156l-100 -73q-55 78 -141.5 124t-188.5 46q-178 0 -291 -119.5t-123 -325.5h670v-104h-670q17 -199 128.5 -313.5t285.5 -114.5q103 0 188.5 46.5t141.5 125.5l100 -74q-73 -100 -184 -156.5
t-248 -56.5q-229 0 -375.5 148.5t-163.5 394.5h-151z" />
    <glyph glyph-name="cent.op.weight" horiz-adv-x="1230" 
d="M690 115q103 0 189.5 46t140.5 124l100 -74q-70 -94 -173 -149.5t-230 -61.5v-143h-111v149q-214 29 -346.5 187.5t-132.5 369.5t132.5 369.5t346.5 187.5v144h111v-138q127 -6 230 -62.5t173 -150.5l-100 -73q-54 78 -141 124t-189 46q-126 0 -226.5 -61.5t-155 -163
t-54.5 -222.5q0 -122 54.5 -224t155 -163t226.5 -61z" />
    <glyph glyph-name="yen.op.weight" 
d="M133 502v104h363l-383 522h151l352 -491l349 489h149l-377 -520h359v-104h-416v-502h-125v502h-422z" />
    <glyph glyph-name="dollar.ot.weight" 
d="M143 213l86 82q85 -92 196.5 -140.5t231.5 -48.5q132 0 206.5 54.5t74.5 146.5q0 40 -15.5 71t-40 51t-66.5 36t-81.5 25t-99.5 20q-176 32 -250 63q-165 78 -168 240q0 128 98 217.5t267 95.5v119h110v-125q112 -17 211 -70.5t160 -125.5l-86 -80q-67 80 -165.5 127
t-203.5 47q-131 0 -200.5 -57t-69.5 -146q0 -28 10 -51t23 -39t40.5 -30.5t47.5 -23t60.5 -18t63.5 -14t70 -12.5q53 -10 89 -18t82.5 -21.5t77.5 -29t63.5 -39.5t51.5 -52.5t31.5 -68t12.5 -87.5q-2 -132 -101 -218t-268 -93v-119h-110v123q-130 12 -246 66.5t-193 142.5z
" />
    <glyph glyph-name="Euro.ot.weight" 
d="M35 502v104h151q12 254 158.5 407.5t380.5 153.5q136 0 247.5 -57t184.5 -156l-100 -73q-55 78 -141.5 124t-188.5 46q-178 0 -291 -119.5t-123 -325.5h670v-104h-670q17 -199 128.5 -313.5t285.5 -114.5q103 0 188.5 46.5t141.5 125.5l100 -74q-73 -100 -184 -156.5
t-248 -56.5q-229 0 -375.5 148.5t-163.5 394.5h-151z" />
    <glyph glyph-name="cent.ot.weight" horiz-adv-x="1230" 
d="M686 115q103 0 189.5 46t140.5 124l100 -74q-70 -94 -173 -149.5t-230 -61.5v-143h-111v149q-214 29 -346.5 187.5t-132.5 369.5t132.5 369.5t346.5 187.5v144h111v-138q127 -6 230 -62.5t173 -150.5l-100 -73q-54 78 -141 124t-189 46q-126 0 -226.5 -61.5t-155 -163
t-54.5 -222.5q0 -122 54.5 -224t155 -163t226.5 -61z" />
    <glyph glyph-name="yen.ot.weight" 
d="M129 502v104h363l-383 522h151l352 -491l349 489h149l-377 -520h359v-104h-416v-502h-125v502h-422z" />
    <glyph glyph-name="a.superior" horiz-adv-x="735" 
d="M301 805q-93 0 -150 48.5t-57 129.5q0 74 54 124t155 67l213 36v47q0 68 -43.5 106t-114.5 38q-112 0 -174 -90l-75 55q92 123 251 123q117 0 184.5 -63.5t67.5 -168.5v-428h-96v82q-38 -51 -94.5 -78.5t-120.5 -27.5zM193 985q0 -44 32.5 -72t89.5 -28q125 0 201 123
v125l-190 -29q-67 -10 -100 -41.5t-33 -77.5z" />
    <glyph glyph-name="b.superior" horiz-adv-x="872" 
d="M791 1147q0 -142 -90.5 -242t-235.5 -100q-146 0 -232 100v-76h-96v945h96v-388q89 103 232 103q145 0 235.5 -100t90.5 -242zM233 1020q38 -60 96 -92.5t126 -32.5q103 0 169 73t66 179t-66 178t-169 72q-68 0 -126 -32t-96 -91v-254z" />
    <glyph glyph-name="c.superior" horiz-adv-x="774" 
d="M426 895q119 0 186 98l78 -59q-44 -60 -112 -94.5t-152 -34.5q-153 0 -248.5 100t-95.5 242t95.5 242t248.5 100q82 0 151 -35.5t113 -95.5l-78 -58q-66 97 -188 97q-103 0 -172.5 -72.5t-69.5 -177.5q0 -107 69.5 -179.5t174.5 -72.5z" />
    <glyph glyph-name="d.superior" horiz-adv-x="870" 
d="M82 1147q0 142 91 242t235 100q143 0 229 -100v385h98v-945h-98v74q-89 -98 -229 -98q-144 0 -235 100t-91 242zM184 1147q0 -106 65.5 -179t168.5 -73q68 0 125 31.5t94 89.5v262q-78 119 -219 119q-103 0 -168.5 -72t-65.5 -178z" />
    <glyph glyph-name="e.superior" horiz-adv-x="782" 
d="M696 934q-44 -60 -114 -94.5t-156 -34.5q-154 0 -249 99.5t-95 242.5q0 148 86.5 245t228.5 97q129 0 207 -77.5t78 -197.5q0 -39 -6 -63h-494v-8q0 -108 68.5 -179t177.5 -71q128 0 197 98zM399 1405q-81 0 -135.5 -45.5t-73.5 -130.5h394q-3 76 -53.5 126t-131.5 50z
" />
    <glyph glyph-name="egrave.superior" horiz-adv-x="782" 
d="M350 1565l-147 209h110l133 -209h-96zM696 934q-44 -60 -114 -94.5t-156 -34.5q-154 0 -249 99.5t-95 242.5q0 148 87 245t230 97q127 0 205 -77.5t78 -197.5q0 -39 -6 -63h-492v-8q0 -108 68 -179t176 -71q128 0 197 98zM401 1405q-80 0 -134.5 -45.5t-73.5 -130.5h391
q-2 75 -52.5 125.5t-130.5 50.5z" />
    <glyph glyph-name="f.superior" horiz-adv-x="524" 
d="M53 1464h119v78q0 103 61 167.5t160 64.5q97 0 164 -64l-61 -70q-40 43 -101 43q-55 0 -90 -37t-35 -100v-82h228v-88h-228v-547h-98v547h-119v88z" />
    <glyph glyph-name="g.superior" horiz-adv-x="749" 
d="M72 711q0 92 100 163q-49 32 -49 93q0 72 76 120q-88 66 -88 179q0 94 67 158.5t176 64.5q64 0 119 -25h238v-84h-144q33 -47 33 -114q0 -95 -67.5 -160.5t-178.5 -65.5q-41 0 -92 15q-45 -28 -45 -68q0 -49 57 -49h181q123 0 184 -51.5t61 -138.5q0 -103 -90.5 -168.5
t-232.5 -65.5q-138 0 -221.5 53t-83.5 144zM354 1120q71 0 112.5 42t41.5 104q0 61 -41.5 103t-112.5 42t-111 -42t-40 -103q0 -63 40 -104.5t111 -41.5zM170 723q0 -58 57 -92.5t152 -34.5q100 0 159.5 38.5t59.5 104.5q0 113 -154 113h-188q-86 -53 -86 -129z" />
    <glyph glyph-name="h.superior" horiz-adv-x="823" 
d="M137 829v945h96v-388q86 103 218 103q110 0 178.5 -72.5t68.5 -202.5v-385h-98v383q0 88 -45 136.5t-121 48.5q-125 0 -201 -123v-445h-96z" />
    <glyph glyph-name="j.superior" horiz-adv-x="370" 
d="M184 1634q-28 0 -48.5 20.5t-20.5 49.5t20.5 49.5t48.5 20.5q29 0 49.5 -20.5t20.5 -49.5t-20.5 -49.5t-49.5 -20.5zM233 743q0 -119 -55 -174t-162 -55q-62 0 -106 18v86q44 -14 94 -14q65 0 99 31t34 108v721h96v-721z" />
    <glyph glyph-name="k.superior" horiz-adv-x="698" 
d="M121 829v881h96v-555l313 309h123l-268 -262l274 -373h-120l-222 306l-100 -99v-207h-96z" />
    <glyph glyph-name="l.superior" horiz-adv-x="370" 
d="M137 829v945h96v-945h-96z" />
    <glyph glyph-name="m.superior" horiz-adv-x="1232" 
d="M137 829v635h96v-75q83 100 205 100q71 0 126.5 -33.5t84.5 -95.5q89 129 228 129q105 0 170 -68.5t65 -193.5v-398h-98v396q0 82 -42.5 127t-115.5 45q-116 0 -184 -123q2 -14 2 -47v-398h-99v396q0 82 -42 127t-115 45q-116 0 -185 -123v-445h-96z" />
    <glyph glyph-name="o.superior" horiz-adv-x="847" 
d="M424 1489q149 0 245.5 -100.5t96.5 -241.5t-96.5 -241.5t-245.5 -100.5q-150 0 -246 100t-96 242t96 242t246 100zM426 895q101 0 169.5 74.5t68.5 177.5t-68.5 176.5t-169.5 73.5q-105 0 -174.5 -73.5t-69.5 -176.5t69.5 -177.5t174.5 -74.5z" />
    <glyph glyph-name="p.superior" horiz-adv-x="872" 
d="M137 520v944h96v-78q89 103 232 103q145 0 235.5 -100t90.5 -242t-90.5 -242t-235.5 -100q-146 0 -232 100v-385h-96zM233 1020q38 -60 96 -92.5t126 -32.5q103 0 169 73t66 179t-66 178t-169 72q-68 0 -126 -32t-96 -91v-254z" />
    <glyph glyph-name="q.superior" horiz-adv-x="872" 
d="M735 520h-98v383q-89 -98 -229 -98q-145 0 -235.5 100t-90.5 242t90.5 242t235.5 100q143 0 229 -100v75h98v-944zM182 1147q0 -106 66.5 -179t169.5 -73q68 0 125 31.5t94 89.5v262q-78 119 -219 119q-103 0 -169.5 -72t-66.5 -178z" />
    <glyph glyph-name="r.superior" horiz-adv-x="522" 
d="M137 829v635h96v-84q77 97 189 97q21 0 53 -9v-98q-32 8 -61 8q-115 0 -181 -110v-439h-96z" />
    <glyph glyph-name="s.superior" horiz-adv-x="593" 
d="M68 915l67 60q69 -88 164 -88q56 0 87.5 29t31.5 75q0 38 -33 65t-79.5 46t-93 42t-79.5 65.5t-33 103.5q0 76 56.5 126t144.5 50q65 0 121.5 -28.5t91.5 -74.5l-70 -59q-55 80 -141 80q-51 0 -78.5 -25t-27.5 -67q0 -33 23.5 -58t58.5 -40.5t75.5 -35.5t75.5 -41
t58.5 -59t23.5 -88q-1 -85 -60.5 -136.5t-150.5 -51.5q-149 0 -233 110z" />
    <glyph glyph-name="t.superior" horiz-adv-x="571" 
d="M172 1036v340h-119v88h119v158h98v-158h228v-88h-228v-340q0 -72 34 -101.5t99 -29.5q53 0 95 17v-88q-44 -17 -107 -17q-219 0 -219 219z" />
    <glyph glyph-name="u.superior" horiz-adv-x="802" 
d="M582 1100v364h98v-360q0 -141 -75 -220t-204 -79q-127 0 -201.5 79t-74.5 220v360h94v-364q0 -98 48.5 -151.5t133.5 -53.5q83 0 132 54t49 151z" />
    <glyph glyph-name="v.superior" horiz-adv-x="710" 
d="M41 1464h104l211 -536l209 536h105l-252 -635h-127z" />
    <glyph glyph-name="w.superior" horiz-adv-x="1007" 
d="M49 1464h98l136 -536l153 536h133l156 -532l135 532h96l-159 -635h-135l-158 541l-158 -541h-135z" />
    <glyph glyph-name="x.superior" horiz-adv-x="700" 
d="M160 829h-111l240 330l-219 305h106l174 -241l174 241h109l-221 -305l239 -330h-108l-193 267z" />
    <glyph glyph-name="y.superior" horiz-adv-x="727" 
d="M352 674q-69 -160 -223 -160q-49 0 -100 21v88q43 -19 84 -19q53 0 89.5 23.5t59.5 83.5l51 120l-272 633h106l220 -510l217 510h104z" />
    <glyph glyph-name="z.superior" horiz-adv-x="653" 
d="M72 829v89l385 458h-377v88h493v-88l-385 -458h394v-89h-510z" />
    <glyph glyph-name="zero.numr" horiz-adv-x="796" 
d="M397 1458q158 0 243 -129.5t85 -335.5t-85 -335.5t-243 -129.5q-157 0 -242 130t-85 335t85 335t242 130zM397 1364q-107 0 -164 -103t-57 -268t57 -267.5t164 -102.5q105 0 163 103t58 267t-58 267.5t-163 103.5z" />
    <glyph glyph-name="one.numr" horiz-adv-x="796" 
d="M129 553v92h254v684l-244 -129l-55 74l299 160h102v-789h228v-92h-584z" />
    <glyph glyph-name="two.numr" horiz-adv-x="796" 
d="M109 553v92l299 309q45 48 57 61.5t39.5 47t35 51t15.5 45.5t8 58q0 70 -45.5 109.5t-118.5 39.5q-69 0 -118.5 -32.5t-90.5 -100.5l-84 53q110 172 297 172q115 0 191 -65.5t76 -169.5q0 -45 -12.5 -85.5t-42.5 -83t-56.5 -72.5t-77.5 -83l-248 -254h459v-92h-583z" />
    <glyph glyph-name="three.numr" horiz-adv-x="796" 
d="M700 795q0 -120 -85 -193.5t-220 -73.5q-215 0 -317 170l88 56q78 -133 227 -133q90 0 145.5 47.5t55.5 130.5q0 79 -51.5 127.5t-139.5 48.5h-153v92h133q77 0 123.5 43t46.5 111t-45.5 106.5t-116.5 38.5q-122 0 -188 -119l-86 51q99 160 280 160q114 0 188 -63.5
t74 -165.5q0 -67 -31 -119.5t-89 -83.5q77 -29 119 -90.5t42 -140.5z" />
    <glyph glyph-name="four.numr" horiz-adv-x="796" 
d="M516 553v258h-428v90l406 533h122v-533h105v-90h-105v-258h-100zM197 901h319v420z" />
    <glyph glyph-name="five.numr" horiz-adv-x="796" 
d="M156 977l26 457h475v-93h-378l-17 -272h139q142 0 221.5 -75t79.5 -197q0 -121 -85.5 -195t-219.5 -74q-215 0 -317 170l88 56q78 -133 229 -133q88 0 143.5 47.5t55.5 130.5q0 81 -53 129.5t-146 48.5h-241z" />
    <glyph glyph-name="six.numr" horiz-adv-x="796" 
d="M451 1458q183 0 282 -149l-80 -62q-41 61 -88 90t-110 29q-126 0 -190 -101.5t-64 -279.5q95 115 252 115q120 0 197 -81t77 -198q0 -123 -82 -208t-219 -85q-157 0 -244.5 112.5t-87.5 336.5t90.5 352.5t266.5 128.5zM436 1008q-147 0 -231 -119q25 -268 221 -268
q90 0 141 56t51 142q0 79 -52 134t-130 55z" />
    <glyph glyph-name="seven.numr" horiz-adv-x="794" 
d="M258 553h-123l467 788h-496v93h609v-93z" />
    <glyph glyph-name="eight.numr" horiz-adv-x="796" 
d="M397 1458q126 0 200.5 -65t74.5 -164q0 -65 -34 -115t-97 -78q83 -29 128.5 -91.5t45.5 -147.5q0 -117 -86 -193t-232 -76q-143 0 -229 76t-86 193q0 84 45 146t129 93q-64 26 -98.5 77t-34.5 116q0 99 74 164t200 65zM399 1075q74 0 120 41t46 107t-46 106.5t-120 40.5
q-76 0 -123 -40.5t-47 -106.5t47 -107t123 -41zM399 618q93 0 151 50.5t58 132.5t-58.5 134t-150.5 52q-95 0 -154 -52t-59 -134t59 -132.5t154 -50.5z" />
    <glyph glyph-name="nine.numr" horiz-adv-x="796" 
d="M360 528q-183 0 -282 150l80 61q40 -61 87.5 -89.5t112.5 -28.5q126 0 189 100.5t63 277.5q-95 -112 -250 -112q-121 0 -197.5 80t-76.5 198q0 123 81.5 208t219.5 85q157 0 243.5 -111.5t86.5 -336.5q0 -224 -90.5 -353t-266.5 -129zM193 1167q0 -79 51.5 -133.5
t132.5 -54.5q70 0 130 30.5t99 88.5q-25 268 -219 268q-91 0 -142.5 -56.5t-51.5 -142.5z" />
    <glyph glyph-name="zero.dnom" horiz-adv-x="796" 
d="M397 905q158 0 243 -129.5t85 -335.5t-85 -335.5t-243 -129.5q-157 0 -242 130t-85 335t85 335t242 130zM397 811q-107 0 -164 -103t-57 -268t57 -267.5t164 -102.5q105 0 163 103t58 267t-58 267.5t-163 103.5z" />
    <glyph glyph-name="one.dnom" horiz-adv-x="796" 
d="M129 0v92h254v684l-244 -129l-55 74l299 160h102v-789h228v-92h-584z" />
    <glyph glyph-name="two.dnom" horiz-adv-x="796" 
d="M109 0v92l299 309q45 48 57 61.5t39.5 47t35 51t15.5 45.5t8 58q0 70 -45.5 109.5t-118.5 39.5q-69 0 -118.5 -32.5t-90.5 -100.5l-84 53q110 172 297 172q115 0 191 -65.5t76 -169.5q0 -45 -12.5 -85.5t-42.5 -83t-56.5 -72.5t-77.5 -83l-248 -254h459v-92h-583z" />
    <glyph glyph-name="three.dnom" horiz-adv-x="796" 
d="M700 242q0 -120 -85 -193.5t-220 -73.5q-215 0 -317 170l88 56q78 -133 227 -133q90 0 145.5 47.5t55.5 130.5q0 79 -51.5 127.5t-139.5 48.5h-153v92h133q77 0 123.5 43t46.5 111t-45.5 106.5t-116.5 38.5q-122 0 -188 -119l-86 51q99 160 280 160q114 0 188 -63.5
t74 -165.5q0 -67 -31 -119.5t-89 -83.5q77 -29 119 -90.5t42 -140.5z" />
    <glyph glyph-name="four.dnom" horiz-adv-x="796" 
d="M88 258v90l406 533h122v-533h105v-90h-105v-258h-100v258h-428zM197 348h319v420z" />
    <glyph glyph-name="five.dnom" horiz-adv-x="796" 
d="M156 424l26 457h475v-93h-378l-17 -272h139q142 0 221.5 -75t79.5 -197q0 -121 -85.5 -195t-219.5 -74q-215 0 -317 170l88 56q78 -133 229 -133q88 0 143.5 47.5t55.5 130.5q0 81 -53 129.5t-146 48.5h-241z" />
    <glyph glyph-name="six.dnom" horiz-adv-x="796" 
d="M451 905q183 0 282 -149l-80 -62q-41 61 -88 90t-110 29q-126 0 -190 -101.5t-64 -279.5q95 115 252 115q120 0 197 -81t77 -198q0 -123 -82 -208t-219 -85q-157 0 -244.5 112.5t-87.5 336.5t90.5 352.5t266.5 128.5zM436 455q-147 0 -231 -119q25 -268 221 -268
q90 0 141 56t51 142q0 79 -52 134t-130 55z" />
    <glyph glyph-name="seven.dnom" horiz-adv-x="794" 
d="M258 0h-123l467 788h-496v93h609v-93z" />
    <glyph glyph-name="eight.dnom" horiz-adv-x="796" 
d="M397 905q126 0 200.5 -65t74.5 -164q0 -65 -34 -115t-97 -78q83 -29 128.5 -91.5t45.5 -147.5q0 -117 -86 -193t-232 -76q-143 0 -229 76t-86 193q0 84 45 146t129 93q-64 26 -98.5 77t-34.5 116q0 99 74 164t200 65zM399 522q74 0 120 41t46 107t-46 106.5t-120 40.5
q-76 0 -123 -40.5t-47 -106.5t47 -107t123 -41zM399 66q93 0 151 50.5t58 131.5q0 82 -58.5 134t-150.5 52q-95 0 -154 -52t-59 -134t59 -132t154 -50z" />
    <glyph glyph-name="nine.dnom" horiz-adv-x="796" 
d="M360 -25q-183 0 -282 150l80 61q40 -61 87.5 -89.5t112.5 -28.5q126 0 189 100.5t63 277.5q-95 -112 -250 -112q-121 0 -197.5 80t-76.5 198q0 123 81.5 208t219.5 85q157 0 243.5 -111.5t86.5 -336.5q0 -224 -90.5 -353t-266.5 -129zM193 614q0 -79 51.5 -133.5
t132.5 -54.5q70 0 130 30.5t99 88.5q-25 268 -219 268q-91 0 -142.5 -56.5t-51.5 -142.5z" />
    </font>
</defs>
</svg>
