<?xml version="1.0" standalone="no"?>
<!DOCTYPE svg PUBLIC "-//W3C//DTD SVG 1.1//EN" "http://www.w3.org/Graphics/SVG/1.1/DTD/svg11.dtd" >
<svg xmlns="http://www.w3.org/2000/svg" xmlns:xlink="http://www.w3.org/1999/xlink" version="1.1">
<metadata>
Created by FontForge 20170731 at Thu Jan 14 17:15:38 2021
 By Aleksey,,,
Mathieu Reguer
</metadata>
<defs>
<font id="Marianne-Regular" horiz-adv-x="1228" >
  <font-face 
    font-family="Marianne"
    font-weight="400"
    font-stretch="normal"
    units-per-em="2048"
    panose-1="2 0 0 0 0 0 0 0 0 0"
    ascent="1536"
    descent="-512"
    x-height="1032"
    cap-height="1434"
    bbox="-412 -512 2503 1978"
    underline-thickness="151"
    underline-position="-417"
    unicode-range="U+0020-25CC"
  />
<missing-glyph 
d="M2 -504v2040h1227v-2040h-1227zM455 266h184l14 144q190 33 303 142t113 279q0 119 -61 213t-160.5 143.5t-216.5 49.5q-153 0 -266.5 -66.5t-198.5 -199.5l215 -131q56 85 111 124.5t129 39.5q77 0 128.5 -50t51.5 -125q0 -61 -25.5 -104t-77.5 -69.5t-116 -41.5
t-156 -24zM549 -197q69 0 119.5 50t50.5 120q0 68 -50.5 118t-119.5 50q-70 0 -121 -50t-51 -118q0 -70 50.5 -120t121.5 -50z" />
    <glyph glyph-name=".notdef" 
d="M2 -504v2040h1227v-2040h-1227zM455 266h184l14 144q190 33 303 142t113 279q0 119 -61 213t-160.5 143.5t-216.5 49.5q-153 0 -266.5 -66.5t-198.5 -199.5l215 -131q56 85 111 124.5t129 39.5q77 0 128.5 -50t51.5 -125q0 -61 -25.5 -104t-77.5 -69.5t-116 -41.5
t-156 -24zM549 -197q69 0 119.5 50t50.5 120q0 68 -50.5 118t-119.5 50q-70 0 -121 -50t-51 -118q0 -70 50.5 -120t121.5 -50z" />
    <glyph glyph-name=".null" horiz-adv-x="0" 
 />
    <glyph glyph-name="nonmarkingreturn" horiz-adv-x="682" 
 />
    <glyph glyph-name="space" unicode=" " horiz-adv-x="552" 
 />
    <glyph glyph-name="exclam" unicode="!" horiz-adv-x="622" 
d="M244 418l-33 1016h199l-33 -1016h-133zM313 -23q-55 0 -94 39t-39 93q0 53 39 91t94 38q54 0 91.5 -38t37.5 -91q0 -54 -37.5 -93t-91.5 -39z" />
    <glyph glyph-name="quotedbl" unicode="&#x22;" horiz-adv-x="948" 
d="M354 885h-151l-25 549h199zM745 885h-151l-25 549h199z" />
    <glyph glyph-name="numbersign" unicode="#" horiz-adv-x="1355" 
d="M66 528h215l102 377h-317v146h358l104 383h160l-104 -383h372l105 383h160l-105 -383h172v-146h-213l-102 -377h315v-145h-356l-105 -383h-159l104 383h-373l-104 -383h-160l105 383h-174v145zM440 528h373l102 377h-372z" />
    <glyph glyph-name="dollar" unicode="$" 
d="M104 225l127 119q134 -157 310 -182v508q-64 24 -108 44.5t-96.5 55t-84 73t-53 96t-21.5 126.5q0 140 100.5 242.5t262.5 122.5v147h151v-147q242 -26 389 -213l-127 -115q-99 140 -262 172v-477q48 -18 80.5 -31.5t75.5 -35.5t72 -43t60 -52t49 -65t30 -79.5t12 -97.5
q-1 -157 -106 -262t-273 -127v-147h-151v147q-270 21 -437 221zM352 1067q0 -75 49 -124t140 -89v420q-92 -17 -140.5 -71.5t-48.5 -135.5zM899 391q0 81 -53 131t-154 92v-452q100 18 153.5 80t53.5 149z" />
    <glyph glyph-name="percent" unicode="%" horiz-adv-x="1687" 
d="M422 1479q151 0 247.5 -99.5t96.5 -242.5t-96.5 -242.5t-247.5 -99.5q-152 0 -249 99.5t-97 242.5t97 242.5t249 99.5zM223 2l1051 1434h184l-1050 -1434h-185zM422 918q88 0 147.5 63.5t59.5 155.5q0 93 -59 156t-148 63q-91 0 -150 -63t-59 -156t59 -156t150 -63z
M1266 645q151 0 247.5 -99.5t96.5 -242.5t-96.5 -242.5t-247.5 -99.5q-152 0 -249 99.5t-97 242.5t97 242.5t249 99.5zM1266 84q88 0 147.5 63.5t59.5 155.5q0 93 -59 156t-148 63q-91 0 -150 -63t-59 -156t59 -156t150 -63z" />
    <glyph glyph-name="ampersand" unicode="&#x26;" horiz-adv-x="1525" 
d="M1466 0h-225l-156 150q-186 -189 -458 -189q-220 0 -359 121.5t-139 323.5q0 140 78.5 242.5t202.5 152.5q-72 80 -107 155t-35 168q0 152 106.5 251.5t276.5 99.5q164 0 269.5 -97t105.5 -250q0 -140 -87 -232.5t-237 -141.5l359 -355q87 142 143 369h182
q-80 -311 -200 -492zM449 1114q0 -44 9.5 -78t34.5 -68t42 -52t59 -58q136 37 200 101t64 163q0 81 -55.5 137t-145.5 56q-97 0 -152.5 -56t-55.5 -145zM313 406q0 -129 93.5 -207t230.5 -78q184 0 326 145l-435 414l-10 10q-93 -37 -149 -110t-56 -174z" />
    <glyph glyph-name="quotesingle" unicode="'" horiz-adv-x="552" 
d="M354 885h-151l-25 549h199z" />
    <glyph glyph-name="parenleft" unicode="(" horiz-adv-x="659" 
d="M262 563q0 -527 344 -868l-127 -105q-187 174 -290 422.5t-103 550.5q0 300 106.5 550.5t286.5 422.5l127 -104q-165 -164 -254.5 -383.5t-89.5 -485.5z" />
    <glyph glyph-name="parenright" unicode=")" horiz-adv-x="659" 
d="M397 563q0 526 -346 869l127 104q184 -173 288.5 -422.5t104.5 -550.5q0 -302 -104.5 -551t-288.5 -422l-127 105q346 343 346 868z" />
    <glyph glyph-name="asterisk" unicode="*" horiz-adv-x="882" 
d="M737 760l-123 -88l-174 266l-170 -266l-123 88l199 246l-305 81l47 146l297 -117l-18 318h151l-18 -316l295 115l47 -146l-307 -81z" />
    <glyph glyph-name="plus" unicode="+" 
d="M1130 440h-440v-440h-151v440h-441v152h441v440h151v-440h440v-152z" />
    <glyph glyph-name="comma" unicode="," horiz-adv-x="552" 
d="M252 -328h-162l174 543h199z" />
    <glyph glyph-name="hyphen" unicode="-" horiz-adv-x="634" 
d="M41 608h553v-168h-553v168z" />
    <glyph glyph-name="period" unicode="." horiz-adv-x="552" 
d="M279 -23q-54 0 -94 39t-40 93q0 52 40 90.5t94 38.5t92.5 -38t38.5 -91q0 -54 -38.5 -93t-92.5 -39z" />
    <glyph glyph-name="slash" unicode="/" horiz-adv-x="731" 
d="M29 -403l495 1939h176l-495 -1939h-176z" />
    <glyph glyph-name="zero" unicode="0" 
d="M612 1475q106 0 194 -38t151 -106t106.5 -163t64.5 -208.5t21 -242.5t-21 -242.5t-64.5 -208.5t-106.5 -163t-151 -106t-194 -38q-173 0 -295.5 102t-180.5 270.5t-58 385.5t58 385.5t180.5 270.5t295.5 102zM614 1303q-112 0 -191.5 -77t-118 -208t-38.5 -301t38.5 -301
t118 -208t191.5 -77q111 0 189.5 77t116.5 207.5t38 301.5t-38 301.5t-116.5 207.5t-189.5 77z" />
    <glyph glyph-name="one" unicode="1" horiz-adv-x="946" 
d="M485 0v1247l-379 -205l-94 132l471 260h185v-1434h-183z" />
    <glyph glyph-name="two" unicode="2" 
d="M139 0v166l486 500q63 66 91.5 97t65 77t51 76.5t25 71t10.5 85.5q0 110 -71 173t-183 63q-110 0 -188.5 -53t-144.5 -162l-152 92q186 289 500 289q183 0 306.5 -109t123.5 -281q0 -71 -20.5 -136t-66.5 -132.5t-90.5 -119.5t-121.5 -132l-393 -399h731v-166h-959z" />
    <glyph glyph-name="three" unicode="3" 
d="M1110 395q0 -194 -141 -315t-359 -121q-182 0 -310 72.5t-216 218.5l162 100q65 -117 153 -171t209 -54q137 0 224.5 75t87.5 203q0 123 -82.5 199t-221.5 76h-243v166h215q122 0 195 66t73 171q0 106 -71.5 167t-184.5 61q-193 0 -297 -191l-153 94q160 263 462 263
q188 0 310 -104.5t122 -272.5q0 -105 -48.5 -190.5t-139.5 -135.5q122 -50 188 -150t66 -227z" />
    <glyph glyph-name="four" unicode="4" 
d="M82 414v166l674 854h223v-854h166v-166h-166v-414h-184v414h-713zM279 580h516v653z" />
    <glyph glyph-name="five" unicode="5" 
d="M211 680l43 754h788v-166h-612l-24 -420h206q240 0 369 -122.5t129 -326.5q0 -196 -141 -318t-359 -122q-181 0 -309.5 73t-216.5 218l162 100q65 -118 153.5 -171.5t208.5 -53.5q138 0 226 75t88 203q0 126 -84.5 201.5t-233.5 75.5h-393z" />
    <glyph glyph-name="six" unicode="6" 
d="M684 1475q291 0 459 -244l-144 -111q-64 96 -138 141.5t-173 45.5q-188 0 -292.5 -151.5t-112.5 -420.5q160 160 395 160q199 0 327 -131.5t128 -323.5q0 -98 -34.5 -185t-97 -153t-158.5 -104.5t-212 -38.5q-258 0 -398.5 184.5t-140.5 550.5q0 176 37 318.5t109 246
t185.5 160t260.5 56.5zM649 729q-109 0 -202 -46.5t-156 -137.5q43 -418 344 -418q141 0 223 87t82 220q0 125 -83 210t-208 85z" />
    <glyph glyph-name="seven" unicode="7" horiz-adv-x="1226" 
d="M393 0h-213l758 1268h-799v166h996v-166z" />
    <glyph glyph-name="eight" unicode="8" 
d="M614 1475q208 0 330.5 -107.5t122.5 -267.5q0 -108 -54 -190t-155 -126q134 -47 206.5 -148t72.5 -239q0 -191 -141.5 -314.5t-381.5 -123.5q-239 0 -380.5 123.5t-141.5 314.5q0 138 72.5 239t206.5 148q-102 44 -156.5 126t-54.5 190q0 160 122 267.5t332 107.5z
M616 854q115 0 188 64t73 165q0 103 -72.5 167.5t-188.5 64.5q-119 0 -191.5 -64.5t-72.5 -167.5t72 -166t192 -63zM616 121q147 0 238.5 79.5t91.5 205.5q0 128 -91.5 209t-238.5 81q-150 0 -241.5 -81t-91.5 -209t91.5 -206.5t241.5 -78.5z" />
    <glyph glyph-name="nine" unicode="9" 
d="M541 -41q-294 0 -459 244l143 110q64 -96 138.5 -141t173.5 -45q190 0 294.5 151t112.5 422q-158 -161 -397 -161q-198 0 -325.5 131t-127.5 323q0 98 34 185t96.5 153.5t159 105t212.5 38.5q257 0 398 -185t141 -551q0 -176 -37 -318.5t-110 -246t-186.5 -159.5
t-260.5 -56zM285 999q0 -125 82.5 -209.5t207.5 -84.5q111 0 205 47t156 139q-22 216 -112.5 316t-233.5 100q-139 0 -222 -87.5t-83 -220.5z" />
    <glyph glyph-name="colon" unicode=":" horiz-adv-x="552" 
d="M279 795q-54 0 -94 39t-40 94q0 51 40 89t94 38t92.5 -38t38.5 -89q0 -55 -38.5 -94t-92.5 -39zM279 -23q-54 0 -94 39t-40 93q0 52 40 90.5t94 38.5t92.5 -38t38.5 -91q0 -54 -38.5 -93t-92.5 -39z" />
    <glyph glyph-name="semicolon" unicode=";" horiz-adv-x="552" 
d="M279 795q-54 0 -94 39t-40 94q0 51 40 89t94 38t92.5 -38t38.5 -89q0 -55 -38.5 -94t-92.5 -39zM215 -328h-162l174 543h199z" />
    <glyph glyph-name="less" unicode="&#x3c;" 
d="M1130 164v-164l-1032 428v176l1032 428v-164l-866 -352z" />
    <glyph glyph-name="equal" unicode="=" 
d="M1130 662h-1032v151h1032v-151zM1130 219h-1032v152h1032v-152z" />
    <glyph glyph-name="greater" unicode="&#x3e;" 
d="M98 164l867 352l-867 352v164l1032 -428v-176l-1032 -428v164z" />
    <glyph glyph-name="question" unicode="?" horiz-adv-x="1042" 
d="M367 418l-21 311q222 25 334.5 104t112.5 222q0 110 -74.5 184t-186.5 74q-93 0 -163 -43t-136 -135l-151 94q84 120 194.5 183t262.5 63q186 0 314 -119t128 -299q0 -183 -128 -300.5t-341 -154.5l-10 -184h-135zM436 -23q-54 0 -92.5 39t-38.5 93q0 53 38.5 91t92.5 38
t92.5 -38t38.5 -91q0 -54 -38.5 -93t-92.5 -39z" />
    <glyph glyph-name="at" unicode="@" horiz-adv-x="1718" 
d="M479 512q0 153 98 260t254 107q135 0 234 -99v72h141v-469q0 -54 27.5 -85.5t71.5 -31.5q80 0 131 90t51 238q0 157 -79 286t-220 204t-316 75q-138 0 -258 -51.5t-203.5 -139t-131.5 -205.5t-48 -249q0 -176 80.5 -323.5t227 -235.5t327.5 -88q150 0 265 43.5t231 146.5
l72 -100q-127 -106 -262.5 -153.5t-307.5 -47.5q-166 0 -309.5 61t-242 164t-154.5 241.5t-56 291.5t56.5 291.5t155.5 241.5t244.5 164t313.5 61q162 0 301 -53.5t235.5 -145t151 -216t54.5 -263.5q0 -194 -88 -320.5t-228 -126.5q-75 0 -129.5 31.5t-81.5 87.5
q-99 -119 -256 -119q-156 0 -254 106t-98 259zM633 512q0 -98 61 -164.5t158 -66.5q134 0 213 129v202q-85 131 -213 131q-97 0 -158 -65.5t-61 -165.5z" />
    <glyph glyph-name="A" unicode="A" horiz-adv-x="1511" 
d="M55 0l572 1434h258l571 -1434h-205l-166 422h-659l-166 -422h-205zM489 588h533l-266 678z" />
    <glyph glyph-name="B" unicode="B" horiz-adv-x="1220" 
d="M227 0v1434h346q204 0 322.5 -101t118.5 -272q0 -97 -44 -173.5t-128 -121.5q125 -44 191.5 -137t66.5 -217q0 -189 -132.5 -300.5t-359.5 -111.5h-381zM575 1266h-155v-428h155q113 0 176.5 56.5t63.5 160.5q0 100 -63.5 155.5t-176.5 55.5zM616 672h-196v-504h196
q134 0 209.5 66.5t75.5 187.5q0 119 -75.5 184.5t-209.5 65.5z" />
    <glyph glyph-name="C" unicode="C" horiz-adv-x="1550" 
d="M858 139q141 0 256.5 63t190.5 171l153 -119q-101 -137 -256 -216t-344 -79q-164 0 -306.5 61t-239.5 164t-152.5 241.5t-55.5 291.5t55.5 291.5t152.5 241.5t239.5 164t306.5 61q188 0 343 -79t257 -216l-153 -119q-74 108 -190 170.5t-257 62.5q-159 0 -286.5 -77.5
t-198 -209.5t-70.5 -290t70.5 -290t198 -210t286.5 -78z" />
    <glyph glyph-name="D" unicode="D" horiz-adv-x="1638" 
d="M227 0v1434h551q164 0 306.5 -58t239.5 -155.5t152.5 -228.5t55.5 -275t-55.5 -275t-152.5 -228.5t-239.5 -155.5t-306.5 -58h-551zM782 1257h-362v-1081h362q156 0 283 72.5t197.5 196.5t70.5 272q0 149 -70.5 272.5t-197.5 195.5t-283 72z" />
    <glyph glyph-name="E" unicode="E" horiz-adv-x="1153" 
d="M227 0v1434h770v-168h-577v-453h495v-166h-495v-479h577v-168h-770z" />
    <glyph glyph-name="F" unicode="F" horiz-adv-x="1071" 
d="M227 0v1434h770v-168h-577v-453h495v-166h-495v-647h-193z" />
    <glyph glyph-name="G" unicode="G" horiz-adv-x="1656" 
d="M879 139q131 0 241 49t187 136v319h-414v174h606v-563q-102 -138 -262.5 -216.5t-357.5 -78.5q-169 0 -315 61t-246 164t-157 241.5t-57 291.5t55.5 291.5t152.5 241.5t239.5 164t306.5 61q188 0 343 -79t257 -216l-153 -119q-74 108 -190 170.5t-257 62.5
q-159 0 -286.5 -77.5t-198 -209.5t-70.5 -290t73 -290t206 -210t297 -78z" />
    <glyph glyph-name="H" unicode="H" horiz-adv-x="1710" 
d="M227 0v1434h193v-617h870v617h193v-1434h-193v643h-870v-643h-193z" />
    <glyph glyph-name="I" unicode="I" horiz-adv-x="647" 
d="M227 0v1434h193v-1434h-193z" />
    <glyph glyph-name="J" unicode="J" horiz-adv-x="671" 
d="M446 102q0 -436 -405 -436q-64 0 -100 8v172q42 -10 77 -10q112 0 174 58t62 200v1340h192v-1332z" />
    <glyph glyph-name="K" unicode="K" horiz-adv-x="1476" 
d="M227 0v1434h193v-723l743 723h242l-608 -594l624 -840h-237l-520 709l-244 -238v-471h-193z" />
    <glyph glyph-name="L" unicode="L" horiz-adv-x="1071" 
d="M227 0v1434h193v-1258h577v-176h-770z" />
    <glyph glyph-name="M" unicode="M" horiz-adv-x="1820" 
d="M227 0v1434h248l436 -715l437 715h247v-1434h-192v1169l-418 -677h-147l-418 677v-1169h-193z" />
    <glyph glyph-name="N" unicode="N" horiz-adv-x="1710" 
d="M227 0v1434h252l811 -1192v1192h193v-1434h-252l-811 1192v-1192h-193z" />
    <glyph glyph-name="O" unicode="O" horiz-adv-x="1714" 
d="M858 1475q163 0 305 -61t239 -164t152.5 -241.5t55.5 -291.5t-55.5 -291.5t-152.5 -241.5t-239 -164t-305 -61q-164 0 -306.5 61t-239.5 164t-152.5 241.5t-55.5 291.5t55.5 291.5t152.5 241.5t239.5 164t306.5 61zM858 139q158 0 285 78t197.5 210t70.5 290t-70.5 290
t-197.5 209.5t-285 77.5q-159 0 -286.5 -77.5t-198 -209.5t-70.5 -290t70.5 -290t198 -210t286.5 -78z" />
    <glyph glyph-name="P" unicode="P" horiz-adv-x="1175" 
d="M227 0v1434h420q215 0 340 -109.5t125 -294.5t-125 -293t-340 -108h-227v-629h-193zM651 1266h-231v-469h231q124 0 193 61.5t69 175.5q0 109 -69.5 170.5t-192.5 61.5z" />
    <glyph glyph-name="Q" unicode="Q" horiz-adv-x="1714" 
d="M1413 -18q165 -144 320 -144q57 0 100 15v-168q-59 -19 -127 -19q-212 0 -418 174l-186 156q-112 -37 -244 -37q-164 0 -306.5 61t-239.5 164t-152.5 241.5t-55.5 291.5t55.5 291.5t152.5 241.5t239.5 164t306.5 61q163 0 305 -61t239 -164t152.5 -241.5t55.5 -291.5
q0 -193 -85 -358.5t-235 -268.5zM858 139q158 0 285 78t197.5 210t70.5 290t-70.5 290t-197.5 209.5t-285 77.5q-159 0 -286.5 -77.5t-198 -209.5t-70.5 -290t70.5 -290t198 -210t286.5 -78z" />
    <glyph glyph-name="R" unicode="R" horiz-adv-x="1312" 
d="M227 0v1434h381q216 0 341.5 -109.5t125.5 -294.5q0 -129 -62.5 -222.5t-176.5 -137.5l462 -670h-231l-414 631q-14 -2 -45 -2h-188v-629h-193zM616 1266h-196v-469h196q124 0 192.5 61t68.5 176q0 109 -69 170.5t-192 61.5z" />
    <glyph glyph-name="S" unicode="S" horiz-adv-x="1204" 
d="M119 197l139 129q152 -193 354 -193q114 0 180 64t66 165q0 62 -37.5 112.5t-97 87t-132 71.5t-145 76t-132 90t-97 123.5t-37.5 167.5q0 160 118 272.5t298 112.5q281 0 457 -234l-144 -125q-130 187 -311 187q-98 0 -159.5 -59.5t-61.5 -149.5q0 -49 23 -91t62.5 -73
t90.5 -60t107 -56.5t112 -57t107 -67.5t90.5 -82.5t62.5 -106.5t23 -135q0 -180 -125.5 -292t-315.5 -112q-306 0 -495 236z" />
    <glyph glyph-name="T" unicode="T" horiz-adv-x="1288" 
d="M72 1257v177h1142v-177h-475v-1257h-192v1257h-475z" />
    <glyph glyph-name="U" unicode="U" horiz-adv-x="1484" 
d="M1106 528v906h192v-893q0 -274 -150 -428t-405 -154t-406 154t-151 428v893h193v-906q0 -184 98 -286.5t266 -102.5q167 0 265 102.5t98 286.5z" />
    <glyph glyph-name="V" unicode="V" horiz-adv-x="1511" 
d="M55 1434h205l496 -1244l495 1244h205l-573 -1434h-254z" />
    <glyph glyph-name="W" unicode="W" horiz-adv-x="2127" 
d="M68 1434h194l311 -1223l363 1223h258l362 -1223l314 1223h190l-366 -1434h-262l-367 1229l-367 -1229h-262z" />
    <glyph glyph-name="X" unicode="X" horiz-adv-x="1466" 
d="M293 0h-232l539 745l-496 689h230l399 -553l400 553h231l-498 -689l539 -745h-229l-443 610z" />
    <glyph glyph-name="Y" unicode="Y" horiz-adv-x="1384" 
d="M1368 1434l-580 -791v-643h-192v643l-582 791h232l446 -603l447 603h229z" />
    <glyph glyph-name="Z" unicode="Z" horiz-adv-x="1368" 
d="M113 0v176l891 1081h-871v177h1102v-177l-891 -1081h911v-176h-1142z" />
    <glyph glyph-name="bracketleft" unicode="[" horiz-adv-x="624" 
d="M139 1536h457v-152h-291v-1636h291v-151h-457v1939z" />
    <glyph glyph-name="backslash" unicode="\" horiz-adv-x="731" 
d="M700 -403h-176l-495 1939h176z" />
    <glyph glyph-name="bracketright" unicode="]" horiz-adv-x="624" 
d="M487 -403h-456v151h288v1636h-288v152h456v-1939z" />
    <glyph glyph-name="asciicircum" unicode="^" 
d="M381 315h-160l277 463h235l275 -463h-158l-234 371z" />
    <glyph glyph-name="underscore" unicode="_" horiz-adv-x="1105" 
d="M25 -190h1056v-152h-1056v152z" />
    <glyph glyph-name="grave" unicode="`" 
d="M651 1196l-239 340h194l213 -340h-168z" />
    <glyph glyph-name="a" unicode="a" horiz-adv-x="1155" 
d="M467 -41q-153 0 -246.5 80.5t-93.5 214.5q0 121 88 202t252 107l346 58v71q0 105 -68.5 165.5t-179.5 60.5q-90 0 -162.5 -38t-117.5 -106l-131 100q69 94 175.5 146.5t239.5 52.5q194 0 306 -104.5t112 -276.5v-692h-174v131q-58 -81 -149.5 -126.5t-196.5 -45.5z
M301 260q0 -67 53.5 -111.5t141.5 -44.5q201 0 317 191v197l-305 -54q-207 -33 -207 -178z" />
    <glyph glyph-name="b" unicode="b" horiz-adv-x="1353" 
d="M1255 516q0 -151 -64 -277.5t-186.5 -203t-279.5 -76.5q-220 0 -367 156v-115h-174v1536h174v-618q146 155 367 155q157 0 279.5 -76.5t186.5 -203t64 -277.5zM358 319q60 -95 149.5 -145.5t197.5 -50.5q162 0 265 113t103 280t-103 280t-265 113q-108 0 -197.5 -50.5
t-149.5 -145.5v-394z" />
    <glyph glyph-name="c" unicode="c" horiz-adv-x="1146" 
d="M659 123q93 0 168.5 41t124.5 112l140 -106q-74 -99 -185.5 -155t-249.5 -56q-166 0 -295.5 76.5t-197.5 203t-68 277.5t68 277.5t197.5 203t295.5 76.5q136 0 248.5 -56.5t186.5 -154.5l-140 -106q-49 71 -125.5 112t-169.5 41q-164 0 -271 -113.5t-107 -279.5
q0 -167 107 -280t273 -113z" />
    <glyph glyph-name="d" unicode="d" horiz-adv-x="1349" 
d="M96 516q0 113 38 214t105.5 177.5t168.5 121t219 44.5q220 0 366 -155v618h174v-1536h-174v115q-147 -156 -366 -156q-118 0 -219 44.5t-168.5 121t-105.5 177.5t-38 214zM281 516q0 -167 102 -280t264 -113q107 0 196.5 50t149.5 142v402q-61 93 -150.5 142.5
t-195.5 49.5q-162 0 -264 -113t-102 -280z" />
    <glyph glyph-name="e" unicode="e" horiz-adv-x="1189" 
d="M1102 170q-74 -99 -188 -155t-255 -56q-169 0 -299 77t-197 202.5t-67 277.5q0 157 62.5 283t182 200t275.5 74q208 0 335.5 -126t127.5 -322q0 -53 -12 -111h-791v-4q0 -171 108 -282t280 -111q96 0 176.5 41t132.5 112zM618 924q-127 0 -211.5 -70t-115.5 -203h612
q-5 116 -83 194.5t-202 78.5z" />
    <glyph glyph-name="f" unicode="f" horiz-adv-x="794" 
d="M49 1032h195v127q0 167 100.5 272t265.5 105q164 0 267 -100l-109 -127q-62 69 -156 69q-86 0 -139 -58t-53 -157v-131h358v-160h-358v-872h-176v872h-195v160z" />
    <glyph glyph-name="g" unicode="g" horiz-adv-x="1138" 
d="M66 -186q0 147 153 260q-72 57 -72 147q0 123 123 201q-68 51 -105.5 126t-37.5 161q0 154 110.5 260t290.5 106q111 0 199 -43h383v-151h-223q43 -76 43 -172q0 -153 -110.5 -259t-291.5 -106q-68 0 -143 21q-68 -49 -68 -107q0 -74 86 -74h295q197 0 298.5 -86.5
t101.5 -230.5q0 -167 -145.5 -273t-381.5 -106q-232 0 -368.5 86.5t-136.5 239.5zM530 481q109 0 172.5 65.5t63.5 162.5q0 99 -63.5 164t-172.5 65q-112 0 -174.5 -65t-62.5 -164t62.5 -163.5t174.5 -64.5zM236 -166q0 -94 89.5 -147.5t243.5 -53.5q163 0 259 60.5
t96 161.5q0 176 -240 176h-313q-135 -81 -135 -197z" />
    <glyph glyph-name="h" unicode="h" horiz-adv-x="1271" 
d="M184 0v1536h174v-621q144 158 344 158q179 0 291.5 -117.5t112.5 -330.5v-625h-176v618q0 137 -70 214t-192 77q-189 0 -310 -194v-715h-174z" />
    <glyph glyph-name="i" unicode="i" horiz-adv-x="542" 
d="M272 1300q-51 0 -86.5 36t-35.5 87q0 50 35.5 85.5t86.5 35.5t86 -35.5t35 -85.5q0 -51 -35 -87t-86 -36zM184 0v1032h174v-1032h-174z" />
    <glyph glyph-name="j" unicode="j" horiz-adv-x="542" 
d="M270 1300q-51 0 -87 36t-36 87q0 50 36 85.5t87 35.5q50 0 85.5 -36t35.5 -85q0 -51 -35.5 -87t-85.5 -36zM358 -135q0 -377 -358 -377q-108 0 -176 29v155q55 -24 153 -24q100 0 153.5 48.5t53.5 168.5v1167h174v-1167z" />
    <glyph glyph-name="k" unicode="k" horiz-adv-x="1118" 
d="M186 0v1434h176v-885l488 483h221l-432 -430l440 -602h-215l-350 479l-152 -149v-330h-176z" />
    <glyph glyph-name="l" unicode="l" horiz-adv-x="542" 
d="M184 0v1536h174v-1536h-174z" />
    <glyph glyph-name="m" unicode="m" horiz-adv-x="1935" 
d="M184 0v1032h174v-112q133 153 324 153q116 0 204.5 -53t135.5 -154q145 207 364 207q171 0 277 -111.5t106 -316.5v-645h-174v639q0 127 -65.5 198.5t-177.5 71.5q-178 0 -291 -196q4 -46 4 -68v-645h-176v639q0 128 -64.5 199t-177.5 71q-181 0 -289 -194v-715h-174z
" />
    <glyph glyph-name="n" unicode="n" horiz-adv-x="1271" 
d="M184 0v1032h174v-117q144 158 344 158q179 0 291.5 -117.5t112.5 -330.5v-625h-176v618q0 137 -70.5 214t-191.5 77q-193 0 -310 -194v-715h-174z" />
    <glyph glyph-name="o" unicode="o" horiz-adv-x="1310" 
d="M655 1073q162 0 291 -76.5t198.5 -203.5t69.5 -277t-69.5 -277t-198.5 -203.5t-291 -76.5q-122 0 -227.5 45t-177.5 120.5t-113 177.5t-41 214t41 214t113 177.5t177.5 120.5t227.5 45zM657 123q159 0 266 115.5t107 277.5q0 163 -107 278t-266 115q-163 0 -270.5 -114.5
t-107.5 -278.5t107.5 -278.5t270.5 -114.5z" />
    <glyph glyph-name="p" unicode="p" horiz-adv-x="1351" 
d="M184 -504v1536h174v-114q146 155 367 155q157 0 279.5 -76.5t186.5 -203t64 -277.5t-64 -277.5t-186.5 -203t-279.5 -76.5q-220 0 -367 156v-619h-174zM358 319q60 -95 149.5 -145.5t197.5 -50.5q162 0 265 113t103 280t-103 280t-265 113q-108 0 -197.5 -50.5
t-149.5 -145.5v-394z" />
    <glyph glyph-name="q" unicode="q" horiz-adv-x="1351" 
d="M96 516q0 113 38 214t105.5 177.5t168.5 121t219 44.5q221 0 366 -158v117h174v-1536h-174v621q-145 -158 -366 -158q-118 0 -219 44.5t-168.5 121t-105.5 177.5t-38 214zM279 516q0 -167 103 -280t263 -113q109 0 198.5 50.5t149.5 145.5v394q-60 95 -149.5 145.5
t-198.5 50.5q-160 0 -263 -113t-103 -280z" />
    <glyph glyph-name="r" unicode="r" horiz-adv-x="813" 
d="M184 0v1032h174v-129q127 150 301 150q48 0 89 -13v-180q-54 14 -103 14q-182 0 -287 -174v-700h-174z" />
    <glyph glyph-name="s" unicode="s" horiz-adv-x="907" 
d="M74 141l123 107q115 -144 262 -144q84 0 132 45t48 115q0 47 -28 82t-72.5 58t-98.5 44.5t-108 48t-98.5 61t-72.5 92t-28 132.5q0 125 93.5 208t238.5 83q111 0 202.5 -46t147.5 -124l-121 -104q-90 129 -227 129q-78 0 -121 -39t-43 -103q0 -48 28 -83.5t72.5 -59
t98.5 -45t108 -48t98.5 -60t72.5 -89.5t28 -129q-1 -142 -100.5 -227.5t-247.5 -85.5q-241 0 -387 182z" />
    <glyph glyph-name="t" unicode="t" horiz-adv-x="860" 
d="M244 346v526h-195v160h195v258h176v-258h358v-160h-358v-526q0 -115 53 -161t154 -46q92 0 153 25v-156q-69 -28 -178 -28q-358 0 -358 366z" />
    <glyph glyph-name="u" unicode="u" horiz-adv-x="1236" 
d="M901 442v590h176v-583q0 -230 -123.5 -360t-335.5 -130q-211 0 -333.5 130t-122.5 360v583h174v-590q0 -151 76 -235t209 -84q130 0 205 84t75 235z" />
    <glyph glyph-name="v" unicode="v" horiz-adv-x="1093" 
d="M29 1032h188l330 -850l330 850h188l-403 -1032h-230z" />
    <glyph glyph-name="w" unicode="w" horiz-adv-x="1642" 
d="M70 1032h176l213 -852l241 852h238l242 -850l215 850h176l-260 -1032h-244l-246 864l-248 -864h-243z" />
    <glyph glyph-name="x" unicode="x" horiz-adv-x="1085" 
d="M250 0h-203l381 535l-352 497h198l269 -381l268 381h201l-355 -497l381 -535h-198l-295 418z" />
    <glyph glyph-name="y" unicode="y" horiz-adv-x="1124" 
d="M551 -250q-110 -262 -365 -262q-101 0 -166 33v155q61 -28 136 -28q83 0 142 37.5t97 128.5l80 188l-446 1030h192l346 -809l342 809h185z" />
    <glyph glyph-name="z" unicode="z" horiz-adv-x="1034" 
d="M100 0v160l607 712h-592v160h807v-160l-609 -712h623v-160h-836z" />
    <glyph glyph-name="braceleft" unicode="{" horiz-adv-x="624" 
d="M305 -86q0 -74 43.5 -120t116.5 -46h131v-151h-133q-151 0 -237.5 86.5t-86.5 230.5q0 61 28.5 146.5t56.5 165t28 126.5q0 64 -26 102t-79 38h-129v151h129q53 0 79 38t26 101q0 47 -28 126.5t-56.5 164.5t-28.5 146q0 146 86.5 231.5t237.5 85.5h133v-152h-131
q-73 0 -116.5 -45.5t-43.5 -119.5q0 -58 57.5 -210.5t57.5 -226.5q0 -150 -115 -215q115 -65 115 -215q0 -60 -29 -144t-57.5 -163.5t-28.5 -130.5z" />
    <glyph glyph-name="bar" unicode="|" horiz-adv-x="731" 
d="M283 -403v1939h166v-1939h-166z" />
    <glyph glyph-name="braceright" unicode="}" horiz-adv-x="624" 
d="M322 -86q0 51 -29 130t-57.5 162.5t-28.5 143.5q0 147 112 215q-112 65 -112 215q0 74 57.5 227.5t57.5 211.5q0 74 -44 119.5t-118 45.5h-129v152h131q151 0 238 -85.5t87 -231.5q0 -61 -28.5 -146.5t-57 -165.5t-28.5 -127q0 -63 26.5 -100t79.5 -37h127v-154h-127
q-53 0 -79.5 -38t-26.5 -101q0 -47 28.5 -126t57 -164t28.5 -146q0 -144 -87 -230.5t-238 -86.5h-131v151h129q74 0 118 46t44 120z" />
    <glyph glyph-name="asciitilde" unicode="~" 
d="M1034 762v-162q0 -125 -58 -203t-163 -78q-72 0 -126.5 39.5t-102.5 118.5l-27 43q-22 36 -31.5 51t-27 36t-35 28.5t-39.5 7.5q-50 0 -75 -36t-25 -101v-174h-131v168q0 123 58 198.5t163 75.5q73 0 128 -39.5t103 -118.5l27 -43q21 -36 31 -51t27.5 -35.5t35 -28
t39.5 -7.5q98 0 98 137v174h131z" />
    <glyph glyph-name="exclamdown" unicode="&#xa1;" horiz-adv-x="622" 
d="M311 1073q53 0 92 -39t39 -94q0 -52 -39 -89.5t-92 -37.5q-55 0 -93 37t-38 90q0 55 38.5 94t92.5 39zM379 633l33 -1016h-199l33 1016h133z" />
    <glyph glyph-name="cent" unicode="&#xa2;" 
d="M588 1434h151v-168q119 -10 216.5 -65.5t162.5 -143.5l-139 -109q-89 129 -240 150v-774q151 21 240 147l139 -106q-64 -89 -161.5 -144t-217.5 -65v-156h-151v160q-211 33 -338 188t-127 363t127 363t338 188v172zM305 711q0 -140 78 -244t205 -135v758
q-127 -31 -205 -136t-78 -243z" />
    <glyph glyph-name="sterling" unicode="&#xa3;" 
d="M145 0v166l158 141q88 81 120 133t32 125q0 31 -13 68h-297v149h213q-31 43 -47 68.5t-38 67.5t-31.5 84.5t-8.5 89.5q0 166 115.5 274.5t294.5 108.5q140 0 239 -59t171 -173l-142 -106q-93 170 -260 170q-103 0 -168 -61.5t-65 -164.5q-1 -43 14 -87.5t28.5 -69
t48.5 -76t44 -66.5h448v-149h-380q8 -31 8 -70q-1 -97 -44.5 -172.5t-150.5 -173.5l-57 -51h727v-166h-959z" />
    <glyph glyph-name="currency" unicode="&#xa4;" 
d="M1024 0l-225 225q-81 -49 -185 -49q-103 0 -184 49l-225 -225l-107 106l224 224q-54 85 -54 188q0 102 51 184l-221 222l107 108l223 -223q79 51 186 51q108 0 187 -51l223 223l106 -106l-223 -224q51 -82 51 -184q0 -106 -53 -186l225 -226zM614 299q88 0 147.5 63.5
t59.5 155.5q0 93 -59 156t-148 63q-91 0 -149.5 -63t-58.5 -156t58.5 -156t149.5 -63z" />
    <glyph glyph-name="yen" unicode="&#xa5;" 
d="M127 475v152h395v170h-395v151h276l-329 488h217l325 -484l324 482h215l-328 -486h277v-151h-395v-170h395v-152h-395v-475h-187v475h-395z" />
    <glyph glyph-name="brokenbar" unicode="&#xa6;" horiz-adv-x="731" 
d="M449 817h-166v719h166v-719zM449 -403h-166v718h166v-718z" />
    <glyph glyph-name="section" unicode="&#xa7;" horiz-adv-x="1075" 
d="M739 -51q0 64 -35 110t-91 73t-123.5 50t-135.5 51t-124 65.5t-91 104t-35 156.5q1 102 55 175.5t144 111.5q-151 94 -151 278q0 149 110 250t279 101q245 0 409 -193l-110 -111q-124 156 -297 156q-99 0 -160 -55.5t-61 -143.5q0 -64 35 -110t91 -73t123.5 -50t135 -51
t123.5 -65.5t91 -104t35 -156.5q-1 -101 -54.5 -174t-143.5 -113q151 -91 151 -276q0 -150 -110 -251t-279 -101q-249 0 -409 192l110 111q124 -156 297 -156q99 0 160 55.5t61 143.5zM276 565q0 -24 5.5 -45.5t13 -39t22.5 -33.5t28 -28t35.5 -24.5t39 -21t44 -19t45.5 -17
t49 -17.5t48 -17q82 17 131 73.5t49 135.5q0 30 -8.5 56.5t-19 45t-35 38t-40 30.5t-52.5 27t-54 22t-62 22t-60 21q-80 -15 -129.5 -72.5t-49.5 -136.5z" />
    <glyph glyph-name="dieresis" unicode="&#xa8;" 
d="M414 1315q-47 0 -82 34t-35 81t34.5 80.5t82.5 33.5q46 0 81 -33.5t35 -80.5t-35 -81t-81 -34zM815 1315q-46 0 -81.5 34t-35.5 81t35.5 80.5t81.5 33.5q48 0 82.5 -33.5t34.5 -80.5t-35 -81t-82 -34z" />
    <glyph glyph-name="copyright" unicode="&#xa9;" horiz-adv-x="1738" 
d="M1634 717q0 -153 -56 -291.5t-155 -241.5t-243.5 -164t-311.5 -61t-311.5 61t-243.5 164t-155 241.5t-56 291.5t56 291.5t155 241.5t244 164t313 61q167 0 311 -61t242.5 -164t154.5 -241.5t56 -291.5zM225 717q0 -132 47.5 -250.5t130.5 -206.5t204 -140t261 -52
q187 0 335.5 88.5t229 236t80.5 324.5t-80.5 324.5t-229 236t-335.5 88.5q-140 0 -261 -52t-204 -140t-130.5 -206.5t-47.5 -250.5zM883 387q81 0 146 35.5t108 97.5l116 -88q-63 -84 -158.5 -132t-211.5 -48q-135 0 -242.5 63.5t-166 169.5t-58.5 232t58.5 232t166 169.5
t242.5 63.5q115 0 211 -48.5t159 -132.5l-116 -88q-43 62 -108 98t-146 36q-137 0 -226.5 -95.5t-89.5 -234.5t89.5 -234.5t226.5 -95.5z" />
    <glyph glyph-name="ordfeminine" unicode="&#xaa;" horiz-adv-x="735" 
d="M293 805q-93 0 -151 50.5t-58 135.5q0 74 55.5 125t155.5 66l197 32v33q0 58 -38 91.5t-100 33.5q-99 0 -153 -82l-99 74q91 125 256 125q124 0 194.5 -67.5t70.5 -174.5v-418h-131v72q-32 -44 -85.5 -70t-113.5 -26zM213 993q0 -38 27.5 -61t76.5 -23q110 0 175 105v106
l-164 -26q-115 -17 -115 -101zM121 528v125h502v-125h-502z" />
    <glyph glyph-name="guillemetleft" unicode="&#xab;" horiz-adv-x="1085" 
d="M563 98h-188l-271 406l271 414h188l-268 -414zM979 98h-188l-271 406l271 414h188l-268 -414z" />
    <glyph glyph-name="logicalnot" unicode="&#xac;" 
d="M1130 813v-594h-151v443h-881v151h1032z" />
    <glyph glyph-name="registered" unicode="&#xae;" horiz-adv-x="1738" 
d="M1634 717q0 -153 -56 -291.5t-155 -241.5t-243.5 -164t-311.5 -61t-311.5 61t-243.5 164t-155 241.5t-56 291.5t56 291.5t155 241.5t244 164t313 61q167 0 311 -61t242.5 -164t154.5 -241.5t56 -291.5zM225 717q0 -132 47.5 -250.5t130.5 -206.5t204 -140t261 -52
q187 0 335.5 88.5t229 236t80.5 324.5t-80.5 324.5t-229 236t-335.5 88.5q-140 0 -261 -52t-204 -140t-130.5 -206.5t-47.5 -250.5zM612 283v880h250q138 0 218.5 -69t80.5 -187q0 -78 -37.5 -136t-105.5 -87l235 -401h-161l-211 372h-19h-104v-372h-146zM870 1038h-112
v-258h112q67 0 104.5 34.5t37.5 96.5q0 60 -38 93.5t-104 33.5z" />
    <glyph glyph-name="macron" unicode="&#xaf;" 
d="M297 1350v133h635v-133h-635z" />
    <glyph glyph-name="degree" unicode="&#xb0;" horiz-adv-x="841" 
d="M422 1475q151 0 247.5 -99.5t96.5 -242.5t-96.5 -242.5t-247.5 -99.5q-152 0 -249 99.5t-97 242.5t97 242.5t249 99.5zM422 913q88 0 147.5 64t59.5 156q0 93 -59 156t-148 63q-91 0 -150 -63t-59 -156t59 -156.5t150 -63.5z" />
    <glyph glyph-name="plusminus" unicode="&#xb1;" 
d="M690 1032v-295h440v-151h-440v-297h-151v297h-441v151h441v295h151zM1130 0h-1032v152h1032v-152z" />
    <glyph glyph-name="twosuperior" unicode="&#xb2;" horiz-adv-x="796" 
d="M100 829v125l301 303q5 6 24 26t23.5 25.5t19.5 22.5t19.5 23.5t14.5 21.5t13.5 24.5t8.5 24t6.5 28t1.5 28.5q0 60 -39 95.5t-102 35.5t-108 -33t-84 -98l-113 69q116 185 313 185q120 0 197.5 -67.5t77.5 -176.5q0 -46 -12.5 -87t-40.5 -81t-52.5 -68t-68.5 -73
l-232 -228h430v-125h-598z" />
    <glyph glyph-name="threesuperior" unicode="&#xb3;" horiz-adv-x="796" 
d="M709 1077q0 -124 -88 -198t-228 -74q-226 0 -332 178l121 76q38 -68 89 -99.5t122 -31.5q75 0 123.5 41.5t48.5 111.5t-46.5 112t-125.5 42h-147v123h131q67 0 108 36t41 93q0 59 -38.5 92t-100.5 33q-109 0 -170 -109l-115 68q99 164 293 164q120 0 196.5 -64.5
t76.5 -169.5q0 -131 -109 -196q71 -34 110.5 -94t39.5 -134z" />
    <glyph glyph-name="acute" unicode="&#xb4;" 
d="M580 1196h-170l213 340h196z" />
    <glyph glyph-name="paragraph" unicode="&#xb6;" horiz-adv-x="1359" 
d="M743 -403h-168v1032h-45q-216 0 -341.5 108t-125.5 293t125.5 294.5t341.5 109.5h213v-1837zM967 -403v1837h166v-1837h-166z" />
    <glyph glyph-name="periodcentered" unicode="&#xb7;" horiz-adv-x="552" 
d="M279 393q-54 0 -94 38.5t-40 92.5q0 52 40 90.5t94 38.5t92.5 -38t38.5 -91q0 -54 -38.5 -92.5t-92.5 -38.5z" />
    <glyph glyph-name="cedilla" unicode="&#xb8;" 
d="M592 16l141 -10l-115 -137h9q90 0 151.5 -50t61.5 -128q0 -85 -66 -142t-168 -57q-134 0 -213 70l68 96q64 -57 137 -57q46 0 74 23.5t28 64.5q0 84 -108 84q-42 0 -82 -19l-66 74z" />
    <glyph glyph-name="onesuperior" unicode="&#xb9;" horiz-adv-x="796" 
d="M121 829v125h241v615l-217 -117l-69 100l291 158h135v-756h217v-125h-598z" />
    <glyph glyph-name="ordmasculine" unicode="&#xba;" horiz-adv-x="841" 
d="M422 1489q151 0 247.5 -99.5t96.5 -242.5t-96.5 -242.5t-247.5 -99.5q-152 0 -249 99.5t-97 242.5t97 242.5t249 99.5zM422 928q88 0 147.5 63.5t59.5 155.5q0 93 -59 156t-148 63q-91 0 -150 -63t-59 -156t59 -156t150 -63zM125 528v125h594v-125h-594z" />
    <glyph glyph-name="guillemetright" unicode="&#xbb;" horiz-adv-x="1085" 
d="M104 918h191l270 -406l-270 -414h-191l269 414zM520 918h191l270 -406l-270 -414h-191l268 414z" />
    <glyph glyph-name="onequarter" unicode="&#xbc;" horiz-adv-x="1886" 
d="M121 553v125h241v614l-217 -116l-69 100l291 158h135v-756h217v-125h-598zM436 0l1051 1434h184l-1050 -1434h-185zM1169 246v116l387 519h164v-519h97v-116h-97v-246h-137v246h-414zM1313 362h270v361z" />
    <glyph glyph-name="onehalf" unicode="&#xbd;" horiz-adv-x="2056" 
d="M121 553v125h241v614l-217 -116l-69 100l291 158h135v-756h217v-125h-598zM436 0l1051 1434h184l-1050 -1434h-185zM1360 0v125l301 303q5 5 27 28.5t26.5 28.5t21 24.5t20.5 27t14 24.5t13 28.5t6 28t3 33.5q0 60 -39 95.5t-102 35.5t-108.5 -33t-84.5 -98l-112 70
q115 184 313 184q120 0 197 -67t77 -176q0 -86 -43 -153t-131 -157l-231 -227h430v-125h-598z" />
    <glyph glyph-name="threequarters" unicode="&#xbe;" horiz-adv-x="1814" 
d="M709 801q0 -124 -88 -198.5t-228 -74.5q-225 0 -332 179l121 75q38 -68 89 -99.5t122 -31.5q75 0 123.5 41.5t48.5 112.5q0 69 -46.5 111t-125.5 42h-147v123h131q67 0 108 36t41 93q0 59 -38.5 92t-100.5 33q-110 0 -170 -108l-115 67q99 164 293 164q120 0 196.5 -64
t76.5 -169q0 -132 -109 -197q72 -34 111 -93.5t39 -133.5zM367 0l1050 1434h185l-1051 -1434h-184zM1098 246v116l387 519h164v-519h96v-116h-96v-246h-138v246h-413zM1241 362h270v361z" />
    <glyph glyph-name="questiondown" unicode="&#xbf;" horiz-adv-x="1042" 
d="M606 1073q54 0 93.5 -39t39.5 -94q0 -52 -39.5 -89.5t-93.5 -37.5t-92.5 37.5t-38.5 89.5q0 55 38.5 94t92.5 39zM676 633l22 -311q-224 -27 -335 -105t-111 -221q0 -112 73.5 -185t186.5 -73q93 0 163 42.5t136 135.5l152 -96q-172 -244 -459 -244q-185 0 -313 119
t-128 299q0 183 127 300.5t340 154.5l13 184h133z" />
    <glyph glyph-name="Agrave" unicode="&#xc0;" horiz-adv-x="1511" 
d="M672 1556l-262 277h208l232 -277h-178zM55 0l572 1434h258l571 -1434h-205l-166 422h-659l-166 -422h-205zM489 588h533l-266 678z" />
    <glyph glyph-name="Aacute" unicode="&#xc1;" horiz-adv-x="1511" 
d="M846 1556h-178l231 277h209zM55 0l572 1434h258l571 -1434h-205l-166 422h-659l-166 -422h-205zM489 588h533l-266 678z" />
    <glyph glyph-name="Acircumflex" unicode="&#xc2;" horiz-adv-x="1511" 
d="M578 1556h-160l231 277h215l230 -277h-160l-178 189zM55 0l572 1434h258l571 -1434h-205l-166 422h-659l-166 -422h-205zM489 588h533l-266 678z" />
    <glyph glyph-name="Atilde" unicode="&#xc3;" horiz-adv-x="1511" 
d="M395 1556v91q0 92 53.5 149t141.5 57q33 0 59 -6.5t54 -25t38.5 -27t42.5 -37.5l25 -24q5 -5 15.5 -16t15 -15.5t13.5 -12.5t15 -11t14.5 -7.5t17 -6t18.5 -1.5q31 0 48 22t17 60v88h131v-88q0 -95 -51.5 -152t-140.5 -57q-43 0 -81.5 16t-58 31.5t-55.5 48.5l-25 25
l-15.5 15.5l-15.5 15.5t-13 12t-15 11.5l-14 7t-17.5 6t-17.5 1.5q-32 0 -50 -21.5t-18 -59.5v-89h-131zM55 0l572 1434h258l571 -1434h-205l-166 422h-659l-166 -422h-205zM489 588h533l-266 678z" />
    <glyph glyph-name="Adieresis" unicode="&#xc4;" horiz-adv-x="1511" 
d="M557 1616q-46 0 -78.5 31.5t-32.5 76.5q0 44 32.5 76.5t78.5 32.5q44 0 76.5 -32.5t32.5 -76.5q0 -45 -32 -76.5t-77 -31.5zM954 1616q-45 0 -76.5 31.5t-31.5 76.5q0 44 32 76.5t76 32.5q46 0 78.5 -32.5t32.5 -76.5q0 -45 -32.5 -76.5t-78.5 -31.5zM55 0l572 1434h258
l571 -1434h-205l-166 422h-659l-166 -422h-205zM489 588h533l-266 678z" />
    <glyph glyph-name="Aring" unicode="&#xc5;" horiz-adv-x="1511" 
d="M756 1516q-106 0 -179 60.5t-73 168.5q0 110 73 171.5t179 61.5q109 0 182.5 -61.5t73.5 -171.5q0 -108 -74 -168.5t-182 -60.5zM758 1620q60 0 98.5 33.5t38.5 91.5q0 61 -38 95t-99 34t-100.5 -34t-39.5 -95q0 -58 39.5 -91.5t100.5 -33.5zM55 0l572 1434h258
l571 -1434h-205l-166 422h-659l-166 -422h-205zM489 588h533l-266 678z" />
    <glyph glyph-name="AE" unicode="&#xc6;" horiz-adv-x="2000" 
d="M45 0l924 1434h878v-177h-577v-440h495v-174h-495v-467h577v-176h-770v422h-540l-269 -422h-223zM641 588h436v684z" />
    <glyph glyph-name="Ccedilla" unicode="&#xc7;" horiz-adv-x="1550" 
d="M858 139q141 0 256.5 63t190.5 171l153 -119q-92 -125 -229 -202.5t-303 -90.5l-183 -289h-178l187 293q-191 25 -339.5 132.5t-228.5 269.5t-80 350q0 153 55.5 291.5t152.5 241.5t239.5 164t306.5 61q188 0 343 -79t257 -216l-153 -119q-74 108 -190 170.5t-257 62.5
q-159 0 -286.5 -77.5t-198 -209.5t-70.5 -290t70.5 -290t198 -210t286.5 -78z" />
    <glyph glyph-name="Egrave" unicode="&#xc8;" horiz-adv-x="1153" 
d="M532 1556l-262 277h209l232 -277h-179zM227 0v1434h770v-168h-577v-453h495v-166h-495v-479h577v-168h-770z" />
    <glyph glyph-name="Eacute" unicode="&#xc9;" horiz-adv-x="1153" 
d="M707 1556h-179l232 277h209zM227 0v1434h770v-168h-577v-453h495v-166h-495v-479h577v-168h-770z" />
    <glyph glyph-name="Ecircumflex" unicode="&#xca;" horiz-adv-x="1153" 
d="M438 1556h-159l231 277h215l229 -277h-159l-179 189zM227 0v1434h770v-168h-577v-453h495v-166h-495v-479h577v-168h-770z" />
    <glyph glyph-name="Edieresis" unicode="&#xcb;" horiz-adv-x="1153" 
d="M418 1616q-46 0 -78.5 31.5t-32.5 76.5q0 44 32.5 76.5t78.5 32.5q44 0 76 -32.5t32 -76.5q0 -45 -31.5 -76.5t-76.5 -31.5zM815 1616q-45 0 -76.5 31.5t-31.5 76.5q0 44 32 76.5t76 32.5q46 0 78.5 -32.5t32.5 -76.5q0 -45 -32.5 -76.5t-78.5 -31.5zM227 0v1434h770
v-168h-577v-453h495v-166h-495v-479h577v-168h-770z" />
    <glyph glyph-name="Igrave" unicode="&#xcc;" horiz-adv-x="647" 
d="M240 1556l-263 277h209l232 -277h-178zM227 0v1434h193v-1434h-193z" />
    <glyph glyph-name="Iacute" unicode="&#xcd;" horiz-adv-x="647" 
d="M414 1556h-178l231 277h209zM227 0v1434h193v-1434h-193z" />
    <glyph glyph-name="Icircumflex" unicode="&#xce;" horiz-adv-x="647" 
d="M145 1556h-159l231 277h215l230 -277h-160l-178 189zM227 0v1434h193v-1434h-193z" />
    <glyph glyph-name="Idieresis" unicode="&#xcf;" horiz-adv-x="647" 
d="M125 1616q-46 0 -78.5 31.5t-32.5 76.5q0 44 32.5 76.5t78.5 32.5q44 0 76 -32.5t32 -76.5q0 -45 -31.5 -76.5t-76.5 -31.5zM522 1616q-45 0 -76.5 31.5t-31.5 76.5q0 44 32 76.5t76 32.5q46 0 78.5 -32.5t32.5 -76.5q0 -45 -32.5 -76.5t-78.5 -31.5zM227 0v1434h193
v-1434h-193z" />
    <glyph glyph-name="Eth" unicode="&#xd0;" horiz-adv-x="1638" 
d="M227 0v668h-227v131h227v635h551q164 0 306.5 -58t239.5 -155.5t152.5 -228.5t55.5 -275t-55.5 -275t-152.5 -228.5t-239.5 -155.5t-306.5 -58h-551zM797 668h-377v-492h362q156 0 283 72.5t197.5 196.5t70.5 272q0 149 -70.5 272.5t-197.5 195.5t-283 72h-362v-458h377
v-131z" />
    <glyph glyph-name="Ntilde" unicode="&#xd1;" horiz-adv-x="1710" 
d="M494 1556v91q0 92 53 149t141 57q33 0 59.5 -6.5t54 -24.5t39 -27.5t42.5 -37.5l24 -24q5 -5 15.5 -16t15 -15.5t13.5 -12.5t15 -11t14.5 -7.5t17 -6t18.5 -1.5q31 0 48 22t17 60v88h131v-88q0 -95 -51.5 -152t-140.5 -57q-43 0 -81.5 16t-58 31.5t-55.5 48.5l-24 25
l-13.5 13.5l-14 14t-12 11t-13 11t-12 8t-14.5 7t-14 3t-16 1.5q-32 0 -49.5 -21.5t-17.5 -59.5v-89h-131zM227 0v1434h252l811 -1192v1192h193v-1434h-252l-811 1192v-1192h-193z" />
    <glyph glyph-name="Ograve" unicode="&#xd2;" horiz-adv-x="1714" 
d="M774 1556l-262 277h209l231 -277h-178zM858 1475q163 0 305 -61t239 -164t152.5 -241.5t55.5 -291.5t-55.5 -291.5t-152.5 -241.5t-239 -164t-305 -61q-164 0 -306.5 61t-239.5 164t-152.5 241.5t-55.5 291.5t55.5 291.5t152.5 241.5t239.5 164t306.5 61zM858 139
q158 0 285 78t197.5 210t70.5 290t-70.5 290t-197.5 209.5t-285 77.5q-159 0 -286.5 -77.5t-198 -209.5t-70.5 -290t70.5 -290t198 -210t286.5 -78z" />
    <glyph glyph-name="Oacute" unicode="&#xd3;" horiz-adv-x="1714" 
d="M948 1556h-178l231 277h209zM858 1475q163 0 305 -61t239 -164t152.5 -241.5t55.5 -291.5t-55.5 -291.5t-152.5 -241.5t-239 -164t-305 -61q-164 0 -306.5 61t-239.5 164t-152.5 241.5t-55.5 291.5t55.5 291.5t152.5 241.5t239.5 164t306.5 61zM858 139q158 0 285 78
t197.5 210t70.5 290t-70.5 290t-197.5 209.5t-285 77.5q-159 0 -286.5 -77.5t-198 -209.5t-70.5 -290t70.5 -290t198 -210t286.5 -78z" />
    <glyph glyph-name="Ocircumflex" unicode="&#xd4;" horiz-adv-x="1714" 
d="M680 1556h-160l232 277h215l229 -277h-160l-178 189zM858 1475q163 0 305 -61t239 -164t152.5 -241.5t55.5 -291.5t-55.5 -291.5t-152.5 -241.5t-239 -164t-305 -61q-164 0 -306.5 61t-239.5 164t-152.5 241.5t-55.5 291.5t55.5 291.5t152.5 241.5t239.5 164t306.5 61z
M858 139q158 0 285 78t197.5 210t70.5 290t-70.5 290t-197.5 209.5t-285 77.5q-159 0 -286.5 -77.5t-198 -209.5t-70.5 -290t70.5 -290t198 -210t286.5 -78z" />
    <glyph glyph-name="Otilde" unicode="&#xd5;" horiz-adv-x="1714" 
d="M498 1556v91q0 92 53 149t141 57q33 0 59.5 -6.5t54 -24.5t39 -27.5t42.5 -37.5l24 -24q5 -5 15.5 -16t15 -15.5t13.5 -12.5t15 -11t14.5 -7.5t17 -6t18.5 -1.5q31 0 48 22t17 60v88h132v-88q0 -94 -52 -151.5t-141 -57.5q-43 0 -81.5 16t-58 31.5t-55.5 48.5l-24 25
l-13.5 13.5l-14 14t-12 11t-13 11t-12 8t-14.5 7t-14 3t-16 1.5q-32 0 -49.5 -21.5t-17.5 -59.5v-89h-131zM858 1475q163 0 305 -61t239 -164t152.5 -241.5t55.5 -291.5t-55.5 -291.5t-152.5 -241.5t-239 -164t-305 -61q-164 0 -306.5 61t-239.5 164t-152.5 241.5
t-55.5 291.5t55.5 291.5t152.5 241.5t239.5 164t306.5 61zM858 139q158 0 285 78t197.5 210t70.5 290t-70.5 290t-197.5 209.5t-285 77.5q-159 0 -286.5 -77.5t-198 -209.5t-70.5 -290t70.5 -290t198 -210t286.5 -78z" />
    <glyph glyph-name="Odieresis" unicode="&#xd6;" horiz-adv-x="1714" 
d="M659 1616q-46 0 -78 31t-32 77q0 44 32.5 76.5t77.5 32.5q44 0 76.5 -32.5t32.5 -76.5q0 -45 -32 -76.5t-77 -31.5zM1057 1616q-45 0 -77 31.5t-32 76.5q0 44 32.5 76.5t76.5 32.5q45 0 77.5 -32.5t32.5 -76.5q0 -46 -32 -77t-78 -31zM858 1475q163 0 305 -61t239 -164
t152.5 -241.5t55.5 -291.5t-55.5 -291.5t-152.5 -241.5t-239 -164t-305 -61q-164 0 -306.5 61t-239.5 164t-152.5 241.5t-55.5 291.5t55.5 291.5t152.5 241.5t239.5 164t306.5 61zM858 139q158 0 285 78t197.5 210t70.5 290t-70.5 290t-197.5 209.5t-285 77.5
q-159 0 -286.5 -77.5t-198 -209.5t-70.5 -290t70.5 -290t198 -210t286.5 -78z" />
    <glyph glyph-name="multiply" unicode="&#xd7;" 
d="M1024 0l-410 410l-409 -410l-107 106l410 410l-410 410l107 106l409 -409l410 409l106 -106l-409 -410l409 -410z" />
    <glyph glyph-name="Oslash" unicode="&#xd8;" horiz-adv-x="1714" 
d="M291 -41h-187l199 236q-95 104 -147 238.5t-52 283.5q0 153 55.5 291.5t152.5 241.5t239.5 164t306.5 61q252 0 447 -142l118 142h187l-199 -236q95 -104 147 -238.5t52 -283.5q0 -153 -55.5 -291.5t-152.5 -241.5t-239 -164t-305 -61q-251 0 -448 141zM303 717
q0 -108 35 -206.5t98 -174.5l740 858q-140 100 -318 100q-159 0 -286.5 -77.5t-198 -209.5t-70.5 -290zM858 139q158 0 285 78t197.5 210t70.5 290q0 108 -35 206.5t-98 174.5l-739 -858q141 -101 319 -101z" />
    <glyph glyph-name="Ugrave" unicode="&#xd9;" horiz-adv-x="1484" 
d="M659 1556l-262 277h209l232 -277h-179zM1106 528v906h192v-893q0 -274 -150 -428t-405 -154t-406 154t-151 428v893h193v-906q0 -184 98 -286.5t266 -102.5q167 0 265 102.5t98 286.5z" />
    <glyph glyph-name="Uacute" unicode="&#xda;" horiz-adv-x="1484" 
d="M834 1556h-179l232 277h209zM1106 528v906h192v-893q0 -274 -150 -428t-405 -154t-406 154t-151 428v893h193v-906q0 -184 98 -286.5t266 -102.5q167 0 265 102.5t98 286.5z" />
    <glyph glyph-name="Ucircumflex" unicode="&#xdb;" horiz-adv-x="1484" 
d="M565 1556h-159l231 277h215l229 -277h-159l-179 189zM1106 528v906h192v-893q0 -274 -150 -428t-405 -154t-406 154t-151 428v893h193v-906q0 -184 98 -286.5t266 -102.5q167 0 265 102.5t98 286.5z" />
    <glyph glyph-name="Udieresis" unicode="&#xdc;" horiz-adv-x="1484" 
d="M545 1616q-46 0 -78.5 31.5t-32.5 76.5q0 44 32.5 76.5t78.5 32.5q44 0 76 -32.5t32 -76.5q0 -45 -31.5 -76.5t-76.5 -31.5zM942 1616q-45 0 -76.5 31.5t-31.5 76.5q0 44 32 76.5t76 32.5q46 0 78.5 -32.5t32.5 -76.5q0 -45 -32.5 -76.5t-78.5 -31.5zM1106 528v906h192
v-893q0 -274 -150 -428t-405 -154t-406 154t-151 428v893h193v-906q0 -184 98 -286.5t266 -102.5q167 0 265 102.5t98 286.5z" />
    <glyph glyph-name="Yacute" unicode="&#xdd;" horiz-adv-x="1384" 
d="M782 1556h-178l232 277h208zM1368 1434l-580 -791v-643h-192v643l-582 791h232l446 -603l447 603h229z" />
    <glyph glyph-name="Thorn" unicode="&#xde;" horiz-adv-x="1175" 
d="M227 0v1434h193v-299h227q215 0 340 -108.5t125 -293.5t-125 -294t-340 -109h-227v-330h-193zM651 961h-231v-455h231q124 0 193 59.5t69 169.5q0 106 -69.5 166t-192.5 60z" />
    <glyph glyph-name="germandbls" unicode="&#xdf;" horiz-adv-x="1193" 
d="M641 -8q-63 0 -113 12v166q43 -14 105 -14q126 0 204 73.5t78 194.5q0 117 -84 196.5t-213 79.5h-90v164h82q110 0 178 73t68 191q0 104 -68.5 174t-175.5 70q-114 0 -183 -64.5t-69 -177.5v-1130h-176v1130q0 180 117 293t309 113q195 0 312.5 -116.5t117.5 -291.5
q0 -110 -57 -206t-156 -136q126 -38 197.5 -143t71.5 -227q0 -188 -129 -306t-326 -118z" />
    <glyph glyph-name="agrave" unicode="&#xe0;" horiz-adv-x="1130" 
d="M469 1196l-240 340h195l213 -340h-168zM467 -41q-153 0 -246.5 80.5t-93.5 214.5q0 121 88 202t252 107l346 58v71q0 105 -68.5 165.5t-179.5 60.5q-90 0 -162.5 -38t-117.5 -106l-131 100q69 94 175.5 146.5t239.5 52.5q194 0 306 -104.5t112 -276.5v-692h-174v131
q-58 -81 -149.5 -126.5t-196.5 -45.5zM301 260q0 -67 53.5 -111.5t141.5 -44.5q201 0 317 191v197l-305 -54q-207 -33 -207 -178z" />
    <glyph glyph-name="aacute" unicode="&#xe1;" horiz-adv-x="1155" 
d="M662 1196h-170l213 340h196zM467 -41q-153 0 -246.5 80.5t-93.5 214.5q0 121 88 202t252 107l346 58v71q0 105 -68.5 165.5t-179.5 60.5q-90 0 -162.5 -38t-117.5 -106l-131 100q69 94 175.5 146.5t239.5 52.5q194 0 306 -104.5t112 -276.5v-692h-174v131
q-58 -81 -149.5 -126.5t-196.5 -45.5zM301 260q0 -67 53.5 -111.5t141.5 -44.5q201 0 317 191v197l-305 -54q-207 -33 -207 -178z" />
    <glyph glyph-name="acircumflex" unicode="&#xe2;" horiz-adv-x="1155" 
d="M401 1196h-159l215 340h235l213 -340h-157l-173 254zM467 -41q-153 0 -246.5 80.5t-93.5 214.5q0 121 88 202t252 107l346 58v71q0 105 -68.5 165.5t-179.5 60.5q-90 0 -162.5 -38t-117.5 -106l-131 100q69 94 175.5 146.5t239.5 52.5q194 0 306 -104.5t112 -276.5v-692
h-174v131q-58 -81 -149.5 -126.5t-196.5 -45.5zM301 260q0 -67 53.5 -111.5t141.5 -44.5q201 0 317 191v197l-305 -54q-207 -33 -207 -178z" />
    <glyph glyph-name="atilde" unicode="&#xe3;" horiz-adv-x="1155" 
d="M932 1536v-106q0 -109 -50 -178.5t-141 -69.5q-58 0 -101.5 29t-88.5 85l-31 33q-3 4 -11 16t-11 15.5t-10.5 13.5t-11 13t-10.5 10t-12 9.5t-12.5 6.5t-14.5 5t-15 1q-33 0 -50.5 -28t-17.5 -72v-123h-131v113q0 108 49.5 174.5t140.5 66.5q58 0 102 -29t91 -85l29 -33
q3 -4 11 -16t11 -15.5t10.5 -13.5t11 -13t10.5 -10t12 -9.5t12.5 -6.5t14.5 -5t15 -1q33 0 50.5 28t17.5 72v123h131zM467 -41q-153 0 -246.5 80.5t-93.5 214.5q0 121 88 202t252 107l346 58v71q0 105 -68.5 165.5t-179.5 60.5q-90 0 -162.5 -38t-117.5 -106l-131 100
q69 94 175.5 146.5t239.5 52.5q194 0 306 -104.5t112 -276.5v-692h-174v131q-58 -81 -149.5 -126.5t-196.5 -45.5zM301 260q0 -67 53.5 -111.5t141.5 -44.5q201 0 317 191v197l-305 -54q-207 -33 -207 -178z" />
    <glyph glyph-name="adieresis" unicode="&#xe4;" horiz-adv-x="1155" 
d="M373 1315q-47 0 -82 34t-35 81t34.5 80.5t82.5 33.5q46 0 81 -33.5t35 -80.5t-35 -81t-81 -34zM774 1315q-46 0 -81.5 34t-35.5 81t35.5 80.5t81.5 33.5q48 0 82.5 -33.5t34.5 -80.5t-35 -81t-82 -34zM467 -41q-153 0 -246.5 80.5t-93.5 214.5q0 121 88 202t252 107
l346 58v71q0 105 -68.5 165.5t-179.5 60.5q-90 0 -162.5 -38t-117.5 -106l-131 100q69 94 175.5 146.5t239.5 52.5q194 0 306 -104.5t112 -276.5v-692h-174v131q-58 -81 -149.5 -126.5t-196.5 -45.5zM301 260q0 -67 53.5 -111.5t141.5 -44.5q201 0 317 191v197l-305 -54
q-207 -33 -207 -178z" />
    <glyph glyph-name="aring" unicode="&#xe5;" horiz-adv-x="1155" 
d="M573 1139q-103 0 -177 66.5t-74 172.5t74 174t177 68q106 0 181 -68t75 -174t-75 -172.5t-181 -66.5zM578 1239q61 2 100.5 40.5t38.5 100.5q-3 64 -44 102t-102 36q-60 0 -100 -40.5t-37 -103.5q1 -62 42.5 -99.5t101.5 -35.5zM467 -41q-153 0 -246.5 80.5t-93.5 214.5
q0 121 88 202t252 107l346 58v71q0 105 -68.5 165.5t-179.5 60.5q-90 0 -162.5 -38t-117.5 -106l-131 100q69 94 175.5 146.5t239.5 52.5q194 0 306 -104.5t112 -276.5v-692h-174v131q-58 -81 -149.5 -126.5t-196.5 -45.5zM301 260q0 -67 53.5 -111.5t141.5 -44.5
q201 0 317 191v197l-305 -54q-207 -33 -207 -178z" />
    <glyph glyph-name="ae" unicode="&#xe6;" horiz-adv-x="1906" 
d="M471 -41q-153 0 -246.5 80.5t-93.5 214.5q0 121 87.5 202t248.5 107l346 58v71q0 105 -68 165.5t-178 60.5q-91 0 -164 -38t-118 -106l-131 100q69 94 177 146.5t242 52.5q127 0 218.5 -49.5t138.5 -138.5q69 90 172 139t231 49q208 0 335.5 -126t127.5 -322
q0 -53 -12 -111h-791v-4q0 -172 107.5 -282.5t279.5 -110.5q96 0 177 41t133 112l129 -100q-74 -99 -188 -155t-255 -56q-159 0 -282.5 67.5t-196.5 184.5q-72 -115 -184.5 -183.5t-241.5 -68.5zM1335 924q-127 0 -211.5 -70t-115.5 -203h612q-5 116 -83 194.5t-202 78.5z
M305 260q0 -66 52 -108.5t139 -42.5q208 0 344 227q-21 70 -27 149l-305 -51q-203 -33 -203 -174z" />
    <glyph glyph-name="ccedilla" unicode="&#xe7;" horiz-adv-x="1146" 
d="M659 123q93 0 168.5 41t124.5 112l140 -106q-68 -92 -168.5 -147t-223.5 -62l-75 -92h8q90 0 151.5 -50t61.5 -128q0 -85 -66 -142t-168 -57q-134 0 -213 70l68 96q64 -57 137 -57q46 0 74.5 23.5t28.5 64.5q0 84 -109 84q-42 0 -82 -19l-65 74l108 139
q-210 32 -336.5 187t-126.5 362q0 151 68 277.5t197.5 203t295.5 76.5q136 0 248.5 -56.5t186.5 -154.5l-140 -106q-49 71 -125.5 112t-169.5 41q-164 0 -271 -113.5t-107 -279.5q0 -167 107 -280t273 -113z" />
    <glyph glyph-name="egrave" unicode="&#xe8;" horiz-adv-x="1189" 
d="M530 1196l-239 340h194l213 -340h-168zM1102 170q-74 -99 -188 -155t-255 -56q-169 0 -299 77t-197 202.5t-67 277.5q0 157 62.5 283t182 200t275.5 74q208 0 335.5 -126t127.5 -322q0 -53 -12 -111h-791v-4q0 -171 108 -282t280 -111q96 0 176.5 41t132.5 112zM618 924
q-127 0 -211.5 -70t-115.5 -203h612q-5 116 -83 194.5t-202 78.5z" />
    <glyph glyph-name="eacute" unicode="&#xe9;" horiz-adv-x="1189" 
d="M709 1196h-170l213 340h196zM1102 170q-74 -99 -188 -155t-255 -56q-169 0 -299 77t-197 202.5t-67 277.5q0 157 62.5 283t182 200t275.5 74q208 0 335.5 -126t127.5 -322q0 -53 -12 -111h-791v-4q0 -171 108 -282t280 -111q96 0 176.5 41t132.5 112zM618 924
q-127 0 -211.5 -70t-115.5 -203h612q-5 116 -83 194.5t-202 78.5z" />
    <glyph glyph-name="ecircumflex" unicode="&#xea;" horiz-adv-x="1189" 
d="M449 1196h-160l215 340h235l213 -340h-157l-172 254zM1102 170q-74 -99 -188 -155t-255 -56q-169 0 -299 77t-197 202.5t-67 277.5q0 157 62.5 283t182 200t275.5 74q208 0 335.5 -126t127.5 -322q0 -53 -12 -111h-791v-4q0 -171 108 -282t280 -111q96 0 176.5 41
t132.5 112zM618 924q-127 0 -211.5 -70t-115.5 -203h612q-5 116 -83 194.5t-202 78.5z" />
    <glyph glyph-name="edieresis" unicode="&#xeb;" horiz-adv-x="1189" 
d="M420 1315q-47 0 -82 34t-35 81t34.5 80.5t82.5 33.5q46 0 81.5 -33.5t35.5 -80.5t-35.5 -81t-81.5 -34zM821 1315q-46 0 -81 34t-35 81t35 80.5t81 33.5q48 0 82.5 -33.5t34.5 -80.5t-35 -81t-82 -34zM1102 170q-74 -99 -188 -155t-255 -56q-169 0 -299 77t-197 202.5
t-67 277.5q0 157 62.5 283t182 200t275.5 74q208 0 335.5 -126t127.5 -322q0 -53 -12 -111h-791v-4q0 -171 108 -282t280 -111q96 0 176.5 41t132.5 112zM618 924q-127 0 -211.5 -70t-115.5 -203h612q-5 116 -83 194.5t-202 78.5z" />
    <glyph glyph-name="igrave" unicode="&#xec;" horiz-adv-x="542" 
d="M182 1196l-239 340h194l213 -340h-168zM184 0v1032h174v-1032h-174z" />
    <glyph glyph-name="iacute" unicode="&#xed;" horiz-adv-x="542" 
d="M360 1196h-170l213 340h197zM184 0v1032h174v-1032h-174z" />
    <glyph glyph-name="icircumflex" unicode="&#xee;" horiz-adv-x="542" 
d="M100 1196h-159l215 340h235l213 -340h-158l-172 254zM184 0v1032h174v-1032h-174z" />
    <glyph glyph-name="idieresis" unicode="&#xef;" horiz-adv-x="542" 
d="M72 1315q-47 0 -82 34t-35 81t34.5 80.5t82.5 33.5q46 0 81 -33.5t35 -80.5t-35 -81t-81 -34zM473 1315q-46 0 -81.5 34t-35.5 81t35.5 80.5t81.5 33.5q48 0 82.5 -33.5t34.5 -80.5t-35 -81t-82 -34zM184 0v1032h174v-1032h-174z" />
    <glyph glyph-name="eth" unicode="&#xf0;" horiz-adv-x="1294" 
d="M301 1151v135l250 80q-143 99 -283 170h269q96 -47 190 -115l360 113v-135l-243 -76q165 -159 259.5 -356.5t94.5 -382.5q0 -286 -148.5 -455.5t-396.5 -169.5q-164 0 -292 73.5t-196.5 198.5t-68.5 279q0 239 150.5 393t382.5 154q178 0 309 -115q-84 172 -262 328z
M281 510q0 -171 104 -279t266 -108q171 0 269 118t98 334q0 33 -4 99q-60 100 -156.5 158.5t-212.5 58.5q-159 0 -261.5 -106.5t-102.5 -274.5z" />
    <glyph glyph-name="ntilde" unicode="&#xf1;" horiz-adv-x="1271" 
d="M1016 1536v-106q0 -109 -50 -178.5t-141 -69.5q-58 0 -101.5 29t-88.5 85l-31 33q-3 4 -11 16t-11 15.5t-10.5 13.5t-11 13t-10.5 10t-12 9.5t-12.5 6.5t-14.5 5t-15 1q-33 0 -50.5 -28t-17.5 -72v-123h-131v113q0 108 49.5 174.5t140.5 66.5q58 0 102 -29t91 -85l29 -33
q3 -4 11 -16t11 -15.5t10.5 -13.5t11 -13t10.5 -10t12 -9.5t12.5 -6.5t14.5 -5t15 -1q33 0 50.5 28t17.5 72v123h131zM184 0v1032h174v-117q144 158 344 158q179 0 291.5 -117.5t112.5 -330.5v-625h-176v618q0 137 -70.5 214t-191.5 77q-193 0 -310 -194v-715h-174z" />
    <glyph glyph-name="ograve" unicode="&#xf2;" horiz-adv-x="1310" 
d="M565 1196l-239 340h194l213 -340h-168zM655 1073q162 0 291 -76.5t198.5 -203.5t69.5 -277t-69.5 -277t-198.5 -203.5t-291 -76.5q-122 0 -227.5 45t-177.5 120.5t-113 177.5t-41 214t41 214t113 177.5t177.5 120.5t227.5 45zM657 123q159 0 266 115.5t107 277.5
q0 163 -107 278t-266 115q-163 0 -270.5 -114.5t-107.5 -278.5t107.5 -278.5t270.5 -114.5z" />
    <glyph glyph-name="oacute" unicode="&#xf3;" horiz-adv-x="1310" 
d="M743 1196h-170l213 340h197zM655 1073q162 0 291 -76.5t198.5 -203.5t69.5 -277t-69.5 -277t-198.5 -203.5t-291 -76.5q-122 0 -227.5 45t-177.5 120.5t-113 177.5t-41 214t41 214t113 177.5t177.5 120.5t227.5 45zM657 123q159 0 266 115.5t107 277.5q0 163 -107 278
t-266 115q-163 0 -270.5 -114.5t-107.5 -278.5t107.5 -278.5t270.5 -114.5z" />
    <glyph glyph-name="ocircumflex" unicode="&#xf4;" horiz-adv-x="1310" 
d="M483 1196h-159l215 340h235l213 -340h-158l-172 254zM655 1073q162 0 291 -76.5t198.5 -203.5t69.5 -277t-69.5 -277t-198.5 -203.5t-291 -76.5q-122 0 -227.5 45t-177.5 120.5t-113 177.5t-41 214t41 214t113 177.5t177.5 120.5t227.5 45zM657 123q159 0 266 115.5
t107 277.5q0 163 -107 278t-266 115q-163 0 -270.5 -114.5t-107.5 -278.5t107.5 -278.5t270.5 -114.5z" />
    <glyph glyph-name="otilde" unicode="&#xf5;" horiz-adv-x="1310" 
d="M1014 1536v-106q0 -109 -50 -178.5t-141 -69.5q-58 0 -101.5 29t-88.5 85l-31 33q-3 4 -11 16t-11 15.5t-10.5 13.5t-11 13t-10.5 10t-12 9.5t-12.5 6.5t-14.5 5t-15 1q-33 0 -50.5 -28t-17.5 -72v-123h-131v113q0 108 49.5 174.5t140.5 66.5q58 0 102 -29t91 -85l29 -33
q3 -4 11 -16t11 -15.5t10.5 -13.5t11 -13t10.5 -10t12 -9.5t12.5 -6.5t14.5 -5t15 -1q33 0 50.5 28t17.5 72v123h131zM655 1073q162 0 291 -76.5t198.5 -203.5t69.5 -277t-69.5 -277t-198.5 -203.5t-291 -76.5q-122 0 -227.5 45t-177.5 120.5t-113 177.5t-41 214t41 214
t113 177.5t177.5 120.5t227.5 45zM657 123q159 0 266 115.5t107 277.5q0 163 -107 278t-266 115q-163 0 -270.5 -114.5t-107.5 -278.5t107.5 -278.5t270.5 -114.5z" />
    <glyph glyph-name="odieresis" unicode="&#xf6;" horiz-adv-x="1310" 
d="M455 1315q-47 0 -82 34t-35 81t34.5 80.5t82.5 33.5q46 0 81 -33.5t35 -80.5t-35 -81t-81 -34zM856 1315q-46 0 -81.5 34t-35.5 81t35.5 80.5t81.5 33.5q48 0 82.5 -33.5t34.5 -80.5t-35 -81t-82 -34zM655 1073q162 0 291 -76.5t198.5 -203.5t69.5 -277t-69.5 -277
t-198.5 -203.5t-291 -76.5q-122 0 -227.5 45t-177.5 120.5t-113 177.5t-41 214t41 214t113 177.5t177.5 120.5t227.5 45zM657 123q159 0 266 115.5t107 277.5q0 163 -107 278t-266 115q-163 0 -270.5 -114.5t-107.5 -278.5t107.5 -278.5t270.5 -114.5z" />
    <glyph glyph-name="divide" unicode="&#xf7;" 
d="M612 844q-44 0 -76 32t-32 76t32 76.5t76 32.5q46 0 78.5 -32.5t32.5 -76.5t-32.5 -76t-78.5 -32zM1130 440h-1032v152h1032v-152zM612 -31q-44 0 -76 32.5t-32 76.5t32 76t76 32q46 0 78.5 -32t32.5 -76t-32.5 -76.5t-78.5 -32.5z" />
    <glyph glyph-name="oslash" unicode="&#xf8;" horiz-adv-x="1310" 
d="M279 -41h-183l144 176q-68 76 -106 174.5t-38 206.5q0 112 41 214t113 177.5t177.5 120.5t227.5 45q168 0 308 -86l69 86h182l-145 -176q69 -75 107 -174t38 -207q0 -150 -69.5 -277t-198.5 -203.5t-291 -76.5q-173 0 -307 86zM279 516q0 -140 81 -248l488 588
q-83 53 -191 53q-163 0 -270.5 -114.5t-107.5 -278.5zM657 123q159 0 266 115.5t107 277.5q0 141 -80 248l-487 -588q86 -53 194 -53z" />
    <glyph glyph-name="ugrave" unicode="&#xf9;" horiz-adv-x="1236" 
d="M528 1196l-239 340h194l213 -340h-168zM901 442v590h176v-583q0 -230 -123.5 -360t-335.5 -130q-211 0 -333.5 130t-122.5 360v583h174v-590q0 -151 76 -235t209 -84q130 0 205 84t75 235z" />
    <glyph glyph-name="uacute" unicode="&#xfa;" horiz-adv-x="1236" 
d="M707 1196h-170l213 340h196zM901 442v590h176v-583q0 -230 -123.5 -360t-335.5 -130q-211 0 -333.5 130t-122.5 360v583h174v-590q0 -151 76 -235t209 -84q130 0 205 84t75 235z" />
    <glyph glyph-name="ucircumflex" unicode="&#xfb;" horiz-adv-x="1236" 
d="M446 1196h-159l215 340h235l213 -340h-157l-172 254zM901 442v590h176v-583q0 -230 -123.5 -360t-335.5 -130q-211 0 -333.5 130t-122.5 360v583h174v-590q0 -151 76 -235t209 -84q130 0 205 84t75 235z" />
    <glyph glyph-name="udieresis" unicode="&#xfc;" horiz-adv-x="1236" 
d="M418 1315q-47 0 -82 34t-35 81t34.5 80.5t82.5 33.5q46 0 81.5 -33.5t35.5 -80.5t-35.5 -81t-81.5 -34zM819 1315q-46 0 -81.5 34t-35.5 81t35.5 80.5t81.5 33.5q48 0 82.5 -33.5t34.5 -80.5t-35 -81t-82 -34zM901 442v590h176v-583q0 -230 -123.5 -360t-335.5 -130
q-211 0 -333.5 130t-122.5 360v583h174v-590q0 -151 76 -235t209 -84q130 0 205 84t75 235z" />
    <glyph glyph-name="yacute" unicode="&#xfd;" horiz-adv-x="1124" 
d="M649 1196h-170l213 340h197zM551 -250q-110 -262 -365 -262q-101 0 -166 33v155q61 -28 136 -28q83 0 142 37.5t97 128.5l80 188l-446 1030h192l346 -809l342 809h185z" />
    <glyph glyph-name="thorn" unicode="&#xfe;" horiz-adv-x="1351" 
d="M184 -504v1985h174v-563q146 155 367 155q157 0 279.5 -76.5t186.5 -203t64 -277.5t-64 -277.5t-186.5 -203t-279.5 -76.5q-220 0 -367 156v-619h-174zM358 319q60 -95 149.5 -145.5t197.5 -50.5q162 0 265 113t103 280t-103 280t-265 113q-108 0 -197.5 -50.5
t-149.5 -145.5v-394z" />
    <glyph glyph-name="ydieresis" unicode="&#xff;" horiz-adv-x="1124" 
d="M360 1315q-47 0 -81.5 34t-34.5 81t34.5 80.5t81.5 33.5q46 0 81.5 -33.5t35.5 -80.5t-35.5 -81t-81.5 -34zM762 1315q-46 0 -81.5 34t-35.5 81t35.5 80.5t81.5 33.5q48 0 82.5 -33.5t34.5 -80.5t-35 -81t-82 -34zM551 -250q-110 -262 -365 -262q-101 0 -166 33v155
q61 -28 136 -28q83 0 142 37.5t97 128.5l80 188l-446 1030h192l346 -809l342 809h185z" />
    <glyph glyph-name="Amacron" unicode="&#x100;" horiz-adv-x="1511" 
d="M438 1657v131h635v-131h-635zM55 0l572 1434h258l571 -1434h-205l-166 422h-659l-166 -422h-205zM489 588h533l-266 678z" />
    <glyph glyph-name="amacron" unicode="&#x101;" horiz-adv-x="1155" 
d="M256 1350v133h635v-133h-635zM467 -41q-153 0 -246.5 80.5t-93.5 214.5q0 121 88 202t252 107l346 58v71q0 105 -68.5 165.5t-179.5 60.5q-90 0 -162.5 -38t-117.5 -106l-131 100q69 94 175.5 146.5t239.5 52.5q194 0 306 -104.5t112 -276.5v-692h-174v131
q-58 -81 -149.5 -126.5t-196.5 -45.5zM301 260q0 -67 53.5 -111.5t141.5 -44.5q201 0 317 191v197l-305 -54q-207 -33 -207 -178z" />
    <glyph glyph-name="Abreve" unicode="&#x102;" horiz-adv-x="1511" 
d="M758 1661q185 0 194 172h146q0 -143 -93.5 -220t-248.5 -77q-151 0 -245 77.5t-95 219.5h145q12 -172 197 -172zM55 0l572 1434h258l571 -1434h-205l-166 422h-659l-166 -422h-205zM489 588h533l-266 678z" />
    <glyph glyph-name="abreve" unicode="&#x103;" horiz-adv-x="1155" 
d="M575 1321q93 0 141 55t48 160h145q0 -166 -88 -253t-248 -87q-158 0 -246.5 87.5t-88.5 252.5h147q0 -105 48.5 -160t141.5 -55zM467 -41q-153 0 -246.5 80.5t-93.5 214.5q0 121 88 202t252 107l346 58v71q0 105 -68.5 165.5t-179.5 60.5q-90 0 -162.5 -38t-117.5 -106
l-131 100q69 94 175.5 146.5t239.5 52.5q194 0 306 -104.5t112 -276.5v-692h-174v131q-58 -81 -149.5 -126.5t-196.5 -45.5zM301 260q0 -67 53.5 -111.5t141.5 -44.5q201 0 317 191v197l-305 -54q-207 -33 -207 -178z" />
    <glyph glyph-name="Aogonek" unicode="&#x104;" horiz-adv-x="1511" 
d="M55 0l572 1434h258l571 -1434h-22l-93 -61q-99 -72 -136.5 -118t-37.5 -93q0 -53 33 -80t90 -27q80 0 144 31v-125q-72 -31 -166 -31q-116 0 -181 62.5t-65 148.5q0 142 199 277l28 20l-164 418h-659l-166 -422h-205zM489 588h533l-266 678z" />
    <glyph glyph-name="aogonek" unicode="&#x105;" horiz-adv-x="1155" 
d="M467 -41q-153 0 -246.5 80.5t-93.5 214.5q0 121 88 202t252 107l346 58v71q0 105 -68.5 165.5t-179.5 60.5q-90 0 -162.5 -38t-117.5 -106l-131 100q69 94 175.5 146.5t239.5 52.5q194 0 306 -104.5t112 -276.5v-692l-92 -61q-99 -72 -136.5 -118t-37.5 -93q0 -53 33 -80
t90 -27q79 0 143 31v-125q-72 -31 -166 -31q-116 0 -181 62.5t-65 148.5q0 142 199 277l39 26v121q-58 -81 -149.5 -126.5t-196.5 -45.5zM301 260q0 -67 53.5 -111.5t141.5 -44.5q201 0 317 191v197l-305 -54q-207 -33 -207 -178z" />
    <glyph glyph-name="Cacute" unicode="&#x106;" horiz-adv-x="1550" 
d="M948 1556h-178l231 277h209zM858 139q141 0 256.5 63t190.5 171l153 -119q-101 -137 -256 -216t-344 -79q-164 0 -306.5 61t-239.5 164t-152.5 241.5t-55.5 291.5t55.5 291.5t152.5 241.5t239.5 164t306.5 61q188 0 343 -79t257 -216l-153 -119q-74 108 -190 170.5
t-257 62.5q-159 0 -286.5 -77.5t-198 -209.5t-70.5 -290t70.5 -290t198 -210t286.5 -78z" />
    <glyph glyph-name="cacute" unicode="&#x107;" horiz-adv-x="1146" 
d="M743 1196h-170l213 340h197zM659 123q93 0 168.5 41t124.5 112l140 -106q-74 -99 -185.5 -155t-249.5 -56q-166 0 -295.5 76.5t-197.5 203t-68 277.5t68 277.5t197.5 203t295.5 76.5q136 0 248.5 -56.5t186.5 -154.5l-140 -106q-49 71 -125.5 112t-169.5 41
q-164 0 -271 -113.5t-107 -279.5q0 -167 107 -280t273 -113z" />
    <glyph glyph-name="Ccircumflex" unicode="&#x108;" horiz-adv-x="1550" 
d="M680 1556h-160l232 277h215l229 -277h-160l-178 189zM858 139q141 0 256.5 63t190.5 171l153 -119q-101 -137 -256 -216t-344 -79q-164 0 -306.5 61t-239.5 164t-152.5 241.5t-55.5 291.5t55.5 291.5t152.5 241.5t239.5 164t306.5 61q188 0 343 -79t257 -216l-153 -119
q-74 108 -190 170.5t-257 62.5q-159 0 -286.5 -77.5t-198 -209.5t-70.5 -290t70.5 -290t198 -210t286.5 -78z" />
    <glyph glyph-name="ccircumflex" unicode="&#x109;" horiz-adv-x="1146" 
d="M483 1196h-159l215 340h235l213 -340h-158l-172 254zM659 123q93 0 168.5 41t124.5 112l140 -106q-74 -99 -185.5 -155t-249.5 -56q-166 0 -295.5 76.5t-197.5 203t-68 277.5t68 277.5t197.5 203t295.5 76.5q136 0 248.5 -56.5t186.5 -154.5l-140 -106q-49 71 -125.5 112
t-169.5 41q-164 0 -271 -113.5t-107 -279.5q0 -167 107 -280t273 -113z" />
    <glyph glyph-name="Cdotaccent" unicode="&#x10a;" horiz-adv-x="1550" 
d="M858 1616q-46 0 -78 31t-32 77q0 44 32 76.5t78 32.5q44 0 76.5 -32.5t32.5 -76.5q0 -45 -32 -76.5t-77 -31.5zM858 139q141 0 256.5 63t190.5 171l153 -119q-101 -137 -256 -216t-344 -79q-164 0 -306.5 61t-239.5 164t-152.5 241.5t-55.5 291.5t55.5 291.5t152.5 241.5
t239.5 164t306.5 61q188 0 343 -79t257 -216l-153 -119q-74 108 -190 170.5t-257 62.5q-159 0 -286.5 -77.5t-198 -209.5t-70.5 -290t70.5 -290t198 -210t286.5 -78z" />
    <glyph glyph-name="cdotaccent" unicode="&#x10b;" horiz-adv-x="1146" 
d="M655 1300q-51 0 -87 36t-36 87q0 50 36 85.5t87 35.5t87 -35.5t36 -85.5q0 -51 -36 -87t-87 -36zM659 123q93 0 168.5 41t124.5 112l140 -106q-74 -99 -185.5 -155t-249.5 -56q-166 0 -295.5 76.5t-197.5 203t-68 277.5t68 277.5t197.5 203t295.5 76.5q136 0 248.5 -56.5
t186.5 -154.5l-140 -106q-49 71 -125.5 112t-169.5 41q-164 0 -271 -113.5t-107 -279.5q0 -167 107 -280t273 -113z" />
    <glyph glyph-name="Ccaron" unicode="&#x10c;" horiz-adv-x="1550" 
d="M680 1833l178 -188l178 188h160l-229 -277h-215l-232 277h160zM858 139q141 0 256.5 63t190.5 171l153 -119q-101 -137 -256 -216t-344 -79q-164 0 -306.5 61t-239.5 164t-152.5 241.5t-55.5 291.5t55.5 291.5t152.5 241.5t239.5 164t306.5 61q188 0 343 -79t257 -216
l-153 -119q-74 108 -190 170.5t-257 62.5q-159 0 -286.5 -77.5t-198 -209.5t-70.5 -290t70.5 -290t198 -210t286.5 -78z" />
    <glyph glyph-name="ccaron" unicode="&#x10d;" horiz-adv-x="1146" 
d="M483 1536l174 -254l172 254h158l-213 -340h-235l-215 340h159zM659 123q93 0 168.5 41t124.5 112l140 -106q-74 -99 -185.5 -155t-249.5 -56q-166 0 -295.5 76.5t-197.5 203t-68 277.5t68 277.5t197.5 203t295.5 76.5q136 0 248.5 -56.5t186.5 -154.5l-140 -106
q-49 71 -125.5 112t-169.5 41q-164 0 -271 -113.5t-107 -279.5q0 -167 107 -280t273 -113z" />
    <glyph glyph-name="Dcaron" unicode="&#x10e;" horiz-adv-x="1638" 
d="M639 1833l178 -188l178 188h160l-229 -277h-215l-232 277h160zM227 0v1434h551q164 0 306.5 -58t239.5 -155.5t152.5 -228.5t55.5 -275t-55.5 -275t-152.5 -228.5t-239.5 -155.5t-306.5 -58h-551zM782 1257h-362v-1081h362q156 0 283 72.5t197.5 196.5t70.5 272
q0 149 -70.5 272.5t-197.5 195.5t-283 72z" />
    <glyph glyph-name="dcaron" unicode="&#x10f;" horiz-adv-x="1339" 
d="M96 516q0 113 38 214t105.5 177.5t168.5 121t219 44.5q220 0 366 -155v618h174v-1536h-174v115q-147 -156 -366 -156q-118 0 -219 44.5t-168.5 121t-105.5 177.5t-38 214zM1384 1155h-151l174 381h186zM281 516q0 -167 102 -280t264 -113q107 0 196.5 50t149.5 142v402
q-61 93 -150.5 142.5t-195.5 49.5q-162 0 -264 -113t-102 -280z" />
    <glyph glyph-name="Dcroat" unicode="&#x110;" horiz-adv-x="1638" 
d="M227 0v668h-227v131h227v635h551q164 0 306.5 -58t239.5 -155.5t152.5 -228.5t55.5 -275t-55.5 -275t-152.5 -228.5t-239.5 -155.5t-306.5 -58h-551zM797 668h-377v-492h362q156 0 283 72.5t197.5 196.5t70.5 272q0 149 -70.5 272.5t-197.5 195.5t-283 72h-362v-458h377
v-131z" />
    <glyph glyph-name="dcroat" unicode="&#x111;" horiz-adv-x="1349" 
d="M96 516q0 113 38 214t105.5 177.5t168.5 121t219 44.5q220 0 366 -155v282h-409v133h409v203h174v-203h183v-133h-183v-1200h-174v115q-147 -156 -366 -156q-118 0 -219 44.5t-168.5 121t-105.5 177.5t-38 214zM281 516q0 -167 102 -280t264 -113q107 0 196.5 50
t149.5 142v402q-61 93 -150.5 142.5t-195.5 49.5q-162 0 -264 -113t-102 -280z" />
    <glyph glyph-name="Emacron" unicode="&#x112;" horiz-adv-x="1153" 
d="M299 1657v131h635v-131h-635zM227 0v1434h770v-168h-577v-453h495v-166h-495v-479h577v-168h-770z" />
    <glyph glyph-name="emacron" unicode="&#x113;" horiz-adv-x="1189" 
d="M303 1350v133h635v-133h-635zM1102 170q-74 -99 -188 -155t-255 -56q-169 0 -299 77t-197 202.5t-67 277.5q0 157 62.5 283t182 200t275.5 74q208 0 335.5 -126t127.5 -322q0 -53 -12 -111h-791v-4q0 -171 108 -282t280 -111q96 0 176.5 41t132.5 112zM618 924
q-127 0 -211.5 -70t-115.5 -203h612q-5 116 -83 194.5t-202 78.5z" />
    <glyph glyph-name="Ebreve" unicode="&#x114;" horiz-adv-x="1153" 
d="M618 1661q90 0 140.5 43.5t54.5 128.5h145q0 -143 -93.5 -220t-248.5 -77q-151 0 -245 77.5t-95 219.5h146q12 -172 196 -172zM227 0v1434h770v-168h-577v-453h495v-166h-495v-479h577v-168h-770z" />
    <glyph glyph-name="ebreve" unicode="&#x115;" horiz-adv-x="1189" 
d="M623 1321q93 0 140.5 55t47.5 160h145q0 -166 -87.5 -253t-247.5 -87q-158 0 -247 87.5t-89 252.5h147q0 -105 49 -160t142 -55zM1102 170q-74 -99 -188 -155t-255 -56q-169 0 -299 77t-197 202.5t-67 277.5q0 157 62.5 283t182 200t275.5 74q208 0 335.5 -126
t127.5 -322q0 -53 -12 -111h-791v-4q0 -171 108 -282t280 -111q96 0 176.5 41t132.5 112zM618 924q-127 0 -211.5 -70t-115.5 -203h612q-5 116 -83 194.5t-202 78.5z" />
    <glyph glyph-name="Edotaccent" unicode="&#x116;" horiz-adv-x="1153" 
d="M616 1616q-46 0 -78 31t-32 77q0 44 32 76.5t78 32.5q44 0 76.5 -32.5t32.5 -76.5q0 -45 -32 -76.5t-77 -31.5zM227 0v1434h770v-168h-577v-453h495v-166h-495v-479h577v-168h-770z" />
    <glyph glyph-name="edotaccent" unicode="&#x117;" horiz-adv-x="1189" 
d="M621 1300q-51 0 -87 36t-36 87q0 50 36 85.5t87 35.5t86.5 -35.5t35.5 -85.5q0 -51 -35.5 -87t-86.5 -36zM1102 170q-74 -99 -188 -155t-255 -56q-169 0 -299 77t-197 202.5t-67 277.5q0 157 62.5 283t182 200t275.5 74q208 0 335.5 -126t127.5 -322q0 -53 -12 -111h-791
v-4q0 -171 108 -282t280 -111q96 0 176.5 41t132.5 112zM618 924q-127 0 -211.5 -70t-115.5 -203h612q-5 116 -83 194.5t-202 78.5z" />
    <glyph glyph-name="Eogonek" unicode="&#x118;" horiz-adv-x="1153" 
d="M227 0v1434h770v-168h-577v-453h495v-166h-495v-479h577v-168l-92 -61q-99 -72 -136.5 -118t-37.5 -93q0 -53 33 -80t90 -27q79 0 143 31v-125q-72 -31 -166 -31q-116 0 -180.5 62.5t-64.5 148.5q0 143 198 277l25 16h-582z" />
    <glyph glyph-name="eogonek" unicode="&#x119;" horiz-adv-x="1189" 
d="M467 -293q0 129 164 252q-161 7 -284.5 85t-187 201.5t-63.5 270.5q0 157 62.5 283t182 200t275.5 74q208 0 335.5 -126t127.5 -322q0 -53 -12 -111h-791v-4q0 -171 108 -282t280 -111q96 0 176.5 41t132.5 112l129 -100q-88 -117 -225 -172l-91 -59q-99 -72 -136.5 -118
t-37.5 -93q0 -53 33 -80t90 -27q80 0 144 31v-125q-72 -31 -166 -31q-116 0 -181 62.5t-65 148.5zM618 924q-127 0 -211.5 -70t-115.5 -203h612q-5 116 -83 194.5t-202 78.5z" />
    <glyph glyph-name="Ecaron" unicode="&#x11a;" horiz-adv-x="1153" 
d="M438 1833l178 -188l179 188h159l-229 -277h-215l-231 277h159zM227 0v1434h770v-168h-577v-453h495v-166h-495v-479h577v-168h-770z" />
    <glyph glyph-name="ecaron" unicode="&#x11b;" horiz-adv-x="1189" 
d="M449 1536l174 -254l172 254h157l-213 -340h-235l-215 340h160zM1102 170q-74 -99 -188 -155t-255 -56q-169 0 -299 77t-197 202.5t-67 277.5q0 157 62.5 283t182 200t275.5 74q208 0 335.5 -126t127.5 -322q0 -53 -12 -111h-791v-4q0 -171 108 -282t280 -111
q96 0 176.5 41t132.5 112zM618 924q-127 0 -211.5 -70t-115.5 -203h612q-5 116 -83 194.5t-202 78.5z" />
    <glyph glyph-name="Gcircumflex" unicode="&#x11c;" horiz-adv-x="1656" 
d="M680 1556h-160l232 277h215l229 -277h-160l-178 189zM879 139q131 0 241 49t187 136v319h-414v174h606v-563q-102 -138 -262.5 -216.5t-357.5 -78.5q-169 0 -315 61t-246 164t-157 241.5t-57 291.5t55.5 291.5t152.5 241.5t239.5 164t306.5 61q188 0 343 -79t257 -216
l-153 -119q-74 108 -190 170.5t-257 62.5q-159 0 -286.5 -77.5t-198 -209.5t-70.5 -290t73 -290t206 -210t297 -78z" />
    <glyph glyph-name="gcircumflex" unicode="&#x11d;" horiz-adv-x="1138" 
d="M373 1194h-160l215 340h236l213 -340h-158l-172 254zM66 -186q0 147 153 260q-72 57 -72 147q0 123 123 201q-68 51 -105.5 126t-37.5 161q0 154 110.5 260t290.5 106q111 0 199 -43h383v-151h-223q43 -76 43 -172q0 -153 -110.5 -259t-291.5 -106q-68 0 -143 21
q-68 -49 -68 -107q0 -74 86 -74h295q197 0 298.5 -86.5t101.5 -230.5q0 -167 -145.5 -273t-381.5 -106q-232 0 -368.5 86.5t-136.5 239.5zM530 481q109 0 172.5 65.5t63.5 162.5q0 99 -63.5 164t-172.5 65q-112 0 -174.5 -65t-62.5 -164t62.5 -163.5t174.5 -64.5zM236 -166
q0 -94 89.5 -147.5t243.5 -53.5q163 0 259 60.5t96 161.5q0 176 -240 176h-313q-135 -81 -135 -197z" />
    <glyph glyph-name="Gbreve" unicode="&#x11e;" horiz-adv-x="1656" 
d="M860 1661q90 0 140.5 43.5t54.5 128.5h145q0 -143 -93.5 -220t-248.5 -77q-151 0 -245 77.5t-95 219.5h146q12 -172 196 -172zM879 139q131 0 241 49t187 136v319h-414v174h606v-563q-102 -138 -262.5 -216.5t-357.5 -78.5q-169 0 -315 61t-246 164t-157 241.5t-57 291.5
t55.5 291.5t152.5 241.5t239.5 164t306.5 61q188 0 343 -79t257 -216l-153 -119q-74 108 -190 170.5t-257 62.5q-159 0 -286.5 -77.5t-198 -209.5t-70.5 -290t73 -290t206 -210t297 -78z" />
    <glyph glyph-name="gbreve" unicode="&#x11f;" horiz-adv-x="1138" 
d="M547 1319q93 0 140.5 55t47.5 160h146q0 -166 -88 -253t-248 -87q-158 0 -247 87.5t-89 252.5h147q0 -105 49 -160t142 -55zM66 -186q0 147 153 260q-72 57 -72 147q0 123 123 201q-68 51 -105.5 126t-37.5 161q0 154 110.5 260t290.5 106q111 0 199 -43h383v-151h-223
q43 -76 43 -172q0 -153 -110.5 -259t-291.5 -106q-68 0 -143 21q-68 -49 -68 -107q0 -74 86 -74h295q197 0 298.5 -86.5t101.5 -230.5q0 -167 -145.5 -273t-381.5 -106q-232 0 -368.5 86.5t-136.5 239.5zM530 481q109 0 172.5 65.5t63.5 162.5q0 99 -63.5 164t-172.5 65
q-112 0 -174.5 -65t-62.5 -164t62.5 -163.5t174.5 -64.5zM236 -166q0 -94 89.5 -147.5t243.5 -53.5q163 0 259 60.5t96 161.5q0 176 -240 176h-313q-135 -81 -135 -197z" />
    <glyph glyph-name="Gdotaccent" unicode="&#x120;" horiz-adv-x="1656" 
d="M858 1616q-46 0 -78 31t-32 77q0 44 32 76.5t78 32.5q44 0 76.5 -32.5t32.5 -76.5q0 -45 -32 -76.5t-77 -31.5zM879 139q131 0 241 49t187 136v319h-414v174h606v-563q-102 -138 -262.5 -216.5t-357.5 -78.5q-169 0 -315 61t-246 164t-157 241.5t-57 291.5t55.5 291.5
t152.5 241.5t239.5 164t306.5 61q188 0 343 -79t257 -216l-153 -119q-74 108 -190 170.5t-257 62.5q-159 0 -286.5 -77.5t-198 -209.5t-70.5 -290t73 -290t206 -210t297 -78z" />
    <glyph glyph-name="gdotaccent" unicode="&#x121;" horiz-adv-x="1138" 
d="M545 1298q-51 0 -87 36t-36 87q0 50 36 85.5t87 35.5t87 -35.5t36 -85.5q0 -51 -36 -87t-87 -36zM66 -186q0 147 153 260q-72 57 -72 147q0 123 123 201q-68 51 -105.5 126t-37.5 161q0 154 110.5 260t290.5 106q111 0 199 -43h383v-151h-223q43 -76 43 -172
q0 -153 -110.5 -259t-291.5 -106q-68 0 -143 21q-68 -49 -68 -107q0 -74 86 -74h295q197 0 298.5 -86.5t101.5 -230.5q0 -167 -145.5 -273t-381.5 -106q-232 0 -368.5 86.5t-136.5 239.5zM530 481q109 0 172.5 65.5t63.5 162.5q0 99 -63.5 164t-172.5 65q-112 0 -174.5 -65
t-62.5 -164t62.5 -163.5t174.5 -64.5zM236 -166q0 -94 89.5 -147.5t243.5 -53.5q163 0 259 60.5t96 161.5q0 176 -240 176h-313q-135 -81 -135 -197z" />
    <glyph glyph-name="Gcedilla" unicode="&#x122;" horiz-adv-x="1656" 
d="M879 139q131 0 241 49t187 136v319h-414v174h606v-563q-102 -138 -262.5 -216.5t-357.5 -78.5q-169 0 -315 61t-246 164t-157 241.5t-57 291.5t55.5 291.5t152.5 241.5t239.5 164t306.5 61q188 0 343 -79t257 -216l-153 -119q-74 108 -190 170.5t-257 62.5
q-159 0 -286.5 -77.5t-198 -209.5t-70.5 -290t73 -290t206 -210t297 -78zM745 -504h-170l213 340h197z" />
    <glyph glyph-name="gcedilla" unicode="&#x123;" horiz-adv-x="1138" 
d="M700 1534h170l-213 -340h-196zM66 -186q0 147 153 260q-72 57 -72 147q0 123 123 201q-68 51 -105.5 126t-37.5 161q0 154 110.5 260t290.5 106q111 0 199 -43h383v-151h-223q43 -76 43 -172q0 -153 -110.5 -259t-291.5 -106q-68 0 -143 21q-68 -49 -68 -107
q0 -74 86 -74h295q197 0 298.5 -86.5t101.5 -230.5q0 -167 -145.5 -273t-381.5 -106q-232 0 -368.5 86.5t-136.5 239.5zM530 481q109 0 172.5 65.5t63.5 162.5q0 99 -63.5 164t-172.5 65q-112 0 -174.5 -65t-62.5 -164t62.5 -163.5t174.5 -64.5zM236 -166q0 -94 89.5 -147.5
t243.5 -53.5q163 0 259 60.5t96 161.5q0 176 -240 176h-313q-135 -81 -135 -197z" />
    <glyph glyph-name="Hcircumflex" unicode="&#x124;" horiz-adv-x="1710" 
d="M676 1556h-160l232 277h215l229 -277h-160l-178 189zM227 0v1434h193v-617h870v617h193v-1434h-193v643h-870v-643h-193z" />
    <glyph glyph-name="hcircumflex" unicode="&#x125;" horiz-adv-x="1271" 
d="M455 1659h-160l231 276h215l230 -276h-160l-178 188zM184 0v1536h174v-621q144 158 344 158q179 0 291.5 -117.5t112.5 -330.5v-625h-176v618q0 137 -70 214t-192 77q-189 0 -310 -194v-715h-174z" />
    <glyph glyph-name="Hbar" unicode="&#x126;" horiz-adv-x="1710" 
d="M227 0v1065h-227v133h227v236h193v-236h870v236h193v-236h227v-133h-227v-1065h-193v643h-870v-643h-193zM420 817h870v248h-870v-248z" />
    <glyph glyph-name="hbar" unicode="&#x127;" horiz-adv-x="1271" 
d="M184 0v1200h-184v133h184v203h174v-203h398v-133h-398v-285q144 158 344 158q179 0 291.5 -117.5t112.5 -330.5v-625h-176v618q0 137 -70 214t-192 77q-189 0 -310 -194v-715h-174z" />
    <glyph glyph-name="Itilde" unicode="&#x128;" horiz-adv-x="647" 
d="M-37 1556v91q0 92 53.5 149t141.5 57q33 0 59 -6.5t54 -25t38.5 -27t42.5 -37.5l25 -24q5 -5 17.5 -18t17.5 -18t15.5 -13.5t17.5 -11.5t18 -6t22 -3q31 0 48.5 22t17.5 60v88h131v-88q0 -94 -52 -151.5t-141 -57.5q-43 0 -81.5 16t-57.5 31.5t-55 48.5l-25 25
l-15.5 15.5l-15.5 15.5t-13 12t-15 11.5l-14 7t-17.5 6t-17.5 1.5q-32 0 -50 -21.5t-18 -59.5v-89h-131zM227 0v1434h193v-1434h-193z" />
    <glyph glyph-name="itilde" unicode="&#x129;" horiz-adv-x="542" 
d="M631 1536v-106q0 -109 -50 -178.5t-141 -69.5q-58 0 -101.5 29t-88.5 85l-31 33q-3 4 -11 16t-11 15.5t-10.5 13.5t-11 13t-10.5 10t-12 9.5t-12.5 6.5t-14.5 5t-15 1q-33 0 -50.5 -28t-17.5 -72v-123h-131v113q0 108 49.5 174.5t140.5 66.5q58 0 102 -29t91 -85l29 -33
q3 -4 11 -16t11 -15.5t10.5 -13.5t11 -13t10.5 -10t12 -9.5t12.5 -6.5t14.5 -5t15 -1q33 0 50.5 28t17.5 72v123h131zM184 0v1032h174v-1032h-174z" />
    <glyph glyph-name="Imacron" unicode="&#x12a;" horiz-adv-x="647" 
d="M6 1657v131h635v-131h-635zM227 0v1434h193v-1434h-193z" />
    <glyph glyph-name="imacron" unicode="&#x12b;" horiz-adv-x="542" 
d="M-45 1350v133h635v-133h-635zM184 0v1032h174v-1032h-174z" />
    <glyph glyph-name="Ibreve" unicode="&#x12c;" horiz-adv-x="647" 
d="M326 1661q185 0 194 172h146q0 -143 -93.5 -220t-248.5 -77q-151 0 -245 77.5t-95 219.5h145q12 -172 197 -172zM227 0v1434h193v-1434h-193z" />
    <glyph glyph-name="ibreve" unicode="&#x12d;" horiz-adv-x="542" 
d="M274 1321q93 0 141 55t48 160h145q0 -166 -88 -253t-248 -87q-158 0 -246.5 87.5t-88.5 252.5h147q0 -105 48.5 -160t141.5 -55zM184 0v1032h174v-1032h-174z" />
    <glyph glyph-name="Iogonek" unicode="&#x12e;" horiz-adv-x="647" 
d="M-6 -293q0 142 199 277l34 22v1428h193v-1434h-14l-93 -61q-99 -72 -136.5 -118t-37.5 -93q0 -53 33 -80t90 -27q80 0 144 31v-125q-72 -31 -166 -31q-116 0 -181 62.5t-65 148.5z" />
    <glyph glyph-name="iogonek" unicode="&#x12f;" horiz-adv-x="542" 
d="M272 1300q-51 0 -86.5 36t-35.5 87q0 50 35.5 85.5t86.5 35.5t86 -35.5t35 -85.5q0 -51 -35 -87t-86 -36zM-53 -293q0 143 198 277l39 26v1022h174v-1032l-92 -61q-99 -72 -136.5 -118t-37.5 -93q0 -53 33 -80t90 -27q79 0 143 31v-125q-72 -31 -165 -31
q-116 0 -181 62.5t-65 148.5z" />
    <glyph glyph-name="Idotaccent" unicode="&#x130;" horiz-adv-x="647" 
d="M324 1616q-46 0 -78.5 31.5t-32.5 76.5q0 44 32.5 76.5t78.5 32.5q44 0 76 -32.5t32 -76.5q0 -45 -31.5 -76.5t-76.5 -31.5zM227 0v1434h193v-1434h-193z" />
    <glyph glyph-name="dotlessi" unicode="&#x131;" horiz-adv-x="542" 
d="M184 0v1032h174v-1032h-174z" />
    <glyph glyph-name="IJ" unicode="&#x132;" horiz-adv-x="1300" 
d="M227 0v1434h193v-1434h-193zM1075 102q0 -436 -405 -436q-65 0 -101 8v172q42 -10 78 -10q112 0 174 58t62 200v1340h192v-1332z" />
    <glyph glyph-name="ij" unicode="&#x133;" horiz-adv-x="1087" 
d="M272 1300q-51 0 -86.5 36t-35.5 87q0 50 35.5 85.5t86.5 35.5t86 -35.5t35 -85.5q0 -51 -35 -87t-86 -36zM813 1300q-51 0 -87 36t-36 87q0 50 36 85.5t87 35.5q49 0 85 -36t36 -85q0 -51 -35.5 -87t-85.5 -36zM184 0v1032h174v-1032h-174zM901 -135q0 -377 -358 -377
q-108 0 -176 29v155q55 -24 153 -24q100 0 153.5 48.5t53.5 168.5v1167h174v-1167z" />
    <glyph glyph-name="Jcircumflex" unicode="&#x134;" horiz-adv-x="671" 
d="M170 1556h-160l232 277h215l229 -277h-160l-178 189zM446 102q0 -436 -405 -436q-64 0 -100 8v172q42 -10 77 -10q112 0 174 58t62 200v1340h192v-1332z" />
    <glyph glyph-name="jcircumflex" unicode="&#x135;" horiz-adv-x="542" 
d="M100 1196h-159l215 340h235l213 -340h-158l-172 254zM358 -135q0 -377 -358 -377q-108 0 -176 29v155q55 -24 153 -24q100 0 153.5 48.5t53.5 168.5v1167h174v-1167z" />
    <glyph glyph-name="Kcedilla" unicode="&#x136;" horiz-adv-x="1476" 
d="M227 0v1434h193v-723l743 723h242l-608 -594l624 -840h-237l-520 709l-244 -238v-471h-193zM647 -504h-170l213 340h197z" />
    <glyph glyph-name="kcedilla" unicode="&#x137;" horiz-adv-x="1118" 
d="M186 0v1434h176v-885l488 483h221l-432 -430l440 -602h-215l-350 479l-152 -149v-330h-176zM475 -504h-170l213 340h197z" />
    <glyph glyph-name="kra" unicode="&#x138;" horiz-adv-x="1118" 
d="M186 0v1032h176v-479l484 479h225l-432 -430l440 -602h-215l-350 479l-152 -149v-330h-176z" />
    <glyph glyph-name="Lacute" unicode="&#x139;" horiz-adv-x="1071" 
d="M414 1556h-178l231 277h209zM227 0v1434h193v-1258h577v-176h-770z" />
    <glyph glyph-name="lacute" unicode="&#x13a;" horiz-adv-x="542" 
d="M362 1659h-178l232 276h209zM184 0v1536h174v-1536h-174z" />
    <glyph glyph-name="Lcedilla" unicode="&#x13b;" horiz-adv-x="1071" 
d="M227 0v1434h193v-1258h577v-176h-770zM489 -504h-170l213 340h197z" />
    <glyph glyph-name="lcedilla" unicode="&#x13c;" horiz-adv-x="542" 
d="M184 0v1536h174v-1536h-174zM139 -504h-170l213 340h197z" />
    <glyph glyph-name="Lcaron" unicode="&#x13d;" horiz-adv-x="1071" 
d="M227 0v1434h193v-1258h577v-176h-770zM664 1053h-152l174 381h186z" />
    <glyph glyph-name="lcaron" unicode="&#x13e;" horiz-adv-x="542" 
d="M184 0v1536h174v-1536h-174zM586 1155h-152l174 381h187z" />
    <glyph glyph-name="Ldot" unicode="&#x13f;" horiz-adv-x="1071" 
d="M227 0v1434h193v-1258h577v-176h-770zM858 666q-54 0 -93.5 38.5t-39.5 92.5q0 52 39.5 90.5t93.5 38.5t92.5 -38t38.5 -91q0 -54 -38.5 -92.5t-92.5 -38.5z" />
    <glyph glyph-name="ldot" unicode="&#x140;" horiz-adv-x="720" 
d="M184 0v1536h174v-1536h-174zM633 393q-54 0 -93.5 38.5t-39.5 92.5q0 52 39.5 90.5t93.5 38.5t92.5 -38t38.5 -91q0 -54 -38.5 -92.5t-92.5 -38.5z" />
    <glyph glyph-name="Lslash" unicode="&#x141;" horiz-adv-x="1071" 
d="M227 0v551l-227 -119v146l227 120v736h193v-635l336 178v-148l-336 -176v-477h577v-176h-770z" />
    <glyph glyph-name="lslash" unicode="&#x142;" horiz-adv-x="542" 
d="M184 0v698l-184 -98v145l184 99v692h174v-600l185 98v-147l-185 -99v-788h-174z" />
    <glyph glyph-name="Nacute" unicode="&#x143;" horiz-adv-x="1710" 
d="M944 1556h-178l231 277h209zM227 0v1434h252l811 -1192v1192h193v-1434h-252l-811 1192v-1192h-193z" />
    <glyph glyph-name="nacute" unicode="&#x144;" horiz-adv-x="1271" 
d="M745 1196h-170l213 340h197zM184 0v1032h174v-117q144 158 344 158q179 0 291.5 -117.5t112.5 -330.5v-625h-176v618q0 137 -70.5 214t-191.5 77q-193 0 -310 -194v-715h-174z" />
    <glyph glyph-name="Ncedilla" unicode="&#x145;" horiz-adv-x="1710" 
d="M227 0v1434h252l811 -1192v1192h193v-1434h-252l-811 1192v-1192h-193zM721 -504h-170l213 340h197z" />
    <glyph glyph-name="ncedilla" unicode="&#x146;" horiz-adv-x="1271" 
d="M184 0v1032h174v-117q144 158 344 158q179 0 291.5 -117.5t112.5 -330.5v-625h-176v618q0 137 -70.5 214t-191.5 77q-193 0 -310 -194v-715h-174zM512 -504h-170l213 340h197z" />
    <glyph glyph-name="Ncaron" unicode="&#x147;" horiz-adv-x="1710" 
d="M676 1833l178 -188l178 188h160l-229 -277h-215l-232 277h160zM227 0v1434h252l811 -1192v1192h193v-1434h-252l-811 1192v-1192h-193z" />
    <glyph glyph-name="ncaron" unicode="&#x148;" horiz-adv-x="1271" 
d="M485 1536l174 -254l172 254h158l-213 -340h-235l-215 340h159zM184 0v1032h174v-117q144 158 344 158q179 0 291.5 -117.5t112.5 -330.5v-625h-176v618q0 137 -70.5 214t-191.5 77q-193 0 -310 -194v-715h-174z" />
    <glyph glyph-name="Eng" unicode="&#x14a;" horiz-adv-x="1710" 
d="M227 0v1434h256l807 -1094v1094h193v-1356q0 -218 -102 -322t-291 -104q-72 0 -113 10v172q45 -10 90 -10q111 0 167 47.5t56 157.5l-870 1181v-1210h-193z" />
    <glyph glyph-name="eng" unicode="&#x14b;" horiz-adv-x="1271" 
d="M358 1032v-117q141 158 338 158q183 0 296.5 -117t113.5 -331v-760q0 -377 -358 -377q-108 0 -179 29v155q59 -24 154 -24q101 0 154 48t53 169v753q0 137 -72 214t-196 77q-183 0 -304 -194v-715h-174v1032h174z" />
    <glyph glyph-name="Omacron" unicode="&#x14c;" horiz-adv-x="1714" 
d="M541 1657v131h635v-131h-635zM858 1475q163 0 305 -61t239 -164t152.5 -241.5t55.5 -291.5t-55.5 -291.5t-152.5 -241.5t-239 -164t-305 -61q-164 0 -306.5 61t-239.5 164t-152.5 241.5t-55.5 291.5t55.5 291.5t152.5 241.5t239.5 164t306.5 61zM858 139q158 0 285 78
t197.5 210t70.5 290t-70.5 290t-197.5 209.5t-285 77.5q-159 0 -286.5 -77.5t-198 -209.5t-70.5 -290t70.5 -290t198 -210t286.5 -78z" />
    <glyph glyph-name="omacron" unicode="&#x14d;" horiz-adv-x="1310" 
d="M338 1350v133h635v-133h-635zM655 1073q162 0 291 -76.5t198.5 -203.5t69.5 -277t-69.5 -277t-198.5 -203.5t-291 -76.5q-122 0 -227.5 45t-177.5 120.5t-113 177.5t-41 214t41 214t113 177.5t177.5 120.5t227.5 45zM657 123q159 0 266 115.5t107 277.5q0 163 -107 278
t-266 115q-163 0 -270.5 -114.5t-107.5 -278.5t107.5 -278.5t270.5 -114.5z" />
    <glyph glyph-name="Obreve" unicode="&#x14e;" horiz-adv-x="1714" 
d="M860 1661q90 0 140.5 43.5t54.5 128.5h145q0 -143 -93.5 -220t-248.5 -77q-151 0 -245 77.5t-95 219.5h146q12 -172 196 -172zM858 1475q163 0 305 -61t239 -164t152.5 -241.5t55.5 -291.5t-55.5 -291.5t-152.5 -241.5t-239 -164t-305 -61q-164 0 -306.5 61t-239.5 164
t-152.5 241.5t-55.5 291.5t55.5 291.5t152.5 241.5t239.5 164t306.5 61zM858 139q158 0 285 78t197.5 210t70.5 290t-70.5 290t-197.5 209.5t-285 77.5q-159 0 -286.5 -77.5t-198 -209.5t-70.5 -290t70.5 -290t198 -210t286.5 -78z" />
    <glyph glyph-name="obreve" unicode="&#x14f;" horiz-adv-x="1310" 
d="M657 1321q93 0 141 55t48 160h145q0 -166 -88 -253t-248 -87q-158 0 -247 87.5t-89 252.5h148q0 -105 48.5 -160t141.5 -55zM655 1073q162 0 291 -76.5t198.5 -203.5t69.5 -277t-69.5 -277t-198.5 -203.5t-291 -76.5q-122 0 -227.5 45t-177.5 120.5t-113 177.5t-41 214
t41 214t113 177.5t177.5 120.5t227.5 45zM657 123q159 0 266 115.5t107 277.5q0 163 -107 278t-266 115q-163 0 -270.5 -114.5t-107.5 -278.5t107.5 -278.5t270.5 -114.5z" />
    <glyph glyph-name="Ohungarumlaut" unicode="&#x150;" horiz-adv-x="1714" 
d="M739 1556h-178l232 277h211zM1151 1556h-178l231 277h209zM858 1475q163 0 305 -61t239 -164t152.5 -241.5t55.5 -291.5t-55.5 -291.5t-152.5 -241.5t-239 -164t-305 -61q-164 0 -306.5 61t-239.5 164t-152.5 241.5t-55.5 291.5t55.5 291.5t152.5 241.5t239.5 164
t306.5 61zM858 139q158 0 285 78t197.5 210t70.5 290t-70.5 290t-197.5 209.5t-285 77.5q-159 0 -286.5 -77.5t-198 -209.5t-70.5 -290t70.5 -290t198 -210t286.5 -78z" />
    <glyph glyph-name="ohungarumlaut" unicode="&#x151;" horiz-adv-x="1310" 
d="M551 1196h-170l213 340h197zM926 1196h-168l211 340h196zM655 1073q162 0 291 -76.5t198.5 -203.5t69.5 -277t-69.5 -277t-198.5 -203.5t-291 -76.5q-122 0 -227.5 45t-177.5 120.5t-113 177.5t-41 214t41 214t113 177.5t177.5 120.5t227.5 45zM657 123q159 0 266 115.5
t107 277.5q0 163 -107 278t-266 115q-163 0 -270.5 -114.5t-107.5 -278.5t107.5 -278.5t270.5 -114.5z" />
    <glyph glyph-name="OE" unicode="&#x152;" horiz-adv-x="2142" 
d="M858 1434h1129v-177h-578v-440h496v-174h-496v-467h578v-176h-1129q-164 0 -306.5 58t-239.5 155.5t-152.5 228.5t-55.5 275t55.5 275t152.5 228.5t239.5 155.5t306.5 58zM854 176h363v1081h-363q-156 0 -283 -72.5t-197.5 -196t-70.5 -271.5q0 -112 41.5 -211.5
t114 -172t175.5 -115t220 -42.5z" />
    <glyph glyph-name="oe" unicode="&#x153;" horiz-adv-x="2142" 
d="M655 1073q151 0 270.5 -68t190.5 -186q65 119 179 186.5t264 67.5q202 0 328 -126.5t126 -321.5q0 -53 -12 -111h-787v-4q0 -172 106.5 -282.5t276.5 -110.5q98 0 178.5 41t133.5 112l127 -100q-74 -99 -188 -155t-255 -56q-159 0 -281 70t-192 190q-70 -119 -191 -189.5
t-274 -70.5q-122 0 -227.5 45t-177.5 120.5t-113 177.5t-41 214t41 214t113 177.5t177.5 120.5t227.5 45zM1319 834q-67 -67 -90 -175h608q-5 113 -84 189t-207 76q-137 0 -227 -90zM657 123q159 0 266 115.5t107 277.5q0 163 -107 278t-266 115q-163 0 -270.5 -114.5
t-107.5 -278.5t107.5 -278.5t270.5 -114.5z" />
    <glyph glyph-name="Racute" unicode="&#x154;" horiz-adv-x="1312" 
d="M725 1556h-178l231 277h209zM227 0v1434h381q216 0 341.5 -109.5t125.5 -294.5q0 -129 -62.5 -222.5t-176.5 -137.5l462 -670h-231l-414 631q-14 -2 -45 -2h-188v-629h-193zM616 1266h-196v-469h196q124 0 192.5 61t68.5 176q0 109 -69 170.5t-192 61.5z" />
    <glyph glyph-name="racute" unicode="&#x155;" horiz-adv-x="813" 
d="M483 1196h-170l213 340h197zM184 0v1032h174v-129q127 150 301 150q48 0 89 -13v-180q-54 14 -103 14q-182 0 -287 -174v-700h-174z" />
    <glyph glyph-name="Rcedilla" unicode="&#x156;" horiz-adv-x="1312" 
d="M227 0v1434h381q216 0 341.5 -109.5t125.5 -294.5q0 -129 -62.5 -222.5t-176.5 -137.5l462 -670h-231l-414 631q-14 -2 -45 -2h-188v-629h-193zM616 1266h-196v-469h196q124 0 192.5 61t68.5 176q0 109 -69 170.5t-192 61.5zM588 -504h-170l213 340h196z" />
    <glyph glyph-name="rcedilla" unicode="&#x157;" horiz-adv-x="813" 
d="M184 0v1032h174v-129q127 150 301 150q48 0 89 -13v-180q-54 14 -103 14q-182 0 -287 -174v-700h-174zM193 -504h-170l213 340h196z" />
    <glyph glyph-name="Rcaron" unicode="&#x158;" horiz-adv-x="1312" 
d="M457 1833l178 -188l178 188h160l-230 -277h-215l-231 277h160zM227 0v1434h381q216 0 341.5 -109.5t125.5 -294.5q0 -129 -62.5 -222.5t-176.5 -137.5l462 -670h-231l-414 631q-14 -2 -45 -2h-188v-629h-193zM616 1266h-196v-469h196q124 0 192.5 61t68.5 176
q0 109 -69 170.5t-192 61.5z" />
    <glyph glyph-name="rcaron" unicode="&#x159;" horiz-adv-x="813" 
d="M223 1536l174 -254l172 254h158l-213 -340h-235l-216 340h160zM184 0v1032h174v-129q127 150 301 150q48 0 89 -13v-180q-54 14 -103 14q-182 0 -287 -174v-700h-174z" />
    <glyph glyph-name="Sacute" unicode="&#x15a;" horiz-adv-x="1204" 
d="M702 1556h-178l232 277h209zM119 197l139 129q152 -193 354 -193q114 0 180 64t66 165q0 62 -37.5 112.5t-97 87t-132 71.5t-145 76t-132 90t-97 123.5t-37.5 167.5q0 160 118 272.5t298 112.5q281 0 457 -234l-144 -125q-130 187 -311 187q-98 0 -159.5 -59.5
t-61.5 -149.5q0 -49 23 -91t62.5 -73t90.5 -60t107 -56.5t112 -57t107 -67.5t90.5 -82.5t62.5 -106.5t23 -135q0 -180 -125.5 -292t-315.5 -112q-306 0 -495 236z" />
    <glyph glyph-name="sacute" unicode="&#x15b;" horiz-adv-x="907" 
d="M553 1196h-170l213 340h197zM74 141l123 107q115 -144 262 -144q84 0 132 45t48 115q0 47 -28 82t-72.5 58t-98.5 44.5t-108 48t-98.5 61t-72.5 92t-28 132.5q0 125 93.5 208t238.5 83q111 0 202.5 -46t147.5 -124l-121 -104q-90 129 -227 129q-78 0 -121 -39t-43 -103
q0 -48 28 -83.5t72.5 -59t98.5 -45t108 -48t98.5 -60t72.5 -89.5t28 -129q-1 -142 -100.5 -227.5t-247.5 -85.5q-241 0 -387 182z" />
    <glyph glyph-name="Scircumflex" unicode="&#x15c;" horiz-adv-x="1204" 
d="M434 1556h-160l232 277h215l229 -277h-159l-179 189zM119 197l139 129q152 -193 354 -193q114 0 180 64t66 165q0 62 -37.5 112.5t-97 87t-132 71.5t-145 76t-132 90t-97 123.5t-37.5 167.5q0 160 118 272.5t298 112.5q281 0 457 -234l-144 -125q-130 187 -311 187
q-98 0 -159.5 -59.5t-61.5 -149.5q0 -49 23 -91t62.5 -73t90.5 -60t107 -56.5t112 -57t107 -67.5t90.5 -82.5t62.5 -106.5t23 -135q0 -180 -125.5 -292t-315.5 -112q-306 0 -495 236z" />
    <glyph glyph-name="scircumflex" unicode="&#x15d;" horiz-adv-x="907" 
d="M293 1196h-160l215 340h236l213 -340h-158l-172 254zM74 141l123 107q115 -144 262 -144q84 0 132 45t48 115q0 47 -28 82t-72.5 58t-98.5 44.5t-108 48t-98.5 61t-72.5 92t-28 132.5q0 125 93.5 208t238.5 83q111 0 202.5 -46t147.5 -124l-121 -104q-90 129 -227 129
q-78 0 -121 -39t-43 -103q0 -48 28 -83.5t72.5 -59t98.5 -45t108 -48t98.5 -60t72.5 -89.5t28 -129q-1 -142 -100.5 -227.5t-247.5 -85.5q-241 0 -387 182z" />
    <glyph glyph-name="Scedilla" unicode="&#x15e;" horiz-adv-x="1204" 
d="M119 197l139 129q152 -193 354 -193q114 0 180 64t66 165q0 62 -37.5 112.5t-97 87t-132 71.5t-145 76t-132 90t-97 123.5t-37.5 167.5q0 160 118 272.5t298 112.5q281 0 457 -234l-144 -125q-130 187 -311 187q-98 0 -159.5 -59.5t-61.5 -149.5q0 -49 23 -91t62.5 -73
t90.5 -60t107 -56.5t112 -57t107 -67.5t90.5 -82.5t62.5 -106.5t23 -135q0 -160 -99.5 -267t-259.5 -131l-82 -98h9q90 0 151.5 -50t61.5 -128q0 -85 -66 -142t-168 -57q-134 0 -213 70l68 96q64 -57 137 -57q46 0 74 23.5t28 64.5q0 84 -108 84q-42 0 -82 -19l-66 74
l107 135q-260 23 -428 234z" />
    <glyph glyph-name="scedilla" unicode="&#x15f;" horiz-adv-x="907" 
d="M74 141l123 107q115 -144 262 -144q84 0 132 45t48 115q0 47 -28 82t-72.5 58t-98.5 44.5t-108 48t-98.5 61t-72.5 92t-28 132.5q0 125 93.5 208t238.5 83q111 0 202.5 -46t147.5 -124l-121 -104q-90 129 -227 129q-78 0 -121 -39t-43 -103q0 -48 28 -83.5t72.5 -59
t98.5 -45t108 -48t98.5 -60t72.5 -89.5t28 -129q-1 -124 -79 -206t-202 -101l-79 -96h8q90 0 151.5 -50t61.5 -128q0 -85 -66 -142t-168 -57q-134 0 -213 70l68 96q64 -57 137 -57q46 0 74 23.5t28 64.5q0 84 -108 84q-42 0 -82 -19l-66 74l107 137q-183 23 -307 176z" />
    <glyph glyph-name="Scaron" unicode="&#x160;" horiz-adv-x="1204" 
d="M434 1833l178 -188l179 188h159l-229 -277h-215l-232 277h160zM119 197l139 129q152 -193 354 -193q114 0 180 64t66 165q0 62 -37.5 112.5t-97 87t-132 71.5t-145 76t-132 90t-97 123.5t-37.5 167.5q0 160 118 272.5t298 112.5q281 0 457 -234l-144 -125
q-130 187 -311 187q-98 0 -159.5 -59.5t-61.5 -149.5q0 -49 23 -91t62.5 -73t90.5 -60t107 -56.5t112 -57t107 -67.5t90.5 -82.5t62.5 -106.5t23 -135q0 -180 -125.5 -292t-315.5 -112q-306 0 -495 236z" />
    <glyph glyph-name="scaron" unicode="&#x161;" horiz-adv-x="907" 
d="M293 1536l174 -254l172 254h158l-213 -340h-236l-215 340h160zM74 141l123 107q115 -144 262 -144q84 0 132 45t48 115q0 47 -28 82t-72.5 58t-98.5 44.5t-108 48t-98.5 61t-72.5 92t-28 132.5q0 125 93.5 208t238.5 83q111 0 202.5 -46t147.5 -124l-121 -104
q-90 129 -227 129q-78 0 -121 -39t-43 -103q0 -48 28 -83.5t72.5 -59t98.5 -45t108 -48t98.5 -60t72.5 -89.5t28 -129q-1 -142 -100.5 -227.5t-247.5 -85.5q-241 0 -387 182z" />
    <glyph glyph-name="Tcedilla" unicode="&#x162;" horiz-adv-x="1288" 
d="M72 1257v177h1142v-177h-475v-1251h2l-2 -2v-4h-4l-108 -131h8q90 0 151.5 -50t61.5 -128q0 -85 -66 -142t-168 -57q-134 0 -213 70l68 96q64 -57 137 -57q46 0 74.5 23.5t28.5 64.5q0 84 -109 84q-42 0 -82 -19l-65 74l135 172h-41v1257h-475z" />
    <glyph glyph-name="tcedilla" unicode="&#x163;" horiz-adv-x="868" 
d="M244 346v526h-195v160h195v258h176v-258h358v-160h-358v-526q0 -115 53 -161t154 -46q92 0 153 25v-156q-53 -22 -139 -28l-92 -111h8q90 0 151.5 -50t61.5 -128q0 -85 -65.5 -142t-167.5 -57q-134 0 -213 70l67 96q64 -57 137 -57q46 0 74.5 23.5t28.5 64.5
q0 84 -109 84q-42 0 -82 -19l-65 74l125 160q-256 52 -256 358z" />
    <glyph glyph-name="Tcaron" unicode="&#x164;" horiz-adv-x="1288" 
d="M467 1833l178 -188l178 188h160l-229 -277h-215l-232 277h160zM72 1257v177h1142v-177h-475v-1257h-192v1257h-475z" />
    <glyph glyph-name="tcaron" unicode="&#x165;" horiz-adv-x="860" 
d="M645 1155h-151l174 381h186zM244 346v526h-195v160h195v258h176v-258h358v-160h-358v-526q0 -115 53 -161t154 -46q92 0 153 25v-156q-69 -28 -178 -28q-358 0 -358 366z" />
    <glyph glyph-name="Tbar" unicode="&#x166;" horiz-adv-x="1288" 
d="M246 586v131h301v540h-475v177h1142v-177h-475v-540h301v-131h-301v-586h-192v586h-301z" />
    <glyph glyph-name="tbar" unicode="&#x167;" horiz-adv-x="860" 
d="M244 346v193h-197v133h197v200h-195v160h195v258h176v-258h358v-160h-358v-200h360v-133h-360v-193q0 -115 53 -161t154 -46q92 0 153 25v-156q-69 -28 -178 -28q-358 0 -358 366z" />
    <glyph glyph-name="Utilde" unicode="&#x168;" horiz-adv-x="1484" 
d="M383 1556v91q0 92 53.5 149t141.5 57q33 0 59 -6.5t54 -25t38.5 -27t42.5 -37.5l25 -24q5 -5 17.5 -18t17.5 -18t15.5 -13.5t17.5 -11.5t18 -6t22 -3q31 0 48.5 22t17.5 60v88h131v-88q0 -94 -52 -151.5t-141 -57.5q-43 0 -81.5 16t-57.5 31.5t-55 48.5l-25 25
l-15.5 15.5l-15.5 15.5t-13 12t-15 11.5l-14 7t-17.5 6t-17.5 1.5q-32 0 -50 -21.5t-18 -59.5v-89h-131zM1106 528v906h192v-893q0 -274 -150 -428t-405 -154t-406 154t-151 428v893h193v-906q0 -184 98 -286.5t266 -102.5q167 0 265 102.5t98 286.5z" />
    <glyph glyph-name="utilde" unicode="&#x169;" horiz-adv-x="1236" 
d="M977 1536v-106q0 -109 -50 -178.5t-141 -69.5q-58 0 -101.5 29t-88.5 85l-31 33q-3 4 -11 16t-11 15.5t-10.5 13.5t-11 13t-10.5 10t-12 9.5t-12.5 6.5t-14.5 5t-15 1q-33 0 -50.5 -28t-17.5 -72v-123h-131v113q0 108 50 174.5t141 66.5q58 0 101.5 -28.5t90.5 -85.5
l29 -33q3 -4 11 -16t11 -15.5t10.5 -13.5t11 -13t10.5 -10t12 -9.5t12.5 -6.5t14.5 -5t15 -1q33 0 50.5 28t17.5 72v123h131zM901 442v590h176v-583q0 -230 -123.5 -360t-335.5 -130q-211 0 -333.5 130t-122.5 360v583h174v-590q0 -151 76 -235t209 -84q130 0 205 84t75 235
z" />
    <glyph glyph-name="Umacron" unicode="&#x16a;" horiz-adv-x="1484" 
d="M426 1657v131h635v-131h-635zM1106 528v906h192v-893q0 -274 -150 -428t-405 -154t-406 154t-151 428v893h193v-906q0 -184 98 -286.5t266 -102.5q167 0 265 102.5t98 286.5z" />
    <glyph glyph-name="umacron" unicode="&#x16b;" horiz-adv-x="1236" 
d="M301 1350v133h635v-133h-635zM901 442v590h176v-583q0 -230 -123.5 -360t-335.5 -130q-211 0 -333.5 130t-122.5 360v583h174v-590q0 -151 76 -235t209 -84q130 0 205 84t75 235z" />
    <glyph glyph-name="Ubreve" unicode="&#x16c;" horiz-adv-x="1484" 
d="M745 1661q90 0 140.5 43.5t54.5 128.5h145q0 -143 -93.5 -220t-248.5 -77q-151 0 -245 77.5t-95 219.5h146q12 -172 196 -172zM1106 528v906h192v-893q0 -274 -150 -428t-405 -154t-406 154t-151 428v893h193v-906q0 -184 98 -286.5t266 -102.5q167 0 265 102.5t98 286.5
z" />
    <glyph glyph-name="ubreve" unicode="&#x16d;" horiz-adv-x="1236" 
d="M621 1321q93 0 140.5 55t47.5 160h145q0 -166 -88 -253t-248 -87q-158 0 -246.5 87.5t-88.5 252.5h147q0 -105 49 -160t142 -55zM901 442v590h176v-583q0 -230 -123.5 -360t-335.5 -130q-211 0 -333.5 130t-122.5 360v583h174v-590q0 -151 76 -235t209 -84q130 0 205 84
t75 235z" />
    <glyph glyph-name="Uring" unicode="&#x16e;" horiz-adv-x="1484" 
d="M743 1516q-106 0 -178.5 60.5t-72.5 168.5q0 110 72.5 171.5t178.5 61.5q109 0 182.5 -61.5t73.5 -171.5q0 -108 -74 -168.5t-182 -60.5zM745 1620q60 0 99 33.5t39 91.5q0 61 -38.5 95t-99.5 34t-100 -34t-39 -95q0 -58 39 -91.5t100 -33.5zM1106 528v906h192v-893
q0 -274 -150 -428t-405 -154t-406 154t-151 428v893h193v-906q0 -184 98 -286.5t266 -102.5q167 0 265 102.5t98 286.5z" />
    <glyph glyph-name="uring" unicode="&#x16f;" horiz-adv-x="1236" 
d="M618 1139q-103 0 -177 66.5t-74 172.5t74 174t177 68q106 0 181 -68t75 -174t-75 -172.5t-181 -66.5zM623 1239q61 2 100.5 40.5t38.5 100.5q-3 64 -44 102t-102 36q-60 0 -100 -40.5t-37 -103.5q1 -62 42.5 -99.5t101.5 -35.5zM901 442v590h176v-583q0 -230 -123.5 -360
t-335.5 -130q-211 0 -333.5 130t-122.5 360v583h174v-590q0 -151 76 -235t209 -84q130 0 205 84t75 235z" />
    <glyph glyph-name="Uhungarumlaut" unicode="&#x170;" horiz-adv-x="1484" 
d="M625 1556h-179l232 277h211zM1036 1556h-178l232 277h208zM1106 528v906h192v-893q0 -274 -150 -428t-405 -154t-406 154t-151 428v893h193v-906q0 -184 98 -286.5t266 -102.5q167 0 265 102.5t98 286.5z" />
    <glyph glyph-name="uhungarumlaut" unicode="&#x171;" horiz-adv-x="1236" 
d="M514 1196h-170l213 340h197zM889 1196h-168l211 340h196zM901 442v590h176v-583q0 -230 -123.5 -360t-335.5 -130q-211 0 -333.5 130t-122.5 360v583h174v-590q0 -151 76 -235t209 -84q130 0 205 84t75 235z" />
    <glyph glyph-name="Uogonek" unicode="&#x172;" horiz-adv-x="1484" 
d="M553 -293q0 129 164 252q-244 8 -387.5 162t-143.5 420v893h193v-906q0 -184 98 -286.5t266 -102.5q167 0 265 102.5t98 286.5v906h192v-893q0 -212 -91.5 -354t-256.5 -197l-78 -51q-99 -72 -136.5 -118t-37.5 -93q0 -53 33 -80t90 -27q80 0 144 31v-125
q-72 -31 -166 -31q-116 0 -181 62.5t-65 148.5z" />
    <glyph glyph-name="uogonek" unicode="&#x173;" horiz-adv-x="1236" 
d="M403 -293q0 131 166 254q-189 15 -298 143.5t-109 344.5v583h174v-590q0 -151 76 -235t209 -84q130 0 205 84t75 235v590h176v-583q0 -177 -73.5 -296t-206.5 -165l-74 -49q-99 -72 -136.5 -118t-37.5 -93q0 -53 33 -80t90 -27q79 0 143 31v-125q-72 -31 -166 -31
q-116 0 -181 62.5t-65 148.5z" />
    <glyph glyph-name="Wcircumflex" unicode="&#x174;" horiz-adv-x="2084" 
d="M864 1556h-159l231 277h215l229 -277h-159l-179 189zM68 1434h194l311 -1223l363 1223h258l362 -1223l314 1223h190l-366 -1434h-262l-367 1229l-367 -1229h-262z" />
    <glyph glyph-name="wcircumflex" unicode="&#x175;" horiz-adv-x="1642" 
d="M647 1196h-160l215 340h236l213 -340h-158l-172 254zM70 1032h176l213 -852l241 852h238l242 -850l215 850h176l-260 -1032h-244l-246 864l-248 -864h-243z" />
    <glyph glyph-name="Ycircumflex" unicode="&#x176;" horiz-adv-x="1384" 
d="M514 1556h-160l232 277h215l229 -277h-160l-178 189zM1368 1434l-580 -791v-643h-192v643l-582 791h232l446 -603l447 603h229z" />
    <glyph glyph-name="ycircumflex" unicode="&#x177;" horiz-adv-x="1124" 
d="M389 1196h-160l215 340h236l213 -340h-158l-172 254zM551 -250q-110 -262 -365 -262q-101 0 -166 33v155q61 -28 136 -28q83 0 142 37.5t97 128.5l80 188l-446 1030h192l346 -809l342 809h185z" />
    <glyph glyph-name="Ydieresis" unicode="&#x178;" horiz-adv-x="1384" 
d="M494 1616q-46 0 -78.5 31.5t-32.5 76.5q0 44 32.5 76.5t78.5 32.5q44 0 76 -32.5t32 -76.5q0 -45 -31.5 -76.5t-76.5 -31.5zM891 1616q-45 0 -77 31.5t-32 76.5q0 44 32.5 76.5t76.5 32.5q45 0 77.5 -32.5t32.5 -76.5q0 -46 -32 -77t-78 -31zM1368 1434l-580 -791v-643
h-192v643l-582 791h232l446 -603l447 603h229z" />
    <glyph glyph-name="Zacute" unicode="&#x179;" horiz-adv-x="1368" 
d="M786 1556h-178l232 277h209zM113 0v176l891 1081h-871v177h1102v-177l-891 -1081h911v-176h-1142z" />
    <glyph glyph-name="zacute" unicode="&#x17a;" horiz-adv-x="1034" 
d="M606 1196h-170l213 340h197zM100 0v160l607 712h-592v160h807v-160l-609 -712h623v-160h-836z" />
    <glyph glyph-name="Zdotaccent" unicode="&#x17b;" horiz-adv-x="1368" 
d="M696 1616q-46 0 -78 31t-32 77q0 44 32 76.5t78 32.5q44 0 76.5 -32.5t32.5 -76.5q0 -45 -32 -76.5t-77 -31.5zM113 0v176l891 1081h-871v177h1102v-177l-891 -1081h911v-176h-1142z" />
    <glyph glyph-name="zdotaccent" unicode="&#x17c;" horiz-adv-x="1034" 
d="M518 1300q-51 0 -87 36t-36 87q0 50 36 85.5t87 35.5t87 -35.5t36 -85.5q0 -51 -36 -87t-87 -36zM100 0v160l607 712h-592v160h807v-160l-609 -712h623v-160h-836z" />
    <glyph glyph-name="Zcaron" unicode="&#x17d;" horiz-adv-x="1368" 
d="M518 1833l178 -188l178 188h160l-229 -277h-215l-232 277h160zM113 0v176l891 1081h-871v177h1102v-177l-891 -1081h911v-176h-1142z" />
    <glyph glyph-name="zcaron" unicode="&#x17e;" horiz-adv-x="1034" 
d="M346 1536l174 -254l172 254h158l-213 -340h-236l-215 340h160zM100 0v160l607 712h-592v160h807v-160l-609 -712h623v-160h-836z" />
    <glyph glyph-name="Scommaaccent" unicode="&#x218;" horiz-adv-x="1204" 
d="M119 197l139 129q152 -193 354 -193q114 0 180 64t66 165q0 62 -37.5 112.5t-97 87t-132 71.5t-145 76t-132 90t-97 123.5t-37.5 167.5q0 160 118 272.5t298 112.5q281 0 457 -234l-144 -125q-130 187 -311 187q-98 0 -159.5 -59.5t-61.5 -149.5q0 -49 23 -91t62.5 -73
t90.5 -60t107 -56.5t112 -57t107 -67.5t90.5 -82.5t62.5 -106.5t23 -135q0 -180 -125.5 -292t-315.5 -112q-306 0 -495 236zM487 -504h-170l213 340h197z" />
    <glyph glyph-name="scommaaccent" unicode="&#x219;" horiz-adv-x="907" 
d="M74 141l123 107q115 -144 262 -144q84 0 132 45t48 115q0 47 -28 82t-72.5 58t-98.5 44.5t-108 48t-98.5 61t-72.5 92t-28 132.5q0 125 93.5 208t238.5 83q111 0 202.5 -46t147.5 -124l-121 -104q-90 129 -227 129q-78 0 -121 -39t-43 -103q0 -48 28 -83.5t72.5 -59
t98.5 -45t108 -48t98.5 -60t72.5 -89.5t28 -129q-1 -142 -100.5 -227.5t-247.5 -85.5q-241 0 -387 182zM322 -504h-170l213 340h196z" />
    <glyph glyph-name="Tcommaaccent" unicode="&#x21a;" horiz-adv-x="1288" 
d="M72 1257v177h1142v-177h-475v-1257h-192v1257h-475zM512 -504h-170l213 340h197z" />
    <glyph glyph-name="tcommaaccent" unicode="&#x21b;" horiz-adv-x="860" 
d="M244 346v526h-195v160h195v258h176v-258h358v-160h-358v-526q0 -115 53 -161t154 -46q92 0 153 25v-156q-69 -28 -178 -28q-358 0 -358 366zM422 -504h-170l213 340h197z" />
    <glyph glyph-name="dotlessj" unicode="&#x237;" horiz-adv-x="542" 
d="M358 -135q0 -377 -358 -377q-108 0 -176 29v155q55 -24 153 -24q100 0 153.5 48.5t53.5 168.5v1167h174v-1167z" />
    <glyph glyph-name="circumflex" unicode="&#x2c6;" horiz-adv-x="1230" 
d="M442 1196h-159l215 340h235l213 -340h-158l-172 254z" />
    <glyph glyph-name="caron" unicode="&#x2c7;" horiz-adv-x="1230" 
d="M442 1536l174 -254l172 254h158l-213 -340h-235l-215 340h159z" />
    <glyph glyph-name="breve" unicode="&#x2d8;" 
d="M616 1321q93 0 141 55t48 160h145q0 -166 -88 -253t-248 -87q-158 0 -246.5 87.5t-88.5 252.5h147q0 -105 48.5 -160t141.5 -55z" />
    <glyph glyph-name="dotaccent" unicode="&#x2d9;" 
d="M614 1300q-51 0 -86.5 36t-35.5 87q0 50 35.5 85.5t86.5 35.5t87 -35.5t36 -85.5q0 -51 -36 -87t-87 -36z" />
    <glyph glyph-name="ring" unicode="&#x2da;" 
d="M612 1139q-103 0 -177.5 66.5t-74.5 172.5t74.5 174t177.5 68q106 0 181 -68t75 -174t-75 -172.5t-181 -66.5zM616 1239q61 2 101 40.5t39 100.5q-3 64 -44 102t-102 36q-60 0 -100 -40.5t-37 -103.5q1 -62 42 -99.5t101 -35.5z" />
    <glyph glyph-name="ogonek" unicode="&#x2db;" 
d="M408 -293q0 143 198 277l74 49l139 -33l-92 -61q-99 -72 -136.5 -118t-37.5 -93q0 -53 33 -80t90 -27q79 0 143 31v-125q-72 -31 -166 -31q-116 0 -180.5 62.5t-64.5 148.5z" />
    <glyph glyph-name="tilde" unicode="&#x2dc;" horiz-adv-x="1226" 
d="M973 1536v-106q0 -109 -50 -178.5t-141 -69.5q-58 0 -101.5 29t-88.5 85l-31 33q-3 4 -11 16t-11 15.5t-10.5 13.5t-11 13t-10.5 10t-12 9.5t-12.5 6.5t-14.5 5t-15 1q-33 0 -50.5 -28t-17.5 -72v-123h-131v113q0 108 49.5 174.5t140.5 66.5q58 0 102 -29t91 -85l29 -33
q3 -4 11 -16t11 -15.5t10.5 -13.5t11 -13t10.5 -10t12 -9.5t12.5 -6.5t14.5 -5t15 -1q33 0 50.5 28t17.5 72v123h131z" />
    <glyph glyph-name="hungarumlaut" unicode="&#x2dd;" 
d="M393 1196h-170l213 340h197zM768 1196h-168l211 340h197z" />
    <glyph glyph-name="gravecmb" unicode="&#x300;" horiz-adv-x="0" 
d="M-90 1196l-240 340h195l213 -340h-168z" />
    <glyph glyph-name="acutecmb" unicode="&#x301;" horiz-adv-x="0" 
d="M88 1196h-170l213 340h197z" />
    <glyph glyph-name="circumflexcmb" unicode="&#x302;" horiz-adv-x="0" 
d="M-172 1196h-160l215 340h236l213 -340h-158l-172 254z" />
    <glyph glyph-name="tildecmb" unicode="&#x303;" horiz-adv-x="0" 
d="M358 1536v-106q0 -109 -49.5 -178.5t-140.5 -69.5q-58 0 -102 29t-89 85l-30 33q-41 58 -58 71q-24 19 -51 19q-33 0 -50 -27.5t-17 -72.5v-123h-131v113q0 108 49.5 174.5t140.5 66.5q58 0 102 -29t91 -85l28 -33q41 -58 58 -71q24 -19 51 -19q33 0 50 27.5t17 72.5v123
h131z" />
    <glyph glyph-name="macroncmb" unicode="&#x304;" horiz-adv-x="0" 
d="M-317 1350v133h634v-133h-634z" />
    <glyph glyph-name="brevecmb" unicode="&#x306;" horiz-adv-x="0" 
d="M2 1321q93 0 140.5 55t47.5 160h146q0 -166 -88 -253t-248 -87q-158 0 -247 87.5t-89 252.5h148q0 -105 48.5 -160t141.5 -55z" />
    <glyph glyph-name="dotaccentcmb" unicode="&#x307;" horiz-adv-x="0" 
d="M0 1300q-51 0 -87 36t-36 87q0 50 36 85.5t87 35.5t87 -35.5t36 -85.5q0 -51 -36 -87t-87 -36z" />
    <glyph glyph-name="dieresiscmb" unicode="&#x308;" horiz-adv-x="0" 
d="M-201 1315q-47 0 -81.5 34t-34.5 81t34.5 80.5t81.5 33.5q46 0 81.5 -33.5t35.5 -80.5t-35.5 -81t-81.5 -34zM201 1315q-46 0 -81.5 34t-35.5 81t35.5 80.5t81.5 33.5q47 0 81.5 -33.5t34.5 -80.5t-34.5 -81t-81.5 -34z" />
    <glyph glyph-name="ringabovecmb" unicode="&#x30a;" horiz-adv-x="0" 
d="M0 1139q-103 0 -177.5 66.5t-74.5 172.5t74.5 174t177.5 68q106 0 181 -68t75 -174t-75 -172.5t-181 -66.5zM4 1239q61 2 100.5 40.5t38.5 100.5q-3 64 -43.5 102t-101.5 36q-60 0 -100 -40.5t-37 -103.5q1 -62 42 -99.5t101 -35.5z" />
    <glyph glyph-name="hungarumlautcmb" unicode="&#x30b;" horiz-adv-x="0" 
d="M-104 1196h-170l213 340h196zM270 1196h-168l211 340h197z" />
    <glyph glyph-name="caroncmb" unicode="&#x30c;" horiz-adv-x="0" 
d="M-172 1536l174 -254l172 254h158l-213 -340h-236l-215 340h160z" />
    <glyph glyph-name="commaturnedabovecmb" unicode="&#x312;" horiz-adv-x="0" 
d="M156 1536h170l-213 -340h-197z" />
    <glyph glyph-name="commaaccentbelowcmb" unicode="&#x326;" horiz-adv-x="0" 
d="M-133 -504h-170l213 340h196z" />
    <glyph glyph-name="cedillacmb" unicode="&#x327;" horiz-adv-x="0" 
d="M-33 16l142 -10l-115 -137h8q90 0 151.5 -50t61.5 -128q0 -85 -65.5 -142t-167.5 -57q-134 0 -213 70l67 96q64 -57 137 -57q46 0 74.5 23.5t28.5 64.5q0 84 -109 84q-42 0 -82 -19l-65 74z" />
    <glyph glyph-name="ogonekcmb" unicode="&#x328;" horiz-adv-x="0" 
d="M-412 -293q0 142 199 277l74 49l139 -33l-92 -61q-99 -72 -136.5 -118t-37.5 -93q0 -53 33 -80t90 -27q79 0 143 31v-125q-72 -31 -166 -31q-116 0 -181 62.5t-65 148.5z" />
    <glyph glyph-name="endash" unicode="&#x2013;" horiz-adv-x="1105" 
d="M43 600h1020v-151h-1020v151z" />
    <glyph glyph-name="emdash" unicode="&#x2014;" horiz-adv-x="2211" 
d="M43 600h2126v-151h-2126v151z" />
    <glyph glyph-name="quoteleft" unicode="&#x2018;" horiz-adv-x="552" 
d="M301 1434h162l-174 -549h-199z" />
    <glyph glyph-name="quoteright" unicode="&#x2019;" horiz-adv-x="552" 
d="M252 885h-162l174 549h199z" />
    <glyph glyph-name="quotesinglbase" unicode="&#x201a;" horiz-adv-x="552" 
d="M252 -328h-162l174 543h199z" />
    <glyph glyph-name="quotedblleft" unicode="&#x201c;" horiz-adv-x="944" 
d="M301 1434h162l-174 -549h-199zM692 1434h162l-174 -549h-199z" />
    <glyph glyph-name="quotedblright" unicode="&#x201d;" horiz-adv-x="944" 
d="M252 885h-162l174 549h199zM643 885h-162l174 549h199z" />
    <glyph glyph-name="quotedblbase" unicode="&#x201e;" horiz-adv-x="946" 
d="M252 -328h-162l174 543h199zM643 -328h-162l174 543h199z" />
    <glyph glyph-name="dagger" unicode="&#x2020;" horiz-adv-x="866" 
d="M350 225v844h-317v152h317v315h166v-315h318v-152h-318v-844h-166z" />
    <glyph glyph-name="daggerdbl" unicode="&#x2021;" horiz-adv-x="866" 
d="M350 225v316h-317v151h317v377h-317v152h317v315h166v-315h318v-152h-318v-377h318v-151h-318v-316h-166z" />
    <glyph glyph-name="bullet" unicode="&#x2022;" horiz-adv-x="718" 
d="M362 268q-112 0 -190 77t-78 185q0 105 78 179.5t190 74.5t188.5 -74.5t76.5 -179.5q0 -108 -76.5 -185t-188.5 -77z" />
    <glyph glyph-name="ellipsis" unicode="&#x2026;" horiz-adv-x="1443" 
d="M279 -23q-54 0 -94 39t-40 93q0 52 40 90.5t94 38.5t92.5 -38t38.5 -91q0 -54 -38.5 -93t-92.5 -39zM723 -23q-54 0 -93.5 39t-39.5 93q0 52 39.5 90.5t93.5 38.5q53 0 92 -38.5t39 -90.5q0 -54 -39 -93t-92 -39zM1167 -23q-54 0 -93.5 39t-39.5 93q0 52 39.5 90.5
t93.5 38.5t92.5 -38t38.5 -91q0 -54 -38.5 -93t-92.5 -39z" />
    <glyph glyph-name="perthousand" unicode="&#x2030;" horiz-adv-x="2455" 
d="M422 1479q151 0 247.5 -99.5t96.5 -242.5t-96.5 -242.5t-247.5 -99.5q-152 0 -249 99.5t-97 242.5t97 242.5t249 99.5zM223 4l1051 1434h184l-1050 -1434h-185zM422 918q88 0 147.5 63.5t59.5 155.5q0 93 -59 156t-148 63q-91 0 -150 -63t-59 -156t59 -156t150 -63z
M1266 645q151 0 247.5 -99.5t96.5 -242.5t-96.5 -242.5t-247.5 -99.5q-152 0 -249 99.5t-97 242.5t97 242.5t249 99.5zM2036 645q151 0 247.5 -99.5t96.5 -242.5t-96.5 -242.5t-247.5 -99.5q-152 0 -249 99.5t-97 242.5t97 242.5t249 99.5zM1266 84q88 0 147.5 63.5
t59.5 155.5q0 93 -59 156t-148 63q-91 0 -150 -63t-59 -156t59 -156t150 -63zM2036 84q88 0 147.5 63.5t59.5 155.5q0 93 -59 156t-148 63q-91 0 -150 -63t-59 -156t59 -156t150 -63z" />
    <glyph glyph-name="guilsinglleft" unicode="&#x2039;" horiz-adv-x="669" 
d="M563 98h-188l-271 406l271 414h188l-268 -414z" />
    <glyph glyph-name="guilsinglright" unicode="&#x203a;" horiz-adv-x="669" 
d="M104 918h191l270 -406l-270 -414h-191l269 414z" />
    <glyph glyph-name="fraction" unicode="&#x2044;" horiz-adv-x="452" 
d="M-395 0l1050 1434h185l-1051 -1434h-184z" />
    <glyph glyph-name="zerosuperior" unicode="&#x2070;" horiz-adv-x="796" 
d="M397 1735q162 0 248 -129.5t86 -335.5t-86 -335.5t-248 -129.5t-248 129.5t-86 335.5t86 335.5t248 129.5zM397 1608q-92 0 -141 -92.5t-49 -245.5q0 -154 48.5 -246t141.5 -92q92 0 141.5 92.5t49.5 245.5q0 154 -49 246t-142 92z" />
    <glyph glyph-name="i.superior" unicode="&#x2071;" horiz-adv-x="382" 
d="M193 1597q-37 0 -64 26t-27 63q0 35 27 61.5t64 26.5q35 0 61.5 -26.5t26.5 -61.5q0 -36 -26.5 -62.5t-61.5 -26.5zM127 829v635h129v-635h-129z" />
    <glyph glyph-name="foursuperior" unicode="&#x2074;" horiz-adv-x="796" 
d="M494 829v246h-414v117l387 518h164v-518h96v-117h-96v-246h-137zM223 1192h271v360z" />
    <glyph glyph-name="fivesuperior" unicode="&#x2075;" horiz-adv-x="796" 
d="M145 1237l27 473h504v-125h-371l-14 -225h102q148 0 234 -76t86 -203t-88 -201.5t-226 -74.5q-227 0 -333 178l122 76q70 -131 211 -131q75 0 123.5 41.5t48.5 111.5q0 71 -48.5 112.5t-135.5 41.5h-166z" />
    <glyph glyph-name="sixsuperior" unicode="&#x2076;" horiz-adv-x="796" 
d="M446 1735q189 0 295 -146l-106 -86q-75 107 -186 107q-108 0 -164.5 -84t-61.5 -242q91 102 236 102q124 0 200 -80.5t76 -201.5q0 -127 -84.5 -213t-228.5 -86q-165 0 -253.5 116t-88.5 339q0 221 92.5 348t273.5 127zM430 1264q-128 0 -201 -105q25 -229 193 -229
q79 0 124.5 48t45.5 122q0 70 -45.5 117t-116.5 47z" />
    <glyph glyph-name="sevensuperior" unicode="&#x2077;" horiz-adv-x="796" 
d="M287 829h-168l448 756h-465v125h621v-125z" />
    <glyph glyph-name="eightsuperior" unicode="&#x2078;" horiz-adv-x="796" 
d="M397 1735q134 0 210.5 -67t76.5 -167q0 -61 -32 -111.5t-93 -80.5q79 -30 122.5 -92.5t43.5 -141.5q0 -119 -87.5 -194.5t-240.5 -75.5q-152 0 -239.5 75.5t-87.5 194.5q0 79 43.5 141.5t122.5 92.5q-61 30 -93 80.5t-32 111.5q0 100 76.5 167t209.5 67zM399 1362
q63 0 103.5 35t40.5 92t-40.5 92t-103.5 35q-67 0 -106 -34.5t-39 -92.5q0 -59 39 -93t106 -34zM399 926q83 0 134 42.5t51 112.5q0 71 -51 116.5t-134 45.5q-84 0 -135 -45.5t-51 -116.5t50.5 -113t135.5 -42z" />
    <glyph glyph-name="ninesuperior" unicode="&#x2079;" horiz-adv-x="796" 
d="M360 805q-190 0 -292 145l104 86q39 -54 83.5 -80t104.5 -26q108 0 164.5 83.5t61.5 243.5q-90 -104 -236 -104q-125 0 -200.5 81t-75.5 202q0 127 84 213t229 86q165 0 252.5 -116t87.5 -339q0 -221 -93 -348t-274 -127zM215 1440q0 -70 46 -117t116 -47q130 0 203 104
q-25 230 -193 230q-80 0 -126 -48t-46 -122z" />
    <glyph glyph-name="n.superior" unicode="&#x207f;" horiz-adv-x="817" 
d="M127 829v635h129v-61q82 86 201 86q110 0 179 -73.5t69 -205.5v-381h-132v377q0 74 -39.5 117t-105.5 43q-59 0 -99 -30t-73 -79v-428h-129z" />
    <glyph glyph-name="zeroinferior" unicode="&#x2080;" horiz-adv-x="796" 
d="M397 629q162 0 248 -129.5t86 -335.5t-86 -335.5t-248 -129.5t-248 129.5t-86 335.5t86 335.5t248 129.5zM397 502q-92 0 -141 -92.5t-49 -245.5q0 -154 48.5 -246t141.5 -92q92 0 141.5 92.5t49.5 245.5q0 154 -49 246t-142 92z" />
    <glyph glyph-name="oneinferior" unicode="&#x2081;" horiz-adv-x="796" 
d="M121 -276v124h241v615l-217 -117l-69 100l291 158h135v-756h217v-124h-598z" />
    <glyph glyph-name="twoinferior" unicode="&#x2082;" horiz-adv-x="796" 
d="M100 -276v124l301 304q5 5 27 28.5t26.5 28.5t21 24.5t20.5 27t14 24.5t13 28.5t6 28t3 33.5q0 60 -39 95.5t-102 35.5t-108 -33t-84 -98l-113 69q116 185 313 185q120 0 197.5 -67.5t77.5 -176.5q0 -46 -12.5 -87t-40.5 -81t-52.5 -68t-68.5 -73l-232 -228h430v-124
h-598z" />
    <glyph glyph-name="threeinferior" unicode="&#x2083;" horiz-adv-x="796" 
d="M387 506q-109 0 -170 -109l-115 68q99 164 293 164q120 0 196.5 -64.5t76.5 -169.5q0 -131 -109 -196q71 -34 110.5 -94t39.5 -134q0 -124 -88 -198t-228 -74q-226 0 -332 178l121 76q38 -68 89 -99.5t122 -31.5q75 0 123.5 41.5t48.5 111.5t-46.5 112t-125.5 42h-147
v123h131q67 0 108 36t41 93q0 59 -38.5 92t-100.5 33z" />
    <glyph glyph-name="fourinferior" unicode="&#x2084;" horiz-adv-x="796" 
d="M80 -31v117l387 518h164v-518h96v-117h-96v-245h-137v245h-414zM223 86h271v360z" />
    <glyph glyph-name="fiveinferior" unicode="&#x2085;" horiz-adv-x="796" 
d="M145 131l27 473h504v-125h-371l-14 -225h102q148 0 234 -76t86 -203t-88 -201.5t-226 -74.5q-227 0 -333 178l122 76q70 -131 211 -131q75 0 123.5 41.5t48.5 111.5q0 71 -48.5 112.5t-135.5 41.5h-166z" />
    <glyph glyph-name="sixinferior" unicode="&#x2086;" horiz-adv-x="796" 
d="M446 629q189 0 295 -146l-106 -86q-75 107 -186 107q-108 0 -164.5 -84t-61.5 -242q92 103 236 103q124 0 200 -81t76 -202q0 -127 -84.5 -213t-228.5 -86q-165 0 -253.5 116t-88.5 339q0 221 92.5 348t273.5 127zM430 158q-128 0 -201 -105q25 -229 193 -229
q79 0 124.5 48t45.5 122q0 70 -45.5 117t-116.5 47z" />
    <glyph glyph-name="seveninferior" unicode="&#x2087;" horiz-adv-x="796" 
d="M287 -276h-168l448 755h-465v125h621v-125z" />
    <glyph glyph-name="eightinferior" unicode="&#x2088;" horiz-adv-x="796" 
d="M397 629q134 0 210.5 -67t76.5 -167q0 -61 -32 -111.5t-93 -80.5q79 -30 122.5 -92.5t43.5 -141.5q0 -119 -87.5 -194.5t-240.5 -75.5q-152 0 -239.5 75.5t-87.5 194.5q0 79 43.5 141.5t122.5 92.5q-61 30 -93 80.5t-32 111.5q0 100 76.5 167t209.5 67zM399 256
q63 0 103.5 35t40.5 92t-40.5 92t-103.5 35q-67 0 -106 -34.5t-39 -92.5q0 -59 39 -93t106 -34zM399 -180q83 0 134 42.5t51 112.5q0 71 -51 116.5t-134 45.5q-84 0 -135 -45.5t-51 -116.5t50.5 -113t135.5 -42z" />
    <glyph glyph-name="nineinferior" unicode="&#x2089;" horiz-adv-x="796" 
d="M360 -301q-190 0 -292 145l104 86q39 -54 83.5 -80t104.5 -26q108 0 164.5 84t61.5 244q-91 -105 -236 -105q-125 0 -200.5 81t-75.5 202q0 127 84 213t229 86q165 0 252.5 -116t87.5 -339q0 -221 -93 -348t-274 -127zM215 334q0 -70 46 -117t116 -47q130 0 203 104
q-25 230 -193 230q-80 0 -126 -48t-46 -122z" />
    <glyph glyph-name="Euro" unicode="&#x20ac;" 
d="M43 475v152h172q-2 29 -2 92q0 53 2 78h-172v151h186q39 262 171.5 394.5t342.5 132.5q267 0 422 -209l-139 -109q-108 154 -278 154q-274 0 -330 -363h575v-151h-590q-2 -25 -2 -78q0 -63 2 -92h590v-152h-573q31 -185 114.5 -268.5t213.5 -83.5q171 0 278 153l139 -106
q-153 -211 -422 -211q-209 0 -340 129.5t-172 386.5h-188z" />
    <glyph glyph-name="numero" unicode="&#x2116;" horiz-adv-x="2519" 
d="M2075 1489q151 0 247.5 -99.5t96.5 -242.5t-96.5 -242.5t-247.5 -99.5q-152 0 -249 99.5t-97 242.5t97 242.5t249 99.5zM227 0v1434h252l811 -1192v1192h193v-1434h-252l-811 1192v-1192h-193zM2075 928q88 0 147 63.5t59 155.5q0 93 -58.5 156t-147.5 63q-91 0 -150 -63
t-59 -156t59 -156t150 -63zM1778 528v125h594v-125h-594z" />
    <glyph glyph-name="trademark" unicode="&#x2122;" horiz-adv-x="1957" 
d="M63 1300v134h711v-134h-285v-747h-145v747h-281zM946 553v881h184l244 -404l244 404h184v-881h-145v674l-230 -373h-106l-231 377v-678h-144z" />
    <glyph glyph-name="arrowleft" unicode="&#x2190;" horiz-adv-x="1626" 
d="M682 131l-606 606l608 611l107 -109l-435 -426h1194v-151h-1190l431 -424z" />
    <glyph glyph-name="arrowup" unicode="&#x2191;" horiz-adv-x="1626" 
d="M735 0v1186l-424 -424l-106 106l606 607l610 -609l-108 -106l-426 426v-1186h-152z" />
    <glyph glyph-name="arrowright" unicode="&#x2192;" horiz-adv-x="1626" 
d="M76 815h1186l-424 424l106 107l606 -607l-608 -610l-106 109l426 426h-1186v151z" />
    <glyph glyph-name="arrowdown" unicode="&#x2193;" horiz-adv-x="1626" 
d="M1421 565l-608 -606l-608 608l106 107l428 -428v1188h152v-1184l422 422z" />
    <glyph glyph-name="arrowNW" unicode="&#x2196;" horiz-adv-x="1626" 
d="M291 401v859h862v-152h-606l839 -840l-108 -104l-836 835v-598h-151z" />
    <glyph glyph-name="arrowNE" unicode="&#x2197;" horiz-adv-x="1626" 
d="M397 164l-106 104l839 840h-606v152h862v-859h-151v598z" />
    <glyph glyph-name="arrowSE" unicode="&#x2198;" horiz-adv-x="1626" 
d="M397 1260l838 -836v596h151v-856h-862v151h606l-839 838z" />
    <glyph glyph-name="arrowSW" unicode="&#x2199;" horiz-adv-x="1626" 
d="M291 1020h151v-596l836 836l108 -107l-839 -838h606v-151h-862v856z" />
    <glyph glyph-name="minus" unicode="&#x2212;" 
d="M1130 440h-1032v152h1032v-152z" />
    <glyph glyph-name="radical" unicode="&#x221a;" 
d="M246 815l252 -659l481 1278h168l-545 -1434h-209l-311 815h164z" />
    <glyph glyph-name="integral" unicode="&#x222b;" horiz-adv-x="794" 
d="M483 -135q0 -167 -100.5 -272t-265.5 -105q-164 0 -267 100l109 127q62 -69 156 -69q86 0 140 58.5t54 156.5v1298q0 167 101 272t266 105q163 0 266 -100l-108 -127q-62 69 -156 69q-86 0 -140.5 -58.5t-54.5 -156.5v-1298z" />
    <glyph glyph-name="approxequal" unicode="&#x2248;" 
d="M543 686q-32 24 -51 36.5t-51 24t-66 11.5q-60 0 -91.5 -37.5t-31.5 -106.5v-45h-152v60q0 121 72.5 197.5t192.5 76.5q18 0 35.5 -2t31 -4t32 -8.5t27.5 -8.5t28.5 -12.5t25 -12.5t27 -15t23.5 -14.5t26 -17.5l24 -15l41 -27q32 -24 51 -36.5t51 -24t66 -11.5
q60 0 92.5 37.5t32.5 106.5v43h151v-58q0 -122 -72.5 -198t-193.5 -76q-18 0 -35.5 2t-31 4t-32 8.5t-27.5 8.5t-28.5 12.5t-25 12.5t-27 15t-23.5 14.5t-26 17.5l-24 15zM543 291q-33 23 -51 34.5t-50.5 23t-66.5 11.5q-60 0 -91.5 -36t-31.5 -105v-45h-152v59
q0 121 72.5 198t192.5 77q19 0 37.5 -1.5t37.5 -7t31.5 -8t33 -12.5t28.5 -13.5t30.5 -17t26.5 -15.5t28.5 -18.5t26.5 -17.5l41 -26q32 -24 51 -36.5t51 -24t66 -11.5q60 0 92.5 36.5t32.5 106.5v43h151v-57q0 -123 -72 -199.5t-194 -76.5q-55 0 -111 19.5t-82.5 36
t-86.5 56.5z" />
    <glyph glyph-name="notequal" unicode="&#x2260;" 
d="M1130 219h-677l-183 -219h-172l183 219h-183v152h308l243 291h-551v151h676l182 219h174l-182 -219h182v-151h-309l-241 -291h550v-152z" />
    <glyph glyph-name="lessequal" unicode="&#x2264;" 
d="M1130 215l-1032 428v176l1032 428v-164l-866 -352l866 -352v-164zM1130 0h-1032v152h1032v-152z" />
    <glyph glyph-name="greaterequal" unicode="&#x2265;" 
d="M98 379l867 352l-867 352v164l1032 -428v-176l-1032 -428v164zM98 0v152h1032v-152h-1032z" />
    <glyph glyph-name="lozenge" unicode="&#x25ca;" 
d="M526 0l-366 717l366 717h174l367 -717l-367 -717h-174zM322 717l292 -574l291 574l-291 573z" />
    <glyph glyph-name="circledotted" unicode="&#x25cc;" horiz-adv-x="1236" 
d="M618 -20q-145 0 -268.5 72t-195.5 195.5t-72 268.5t72 269t195.5 196t268.5 72q109 0 208 -43t171 -115t115 -171t43 -208q0 -145 -72 -268.5t-196 -195.5t-269 -72zM618 1032q-140 0 -259 -69t-188 -188t-69 -259t69 -259t188 -188t259 -69t259 69t188.5 188t69.5 259
t-69.5 259t-188.5 188t-259 69z" />
    <glyph glyph-name="Ccedilla.1" horiz-adv-x="1550" 
d="M858 139q141 0 256.5 63t190.5 171l153 -119q-93 -127 -234.5 -205t-312.5 -88l-75 -92h8q90 0 151.5 -50t61.5 -128q0 -85 -66 -142t-168 -57q-134 0 -213 70l68 96q64 -57 137 -57q46 0 74.5 23.5t28.5 64.5q0 84 -109 84q-42 0 -82 -19l-65 74l106 135
q-195 21 -347.5 128.5t-234.5 271.5t-82 354q0 153 55.5 291.5t152.5 241.5t239.5 164t306.5 61q188 0 343 -79t257 -216l-153 -119q-74 108 -190 170.5t-257 62.5q-159 0 -286.5 -77.5t-198 -209.5t-70.5 -290t70.5 -290t198 -210t286.5 -78z" />
    <glyph glyph-name="Q.1" horiz-adv-x="1714" 
d="M1489 -252l-289 289q-159 -78 -342 -78q-164 0 -306.5 61t-239.5 164t-152.5 241.5t-55.5 291.5t55.5 291.5t152.5 241.5t239.5 164t306.5 61q163 0 305 -61t239 -164t152.5 -241.5t55.5 -291.5q0 -167 -64.5 -315.5t-181.5 -254.5l405 -399h-280zM858 139q158 0 285 78
t197.5 210t70.5 290t-70.5 290t-197.5 209.5t-285 77.5q-159 0 -286.5 -77.5t-198 -209.5t-70.5 -290t70.5 -290t198 -210t286.5 -78z" />
    <glyph glyph-name="Q.2" horiz-adv-x="1714" 
d="M1671 -94q322 -246 592 -246q132 0 240 43v-172q-94 -43 -246 -43q-354 0 -715 283l-342 266q-159 -78 -342 -78q-164 0 -306.5 61t-239.5 164t-152.5 241.5t-55.5 291.5t55.5 291.5t152.5 241.5t239.5 164t306.5 61q163 0 305 -61t239 -164t152.5 -241.5t55.5 -291.5
q0 -168 -65.5 -318t-184.5 -256zM858 139q158 0 285 78t197.5 210t70.5 290t-70.5 290t-197.5 209.5t-285 77.5q-159 0 -286.5 -77.5t-198 -209.5t-70.5 -290t70.5 -290t198 -210t286.5 -78z" />
    <glyph glyph-name="Scedilla.1" horiz-adv-x="1204" 
d="M119 197l139 129q152 -193 354 -193q114 0 180 64t66 165q0 62 -37.5 112.5t-97 87t-132 71.5t-145 76t-132 90t-97 123.5t-37.5 167.5q0 160 118 272.5t298 112.5q281 0 457 -234l-144 -125q-130 187 -311 187q-98 0 -159.5 -59.5t-61.5 -149.5q0 -49 23 -91t62.5 -73
t90.5 -60t107 -56.5t112 -57t107 -67.5t90.5 -82.5t62.5 -106.5t23 -135q0 -157 -95.5 -263t-250.5 -133l-187 -297h-178l186 293q-244 26 -411 232z" />
    <glyph glyph-name="germandbls.cap" horiz-adv-x="2371" 
d="M119 197l139 129q152 -193 354 -193q114 0 180 64t66 165q0 62 -37.5 112.5t-97 87t-132 71.5t-145 76t-132 90t-97 123.5t-37.5 167.5q0 160 118 272.5t298 112.5q281 0 457 -234l-144 -125q-130 187 -311 187q-98 0 -159.5 -59.5t-61.5 -149.5q0 -49 23 -91t62.5 -73
t90.5 -60t107 -56.5t112 -57t107 -67.5t90.5 -82.5t62.5 -106.5t23 -135q0 -180 -125.5 -292t-315.5 -112q-306 0 -495 236zM1286 197l139 129q152 -193 355 -193q114 0 179.5 64t65.5 165q0 62 -37.5 112.5t-97 87t-131.5 71.5t-144.5 76t-132 90t-97 123.5t-37.5 167.5
q0 160 117.5 272.5t297.5 112.5q281 0 457 -234l-143 -125q-130 187 -312 187q-98 0 -159.5 -59.5t-61.5 -149.5q0 -49 23 -91t62.5 -73t90.5 -60t107 -56.5t112 -57t107 -67.5t90.5 -82.5t62.5 -106.5t23 -135q0 -180 -125 -292t-315 -112q-307 0 -496 236z" />
    <glyph glyph-name="Tcedilla.1" horiz-adv-x="1288" 
d="M72 1257v177h1142v-177h-475v-1222h11l-11 -17v-18h-12l-205 -328h-178l207 328h-4v1257h-475z" />
    <glyph glyph-name="ccedilla.1" horiz-adv-x="1146" 
d="M659 123q93 0 168.5 41t124.5 112l140 -106q-138 -188 -377 -209l-183 -289h-178l189 297q-204 38 -325.5 191t-121.5 356q0 151 68 277.5t197.5 203t295.5 76.5q136 0 248.5 -56.5t186.5 -154.5l-140 -106q-49 71 -125.5 112t-169.5 41q-164 0 -271 -113.5t-107 -279.5
q0 -167 107 -280t273 -113z" />
    <glyph glyph-name="i.trk" horiz-adv-x="542" 
d="M272 1300q-51 0 -86.5 36t-35.5 87q0 50 35.5 85.5t86.5 35.5t87 -35.5t36 -85.5q0 -51 -36 -87t-87 -36zM184 0v1032h174v-1032h-174z" />
    <glyph glyph-name="scedilla.1" horiz-adv-x="907" 
d="M74 141l123 107q115 -144 262 -144q84 0 132 45t48 115q0 47 -28 82t-72.5 58t-98.5 44.5t-108 48t-98.5 61t-72.5 92t-28 132.5q0 125 93.5 208t238.5 83q111 0 202.5 -46t147.5 -124l-121 -104q-90 129 -227 129q-78 0 -121 -39t-43 -103q0 -48 28 -83.5t72.5 -59
t98.5 -45t108 -48t98.5 -60t72.5 -89.5t28 -129q-1 -121 -75 -202t-193 -103l-185 -295h-178l187 295q-171 29 -291 174z" />
    <glyph glyph-name="tcedilla.1" horiz-adv-x="868" 
d="M244 346v526h-195v160h195v258h176v-258h358v-160h-358v-526q0 -115 53 -161t154 -46q92 0 153 25v-156q-53 -23 -131 -26l-192 -310h-178l202 320q-237 57 -237 354z" />
    <glyph glyph-name="y.1" horiz-adv-x="1124" 
d="M29 1032h192l346 -805l338 805h189l-652 -1544h-186l217 514z" />
    <glyph glyph-name="yacute.1" horiz-adv-x="1124" 
d="M651 1196h-170l213 340h197zM29 1032h192l346 -805l338 805h189l-652 -1544h-186l217 514z" />
    <glyph glyph-name="ycircumflex.1" horiz-adv-x="1124" 
d="M391 1196h-160l215 340h236l213 -340h-158l-172 254zM29 1032h192l346 -805l338 805h189l-652 -1544h-186l217 514z" />
    <glyph glyph-name="ydieresis.1" horiz-adv-x="1124" 
d="M362 1315q-47 0 -81.5 34t-34.5 81t34.5 80.5t81.5 33.5q46 0 81.5 -33.5t35.5 -80.5t-35.5 -81t-81.5 -34zM764 1315q-46 0 -81.5 34t-35.5 81t35.5 80.5t81.5 33.5q48 0 82.5 -33.5t34.5 -80.5t-35 -81t-82 -34zM29 1032h192l346 -805l338 805h189l-652 -1544h-186
l217 514z" />
    <glyph glyph-name="caron.slovak" horiz-adv-x="0" 
d="M74 1155h-152l174 381h187z" />
    <glyph glyph-name="cedilla.1" horiz-adv-x="0" 
d="M-47 35h176l-227 -363h-178z" />
    <glyph glyph-name="commaaccentbelow" 
d="M580 -504h-170l213 340h196z" />
    <glyph glyph-name="commaturnedabove" 
d="M649 1536h170l-213 -340h-196z" />
    <glyph glyph-name="grave.case" horiz-adv-x="0" 
d="M-84 1556l-262 277h209l231 -277h-178z" />
    <glyph glyph-name="acute.case" horiz-adv-x="0" 
d="M90 1556h-178l231 277h209z" />
    <glyph glyph-name="hungarumlaut.case" horiz-adv-x="0" 
d="M-119 1556h-178l231 277h211zM293 1556h-178l231 277h209z" />
    <glyph glyph-name="circumflex.case" horiz-adv-x="0" 
d="M-178 1556h-160l232 277h215l229 -277h-160l-178 189z" />
    <glyph glyph-name="caron.case" horiz-adv-x="0" 
d="M178 1833h160l-229 -277h-215l-232 277h160l178 -188z" />
    <glyph glyph-name="breve.case" horiz-adv-x="0" 
d="M2 1661q90 0 140.5 43.5t54.5 128.5h145q0 -143 -93.5 -220t-248.5 -77q-151 0 -245 77.5t-95 219.5h145q12 -172 197 -172z" />
    <glyph glyph-name="ring.case" horiz-adv-x="0" 
d="M0 1516q-106 0 -179 60.5t-73 168.5q0 110 73 171.5t179 61.5q109 0 182.5 -61.5t73.5 -171.5q0 -108 -74 -168.5t-182 -60.5zM2 1620q60 0 98.5 33.5t38.5 91.5q0 61 -38 95t-99 34t-100 -34t-39 -95q0 -58 39 -91.5t100 -33.5z" />
    <glyph glyph-name="tilde.case" horiz-adv-x="0" 
d="M-360 1556v91q0 92 53 149t141 57q33 0 59.5 -6.5t54 -24.5t39 -27.5t42.5 -37.5l24 -24q5 -5 15.5 -16t15 -15.5t13.5 -12.5t15 -11t14.5 -7.5t17 -6t18.5 -1.5q31 0 48 22t17 60v88h131v-88q0 -95 -51.5 -152t-140.5 -57q-43 0 -81.5 16t-58 31.5t-55.5 48.5l-24 25
l-13.5 13.5l-14 14t-12 11t-13 11t-12 8t-14.5 7t-14 3t-16 1.5q-32 0 -49.5 -21.5t-17.5 -59.5v-89h-131z" />
    <glyph glyph-name="dotaccent.case" horiz-adv-x="0" 
d="M0 1616q-46 0 -78.5 31.5t-32.5 76.5q0 44 32.5 76.5t78.5 32.5q44 0 76.5 -32.5t32.5 -76.5q0 -45 -32 -76.5t-77 -31.5z" />
    <glyph glyph-name="dieresis.case" horiz-adv-x="0" 
d="M-199 1616q-46 0 -78 31t-32 77q0 44 32.5 76.5t77.5 32.5q44 0 76.5 -32.5t32.5 -76.5q0 -45 -32 -76.5t-77 -31.5zM199 1616q-45 0 -77 31.5t-32 76.5q0 44 32.5 76.5t76.5 32.5q45 0 77.5 -32.5t32.5 -76.5q0 -46 -32 -77t-78 -31z" />
    <glyph glyph-name="macron.case" horiz-adv-x="0" 
d="M-317 1657v131h634v-131h-634z" />
    <glyph glyph-name="exclamdown.case" horiz-adv-x="622" 
d="M311 1456q53 0 92 -39t39 -94q0 -52 -39 -89.5t-92 -37.5q-55 0 -93 37t-38 90q0 55 38.5 94t92.5 39zM379 1016l33 -1016h-199l33 1016h133z" />
    <glyph glyph-name="questiondown.case" horiz-adv-x="1042" 
d="M606 1466q54 0 93.5 -39t39.5 -94q0 -52 -39.5 -89.5t-93.5 -37.5t-92.5 37.5t-38.5 89.5q0 55 38.5 94t92.5 39zM676 1026l22 -311q-224 -27 -335 -105t-111 -221q0 -112 73.5 -185t186.5 -73q93 0 163 42.5t136 135.5l152 -96q-172 -244 -459 -244q-185 0 -313 119
t-128 299q0 183 127 300.5t340 154.5l13 184h133z" />
    <glyph glyph-name="hyphen.case" horiz-adv-x="634" 
d="M41 801h553v-168h-553v168z" />
    <glyph glyph-name="guilsinglleft.case" horiz-adv-x="669" 
d="M563 307h-188l-271 406l271 413h188l-268 -413z" />
    <glyph glyph-name="guilsinglright.case" horiz-adv-x="669" 
d="M104 1126h191l270 -405l-270 -414h-191l269 414z" />
    <glyph glyph-name="guillemetleft.case" horiz-adv-x="1085" 
d="M563 307h-188l-271 406l271 413h188l-268 -413zM979 307h-188l-271 406l271 413h188l-268 -413z" />
    <glyph glyph-name="guillemetright.case" horiz-adv-x="1085" 
d="M104 1126h191l270 -405l-270 -414h-191l269 414zM520 1126h191l270 -405l-270 -414h-191l268 414z" />
    <glyph glyph-name="parenleft.case" horiz-adv-x="659" 
d="M262 717q0 -528 344 -869l-127 -104q-187 174 -290 422.5t-103 550.5q0 300 106.5 550.5t286.5 422.5l127 -105q-165 -164 -254.5 -383t-89.5 -485z" />
    <glyph glyph-name="parenright.case" horiz-adv-x="659" 
d="M397 717q0 525 -346 868l127 105q184 -173 288.5 -422.5t104.5 -550.5q0 -302 -104.5 -551t-288.5 -422l-127 104q346 343 346 869z" />
    <glyph glyph-name="braceleft.case" horiz-adv-x="624" 
d="M305 66q0 -74 43.5 -120t116.5 -46h131v-152h-133q-151 0 -237.5 87t-86.5 231q0 61 28.5 146.5t56.5 165t28 126.5q0 63 -26 101t-79 38h-129v152h129q53 0 79 38t26 101q0 47 -28 126t-56.5 164t-28.5 146q0 146 86.5 232t237.5 86h133v-152h-131q-73 0 -116.5 -46
t-43.5 -120q0 -58 57.5 -210t57.5 -226q0 -150 -115 -215q115 -65 115 -215q0 -60 -29 -144t-57.5 -163.5t-28.5 -130.5z" />
    <glyph glyph-name="braceright.case" horiz-adv-x="624" 
d="M322 66q0 51 -29 130t-57.5 162.5t-28.5 143.5q0 147 112 215q-112 65 -112 215q0 74 57.5 227t57.5 211q0 74 -44 120t-118 46h-129v152h131q151 0 238 -86t87 -232q0 -61 -28.5 -146.5t-57 -165t-28.5 -126.5q0 -63 26.5 -100t79.5 -37h127v-154h-127q-53 0 -79.5 -38
t-26.5 -101q0 -47 28.5 -126t57 -164t28.5 -146q0 -144 -87 -231t-238 -87h-131v152h129q74 0 118 46t44 120z" />
    <glyph glyph-name="bracketleft.case" horiz-adv-x="624" 
d="M139 1688h457v-152h-291v-1636h291v-152h-457v1940z" />
    <glyph glyph-name="bracketright.case" horiz-adv-x="624" 
d="M487 -252h-456v152h288v1636h-288v152h456v-1940z" />
    <glyph glyph-name="endash.case" horiz-adv-x="1105" 
d="M43 793h1020v-152h-1020v152z" />
    <glyph glyph-name="emdash.case" horiz-adv-x="2211" 
d="M43 793h2126v-152h-2126v152z" />
    <glyph glyph-name="bullet.case" horiz-adv-x="718" 
d="M362 459q-112 0 -190 77t-78 185q0 105 78 179.5t190 74.5t188.5 -74.5t76.5 -179.5q0 -108 -76.5 -185t-188.5 -77z" />
    <glyph glyph-name="periodcentered.case" horiz-adv-x="552" 
d="M279 588q-54 0 -94 38.5t-40 92.5q0 52 40 90.5t94 38.5t92.5 -38t38.5 -91q0 -54 -38.5 -92.5t-92.5 -38.5z" />
    <glyph glyph-name="at.case" horiz-adv-x="1718" 
d="M479 715q0 153 98 259.5t254 106.5q136 0 234 -98v72h141v-469q0 -54 27.5 -85.5t71.5 -31.5q80 0 131 90t51 238q0 157 -79 286t-220 204t-316 75q-138 0 -258 -51.5t-203.5 -139t-131.5 -205.5t-48 -249q0 -176 80.5 -323.5t227 -235.5t327.5 -88q150 0 265 43.5
t231 146.5l72 -100q-127 -106 -262.5 -153.5t-307.5 -47.5q-166 0 -309.5 61t-242 164t-154.5 241.5t-56 291.5t56.5 291.5t155.5 241.5t244.5 164t313.5 61q162 0 301 -53.5t235.5 -145t151 -216t54.5 -263.5q0 -194 -88 -320.5t-228 -126.5q-75 0 -129.5 31.5t-81.5 87.5
q-99 -119 -256 -119q-156 0 -254 106t-98 259zM633 715q0 -98 61 -165t158 -67q134 0 213 129v203q-85 131 -213 131q-97 0 -158 -65.5t-61 -165.5z" />
    <glyph glyph-name="dollar.lt" 
d="M104 225l127 119q134 -157 310 -182v508q-64 24 -108 44.5t-96.5 55t-84 73t-53 96t-21.5 126.5q0 140 100.5 242.5t262.5 122.5v147h151v-147q242 -26 389 -213l-127 -115q-99 140 -262 172v-477q48 -18 80.5 -31.5t75.5 -35.5t72 -43t60 -52t49 -65t30 -79.5t12 -97.5
q-1 -157 -106 -262t-273 -127v-147h-151v147q-270 21 -437 221zM352 1067q0 -75 49 -124t140 -89v420q-92 -17 -140.5 -71.5t-48.5 -135.5zM899 391q0 81 -53 131t-154 92v-452q100 18 153.5 80t53.5 149z" />
    <glyph glyph-name="Euro.lt" 
d="M43 475v152h172q-2 29 -2 92q0 53 2 78h-172v151h186q39 262 171.5 394.5t342.5 132.5q267 0 422 -209l-139 -109q-108 154 -278 154q-274 0 -330 -363h575v-151h-590q-2 -25 -2 -78q0 -63 2 -92h590v-152h-573q31 -185 114.5 -268.5t213.5 -83.5q171 0 278 153l139 -106
q-153 -211 -422 -211q-209 0 -340 129.5t-172 386.5h-188z" />
    <glyph glyph-name="cent.lt" 
d="M588 1434h151v-168q119 -10 216.5 -65.5t162.5 -143.5l-139 -109q-89 129 -240 150v-774q151 21 240 147l139 -106q-64 -89 -161.5 -144t-217.5 -65v-156h-151v160q-211 33 -338 188t-127 363t127 363t338 188v172zM305 711q0 -140 78 -244t205 -135v758
q-127 -31 -205 -136t-78 -243z" />
    <glyph glyph-name="sterling.lt" 
d="M145 0v166l158 141q88 81 120 133t32 125q0 31 -13 68h-297v149h213q-31 43 -47 68.5t-38 67.5t-31.5 84.5t-8.5 89.5q0 166 115.5 274.5t294.5 108.5q140 0 239 -59t171 -173l-142 -106q-93 170 -260 170q-103 0 -168 -61.5t-65 -164.5q-1 -43 14 -87.5t28.5 -69
t48.5 -76t44 -66.5h448v-149h-380q8 -31 8 -70q-1 -97 -44.5 -172.5t-150.5 -173.5l-57 -51h727v-166h-959z" />
    <glyph glyph-name="yen.lt" 
d="M127 475v152h395v170h-395v151h276l-329 488h217l325 -484l324 482h215l-328 -486h277v-151h-395v-170h395v-152h-395v-475h-187v475h-395z" />
    <glyph glyph-name="zero.lt" 
d="M612 1475q106 0 194 -38t151 -106t106.5 -163t64.5 -208.5t21 -242.5t-21 -242.5t-64.5 -208.5t-106.5 -163t-151 -106t-194 -38q-173 0 -295.5 102t-180.5 270.5t-58 385.5t58 385.5t180.5 270.5t295.5 102zM614 1303q-112 0 -191.5 -77t-118 -208t-38.5 -301t38.5 -301
t118 -208t191.5 -77q111 0 189.5 77t116.5 207.5t38 301.5t-38 301.5t-116.5 207.5t-189.5 77z" />
    <glyph glyph-name="one.lt" 
d="M117 0v166h438v1081l-389 -205l-94 132l483 260h184v-1268h383v-166h-1005z" />
    <glyph glyph-name="two.lt" 
d="M139 0v166l486 500q63 66 91.5 97t65 77t51 76.5t25 71t10.5 85.5q0 110 -71 173t-183 63q-110 0 -188.5 -53t-144.5 -162l-152 92q186 289 500 289q183 0 306.5 -109t123.5 -281q0 -71 -20.5 -136t-66.5 -132.5t-90.5 -119.5t-121.5 -132l-393 -399h731v-166h-959z" />
    <glyph glyph-name="three.lt" 
d="M1110 395q0 -194 -141 -315t-359 -121q-182 0 -310 72.5t-216 218.5l162 100q65 -117 153 -171t209 -54q137 0 224.5 75t87.5 203q0 123 -82.5 199t-221.5 76h-243v166h215q122 0 195 66t73 171q0 106 -71.5 167t-184.5 61q-193 0 -297 -191l-153 94q160 263 462 263
q188 0 310 -104.5t122 -272.5q0 -105 -48.5 -190.5t-139.5 -135.5q122 -50 188 -150t66 -227z" />
    <glyph glyph-name="four.lt" 
d="M82 414v166l674 854h223v-854h166v-166h-166v-414h-184v414h-713zM279 580h516v653z" />
    <glyph glyph-name="five.lt" 
d="M211 680l43 754h788v-166h-612l-24 -420h206q240 0 369 -122.5t129 -326.5q0 -196 -141 -318t-359 -122q-181 0 -309.5 73t-216.5 218l162 100q65 -118 153.5 -171.5t208.5 -53.5q138 0 226 75t88 203q0 126 -84.5 201.5t-233.5 75.5h-393z" />
    <glyph glyph-name="six.lt" 
d="M684 1475q291 0 459 -244l-144 -111q-64 96 -138 141.5t-173 45.5q-188 0 -292.5 -151.5t-112.5 -420.5q160 160 395 160q199 0 327 -131.5t128 -323.5q0 -98 -34.5 -185t-97 -153t-158.5 -104.5t-212 -38.5q-258 0 -398.5 184.5t-140.5 550.5q0 176 37 318.5t109 246
t185.5 160t260.5 56.5zM649 729q-109 0 -202 -46.5t-156 -137.5q43 -418 344 -418q141 0 223 87t82 220q0 125 -83 210t-208 85z" />
    <glyph glyph-name="seven.lt" horiz-adv-x="1226" 
d="M393 0h-213l758 1268h-799v166h996v-166z" />
    <glyph glyph-name="eight.lt" 
d="M614 1475q208 0 330.5 -107.5t122.5 -267.5q0 -108 -54 -190t-155 -126q134 -47 206.5 -148t72.5 -239q0 -191 -141.5 -314.5t-381.5 -123.5q-239 0 -380.5 123.5t-141.5 314.5q0 138 72.5 239t206.5 148q-102 44 -156.5 126t-54.5 190q0 160 122 267.5t332 107.5z
M616 854q115 0 188 64t73 165q0 103 -72.5 167.5t-188.5 64.5q-119 0 -191.5 -64.5t-72.5 -167.5t72 -166t192 -63zM616 121q147 0 238.5 79.5t91.5 205.5q0 128 -91.5 209t-238.5 81q-150 0 -241.5 -81t-91.5 -209t91.5 -206.5t241.5 -78.5z" />
    <glyph glyph-name="nine.lt" 
d="M541 -41q-294 0 -459 244l143 110q64 -96 138.5 -141t173.5 -45q190 0 294.5 151t112.5 422q-158 -161 -397 -161q-198 0 -325.5 131t-127.5 323q0 98 34 185t96.5 153.5t159 105t212.5 38.5q257 0 398 -185t141 -551q0 -176 -37 -318.5t-110 -246t-186.5 -159.5
t-260.5 -56zM285 999q0 -125 82.5 -209.5t207.5 -84.5q111 0 205 47t156 139q-22 216 -112.5 316t-233.5 100q-139 0 -222 -87.5t-83 -220.5z" />
    <glyph glyph-name="dollar.ot" horiz-adv-x="1230" 
d="M127 209l115 119q134 -137 315 -168v338q-61 13 -105 26t-94.5 37t-82 54t-53 77.5t-21.5 106.5q0 129 94 220t262 103v129h152v-135q113 -20 211.5 -71t156.5 -117l-110 -117q-106 116 -258 154v-326q64 -13 110 -26.5t97 -38.5t82 -56.5t52 -81t21 -112.5
q-2 -136 -98.5 -224t-263.5 -98v-127h-152v133q-125 15 -238 67.5t-192 133.5zM373 811q0 -58 47 -88.5t137 -52.5v305q-91 -11 -137.5 -56.5t-46.5 -107.5zM899 313q0 64 -48 98.5t-142 55.5v-315q90 9 140 52t50 109z" />
    <glyph glyph-name="Euro.ot" horiz-adv-x="1230" 
d="M41 348v148h141q-2 23 -2 67q0 37 2 55h-141v148h164q50 186 187 292.5t337 106.5q137 0 250.5 -52t183.5 -140l-135 -107q-107 133 -299 133q-119 0 -206 -60.5t-128 -172.5h600v-148h-630q-3 -27 -3 -55q0 -17 5 -67h628v-148h-596q43 -107 129 -165t203 -58
q191 0 297 135l135 -106q-70 -88 -184 -141.5t-250 -53.5q-197 0 -332.5 104t-187.5 285h-168z" />
    <glyph glyph-name="cent.ot" 
d="M584 1264h153v-142q120 -10 218.5 -65t164.5 -144l-141 -104q-41 60 -103.5 98t-138.5 47v-784q75 9 138.5 47.5t103.5 97.5l141 -104q-66 -89 -164 -144t-219 -65v-145h-153v151q-211 33 -339 190t-128 365q0 207 128 363.5t339 189.5v148zM299 563q0 -140 78 -245.5
t207 -139.5v768q-129 -34 -207 -139.5t-78 -243.5z" />
    <glyph glyph-name="sterling.ot" horiz-adv-x="1230" 
d="M141 0v166h2l140 96q89 62 121 100t32 82q0 21 -6 39h-287v148h172q-84 104 -84 209q0 142 116.5 234.5t291.5 92.5q303 -3 469 -262l-150 -94q-65 96 -137 143t-172 47q-102 0 -166.5 -51t-64.5 -135q0 -35 16.5 -71t32 -55.5t49.5 -57.5h490v-148h-396q4 -24 4 -41
q0 -71 -41.5 -127.5t-146.5 -130.5l-27 -18h707v-166h-965z" />
    <glyph glyph-name="yen.ot" horiz-adv-x="1230" 
d="M125 348v148h401v122h-401v148h266l-299 362h219l303 -362h7l301 360h215l-297 -360h266v-148h-397v-122h397v-148h-397v-348h-183v348h-401z" />
    <glyph glyph-name="zero.ot" 
d="M612 1167q168 0 296.5 -82.5t194.5 -219t66 -302.5t-66 -302.5t-194.5 -219t-296.5 -82.5q-167 0 -294.5 82.5t-193 219t-65.5 302.5t65.5 302.5t193 219t294.5 82.5zM614 131q161 0 263 123t102 309q0 188 -102 310t-263 122q-164 0 -265 -122t-101 -310
q0 -187 101 -309.5t265 -122.5z" />
    <glyph glyph-name="one.ot" 
d="M158 0v166h405v770l-356 -203l-94 133l450 260h185v-960h350v-166h-940z" />
    <glyph glyph-name="two.ot" 
d="M166 0v166l436 332q132 106 165 139q68 69 76 145q1 14 1 29q0 88 -68 139t-174 51q-102 0 -175 -47.5t-136 -142.5l-152 94q169 262 463 262q189 0 308.5 -95t119.5 -249q0 -69 -17 -123.5t-61 -108.5t-95.5 -99.5t-143.5 -114.5l-285 -211h655v-166h-917z" />
    <glyph glyph-name="three.ot" 
d="M1110 88q0 -194 -141 -315t-359 -121q-182 0 -310 72.5t-216 218.5l162 100q65 -117 153 -171t209 -54q137 0 224.5 75t87.5 203q0 123 -82.5 199t-221.5 76h-243v166h215q122 0 195 66t73 171q0 106 -71.5 166.5t-184.5 60.5q-194 0 -297 -190l-153 94q159 262 462 262
q188 0 310 -104t122 -272q0 -105 -48.5 -190.5t-139.5 -135.5q122 -50 188 -150t66 -227z" />
    <glyph glyph-name="four.ot" 
d="M82 106v166l674 854h223v-854h166v-166h-166v-413h-184v413h-713zM279 272h516v654z" />
    <glyph glyph-name="five.ot" 
d="M211 373l43 753h788v-165h-612l-24 -420h206q240 0 369 -122.5t129 -326.5q0 -196 -141 -318t-359 -122q-181 0 -309.5 73t-216.5 218l162 100q65 -118 153.5 -171.5t208.5 -53.5q138 0 226 75t88 203q0 126 -84.5 201.5t-233.5 75.5h-393z" />
    <glyph glyph-name="six.ot" 
d="M684 1475q291 0 459 -244l-144 -111q-64 96 -138 141.5t-173 45.5q-188 0 -292.5 -151.5t-112.5 -420.5q160 160 395 160q199 0 327 -131.5t128 -323.5q0 -98 -34.5 -185t-97 -153t-158.5 -104.5t-212 -38.5q-258 0 -398.5 184.5t-140.5 550.5q0 176 37 318.5t109 246
t185.5 160t260.5 56.5zM649 729q-109 0 -202 -46.5t-156 -137.5q43 -418 344 -418q141 0 223 87t82 220q0 125 -83 210t-208 85z" />
    <glyph glyph-name="seven.ot" 
d="M393 -307h-213l758 1268h-799v165h996v-165z" />
    <glyph glyph-name="eight.ot" 
d="M614 1475q208 0 330.5 -107.5t122.5 -267.5q0 -108 -54 -190t-155 -126q134 -47 206.5 -148t72.5 -239q0 -191 -141.5 -314.5t-381.5 -123.5q-239 0 -380.5 123.5t-141.5 314.5q0 138 72.5 239t206.5 148q-102 44 -156.5 126t-54.5 190q0 160 122 267.5t332 107.5z
M616 854q115 0 188 64t73 165q0 103 -72.5 167.5t-188.5 64.5q-119 0 -191.5 -64.5t-72.5 -167.5t72 -166t192 -63zM616 121q147 0 238.5 79.5t91.5 205.5q0 128 -91.5 209t-238.5 81q-150 0 -241.5 -81t-91.5 -209t91.5 -206.5t241.5 -78.5z" />
    <glyph glyph-name="nine.ot" 
d="M541 -348q-294 0 -459 244l143 110q64 -96 138.5 -141t173.5 -45q190 0 294.5 151t112.5 422q-159 -162 -397 -162q-198 0 -325.5 131.5t-127.5 323.5q0 132 58 240t174 174.5t270 66.5q258 0 398.5 -184.5t140.5 -550.5q0 -176 -37 -318.5t-110 -246t-186.5 -159.5
t-260.5 -56zM285 692q0 -125 82.5 -210t207.5 -85q111 0 205 47.5t156 139.5q-43 415 -346 415q-139 0 -222 -87.5t-83 -219.5z" />
    <glyph glyph-name="Euro.op" 
d="M41 348v148h141q-2 23 -2 67q0 37 2 55h-141v148h164q50 186 187 292.5t337 106.5q137 0 250.5 -52t183.5 -140l-135 -107q-107 133 -299 133q-119 0 -206 -60.5t-128 -172.5h600v-148h-630q-3 -27 -3 -55q0 -17 5 -67h628v-148h-596q43 -107 129 -165t203 -58
q191 0 297 135l135 -106q-70 -88 -184 -141.5t-250 -53.5q-197 0 -332.5 104t-187.5 285h-168z" />
    <glyph glyph-name="dollar.op" horiz-adv-x="1230" 
d="M127 209l115 119q134 -137 315 -168v338q-61 13 -105 26t-94.5 37t-82 54t-53 77.5t-21.5 106.5q0 129 94 220t262 103v129h152v-135q113 -20 211.5 -71t156.5 -117l-110 -117q-106 116 -258 154v-326q64 -13 110 -26.5t97 -38.5t82 -56.5t52 -81t21 -112.5
q-2 -136 -98.5 -224t-263.5 -98v-127h-152v133q-125 15 -238 67.5t-192 133.5zM373 811q0 -58 47 -88.5t137 -52.5v305q-91 -11 -137.5 -56.5t-46.5 -107.5zM899 313q0 64 -48 98.5t-142 55.5v-315q90 9 140 52t50 109z" />
    <glyph glyph-name="cent.op" 
d="M584 1264h153v-142q120 -10 218.5 -65t164.5 -144l-141 -104q-41 60 -103.5 98t-138.5 47v-784q75 9 138.5 47.5t103.5 97.5l141 -104q-66 -89 -164 -144t-219 -65v-145h-153v151q-211 33 -339 190t-128 365q0 207 128 363.5t339 189.5v148zM299 563q0 -140 78 -245.5
t207 -139.5v768q-129 -34 -207 -139.5t-78 -243.5z" />
    <glyph glyph-name="sterling.op" horiz-adv-x="1230" 
d="M141 0v166h2l140 96q89 62 121 100t32 82q0 21 -6 39h-287v148h172q-84 104 -84 209q0 142 116.5 234.5t291.5 92.5q303 -3 469 -262l-150 -94q-65 96 -137 143t-172 47q-102 0 -166.5 -51t-64.5 -135q0 -35 16.5 -71t32 -55.5t49.5 -57.5h490v-148h-396q4 -24 4 -41
q0 -71 -41.5 -127.5t-146.5 -130.5l-27 -18h707v-166h-965z" />
    <glyph glyph-name="yen.op" 
d="M125 348v148h401v122h-401v148h266l-299 362h219l303 -362h7l301 360h215l-297 -360h266v-148h-397v-122h397v-148h-397v-348h-183v348h-401z" />
    <glyph glyph-name="zero.op" 
d="M612 1167q168 0 296.5 -82.5t194.5 -219t66 -302.5t-66 -302.5t-194.5 -219t-296.5 -82.5q-167 0 -294.5 82.5t-193 219t-65.5 302.5t65.5 302.5t193 219t294.5 82.5zM614 131q161 0 263 123t102 309q0 188 -102 310t-263 122q-164 0 -265 -122t-101 -310
q0 -187 101 -309.5t265 -122.5z" />
    <glyph glyph-name="one.op" horiz-adv-x="946" 
d="M485 0v938l-354 -193l-94 134l446 247h185v-1126h-183z" />
    <glyph glyph-name="two.op" 
d="M166 0v166l436 332q132 106 165 139q68 69 76 145q1 14 1 29q0 88 -68 139t-174 51q-102 0 -175 -47.5t-136 -142.5l-152 94q169 262 463 262q189 0 308.5 -95t119.5 -249q0 -69 -17 -123.5t-61 -108.5t-95.5 -99.5t-143.5 -114.5l-285 -211h655v-166h-917z" />
    <glyph glyph-name="three.op" 
d="M1110 88q0 -194 -141 -315t-359 -121q-182 0 -310 72.5t-216 218.5l162 100q65 -117 153 -171t209 -54q137 0 224.5 75t87.5 203q0 123 -82.5 199t-221.5 76h-243v166h215q122 0 195 66t73 171q0 106 -71.5 166.5t-184.5 60.5q-194 0 -297 -190l-153 94q159 262 462 262
q188 0 310 -104t122 -272q0 -105 -48.5 -190.5t-139.5 -135.5q122 -50 188 -150t66 -227z" />
    <glyph glyph-name="four.op" 
d="M82 106v166l674 854h223v-854h166v-166h-166v-413h-184v413h-713zM279 272h516v654z" />
    <glyph glyph-name="five.op" 
d="M211 373l43 753h788v-165h-612l-24 -420h206q240 0 369 -122.5t129 -326.5q0 -196 -141 -318t-359 -122q-181 0 -309.5 73t-216.5 218l162 100q65 -118 153.5 -171.5t208.5 -53.5q138 0 226 75t88 203q0 126 -84.5 201.5t-233.5 75.5h-393z" />
    <glyph glyph-name="six.op" 
d="M684 1475q291 0 459 -244l-144 -111q-64 96 -138 141.5t-173 45.5q-188 0 -292.5 -151.5t-112.5 -420.5q160 160 395 160q199 0 327 -131.5t128 -323.5q0 -98 -34.5 -185t-97 -153t-158.5 -104.5t-212 -38.5q-258 0 -398.5 184.5t-140.5 550.5q0 176 37 318.5t109 246
t185.5 160t260.5 56.5zM649 729q-109 0 -202 -46.5t-156 -137.5q43 -418 344 -418q141 0 223 87t82 220q0 125 -83 210t-208 85z" />
    <glyph glyph-name="seven.op" 
d="M393 -307h-213l758 1268h-799v165h996v-165z" />
    <glyph glyph-name="eight.op" 
d="M614 1475q208 0 330.5 -107.5t122.5 -267.5q0 -108 -54 -190t-155 -126q134 -47 206.5 -148t72.5 -239q0 -191 -141.5 -314.5t-381.5 -123.5q-239 0 -380.5 123.5t-141.5 314.5q0 138 72.5 239t206.5 148q-102 44 -156.5 126t-54.5 190q0 160 122 267.5t332 107.5z
M616 854q115 0 188 64t73 165q0 103 -72.5 167.5t-188.5 64.5q-119 0 -191.5 -64.5t-72.5 -167.5t72 -166t192 -63zM616 121q147 0 238.5 79.5t91.5 205.5q0 128 -91.5 209t-238.5 81q-150 0 -241.5 -81t-91.5 -209t91.5 -206.5t241.5 -78.5z" />
    <glyph glyph-name="nine.op" 
d="M541 -348q-294 0 -459 244l143 110q64 -96 138.5 -141t173.5 -45q190 0 294.5 151t112.5 422q-159 -162 -397 -162q-198 0 -325.5 131.5t-127.5 323.5q0 132 58 240t174 174.5t270 66.5q258 0 398.5 -184.5t140.5 -550.5q0 -176 -37 -318.5t-110 -246t-186.5 -159.5
t-260.5 -56zM285 692q0 -125 82.5 -210t207.5 -85q111 0 205 47.5t156 139.5q-43 415 -346 415q-139 0 -222 -87.5t-83 -219.5z" />
    <glyph glyph-name="dollar.weight" 
d="M104 225l127 119q159 -188 383 -188q136 0 210.5 65.5t74.5 169.5q0 52 -24.5 93.5t-66.5 69t-96 51t-114 45t-119.5 45t-113.5 56t-96 73.5t-66.5 102.5t-24.5 138.5q0 140 100.5 242.5t262.5 122.5v147h151v-147q242 -26 389 -213l-127 -115q-126 178 -340 178
q-126 0 -194 -58t-68 -155q0 -58 31 -103t81.5 -72t115 -54t132 -49t132 -56.5t115 -76t81.5 -109.5t31 -154q-1 -157 -106 -262t-273 -127v-147h-151v147q-270 21 -437 221z" />
    <glyph glyph-name="cent.weight" 
d="M686 328q93 0 168.5 40.5t124.5 110.5l139 -106q-64 -89 -161.5 -144t-217.5 -65v-164h-151v168q-211 33 -338 188t-127 363t127 363t338 188v164h151v-160q119 -10 216.5 -65.5t162.5 -143.5l-139 -109q-49 71 -124.5 112.5t-168.5 41.5q-166 0 -273.5 -112.5
t-107.5 -278.5q0 -167 107.5 -279t273.5 -112z" />
    <glyph glyph-name="dollar.lt.weight" 
d="M104 225l127 119q159 -188 383 -188q136 0 210.5 65.5t74.5 169.5q0 52 -24.5 93.5t-66.5 69t-96 51t-114 45t-119.5 45t-113.5 56t-96 73.5t-66.5 102.5t-24.5 138.5q0 140 100.5 242.5t262.5 122.5v147h151v-147q242 -26 389 -213l-127 -115q-126 178 -340 178
q-126 0 -194 -58t-68 -155q0 -58 31 -103t81.5 -72t115 -54t132 -49t132 -56.5t115 -76t81.5 -109.5t31 -154q-1 -157 -106 -262t-273 -127v-147h-151v147q-270 21 -437 221z" />
    <glyph glyph-name="cent.lt.weight" 
d="M686 328q93 0 168.5 40.5t124.5 110.5l139 -106q-64 -89 -161.5 -144t-217.5 -65v-164h-151v168q-211 33 -338 188t-127 363t127 363t338 188v164h151v-160q119 -10 216.5 -65.5t162.5 -143.5l-139 -109q-49 71 -124.5 112.5t-168.5 41.5q-166 0 -273.5 -112.5
t-107.5 -278.5q0 -167 107.5 -279t273.5 -112z" />
    <glyph glyph-name="dollar.op.weight" horiz-adv-x="1230" 
d="M127 209l115 119q84 -86 194 -132t226 -46q111 0 174 44.5t63 118.5q0 33 -14 58.5t-35 42t-59.5 30t-72.5 21.5t-89 18q-55 11 -85.5 17.5t-82.5 20.5t-82.5 28.5t-68.5 39t-59 52.5t-35.5 69t-14.5 89q0 129 94 220t262 103v129h154v-137q113 -18 211 -69t155 -117
l-110 -117q-66 74 -163 120t-196 46q-115 0 -175 -47.5t-60 -118.5q0 -51 44 -84t87 -44.5t141 -30.5q9 -2 14 -3q53 -10 87.5 -18t82 -22t78.5 -30t65 -40.5t53.5 -54t32.5 -70.5t13 -90q-2 -135 -98.5 -223.5t-261.5 -98.5v-127h-154v133q-125 15 -238 67.5t-192 133.5z
" />
    <glyph glyph-name="Euro.op.weight" 
d="M39 483v148h143q19 242 165.5 388t381.5 146q137 0 248 -56t186 -155l-143 -104q-47 69 -122.5 109t-168.5 40q-152 0 -248.5 -97t-113.5 -271h626v-148h-626q20 -169 117 -263.5t247 -94.5q92 0 167 40.5t122 110.5l143 -106q-75 -99 -186 -155t-248 -56
q-232 0 -377.5 142.5t-167.5 381.5h-145z" />
    <glyph glyph-name="cent.op.weight" horiz-adv-x="1230" 
d="M696 166q92 0 167 40t122 109l143 -104q-68 -90 -166.5 -145t-218.5 -64v-145h-153v151q-211 35 -338 191t-127 364q0 207 127 362.5t338 190.5v148h153v-142q120 -10 218.5 -65t166.5 -144l-143 -104q-47 69 -123.5 109t-169.5 40q-167 0 -276 -114.5t-109 -280.5
q0 -168 109.5 -282.5t279.5 -114.5z" />
    <glyph glyph-name="yen.op.weight" 
d="M123 483v148h330l-361 497h217l307 -444l308 442h215l-359 -495h326v-148h-397v-483h-183v483h-403z" />
    <glyph glyph-name="dollar.ot.weight" horiz-adv-x="1230" 
d="M125 209l115 119q84 -86 193.5 -132t225.5 -46q111 0 174.5 44.5t63.5 118.5q0 33 -14 58.5t-35 42t-59.5 30t-72.5 21.5t-89 18q-55 11 -85.5 17.5t-82.5 20.5t-82.5 28.5t-68.5 39t-59 52.5t-35.5 69t-14.5 89q0 129 94 220t262 103v129h154v-137q113 -18 211 -69
t155 -117l-110 -117q-66 74 -163 120t-196 46q-115 0 -175 -47.5t-60 -118.5q0 -51 44 -84t87 -44.5t141 -30.5q9 -2 14 -3q53 -10 87.5 -18t82 -22t78.5 -30t65 -40.5t53.5 -54t32.5 -70.5t13 -90q-2 -135 -98.5 -223.5t-261.5 -98.5v-127h-154v133q-125 15 -238 67.5
t-192 133.5z" />
    <glyph glyph-name="Euro.ot.weight" 
d="M37 483v148h143q19 242 165.5 388t381.5 146q137 0 248 -56t186 -155l-143 -104q-47 69 -122.5 109t-168.5 40q-152 0 -248.5 -97t-113.5 -271h626v-148h-626q20 -169 117 -263.5t247 -94.5q92 0 167 40.5t122 110.5l143 -106q-75 -99 -186 -155t-248 -56
q-232 0 -377.5 142.5t-167.5 381.5h-145z" />
    <glyph glyph-name="cent.ot.weight" horiz-adv-x="1230" 
d="M694 166q92 0 167 40t122 109l143 -104q-68 -90 -166.5 -145t-218.5 -64v-145h-153v151q-211 35 -338 191t-127 364q0 207 127 362.5t338 190.5v148h153v-142q120 -10 218.5 -65t166.5 -144l-143 -104q-47 69 -123.5 109t-169.5 40q-167 0 -276 -114.5t-109 -280.5
q0 -168 109.5 -282.5t279.5 -114.5z" />
    <glyph glyph-name="yen.ot.weight" 
d="M121 483v148h330l-361 497h217l307 -444l308 442h215l-359 -495h326v-148h-397v-483h-183v483h-403z" />
    <glyph glyph-name="a.superior" horiz-adv-x="735" 
d="M293 805q-93 0 -151 50.5t-58 135.5q0 74 55.5 125t155.5 66l197 32v33q0 58 -38 91.5t-100 33.5q-99 0 -153 -82l-99 74q91 125 256 125q124 0 194.5 -67.5t70.5 -174.5v-418h-131v72q-32 -44 -85.5 -70t-113.5 -26zM213 993q0 -38 27.5 -61t76.5 -23q110 0 175 105v106
l-164 -26q-115 -17 -115 -101z" />
    <glyph glyph-name="b.superior" horiz-adv-x="868" 
d="M793 1147q0 -143 -89 -242.5t-235 -99.5q-126 0 -213 84v-60h-129v945h129v-371q86 86 213 86q146 0 235 -99.5t89 -242.5zM258 1036q69 -108 195 -108q91 0 147.5 62t56.5 157q0 94 -56.5 156.5t-147.5 62.5q-126 0 -195 -111l-2 2v-223z" />
    <glyph glyph-name="c.superior" horiz-adv-x="761" 
d="M422 928q105 0 164 86l104 -82q-96 -127 -268 -127q-155 0 -250.5 99.5t-95.5 242.5t95.5 242.5t250.5 99.5q84 0 153 -34.5t115 -94.5l-104 -80q-59 86 -164 86q-91 0 -150 -63t-59 -156q0 -94 58.5 -156.5t150.5 -62.5z" />
    <glyph glyph-name="d.superior" horiz-adv-x="868" 
d="M76 1147q0 143 89.5 242.5t235.5 99.5q128 0 211 -86v371h131v-945h-131v60q-84 -84 -211 -84q-146 0 -235.5 99.5t-89.5 242.5zM213 1147q0 -95 56.5 -157t146.5 -62q126 0 196 106v223q-71 109 -196 109q-90 0 -146.5 -62.5t-56.5 -156.5z" />
    <glyph glyph-name="e.superior" horiz-adv-x="780" 
d="M698 932q-45 -60 -116 -93.5t-158 -33.5q-159 0 -253.5 99t-94.5 243q0 147 86 244.5t231 97.5q132 0 212.5 -79t80.5 -202q0 -45 -10 -78h-467q5 -95 63.5 -151.5t155.5 -56.5q114 0 176 86zM397 1378q-143 0 -178 -147h336q-2 61 -44.5 104t-113.5 43z" />
    <glyph glyph-name="egrave.superior" horiz-adv-x="780" 
d="M334 1565l-150 209h146l129 -209h-125zM698 932q-45 -60 -116 -93.5t-158 -33.5q-159 0 -253.5 99t-94.5 243q0 147 87 244.5t234 97.5q129 0 209 -79t80 -202q0 -45 -10 -78h-463q3 -94 62 -151t153 -57q114 0 176 86zM399 1378q-141 0 -176 -147h332q-2 61 -44.5 104
t-111.5 43z" />
    <glyph glyph-name="f.superior" horiz-adv-x="538" 
d="M45 1464h119v72q0 103 64 170.5t171 67.5q103 0 168 -62l-82 -94q-29 37 -84 37q-46 0 -76 -31.5t-30 -83.5v-76h211v-118h-211v-517h-131v517h-119v118z" />
    <glyph glyph-name="g.superior" horiz-adv-x="757" 
d="M72 711q0 94 100 159q-49 39 -49 97q0 70 74 120q-43 31 -67 78t-24 101q0 95 68 159t182 64q68 0 123 -25h236v-112h-123q16 -43 16 -86q0 -96 -68.5 -161t-183.5 -65q-23 0 -75 9q-31 -22 -31 -50q0 -43 51 -43h166q119 0 182.5 -54.5t63.5 -141.5q0 -108 -91.5 -177
t-240.5 -69q-142 0 -225.5 52t-83.5 145zM358 1143q58 0 93.5 35.5t35.5 87.5t-35 86t-94 34q-60 0 -95.5 -34.5t-35.5 -85.5q0 -53 35.5 -88t95.5 -35zM201 733q0 -52 48.5 -81t135.5 -29q90 0 141.5 32t51.5 88q0 97 -129 97h-181q-67 -42 -67 -107z" />
    <glyph glyph-name="h.superior" horiz-adv-x="817" 
d="M127 829v945h129v-373q85 88 201 88q110 0 179 -73.5t69 -205.5v-381h-132v377q0 74 -39.5 117t-105.5 43q-104 0 -172 -109v-428h-129z" />
    <glyph glyph-name="j.superior" horiz-adv-x="382" 
d="M190 1597q-37 0 -62.5 26t-25.5 63q0 36 26 62t62 26q35 0 62 -26.5t27 -61.5q0 -36 -26.5 -62.5t-62.5 -26.5zM256 754q0 -240 -225 -240q-69 0 -115 21v114q40 -14 94 -14q57 0 87 27.5t30 91.5v710h129v-710z" />
    <glyph glyph-name="k.superior" horiz-adv-x="716" 
d="M115 829v881h133v-520l268 274h164l-262 -266l266 -369h-162l-198 275l-76 -78v-197h-133z" />
    <glyph glyph-name="l.superior" horiz-adv-x="382" 
d="M127 829v945h129v-945h-129z" />
    <glyph glyph-name="m.superior" horiz-adv-x="1210" 
d="M127 829v635h129v-61q79 86 188 86q143 0 205 -121q90 121 217 121q103 0 168.5 -69.5t65.5 -196.5v-394h-131v390q0 69 -35.5 108t-97.5 39q-99 0 -158 -106q2 -12 2 -37v-394h-133v390q0 69 -35.5 108t-97.5 39q-94 0 -158 -109v-428h-129z" />
    <glyph glyph-name="o.superior" horiz-adv-x="841" 
d="M422 1489q151 0 247.5 -99.5t96.5 -242.5t-96.5 -242.5t-247.5 -99.5q-152 0 -249 99.5t-97 242.5t97 242.5t249 99.5zM422 928q88 0 147.5 63.5t59.5 155.5q0 93 -59 156t-148 63q-91 0 -150 -63t-59 -156t59 -156t150 -63z" />
    <glyph glyph-name="p.superior" horiz-adv-x="868" 
d="M127 520v944h129v-61q86 86 213 86q146 0 235 -99.5t89 -242.5t-89 -242.5t-235 -99.5q-126 0 -213 84v-369h-129zM258 1036q69 -108 195 -108q91 0 147.5 62t56.5 157q0 94 -56.5 156.5t-147.5 62.5q-126 0 -195 -111l-2 2v-223z" />
    <glyph glyph-name="q.superior" horiz-adv-x="868" 
d="M743 520h-131v369q-87 -84 -213 -84q-145 0 -234 99.5t-89 242.5t89 242.5t234 99.5q127 0 213 -86v61h131v-944zM211 1147q0 -95 57.5 -157t147.5 -62q123 0 196 108v219q-72 111 -196 111q-90 0 -147.5 -63t-57.5 -156z" />
    <glyph glyph-name="r.superior" horiz-adv-x="534" 
d="M127 829v635h129v-73q79 86 178 86q22 0 53 -9v-135q-36 8 -65 8q-106 0 -166 -96v-416h-129z" />
    <glyph glyph-name="s.superior" horiz-adv-x="606" 
d="M63 918l89 79q73 -86 155 -86q44 0 70 24t26 60q0 33 -31.5 57t-77 42t-90.5 40t-76.5 65t-31.5 104q0 80 61 133t154 53q68 0 127.5 -29.5t96.5 -75.5l-91 -79q-53 75 -133 75q-42 0 -65 -19.5t-23 -53.5q0 -24 17 -43t43.5 -32.5t59.5 -26t65.5 -29.5t59 -38
t43.5 -55.5t17 -78.5q-1 -91 -64 -145t-155 -54q-151 0 -246 113z" />
    <glyph glyph-name="t.superior" horiz-adv-x="581" 
d="M164 1049v297h-119v118h119v158h131v-158h211v-118h-211v-297q0 -113 115 -113q56 0 96 14v-114q-49 -19 -115 -19q-227 0 -227 232z" />
    <glyph glyph-name="u.superior" horiz-adv-x="798" 
d="M557 1102v362h131v-356q0 -142 -77.5 -222.5t-211.5 -80.5t-210 80.5t-76 222.5v356h131v-362q0 -83 41 -128.5t116 -45.5q73 0 114.5 45.5t41.5 128.5z" />
    <glyph glyph-name="v.superior" horiz-adv-x="716" 
d="M33 1464h139l186 -493l187 493h139l-240 -635h-172z" />
    <glyph glyph-name="w.superior" horiz-adv-x="1048" 
d="M47 1464h131l123 -499l133 499h178l136 -497l122 497h129l-155 -635h-182l-138 504l-139 -504h-182z" />
    <glyph glyph-name="x.superior" horiz-adv-x="724" 
d="M195 829h-148l234 328l-218 307h144l155 -223l156 223h144l-218 -307l232 -328h-144l-170 242z" />
    <glyph glyph-name="y.superior" horiz-adv-x="737" 
d="M377 680q-69 -166 -230 -166q-55 0 -106 21v116q37 -16 80 -16q49 0 82 21t55 73l43 102l-268 633h145l193 -463l194 463h140z" />
    <glyph glyph-name="z.superior" horiz-adv-x="681" 
d="M80 829v119l352 398h-342v118h504v-118l-352 -398h360v-119h-522z" />
    <glyph glyph-name="zero.numr" horiz-adv-x="796" 
d="M397 1458q162 0 248 -129.5t86 -335.5t-86 -335.5t-248 -129.5t-248 129.5t-86 335.5t86 335.5t248 129.5zM397 1331q-92 0 -141 -92.5t-49 -245.5q0 -154 48.5 -246t141.5 -92q92 0 141.5 92.5t49.5 245.5q0 154 -49 246t-142 92z" />
    <glyph glyph-name="one.numr" horiz-adv-x="796" 
d="M121 553v125h241v614l-217 -116l-69 100l291 158h135v-756h217v-125h-598z" />
    <glyph glyph-name="two.numr" horiz-adv-x="796" 
d="M100 553v125l301 303q5 5 27 28.5t26.5 28.5t21 24.5t20.5 27t14 24.5t13 28.5t6 28t3 33.5q0 60 -39 95.5t-102 35.5t-108 -33t-84 -98l-113 70q115 184 313 184q120 0 197.5 -67.5t77.5 -176.5q0 -46 -12.5 -87t-40.5 -81t-52.5 -68t-68.5 -73l-232 -227h430v-125h-598
z" />
    <glyph glyph-name="three.numr" horiz-adv-x="796" 
d="M709 801q0 -124 -88 -198.5t-228 -74.5q-225 0 -332 179l121 75q38 -68 89 -99.5t122 -31.5q75 0 123.5 41.5t48.5 112.5q0 69 -46.5 111t-125.5 42h-147v123h131q67 0 108 36t41 93q0 59 -38.5 92t-100.5 33q-110 0 -170 -108l-115 67q99 164 293 164q120 0 196.5 -64
t76.5 -169q0 -132 -109 -197q72 -34 111 -93.5t39 -133.5z" />
    <glyph glyph-name="four.numr" horiz-adv-x="796" 
d="M494 553v246h-414v116l387 519h164v-519h96v-116h-96v-246h-137zM223 915h271v361z" />
    <glyph glyph-name="five.numr" horiz-adv-x="796" 
d="M145 961l27 473h504v-125h-371l-14 -226h102q148 0 234 -75.5t86 -202.5t-88 -202t-226 -75q-226 0 -333 179l122 75q70 -131 211 -131q75 0 123.5 41.5t48.5 112.5t-48.5 112t-135.5 41h-166z" />
    <glyph glyph-name="six.numr" horiz-adv-x="796" 
d="M446 1458q190 0 295 -145l-106 -86q-74 106 -186 106q-108 0 -164.5 -83.5t-61.5 -241.5q91 102 236 102q124 0 200 -81t76 -202q0 -127 -84.5 -213t-228.5 -86q-165 0 -253.5 116t-88.5 339q0 221 92.5 348t273.5 127zM430 987q-128 0 -201 -104q25 -230 193 -230
q79 0 124.5 48t45.5 122q0 70 -45.5 117t-116.5 47z" />
    <glyph glyph-name="seven.numr" horiz-adv-x="794" 
d="M287 553h-168l448 756h-465v125h621v-125z" />
    <glyph glyph-name="eight.numr" horiz-adv-x="796" 
d="M397 1458q134 0 210.5 -66.5t76.5 -166.5q0 -61 -32 -112t-93 -81q79 -30 122.5 -92t43.5 -141q0 -119 -87.5 -195t-240.5 -76q-152 0 -239.5 76t-87.5 195q0 79 43.5 141t122.5 92q-61 30 -93 81t-32 112q0 99 76.5 166t209.5 67zM399 1085q63 0 103.5 35t40.5 92
t-40.5 92t-103.5 35q-67 0 -106 -34.5t-39 -92.5q0 -59 39 -93t106 -34zM399 649q83 0 134 43t51 113q0 71 -51 116.5t-134 45.5q-84 0 -135 -45.5t-51 -116.5t50.5 -113.5t135.5 -42.5z" />
    <glyph glyph-name="nine.numr" horiz-adv-x="796" 
d="M360 528q-189 0 -292 146l104 86q40 -54 84 -80.5t104 -26.5q108 0 164.5 84t61.5 244q-90 -104 -236 -104q-125 0 -200.5 80.5t-75.5 201.5q0 127 84 213t229 86q165 0 252.5 -115.5t87.5 -338.5q0 -221 -93 -348.5t-274 -127.5zM215 1163q0 -70 46 -117t116 -47
q129 0 203 105q-25 229 -193 229q-80 0 -126 -48t-46 -122z" />
    <glyph glyph-name="zero.dnom" horiz-adv-x="796" 
d="M397 905q162 0 248 -129.5t86 -335.5t-86 -335.5t-248 -129.5t-248 129.5t-86 335.5t86 335.5t248 129.5zM397 778q-92 0 -141 -92.5t-49 -245.5q0 -154 48.5 -246t141.5 -92q92 0 141.5 92.5t49.5 245.5q0 154 -49 246t-142 92z" />
    <glyph glyph-name="one.dnom" horiz-adv-x="796" 
d="M121 0v125h241v614l-217 -116l-69 100l291 158h135v-756h217v-125h-598z" />
    <glyph glyph-name="two.dnom" horiz-adv-x="796" 
d="M100 0v125l301 303q5 5 27 28.5t26.5 28.5t21 24.5t20.5 27t14 24.5t13 28.5t6 28t3 33.5q0 60 -39 95.5t-102 35.5t-108 -33t-84 -98l-113 70q115 184 313 184q120 0 197.5 -67t77.5 -176q0 -86 -43 -153t-131 -157l-232 -227h430v-125h-598z" />
    <glyph glyph-name="three.dnom" horiz-adv-x="796" 
d="M709 248q0 -124 -88 -198.5t-228 -74.5q-225 0 -332 179l121 75q38 -68 89 -99.5t122 -31.5q75 0 123.5 41.5t48.5 112.5q0 70 -46.5 112t-125.5 42h-147v122h131q67 0 108 36t41 93q0 59 -38.5 92t-100.5 33q-110 0 -170 -108l-115 67q99 164 293 164q120 0 196.5 -64
t76.5 -169q0 -132 -109 -197q72 -34 111 -93.5t39 -133.5z" />
    <glyph glyph-name="four.dnom" horiz-adv-x="796" 
d="M80 246v116l387 519h164v-519h96v-116h-96v-246h-137v246h-414zM223 362h271v361z" />
    <glyph glyph-name="five.dnom" horiz-adv-x="796" 
d="M145 408l27 473h504v-125h-371l-14 -226h102q148 0 234 -75.5t86 -202.5t-88 -202t-226 -75q-226 0 -333 179l122 75q70 -131 211 -131q75 0 123.5 41.5t48.5 112.5t-48.5 112.5t-135.5 41.5h-166z" />
    <glyph glyph-name="six.dnom" horiz-adv-x="796" 
d="M446 905q190 0 295 -145l-106 -86q-74 106 -186 106q-108 0 -164.5 -83.5t-61.5 -241.5q91 102 236 102q124 0 200 -81t76 -202q0 -127 -84.5 -213t-228.5 -86q-165 0 -253.5 116t-88.5 339q0 221 92.5 348t273.5 127zM430 434q-128 0 -201 -104q25 -230 193 -230
q79 0 124.5 48t45.5 122q0 70 -45.5 117t-116.5 47z" />
    <glyph glyph-name="seven.dnom" horiz-adv-x="794" 
d="M287 0h-168l448 756h-465v125h621v-125z" />
    <glyph glyph-name="eight.dnom" horiz-adv-x="796" 
d="M397 905q134 0 210.5 -66.5t76.5 -166.5q0 -61 -32 -112t-93 -81q79 -30 122.5 -92t43.5 -141q0 -119 -87.5 -195t-240.5 -76q-152 0 -239.5 76t-87.5 195q0 79 43.5 141t122.5 92q-61 30 -93 81t-32 112q0 99 76.5 166t209.5 67zM399 532q63 0 103.5 35t40.5 92
t-40.5 92t-103.5 35q-67 0 -106 -34.5t-39 -92.5q0 -59 39 -93t106 -34zM399 96q83 0 134 43t51 113q0 71 -51 116.5t-134 45.5q-84 0 -135 -45.5t-51 -116.5t50.5 -113.5t135.5 -42.5z" />
    <glyph glyph-name="nine.dnom" horiz-adv-x="796" 
d="M360 -25q-189 0 -292 146l104 86q40 -54 84 -80.5t104 -26.5q108 0 164.5 84t61.5 244q-90 -104 -236 -104q-125 0 -200.5 80.5t-75.5 201.5q0 127 84 213t229 86q165 0 252.5 -115.5t87.5 -338.5q0 -221 -93 -348.5t-274 -127.5zM215 610q0 -70 46 -117t116 -47
q129 0 203 105q-25 229 -193 229q-80 0 -126 -48t-46 -122z" />
    </font>
</defs>
</svg>
