<?xml version="1.0" standalone="no"?>
<!DOCTYPE svg PUBLIC "-//W3C//DTD SVG 1.1//EN" "http://www.w3.org/Graphics/SVG/1.1/DTD/svg11.dtd" >
<svg xmlns="http://www.w3.org/2000/svg" xmlns:xlink="http://www.w3.org/1999/xlink" version="1.1">
<metadata>
Created by FontForge 20170731 at Thu Jan 14 17:15:40 2021
 By Aleksey,,,
Mathieu Reguer
</metadata>
<defs>
<font id="Marianne-Bold" horiz-adv-x="1228" >
  <font-face 
    font-family="Marianne"
    font-weight="700"
    font-stretch="normal"
    units-per-em="2048"
    panose-1="2 0 0 0 0 0 0 0 0 0"
    ascent="1536"
    descent="-512"
    x-height="1032"
    cap-height="1434"
    bbox="-471 -514 2486 1978"
    underline-thickness="221"
    underline-position="-492"
    unicode-range="U+0020-25CC"
  />
<missing-glyph 
d="M2 -504v2040h1227v-2040h-1227zM451 236h157l10 167q204 35 325.5 149t121.5 292q0 180 -127.5 295.5t-312.5 115.5q-152 0 -264 -64t-197 -190l180 -110q62 90 124.5 131t147.5 41q97 0 162.5 -63t65.5 -158q0 -131 -105 -198.5t-313 -90.5zM532 -215q60 0 104 44
t44 105q0 59 -44 102.5t-104 43.5q-61 0 -105 -43.5t-44 -102.5q0 -62 43.5 -105.5t105.5 -43.5z" />
    <glyph glyph-name=".notdef" 
d="M2 -504v2040h1227v-2040h-1227zM451 236h157l10 167q204 35 325.5 149t121.5 292q0 180 -127.5 295.5t-312.5 115.5q-152 0 -264 -64t-197 -190l180 -110q62 90 124.5 131t147.5 41q97 0 162.5 -63t65.5 -158q0 -131 -105 -198.5t-313 -90.5zM532 -215q60 0 104 44
t44 105q0 59 -44 102.5t-104 43.5q-61 0 -105 -43.5t-44 -102.5q0 -62 43.5 -105.5t105.5 -43.5z" />
    <glyph glyph-name=".null" horiz-adv-x="0" 
 />
    <glyph glyph-name="nonmarkingreturn" horiz-adv-x="682" 
 />
    <glyph glyph-name="space" unicode=" " horiz-adv-x="552" 
 />
    <glyph glyph-name="exclam" unicode="!" horiz-adv-x="677" 
d="M242 461l-54 973h299l-53 -973h-192zM340 -25q-73 0 -126.5 53.5t-53.5 125.5t53 125t127 53q72 0 125 -53t53 -125t-53 -125.5t-125 -53.5z" />
    <glyph glyph-name="quotedbl" unicode="&#x22;" horiz-adv-x="1003" 
d="M391 844h-227l-33 590h291zM840 844h-228l-32 590h290z" />
    <glyph glyph-name="numbersign" unicode="#" horiz-adv-x="1423" 
d="M86 578h211l78 278h-289v211h346l100 367h234l-100 -367h286l101 367h233l-100 -367h149v-211h-207l-77 -278h284v-211h-342l-100 -367h-234l101 367h-287l-100 -367h-234l101 367h-154v211zM530 578h287l78 278h-287z" />
    <glyph glyph-name="dollar" unicode="$" horiz-adv-x="1226" 
d="M82 229l184 170q110 -121 252 -157v395q-65 23 -111 43.5t-99.5 55.5t-86.5 74.5t-55.5 99.5t-22.5 132q0 143 103.5 250t271.5 135v150h219v-150q244 -37 398 -217l-185 -170q-86 111 -213 154v-369q66 -23 112.5 -43.5t101 -56.5t88 -76.5t56.5 -101.5t23 -135
q-3 -162 -107.5 -268.5t-273.5 -135.5v-151h-219v149q-277 29 -436 223zM397 1053q0 -91 121 -146v293q-121 -37 -121 -147zM864 403q0 51 -32.5 87.5t-94.5 66.5v-315q127 37 127 161z" />
    <glyph glyph-name="percent" unicode="%" horiz-adv-x="1699" 
d="M418 1479q153 0 250.5 -97.5t97.5 -244.5t-97.5 -244.5t-250.5 -97.5q-155 0 -253.5 97.5t-98.5 244.5t98.5 244.5t253.5 97.5zM186 2l1053 1434h266l-1052 -1434h-267zM418 969q68 0 111.5 47.5t43.5 120.5q0 75 -43.5 121.5t-111.5 46.5q-69 0 -113.5 -46.5
t-44.5 -121.5t44.5 -121.5t113.5 -46.5zM1282 645q153 0 250.5 -97.5t97.5 -244.5t-97.5 -244.5t-250.5 -97.5q-155 0 -253.5 97.5t-98.5 244.5t98.5 244.5t253.5 97.5zM1282 135q68 0 112 47.5t44 120.5q0 74 -44 121t-112 47q-69 0 -113.5 -46.5t-44.5 -121.5t44.5 -121.5
t113.5 -46.5z" />
    <glyph glyph-name="ampersand" unicode="&#x26;" horiz-adv-x="1515" 
d="M1489 0h-334l-100 100q-180 -141 -428 -141q-236 0 -382.5 124t-146.5 343q0 130 72 228t186 151q-57 75 -82.5 145t-25.5 152q0 164 114.5 268.5t303.5 104.5q174 0 286.5 -99.5t112.5 -265.5q0 -137 -80 -230.5t-213 -142.5l262 -270q78 134 111 301h266
q-68 -299 -194 -489zM512 1085q0 -41 16 -77.5t32.5 -55.5t51.5 -54l3.5 -3.5l3.5 -3.5l4 -4q107 33 152.5 84t45.5 129q0 60 -40.5 101.5t-108.5 41.5q-74 0 -117 -43.5t-43 -114.5zM371 426q0 -111 75.5 -172t196.5 -61q123 0 229 83l-350 345l-18 18q-133 -70 -133 -213z
" />
    <glyph glyph-name="quotesingle" unicode="'" horiz-adv-x="552" 
d="M391 844h-227l-33 590h291z" />
    <glyph glyph-name="parenleft" unicode="(" horiz-adv-x="743" 
d="M362 565q0 -249 83.5 -450.5t252.5 -370.5l-184 -154q-196 177 -303 424.5t-107 550.5q0 300 110 548t300 423l184 -154q-336 -333 -336 -817z" />
    <glyph glyph-name="parenright" unicode=")" horiz-adv-x="743" 
d="M381 561q0 489 -338 821l184 154q196 -176 303 -424t107 -551q0 -301 -109.5 -547.5t-300.5 -423.5l-184 154q338 329 338 817z" />
    <glyph glyph-name="asterisk" unicode="*" horiz-adv-x="964" 
d="M823 723l-178 -129l-164 262l-162 -262l-178 129l199 235l-299 74l68 211l286 -119l-22 310h221l-25 -310l287 119l68 -211l-301 -74z" />
    <glyph glyph-name="plus" unicode="+" 
d="M1128 406h-403v-406h-221v406h-406v221h406v405h221v-405h403v-221z" />
    <glyph glyph-name="comma" unicode="," horiz-adv-x="555" 
d="M279 -328h-242l186 613h293z" />
    <glyph glyph-name="hyphen" unicode="-" horiz-adv-x="634" 
d="M41 649h553v-252h-553v252z" />
    <glyph glyph-name="period" unicode="." horiz-adv-x="552" 
d="M279 -25q-73 0 -127 53.5t-54 125.5t54 125t127 53q72 0 125 -53t53 -125t-53 -125.5t-125 -53.5z" />
    <glyph glyph-name="slash" unicode="/" horiz-adv-x="772" 
d="M23 -403l462 1939h265l-463 -1939h-264z" />
    <glyph glyph-name="zero" unicode="0" 
d="M614 1475q111 0 202 -37.5t155.5 -105.5t109 -162.5t65.5 -208.5t21 -244t-21 -244t-65.5 -208.5t-109 -162.5t-155.5 -105.5t-202 -37.5t-202 37.5t-155.5 105.5t-109 162.5t-65.5 208.5t-21 244t21 244t65.5 208.5t109 162.5t155.5 105.5t202 37.5zM614 1219
q-133 0 -201.5 -134.5t-68.5 -367.5q0 -234 68.5 -368t201.5 -134q132 0 200.5 135t68.5 367q0 233 -68.5 367.5t-200.5 134.5z" />
    <glyph glyph-name="one" unicode="1" horiz-adv-x="946" 
d="M438 2v1149l-297 -168l-137 197l442 256h269v-1434h-277z" />
    <glyph glyph-name="two" unicode="2" 
d="M119 0v250l491 483q50 50 76.5 80.5t54 70t39 76.5t11.5 80q0 88 -54 138.5t-141 50.5q-97 0 -166 -53.5t-131 -157.5l-225 137q197 320 549 320q192 0 321 -112.5t129 -293.5q0 -71 -21 -138t-62.5 -128.5t-84 -110.5t-102.5 -108l-346 -334h653v-250h-991z" />
    <glyph glyph-name="three" unicode="3" 
d="M1128 410q0 -133 -68 -236.5t-186.5 -159t-267.5 -55.5q-197 0 -333.5 82.5t-227.5 241.5l242 149q60 -119 135.5 -173t181.5 -54t175 59.5t69 157.5t-69.5 155.5t-184.5 57.5h-236v246h217q92 0 150.5 48t58.5 130q0 80 -53.5 125t-140.5 45q-157 0 -252 -164l-225 139
q166 271 497 271q200 0 328.5 -105.5t128.5 -279.5q0 -100 -42 -182t-122 -138q109 -56 167 -149t58 -211z" />
    <glyph glyph-name="four" unicode="4" 
d="M74 381v250l614 803h324v-803h145v-250h-145v-381h-277v381h-661zM358 631h377v489z" />
    <glyph glyph-name="five" unicode="5" 
d="M184 635l43 799h854v-250h-589l-17 -299h111q267 0 408 -122.5t141 -344.5q0 -136 -70 -241.5t-189 -161.5t-266 -56q-375 0 -561 324l242 149q61 -118 138 -172.5t181 -54.5q107 0 174.5 59t67.5 158q0 101 -73 157t-206 56h-389z" />
    <glyph glyph-name="six" unicode="6" 
d="M694 1475q301 0 477 -234l-208 -172q-59 79 -121 117.5t-146 38.5q-148 0 -237.5 -110t-106.5 -320q144 125 350 125q210 0 337.5 -132t127.5 -333q0 -102 -36.5 -191.5t-103 -157.5t-169.5 -107.5t-229 -39.5q-276 0 -419.5 195t-143.5 557q0 227 67.5 396.5
t210.5 268.5t350 99zM651 674q-182 0 -291 -142q46 -323 279 -323q112 0 178 66t66 169q0 100 -65 165t-167 65z" />
    <glyph glyph-name="seven" unicode="7" 
d="M461 0h-320l721 1184h-739v250h1032v-250z" />
    <glyph glyph-name="eight" unicode="8" 
d="M614 1475q117 0 211 -32t153 -86t90.5 -123.5t31.5 -146.5q0 -99 -48 -180t-141 -131q123 -51 187.5 -147.5t64.5 -227.5q0 -194 -145 -318t-404 -124q-258 0 -403 124t-145 318q0 131 64.5 227.5t188.5 147.5q-94 50 -142 130.5t-48 180.5q0 77 31.5 146.5t90.5 123.5
t153 86t210 32zM618 881q89 0 143 48t54 128q0 82 -54 131t-143 49q-96 0 -150 -48.5t-54 -131.5q0 -80 54.5 -128t149.5 -48zM616 199q121 0 192 59t71 158q0 102 -71 164.5t-192 62.5q-122 0 -194 -62.5t-72 -164.5q0 -100 71.5 -158.5t194.5 -58.5z" />
    <glyph glyph-name="nine" unicode="9" 
d="M528 -41q-305 0 -477 234l209 172q57 -78 119.5 -117t146.5 -39q148 0 237.5 110.5t106.5 319.5q-144 -125 -350 -125q-210 0 -337.5 132t-127.5 333q0 102 36.5 191.5t103.5 157.5t170 107.5t229 39.5q277 0 420 -194.5t143 -557.5q0 -169 -39 -308t-115.5 -241
t-197.5 -158.5t-277 -56.5zM340 989q0 -100 64.5 -164.5t166.5 -64.5q186 0 291 141q-24 169 -95 246.5t-185 77.5q-109 0 -175.5 -66.5t-66.5 -169.5z" />
    <glyph glyph-name="colon" unicode=":" horiz-adv-x="555" 
d="M279 700q-74 0 -127.5 54t-53.5 129q0 69 54 121.5t127 52.5q72 0 125 -52.5t53 -121.5q0 -75 -53 -129t-125 -54zM279 -25q-73 0 -127 53.5t-54 125.5t54 125t127 53q72 0 125 -53t53 -125t-53 -125.5t-125 -53.5z" />
    <glyph glyph-name="semicolon" unicode=";" horiz-adv-x="555" 
d="M279 700q-74 0 -127.5 54t-53.5 129q0 69 54 121.5t127 52.5q72 0 125 -52.5t53 -121.5q0 -75 -53 -129t-125 -54zM209 -328h-242l189 613h290z" />
    <glyph glyph-name="less" unicode="&#x3c;" 
d="M1128 238v-238l-1030 389v254l1030 389v-237l-766 -279z" />
    <glyph glyph-name="equal" unicode="=" 
d="M1128 623h-1030v221h1030v-221zM1128 188h-1030v222h1030v-222z" />
    <glyph glyph-name="greater" unicode="&#x3e;" 
d="M98 238l766 278l-766 279v237l1030 -389v-254l-1030 -389v238z" />
    <glyph glyph-name="question" unicode="?" horiz-adv-x="1060" 
d="M356 461l-32 338q76 8 132.5 19t108 30t83.5 45t50.5 65.5t18.5 90.5q0 79 -54.5 129.5t-134.5 50.5q-78 0 -135 -40.5t-117 -129.5l-223 137q176 279 488 279q122 0 225.5 -51.5t168 -150t64.5 -224.5q0 -175 -119.5 -289.5t-316.5 -147.5l-14 -151h-193zM455 -25
q-73 0 -127 53.5t-54 125.5t54 125t127 53q71 0 124.5 -53t53.5 -125t-53.5 -125.5t-124.5 -53.5z" />
    <glyph glyph-name="at" unicode="@" horiz-adv-x="1705" 
d="M461 512q0 159 95 268t253 109q122 0 213 -78v49h199v-473q0 -42 21 -65t56 -23q64 0 107 81t43 210q0 107 -44.5 204t-121.5 168.5t-187 113.5t-235 42q-170 0 -308 -82.5t-214 -220.5t-76 -301q0 -123 45.5 -233.5t124.5 -192.5t192.5 -130t243.5 -48q125 0 223 32.5
t203 118.5l92 -143q-116 -86 -241.5 -124t-278.5 -38q-170 0 -317 61t-247 164t-157 241.5t-57 291.5t56.5 291.5t156 241.5t245 164t314.5 61q165 0 308 -54.5t241 -146.5t153.5 -217t55.5 -264q0 -199 -90 -326t-246 -127q-158 0 -225 111q-94 -111 -248 -111
q-158 0 -253 108.5t-95 266.5zM676 512q0 -83 47.5 -135.5t124.5 -52.5q103 0 174 104v168q-71 104 -174 104q-78 0 -125 -52t-47 -136z" />
    <glyph glyph-name="A" unicode="A" horiz-adv-x="1527" 
d="M31 0l542 1434h381l543 -1434h-309l-137 373h-574l-137 -373h-309zM567 621h394l-197 538z" />
    <glyph glyph-name="B" unicode="B" horiz-adv-x="1288" 
d="M211 0v1434h407q224 0 352 -104t128 -286q0 -177 -152 -282q114 -51 175 -139t61 -201q0 -196 -142.5 -309t-390.5 -113h-438zM625 1186h-123v-314h123q83 0 128.5 41t45.5 117q0 73 -45.5 114.5t-128.5 41.5zM666 623h-164v-375h164q101 0 159 50.5t58 139.5t-57.5 137
t-159.5 48z" />
    <glyph glyph-name="C" unicode="C" horiz-adv-x="1515" 
d="M850 231q119 0 215 53t160 144l229 -176q-101 -137 -257 -215t-347 -78q-166 0 -309.5 61t-242 164t-154.5 241.5t-56 291.5t56 291.5t154.5 241.5t242 164t309.5 61q190 0 346.5 -78t257.5 -213l-229 -178q-64 91 -160 143.5t-215 52.5q-201 0 -332 -139t-131 -346
t131 -346.5t332 -139.5z" />
    <glyph glyph-name="D" unicode="D" horiz-adv-x="1626" 
d="M211 0v1434h563q167 0 310.5 -57.5t241.5 -155.5t154 -229t56 -275t-56 -275t-154 -229t-241.5 -155.5t-310.5 -57.5h-563zM778 1169h-276v-905h276q198 0 328.5 130.5t130.5 322.5q0 193 -130.5 322.5t-328.5 129.5z" />
    <glyph glyph-name="E" unicode="E" horiz-adv-x="1193" 
d="M211 0v1434h836v-248h-545v-332h463v-248h-463v-358h545v-248h-836z" />
    <glyph glyph-name="F" unicode="F" horiz-adv-x="1112" 
d="M211 0v1434h836v-248h-545v-332h463v-248h-463v-606h-291z" />
    <glyph glyph-name="G" unicode="G" horiz-adv-x="1628" 
d="M870 231q203 0 334 125v242h-364v264h655v-610q-102 -136 -265 -214.5t-360 -78.5q-170 0 -317.5 61t-248.5 164t-158.5 241.5t-57.5 291.5t56 291.5t154.5 241.5t242 164t309.5 61q190 0 346.5 -78t257.5 -213l-229 -178q-64 91 -160 143.5t-215 52.5q-201 0 -332 -139
t-131 -346t137 -346.5t346 -139.5z" />
    <glyph glyph-name="H" unicode="H" horiz-adv-x="1726" 
d="M211 0v1434h291v-572h723v572h291v-1434h-291v598h-723v-598h-291z" />
    <glyph glyph-name="I" unicode="I" horiz-adv-x="712" 
d="M211 0v1434h291v-1434h-291z" />
    <glyph glyph-name="J" unicode="J" horiz-adv-x="735" 
d="M524 119q0 -475 -446 -475q-86 0 -115 8v256q30 -6 74 -6q99 0 147.5 47t48.5 155v1330h291v-1315z" />
    <glyph glyph-name="K" unicode="K" horiz-adv-x="1531" 
d="M211 0v1434h291v-627l618 627h363l-600 -607l600 -827h-357l-444 627l-180 -183v-444h-291z" />
    <glyph glyph-name="L" unicode="L" horiz-adv-x="1112" 
d="M211 0v1434h291v-1170h545v-264h-836z" />
    <glyph glyph-name="M" unicode="M" horiz-adv-x="1845" 
d="M211 0v1434h367l346 -590l346 590h366v-1434h-290v1020l-320 -528h-205l-319 528v-1020h-291z" />
    <glyph glyph-name="N" unicode="N" horiz-adv-x="1726" 
d="M211 0v1434h373l641 -1026v1026h291v-1434h-373l-641 1030v-1030h-291z" />
    <glyph glyph-name="O" unicode="O" horiz-adv-x="1697" 
d="M850 1475q165 0 308.5 -61t241.5 -164t154 -241.5t56 -291.5t-56 -291.5t-154 -241.5t-241.5 -164t-308.5 -61q-166 0 -309.5 61t-242 164t-154.5 241.5t-56 291.5t56 291.5t154.5 241.5t242 164t309.5 61zM850 231q132 0 237.5 64t164.5 175t59 247q0 207 -130.5 346
t-330.5 139q-201 0 -332 -139t-131 -346t131 -346.5t332 -139.5z" />
    <glyph glyph-name="P" unicode="P" horiz-adv-x="1241" 
d="M211 0v1434h473q236 0 372 -114.5t136 -313.5q0 -198 -136 -312t-372 -114h-182v-580h-291zM696 1186h-194v-359h194q93 0 145 48t52 135q0 82 -52.5 129t-144.5 47z" />
    <glyph glyph-name="Q" unicode="Q" horiz-adv-x="1697" 
d="M1413 37q152 -137 301 -137q62 0 103 16v-246q-68 -26 -152 -26q-232 0 -448 188l-170 152q-95 -25 -197 -25q-166 0 -309.5 61t-242 164t-154.5 241.5t-56 291.5t56 291.5t154.5 241.5t242 164t309.5 61q165 0 308.5 -61t241.5 -164t154 -241.5t56 -291.5
q0 -179 -75 -336t-208 -262zM850 231q132 0 237.5 64t164.5 175t59 247q0 207 -130.5 346t-330.5 139q-201 0 -332 -139t-131 -346t131 -346.5t332 -139.5z" />
    <glyph glyph-name="R" unicode="R" horiz-adv-x="1370" 
d="M211 0v1434h438q237 0 373.5 -114.5t136.5 -313.5q0 -128 -59.5 -223t-169.5 -148l450 -635h-348l-381 580h-149v-580h-291zM666 1186h-164v-359h164q92 0 143 47.5t51 135.5q0 82 -51 129t-143 47z" />
    <glyph glyph-name="S" unicode="S" horiz-adv-x="1204" 
d="M82 199l211 194q65 -84 147.5 -130t169.5 -46q86 0 135.5 44t49.5 122q0 45 -28 83t-74.5 63.5t-105.5 54t-120 54.5t-120 65t-105.5 85t-74.5 116t-28 155q0 174 129.5 295t329.5 121q300 0 502 -242l-213 -191q-138 179 -287 179q-74 0 -120 -43t-46 -107
q0 -41 22.5 -74.5t60.5 -59t87 -49t103.5 -48t109 -51.5t103.5 -64.5t87 -83t60.5 -110t22.5 -142.5q-3 -195 -138.5 -312.5t-337.5 -117.5q-176 0 -304.5 60.5t-227.5 179.5z" />
    <glyph glyph-name="T" unicode="T" horiz-adv-x="1304" 
d="M63 1169v265h1176v-265h-442v-1169h-291v1169h-443z" />
    <glyph glyph-name="U" unicode="U" horiz-adv-x="1501" 
d="M1040 537v897h291v-873q0 -282 -155 -442t-426 -160q-269 0 -424.5 160t-155.5 442v873h291v-897q0 -144 77 -225t214 -81q134 0 211 81t77 225z" />
    <glyph glyph-name="V" unicode="V" horiz-adv-x="1527" 
d="M31 1434h309l424 -1121l424 1121h309l-543 -1434h-381z" />
    <glyph glyph-name="W" unicode="W" horiz-adv-x="2195" 
d="M53 1434h287l268 -1094l299 1094h383l297 -1096l273 1096h284l-354 -1434h-389l-303 1108l-303 -1108h-387z" />
    <glyph glyph-name="X" unicode="X" horiz-adv-x="1517" 
d="M389 0h-346l512 741l-477 693h344l336 -484l336 484h348l-481 -693l514 -741h-347l-370 532z" />
    <glyph glyph-name="Y" unicode="Y" horiz-adv-x="1454" 
d="M1462 1434l-590 -824v-610h-290v604l-592 830h354l383 -541l385 541h350z" />
    <glyph glyph-name="Z" unicode="Z" horiz-adv-x="1423" 
d="M123 0v264l799 905h-779v265h1135v-265l-797 -905h817v-264h-1175z" />
    <glyph glyph-name="bracketleft" unicode="[" horiz-adv-x="679" 
d="M143 1536h500v-221h-256v-1497h256v-221h-500v1939z" />
    <glyph glyph-name="backslash" unicode="\" horiz-adv-x="772" 
d="M750 -403h-265l-462 1939h264z" />
    <glyph glyph-name="bracketright" unicode="]" horiz-adv-x="679" 
d="M541 -403h-502v221h256v1497h-256v221h502v-1939z" />
    <glyph glyph-name="asciicircum" unicode="^" 
d="M406 315h-230l273 463h331l273 -463h-230l-209 332z" />
    <glyph glyph-name="underscore" unicode="_" horiz-adv-x="1105" 
d="M10 -162h1086v-221h-1086v221z" />
    <glyph glyph-name="grave" unicode="`" 
d="M612 1196l-245 340h282l211 -340h-248z" />
    <glyph glyph-name="a" unicode="a" horiz-adv-x="1161" 
d="M451 -41q-157 0 -253 84t-96 229q0 120 89.5 204.5t254.5 111.5l312 53v27q0 81 -55 129.5t-144 48.5q-76 0 -136 -31.5t-95 -91.5l-193 145q70 97 182 151t250 54q216 0 334.5 -113.5t118.5 -291.5v-668h-262v96q-50 -62 -133.5 -99.5t-173.5 -37.5zM360 283
q0 -50 39.5 -82.5t104.5 -32.5q163 0 254 145v142l-244 -43q-154 -25 -154 -129z" />
    <glyph glyph-name="b" unicode="b" horiz-adv-x="1343" 
d="M1262 516q0 -113 -36.5 -214t-102.5 -177.5t-166 -121t-220 -44.5q-194 0 -321 115v-74h-260v1536h260v-578q127 115 321 115q120 0 220 -44.5t166 -121t102.5 -177.5t36.5 -214zM418 360q106 -155 282 -155q131 0 211 87.5t80 223.5t-80 223.5t-211 87.5
q-176 0 -282 -155l-2 2v-316z" />
    <glyph glyph-name="c" unicode="c" horiz-adv-x="1126" 
d="M651 205q73 0 132.5 32.5t97.5 88.5l206 -158q-74 -98 -186 -153.5t-250 -55.5q-130 0 -238.5 44.5t-180 121t-111 177.5t-39.5 214t39.5 214t111 177.5t180 121t238.5 44.5q138 0 250 -55.5t186 -153.5l-206 -157q-82 120 -234 120q-128 0 -211.5 -88t-83.5 -223
q0 -136 84 -223.5t215 -87.5z" />
    <glyph glyph-name="d" unicode="d" horiz-adv-x="1343" 
d="M82 516q0 152 62 277.5t183 202.5t279 77q192 0 320 -112v575h262v-1536h-262v72q-129 -113 -320 -113q-158 0 -279 77t-183 202.5t-62 277.5zM354 516q0 -137 79.5 -224t209.5 -87q179 0 283 153v316q-105 153 -283 153q-130 0 -209.5 -87t-79.5 -224z" />
    <glyph glyph-name="e" unicode="e" horiz-adv-x="1185" 
d="M1106 168q-73 -98 -190 -153.5t-261 -55.5q-134 0 -244 44.5t-181 121t-109.5 177t-38.5 214.5q0 154 61 279.5t183 201.5t286 76q213 0 344 -129.5t131 -333.5q0 -77 -16 -147h-723q12 -127 95 -198.5t216 -71.5q83 0 151 32.5t110 89.5zM612 856q-196 0 -247 -197h464
q-3 82 -61 139.5t-156 57.5z" />
    <glyph glyph-name="f" unicode="f" horiz-adv-x="831" 
d="M29 1032h192v109q0 170 110 282.5t294 112.5q175 0 280 -94l-160 -191q-43 52 -118 52q-62 0 -103 -44t-41 -112v-115h316v-237h-316v-795h-262v795h-192v237z" />
    <glyph glyph-name="g" unicode="g" horiz-adv-x="1142" 
d="M53 -180q0 147 144 250q-64 67 -64 151q0 122 113 205q-67 51 -103.5 125t-36.5 160q0 155 112.5 258.5t301.5 103.5q119 0 209 -41h377v-221h-182q14 -46 14 -100q0 -158 -112.5 -262.5t-305.5 -104.5q-57 0 -98 8q-35 -30 -35 -65q0 -62 70 -62h260q190 0 295.5 -91
t105.5 -240q0 -180 -146.5 -293t-393.5 -113q-250 0 -387.5 85.5t-137.5 246.5zM524 541q81 0 129.5 46.5t48.5 123.5t-48 122.5t-130 45.5q-84 0 -132 -46t-48 -122q0 -77 48 -123.5t132 -46.5zM299 -143q0 -75 71 -117.5t205 -42.5q138 0 211.5 46.5t73.5 125.5
q0 133 -172 133h-295q-94 -54 -94 -145z" />
    <glyph glyph-name="h" unicode="h" horiz-adv-x="1261" 
d="M156 0v1536h260v-586q127 123 305 123q175 0 288 -119.5t113 -339.5v-614h-264v604q0 104 -53.5 163.5t-149.5 59.5q-149 0 -239 -153v-674h-260z" />
    <glyph glyph-name="i" unicode="i" horiz-adv-x="571" 
d="M287 1212q-69 0 -119.5 50.5t-50.5 119.5t50.5 119.5t119.5 50.5t118.5 -50.5t49.5 -119.5t-49.5 -119.5t-118.5 -50.5zM156 0v1032h260v-1032h-260z" />
    <glyph glyph-name="j" unicode="j" horiz-adv-x="571" 
d="M283 1212q-69 0 -119.5 50.5t-50.5 119.5t50.5 119.5t119.5 50.5q68 0 118 -50.5t50 -119.5t-50 -119.5t-118 -50.5zM416 -111q0 -401 -381 -401q-124 0 -197 33v227q52 -22 154 -22q164 0 164 163v1143h260v-1143z" />
    <glyph glyph-name="k" unicode="k" horiz-adv-x="1140" 
d="M160 0v1434h262v-799l381 397h323l-424 -438l422 -594h-319l-287 406l-96 -99v-307h-262z" />
    <glyph glyph-name="l" unicode="l" horiz-adv-x="571" 
d="M156 0v1536h260v-1536h-260z" />
    <glyph glyph-name="m" unicode="m" horiz-adv-x="1882" 
d="M156 0v1032h260v-78q122 119 284 119q103 0 187.5 -46t134.5 -134q67 83 147 131.5t191 48.5q167 0 274 -114t107 -324v-635h-262v625q0 94 -49 148t-136 54q-126 0 -215 -147q2 -14 2 -45v-635h-264v625q0 95 -47.5 148.5t-134.5 53.5q-42 0 -78 -13.5t-62.5 -39
t-43.5 -47.5t-35 -53v-674h-260z" />
    <glyph glyph-name="n" unicode="n" horiz-adv-x="1261" 
d="M156 0v1032h260v-82q127 123 305 123q175 0 288 -119.5t113 -339.5v-614h-264v604q0 103 -54 163t-149 60q-149 0 -239 -153v-674h-260z" />
    <glyph glyph-name="o" unicode="o" horiz-adv-x="1294" 
d="M647 1073q164 0 294 -74.5t200.5 -201.5t70.5 -281t-70.5 -281t-200.5 -201.5t-294 -74.5t-294 74.5t-200.5 201.5t-70.5 281t70.5 281t200.5 201.5t294 74.5zM651 205q125 0 208 89t83 222q0 135 -83 223t-208 88q-129 0 -214 -88t-85 -223t85 -223t214 -88z" />
    <glyph glyph-name="p" unicode="p" horiz-adv-x="1343" 
d="M156 -504v1536h260v-74q127 115 321 115q120 0 220 -44.5t166 -121t102.5 -177.5t36.5 -214t-36.5 -214t-102.5 -177.5t-166 -121t-220 -44.5q-194 0 -321 115v-578h-260zM418 360q106 -155 282 -155q131 0 211 87.5t80 223.5t-80 223.5t-211 87.5q-176 0 -282 -155l-2 2
v-316z" />
    <glyph glyph-name="q" unicode="q" horiz-adv-x="1343" 
d="M82 516q0 152 61.5 277.5t182.5 202.5t280 77q193 0 320 -115v74h262v-1536h-262v578q-127 -115 -320 -115q-159 0 -280 77t-182.5 202.5t-61.5 277.5zM352 516q0 -137 79.5 -224t209.5 -87q179 0 285 155v312q-106 155 -285 155q-130 0 -209.5 -87t-79.5 -224z" />
    <glyph glyph-name="r" unicode="r" horiz-adv-x="831" 
d="M156 0v1032h260v-102q119 123 272 123q43 0 90 -15v-272q-58 14 -114 14q-87 0 -150.5 -39t-97.5 -94v-647h-260z" />
    <glyph glyph-name="s" unicode="s" horiz-adv-x="935" 
d="M66 150l172 159q108 -137 237 -137q60 0 93.5 30t33.5 77q0 36 -26.5 63t-69 45.5t-93.5 37t-102.5 44.5t-94 60.5t-69 92.5t-26.5 134q0 137 103.5 227t262.5 90q116 0 218 -49t161 -127l-174 -156q-93 119 -203 119q-57 0 -87.5 -25t-30.5 -69q0 -35 26.5 -61.5t69 -45
t94 -37t102.5 -44t93.5 -60t69 -91.5t26.5 -132q-3 -156 -111 -246t-262 -90q-253 0 -413 191z" />
    <glyph glyph-name="t" unicode="t" horiz-adv-x="876" 
d="M221 377v418h-192v237h192v258h262v-258h316v-237h-316v-418q0 -160 164 -160q97 0 154 23v-228q-71 -32 -199 -32q-191 0 -286 102.5t-95 294.5z" />
    <glyph glyph-name="u" unicode="u" horiz-adv-x="1230" 
d="M836 446v586h262v-573q0 -232 -128.5 -366t-355.5 -134q-226 0 -353.5 133.5t-127.5 366.5v573h262v-586q0 -114 57.5 -177.5t163.5 -63.5q105 0 162.5 64t57.5 177z" />
    <glyph glyph-name="v" unicode="v" horiz-adv-x="1110" 
d="M8 1032h279l268 -737l266 737h281l-377 -1032h-342z" />
    <glyph glyph-name="w" unicode="w" horiz-adv-x="1714" 
d="M53 1032h256l180 -751l193 751h350l193 -747l180 747h258l-246 -1032h-362l-197 770l-199 -770h-360z" />
    <glyph glyph-name="x" unicode="x" horiz-adv-x="1146" 
d="M342 0h-299l365 530l-345 502h297l213 -317l213 317h299l-346 -502l365 -530h-297l-234 346z" />
    <glyph glyph-name="y" unicode="y" horiz-adv-x="1146" 
d="M618 -236q-57 -134 -150 -205t-235 -71q-103 0 -184 33v229q57 -24 127 -24q79 0 128.5 31.5t80.5 107.5l57 137l-434 1030h289l283 -694l284 694h275z" />
    <glyph glyph-name="z" unicode="z" horiz-adv-x="1093" 
d="M115 0v238l520 557h-504v237h834v-237l-521 -557h535v-238h-864z" />
    <glyph glyph-name="braceleft" unicode="{" horiz-adv-x="679" 
d="M387 -68q0 -52 31 -83t82 -31h143v-221h-145q-165 0 -260 91.5t-95 243.5q0 67 26.5 147.5t52.5 150.5t26 112q0 52 -21 82.5t-59 30.5h-131v223h131q38 0 59 30.5t21 82.5q0 43 -26 112.5t-52.5 149.5t-26.5 147q0 154 94.5 245t260.5 91h145v-221h-143q-51 0 -82 -31.5
t-31 -83.5q0 -47 26.5 -116.5t53.5 -147.5t27 -145q0 -149 -117 -224q117 -75 117 -223q0 -68 -27 -146.5t-53.5 -148t-26.5 -117.5z" />
    <glyph glyph-name="bar" unicode="|" horiz-adv-x="772" 
d="M264 -403v1939h244v-1939h-244z" />
    <glyph glyph-name="braceright" unicode="}" horiz-adv-x="679" 
d="M297 -68q0 48 -26.5 117.5t-53.5 148t-27 146.5q0 148 117 223q-57 35 -87 93.5t-30 130.5q0 66 26.5 144t53.5 148t27 117q0 52 -31 83.5t-82 31.5h-143v221h143q166 0 261.5 -91t95.5 -245q0 -53 -16.5 -115.5t-37 -109.5t-37 -98.5t-16.5 -85.5q0 -51 22 -81t60 -30
h131v-225h-131q-38 0 -60 -31t-22 -84q0 -41 27 -110.5t53.5 -150t26.5 -147.5q0 -152 -95.5 -243.5t-261.5 -91.5h-143v221h143q51 0 82 31t31 83z" />
    <glyph glyph-name="asciitilde" unicode="~" 
d="M1061 774v-151q0 -144 -65 -230t-181 -86q-151 0 -244 144l-34 53q-36 53 -55.5 72.5t-49.5 19.5q-76 0 -76 -104v-173h-188v164q0 142 65 222.5t181 80.5q73 0 132.5 -32t112.5 -111l33 -53q25 -37 37 -52.5t30 -27.5t40 -12q39 0 56 25t17 79v172h189z" />
    <glyph glyph-name="exclamdown" unicode="&#xa1;" horiz-adv-x="677" 
d="M340 1073q71 0 124.5 -53.5t53.5 -126.5q0 -71 -53.5 -123.5t-124.5 -52.5q-75 0 -127.5 52t-52.5 124q0 73 53 126.5t127 53.5zM434 588l53 -973h-299l56 973h190z" />
    <glyph glyph-name="cent" unicode="&#xa2;" horiz-adv-x="1226" 
d="M549 1434h219v-170q217 -29 352 -203l-209 -160q-59 86 -143 111v-598q87 29 143 108l209 -160q-132 -171 -352 -200v-162h-219v168q-200 40 -317 191.5t-117 353.5q0 131 51 244t150.5 193t232.5 107v177zM383 713q0 -98 45 -172.5t121 -110.5v565q-76 -37 -121 -112
t-45 -170z" />
    <glyph glyph-name="sterling" unicode="&#xa3;" 
d="M129 0v250h2l186 168q60 54 81.5 87t21.5 87v12h-291v217h174q-42 67 -65 126.5t-23 129.5q0 173 121.5 285.5t314.5 112.5q153 0 254 -58t174 -172l-207 -155q-81 137 -204 137q-80 0 -130.5 -47.5t-50.5 -124.5q0 -22 5 -45.5t9 -38t18.5 -41.5t19 -34.5t25 -39.5
t22.5 -35h432v-217h-344v-14q-2 -86 -36 -155t-118 -142l-51 -43h651v-250h-991z" />
    <glyph glyph-name="currency" unicode="&#xa4;" 
d="M973 0l-207 207q-67 -31 -150 -31t-153 31l-209 -209l-156 158l205 204q-37 70 -37 158q0 86 35 154l-201 200l156 158l203 -203q78 33 157 33q80 0 154 -33l203 203l157 -156l-198 -198q35 -72 35 -158q0 -89 -37 -162l200 -200zM616 348q68 0 113 48.5t45 121.5
q0 74 -45 121t-113 47t-112.5 -47t-44.5 -121q0 -75 44.5 -122.5t112.5 -47.5z" />
    <glyph glyph-name="yen" unicode="&#xa5;" 
d="M109 444v218h366v116h-366v217h198l-270 439h323l256 -428l256 428h320l-270 -439h196v-217h-364v-116h364v-218h-364v-444h-279v444h-366z" />
    <glyph glyph-name="brokenbar" unicode="&#xa6;" horiz-adv-x="772" 
d="M508 815h-244v721h244v-721zM508 -403h-244v720h244v-720z" />
    <glyph glyph-name="section" unicode="&#xa7;" horiz-adv-x="1079" 
d="M694 -33q0 43 -21.5 75.5t-57.5 54t-83 39t-99 34.5t-104 37t-99 49.5t-83 67.5t-57.5 96.5t-21.5 132.5q3 94 51.5 165t128.5 113q-121 96 -121 269q0 157 119 266t301 109q268 0 452 -213l-159 -162q-60 78 -136.5 119t-154.5 41q-76 0 -122 -42.5t-46 -107.5
q0 -43 21.5 -76t57.5 -54t83 -39t99 -35t103.5 -36.5t98.5 -49t83 -67.5t57.5 -96.5t21.5 -132.5q-3 -95 -51 -167t-128 -113q119 -94 119 -267q0 -159 -118 -266.5t-300 -107.5q-274 0 -454 209l159 163q62 -77 137.5 -117t153.5 -40q76 0 123 42t47 107zM324 561
q0 -21 4.5 -40t16 -34.5t22.5 -28t32 -24.5t35.5 -20t43.5 -19t44.5 -16.5t49.5 -16.5t49 -16q60 18 95.5 62t35.5 104q0 19 -5 36.5t-11 31.5t-20 27.5t-25 23t-32 20.5t-34.5 17.5t-40.5 16.5t-41 14.5t-45.5 14.5t-44.5 15q-58 -15 -93.5 -60.5t-35.5 -107.5z" />
    <glyph glyph-name="dieresis" unicode="&#xa8;" 
d="M389 1237q-65 0 -112.5 47t-47.5 111q0 63 48 110t112 47q62 0 109 -47t47 -110q0 -64 -47 -111t-109 -47zM842 1237q-63 0 -110.5 47t-47.5 111q0 63 47.5 110t110.5 47t110 -47t47 -110q0 -64 -47 -111t-110 -47z" />
    <glyph glyph-name="copyright" unicode="&#xa9;" horiz-adv-x="1708" 
d="M1620 717q0 -153 -56 -291.5t-155 -241.5t-244 -164t-313 -61q-167 0 -311 61t-242.5 164t-154.5 241.5t-56 291.5t56 291.5t155 241.5t244 164t313 61q167 0 311 -61t242.5 -164t154.5 -241.5t56 -291.5zM250 717q0 -124 45 -236t123.5 -195t192 -131.5t243.5 -48.5
t243 48.5t191 131.5t123 195t45 236t-45 236t-123 194.5t-191 131t-243 48.5t-243.5 -48.5t-192 -131t-123.5 -194.5t-45 -236zM868 446q131 0 209 109l164 -125q-63 -84 -159 -131t-214 -47q-137 0 -245.5 63.5t-167 169.5t-58.5 232t58.5 232t167 169.5t245.5 63.5
q116 0 212.5 -48t160.5 -130l-164 -125q-77 108 -209 108q-112 0 -184 -76.5t-72 -193.5t72 -194t184 -77z" />
    <glyph glyph-name="ordfeminine" unicode="&#xaa;" horiz-adv-x="733" 
d="M281 805q-95 0 -153 52.5t-58 143.5q0 75 55.5 127.5t157.5 67.5l170 31v6q0 41 -28.5 67.5t-74.5 26.5q-81 0 -123 -67l-137 100q95 129 266 129q136 0 209.5 -73t73.5 -183v-404h-186v52q-28 -34 -75 -55t-97 -21zM248 1008q0 -28 19.5 -44t54.5 -16q78 0 131 78v74
l-121 -21q-46 -9 -65 -25.5t-19 -45.5zM109 508v176h530v-176h-530z" />
    <glyph glyph-name="guillemetleft" unicode="&#xab;" horiz-adv-x="1155" 
d="M618 98h-278l-262 402l262 418h278l-258 -416zM1075 98h-278l-262 402l262 418h278l-258 -416z" />
    <glyph glyph-name="logicalnot" unicode="&#xac;" 
d="M1128 844v-656h-221v435h-809v221h1030z" />
    <glyph glyph-name="registered" unicode="&#xae;" horiz-adv-x="1708" 
d="M1620 717q0 -153 -56 -291.5t-155 -241.5t-244 -164t-313 -61q-167 0 -311 61t-242.5 164t-154.5 241.5t-56 291.5t56 291.5t155 241.5t244 164t313 61q167 0 311 -61t242.5 -164t154.5 -241.5t56 -291.5zM250 717q0 -124 45 -236t123.5 -195t192 -131.5t243.5 -48.5
t243 48.5t191 131.5t123 195t45 236t-45 236t-123 194.5t-191 131t-243 48.5t-243.5 -48.5t-192 -131t-123.5 -194.5t-45 -236zM573 279v880h287q152 0 239 -71.5t87 -198.5q0 -79 -37 -138.5t-105 -93.5l199 -378h-229l-166 342h-68v-342h-207zM872 983h-92v-186h92
q47 0 74 25t27 71q0 41 -27 65.5t-74 24.5z" />
    <glyph glyph-name="macron" unicode="&#xaf;" 
d="M256 1270v192h717v-192h-717z" />
    <glyph glyph-name="degree" unicode="&#xb0;" horiz-adv-x="831" 
d="M418 1475q153 0 250.5 -97.5t97.5 -244.5t-97.5 -244.5t-250.5 -97.5q-155 0 -253.5 97.5t-98.5 244.5t98.5 244.5t253.5 97.5zM418 963q67 0 111 48t44 122t-43.5 120.5t-111.5 46.5q-69 0 -113.5 -46t-44.5 -121t44.5 -122.5t113.5 -47.5z" />
    <glyph glyph-name="plusminus" unicode="&#xb1;" 
d="M725 1032v-244h403v-221h-403v-243h-221v243h-406v221h406v244h221zM1128 0h-1030v221h1030v-221z" />
    <glyph glyph-name="twosuperior" unicode="&#xb2;" horiz-adv-x="796" 
d="M88 829v179l303 292q3 3 18.5 19t21.5 22.5t18.5 23t18 29t10.5 30.5t5 36q0 47 -29 74t-75 27q-54 0 -93 -32.5t-77 -96.5l-158 98q61 99 142 152t196 53q129 0 212 -70t83 -184q0 -88 -42 -153.5t-116 -135.5l-194 -184h375v-179h-619z" />
    <glyph glyph-name="threesuperior" unicode="&#xb3;" horiz-adv-x="796" 
d="M721 1087q0 -131 -90.5 -206.5t-239.5 -75.5q-246 0 -354 192l172 107q32 -65 76 -95t106 -30q56 0 92.5 31.5t36.5 83.5q0 54 -38 83t-103 29h-143v176h135q47 0 78.5 24.5t31.5 66.5t-28 65t-72 23q-90 0 -141 -93l-162 99q110 168 315 168q126 0 207.5 -65.5
t81.5 -172.5q0 -121 -92 -194q63 -34 97 -90.5t34 -125.5z" />
    <glyph glyph-name="acute" unicode="&#xb4;" horiz-adv-x="1230" 
d="M618 1196h-249l213 340h282z" />
    <glyph glyph-name="paragraph" unicode="&#xb6;" horiz-adv-x="1474" 
d="M815 -403h-246v983h-12q-236 0 -373 114t-137 312q0 199 136.5 313.5t373.5 114.5h258v-1837zM1020 -403v1837h244v-1837h-244z" />
    <glyph glyph-name="periodcentered" unicode="&#xb7;" horiz-adv-x="555" 
d="M279 342q-73 0 -127 53t-54 125t54 125t127 53q72 0 125 -53t53 -125t-53 -125t-125 -53z" />
    <glyph glyph-name="cedilla" unicode="&#xb8;" 
d="M555 16l207 -4l-109 -121q85 -5 144 -57t59 -127q0 -94 -74 -156.5t-184 -62.5q-149 0 -225 70l90 129q52 -52 121 -52q35 0 57.5 18.5t22.5 51.5q0 30 -23 47t-59 17q-42 0 -86 -21l-78 96z" />
    <glyph glyph-name="onesuperior" unicode="&#xb9;" horiz-adv-x="796" 
d="M109 829v179h223v499l-174 -94l-97 141l279 156h188v-702h199v-179h-618z" />
    <glyph glyph-name="ordmasculine" unicode="&#xba;" horiz-adv-x="831" 
d="M418 1489q153 0 250.5 -97.5t97.5 -244.5t-97.5 -244.5t-250.5 -97.5q-155 0 -253.5 97.5t-98.5 244.5t98.5 244.5t253.5 97.5zM418 979q68 0 111.5 47.5t43.5 120.5q0 75 -43.5 121.5t-111.5 46.5q-69 0 -113.5 -46.5t-44.5 -121.5t44.5 -121.5t113.5 -46.5zM115 508
v176h606v-176h-606z" />
    <glyph glyph-name="guillemetright" unicode="&#xbb;" horiz-adv-x="1155" 
d="M78 918h280l260 -402l-260 -418h-280l260 416zM535 918h280l260 -402l-260 -418h-280l260 416z" />
    <glyph glyph-name="onequarter" unicode="&#xbc;" horiz-adv-x="1966" 
d="M109 553v178h223v500l-174 -94l-97 141l279 156h188v-703h199v-178h-618zM418 0l1052 1434h267l-1053 -1434h-266zM1237 225v162l358 494h226v-494h84v-162h-84v-225h-197v225h-387zM1434 387h190v260z" />
    <glyph glyph-name="onehalf" unicode="&#xbd;" horiz-adv-x="2109" 
d="M109 553v178h223v500l-174 -94l-97 141l279 156h188v-703h199v-178h-618zM418 0l1052 1434h267l-1053 -1434h-266zM1401 0v178l303 293q3 3 18.5 19t21.5 22.5t18.5 23t18 29t10.5 30.5t5 36q0 46 -28.5 73t-75.5 27q-54 0 -93 -32.5t-77 -96.5l-158 98q61 99 142 152
t196 53q129 0 212 -70t83 -184q0 -88 -42 -153.5t-116 -135.5l-194 -184h374v-178h-618z" />
    <glyph glyph-name="threequarters" unicode="&#xbe;" horiz-adv-x="1890" 
d="M721 811q0 -132 -90.5 -207.5t-239.5 -75.5q-246 0 -354 193l172 106q32 -65 76 -95t106 -30q56 0 92.5 31.5t36.5 83.5q0 54 -38 83.5t-103 29.5h-143v176h135q47 0 78.5 24t31.5 66t-28 65t-72 23q-91 0 -141 -92l-162 98q110 168 315 168q126 0 207.5 -65t81.5 -172
q0 -122 -92 -195q63 -34 97 -90t34 -125zM342 0l1053 1434h266l-1053 -1434h-266zM1161 225v162l359 494h225v-494h84v-162h-84v-225h-197v225h-387zM1358 387h190v260z" />
    <glyph glyph-name="questiondown" unicode="&#xbf;" horiz-adv-x="1060" 
d="M606 1073q74 0 127 -53.5t53 -126.5q0 -72 -53 -124t-127 -52q-72 0 -125 52t-53 124q0 73 53 126.5t125 53.5zM705 588l32 -338q-77 -9 -133.5 -20t-108 -30t-83 -45.5t-50 -65t-18.5 -89.5q0 -80 53.5 -130t134.5 -50q77 0 134.5 39.5t117.5 128.5l226 -140
q-178 -274 -490 -274q-91 0 -174 30.5t-146.5 84.5t-101 134.5t-37.5 174.5q0 177 120 291t319 147l14 152h191z" />
    <glyph glyph-name="Agrave" unicode="&#xc0;" horiz-adv-x="1527" 
d="M637 1556l-264 277h299l231 -277h-266zM31 0l542 1434h381l543 -1434h-309l-137 373h-574l-137 -373h-309zM567 621h394l-197 538z" />
    <glyph glyph-name="Aacute" unicode="&#xc1;" horiz-adv-x="1527" 
d="M895 1556h-264l231 277h299zM31 0l542 1434h381l543 -1434h-309l-137 373h-574l-137 -373h-309zM567 621h394l-197 538z" />
    <glyph glyph-name="Acircumflex" unicode="&#xc2;" horiz-adv-x="1527" 
d="M614 1556h-231l233 277h297l230 -277h-232l-147 154zM31 0l542 1434h381l543 -1434h-309l-137 373h-574l-137 -373h-309zM567 621h394l-197 538z" />
    <glyph glyph-name="Atilde" unicode="&#xc3;" horiz-adv-x="1527" 
d="M379 1556v70q0 106 62 166.5t161 60.5q40 0 79.5 -12t59 -22.5t66.5 -38.5l27 -19q4 -3 12 -8.5t11 -7.5t9.5 -6t9.5 -5.5t8 -4.5t7.5 -4t7 -3t7.5 -2.5t6.5 -1t7.5 -0.5q41 0 41 54v61h188v-68q0 -109 -61 -169t-160 -60q-42 0 -81.5 12t-61.5 24t-62 38l-31 18
q-5 4 -17 12.5t-16.5 11t-13 8t-13 7t-11 3t-13.5 1.5q-41 0 -41 -53v-62h-188zM31 0l542 1434h381l543 -1434h-309l-137 373h-574l-137 -373h-309zM567 621h394l-197 538z" />
    <glyph glyph-name="Adieresis" unicode="&#xc4;" horiz-adv-x="1527" 
d="M543 1559q-62 0 -105 42t-43 103q0 59 43.5 101t104.5 42q57 0 100 -42.5t43 -100.5q0 -61 -42.5 -103t-100.5 -42zM987 1559q-60 0 -102.5 42t-42.5 103q0 59 42.5 101t102.5 42t103 -42t43 -101q0 -61 -43 -103t-103 -42zM31 0l542 1434h381l543 -1434h-309l-137 373
h-574l-137 -373h-309zM567 621h394l-197 538z" />
    <glyph glyph-name="Aring" unicode="&#xc5;" horiz-adv-x="1527" 
d="M764 1516q-117 0 -192.5 59t-75.5 172q0 114 75 172.5t193 58.5q121 0 195.5 -58t74.5 -173q0 -114 -75 -172.5t-195 -58.5zM764 1653q54 0 84.5 24t30.5 70q0 94 -115 94q-54 0 -84.5 -24t-30.5 -70t30.5 -70t84.5 -24zM31 0l542 1434h381l543 -1434h-309l-137 373h-574
l-137 -373h-309zM567 621h394l-197 538z" />
    <glyph glyph-name="AE" unicode="&#xc6;" horiz-adv-x="2031" 
d="M18 0l865 1434h1005v-265h-545v-307h463v-264h-463v-334h545v-264h-835v373h-480l-219 -373h-336zM719 621h334v565z" />
    <glyph glyph-name="Ccedilla" unicode="&#xc7;" horiz-adv-x="1515" 
d="M850 231q119 0 215 53t160 144l229 -176q-85 -116 -211 -190.5t-280 -94.5l-179 -297h-258l181 301q-183 32 -325 140t-218 266t-76 340q0 153 56 291.5t154.5 241.5t242 164t309.5 61q190 0 346.5 -78t257.5 -213l-229 -178q-64 91 -160 143.5t-215 52.5
q-201 0 -332 -139t-131 -346t131 -346.5t332 -139.5z" />
    <glyph glyph-name="Egrave" unicode="&#xc8;" horiz-adv-x="1193" 
d="M500 1556l-264 277h299l231 -277h-266zM211 0v1434h836v-248h-545v-332h463v-248h-463v-358h545v-248h-836z" />
    <glyph glyph-name="Eacute" unicode="&#xc9;" horiz-adv-x="1193" 
d="M758 1556h-264l231 277h299zM211 0v1434h836v-248h-545v-332h463v-248h-463v-358h545v-248h-836z" />
    <glyph glyph-name="Ecircumflex" unicode="&#xca;" horiz-adv-x="1193" 
d="M477 1556h-231l233 277h297l230 -277h-232l-147 154zM211 0v1434h836v-248h-545v-332h463v-248h-463v-358h545v-248h-836z" />
    <glyph glyph-name="Edieresis" unicode="&#xcb;" horiz-adv-x="1193" 
d="M406 1559q-62 0 -105 42t-43 103q0 59 43.5 101t104.5 42q57 0 100 -42.5t43 -100.5q0 -61 -42.5 -103t-100.5 -42zM850 1559q-60 0 -102.5 42t-42.5 103q0 59 42.5 101t102.5 42t102.5 -42t42.5 -101q0 -61 -42.5 -103t-102.5 -42zM211 0v1434h836v-248h-545v-332h463
v-248h-463v-358h545v-248h-836z" />
    <glyph glyph-name="Igrave" unicode="&#xcc;" horiz-adv-x="712" 
d="M229 1556l-264 277h299l232 -277h-267zM211 0v1434h291v-1434h-291z" />
    <glyph glyph-name="Iacute" unicode="&#xcd;" horiz-adv-x="712" 
d="M487 1556h-264l232 277h299zM211 0v1434h291v-1434h-291z" />
    <glyph glyph-name="Icircumflex" unicode="&#xce;" horiz-adv-x="712" 
d="M207 1556h-232l234 277h297l229 -277h-231l-148 154zM211 0v1434h291v-1434h-291z" />
    <glyph glyph-name="Idieresis" unicode="&#xcf;" horiz-adv-x="712" 
d="M135 1559q-62 0 -104.5 42t-42.5 103q0 59 43 101t104 42q57 0 100.5 -42.5t43.5 -100.5q0 -61 -43 -103t-101 -42zM580 1559q-60 0 -103 42t-43 103q0 59 43 101t103 42t102.5 -42t42.5 -101q0 -61 -42.5 -103t-102.5 -42zM211 0v1434h291v-1434h-291z" />
    <glyph glyph-name="Eth" unicode="&#xd0;" horiz-adv-x="1626" 
d="M211 0v635h-211v192h211v607h563q167 0 310.5 -57.5t241.5 -155.5t154 -229t56 -275t-56 -275t-154 -229t-241.5 -155.5t-310.5 -57.5h-563zM838 635h-336v-371h276q198 0 328.5 130.5t130.5 322.5q0 193 -130.5 322.5t-328.5 129.5h-276v-342h336v-192z" />
    <glyph glyph-name="Ntilde" unicode="&#xd1;" horiz-adv-x="1726" 
d="M477 1556v70q0 106 62 166.5t161 60.5q40 0 79.5 -12t59 -22.5t66.5 -38.5l27 -19q4 -3 12 -8.5t11 -7.5t9.5 -6t9.5 -5.5t8 -4.5t7.5 -4t7 -3t7.5 -2.5t6.5 -1t7.5 -0.5q41 0 41 54v61h188v-68q0 -109 -61 -169t-160 -60q-42 0 -81.5 12t-61.5 24t-62 38l-30 18
q-5 4 -17 12.5t-16.5 11t-13 8t-13 7t-11 3t-13.5 1.5q-41 0 -41 -53v-62h-189zM211 0v1434h373l641 -1026v1026h291v-1434h-373l-641 1030v-1030h-291z" />
    <glyph glyph-name="Ograve" unicode="&#xd2;" horiz-adv-x="1697" 
d="M723 1556l-264 277h299l231 -277h-266zM850 1475q165 0 308.5 -61t241.5 -164t154 -241.5t56 -291.5t-56 -291.5t-154 -241.5t-241.5 -164t-308.5 -61q-166 0 -309.5 61t-242 164t-154.5 241.5t-56 291.5t56 291.5t154.5 241.5t242 164t309.5 61zM850 231q132 0 237.5 64
t164.5 175t59 247q0 207 -130.5 346t-330.5 139q-201 0 -332 -139t-131 -346t131 -346.5t332 -139.5z" />
    <glyph glyph-name="Oacute" unicode="&#xd3;" horiz-adv-x="1697" 
d="M981 1556h-264l231 277h299zM850 1475q165 0 308.5 -61t241.5 -164t154 -241.5t56 -291.5t-56 -291.5t-154 -241.5t-241.5 -164t-308.5 -61q-166 0 -309.5 61t-242 164t-154.5 241.5t-56 291.5t56 291.5t154.5 241.5t242 164t309.5 61zM850 231q132 0 237.5 64t164.5 175
t59 247q0 207 -130.5 346t-330.5 139q-201 0 -332 -139t-131 -346t131 -346.5t332 -139.5z" />
    <glyph glyph-name="Ocircumflex" unicode="&#xd4;" horiz-adv-x="1697" 
d="M700 1556h-231l233 277h297l230 -277h-232l-147 154zM850 1475q165 0 308.5 -61t241.5 -164t154 -241.5t56 -291.5t-56 -291.5t-154 -241.5t-241.5 -164t-308.5 -61q-166 0 -309.5 61t-242 164t-154.5 241.5t-56 291.5t56 291.5t154.5 241.5t242 164t309.5 61zM850 231
q132 0 237.5 64t164.5 175t59 247q0 207 -130.5 346t-330.5 139q-201 0 -332 -139t-131 -346t131 -346.5t332 -139.5z" />
    <glyph glyph-name="Otilde" unicode="&#xd5;" horiz-adv-x="1697" 
d="M465 1556v70q0 106 62 166.5t161 60.5q40 0 79.5 -12t59 -22.5t66.5 -38.5l27 -19q4 -3 12 -8.5t11 -7.5t9.5 -6t9.5 -5.5t8 -4.5t7.5 -4t7 -3t7.5 -2.5t6.5 -1t7.5 -0.5q41 0 41 54v61h188v-68q0 -109 -61 -169t-160 -60q-42 0 -81.5 12t-61.5 24t-62 38l-31 18
q-5 4 -17 12.5t-16.5 11t-13 8t-13 7t-11 3t-13.5 1.5q-41 0 -41 -53v-62h-188zM850 1475q165 0 308.5 -61t241.5 -164t154 -241.5t56 -291.5t-56 -291.5t-154 -241.5t-241.5 -164t-308.5 -61q-166 0 -309.5 61t-242 164t-154.5 241.5t-56 291.5t56 291.5t154.5 241.5
t242 164t309.5 61zM850 231q132 0 237.5 64t164.5 175t59 247q0 207 -130.5 346t-330.5 139q-201 0 -332 -139t-131 -346t131 -346.5t332 -139.5z" />
    <glyph glyph-name="Odieresis" unicode="&#xd6;" horiz-adv-x="1697" 
d="M629 1559q-62 0 -105 42t-43 103q0 59 43.5 101t104.5 42q57 0 100 -42.5t43 -100.5q0 -61 -42.5 -103t-100.5 -42zM1073 1559q-60 0 -102.5 42t-42.5 103q0 59 42.5 101t102.5 42t103 -42t43 -101q0 -61 -43 -103t-103 -42zM850 1475q165 0 308.5 -61t241.5 -164
t154 -241.5t56 -291.5t-56 -291.5t-154 -241.5t-241.5 -164t-308.5 -61q-166 0 -309.5 61t-242 164t-154.5 241.5t-56 291.5t56 291.5t154.5 241.5t242 164t309.5 61zM850 231q132 0 237.5 64t164.5 175t59 247q0 207 -130.5 346t-330.5 139q-201 0 -332 -139t-131 -346
t131 -346.5t332 -139.5z" />
    <glyph glyph-name="multiply" unicode="&#xd7;" 
d="M973 0l-359 360l-360 -360l-156 158l359 358l-357 358l156 158l358 -358l359 358l157 -155l-360 -361l360 -360z" />
    <glyph glyph-name="Oslash" unicode="&#xd8;" horiz-adv-x="1697" 
d="M356 -41h-268l195 244q-93 102 -144 235t-51 279q0 153 56 291.5t154.5 241.5t242 164t309.5 61q222 0 403 -109l88 109h269l-195 -244q93 -102 144 -235t51 -279q0 -153 -56 -291.5t-154 -241.5t-241.5 -164t-308.5 -61q-224 0 -406 111zM387 717q0 -168 90 -297
l586 731q-94 51 -213 51q-201 0 -332 -139t-131 -346zM850 231q132 0 237.5 64t164.5 175t59 247q0 168 -90 297l-586 -731q99 -52 215 -52z" />
    <glyph glyph-name="Ugrave" unicode="&#xd9;" horiz-adv-x="1501" 
d="M625 1556l-265 277h299l232 -277h-266zM1040 537v897h291v-873q0 -282 -155 -442t-426 -160q-269 0 -424.5 160t-155.5 442v873h291v-897q0 -144 77 -225t214 -81q134 0 211 81t77 225z" />
    <glyph glyph-name="Uacute" unicode="&#xda;" horiz-adv-x="1501" 
d="M883 1556h-265l232 277h299zM1040 537v897h291v-873q0 -282 -155 -442t-426 -160q-269 0 -424.5 160t-155.5 442v873h291v-897q0 -144 77 -225t214 -81q134 0 211 81t77 225z" />
    <glyph glyph-name="Ucircumflex" unicode="&#xdb;" horiz-adv-x="1501" 
d="M602 1556h-231l233 277h297l229 -277h-231l-147 154zM1040 537v897h291v-873q0 -282 -155 -442t-426 -160q-269 0 -424.5 160t-155.5 442v873h291v-897q0 -144 77 -225t214 -81q134 0 211 81t77 225z" />
    <glyph glyph-name="Udieresis" unicode="&#xdc;" horiz-adv-x="1501" 
d="M530 1559q-62 0 -104.5 42t-42.5 103q0 59 43 101t104 42q57 0 100.5 -42.5t43.5 -100.5q0 -61 -43 -103t-101 -42zM975 1559q-60 0 -103 42t-43 103q0 59 43 101t103 42t102.5 -42t42.5 -101q0 -61 -42.5 -103t-102.5 -42zM1040 537v897h291v-873q0 -282 -155 -442
t-426 -160q-269 0 -424.5 160t-155.5 442v873h291v-897q0 -144 77 -225t214 -81q134 0 211 81t77 225z" />
    <glyph glyph-name="Yacute" unicode="&#xdd;" horiz-adv-x="1454" 
d="M856 1556h-264l231 277h299zM1462 1434l-590 -824v-610h-290v604l-592 830h354l383 -541l385 541h350z" />
    <glyph glyph-name="Thorn" unicode="&#xde;" horiz-adv-x="1241" 
d="M211 0v1434h291v-273h182q236 0 372 -114.5t136 -313.5q0 -198 -136 -312t-372 -114h-182v-307h-291zM696 899h-194v-328h194q93 0 145 43.5t52 122.5q0 75 -52.5 118.5t-144.5 43.5z" />
    <glyph glyph-name="germandbls" unicode="&#xdf;" horiz-adv-x="1224" 
d="M668 -8q-53 0 -111 8v246q41 -13 96 -13q99 0 159 58t60 151q0 91 -65.5 151t-167.5 60h-82v246h66q91 0 145.5 55.5t54.5 145.5q0 85 -56.5 138.5t-148.5 53.5q-90 0 -145 -53.5t-55 -140.5v-1098h-262v1098q0 188 124.5 313t333.5 125q222 0 351 -122.5t129 -313.5
q0 -99 -53 -191.5t-138 -128.5q110 -34 175 -136.5t65 -217.5q0 -202 -135.5 -318t-339.5 -116z" />
    <glyph glyph-name="agrave" unicode="&#xe0;" horiz-adv-x="1126" 
d="M426 1196l-246 340h283l211 -340h-248zM451 -41q-157 0 -253 84t-96 229q0 120 89.5 204.5t254.5 111.5l312 53v27q0 81 -55 129.5t-144 48.5q-76 0 -136 -31.5t-95 -91.5l-193 145q70 97 182 151t250 54q216 0 334.5 -113.5t118.5 -291.5v-668h-262v96
q-50 -62 -133.5 -99.5t-173.5 -37.5zM360 283q0 -50 39.5 -82.5t104.5 -32.5q163 0 254 145v142l-244 -43q-154 -25 -154 -129z" />
    <glyph glyph-name="aacute" unicode="&#xe1;" horiz-adv-x="1161" 
d="M715 1196h-250l213 340h283zM451 -41q-157 0 -253 84t-96 229q0 120 89.5 204.5t254.5 111.5l312 53v27q0 81 -55 129.5t-144 48.5q-76 0 -136 -31.5t-95 -91.5l-193 145q70 97 182 151t250 54q216 0 334.5 -113.5t118.5 -291.5v-668h-262v96q-50 -62 -133.5 -99.5
t-173.5 -37.5zM360 283q0 -50 39.5 -82.5t104.5 -32.5q163 0 254 145v142l-244 -43q-154 -25 -154 -129z" />
    <glyph glyph-name="acircumflex" unicode="&#xe2;" horiz-adv-x="1161" 
d="M432 1196h-229l211 340h331l211 -340h-229l-147 219zM451 -41q-157 0 -253 84t-96 229q0 120 89.5 204.5t254.5 111.5l312 53v27q0 81 -55 129.5t-144 48.5q-76 0 -136 -31.5t-95 -91.5l-193 145q70 97 182 151t250 54q216 0 334.5 -113.5t118.5 -291.5v-668h-262v96
q-50 -62 -133.5 -99.5t-173.5 -37.5zM360 283q0 -50 39.5 -82.5t104.5 -32.5q163 0 254 145v142l-244 -43q-154 -25 -154 -129z" />
    <glyph glyph-name="atilde" unicode="&#xe3;" horiz-adv-x="1161" 
d="M965 1536v-76q0 -127 -57 -202.5t-158 -75.5t-199 88l-39 35q-22 22 -32 31t-24.5 16.5t-29.5 7.5q-43 0 -43 -60v-104h-188v88q0 126 56 196t159 70q100 0 198 -88l39 -35q19 -19 24.5 -24t18 -15.5t21.5 -13t20 -2.5q45 0 45 60v104h189zM451 -41q-157 0 -253 84
t-96 229q0 120 89.5 204.5t254.5 111.5l312 53v27q0 81 -55 129.5t-144 48.5q-76 0 -136 -31.5t-95 -91.5l-193 145q70 97 182 151t250 54q216 0 334.5 -113.5t118.5 -291.5v-668h-262v96q-50 -62 -133.5 -99.5t-173.5 -37.5zM360 283q0 -50 39.5 -82.5t104.5 -32.5
q163 0 254 145v142l-244 -43q-154 -25 -154 -129z" />
    <glyph glyph-name="adieresis" unicode="&#xe4;" horiz-adv-x="1161" 
d="M354 1237q-65 0 -112 47t-47 111q0 63 47.5 110t111.5 47q62 0 109 -47t47 -110q0 -64 -47 -111t-109 -47zM807 1237q-63 0 -110.5 47t-47.5 111q0 63 47.5 110t110.5 47t110.5 -47t47.5 -110q0 -64 -47.5 -111t-110.5 -47zM451 -41q-157 0 -253 84t-96 229
q0 120 89.5 204.5t254.5 111.5l312 53v27q0 81 -55 129.5t-144 48.5q-76 0 -136 -31.5t-95 -91.5l-193 145q70 97 182 151t250 54q216 0 334.5 -113.5t118.5 -291.5v-668h-262v96q-50 -62 -133.5 -99.5t-173.5 -37.5zM360 283q0 -50 39.5 -82.5t104.5 -32.5q163 0 254 145
v142l-244 -43q-154 -25 -154 -129z" />
    <glyph glyph-name="aring" unicode="&#xe5;" horiz-adv-x="1161" 
d="M580 1139q-113 0 -191 69.5t-78 180.5q0 108 78 177.5t191 69.5q116 0 193 -69t77 -178q0 -112 -77 -181t-193 -69zM582 1274q53 0 84 31.5t30 83.5q0 51 -32 81t-84 29q-53 0 -85 -31.5t-32 -83.5q1 -51 34.5 -81.5t84.5 -28.5zM451 -41q-157 0 -253 84t-96 229
q0 120 89.5 204.5t254.5 111.5l312 53v27q0 81 -55 129.5t-144 48.5q-76 0 -136 -31.5t-95 -91.5l-193 145q70 97 182 151t250 54q216 0 334.5 -113.5t118.5 -291.5v-668h-262v96q-50 -62 -133.5 -99.5t-173.5 -37.5zM360 283q0 -50 39.5 -82.5t104.5 -32.5q163 0 254 145
v142l-244 -43q-154 -25 -154 -129z" />
    <glyph glyph-name="ae" unicode="&#xe6;" horiz-adv-x="1861" 
d="M455 -41q-155 0 -249.5 84t-94.5 229q0 121 87.5 205.5t247.5 110.5l312 53v27q0 81 -55 129.5t-142 48.5q-77 0 -137.5 -31.5t-95.5 -91.5l-193 145q70 97 182.5 151t251.5 54q229 0 349 -143q140 143 370 143q213 0 344 -129.5t131 -333.5q0 -77 -16 -147h-723
q12 -127 95 -198.5t216 -71.5q83 0 150.5 32.5t109.5 89.5l187 -147q-73 -98 -190 -153.5t-261 -55.5q-156 0 -275 58.5t-194 160.5q-63 -95 -173 -157t-234 -62zM1288 856q-197 0 -248 -197h465q-3 82 -61 139.5t-156 57.5zM365 283q0 -47 37.5 -77t99.5 -30q173 0 278 174
q-12 48 -18 94l-250 -41q-147 -25 -147 -120z" />
    <glyph glyph-name="ccedilla" unicode="&#xe7;" horiz-adv-x="1126" 
d="M651 205q73 0 132.5 32.5t97.5 88.5l206 -158q-69 -91 -170.5 -145.5t-226.5 -61.5l-61 -70q85 -5 143.5 -57t58.5 -127q0 -94 -74 -156.5t-184 -62.5q-149 0 -225 70l90 129q52 -52 121 -52q35 0 57.5 18.5t22.5 51.5q0 30 -23 47t-59 17q-43 0 -86 -21l-78 96l105 131
q-193 46 -304.5 195.5t-111.5 345.5q0 113 39.5 214t111 177.5t180 121t238.5 44.5q138 0 250 -55.5t186 -153.5l-206 -157q-82 120 -234 120q-128 0 -211.5 -88t-83.5 -223q0 -136 84 -223.5t215 -87.5z" />
    <glyph glyph-name="egrave" unicode="&#xe8;" horiz-adv-x="1185" 
d="M485 1196l-245 340h282l211 -340h-248zM1106 168q-73 -98 -190 -153.5t-261 -55.5q-134 0 -244 44.5t-181 121t-109.5 177t-38.5 214.5q0 154 61 279.5t183 201.5t286 76q213 0 344 -129.5t131 -333.5q0 -77 -16 -147h-723q12 -127 95 -198.5t216 -71.5q83 0 151 32.5
t110 89.5zM612 856q-196 0 -247 -197h464q-3 82 -61 139.5t-156 57.5z" />
    <glyph glyph-name="eacute" unicode="&#xe9;" horiz-adv-x="1185" 
d="M756 1196h-250l213 340h282zM1106 168q-73 -98 -190 -153.5t-261 -55.5q-134 0 -244 44.5t-181 121t-109.5 177t-38.5 214.5q0 154 61 279.5t183 201.5t286 76q213 0 344 -129.5t131 -333.5q0 -77 -16 -147h-723q12 -127 95 -198.5t216 -71.5q83 0 151 32.5t110 89.5z
M612 856q-196 0 -247 -197h464q-3 82 -61 139.5t-156 57.5z" />
    <glyph glyph-name="ecircumflex" unicode="&#xea;" horiz-adv-x="1185" 
d="M473 1196h-229l211 340h331l211 -340h-229l-147 219zM1106 168q-73 -98 -190 -153.5t-261 -55.5q-134 0 -244 44.5t-181 121t-109.5 177t-38.5 214.5q0 154 61 279.5t183 201.5t286 76q213 0 344 -129.5t131 -333.5q0 -77 -16 -147h-723q12 -127 95 -198.5t216 -71.5
q83 0 151 32.5t110 89.5zM612 856q-196 0 -247 -197h464q-3 82 -61 139.5t-156 57.5z" />
    <glyph glyph-name="edieresis" unicode="&#xeb;" horiz-adv-x="1185" 
d="M395 1237q-65 0 -112 47t-47 111q0 63 47.5 110t111.5 47q62 0 109 -47t47 -110q0 -64 -47 -111t-109 -47zM848 1237q-63 0 -110.5 47t-47.5 111q0 63 47.5 110t110.5 47t110.5 -47t47.5 -110q0 -64 -47.5 -111t-110.5 -47zM1106 168q-73 -98 -190 -153.5t-261 -55.5
q-134 0 -244 44.5t-181 121t-109.5 177t-38.5 214.5q0 154 61 279.5t183 201.5t286 76q213 0 344 -129.5t131 -333.5q0 -77 -16 -147h-723q12 -127 95 -198.5t216 -71.5q83 0 151 32.5t110 89.5zM612 856q-196 0 -247 -197h464q-3 82 -61 139.5t-156 57.5z" />
    <glyph glyph-name="igrave" unicode="&#xec;" horiz-adv-x="571" 
d="M152 1196l-246 340h282l211 -340h-247zM156 0v1032h260v-1032h-260z" />
    <glyph glyph-name="iacute" unicode="&#xed;" horiz-adv-x="571" 
d="M422 1196h-250l213 340h283zM156 0v1032h260v-1032h-260z" />
    <glyph glyph-name="icircumflex" unicode="&#xee;" horiz-adv-x="571" 
d="M139 1196h-229l211 340h332l211 -340h-230l-147 219zM156 0v1032h260v-1032h-260z" />
    <glyph glyph-name="idieresis" unicode="&#xef;" horiz-adv-x="571" 
d="M61 1237q-65 0 -112 47t-47 111q0 63 47.5 110t111.5 47q62 0 109 -47t47 -110q0 -64 -47 -111t-109 -47zM514 1237q-63 0 -110.5 47t-47.5 111q0 63 47.5 110t110.5 47t110.5 -47t47.5 -110q0 -64 -47.5 -111t-110.5 -47zM156 0v1032h260v-1032h-260z" />
    <glyph glyph-name="eth" unicode="&#xf0;" horiz-adv-x="1290" 
d="M258 1106v197l221 61q-123 89 -258 172h379q92 -52 150 -98l360 98v-197l-201 -55q137 -158 218 -345.5t81 -356.5q0 -181 -65 -321t-192.5 -221t-299.5 -81q-126 0 -233.5 42.5t-180.5 115.5t-114 171.5t-41 209.5q0 240 149.5 392t382.5 152q129 0 232 -67
q-61 115 -189 239zM352 498q0 -130 85 -212.5t210 -82.5q141 0 218 96.5t77 265.5q0 42 -2 60q-114 172 -297 172q-128 0 -209.5 -82.5t-81.5 -216.5z" />
    <glyph glyph-name="ntilde" unicode="&#xf1;" horiz-adv-x="1261" 
d="M1044 1536v-76q0 -127 -57 -202.5t-158 -75.5q-100 0 -198 88l-39 35q-22 22 -32 31t-24.5 16.5t-29.5 7.5q-43 0 -43 -60v-104h-189v88q0 126 56 196t159 70q101 0 199 -88l39 -35q19 -19 24.5 -24t18 -15.5t21.5 -13t20 -2.5q45 0 45 60v104h188zM156 0v1032h260v-82
q127 123 305 123q175 0 288 -119.5t113 -339.5v-614h-264v604q0 103 -54 163t-149 60q-149 0 -239 -153v-674h-260z" />
    <glyph glyph-name="ograve" unicode="&#xf2;" horiz-adv-x="1294" 
d="M512 1196l-246 340h283l211 -340h-248zM647 1073q164 0 294 -74.5t200.5 -201.5t70.5 -281t-70.5 -281t-200.5 -201.5t-294 -74.5t-294 74.5t-200.5 201.5t-70.5 281t70.5 281t200.5 201.5t294 74.5zM651 205q125 0 208 89t83 222q0 135 -83 223t-208 88q-129 0 -214 -88
t-85 -223t85 -223t214 -88z" />
    <glyph glyph-name="oacute" unicode="&#xf3;" horiz-adv-x="1294" 
d="M782 1196h-250l213 340h283zM647 1073q164 0 294 -74.5t200.5 -201.5t70.5 -281t-70.5 -281t-200.5 -201.5t-294 -74.5t-294 74.5t-200.5 201.5t-70.5 281t70.5 281t200.5 201.5t294 74.5zM651 205q125 0 208 89t83 222q0 135 -83 223t-208 88q-129 0 -214 -88t-85 -223
t85 -223t214 -88z" />
    <glyph glyph-name="ocircumflex" unicode="&#xf4;" horiz-adv-x="1294" 
d="M500 1196h-230l211 340h332l211 -340h-229l-148 219zM647 1073q164 0 294 -74.5t200.5 -201.5t70.5 -281t-70.5 -281t-200.5 -201.5t-294 -74.5t-294 74.5t-200.5 201.5t-70.5 281t70.5 281t200.5 201.5t294 74.5zM651 205q125 0 208 89t83 222q0 135 -83 223t-208 88
q-129 0 -214 -88t-85 -223t85 -223t214 -88z" />
    <glyph glyph-name="otilde" unicode="&#xf5;" horiz-adv-x="1294" 
d="M1032 1536v-76q0 -127 -57 -202.5t-158 -75.5t-199 88l-38 35q-22 22 -32 31t-24.5 16.5t-29.5 7.5q-43 0 -43 -60v-104h-189v88q0 126 56 196t159 70q101 0 199 -88l39 -35q19 -19 24.5 -24t18 -15.5t21.5 -13t20 -2.5q45 0 45 60v104h188zM647 1073q164 0 294 -74.5
t200.5 -201.5t70.5 -281t-70.5 -281t-200.5 -201.5t-294 -74.5t-294 74.5t-200.5 201.5t-70.5 281t70.5 281t200.5 201.5t294 74.5zM651 205q125 0 208 89t83 222q0 135 -83 223t-208 88q-129 0 -214 -88t-85 -223t85 -223t214 -88z" />
    <glyph glyph-name="odieresis" unicode="&#xf6;" horiz-adv-x="1294" 
d="M422 1237q-65 0 -112.5 47t-47.5 111q0 63 48 110t112 47q62 0 109 -47t47 -110q0 -64 -47 -111t-109 -47zM874 1237q-63 0 -110 47t-47 111q0 63 47 110t110 47t110.5 -47t47.5 -110q0 -64 -47.5 -111t-110.5 -47zM647 1073q164 0 294 -74.5t200.5 -201.5t70.5 -281
t-70.5 -281t-200.5 -201.5t-294 -74.5t-294 74.5t-200.5 201.5t-70.5 281t70.5 281t200.5 201.5t294 74.5zM651 205q125 0 208 89t83 222q0 135 -83 223t-208 88q-129 0 -214 -88t-85 -223t85 -223t214 -88z" />
    <glyph glyph-name="divide" unicode="&#xf7;" 
d="M614 776q-60 0 -103.5 43.5t-43.5 102.5q0 60 43.5 103.5t103.5 43.5t103 -43.5t43 -103.5q0 -59 -43 -102.5t-103 -43.5zM1128 406h-1030v221h1030v-221zM614 -37q-60 0 -103.5 43.5t-43.5 102.5q0 60 43.5 102.5t103.5 42.5t103 -42.5t43 -102.5q0 -59 -43 -102.5
t-103 -43.5z" />
    <glyph glyph-name="oslash" unicode="&#xf8;" horiz-adv-x="1294" 
d="M344 -41h-262l139 182q-139 155 -139 375q0 154 70.5 281t200.5 201.5t294 74.5q143 0 260 -57l43 57h262l-137 -182q137 -156 137 -375q0 -154 -70.5 -281t-200.5 -201.5t-294 -74.5q-143 0 -260 57zM352 516q0 -93 41 -164l348 461q-41 14 -90 14q-129 0 -214 -88
t-85 -223zM651 205q125 0 208 89t83 222q0 93 -41 164l-346 -461q43 -14 96 -14z" />
    <glyph glyph-name="ugrave" unicode="&#xf9;" horiz-adv-x="1230" 
d="M481 1196l-245 340h282l211 -340h-248zM836 446v586h262v-573q0 -232 -128.5 -366t-355.5 -134q-226 0 -353.5 133.5t-127.5 366.5v573h262v-586q0 -114 57.5 -177.5t163.5 -63.5q105 0 162.5 64t57.5 177z" />
    <glyph glyph-name="uacute" unicode="&#xfa;" horiz-adv-x="1230" 
d="M752 1196h-250l213 340h282zM836 446v586h262v-573q0 -232 -128.5 -366t-355.5 -134q-226 0 -353.5 133.5t-127.5 366.5v573h262v-586q0 -114 57.5 -177.5t163.5 -63.5q105 0 162.5 64t57.5 177z" />
    <glyph glyph-name="ucircumflex" unicode="&#xfb;" horiz-adv-x="1230" 
d="M469 1196h-229l211 340h331l211 -340h-229l-148 219zM836 446v586h262v-573q0 -232 -128.5 -366t-355.5 -134q-226 0 -353.5 133.5t-127.5 366.5v573h262v-586q0 -114 57.5 -177.5t163.5 -63.5q105 0 162.5 64t57.5 177z" />
    <glyph glyph-name="udieresis" unicode="&#xfc;" horiz-adv-x="1230" 
d="M391 1237q-65 0 -112.5 47t-47.5 111q0 63 48 110t112 47q62 0 109 -47t47 -110q0 -64 -47 -111t-109 -47zM844 1237q-63 0 -110.5 47t-47.5 111q0 63 47.5 110t110.5 47t110 -47t47 -110q0 -64 -47 -111t-110 -47zM836 446v586h262v-573q0 -232 -128.5 -366t-355.5 -134
q-226 0 -353.5 133.5t-127.5 366.5v573h262v-586q0 -114 57.5 -177.5t163.5 -63.5q105 0 162.5 64t57.5 177z" />
    <glyph glyph-name="yacute" unicode="&#xfd;" horiz-adv-x="1146" 
d="M709 1196h-250l213 340h282zM618 -236q-57 -134 -150 -205t-235 -71q-103 0 -184 33v229q57 -24 127 -24q79 0 128.5 31.5t80.5 107.5l57 137l-434 1030h289l283 -694l284 694h275z" />
    <glyph glyph-name="thorn" unicode="&#xfe;" horiz-adv-x="1343" 
d="M156 -504v2026h260v-564q127 115 321 115q120 0 220 -44.5t166 -121t102.5 -177.5t36.5 -214t-36.5 -214t-102.5 -177.5t-166 -121t-220 -44.5q-194 0 -321 115v-578h-260zM418 360q106 -155 282 -155q131 0 211 87.5t80 223.5t-80 223.5t-211 87.5q-176 0 -282 -155
l-2 2v-316z" />
    <glyph glyph-name="ydieresis" unicode="&#xff;" horiz-adv-x="1146" 
d="M348 1237q-65 0 -112.5 47t-47.5 111q0 63 48 110t112 47q62 0 109 -47t47 -110q0 -64 -47 -111t-109 -47zM801 1237q-63 0 -110.5 47t-47.5 111q0 63 47.5 110t110.5 47t110 -47t47 -110q0 -64 -47 -111t-110 -47zM618 -236q-57 -134 -150 -205t-235 -71q-103 0 -184 33
v229q57 -24 127 -24q79 0 128.5 31.5t80.5 107.5l57 137l-434 1030h289l283 -694l284 694h275z" />
    <glyph glyph-name="Amacron" unicode="&#x100;" horiz-adv-x="1527" 
d="M406 1606v190h716v-190h-716zM31 0l542 1434h381l543 -1434h-309l-137 373h-574l-137 -373h-309zM567 621h394l-197 538z" />
    <glyph glyph-name="amacron" unicode="&#x101;" horiz-adv-x="1161" 
d="M221 1270v192h717v-192h-717zM451 -41q-157 0 -253 84t-96 229q0 120 89.5 204.5t254.5 111.5l312 53v27q0 81 -55 129.5t-144 48.5q-76 0 -136 -31.5t-95 -91.5l-193 145q70 97 182 151t250 54q216 0 334.5 -113.5t118.5 -291.5v-668h-262v96q-50 -62 -133.5 -99.5
t-173.5 -37.5zM360 283q0 -50 39.5 -82.5t104.5 -32.5q163 0 254 145v142l-244 -43q-154 -25 -154 -129z" />
    <glyph glyph-name="Abreve" unicode="&#x102;" horiz-adv-x="1527" 
d="M764 1712q158 0 168 121h213q0 -142 -102.5 -219.5t-278.5 -77.5q-175 0 -278 77.5t-103 219.5h213q13 -121 168 -121zM31 0l542 1434h381l543 -1434h-309l-137 373h-574l-137 -373h-309zM567 621h394l-197 538z" />
    <glyph glyph-name="abreve" unicode="&#x103;" horiz-adv-x="1161" 
d="M580 1372q78 0 117.5 43t39.5 121h213q0 -162 -99 -251t-271 -89q-173 0 -273 88.5t-100 251.5h215q0 -78 40 -121t118 -43zM451 -41q-157 0 -253 84t-96 229q0 120 89.5 204.5t254.5 111.5l312 53v27q0 81 -55 129.5t-144 48.5q-76 0 -136 -31.5t-95 -91.5l-193 145
q70 97 182 151t250 54q216 0 334.5 -113.5t118.5 -291.5v-668h-262v96q-50 -62 -133.5 -99.5t-173.5 -37.5zM360 283q0 -50 39.5 -82.5t104.5 -32.5q163 0 254 145v142l-244 -43q-154 -25 -154 -129z" />
    <glyph glyph-name="Aogonek" unicode="&#x104;" horiz-adv-x="1527" 
d="M31 0l542 1434h381l543 -1434h-43l-119 -74q-78 -50 -109.5 -86t-31.5 -73q0 -95 121 -95q83 0 139 27v-172q-78 -31 -180 -31q-136 0 -213.5 70t-77.5 164q0 152 172 250l35 20h-2l-137 373h-574l-137 -373h-309zM567 621h394l-197 538z" />
    <glyph glyph-name="aogonek" unicode="&#x105;" horiz-adv-x="1161" 
d="M451 -41q-157 0 -253 84t-96 229q0 120 89.5 204.5t254.5 111.5l312 53v27q0 81 -55 129.5t-144 48.5q-76 0 -136 -31.5t-95 -91.5l-193 145q70 97 182 151t250 54q216 0 334.5 -113.5t118.5 -291.5v-668l-119 -74q-78 -50 -109.5 -86t-31.5 -73q0 -95 121 -95
q83 0 139 27v-172q-78 -31 -180 -31q-136 0 -213.5 70t-77.5 164q0 152 172 250l37 22v94q-50 -62 -133.5 -99.5t-173.5 -37.5zM360 283q0 -50 39.5 -82.5t104.5 -32.5q163 0 254 145v142l-244 -43q-154 -25 -154 -129z" />
    <glyph glyph-name="Cacute" unicode="&#x106;" horiz-adv-x="1515" 
d="M981 1556h-264l231 277h299zM850 231q119 0 215 53t160 144l229 -176q-101 -137 -257 -215t-347 -78q-166 0 -309.5 61t-242 164t-154.5 241.5t-56 291.5t56 291.5t154.5 241.5t242 164t309.5 61q190 0 346.5 -78t257.5 -213l-229 -178q-64 91 -160 143.5t-215 52.5
q-201 0 -332 -139t-131 -346t131 -346.5t332 -139.5z" />
    <glyph glyph-name="cacute" unicode="&#x107;" horiz-adv-x="1126" 
d="M784 1196h-249l213 340h282zM651 205q73 0 132.5 32.5t97.5 88.5l206 -158q-74 -98 -186 -153.5t-250 -55.5q-130 0 -238.5 44.5t-180 121t-111 177.5t-39.5 214t39.5 214t111 177.5t180 121t238.5 44.5q138 0 250 -55.5t186 -153.5l-206 -157q-82 120 -234 120
q-128 0 -211.5 -88t-83.5 -223q0 -136 84 -223.5t215 -87.5z" />
    <glyph glyph-name="Ccircumflex" unicode="&#x108;" horiz-adv-x="1515" 
d="M700 1556h-231l233 277h297l230 -277h-232l-147 154zM850 231q119 0 215 53t160 144l229 -176q-101 -137 -257 -215t-347 -78q-166 0 -309.5 61t-242 164t-154.5 241.5t-56 291.5t56 291.5t154.5 241.5t242 164t309.5 61q190 0 346.5 -78t257.5 -213l-229 -178
q-64 91 -160 143.5t-215 52.5q-201 0 -332 -139t-131 -346t131 -346.5t332 -139.5z" />
    <glyph glyph-name="ccircumflex" unicode="&#x109;" horiz-adv-x="1126" 
d="M502 1196h-230l211 340h332l211 -340h-229l-148 219zM651 205q73 0 132.5 32.5t97.5 88.5l206 -158q-74 -98 -186 -153.5t-250 -55.5q-130 0 -238.5 44.5t-180 121t-111 177.5t-39.5 214t39.5 214t111 177.5t180 121t238.5 44.5q138 0 250 -55.5t186 -153.5l-206 -157
q-82 120 -234 120q-128 0 -211.5 -88t-83.5 -223q0 -136 84 -223.5t215 -87.5z" />
    <glyph glyph-name="Cdotaccent" unicode="&#x10a;" horiz-adv-x="1515" 
d="M850 1559q-62 0 -105 42t-43 103q0 59 43.5 101t104.5 42q58 0 100.5 -42.5t42.5 -100.5q0 -61 -42 -103t-101 -42zM850 231q119 0 215 53t160 144l229 -176q-101 -137 -257 -215t-347 -78q-166 0 -309.5 61t-242 164t-154.5 241.5t-56 291.5t56 291.5t154.5 241.5
t242 164t309.5 61q190 0 346.5 -78t257.5 -213l-229 -178q-64 91 -160 143.5t-215 52.5q-201 0 -332 -139t-131 -346t131 -346.5t332 -139.5z" />
    <glyph glyph-name="cdotaccent" unicode="&#x10b;" horiz-adv-x="1126" 
d="M649 1212q-70 0 -121 50.5t-51 119.5t51 119.5t121 50.5q69 0 119.5 -50.5t50.5 -119.5t-50.5 -119.5t-119.5 -50.5zM651 205q73 0 132.5 32.5t97.5 88.5l206 -158q-74 -98 -186 -153.5t-250 -55.5q-130 0 -238.5 44.5t-180 121t-111 177.5t-39.5 214t39.5 214t111 177.5
t180 121t238.5 44.5q138 0 250 -55.5t186 -153.5l-206 -157q-82 120 -234 120q-128 0 -211.5 -88t-83.5 -223q0 -136 84 -223.5t215 -87.5z" />
    <glyph glyph-name="Ccaron" unicode="&#x10c;" horiz-adv-x="1515" 
d="M700 1833l150 -154l147 154h232l-230 -277h-297l-233 277h231zM850 231q119 0 215 53t160 144l229 -176q-101 -137 -257 -215t-347 -78q-166 0 -309.5 61t-242 164t-154.5 241.5t-56 291.5t56 291.5t154.5 241.5t242 164t309.5 61q190 0 346.5 -78t257.5 -213l-229 -178
q-64 91 -160 143.5t-215 52.5q-201 0 -332 -139t-131 -346t131 -346.5t332 -139.5z" />
    <glyph glyph-name="ccaron" unicode="&#x10d;" horiz-adv-x="1126" 
d="M502 1536l147 -219l148 219h229l-211 -340h-332l-211 340h230zM651 205q73 0 132.5 32.5t97.5 88.5l206 -158q-74 -98 -186 -153.5t-250 -55.5q-130 0 -238.5 44.5t-180 121t-111 177.5t-39.5 214t39.5 214t111 177.5t180 121t238.5 44.5q138 0 250 -55.5t186 -153.5
l-206 -157q-82 120 -234 120q-128 0 -211.5 -88t-83.5 -223q0 -136 84 -223.5t215 -87.5z" />
    <glyph glyph-name="Dcaron" unicode="&#x10e;" horiz-adv-x="1626" 
d="M662 1833l149 -154l147 154h232l-229 -277h-297l-234 277h232zM211 0v1434h563q167 0 310.5 -57.5t241.5 -155.5t154 -229t56 -275t-56 -275t-154 -229t-241.5 -155.5t-310.5 -57.5h-563zM778 1169h-276v-905h276q198 0 328.5 130.5t130.5 322.5q0 193 -130.5 322.5
t-328.5 129.5z" />
    <glyph glyph-name="dcaron" unicode="&#x10f;" horiz-adv-x="1323" 
d="M82 516q0 152 62 277.5t183 202.5t279 77q192 0 320 -112v575h262v-1536h-262v72q-129 -113 -320 -113q-158 0 -279 77t-183 202.5t-62 277.5zM1436 1155h-215l170 381h268zM354 516q0 -137 79.5 -224t209.5 -87q179 0 283 153v316q-105 153 -283 153q-130 0 -209.5 -87
t-79.5 -224z" />
    <glyph glyph-name="Dcroat" unicode="&#x110;" horiz-adv-x="1626" 
d="M211 0v635h-211v192h211v607h563q167 0 310.5 -57.5t241.5 -155.5t154 -229t56 -275t-56 -275t-154 -229t-241.5 -155.5t-310.5 -57.5h-563zM838 635h-336v-371h276q198 0 328.5 130.5t130.5 322.5q0 193 -130.5 322.5t-328.5 129.5h-276v-342h336v-192z" />
    <glyph glyph-name="dcroat" unicode="&#x111;" horiz-adv-x="1343" 
d="M82 516q0 152 62 277.5t183 202.5t279 77q192 0 320 -112v208h-381v193h381v174h262v-174h155v-193h-155v-1169h-262v72q-129 -113 -320 -113q-158 0 -279 77t-183 202.5t-62 277.5zM354 516q0 -137 79.5 -224t209.5 -87q179 0 283 153v316q-105 153 -283 153
q-130 0 -209.5 -87t-79.5 -224z" />
    <glyph glyph-name="Emacron" unicode="&#x112;" horiz-adv-x="1193" 
d="M268 1606v190h717v-190h-717zM211 0v1434h836v-248h-545v-332h463v-248h-463v-358h545v-248h-836z" />
    <glyph glyph-name="emacron" unicode="&#x113;" horiz-adv-x="1185" 
d="M262 1270v192h717v-192h-717zM1106 168q-73 -98 -190 -153.5t-261 -55.5q-134 0 -244 44.5t-181 121t-109.5 177t-38.5 214.5q0 154 61 279.5t183 201.5t286 76q213 0 344 -129.5t131 -333.5q0 -77 -16 -147h-723q12 -127 95 -198.5t216 -71.5q83 0 151 32.5t110 89.5z
M612 856q-196 0 -247 -197h464q-3 82 -61 139.5t-156 57.5z" />
    <glyph glyph-name="Ebreve" unicode="&#x114;" horiz-adv-x="1193" 
d="M627 1712q158 0 168 121h213q0 -142 -102.5 -219.5t-278.5 -77.5q-175 0 -278 77.5t-103 219.5h213q13 -121 168 -121zM211 0v1434h836v-248h-545v-332h463v-248h-463v-358h545v-248h-836z" />
    <glyph glyph-name="ebreve" unicode="&#x115;" horiz-adv-x="1185" 
d="M621 1372q78 0 117.5 43t39.5 121h213q0 -162 -99 -251t-271 -89q-173 0 -273 88.5t-100 251.5h215q0 -78 40 -121t118 -43zM1106 168q-73 -98 -190 -153.5t-261 -55.5q-134 0 -244 44.5t-181 121t-109.5 177t-38.5 214.5q0 154 61 279.5t183 201.5t286 76
q213 0 344 -129.5t131 -333.5q0 -77 -16 -147h-723q12 -127 95 -198.5t216 -71.5q83 0 151 32.5t110 89.5zM612 856q-196 0 -247 -197h464q-3 82 -61 139.5t-156 57.5z" />
    <glyph glyph-name="Edotaccent" unicode="&#x116;" horiz-adv-x="1193" 
d="M627 1559q-62 0 -105 42t-43 103q0 59 43.5 101t104.5 42q59 0 101 -42.5t42 -100.5q0 -61 -42 -103t-101 -42zM211 0v1434h836v-248h-545v-332h463v-248h-463v-358h545v-248h-836z" />
    <glyph glyph-name="edotaccent" unicode="&#x117;" horiz-adv-x="1185" 
d="M621 1212q-70 0 -121 50.5t-51 119.5t51 119.5t121 50.5q69 0 119.5 -50.5t50.5 -119.5t-50.5 -119.5t-119.5 -50.5zM1106 168q-73 -98 -190 -153.5t-261 -55.5q-134 0 -244 44.5t-181 121t-109.5 177t-38.5 214.5q0 154 61 279.5t183 201.5t286 76q213 0 344 -129.5
t131 -333.5q0 -77 -16 -147h-723q12 -127 95 -198.5t216 -71.5q83 0 151 32.5t110 89.5zM612 856q-196 0 -247 -197h464q-3 82 -61 139.5t-156 57.5z" />
    <glyph glyph-name="Eogonek" unicode="&#x118;" horiz-adv-x="1193" 
d="M211 0v1434h836v-248h-545v-332h463v-248h-463v-358h545v-248l-119 -74q-79 -51 -110.5 -86.5t-31.5 -72.5q0 -95 121 -95q84 0 140 27v-172q-78 -31 -181 -31q-136 0 -213.5 70t-77.5 164q0 152 173 250l34 20h-571z" />
    <glyph glyph-name="eogonek" unicode="&#x119;" horiz-adv-x="1185" 
d="M410 -270q0 139 149 235q-223 30 -350 184.5t-127 366.5q0 154 61 279.5t183 201.5t286 76q213 0 344 -129.5t131 -333.5q0 -77 -16 -147h-723q12 -127 95 -198.5t216 -71.5q83 0 151 32.5t110 89.5l186 -147q-80 -111 -227 -170l-117 -72q-78 -50 -109.5 -86t-31.5 -73
q0 -95 120 -95q84 0 140 27v-172q-77 -31 -181 -31q-136 0 -213 70t-77 164zM612 856q-196 0 -247 -197h464q-3 82 -61 139.5t-156 57.5z" />
    <glyph glyph-name="Ecaron" unicode="&#x11a;" horiz-adv-x="1193" 
d="M477 1833l150 -154l147 154h232l-230 -277h-297l-233 277h231zM211 0v1434h836v-248h-545v-332h463v-248h-463v-358h545v-248h-836z" />
    <glyph glyph-name="ecaron" unicode="&#x11b;" horiz-adv-x="1185" 
d="M473 1536l148 -219l147 219h229l-211 -340h-331l-211 340h229zM1106 168q-73 -98 -190 -153.5t-261 -55.5q-134 0 -244 44.5t-181 121t-109.5 177t-38.5 214.5q0 154 61 279.5t183 201.5t286 76q213 0 344 -129.5t131 -333.5q0 -77 -16 -147h-723q12 -127 95 -198.5
t216 -71.5q83 0 151 32.5t110 89.5zM612 856q-196 0 -247 -197h464q-3 82 -61 139.5t-156 57.5z" />
    <glyph glyph-name="Gcircumflex" unicode="&#x11c;" horiz-adv-x="1628" 
d="M700 1556h-231l233 277h297l230 -277h-232l-147 154zM870 231q203 0 334 125v242h-364v264h655v-610q-102 -136 -265 -214.5t-360 -78.5q-170 0 -317.5 61t-248.5 164t-158.5 241.5t-57.5 291.5t56 291.5t154.5 241.5t242 164t309.5 61q190 0 346.5 -78t257.5 -213
l-229 -178q-64 91 -160 143.5t-215 52.5q-201 0 -332 -139t-131 -346t137 -346.5t346 -139.5z" />
    <glyph glyph-name="gcircumflex" unicode="&#x11d;" horiz-adv-x="1142" 
d="M403 1196h-229l211 340h332l211 -340h-230l-147 219zM53 -180q0 147 144 250q-64 67 -64 151q0 122 113 205q-67 51 -103.5 125t-36.5 160q0 155 112.5 258.5t301.5 103.5q119 0 209 -41h377v-221h-182q14 -46 14 -100q0 -158 -112.5 -262.5t-305.5 -104.5q-57 0 -98 8
q-35 -30 -35 -65q0 -62 70 -62h260q190 0 295.5 -91t105.5 -240q0 -180 -146.5 -293t-393.5 -113q-250 0 -387.5 85.5t-137.5 246.5zM524 541q81 0 129.5 46.5t48.5 123.5t-48 122.5t-130 45.5q-84 0 -132 -46t-48 -122q0 -77 48 -123.5t132 -46.5zM299 -143
q0 -75 71 -117.5t205 -42.5q138 0 211.5 46.5t73.5 125.5q0 133 -172 133h-295q-94 -54 -94 -145z" />
    <glyph glyph-name="Gbreve" unicode="&#x11e;" horiz-adv-x="1628" 
d="M850 1712q158 0 168 121h213q0 -142 -102.5 -219.5t-278.5 -77.5q-175 0 -278 77.5t-103 219.5h213q13 -121 168 -121zM870 231q203 0 334 125v242h-364v264h655v-610q-102 -136 -265 -214.5t-360 -78.5q-170 0 -317.5 61t-248.5 164t-158.5 241.5t-57.5 291.5t56 291.5
t154.5 241.5t242 164t309.5 61q190 0 346.5 -78t257.5 -213l-229 -178q-64 91 -160 143.5t-215 52.5q-201 0 -332 -139t-131 -346t137 -346.5t346 -139.5z" />
    <glyph glyph-name="gbreve" unicode="&#x11f;" horiz-adv-x="1142" 
d="M551 1372q78 0 118 43t40 121h213q0 -162 -99.5 -251t-271.5 -89q-173 0 -273 88.5t-100 251.5h215q0 -78 40 -121t118 -43zM53 -180q0 147 144 250q-64 67 -64 151q0 122 113 205q-67 51 -103.5 125t-36.5 160q0 155 112.5 258.5t301.5 103.5q119 0 209 -41h377v-221
h-182q14 -46 14 -100q0 -158 -112.5 -262.5t-305.5 -104.5q-57 0 -98 8q-35 -30 -35 -65q0 -62 70 -62h260q190 0 295.5 -91t105.5 -240q0 -180 -146.5 -293t-393.5 -113q-250 0 -387.5 85.5t-137.5 246.5zM524 541q81 0 129.5 46.5t48.5 123.5t-48 122.5t-130 45.5
q-84 0 -132 -46t-48 -122q0 -77 48 -123.5t132 -46.5zM299 -143q0 -75 71 -117.5t205 -42.5q138 0 211.5 46.5t73.5 125.5q0 133 -172 133h-295q-94 -54 -94 -145z" />
    <glyph glyph-name="Gdotaccent" unicode="&#x120;" horiz-adv-x="1628" 
d="M850 1559q-62 0 -105 42t-43 103q0 59 43.5 101t104.5 42q58 0 100.5 -42.5t42.5 -100.5q0 -61 -42 -103t-101 -42zM870 231q203 0 334 125v242h-364v264h655v-610q-102 -136 -265 -214.5t-360 -78.5q-170 0 -317.5 61t-248.5 164t-158.5 241.5t-57.5 291.5t56 291.5
t154.5 241.5t242 164t309.5 61q190 0 346.5 -78t257.5 -213l-229 -178q-64 91 -160 143.5t-215 52.5q-201 0 -332 -139t-131 -346t137 -346.5t346 -139.5z" />
    <glyph glyph-name="gdotaccent" unicode="&#x121;" horiz-adv-x="1142" 
d="M551 1212q-70 0 -121 50.5t-51 119.5t51 119.5t121 50.5q69 0 119.5 -50.5t50.5 -119.5t-50.5 -119.5t-119.5 -50.5zM53 -180q0 147 144 250q-64 67 -64 151q0 122 113 205q-67 51 -103.5 125t-36.5 160q0 155 112.5 258.5t301.5 103.5q119 0 209 -41h377v-221h-182
q14 -46 14 -100q0 -158 -112.5 -262.5t-305.5 -104.5q-57 0 -98 8q-35 -30 -35 -65q0 -62 70 -62h260q190 0 295.5 -91t105.5 -240q0 -180 -146.5 -293t-393.5 -113q-250 0 -387.5 85.5t-137.5 246.5zM524 541q81 0 129.5 46.5t48.5 123.5t-48 122.5t-130 45.5
q-84 0 -132 -46t-48 -122q0 -77 48 -123.5t132 -46.5zM299 -143q0 -75 71 -117.5t205 -42.5q138 0 211.5 46.5t73.5 125.5q0 133 -172 133h-295q-94 -54 -94 -145z" />
    <glyph glyph-name="Gcedilla" unicode="&#x122;" horiz-adv-x="1628" 
d="M870 231q203 0 334 125v242h-364v264h655v-610q-102 -136 -265 -214.5t-360 -78.5q-170 0 -317.5 61t-248.5 164t-158.5 241.5t-57.5 291.5t56 291.5t154.5 241.5t242 164t309.5 61q190 0 346.5 -78t257.5 -213l-229 -178q-64 91 -160 143.5t-215 52.5q-201 0 -332 -139
t-131 -346t137 -346.5t346 -139.5zM778 -504h-250l213 340h283z" />
    <glyph glyph-name="gcedilla" unicode="&#x123;" horiz-adv-x="1142" 
d="M682 1536h248l-211 -340h-283zM53 -180q0 147 144 250q-64 67 -64 151q0 122 113 205q-67 51 -103.5 125t-36.5 160q0 155 112.5 258.5t301.5 103.5q119 0 209 -41h377v-221h-182q14 -46 14 -100q0 -158 -112.5 -262.5t-305.5 -104.5q-57 0 -98 8q-35 -30 -35 -65
q0 -62 70 -62h260q190 0 295.5 -91t105.5 -240q0 -180 -146.5 -293t-393.5 -113q-250 0 -387.5 85.5t-137.5 246.5zM524 541q81 0 129.5 46.5t48.5 123.5t-48 122.5t-130 45.5q-84 0 -132 -46t-48 -122q0 -77 48 -123.5t132 -46.5zM299 -143q0 -75 71 -117.5t205 -42.5
q138 0 211.5 46.5t73.5 125.5q0 133 -172 133h-295q-94 -54 -94 -145z" />
    <glyph glyph-name="Hcircumflex" unicode="&#x124;" horiz-adv-x="1726" 
d="M713 1556h-232l234 277h297l229 -277h-231l-148 154zM211 0v1434h291v-572h723v572h291v-1434h-291v598h-723v-598h-291z" />
    <glyph glyph-name="hcircumflex" unicode="&#x125;" horiz-adv-x="1261" 
d="M477 1659h-231l233 276h297l230 -276h-232l-147 153zM156 0v1536h260v-586q127 123 305 123q175 0 288 -119.5t113 -339.5v-614h-264v604q0 104 -53.5 163.5t-149.5 59.5q-149 0 -239 -153v-674h-260z" />
    <glyph glyph-name="Hbar" unicode="&#x126;" horiz-adv-x="1726" 
d="M211 0v1040h-211v195h211v199h291v-199h723v199h291v-199h210v-195h-210v-1040h-291v598h-723v-598h-291zM502 862h723v178h-723v-178z" />
    <glyph glyph-name="hbar" unicode="&#x127;" horiz-adv-x="1261" 
d="M156 0v1169h-156v193h156v174h260v-174h364v-193h-364v-219q127 123 305 123q175 0 288 -119.5t113 -339.5v-614h-264v604q0 104 -53.5 163.5t-149.5 59.5q-149 0 -239 -153v-674h-260z" />
    <glyph glyph-name="Itilde" unicode="&#x128;" horiz-adv-x="712" 
d="M-29 1556v70q0 106 62.5 166.5t161.5 60.5q40 0 79.5 -12.5t58 -22.5t66.5 -38l27 -19q4 -3 12 -8.5t11 -7.5t9.5 -6t9.5 -5.5t8 -4.5t7.5 -4t7 -3t7.5 -2.5t6.5 -1t7.5 -0.5q41 0 41 54v61h188v-68q0 -109 -61 -169t-160 -60q-42 0 -81.5 12t-61.5 24t-62 38l-30 18
q-5 4 -17 12.5t-16.5 11t-13 8t-13 7t-11 3t-13.5 1.5q-41 0 -41 -53v-62h-189zM211 0v1434h291v-1434h-291z" />
    <glyph glyph-name="itilde" unicode="&#x129;" horiz-adv-x="571" 
d="M672 1536v-76q0 -127 -57 -202.5t-158 -75.5t-199 88l-39 35q-22 22 -32 31t-24.5 16.5t-29.5 7.5q-43 0 -43 -60v-104h-188v88q0 126 56 196t159 70q100 0 198 -88l39 -35q19 -19 24.5 -24t18 -15.5t21.5 -13t20 -2.5q45 0 45 60v104h189zM156 0v1032h260v-1032h-260z
" />
    <glyph glyph-name="Imacron" unicode="&#x12a;" horiz-adv-x="712" 
d="M-2 1606v190h717v-190h-717zM211 0v1434h291v-1434h-291z" />
    <glyph glyph-name="imacron" unicode="&#x12b;" horiz-adv-x="571" 
d="M-72 1270v192h717v-192h-717zM156 0v1032h260v-1032h-260z" />
    <glyph glyph-name="Ibreve" unicode="&#x12c;" horiz-adv-x="712" 
d="M356 1712q158 0 168 121h213q0 -142 -102.5 -219.5t-278.5 -77.5q-175 0 -278 77.5t-103 219.5h213q13 -121 168 -121zM211 0v1434h291v-1434h-291z" />
    <glyph glyph-name="ibreve" unicode="&#x12d;" horiz-adv-x="571" 
d="M287 1372q78 0 117.5 43t39.5 121h213q0 -162 -99 -251t-271 -89q-173 0 -273 88.5t-100 251.5h215q0 -78 40 -121t118 -43zM156 0v1032h260v-1032h-260z" />
    <glyph glyph-name="Iogonek" unicode="&#x12e;" horiz-adv-x="712" 
d="M211 0v1434h291v-1434h-27l-119 -74q-78 -50 -109.5 -86t-31.5 -73q0 -95 121 -95q83 0 139 27v-172q-77 -31 -180 -31q-136 0 -213.5 70t-77.5 164q0 152 172 250z" />
    <glyph glyph-name="iogonek" unicode="&#x12f;" horiz-adv-x="571" 
d="M287 1212q-69 0 -119.5 50.5t-50.5 119.5t50.5 119.5t119.5 50.5t118.5 -50.5t49.5 -119.5t-49.5 -119.5t-118.5 -50.5zM-55 -270q0 152 172 250l39 22v1030h260v-1032l-119 -74q-78 -50 -109.5 -86t-31.5 -73q0 -95 120 -95q84 0 140 27v-172q-78 -31 -180 -31
q-136 0 -213.5 70t-77.5 164z" />
    <glyph glyph-name="Idotaccent" unicode="&#x130;" horiz-adv-x="712" 
d="M356 1559q-62 0 -104.5 42t-42.5 103q0 59 43 101t104 42q59 0 101.5 -42.5t42.5 -100.5q0 -61 -42.5 -103t-101.5 -42zM211 0v1434h291v-1434h-291z" />
    <glyph glyph-name="dotlessi" unicode="&#x131;" horiz-adv-x="571" 
d="M156 0v1032h260v-1032h-260z" />
    <glyph glyph-name="IJ" unicode="&#x132;" horiz-adv-x="1439" 
d="M211 0v1434h291v-1434h-291zM1229 119q0 -475 -447 -475q-85 0 -114 8v256q30 -6 73 -6q100 0 148.5 47t48.5 155v1330h291v-1315z" />
    <glyph glyph-name="ij" unicode="&#x133;" horiz-adv-x="1142" 
d="M287 1212q-69 0 -119.5 50.5t-50.5 119.5t50.5 119.5t119.5 50.5t118.5 -50.5t49.5 -119.5t-49.5 -119.5t-118.5 -50.5zM854 1212q-69 0 -119.5 50.5t-50.5 119.5t50.5 119.5t119.5 50.5q68 0 118 -50.5t50 -119.5t-50 -119.5t-118 -50.5zM156 0v1032h260v-1032h-260z
M987 -111q0 -401 -381 -401q-123 0 -196 33v227q52 -22 153 -22q164 0 164 163v1143h260v-1143z" />
    <glyph glyph-name="Jcircumflex" unicode="&#x134;" horiz-adv-x="735" 
d="M229 1556h-231l233 277h297l230 -277h-232l-147 154zM524 119q0 -475 -446 -475q-86 0 -115 8v256q30 -6 74 -6q99 0 147.5 47t48.5 155v1330h291v-1315z" />
    <glyph glyph-name="jcircumflex" unicode="&#x135;" horiz-adv-x="571" 
d="M139 1196h-229l211 340h332l211 -340h-230l-147 219zM416 -111q0 -401 -381 -401q-124 0 -197 33v227q52 -22 154 -22q164 0 164 163v1143h260v-1143z" />
    <glyph glyph-name="Kcedilla" unicode="&#x136;" horiz-adv-x="1531" 
d="M211 0v1434h291v-627l618 627h363l-600 -607l600 -827h-357l-444 627l-180 -183v-444h-291zM719 -504h-250l213 340h283z" />
    <glyph glyph-name="kcedilla" unicode="&#x137;" horiz-adv-x="1140" 
d="M160 0v1434h262v-799l381 397h323l-424 -438l422 -594h-319l-287 406l-96 -99v-307h-262zM524 -504h-250l213 340h283z" />
    <glyph glyph-name="kra" unicode="&#x138;" horiz-adv-x="1140" 
d="M160 0v1032h262v-395l379 395h325l-424 -438l422 -594h-319l-287 406l-96 -99v-307h-262z" />
    <glyph glyph-name="Lacute" unicode="&#x139;" horiz-adv-x="1112" 
d="M489 1556h-264l232 277h299zM211 0v1434h291v-1170h545v-264h-836z" />
    <glyph glyph-name="lacute" unicode="&#x13a;" horiz-adv-x="571" 
d="M418 1659h-264l231 276h299zM156 0v1536h260v-1536h-260z" />
    <glyph glyph-name="Lcedilla" unicode="&#x13b;" horiz-adv-x="1112" 
d="M211 0v1434h291v-1170h545v-264h-836zM537 -504h-250l213 340h282z" />
    <glyph glyph-name="lcedilla" unicode="&#x13c;" horiz-adv-x="571" 
d="M156 0v1536h260v-1536h-260zM197 -504h-250l213 340h282z" />
    <glyph glyph-name="Lcaron" unicode="&#x13d;" horiz-adv-x="1112" 
d="M211 0v1434h291v-1170h545v-264h-836zM803 1053h-215l170 381h268z" />
    <glyph glyph-name="lcaron" unicode="&#x13e;" horiz-adv-x="571" 
d="M156 0v1536h260v-1536h-260zM684 1155h-215l170 381h268z" />
    <glyph glyph-name="Ldot" unicode="&#x13f;" horiz-adv-x="1112" 
d="M211 0v1434h291v-1170h545v-264h-836zM911 647q-73 0 -126.5 53t-53.5 125t53.5 125.5t126.5 53.5q72 0 125.5 -53.5t53.5 -125.5t-53.5 -125t-125.5 -53z" />
    <glyph glyph-name="ldot" unicode="&#x140;" horiz-adv-x="905" 
d="M156 0v1536h260v-1536h-260zM737 342q-73 0 -126.5 53t-53.5 125t53.5 125t126.5 53q72 0 125 -53t53 -125t-53 -125t-125 -53z" />
    <glyph glyph-name="Lslash" unicode="&#x141;" horiz-adv-x="1112" 
d="M211 0v510l-211 -113v213l211 113v711h291v-555l258 137v-211l-258 -139v-402h545v-264h-836z" />
    <glyph glyph-name="lslash" unicode="&#x142;" horiz-adv-x="571" 
d="M156 0v598l-156 -84v211l156 84v727h260v-588l155 84v-211l-155 -84v-737h-260z" />
    <glyph glyph-name="Nacute" unicode="&#x143;" horiz-adv-x="1726" 
d="M993 1556h-264l232 277h299zM211 0v1434h373l641 -1026v1026h291v-1434h-373l-641 1030v-1030h-291z" />
    <glyph glyph-name="nacute" unicode="&#x144;" horiz-adv-x="1261" 
d="M795 1196h-250l213 340h282zM156 0v1032h260v-82q127 123 305 123q175 0 288 -119.5t113 -339.5v-614h-264v604q0 103 -54 163t-149 60q-149 0 -239 -153v-674h-260z" />
    <glyph glyph-name="Ncedilla" unicode="&#x145;" horiz-adv-x="1726" 
d="M211 0v1434h373l641 -1026v1026h291v-1434h-373l-641 1030v-1030h-291zM772 -504h-250l213 340h283z" />
    <glyph glyph-name="ncedilla" unicode="&#x146;" horiz-adv-x="1261" 
d="M156 0v1032h260v-82q127 123 305 123q175 0 288 -119.5t113 -339.5v-614h-264v604q0 103 -54 163t-149 60q-149 0 -239 -153v-674h-260zM545 -504h-250l213 340h283z" />
    <glyph glyph-name="Ncaron" unicode="&#x147;" horiz-adv-x="1726" 
d="M713 1833l149 -154l148 154h231l-229 -277h-297l-234 277h232zM211 0v1434h373l641 -1026v1026h291v-1434h-373l-641 1030v-1030h-291z" />
    <glyph glyph-name="ncaron" unicode="&#x148;" horiz-adv-x="1261" 
d="M512 1536l147 -219l148 219h229l-211 -340h-331l-211 340h229zM156 0v1032h260v-82q127 123 305 123q175 0 288 -119.5t113 -339.5v-614h-264v604q0 103 -54 163t-149 60q-149 0 -239 -153v-674h-260z" />
    <glyph glyph-name="Eng" unicode="&#x14a;" horiz-adv-x="1726" 
d="M211 0v1434h381l635 -902v902h291v-1309q0 -473 -443 -473q-88 0 -121 6v260q40 -8 78 -8q195 0 195 143l-725 1024v-1077h-291z" />
    <glyph glyph-name="eng" unicode="&#x14b;" horiz-adv-x="1261" 
d="M858 604q0 104 -54.5 163.5t-152.5 59.5q-145 0 -235 -153v-674h-260v1032h260v-80q128 121 301 121q178 0 291.5 -119.5t113.5 -339.5v-725q0 -196 -95 -298.5t-286 -102.5q-124 0 -200 33v227q55 -22 155 -22q80 0 121 38.5t41 124.5v715z" />
    <glyph glyph-name="Omacron" unicode="&#x14c;" horiz-adv-x="1697" 
d="M492 1606v190h716v-190h-716zM850 1475q165 0 308.5 -61t241.5 -164t154 -241.5t56 -291.5t-56 -291.5t-154 -241.5t-241.5 -164t-308.5 -61q-166 0 -309.5 61t-242 164t-154.5 241.5t-56 291.5t56 291.5t154.5 241.5t242 164t309.5 61zM850 231q132 0 237.5 64
t164.5 175t59 247q0 207 -130.5 346t-330.5 139q-201 0 -332 -139t-131 -346t131 -346.5t332 -139.5z" />
    <glyph glyph-name="omacron" unicode="&#x14d;" horiz-adv-x="1294" 
d="M289 1270v192h717v-192h-717zM647 1073q164 0 294 -74.5t200.5 -201.5t70.5 -281t-70.5 -281t-200.5 -201.5t-294 -74.5t-294 74.5t-200.5 201.5t-70.5 281t70.5 281t200.5 201.5t294 74.5zM651 205q125 0 208 89t83 222q0 135 -83 223t-208 88q-129 0 -214 -88t-85 -223
t85 -223t214 -88z" />
    <glyph glyph-name="Obreve" unicode="&#x14e;" horiz-adv-x="1697" 
d="M850 1712q158 0 168 121h213q0 -142 -102.5 -219.5t-278.5 -77.5q-175 0 -278 77.5t-103 219.5h213q13 -121 168 -121zM850 1475q165 0 308.5 -61t241.5 -164t154 -241.5t56 -291.5t-56 -291.5t-154 -241.5t-241.5 -164t-308.5 -61q-166 0 -309.5 61t-242 164
t-154.5 241.5t-56 291.5t56 291.5t154.5 241.5t242 164t309.5 61zM850 231q132 0 237.5 64t164.5 175t59 247q0 207 -130.5 346t-330.5 139q-201 0 -332 -139t-131 -346t131 -346.5t332 -139.5z" />
    <glyph glyph-name="obreve" unicode="&#x14f;" horiz-adv-x="1294" 
d="M647 1372q78 0 118 43t40 121h213q0 -162 -99.5 -251t-271.5 -89q-173 0 -273 88.5t-100 251.5h215q0 -78 40 -121t118 -43zM647 1073q164 0 294 -74.5t200.5 -201.5t70.5 -281t-70.5 -281t-200.5 -201.5t-294 -74.5t-294 74.5t-200.5 201.5t-70.5 281t70.5 281
t200.5 201.5t294 74.5zM651 205q125 0 208 89t83 222q0 135 -83 223t-208 88q-129 0 -214 -88t-85 -223t85 -223t214 -88z" />
    <glyph glyph-name="Ohungarumlaut" unicode="&#x150;" horiz-adv-x="1697" 
d="M752 1556h-267l234 277h301zM1206 1556h-266l234 277h299zM850 1475q165 0 308.5 -61t241.5 -164t154 -241.5t56 -291.5t-56 -291.5t-154 -241.5t-241.5 -164t-308.5 -61q-166 0 -309.5 61t-242 164t-154.5 241.5t-56 291.5t56 291.5t154.5 241.5t242 164t309.5 61z
M850 231q132 0 237.5 64t164.5 175t59 247q0 207 -130.5 346t-330.5 139q-201 0 -332 -139t-131 -346t131 -346.5t332 -139.5z" />
    <glyph glyph-name="ohungarumlaut" unicode="&#x151;" horiz-adv-x="1294" 
d="M569 1196h-250l211 340h285zM967 1196h-246l209 340h282zM647 1073q164 0 294 -74.5t200.5 -201.5t70.5 -281t-70.5 -281t-200.5 -201.5t-294 -74.5t-294 74.5t-200.5 201.5t-70.5 281t70.5 281t200.5 201.5t294 74.5zM651 205q125 0 208 89t83 222q0 135 -83 223
t-208 88q-129 0 -214 -88t-85 -223t85 -223t214 -88z" />
    <glyph glyph-name="OE" unicode="&#x152;" horiz-adv-x="2105" 
d="M850 1434h1108v-265h-545v-307h463v-264h-463v-334h545v-264h-1108q-166 0 -309.5 58t-242 155.5t-154.5 228.5t-56 275t56 275t154.5 228.5t242 155.5t309.5 58zM846 264h276v905h-276q-198 0 -328.5 -130t-130.5 -322q0 -193 130.5 -323t328.5 -130z" />
    <glyph glyph-name="oe" unicode="&#x153;" horiz-adv-x="2058" 
d="M647 1073q132 0 241 -51.5t183 -142.5q68 92 173 143t241 51q205 0 333 -130t128 -333q0 -73 -17 -147h-715q12 -127 93.5 -198.5t212.5 -71.5q85 0 153 32.5t109 89.5l184 -147q-75 -99 -191.5 -154t-261.5 -55q-283 0 -438 199q-74 -93 -184.5 -146t-243.5 -53
q-164 0 -294 74.5t-200.5 201.5t-70.5 281t70.5 281t200.5 201.5t294 74.5zM1288 788q-44 -50 -59 -112h459q-5 75 -65 127.5t-163 52.5q-107 0 -172 -68zM651 205q125 0 208 89t83 222q0 135 -83 223t-208 88q-129 0 -214 -88t-85 -223t85 -223t214 -88z" />
    <glyph glyph-name="Racute" unicode="&#x154;" horiz-adv-x="1370" 
d="M811 1556h-264l231 277h299zM211 0v1434h438q237 0 373.5 -114.5t136.5 -313.5q0 -128 -59.5 -223t-169.5 -148l450 -635h-348l-381 580h-149v-580h-291zM666 1186h-164v-359h164q92 0 143 47.5t51 135.5q0 82 -51 129t-143 47z" />
    <glyph glyph-name="racute" unicode="&#x155;" horiz-adv-x="831" 
d="M545 1196h-250l213 340h283zM156 0v1032h260v-102q119 123 272 123q43 0 90 -15v-272q-58 14 -114 14q-87 0 -150.5 -39t-97.5 -94v-647h-260z" />
    <glyph glyph-name="Rcedilla" unicode="&#x156;" horiz-adv-x="1370" 
d="M211 0v1434h438q237 0 373.5 -114.5t136.5 -313.5q0 -128 -59.5 -223t-169.5 -148l450 -635h-348l-381 580h-149v-580h-291zM666 1186h-164v-359h164q92 0 143 47.5t51 135.5q0 82 -51 129t-143 47zM662 -504h-250l213 340h282z" />
    <glyph glyph-name="rcedilla" unicode="&#x157;" horiz-adv-x="831" 
d="M156 0v1032h260v-102q119 123 272 123q43 0 90 -15v-272q-58 14 -114 14q-87 0 -150.5 -39t-97.5 -94v-647h-260zM190 -504h-249l213 340h282z" />
    <glyph glyph-name="Rcaron" unicode="&#x158;" horiz-adv-x="1370" 
d="M530 1833l150 -154l147 154h232l-230 -277h-297l-233 277h231zM211 0v1434h438q237 0 373.5 -114.5t136.5 -313.5q0 -128 -59.5 -223t-169.5 -148l450 -635h-348l-381 580h-149v-580h-291zM666 1186h-164v-359h164q92 0 143 47.5t51 135.5q0 82 -51 129t-143 47z" />
    <glyph glyph-name="rcaron" unicode="&#x159;" horiz-adv-x="831" 
d="M262 1536l148 -219l147 219h229l-211 -340h-331l-211 340h229zM156 0v1032h260v-102q119 123 272 123q43 0 90 -15v-272q-58 14 -114 14q-87 0 -150.5 -39t-97.5 -94v-647h-260z" />
    <glyph glyph-name="Sacute" unicode="&#x15a;" horiz-adv-x="1204" 
d="M735 1556h-264l231 277h299zM82 199l211 194q65 -84 147.5 -130t169.5 -46q86 0 135.5 44t49.5 122q0 45 -28 83t-74.5 63.5t-105.5 54t-120 54.5t-120 65t-105.5 85t-74.5 116t-28 155q0 174 129.5 295t329.5 121q300 0 502 -242l-213 -191q-138 179 -287 179
q-74 0 -120 -43t-46 -107q0 -41 22.5 -74.5t60.5 -59t87 -49t103.5 -48t109 -51.5t103.5 -64.5t87 -83t60.5 -110t22.5 -142.5q-3 -195 -138.5 -312.5t-337.5 -117.5q-176 0 -304.5 60.5t-227.5 179.5z" />
    <glyph glyph-name="sacute" unicode="&#x15b;" horiz-adv-x="935" 
d="M623 1196h-250l213 340h282zM66 150l172 159q108 -137 237 -137q60 0 93.5 30t33.5 77q0 36 -26.5 63t-69 45.5t-93.5 37t-102.5 44.5t-94 60.5t-69 92.5t-26.5 134q0 137 103.5 227t262.5 90q116 0 218 -49t161 -127l-174 -156q-93 119 -203 119q-57 0 -87.5 -25
t-30.5 -69q0 -35 26.5 -61.5t69 -45t94 -37t102.5 -44t93.5 -60t69 -91.5t26.5 -132q-3 -156 -111 -246t-262 -90q-253 0 -413 191z" />
    <glyph glyph-name="Scircumflex" unicode="&#x15c;" horiz-adv-x="1204" 
d="M455 1556h-232l234 277h297l229 -277h-231l-148 154zM82 199l211 194q65 -84 147.5 -130t169.5 -46q86 0 135.5 44t49.5 122q0 45 -28 83t-74.5 63.5t-105.5 54t-120 54.5t-120 65t-105.5 85t-74.5 116t-28 155q0 174 129.5 295t329.5 121q300 0 502 -242l-213 -191
q-138 179 -287 179q-74 0 -120 -43t-46 -107q0 -41 22.5 -74.5t60.5 -59t87 -49t103.5 -48t109 -51.5t103.5 -64.5t87 -83t60.5 -110t22.5 -142.5q-3 -195 -138.5 -312.5t-337.5 -117.5q-176 0 -304.5 60.5t-227.5 179.5z" />
    <glyph glyph-name="scircumflex" unicode="&#x15d;" horiz-adv-x="935" 
d="M340 1196h-229l211 340h331l211 -340h-229l-148 219zM66 150l172 159q108 -137 237 -137q60 0 93.5 30t33.5 77q0 36 -26.5 63t-69 45.5t-93.5 37t-102.5 44.5t-94 60.5t-69 92.5t-26.5 134q0 137 103.5 227t262.5 90q116 0 218 -49t161 -127l-174 -156q-93 119 -203 119
q-57 0 -87.5 -25t-30.5 -69q0 -35 26.5 -61.5t69 -45t94 -37t102.5 -44t93.5 -60t69 -91.5t26.5 -132q-3 -156 -111 -246t-262 -90q-253 0 -413 191z" />
    <glyph glyph-name="Scedilla" unicode="&#x15e;" horiz-adv-x="1204" 
d="M82 199l211 194q65 -84 147.5 -130t169.5 -46q86 0 135.5 44t49.5 122q0 45 -28 83t-74.5 63.5t-105.5 54t-120 54.5t-120 65t-105.5 85t-74.5 116t-28 155q0 174 129.5 295t329.5 121q300 0 502 -242l-213 -191q-138 179 -287 179q-74 0 -120 -43t-46 -107
q0 -41 22.5 -74.5t60.5 -59t87 -49t103.5 -48t109 -51.5t103.5 -64.5t87 -83t60.5 -110t22.5 -142.5q-3 -169 -107 -281t-270 -141l-68 -76q85 -5 144 -57t59 -127q0 -94 -74 -156.5t-184 -62.5q-149 0 -225 70l90 129q52 -52 120 -52q35 0 57.5 18.5t22.5 51.5q0 30 -23 47
t-59 17q-43 0 -86 -21l-77 96l96 121q-255 32 -424 234z" />
    <glyph glyph-name="scedilla" unicode="&#x15f;" horiz-adv-x="935" 
d="M66 150l172 159q108 -137 237 -137q60 0 93.5 30t33.5 77q0 36 -26.5 63t-69 45.5t-93.5 37t-102.5 44.5t-94 60.5t-69 92.5t-26.5 134q0 137 103.5 227t262.5 90q116 0 218 -49t161 -127l-174 -156q-93 119 -203 119q-57 0 -87.5 -25t-30.5 -69q0 -35 26.5 -61.5t69 -45
t94 -37t102.5 -44t93.5 -60t69 -91.5t26.5 -132q-3 -133 -84 -219t-205 -109l-67 -76q85 -5 143.5 -57t58.5 -127q0 -94 -74 -156.5t-184 -62.5q-149 0 -225 70l90 129q52 -52 121 -52q35 0 57.5 18.5t22.5 51.5q0 30 -23 47t-59 17q-42 0 -86 -21l-78 96l100 127
q-172 34 -294 179z" />
    <glyph glyph-name="Scaron" unicode="&#x160;" horiz-adv-x="1204" 
d="M455 1833l149 -154l148 154h231l-229 -277h-297l-234 277h232zM82 199l211 194q65 -84 147.5 -130t169.5 -46q86 0 135.5 44t49.5 122q0 45 -28 83t-74.5 63.5t-105.5 54t-120 54.5t-120 65t-105.5 85t-74.5 116t-28 155q0 174 129.5 295t329.5 121q300 0 502 -242
l-213 -191q-138 179 -287 179q-74 0 -120 -43t-46 -107q0 -41 22.5 -74.5t60.5 -59t87 -49t103.5 -48t109 -51.5t103.5 -64.5t87 -83t60.5 -110t22.5 -142.5q-3 -195 -138.5 -312.5t-337.5 -117.5q-176 0 -304.5 60.5t-227.5 179.5z" />
    <glyph glyph-name="scaron" unicode="&#x161;" horiz-adv-x="935" 
d="M340 1536l147 -219l148 219h229l-211 -340h-331l-211 340h229zM66 150l172 159q108 -137 237 -137q60 0 93.5 30t33.5 77q0 36 -26.5 63t-69 45.5t-93.5 37t-102.5 44.5t-94 60.5t-69 92.5t-26.5 134q0 137 103.5 227t262.5 90q116 0 218 -49t161 -127l-174 -156
q-93 119 -203 119q-57 0 -87.5 -25t-30.5 -69q0 -35 26.5 -61.5t69 -45t94 -37t102.5 -44t93.5 -60t69 -91.5t26.5 -132q-3 -156 -111 -246t-262 -90q-253 0 -413 191z" />
    <glyph glyph-name="Tcedilla" unicode="&#x162;" horiz-adv-x="1304" 
d="M63 1169v265h1176v-265h-442v-1169h-25l-98 -109q85 -5 144 -57t59 -127q0 -94 -74.5 -156.5t-184.5 -62.5q-149 0 -225 70l90 129q52 -52 121 -52q35 0 57.5 18.5t22.5 51.5q0 30 -23 47t-59 17q-42 0 -86 -21l-78 96l125 156h-57v1169h-443z" />
    <glyph glyph-name="tcedilla" unicode="&#x163;" horiz-adv-x="892" 
d="M221 377v418h-192v237h192v258h262v-258h316v-237h-316v-418q0 -160 164 -160q97 0 154 23v-228q-56 -24 -131 -30l-82 -91q85 -5 144 -57t59 -127q0 -94 -74.5 -156.5t-184.5 -62.5q-149 0 -225 70l90 129q52 -52 121 -52q35 0 57.5 18.5t22.5 51.5q0 30 -23 47t-59 17
q-42 0 -86 -21l-78 96l119 150q-125 32 -187.5 129.5t-62.5 253.5z" />
    <glyph glyph-name="Tcaron" unicode="&#x164;" horiz-adv-x="1304" 
d="M504 1833l149 -154l148 154h231l-229 -277h-297l-234 277h232zM63 1169v265h1176v-265h-442v-1169h-291v1169h-443z" />
    <glyph glyph-name="tcaron" unicode="&#x165;" horiz-adv-x="876" 
d="M750 1155h-215l170 381h268zM221 377v418h-192v237h192v258h262v-258h316v-237h-316v-418q0 -160 164 -160q97 0 154 23v-228q-71 -32 -199 -32q-191 0 -286 102.5t-95 294.5z" />
    <glyph glyph-name="Tbar" unicode="&#x166;" horiz-adv-x="1304" 
d="M233 553v192h273v424h-443v265h1176v-265h-442v-424h272v-192h-272v-553h-291v553h-273z" />
    <glyph glyph-name="tbar" unicode="&#x167;" horiz-adv-x="876" 
d="M221 377v90h-194v192h194v136h-192v237h192v258h262v-258h316v-237h-316v-136h320v-192h-320v-90q0 -160 164 -160q97 0 154 23v-228q-71 -32 -199 -32q-191 0 -286 102.5t-95 294.5z" />
    <glyph glyph-name="Utilde" unicode="&#x168;" horiz-adv-x="1501" 
d="M367 1556v70q0 106 62 166.5t161 60.5q40 0 79.5 -12t59 -22.5t66.5 -38.5l26 -19q4 -3 12 -8.5t11 -7.5t9.5 -6t9.5 -5.5t8 -4.5t7.5 -4t7 -3t7.5 -2.5t6.5 -1t7.5 -0.5q41 0 41 54v61h189v-68q0 -109 -61.5 -169t-160.5 -60q-42 0 -81.5 12t-60.5 24t-62 38l-31 18
q-5 4 -17 12.5t-16.5 11t-13 8t-13 7t-11 3t-13.5 1.5q-41 0 -41 -53v-62h-188zM1040 537v897h291v-873q0 -282 -155 -442t-426 -160q-269 0 -424.5 160t-155.5 442v873h291v-897q0 -144 77 -225t214 -81q134 0 211 81t77 225z" />
    <glyph glyph-name="utilde" unicode="&#x169;" horiz-adv-x="1230" 
d="M1001 1536v-76q0 -127 -57 -202.5t-158 -75.5q-100 0 -198 88l-39 35q-22 22 -32 31t-24.5 16.5t-29.5 7.5q-43 0 -43 -60v-104h-189v88q0 126 56 196t159 70q101 0 199 -88l39 -35q19 -19 24.5 -24t18 -15.5t21.5 -13t20 -2.5q45 0 45 60v104h188zM836 446v586h262v-573
q0 -232 -128.5 -366t-355.5 -134q-226 0 -353.5 133.5t-127.5 366.5v573h262v-586q0 -114 57.5 -177.5t163.5 -63.5q105 0 162.5 64t57.5 177z" />
    <glyph glyph-name="Umacron" unicode="&#x16a;" horiz-adv-x="1501" 
d="M393 1606v190h717v-190h-717zM1040 537v897h291v-873q0 -282 -155 -442t-426 -160q-269 0 -424.5 160t-155.5 442v873h291v-897q0 -144 77 -225t214 -81q134 0 211 81t77 225z" />
    <glyph glyph-name="umacron" unicode="&#x16b;" horiz-adv-x="1230" 
d="M258 1270v192h717v-192h-717zM836 446v586h262v-573q0 -232 -128.5 -366t-355.5 -134q-226 0 -353.5 133.5t-127.5 366.5v573h262v-586q0 -114 57.5 -177.5t163.5 -63.5q105 0 162.5 64t57.5 177z" />
    <glyph glyph-name="Ubreve" unicode="&#x16c;" horiz-adv-x="1501" 
d="M752 1712q158 0 168 121h213q0 -142 -102.5 -219.5t-278.5 -77.5q-175 0 -278 77.5t-103 219.5h213q13 -121 168 -121zM1040 537v897h291v-873q0 -282 -155 -442t-426 -160q-269 0 -424.5 160t-155.5 442v873h291v-897q0 -144 77 -225t214 -81q134 0 211 81t77 225z" />
    <glyph glyph-name="ubreve" unicode="&#x16d;" horiz-adv-x="1230" 
d="M616 1372q78 0 118 43t40 121h213q0 -162 -99.5 -251t-271.5 -89q-173 0 -272.5 88.5t-99.5 251.5h215q0 -78 39.5 -121t117.5 -43zM836 446v586h262v-573q0 -232 -128.5 -366t-355.5 -134q-226 0 -353.5 133.5t-127.5 366.5v573h262v-586q0 -114 57.5 -177.5
t163.5 -63.5q105 0 162.5 64t57.5 177z" />
    <glyph glyph-name="Uring" unicode="&#x16e;" horiz-adv-x="1501" 
d="M752 1516q-117 0 -193 59t-76 172q0 114 75.5 172.5t193.5 58.5q121 0 195.5 -58t74.5 -173q0 -114 -75 -172.5t-195 -58.5zM752 1653q54 0 84 24t30 70q0 94 -114 94q-54 0 -84.5 -24t-30.5 -70t30.5 -70t84.5 -24zM1040 537v897h291v-873q0 -282 -155 -442t-426 -160
q-269 0 -424.5 160t-155.5 442v873h291v-897q0 -144 77 -225t214 -81q134 0 211 81t77 225z" />
    <glyph glyph-name="uring" unicode="&#x16f;" horiz-adv-x="1230" 
d="M616 1139q-113 0 -190.5 69.5t-77.5 180.5q0 108 78 177.5t190 69.5q116 0 193.5 -69t77.5 -178q0 -112 -77.5 -181t-193.5 -69zM618 1274q53 0 84.5 31.5t30.5 83.5q0 51 -32 81.5t-85 28.5q-53 0 -84.5 -31.5t-31.5 -83.5q1 -51 34 -81.5t84 -28.5zM836 446v586h262
v-573q0 -232 -128.5 -366t-355.5 -134q-226 0 -353.5 133.5t-127.5 366.5v573h262v-586q0 -114 57.5 -177.5t163.5 -63.5q105 0 162.5 64t57.5 177z" />
    <glyph glyph-name="Uhungarumlaut" unicode="&#x170;" horiz-adv-x="1501" 
d="M653 1556h-266l234 277h301zM1108 1556h-266l233 277h299zM1040 537v897h291v-873q0 -282 -155 -442t-426 -160q-269 0 -424.5 160t-155.5 442v873h291v-897q0 -144 77 -225t214 -81q134 0 211 81t77 225z" />
    <glyph glyph-name="uhungarumlaut" unicode="&#x171;" horiz-adv-x="1230" 
d="M539 1196h-250l211 340h284zM936 1196h-246l209 340h283zM836 446v586h262v-573q0 -232 -128.5 -366t-355.5 -134q-226 0 -353.5 133.5t-127.5 366.5v573h262v-586q0 -114 57.5 -177.5t163.5 -63.5q105 0 162.5 64t57.5 177z" />
    <glyph glyph-name="Uogonek" unicode="&#x172;" horiz-adv-x="1501" 
d="M502 -270q0 139 147 235q-225 29 -352 185.5t-127 410.5v873h291v-897q0 -144 77 -225t214 -81q134 0 211 81t77 225v897h291v-873q0 -224 -100 -373t-281 -202l-96 -60q-78 -50 -109.5 -86t-31.5 -73q0 -95 121 -95q83 0 139 27v-172q-77 -31 -180 -31q-136 0 -213.5 70
t-77.5 164z" />
    <glyph glyph-name="uogonek" unicode="&#x173;" horiz-adv-x="1230" 
d="M340 -270q0 143 156 239q-172 34 -267.5 162.5t-95.5 327.5v573h262v-586q0 -114 57.5 -177.5t163.5 -63.5q105 0 162.5 64t57.5 177v586h262v-573q0 -186 -83 -310t-235 -167l-88 -56q-78 -50 -109.5 -86t-31.5 -73q0 -95 121 -95q83 0 139 27v-172q-77 -31 -180 -31
q-136 0 -213.5 70t-77.5 164z" />
    <glyph glyph-name="Wcircumflex" unicode="&#x174;" horiz-adv-x="2115" 
d="M907 1556h-231l233 277h297l230 -277h-232l-147 154zM53 1434h287l268 -1094l299 1094h383l297 -1096l273 1096h284l-354 -1434h-389l-303 1108l-303 -1108h-387z" />
    <glyph glyph-name="wcircumflex" unicode="&#x175;" horiz-adv-x="1714" 
d="M709 1196h-230l211 340h332l211 -340h-229l-148 219zM53 1032h256l180 -751l193 751h350l193 -747l180 747h258l-246 -1032h-362l-197 770l-199 -770h-360z" />
    <glyph glyph-name="Ycircumflex" unicode="&#x176;" horiz-adv-x="1454" 
d="M575 1556h-231l234 277h296l230 -277h-232l-147 154zM1462 1434l-590 -824v-610h-290v604l-592 830h354l383 -541l385 541h350z" />
    <glyph glyph-name="ycircumflex" unicode="&#x177;" horiz-adv-x="1146" 
d="M426 1196h-229l211 340h331l211 -340h-229l-148 219zM618 -236q-57 -134 -150 -205t-235 -71q-103 0 -184 33v229q57 -24 127 -24q79 0 128.5 31.5t80.5 107.5l57 137l-434 1030h289l283 -694l284 694h275z" />
    <glyph glyph-name="Ydieresis" unicode="&#x178;" horiz-adv-x="1454" 
d="M504 1559q-62 0 -105 42t-43 103q0 59 43.5 101t104.5 42q57 0 100 -42.5t43 -100.5q0 -61 -42.5 -103t-100.5 -42zM948 1559q-60 0 -102.5 42t-42.5 103q0 59 42.5 101t102.5 42t103 -42t43 -101q0 -61 -43 -103t-103 -42zM1462 1434l-590 -824v-610h-290v604l-592 830
h354l383 -541l385 541h350z" />
    <glyph glyph-name="Zacute" unicode="&#x179;" horiz-adv-x="1423" 
d="M846 1556h-264l231 277h299zM123 0v264l799 905h-779v265h1135v-265l-797 -905h817v-264h-1175z" />
    <glyph glyph-name="zacute" unicode="&#x17a;" horiz-adv-x="1093" 
d="M682 1196h-250l213 340h283zM115 0v238l520 557h-504v237h834v-237l-521 -557h535v-238h-864z" />
    <glyph glyph-name="Zdotaccent" unicode="&#x17b;" horiz-adv-x="1423" 
d="M715 1559q-62 0 -105 42t-43 103q0 59 43.5 101t104.5 42q59 0 101 -42.5t42 -100.5q0 -61 -42 -103t-101 -42zM123 0v264l799 905h-779v265h1135v-265l-797 -905h817v-264h-1175z" />
    <glyph glyph-name="zdotaccent" unicode="&#x17c;" horiz-adv-x="1093" 
d="M547 1212q-70 0 -121 50.5t-51 119.5t51 119.5t121 50.5q69 0 119.5 -50.5t50.5 -119.5t-50.5 -119.5t-119.5 -50.5zM115 0v238l520 557h-504v237h834v-237l-521 -557h535v-238h-864z" />
    <glyph glyph-name="Zcaron" unicode="&#x17d;" horiz-adv-x="1423" 
d="M565 1833l150 -154l147 154h232l-230 -277h-297l-233 277h231zM123 0v264l799 905h-779v265h1135v-265l-797 -905h817v-264h-1175z" />
    <glyph glyph-name="zcaron" unicode="&#x17e;" horiz-adv-x="1093" 
d="M399 1536l148 -219l147 219h230l-211 -340h-332l-211 340h229zM115 0v238l520 557h-504v237h834v-237l-521 -557h535v-238h-864z" />
    <glyph glyph-name="Scommaaccent" unicode="&#x218;" horiz-adv-x="1204" 
d="M82 199l211 194q65 -84 147.5 -130t169.5 -46q86 0 135.5 44t49.5 122q0 45 -28 83t-74.5 63.5t-105.5 54t-120 54.5t-120 65t-105.5 85t-74.5 116t-28 155q0 174 129.5 295t329.5 121q300 0 502 -242l-213 -191q-138 179 -287 179q-74 0 -120 -43t-46 -107
q0 -41 22.5 -74.5t60.5 -59t87 -49t103.5 -48t109 -51.5t103.5 -64.5t87 -83t60.5 -110t22.5 -142.5q-3 -195 -138.5 -312.5t-337.5 -117.5q-176 0 -304.5 60.5t-227.5 179.5zM528 -504h-249l213 340h282z" />
    <glyph glyph-name="scommaaccent" unicode="&#x219;" horiz-adv-x="935" 
d="M66 150l172 159q108 -137 237 -137q60 0 93.5 30t33.5 77q0 36 -26.5 63t-69 45.5t-93.5 37t-102.5 44.5t-94 60.5t-69 92.5t-26.5 134q0 137 103.5 227t262.5 90q116 0 218 -49t161 -127l-174 -156q-93 119 -203 119q-57 0 -87.5 -25t-30.5 -69q0 -35 26.5 -61.5t69 -45
t94 -37t102.5 -44t93.5 -60t69 -91.5t26.5 -132q-3 -156 -111 -246t-262 -90q-253 0 -413 191zM379 -504h-250l213 340h283z" />
    <glyph glyph-name="Tcommaaccent" unicode="&#x21a;" horiz-adv-x="1304" 
d="M63 1169v265h1176v-265h-442v-1169h-291v1169h-443zM563 -504h-250l213 340h283z" />
    <glyph glyph-name="tcommaaccent" unicode="&#x21b;" horiz-adv-x="876" 
d="M221 377v418h-192v237h192v258h262v-258h316v-237h-316v-418q0 -160 164 -160q97 0 154 23v-228q-71 -32 -199 -32q-191 0 -286 102.5t-95 294.5zM471 -504h-250l213 340h283z" />
    <glyph glyph-name="dotlessj" unicode="&#x237;" horiz-adv-x="571" 
d="M416 -111q0 -401 -381 -401q-124 0 -197 33v227q52 -22 154 -22q164 0 164 163v1143h260v-1143z" />
    <glyph glyph-name="circumflex" unicode="&#x2c6;" 
d="M467 1196h-229l211 340h331l211 -340h-229l-148 219z" />
    <glyph glyph-name="caron" unicode="&#x2c7;" 
d="M467 1536l147 -219l148 219h229l-211 -340h-331l-211 340h229z" />
    <glyph glyph-name="breve" unicode="&#x2d8;" 
d="M614 1372q78 0 118 43t40 121h213q0 -162 -99.5 -251t-271.5 -89q-173 0 -272.5 88.5t-99.5 251.5h215q0 -78 39.5 -121t117.5 -43z" />
    <glyph glyph-name="dotaccent" unicode="&#x2d9;" horiz-adv-x="1230" 
d="M616 1212q-70 0 -121 50.5t-51 119.5t51 119.5t121 50.5q69 0 119.5 -50.5t50.5 -119.5t-50.5 -119.5t-119.5 -50.5z" />
    <glyph glyph-name="ring" unicode="&#x2da;" horiz-adv-x="1226" 
d="M612 1139q-113 0 -190.5 69.5t-77.5 180.5q0 108 78 177.5t190 69.5q116 0 193.5 -69t77.5 -178q0 -112 -77.5 -181t-193.5 -69zM614 1274q53 0 84.5 31.5t30.5 83.5q0 51 -32 81.5t-85 28.5q-53 0 -84.5 -31.5t-31.5 -83.5q1 -51 34 -81.5t84 -28.5z" />
    <glyph glyph-name="ogonek" unicode="&#x2db;" 
d="M377 -270q0 152 172 250l84 49l215 -29l-119 -74q-78 -50 -109.5 -86t-31.5 -73q0 -95 121 -95q83 0 139 27v-172q-77 -31 -180 -31q-136 0 -213.5 70t-77.5 164z" />
    <glyph glyph-name="tilde" unicode="&#x2dc;" 
d="M999 1536v-76q0 -127 -57 -202.5t-158 -75.5q-100 0 -198 88l-39 35q-22 22 -32 31t-24.5 16.5t-29.5 7.5q-43 0 -43 -60v-104h-189v88q0 126 56 196t159 70q101 0 199 -88l39 -35q19 -19 24.5 -24t18 -15.5t21.5 -13t20 -2.5q45 0 45 60v104h188z" />
    <glyph glyph-name="hungarumlaut" unicode="&#x2dd;" horiz-adv-x="1230" 
d="M418 1196h-250l211 340h285zM815 1196h-246l209 340h283z" />
    <glyph glyph-name="gravecmb" unicode="&#x300;" horiz-adv-x="0" 
d="M-135 1196l-246 340h283l211 -340h-248z" />
    <glyph glyph-name="acutecmb" unicode="&#x301;" horiz-adv-x="0" 
d="M135 1196h-250l213 340h283z" />
    <glyph glyph-name="circumflexcmb" unicode="&#x302;" horiz-adv-x="0" 
d="M-147 1196h-230l211 340h332l211 -340h-230l-147 219z" />
    <glyph glyph-name="tildecmb" unicode="&#x303;" horiz-adv-x="0" 
d="M385 1536v-76q0 -127 -57 -202.5t-158 -75.5t-199 88l-39 35q-22 22 -32 31t-24.5 16.5t-29.5 7.5q-43 0 -43 -60v-104h-188v88q0 126 56 196t159 70q101 0 199 -88l39 -35q19 -19 24.5 -24t18 -15.5t21.5 -13t20 -2.5q45 0 45 60v104h188z" />
    <glyph glyph-name="macroncmb" unicode="&#x304;" horiz-adv-x="0" 
d="M-358 1270v192h716v-192h-716z" />
    <glyph glyph-name="brevecmb" unicode="&#x306;" horiz-adv-x="0" 
d="M0 1372q78 0 118 43t40 121h213q0 -162 -99.5 -251t-271.5 -89q-173 0 -273 88.5t-100 251.5h215q0 -78 40 -121t118 -43z" />
    <glyph glyph-name="dotaccentcmb" unicode="&#x307;" horiz-adv-x="0" 
d="M0 1212q-70 0 -121 50.5t-51 119.5t51 119.5t121 50.5q69 0 119.5 -50.5t50.5 -119.5t-50.5 -119.5t-119.5 -50.5z" />
    <glyph glyph-name="dieresiscmb" unicode="&#x308;" horiz-adv-x="0" 
d="M-225 1237q-65 0 -112.5 47t-47.5 111q0 63 48 110t112 47q62 0 108.5 -47t46.5 -110q0 -64 -46.5 -111t-108.5 -47zM227 1237q-63 0 -110 47t-47 111q0 63 47 110t110 47t110.5 -47t47.5 -110q0 -64 -47.5 -111t-110.5 -47z" />
    <glyph glyph-name="ringabovecmb" unicode="&#x30a;" horiz-adv-x="0" 
d="M0 1139q-113 0 -190.5 69.5t-77.5 180.5q0 108 78 177.5t190 69.5q116 0 193 -69t77 -178q0 -112 -77 -181t-193 -69zM2 1274q53 0 84.5 31.5t30.5 83.5q0 51 -32 81.5t-85 28.5q-53 0 -85 -31.5t-32 -83.5q1 -51 34.5 -81.5t84.5 -28.5z" />
    <glyph glyph-name="hungarumlautcmb" unicode="&#x30b;" horiz-adv-x="0" 
d="M-78 1196h-250l211 340h285zM319 1196h-245l209 340h282z" />
    <glyph glyph-name="caroncmb" unicode="&#x30c;" horiz-adv-x="0" 
d="M147 1536h230l-211 -340h-332l-211 340h230l147 -219z" />
    <glyph glyph-name="commaturnedabovecmb" unicode="&#x312;" horiz-adv-x="0" 
d="M131 1536h248l-211 -340h-283z" />
    <glyph glyph-name="commaaccentbelowcmb" unicode="&#x326;" horiz-adv-x="0" 
d="M-90 -504h-250l213 340h283z" />
    <glyph glyph-name="cedillacmb" unicode="&#x327;" horiz-adv-x="0" 
d="M-72 16l207 -4l-108 -121q85 -5 143.5 -57t58.5 -127q0 -94 -74 -156.5t-184 -62.5q-149 0 -225 70l90 129q52 -52 121 -52q35 0 57.5 18.5t22.5 51.5q0 30 -23 47t-59 17q-43 0 -86 -21l-78 96z" />
    <glyph glyph-name="ogonekcmb" unicode="&#x328;" horiz-adv-x="0" 
d="M-471 -270q0 152 172 250l84 49l215 -29l-119 -74q-78 -50 -109.5 -86t-31.5 -73q0 -95 121 -95q83 0 139 27v-172q-78 -31 -180 -31q-136 0 -213.5 70t-77.5 164z" />
    <glyph glyph-name="endash" unicode="&#x2013;" horiz-adv-x="1105" 
d="M45 635h1016v-223h-1016v223z" />
    <glyph glyph-name="emdash" unicode="&#x2014;" horiz-adv-x="2211" 
d="M45 635h2122v-223h-2122v223z" />
    <glyph glyph-name="quoteleft" unicode="&#x2018;" horiz-adv-x="550" 
d="M274 1434h242l-184 -590h-295z" />
    <glyph glyph-name="quoteright" unicode="&#x2019;" horiz-adv-x="550" 
d="M279 844h-242l184 590h295z" />
    <glyph glyph-name="quotesinglbase" unicode="&#x201a;" horiz-adv-x="555" 
d="M279 -328h-242l186 613h293z" />
    <glyph glyph-name="quotedblleft" unicode="&#x201c;" horiz-adv-x="999" 
d="M274 1434h242l-184 -590h-295zM723 1434h242l-185 -590h-295z" />
    <glyph glyph-name="quotedblright" unicode="&#x201d;" horiz-adv-x="999" 
d="M279 844h-242l184 590h295zM727 844h-242l185 590h295z" />
    <glyph glyph-name="quotedblbase" unicode="&#x201e;" horiz-adv-x="1003" 
d="M279 -328h-242l186 613h293zM727 -328h-242l187 613h293z" />
    <glyph glyph-name="dagger" unicode="&#x2020;" horiz-adv-x="956" 
d="M356 225v774h-317v222h317v315h244v-315h320v-222h-320v-774h-244z" />
    <glyph glyph-name="daggerdbl" unicode="&#x2021;" horiz-adv-x="956" 
d="M356 225v316h-317v221h317v237h-317v222h317v315h244v-315h320v-222h-320v-237h320v-221h-320v-316h-244z" />
    <glyph glyph-name="bullet" unicode="&#x2022;" horiz-adv-x="868" 
d="M436 205q-139 0 -237.5 95.5t-98.5 229.5q0 131 98.5 224.5t237.5 93.5t235.5 -93.5t96.5 -224.5q0 -134 -96.5 -229.5t-235.5 -95.5z" />
    <glyph glyph-name="ellipsis" unicode="&#x2026;" horiz-adv-x="1542" 
d="M279 -25q-73 0 -127 53.5t-54 125.5t54 125t127 53q72 0 125 -53t53 -125t-53 -125.5t-125 -53.5zM772 -25q-73 0 -126.5 53.5t-53.5 125.5t53.5 125t126.5 53q71 0 124.5 -53t53.5 -125t-53.5 -125.5t-124.5 -53.5zM1266 -25q-73 0 -127 53.5t-54 125.5t54 125t127 53
q72 0 125 -53t53 -125t-53 -125.5t-125 -53.5z" />
    <glyph glyph-name="perthousand" unicode="&#x2030;" horiz-adv-x="2469" 
d="M418 1479q153 0 250.5 -97.5t97.5 -244.5t-97.5 -244.5t-250.5 -97.5q-155 0 -253.5 97.5t-98.5 244.5t98.5 244.5t253.5 97.5zM186 2l1053 1434h266l-1052 -1434h-267zM418 969q68 0 111.5 47.5t43.5 120.5q0 75 -43.5 121.5t-111.5 46.5q-69 0 -113.5 -46.5
t-44.5 -121.5t44.5 -121.5t113.5 -46.5zM1282 645q153 0 250.5 -97.5t97.5 -244.5t-97.5 -244.5t-250.5 -97.5q-155 0 -253.5 97.5t-98.5 244.5t98.5 244.5t253.5 97.5zM2054 645q153 0 250.5 -97.5t97.5 -244.5t-97.5 -244.5t-250.5 -97.5q-155 0 -253.5 97.5t-98.5 244.5
t98.5 244.5t253.5 97.5zM1282 135q68 0 112 47.5t44 120.5q0 74 -44 121t-112 47q-69 0 -113.5 -46.5t-44.5 -121.5t44.5 -121.5t113.5 -46.5zM2054 135q68 0 112 47.5t44 120.5q0 74 -44 121t-112 47q-69 0 -113.5 -46.5t-44.5 -121.5t44.5 -121.5t113.5 -46.5z" />
    <glyph glyph-name="guilsinglleft" unicode="&#x2039;" horiz-adv-x="696" 
d="M618 98h-278l-262 402l262 418h278l-258 -416z" />
    <glyph glyph-name="guilsinglright" unicode="&#x203a;" horiz-adv-x="696" 
d="M78 918h280l260 -402l-260 -418h-280l260 416z" />
    <glyph glyph-name="fraction" unicode="&#x2044;" horiz-adv-x="546" 
d="M-393 0l1052 1434h267l-1053 -1434h-266z" />
    <glyph glyph-name="zerosuperior" unicode="&#x2070;" horiz-adv-x="796" 
d="M397 1735q115 0 194 -62t114.5 -164.5t35.5 -238.5t-35.5 -238.5t-114.5 -164.5t-194 -62q-114 0 -193 62t-115 164.5t-36 238.5t36 238.5t115 164.5t193 62zM399 1554q-72 0 -107.5 -74t-35.5 -210q0 -285 143 -285q69 0 105.5 75.5t36.5 209.5q0 135 -36 209.5
t-106 74.5z" />
    <glyph glyph-name="i.superior" unicode="&#x2071;" horiz-adv-x="401" 
d="M201 1536q-49 0 -84 35.5t-35 83.5t35 83.5t84 35.5q47 0 82.5 -36t35.5 -83t-35.5 -83t-82.5 -36zM109 829v635h184v-635h-184z" />
    <glyph glyph-name="foursuperior" unicode="&#x2074;" horiz-adv-x="796" 
d="M455 829v226h-387v162l358 493h225v-493h84v-162h-84v-226h-196zM264 1217h191v260z" />
    <glyph glyph-name="fivesuperior" unicode="&#x2075;" horiz-adv-x="796" 
d="M131 1208l27 502h544v-178h-356l-8 -150h41q161 0 255.5 -75.5t94.5 -214.5q0 -133 -92 -210t-236 -77q-245 0 -356 192l174 107q61 -125 182 -125q57 0 92 31.5t35 83.5q0 55 -41 83.5t-118 28.5h-129z" />
    <glyph glyph-name="sixsuperior" unicode="&#x2076;" horiz-adv-x="796" 
d="M438 1735q200 0 314 -140l-150 -122q-35 43 -72 64.5t-88 21.5q-170 0 -182 -242q81 84 209 84t204.5 -81.5t76.5 -207.5q0 -131 -90 -219t-246 -88q-178 0 -268.5 122.5t-90.5 342.5q0 214 97.5 339.5t285.5 125.5zM424 1229q-104 0 -160 -78q13 -90 50.5 -130
t103.5 -40q61 0 95 34.5t34 92.5q0 53 -33.5 87t-89.5 34z" />
    <glyph glyph-name="sevensuperior" unicode="&#x2077;" horiz-adv-x="796" 
d="M336 829h-240l420 703h-424v178h643v-178z" />
    <glyph glyph-name="eightsuperior" unicode="&#x2078;" horiz-adv-x="796" 
d="M397 1735q147 0 227.5 -70.5t80.5 -171.5q0 -56 -30 -105.5t-87 -82.5q75 -33 115 -93.5t40 -136.5q0 -119 -90.5 -194.5t-255.5 -75.5q-162 0 -253 76t-91 194q0 76 40 136.5t116 93.5q-58 31 -88.5 81.5t-30.5 106.5q0 101 80.5 171.5t226.5 70.5zM401 1378
q46 0 74.5 26t28.5 69q0 41 -28.5 67.5t-74.5 26.5q-51 0 -79.5 -26t-28.5 -68q0 -45 28 -70t80 -25zM399 973q66 0 104 30.5t38 83.5q0 56 -38 88.5t-104 32.5q-67 0 -106 -32.5t-39 -88.5q0 -53 39 -83.5t106 -30.5z" />
    <glyph glyph-name="ninesuperior" unicode="&#x2079;" horiz-adv-x="796" 
d="M362 805q-198 0 -311 139l148 123q36 -42 73 -64t88 -22q168 0 183 242q-81 -84 -209 -84q-129 0 -205 81t-76 207q0 132 89.5 220t246.5 88q177 0 266.5 -122t89.5 -343q0 -215 -97 -340t-286 -125zM254 1432q0 -53 34.5 -87t90.5 -34q100 0 160 75q-13 92 -50.5 132.5
t-103.5 40.5q-61 0 -96 -34.5t-35 -92.5z" />
    <glyph glyph-name="n.superior" unicode="&#x207f;" horiz-adv-x="808" 
d="M109 829v635h184v-41q77 66 174 66q108 0 177 -74t69 -211v-375h-185v367q0 55 -28.5 87t-79.5 32q-27 0 -48.5 -8t-38 -24.5t-22.5 -24t-18 -25.5v-404h-184z" />
    <glyph glyph-name="zeroinferior" unicode="&#x2080;" horiz-adv-x="796" 
d="M397 629q115 0 194 -62t114.5 -164.5t35.5 -238.5t-35.5 -238.5t-114.5 -164.5t-194 -62q-114 0 -193 62t-115 164.5t-36 238.5t36 238.5t115 164.5t193 62zM399 449q-72 0 -107.5 -74.5t-35.5 -210.5q0 -285 143 -285q69 0 105.5 75.5t36.5 209.5q0 135 -36 210t-106 75
z" />
    <glyph glyph-name="oneinferior" unicode="&#x2081;" horiz-adv-x="796" 
d="M109 -276v178h223v499l-174 -94l-97 142l279 155h188v-702h199v-178h-618z" />
    <glyph glyph-name="twoinferior" unicode="&#x2082;" horiz-adv-x="796" 
d="M88 -276v178l303 293q4 4 18.5 19t21.5 22.5t19 23t17.5 28t10.5 30.5t5 36q0 47 -29 74t-75 27q-54 0 -93 -32.5t-77 -96.5l-158 98q61 99 142 152t196 53q129 0 212 -70t83 -184q0 -88 -42 -153.5t-116 -135.5l-194 -184h375v-178h-619z" />
    <glyph glyph-name="threeinferior" unicode="&#x2083;" horiz-adv-x="796" 
d="M381 455q-90 0 -141 -93l-162 99q110 168 315 168q126 0 207.5 -65.5t81.5 -172.5q0 -121 -92 -194q63 -34 97 -90t34 -125q0 -132 -90.5 -207.5t-239.5 -75.5q-246 0 -354 192l172 107q32 -65 76 -95t106 -30q56 0 92.5 31.5t36.5 83.5q0 54 -38 83t-103 29h-143v176
h135q47 0 78.5 24.5t31.5 66.5t-28 65t-72 23z" />
    <glyph glyph-name="fourinferior" unicode="&#x2084;" horiz-adv-x="796" 
d="M68 -51v162l358 493h225v-493h84v-162h-84v-225h-196v225h-387zM264 111h191v260z" />
    <glyph glyph-name="fiveinferior" unicode="&#x2085;" horiz-adv-x="796" 
d="M131 102l27 502h544v-178h-356l-8 -150h41q161 0 255.5 -75.5t94.5 -214.5q0 -133 -92 -210t-236 -77q-245 0 -356 192l174 107q61 -125 182 -125q57 0 92 31.5t35 83.5q0 55 -41 83.5t-118 28.5h-129z" />
    <glyph glyph-name="sixinferior" unicode="&#x2086;" horiz-adv-x="796" 
d="M438 629q200 0 314 -140l-150 -122q-35 43 -72 64.5t-88 21.5q-170 0 -182 -242q81 84 209 84t204.5 -81.5t76.5 -207.5q0 -131 -90 -219t-246 -88q-178 0 -268.5 122.5t-90.5 342.5q0 214 97.5 339.5t285.5 125.5zM424 123q-104 0 -160 -78q13 -90 50.5 -130t103.5 -40
q61 0 95 34.5t34 92.5q0 53 -33.5 87t-89.5 34z" />
    <glyph glyph-name="seveninferior" unicode="&#x2087;" horiz-adv-x="796" 
d="M336 -276h-240l420 702h-424v178h643v-178z" />
    <glyph glyph-name="eightinferior" unicode="&#x2088;" horiz-adv-x="796" 
d="M397 629q147 0 227.5 -70.5t80.5 -171.5q0 -56 -30 -105.5t-87 -82.5q75 -33 115 -93.5t40 -136.5q0 -119 -90.5 -194.5t-255.5 -75.5q-162 0 -253 76t-91 194q0 76 40 136.5t116 93.5q-58 31 -88.5 81.5t-30.5 106.5q0 101 80.5 171.5t226.5 70.5zM401 272q46 0 74.5 26
t28.5 69q0 41 -28.5 67.5t-74.5 26.5q-51 0 -79.5 -26t-28.5 -68q0 -45 28 -70t80 -25zM399 -133q66 0 104 31t38 84q0 56 -38 88t-104 32q-67 0 -106 -32t-39 -88q0 -53 39 -84t106 -31z" />
    <glyph glyph-name="nineinferior" unicode="&#x2089;" horiz-adv-x="796" 
d="M362 -301q-198 0 -311 139l148 123q36 -42 73 -64t88 -22q168 0 183 242q-81 -84 -209 -84q-129 0 -205 81.5t-76 207.5q0 132 89.5 219.5t246.5 87.5q177 0 266.5 -122t89.5 -343q0 -215 -97 -340t-286 -125zM254 326q0 -53 34.5 -87t90.5 -34q99 0 160 76
q-13 92 -50.5 132t-103.5 40q-61 0 -96 -34.5t-35 -92.5z" />
    <glyph glyph-name="Euro" unicode="&#x20ac;" 
d="M41 444v218h164v59v57h-164v217h186q88 482 525 482q139 0 248.5 -54.5t183.5 -152.5l-209 -158q-80 123 -219 123q-97 0 -158.5 -54.5t-89.5 -185.5h493v-217h-516v-57v-59h516v-218h-493q27 -133 88 -188t160 -55q133 0 219 123l209 -156q-75 -99 -184.5 -154
t-247.5 -55q-438 0 -525 485h-186z" />
    <glyph glyph-name="numero" unicode="&#x2116;" horiz-adv-x="2498" 
d="M2073 1489q153 0 250.5 -97.5t97.5 -244.5t-97.5 -244.5t-250.5 -97.5q-155 0 -254 98t-99 244t99 244t254 98zM211 0v1434h373l641 -1026v1026h291v-1434h-373l-641 1030v-1030h-291zM2073 979q68 0 111.5 47.5t43.5 120.5q0 75 -43.5 121.5t-111.5 46.5
q-69 0 -113.5 -46.5t-44.5 -121.5t44.5 -121.5t113.5 -46.5zM1769 508v176h607v-176h-607z" />
    <glyph glyph-name="trademark" unicode="&#x2122;" horiz-adv-x="1970" 
d="M57 1245v189h731v-189h-262v-692h-207v692h-262zM928 553v881h260l186 -324l187 324h260v-881h-207v584l-168 -283h-143l-168 285v-586h-207z" />
    <glyph glyph-name="arrowleft" unicode="&#x2190;" horiz-adv-x="1634" 
d="M719 98l-639 639l639 641l158 -157l-385 -373h1062v-221h-1062l385 -371z" />
    <glyph glyph-name="arrowup" unicode="&#x2191;" horiz-adv-x="1634" 
d="M705 0v1051l-371 -373l-158 158l639 639l641 -639l-158 -158l-372 373v-1051h-221z" />
    <glyph glyph-name="arrowright" unicode="&#x2192;" horiz-adv-x="1634" 
d="M80 850h1048l-370 371l157 155l639 -637l-641 -641l-155 156l372 373h-1050v223z" />
    <glyph glyph-name="arrowdown" unicode="&#x2193;" horiz-adv-x="1634" 
d="M1456 598l-641 -639l-639 639l158 158l373 -373v1051h221v-1051l370 373z" />
    <glyph glyph-name="arrowNW" unicode="&#x2196;" horiz-adv-x="1634" 
d="M295 354v903h905v-221h-526l741 -741l-158 -158l-741 746v-529h-221z" />
    <glyph glyph-name="arrowNE" unicode="&#x2197;" horiz-adv-x="1634" 
d="M451 137l-156 158l741 741h-526v221h905v-903h-223v527z" />
    <glyph glyph-name="arrowSE" unicode="&#x2198;" horiz-adv-x="1634" 
d="M451 1257l741 -741v524h223v-903h-905v223h526l-741 742z" />
    <glyph glyph-name="arrowSW" unicode="&#x2199;" horiz-adv-x="1634" 
d="M295 1040h221v-526l741 743l158 -155l-741 -742h526v-223h-905v903z" />
    <glyph glyph-name="minus" unicode="&#x2212;" 
d="M1128 406h-1030v221h1030v-221z" />
    <glyph glyph-name="radical" unicode="&#x221a;" 
d="M307 846l211 -610l400 1198h241l-481 -1434h-316l-292 846h237z" />
    <glyph glyph-name="integral" unicode="&#x222b;" horiz-adv-x="831" 
d="M545 -117q0 -170 -109.5 -282.5t-292.5 -112.5q-174 0 -282 94l159 191q46 -52 119 -52q63 0 103.5 43.5t40.5 112.5v1264q0 170 110 282.5t293 112.5q175 0 283 -94l-162 -191q-43 52 -117 52q-63 0 -104 -43.5t-41 -112.5v-1264z" />
    <glyph glyph-name="approxequal" unicode="&#x2248;" 
d="M524 672q-2 1 -12 7.5t-13 8t-12 7t-13.5 7.5t-13 6t-14.5 5.5l-14 3.5t-15.5 3t-15.5 1q-79 0 -79 -107v-41h-222v66q0 136 80.5 214.5t202.5 78.5q50 0 100 -14.5t80.5 -29.5t84.5 -45q3 -2 5 -3t5 -3t6 -3l41 -23q3 -2 12 -7.5t13 -8l12 -7.5t13 -7t13 -6t14 -5.5
l14 -3.5t15.5 -3t15.5 -1q82 0 82 106v39h219v-63q0 -136 -80 -214.5t-202 -78.5q-50 0 -100 14.5t-80.5 29.5t-84.5 45q-3 2 -5 3t-5 3t-6 3zM524 260q-2 1 -12 7.5t-13 8t-12 7t-13.5 7.5t-13 6t-14.5 5.5l-14 3.5t-15.5 3t-15.5 1q-79 0 -79 -104v-41h-222v63
q0 136 80.5 214.5t202.5 78.5q50 0 100 -14.5t80.5 -29.5t84.5 -45q11 -6 16 -9l41 -21q24 -16 38 -24.5t37.5 -16.5t46.5 -8q82 0 82 105v41h219v-64q0 -137 -80 -216t-202 -79q-17 0 -33.5 1.5t-30 3.5t-31 7.5t-27.5 8t-28.5 11t-26 11.5t-27 13.5t-25 13t-27 15
t-25.5 14.5z" />
    <glyph glyph-name="notequal" unicode="&#x2260;" 
d="M1128 188h-647l-145 -188h-238l146 188h-146v222h316l164 213h-480v221h650l145 188h235l-145 -188h145v-221h-315l-162 -213h477v-222z" />
    <glyph glyph-name="lessequal" unicode="&#x2264;" 
d="M1128 256l-1030 389v254l1030 389v-239l-763 -277l763 -276v-240zM1128 0h-1030v221h1030v-221z" />
    <glyph glyph-name="greaterequal" unicode="&#x2265;" 
d="M98 496l764 276l-764 277v239l1030 -389v-254l-1030 -389v240zM98 0v221h1030v-221h-1030z" />
    <glyph glyph-name="lozenge" unicode="&#x25ca;" 
d="M485 0l-360 717l360 717h256l359 -717l-359 -717h-256zM358 717l254 -510l254 510l-254 510z" />
    <glyph glyph-name="circledotted" unicode="&#x25cc;" horiz-adv-x="1236" 
d="M618 -20q-145 0 -268.5 72t-195.5 195.5t-72 268.5t72 269t195.5 196t268.5 72q109 0 208 -43t171 -115t115 -171t43 -208q0 -145 -72 -268.5t-196 -195.5t-269 -72zM618 1032q-140 0 -259 -69t-188 -188t-69 -259t69 -259t188 -188t259 -69t259 69t188.5 188t69.5 259
t-69.5 259t-188.5 188t-259 69z" />
    <glyph glyph-name="Ccedilla.1" horiz-adv-x="1515" 
d="M850 231q119 0 215 53t160 144l229 -176q-93 -126 -232 -202.5t-309 -88.5l-65 -72q85 -5 144 -57t59 -127q0 -94 -74 -156.5t-184 -62.5q-150 0 -226 70l90 129q52 -52 121 -52q35 0 57.5 18.5t22.5 51.5q0 30 -23 47t-59 17q-42 0 -86 -21l-78 96l103 127
q-280 47 -453.5 258t-173.5 490q0 153 56 291.5t154.5 241.5t242 164t309.5 61q190 0 346.5 -78t257.5 -213l-229 -178q-64 91 -160 143.5t-215 52.5q-201 0 -332 -139t-131 -346t131 -346.5t332 -139.5z" />
    <glyph glyph-name="Q.1" horiz-adv-x="1699" 
d="M1411 -252l-264 266q-141 -55 -297 -55q-166 0 -309.5 61t-242 164t-154.5 241.5t-56 291.5t56 291.5t154.5 241.5t242 164t309.5 61q165 0 308.5 -61t241.5 -164t154 -241.5t56 -291.5q0 -154 -57 -294t-160 -245l438 -430h-420zM850 231q132 0 237.5 64t164.5 175
t59 247q0 207 -130.5 346t-330.5 139q-201 0 -332 -139t-131 -346t131 -346.5t332 -139.5z" />
    <glyph glyph-name="Q.2" horiz-adv-x="1699" 
d="M1661 -33q295 -225 584 -225q119 0 241 37v-250q-86 -41 -252 -41q-412 0 -776 283l-311 243q-141 -55 -297 -55q-166 0 -309.5 61t-242 164t-154.5 241.5t-56 291.5t56 291.5t154.5 241.5t242 164t309.5 61q165 0 308.5 -61t241.5 -164t154 -241.5t56 -291.5
q0 -157 -58 -297.5t-163 -245.5zM850 231q132 0 237.5 64t164.5 175t59 247q0 207 -130.5 346t-330.5 139q-201 0 -332 -139t-131 -346t131 -346.5t332 -139.5z" />
    <glyph glyph-name="Scedilla.1" horiz-adv-x="1204" 
d="M82 199l211 194q65 -84 147.5 -130t169.5 -46q86 0 135.5 44t49.5 122q0 45 -28 83t-74.5 63.5t-105.5 54t-120 54.5t-120 65t-105.5 85t-74.5 116t-28 155q0 174 129.5 295t329.5 121q300 0 502 -242l-213 -191q-138 179 -287 179q-74 0 -120 -43t-46 -107
q0 -41 22.5 -74.5t60.5 -59t87 -49t103.5 -48t109 -51.5t103.5 -64.5t87 -83t60.5 -110t22.5 -142.5q-3 -155 -91.5 -262t-232.5 -147l-184 -308h-258l176 295q-251 32 -418 232z" />
    <glyph glyph-name="germandbls.cap" horiz-adv-x="2392" 
d="M82 199l211 194q65 -84 147.5 -130t169.5 -46q86 0 135.5 44t49.5 122q0 45 -28 83t-74.5 63.5t-105.5 54t-120 54.5t-120 65t-105.5 85t-74.5 116t-28 155q0 174 129.5 295t329.5 121q300 0 502 -242l-213 -191q-138 179 -287 179q-74 0 -120 -43t-46 -107
q0 -41 22.5 -74.5t60.5 -59t87 -49t103.5 -48t109 -51.5t103.5 -64.5t87 -83t60.5 -110t22.5 -142.5q-3 -195 -138.5 -312.5t-337.5 -117.5q-176 0 -304.5 60.5t-227.5 179.5zM1270 199l211 194q65 -84 147.5 -130t169.5 -46q86 0 135 44t49 122q0 45 -28 83t-74 63.5
t-105 54t-120.5 54.5t-120.5 65t-105 85t-74 116t-28 155q0 174 129.5 295t329.5 121q300 0 502 -242l-213 -191q-138 179 -287 179q-74 0 -120 -43t-46 -107q0 -51 36 -92t94 -71t127.5 -59.5t139.5 -68.5t128 -88t94 -126.5t36 -176.5q-3 -195 -138 -312.5t-337 -117.5
q-176 0 -304.5 60.5t-227.5 179.5z" />
    <glyph glyph-name="Tcedilla.1" horiz-adv-x="1304" 
d="M63 1169v265h1176v-265h-442v-1126h32l-223 -371h-258l195 328h-37v1169h-443z" />
    <glyph glyph-name="ccedilla.1" horiz-adv-x="1126" 
d="M651 205q73 0 132.5 32.5t97.5 88.5l206 -158q-127 -169 -346 -203l-176 -293h-258l182 305q-190 49 -298.5 197.5t-108.5 341.5q0 113 39.5 214t111 177.5t180 121t238.5 44.5q138 0 250 -55.5t186 -153.5l-206 -157q-82 120 -234 120q-128 0 -211.5 -88t-83.5 -223
q0 -136 84 -223.5t215 -87.5z" />
    <glyph glyph-name="i.trk" horiz-adv-x="571" 
d="M287 1212q-70 0 -121 50.5t-51 119.5t51 119.5t121 50.5q69 0 119.5 -50.5t50.5 -119.5t-50.5 -119.5t-119.5 -50.5zM156 0v1032h260v-1032h-260z" />
    <glyph glyph-name="scedilla.1" horiz-adv-x="935" 
d="M66 150l172 159q108 -137 237 -137q60 0 93.5 30t33.5 77q0 36 -26.5 63t-69 45.5t-93.5 37t-102.5 44.5t-94 60.5t-69 92.5t-26.5 134q0 137 103.5 227t262.5 90q116 0 218 -49t161 -127l-174 -156q-93 119 -203 119q-57 0 -87.5 -25t-30.5 -69q0 -35 26.5 -61.5t69 -45
t94 -37t102.5 -44t93.5 -60t69 -91.5t26.5 -132q-3 -118 -67 -198.5t-167 -114.5l-186 -310h-258l178 299q-167 38 -286 179z" />
    <glyph glyph-name="tcedilla.1" horiz-adv-x="892" 
d="M219 375v418h-192v237h192v258h262v-258h316v-237h-316v-418q0 -160 164 -160q97 0 154 23v-228q-38 -15 -86 -24l-189 -314h-258l193 324q-240 67 -240 379z" />
    <glyph glyph-name="y.1" horiz-adv-x="1146" 
d="M8 1032h289l281 -686l280 686h281l-633 -1544h-281l211 514z" />
    <glyph glyph-name="yacute.1" horiz-adv-x="1146" 
d="M709 1196h-250l213 340h282zM8 1032h289l281 -686l280 686h281l-633 -1544h-281l211 514z" />
    <glyph glyph-name="ycircumflex.1" horiz-adv-x="1146" 
d="M426 1196h-229l211 340h331l211 -340h-229l-148 219zM8 1032h289l281 -686l280 686h281l-633 -1544h-281l211 514z" />
    <glyph glyph-name="ydieresis.1" horiz-adv-x="1146" 
d="M348 1237q-65 0 -112.5 47t-47.5 111q0 63 48 110t112 47q62 0 109 -47t47 -110q0 -64 -47 -111t-109 -47zM801 1237q-63 0 -110.5 47t-47.5 111q0 63 47.5 110t110.5 47t110 -47t47 -110q0 -64 -47 -111t-110 -47zM8 1032h289l281 -686l280 686h281l-633 -1544h-281
l211 514z" />
    <glyph glyph-name="caron.slovak" horiz-adv-x="0" 
d="M102 1155h-215l170 381h269z" />
    <glyph glyph-name="cedilla.1" horiz-adv-x="0" 
d="M-74 43h260l-223 -371h-258z" />
    <glyph glyph-name="commaaccentbelow" horiz-adv-x="1230" 
d="M616 -504h-249l213 340h282z" />
    <glyph glyph-name="commaturnedabove" horiz-adv-x="1230" 
d="M614 1536h248l-211 -340h-282z" />
    <glyph glyph-name="grave.case" horiz-adv-x="0" 
d="M-127 1556l-264 277h299l231 -277h-266z" />
    <glyph glyph-name="acute.case" horiz-adv-x="0" 
d="M131 1556h-264l231 277h299z" />
    <glyph glyph-name="hungarumlaut.case" horiz-adv-x="0" 
d="M-98 1556h-267l234 277h301zM356 1556h-266l234 277h299z" />
    <glyph glyph-name="circumflex.case" horiz-adv-x="0" 
d="M147 1556l-147 154l-150 -154h-231l234 277h297l229 -277h-232z" />
    <glyph glyph-name="caron.case" horiz-adv-x="0" 
d="M147 1833h232l-229 -277h-297l-234 277h231l150 -154z" />
    <glyph glyph-name="breve.case" horiz-adv-x="0" 
d="M0 1712q158 0 168 121h213q0 -142 -102.5 -219.5t-278.5 -77.5q-175 0 -278 77.5t-103 219.5h213q13 -121 168 -121z" />
    <glyph glyph-name="ring.case" horiz-adv-x="0" 
d="M0 1516q-117 0 -192.5 59t-75.5 172q0 114 75 172.5t193 58.5q121 0 195.5 -58t74.5 -173q0 -114 -75 -172.5t-195 -58.5zM0 1653q54 0 84.5 24t30.5 70q0 94 -115 94q-54 0 -84.5 -24t-30.5 -70t30.5 -70t84.5 -24z" />
    <glyph glyph-name="tilde.case" horiz-adv-x="0" 
d="M-385 1556v70q0 106 62 166.5t161 60.5q40 0 79.5 -12t59 -22.5t66.5 -38.5l27 -19q4 -3 12 -8.5t11 -7.5t9.5 -6t9.5 -5.5t8 -4.5t7.5 -4t7 -3t7.5 -2.5t6.5 -1t7.5 -0.5q41 0 41 54v61h188v-68q0 -109 -61 -169t-160 -60q-42 0 -81.5 12t-61.5 24t-62 38l-31 18
q-5 4 -17 12.5t-16.5 11t-13 8t-13 7t-11 3t-13.5 1.5q-41 0 -41 -53v-62h-188z" />
    <glyph glyph-name="dotaccent.case" horiz-adv-x="0" 
d="M0 1559q-62 0 -104.5 42t-42.5 103q0 59 43 101t104 42q58 0 100.5 -42.5t42.5 -100.5q0 -61 -42 -103t-101 -42z" />
    <glyph glyph-name="dieresis.case" horiz-adv-x="0" 
d="M-221 1559q-62 0 -105 42t-43 103q0 59 43.5 101t104.5 42q57 0 100 -42.5t43 -100.5q0 -61 -42.5 -103t-100.5 -42zM223 1559q-60 0 -102.5 42t-42.5 103q0 59 42.5 101t102.5 42t103 -42t43 -101q0 -61 -43 -103t-103 -42z" />
    <glyph glyph-name="macron.case" horiz-adv-x="0" 
d="M-358 1606v190h716v-190h-716z" />
    <glyph glyph-name="exclamdown.case" horiz-adv-x="677" 
d="M340 1458q71 0 124.5 -53.5t53.5 -126.5q0 -71 -53.5 -123.5t-124.5 -52.5q-75 0 -127.5 52t-52.5 124q0 74 53 127t127 53zM434 973l53 -973h-299l56 973h190z" />
    <glyph glyph-name="questiondown.case" horiz-adv-x="1060" 
d="M606 1466q74 0 127 -53t53 -127q0 -72 -53 -124t-127 -52q-72 0 -125 52t-53 124q0 73 53 126.5t125 53.5zM705 981l32 -338q-77 -9 -133.5 -20t-108 -30t-83 -45.5t-50 -65t-18.5 -89.5q0 -80 53.5 -130t134.5 -50q77 0 134.5 39.5t117.5 128.5l226 -139
q-179 -275 -490 -275q-91 0 -174 30.5t-146.5 84.5t-101 134.5t-37.5 174.5q0 177 120 291t319 147l14 152h191z" />
    <glyph glyph-name="hyphen.case" horiz-adv-x="634" 
d="M41 844h553v-252h-553v252z" />
    <glyph glyph-name="guilsinglleft.case" horiz-adv-x="698" 
d="M618 307h-278l-262 402l262 417h278l-258 -415z" />
    <glyph glyph-name="guilsinglright.case" horiz-adv-x="698" 
d="M78 1126h280l260 -401l-260 -418h-280l260 416z" />
    <glyph glyph-name="guillemetleft.case" horiz-adv-x="1155" 
d="M618 307h-278l-262 402l262 417h278l-258 -415zM1075 307h-278l-262 402l262 417h278l-258 -415z" />
    <glyph glyph-name="guillemetright.case" horiz-adv-x="1155" 
d="M78 1126h280l260 -401l-260 -418h-280l260 416zM535 1126h280l260 -401l-260 -418h-280l260 416z" />
    <glyph glyph-name="parenleft.case" horiz-adv-x="743" 
d="M362 719q0 -249 83.5 -450.5t252.5 -370.5l-184 -154q-196 177 -303 424.5t-107 550.5q0 300 110 548t300 423l184 -154q-336 -333 -336 -817z" />
    <glyph glyph-name="parenright.case" horiz-adv-x="743" 
d="M381 715q0 489 -338 821l184 154q196 -176 303 -424t107 -551q0 -301 -109.5 -547.5t-300.5 -423.5l-184 154q338 329 338 817z" />
    <glyph glyph-name="braceleft.case" horiz-adv-x="679" 
d="M387 84q0 -52 31 -83.5t82 -31.5h143v-221h-145q-165 0 -260 91.5t-95 244.5q0 67 26.5 147.5t52.5 150.5t26 112q0 52 -21 82t-59 30h-131v223h131q38 0 59 30.5t21 82.5q0 43 -26 113t-52.5 150t-26.5 147q0 154 94.5 245t260.5 91h145v-222h-143q-51 0 -82 -31
t-31 -83q0 -47 26.5 -116.5t53.5 -148t27 -145.5q0 -148 -117 -223q117 -75 117 -223q0 -68 -27 -146.5t-53.5 -148t-26.5 -117.5z" />
    <glyph glyph-name="braceright.case" horiz-adv-x="679" 
d="M297 84q0 48 -26.5 117.5t-53.5 148t-27 146.5q0 148 117 223q-57 35 -87 93t-30 130q0 52 16.5 113.5t37 107t37 98.5t16.5 91q0 52 -31 83t-82 31h-143v222h143q166 0 261.5 -91t95.5 -245q0 -67 -26.5 -147.5t-53.5 -150.5t-27 -112q0 -51 22 -81t60 -30h131v-225
h-131q-38 0 -60 -30.5t-22 -83.5q0 -41 27 -110.5t53.5 -150t26.5 -147.5q0 -152 -95.5 -244t-261.5 -92h-143v221h143q51 0 82 31.5t31 83.5z" />
    <glyph glyph-name="bracketleft.case" horiz-adv-x="679" 
d="M143 1688h500v-222h-256v-1497h256v-221h-500v1940z" />
    <glyph glyph-name="bracketright.case" horiz-adv-x="679" 
d="M541 -252h-502v221h256v1497h-256v222h502v-1940z" />
    <glyph glyph-name="endash.case" horiz-adv-x="1105" 
d="M45 829h1016v-223h-1016v223z" />
    <glyph glyph-name="emdash.case" horiz-adv-x="2211" 
d="M45 829h2122v-223h-2122v223z" />
    <glyph glyph-name="bullet.case" horiz-adv-x="868" 
d="M436 395q-139 0 -237.5 96t-98.5 230q0 131 98.5 224t237.5 93t235.5 -93t96.5 -224q0 -134 -96.5 -230t-235.5 -96z" />
    <glyph glyph-name="periodcentered.case" horiz-adv-x="555" 
d="M279 539q-73 0 -127 53t-54 125t54 125t127 53q72 0 125 -53t53 -125t-53 -125t-125 -53z" />
    <glyph glyph-name="at.case" horiz-adv-x="1705" 
d="M461 715q0 159 95 268t253 109q122 0 213 -78v49h199v-473q0 -42 21 -65t56 -23q64 0 107 81t43 210q0 107 -44.5 204t-121.5 168.5t-187 113.5t-235 42q-170 0 -308 -82.5t-214 -220.5t-76 -301q0 -123 45.5 -233.5t124.5 -192.5t192.5 -130t243.5 -48q125 0 223 32.5
t203 118.5l92 -143q-116 -86 -241.5 -124t-278.5 -38q-170 0 -317 61t-247 164t-157 241.5t-57 291.5t56.5 291.5t156 241.5t245 164t314.5 61q165 0 308 -54.5t241 -146.5t153.5 -217t55.5 -264q0 -199 -90 -326t-246 -127q-158 0 -225 111q-94 -111 -248 -111
q-158 0 -253 108.5t-95 266.5zM676 715q0 -83 47.5 -136t124.5 -53q102 0 174 105v168q-71 104 -174 104q-78 0 -125 -52t-47 -136z" />
    <glyph glyph-name="dollar.lt" horiz-adv-x="1226" 
d="M82 229l184 170q110 -121 252 -157v395q-65 23 -111 43.5t-99.5 55.5t-86.5 74.5t-55.5 99.5t-22.5 132q0 143 103.5 250t271.5 135v150h219v-150q244 -37 398 -217l-185 -170q-86 111 -213 154v-369q66 -23 112.5 -43.5t101 -56.5t88 -76.5t56.5 -101.5t23 -135
q-3 -162 -107.5 -268.5t-273.5 -135.5v-151h-219v149q-277 29 -436 223zM397 1053q0 -91 121 -146v293q-121 -37 -121 -147zM864 403q0 51 -32.5 87.5t-94.5 66.5v-315q127 37 127 161z" />
    <glyph glyph-name="Euro.lt" 
d="M41 444v218h164v59v57h-164v217h186q88 482 525 482q139 0 248.5 -54.5t183.5 -152.5l-209 -158q-80 123 -219 123q-97 0 -158.5 -54.5t-89.5 -185.5h493v-217h-516v-57v-59h516v-218h-493q27 -133 88 -188t160 -55q133 0 219 123l209 -156q-75 -99 -184.5 -154
t-247.5 -55q-438 0 -525 485h-186z" />
    <glyph glyph-name="cent.lt" 
d="M549 1434h219v-170q217 -29 352 -203l-209 -160q-59 86 -143 111v-598q87 29 143 108l209 -160q-132 -171 -352 -200v-162h-219v168q-200 40 -317 191.5t-117 353.5q0 131 51 244t150.5 193t232.5 107v177zM383 713q0 -98 45 -172.5t121 -110.5v565q-76 -37 -121 -112
t-45 -170z" />
    <glyph glyph-name="sterling.lt" 
d="M129 0v250h2l186 168q60 54 81.5 87t21.5 87v12h-291v217h174q-42 67 -65 126.5t-23 129.5q0 173 121.5 285.5t314.5 112.5q153 0 254 -58t174 -172l-207 -155q-81 137 -204 137q-80 0 -130.5 -47.5t-50.5 -124.5q0 -22 5 -45.5t9 -38t18.5 -41.5t19 -34.5t25 -39.5
t22.5 -35h432v-217h-344v-14q-2 -86 -36 -155t-118 -142l-51 -43h651v-250h-991z" />
    <glyph glyph-name="yen.lt" 
d="M109 444v218h366v116h-366v217h198l-270 439h323l256 -428l256 428h320l-270 -439h196v-217h-364v-116h364v-218h-364v-444h-279v444h-366z" />
    <glyph glyph-name="zero.lt" 
d="M614 1475q111 0 202 -37.5t155.5 -105.5t109 -162.5t65.5 -208.5t21 -244t-21 -244t-65.5 -208.5t-109 -162.5t-155.5 -105.5t-202 -37.5t-202 37.5t-155.5 105.5t-109 162.5t-65.5 208.5t-21 244t21 244t65.5 208.5t109 162.5t155.5 105.5t202 37.5zM614 1219
q-133 0 -201.5 -134.5t-68.5 -367.5q0 -234 68.5 -368t201.5 -134q132 0 200.5 135t68.5 367q0 233 -68.5 367.5t-200.5 134.5z" />
    <glyph glyph-name="one.lt" 
d="M111 0v250h389v901l-301 -168l-138 197l449 256h266v-1186h346v-250h-1011z" />
    <glyph glyph-name="two.lt" 
d="M119 0v250l491 483q50 50 76.5 80.5t54 70t39 76.5t11.5 80q0 88 -54 138.5t-141 50.5q-97 0 -166 -53.5t-131 -157.5l-225 137q197 320 549 320q192 0 321 -112.5t129 -293.5q0 -71 -21 -138t-62.5 -128.5t-84 -110.5t-102.5 -108l-346 -334h653v-250h-991z" />
    <glyph glyph-name="three.lt" 
d="M1128 410q0 -133 -68 -236.5t-186.5 -159t-267.5 -55.5q-197 0 -333.5 82.5t-227.5 241.5l242 149q60 -119 135.5 -173t181.5 -54t175 59.5t69 157.5t-69.5 155.5t-184.5 57.5h-236v246h217q92 0 150.5 48t58.5 130q0 80 -53.5 125t-140.5 45q-157 0 -252 -164l-225 139
q166 271 497 271q200 0 328.5 -105.5t128.5 -279.5q0 -100 -42 -182t-122 -138q109 -56 167 -149t58 -211z" />
    <glyph glyph-name="four.lt" 
d="M74 381v250l614 803h324v-803h145v-250h-145v-381h-277v381h-661zM358 631h377v489z" />
    <glyph glyph-name="five.lt" 
d="M184 635l43 799h854v-250h-589l-17 -299h111q267 0 408 -122.5t141 -344.5q0 -136 -70 -241.5t-189 -161.5t-266 -56q-375 0 -561 324l242 149q61 -118 138 -172.5t181 -54.5q107 0 174.5 59t67.5 158q0 101 -73 157t-206 56h-389z" />
    <glyph glyph-name="six.lt" 
d="M694 1475q301 0 477 -234l-208 -172q-59 79 -121 117.5t-146 38.5q-148 0 -237.5 -110t-106.5 -320q144 125 350 125q210 0 337.5 -132t127.5 -333q0 -102 -36.5 -191.5t-103 -157.5t-169.5 -107.5t-229 -39.5q-276 0 -419.5 195t-143.5 557q0 227 67.5 396.5
t210.5 268.5t350 99zM651 674q-182 0 -291 -142q46 -323 279 -323q112 0 178 66t66 169q0 100 -65 165t-167 65z" />
    <glyph glyph-name="seven.lt" 
d="M461 0h-320l721 1184h-739v250h1032v-250z" />
    <glyph glyph-name="eight.lt" 
d="M614 1475q117 0 211 -32t153 -86t90.5 -123.5t31.5 -146.5q0 -99 -48 -180t-141 -131q123 -51 187.5 -147.5t64.5 -227.5q0 -194 -145 -318t-404 -124q-258 0 -403 124t-145 318q0 131 64.5 227.5t188.5 147.5q-94 50 -142 130.5t-48 180.5q0 77 31.5 146.5t90.5 123.5
t153 86t210 32zM618 881q89 0 143 48t54 128q0 82 -54 131t-143 49q-96 0 -150 -48.5t-54 -131.5q0 -80 54.5 -128t149.5 -48zM616 199q121 0 192 59t71 158q0 102 -71 164.5t-192 62.5q-122 0 -194 -62.5t-72 -164.5q0 -100 71.5 -158.5t194.5 -58.5z" />
    <glyph glyph-name="nine.lt" 
d="M528 -41q-305 0 -477 234l209 172q57 -78 119.5 -117t146.5 -39q148 0 237.5 110.5t106.5 319.5q-144 -125 -350 -125q-210 0 -337.5 132t-127.5 333q0 102 36.5 191.5t103.5 157.5t170 107.5t229 39.5q277 0 420 -194.5t143 -557.5q0 -169 -39 -308t-115.5 -241
t-197.5 -158.5t-277 -56.5zM340 989q0 -100 64.5 -164.5t166.5 -64.5q186 0 291 141q-24 169 -95 246.5t-185 77.5q-109 0 -175.5 -66.5t-66.5 -169.5z" />
    <glyph glyph-name="dollar.ot" horiz-adv-x="1232" 
d="M96 205l158 176q110 -101 260 -143v229q-57 13 -101 27.5t-92 40t-79 57t-51.5 79.5t-20.5 107q0 129 89 224t255 116v144h219v-152q112 -22 210.5 -69.5t152.5 -106.5l-156 -172q-83 83 -207 125v-215q74 -18 129 -39.5t108.5 -58.5t82 -95t28.5 -135
q-5 -138 -97.5 -229.5t-250.5 -108.5v-141h-219v149q-121 22 -230 71.5t-188 119.5zM420 803q0 -56 94 -82v178q-47 -13 -70.5 -39t-23.5 -57zM827 324q0 32 -24 53t-70 37v-189q94 22 94 99z" />
    <glyph glyph-name="Euro.ot" horiz-adv-x="1232" 
d="M37 307v215h129v39v37h-129v215h170q58 164 193 257t331 93q136 0 251.5 -49t182.5 -127l-192 -158q-91 91 -244 91q-145 0 -223 -107h495v-215h-561q-2 -12 -2 -37q0 -27 2 -39h561v-215h-493q76 -102 225 -102q150 0 240 90l192 -158q-68 -79 -183 -128.5t-251 -49.5
q-195 0 -329.5 92.5t-194.5 255.5h-170z" />
    <glyph glyph-name="cent.ot" 
d="M555 1266h219v-150q219 -29 352 -201l-208 -157q-53 78 -144 108v-608q91 27 144 109l208 -158q-135 -174 -352 -203v-149h-219v155q-138 27 -241 107.5t-155.5 194.5t-52.5 247t52.5 247t155.5 194.5t241 107.5v156zM377 561q0 -99 47.5 -175.5t130.5 -113.5v580
q-82 -37 -130 -114.5t-48 -176.5z" />
    <glyph glyph-name="sterling.ot" horiz-adv-x="1232" 
d="M127 0v248h2l154 102q57 37 81.5 58t30.5 43h-266v217h137q-51 76 -51 168q0 141 119.5 235t306.5 94q166 -1 291 -71t203 -197l-224 -139q-49 80 -108 122t-141 42q-79 0 -122.5 -36.5t-43.5 -92.5q0 -55 59 -125h469v-217h-360q-4 -59 -39 -102.5t-119 -98.5l-4 -2h622
v-248h-997z" />
    <glyph glyph-name="yen.ot" horiz-adv-x="1232" 
d="M109 307v215h370v76h-370v215h186l-238 313h324l235 -313h5l237 313h318l-238 -313h186v-215h-368v-76h368v-215h-368v-307h-277v307h-370z" />
    <glyph glyph-name="zero.ot" 
d="M614 1167q131 0 240.5 -48.5t181 -131.5t111 -192t39.5 -232q0 -122 -39.5 -231t-111 -192.5t-181 -132t-240.5 -48.5q-174 0 -305.5 84t-197.5 220t-66 300q0 123 39 232t110 192t180 131.5t240 48.5zM614 217q128 0 207.5 95t79.5 251q0 157 -79.5 251.5t-207.5 94.5
q-129 0 -207.5 -94t-78.5 -252q0 -157 78.5 -251.5t207.5 -94.5z" />
    <glyph glyph-name="one.ot" 
d="M152 0v250h364v588l-276 -164l-138 196l422 256h269v-876h317v-250h-958z" />
    <glyph glyph-name="two.ot" 
d="M147 0v250l451 315q8 6 31 23.5t29.5 23t25 20t24 20.5t19 19t17.5 20.5t12 19.5t10.5 22t5 23t2.5 26q0 65 -48.5 102.5t-131.5 37.5q-160 0 -258 -164l-225 139q167 270 485 270q210 0 335.5 -99t125.5 -261q0 -131 -66.5 -220.5t-224.5 -197.5l-207 -139h539v-250
h-951z" />
    <glyph glyph-name="three.ot" 
d="M590 922q-157 0 -252 -164l-225 139q165 270 497 270q200 0 328.5 -105.5t128.5 -279.5q0 -100 -42 -181.5t-122 -137.5q109 -55 167 -148.5t58 -212.5q0 -133 -68 -236.5t-186.5 -158.5t-267.5 -55q-197 0 -333.5 82t-227.5 241l242 150q60 -119 135.5 -173t181.5 -54
t175 59.5t69 157.5t-69.5 155.5t-184.5 57.5h-236v245h217q92 0 150.5 48.5t58.5 130.5q0 80 -53.5 125t-140.5 45z" />
    <glyph glyph-name="four.ot" 
d="M74 74v250l614 802h324v-802h145v-250h-145v-381h-277v381h-661zM358 324h377v489z" />
    <glyph glyph-name="five.ot" 
d="M184 328l43 798h854v-249h-589l-17 -299h111q267 0 408 -122.5t141 -344.5q0 -136 -70 -241.5t-189 -161.5t-266 -56q-195 0 -332 82t-229 241l242 150q61 -118 138 -172.5t181 -54.5q107 0 174.5 59t67.5 158q0 101 -73 157t-206 56h-389z" />
    <glyph glyph-name="six.ot" 
d="M694 1475q301 0 477 -234l-208 -172q-59 79 -121 117.5t-146 38.5q-148 0 -237.5 -110t-106.5 -320q144 125 350 125q210 0 337.5 -132t127.5 -333q0 -102 -36.5 -191.5t-103 -157.5t-169.5 -107.5t-229 -39.5q-276 0 -419.5 195t-143.5 557q0 227 67.5 396.5
t210.5 268.5t350 99zM651 674q-182 0 -291 -142q46 -323 279 -323q112 0 178 66t66 169q0 100 -65 165t-167 65z" />
    <glyph glyph-name="seven.ot" 
d="M461 -307h-320l721 1184h-739v249h1032v-249z" />
    <glyph glyph-name="eight.ot" 
d="M614 1475q117 0 211 -32t153 -86t90.5 -123.5t31.5 -146.5q0 -99 -48 -180t-141 -131q123 -51 187.5 -147.5t64.5 -227.5q0 -194 -145 -318t-404 -124q-258 0 -403 124t-145 318q0 131 64.5 227.5t188.5 147.5q-94 50 -142 130.5t-48 180.5q0 77 31.5 146.5t90.5 123.5
t153 86t210 32zM618 881q89 0 143 48t54 128q0 82 -54 131t-143 49q-96 0 -150 -48.5t-54 -131.5q0 -80 54.5 -128t149.5 -48zM616 199q121 0 192 59t71 158q0 102 -71 164.5t-192 62.5q-122 0 -194 -62.5t-72 -164.5q0 -100 71.5 -158.5t194.5 -58.5z" />
    <glyph glyph-name="nine.ot" 
d="M528 -348q-306 0 -477 233l209 172q57 -78 119.5 -116.5t146.5 -38.5q148 0 237.5 110.5t106.5 319.5q-144 -125 -350 -125q-210 0 -337.5 132t-127.5 333q0 102 36.5 191.5t103.5 157t170 107t229 39.5q277 0 420 -194t143 -557q0 -169 -39 -308t-115.5 -241
t-197.5 -158.5t-277 -56.5zM340 682q0 -100 64.5 -164.5t166.5 -64.5q186 0 291 141q-24 169 -95 246.5t-185 77.5q-109 0 -175.5 -66.5t-66.5 -169.5z" />
    <glyph glyph-name="Euro.op" 
d="M37 307v215h129v39v37h-129v215h170q58 164 193 257t331 93q136 0 251.5 -49t182.5 -127l-192 -158q-91 91 -244 91q-145 0 -223 -107h495v-215h-561q-2 -12 -2 -37q0 -27 2 -39h561v-215h-493q76 -102 225 -102q150 0 240 90l192 -158q-68 -79 -183 -128.5t-251 -49.5
q-195 0 -329.5 92.5t-194.5 255.5h-170z" />
    <glyph glyph-name="dollar.op" horiz-adv-x="1232" 
d="M96 205l158 176q110 -101 260 -143v229q-57 13 -101 27.5t-92 40t-79 57t-51.5 79.5t-20.5 107q0 129 89 224t255 116v144h219v-152q112 -22 210.5 -69.5t152.5 -106.5l-156 -172q-83 83 -207 125v-215q74 -18 129 -39.5t108.5 -58.5t82 -95t28.5 -135
q-5 -138 -97.5 -229.5t-250.5 -108.5v-141h-219v149q-121 22 -230 71.5t-188 119.5zM420 803q0 -56 94 -82v178q-47 -13 -70.5 -39t-23.5 -57zM827 324q0 32 -24 53t-70 37v-189q94 22 94 99z" />
    <glyph glyph-name="cent.op" 
d="M555 1266h219v-150q219 -29 352 -201l-208 -157q-53 78 -144 108v-608q91 27 144 109l208 -158q-135 -174 -352 -203v-149h-219v155q-138 27 -241 107.5t-155.5 194.5t-52.5 247t52.5 247t155.5 194.5t241 107.5v156zM377 561q0 -99 47.5 -175.5t130.5 -113.5v580
q-82 -37 -130 -114.5t-48 -176.5z" />
    <glyph glyph-name="sterling.op" horiz-adv-x="1232" 
d="M127 0v248h2l154 102q57 37 81.5 58t30.5 43h-266v217h137q-51 76 -51 168q0 141 119.5 235t306.5 94q166 -1 291 -71t203 -197l-224 -139q-49 80 -108 122t-141 42q-79 0 -122.5 -36.5t-43.5 -92.5q0 -55 59 -125h469v-217h-360q-4 -59 -39 -102.5t-119 -98.5l-4 -2h622
v-248h-997z" />
    <glyph glyph-name="yen.op" 
d="M109 307v215h370v76h-370v215h186l-238 313h324l235 -313h5l237 313h318l-238 -313h186v-215h-368v-76h368v-215h-368v-307h-277v307h-370z" />
    <glyph glyph-name="zero.op" horiz-adv-x="1230" 
d="M614 1167q131 0 240.5 -48.5t181 -131.5t111 -192t39.5 -232q0 -122 -39.5 -231t-111 -192.5t-181 -132t-240.5 -48.5q-174 0 -305.5 84t-197.5 220t-66 300q0 123 39 232t110 192t180 131.5t240 48.5zM614 217q128 0 207.5 95t79.5 251q0 157 -79.5 251.5t-207.5 94.5
q-129 0 -207.5 -94t-78.5 -252q0 -157 78.5 -251.5t207.5 -94.5z" />
    <glyph glyph-name="one.op" horiz-adv-x="946" 
d="M438 0v842l-286 -162l-138 197l432 249h269v-1126h-277z" />
    <glyph glyph-name="two.op" 
d="M147 0v250l451 315q8 6 31 23.5t29.5 23t25 20t24 20.5t19 19t17.5 20.5t12 19.5t10.5 22t5 23t2.5 26q0 65 -48.5 102.5t-131.5 37.5q-160 0 -258 -164l-225 139q167 270 485 270q210 0 335.5 -99t125.5 -261q0 -131 -66.5 -220.5t-224.5 -197.5l-207 -139h539v-250
h-951z" />
    <glyph glyph-name="three.op" 
d="M590 922q-157 0 -252 -164l-225 139q165 270 497 270q200 0 328.5 -105.5t128.5 -279.5q0 -100 -42 -181.5t-122 -137.5q109 -55 167 -148.5t58 -212.5q0 -133 -68 -236.5t-186.5 -158.5t-267.5 -55q-197 0 -333.5 82t-227.5 241l242 150q60 -119 135.5 -173t181.5 -54
t175 59.5t69 157.5t-69.5 155.5t-184.5 57.5h-236v245h217q92 0 150.5 48.5t58.5 130.5q0 80 -53.5 125t-140.5 45z" />
    <glyph glyph-name="four.op" 
d="M74 74v250l614 802h324v-802h145v-250h-145v-381h-277v381h-661zM358 324h377v489z" />
    <glyph glyph-name="five.op" 
d="M184 328l43 798h854v-249h-589l-17 -299h111q267 0 408 -122.5t141 -344.5q0 -136 -70 -241.5t-189 -161.5t-266 -56q-195 0 -332 82t-229 241l242 150q61 -118 138 -172.5t181 -54.5q107 0 174.5 59t67.5 158q0 101 -73 157t-206 56h-389z" />
    <glyph glyph-name="six.op" 
d="M694 1475q301 0 477 -234l-208 -172q-59 79 -121 117.5t-146 38.5q-148 0 -237.5 -110t-106.5 -320q144 125 350 125q210 0 337.5 -132t127.5 -333q0 -102 -36.5 -191.5t-103 -157.5t-169.5 -107.5t-229 -39.5q-276 0 -419.5 195t-143.5 557q0 227 67.5 396.5
t210.5 268.5t350 99zM651 674q-182 0 -291 -142q46 -323 279 -323q112 0 178 66t66 169q0 100 -65 165t-167 65z" />
    <glyph glyph-name="seven.op" 
d="M461 -307h-320l721 1184h-739v249h1032v-249z" />
    <glyph glyph-name="eight.op" 
d="M614 1475q117 0 211 -32t153 -86t90.5 -123.5t31.5 -146.5q0 -99 -48 -180t-141 -131q123 -51 187.5 -147.5t64.5 -227.5q0 -194 -145 -318t-404 -124q-258 0 -403 124t-145 318q0 131 64.5 227.5t188.5 147.5q-94 50 -142 130.5t-48 180.5q0 77 31.5 146.5t90.5 123.5
t153 86t210 32zM618 881q89 0 143 48t54 128q0 82 -54 131t-143 49q-96 0 -150 -48.5t-54 -131.5q0 -80 54.5 -128t149.5 -48zM616 199q121 0 192 59t71 158q0 102 -71 164.5t-192 62.5q-122 0 -194 -62.5t-72 -164.5q0 -100 71.5 -158.5t194.5 -58.5z" />
    <glyph glyph-name="nine.op" 
d="M528 -348q-306 0 -477 233l209 172q57 -78 119.5 -116.5t146.5 -38.5q148 0 237.5 110.5t106.5 319.5q-144 -125 -350 -125q-210 0 -337.5 132t-127.5 333q0 102 36.5 191.5t103.5 157t170 107t229 39.5q277 0 420 -194t143 -557q0 -169 -39 -308t-115.5 -241
t-197.5 -158.5t-277 -56.5zM340 682q0 -100 64.5 -164.5t166.5 -64.5q186 0 291 141q-24 169 -95 246.5t-185 77.5q-109 0 -175.5 -66.5t-66.5 -169.5z" />
    <glyph glyph-name="dollar.weight" horiz-adv-x="1226" 
d="M82 229l184 170q153 -172 361 -172q120 0 178.5 46t58.5 130q0 54 -40 94t-103.5 66.5t-140 51t-153.5 58t-140.5 77.5t-103.5 118.5t-40 173.5q0 143 103.5 250t271.5 135v150h219v-150q244 -37 398 -217l-185 -170q-64 83 -150 127.5t-179 44.5q-111 0 -167.5 -43.5
t-56.5 -115.5q0 -53 40 -92t103.5 -64.5t140.5 -50.5t153.5 -58.5t140 -78t103.5 -121t40 -176.5q-3 -162 -107.5 -268.5t-273.5 -135.5v-151h-219v149q-277 29 -436 223z" />
    <glyph glyph-name="cent.weight" horiz-adv-x="1226" 
d="M682 410q147 0 229 120l209 -159q-133 -172 -352 -201v-170h-219v176q-200 40 -317 191.5t-117 353.5q0 131 51 244t150.5 193.5t232.5 107.5v168h219v-162q217 -29 352 -203l-209 -160q-81 123 -229 123q-130 0 -214.5 -88t-84.5 -223q0 -137 84 -224t215 -87z" />
    <glyph glyph-name="dollar.lt.weight" horiz-adv-x="1226" 
d="M82 229l184 170q153 -172 361 -172q120 0 178.5 46t58.5 130q0 54 -40 94t-103.5 66.5t-140 51t-153.5 58t-140.5 77.5t-103.5 118.5t-40 173.5q0 143 103.5 250t271.5 135v150h219v-150q244 -37 398 -217l-185 -170q-64 83 -150 127.5t-179 44.5q-111 0 -167.5 -43.5
t-56.5 -115.5q0 -53 40 -92t103.5 -64.5t140.5 -50.5t153.5 -58.5t140 -78t103.5 -121t40 -176.5q-3 -162 -107.5 -268.5t-273.5 -135.5v-151h-219v149q-277 29 -436 223z" />
    <glyph glyph-name="cent.lt.weight" horiz-adv-x="1226" 
d="M682 410q147 0 229 120l209 -159q-133 -172 -352 -201v-170h-219v176q-200 40 -317 191.5t-117 353.5q0 131 51 244t150.5 193.5t232.5 107.5v168h219v-162q217 -29 352 -203l-209 -160q-81 123 -229 123q-130 0 -214.5 -88t-84.5 -223q0 -137 84 -224t215 -87z" />
    <glyph glyph-name="dollar.op.weight" horiz-adv-x="1232" 
d="M96 205l158 176q85 -77 191 -120.5t214 -43.5q79 0 123.5 28.5t44.5 78.5q0 25 -14.5 44t-47.5 33t-64 22.5t-87 20.5q-176 36 -252 70q-191 84 -192 264q0 129 89 224t255 116v144h219v-152q112 -22 210.5 -69.5t152.5 -106.5l-156 -172q-63 63 -156 105t-182 42
t-135.5 -31t-46.5 -75q0 -16 6.5 -29t21.5 -23t31 -17.5t43 -14.5t47.5 -11.5t54.5 -11.5q27 -5 40 -8q50 -11 84.5 -19.5t82 -24t79.5 -32.5t67 -43t56 -57t34.5 -74t13.5 -94q-5 -138 -97.5 -229.5t-250.5 -108.5v-141h-219v149q-121 22 -230 71.5t-188 119.5z" />
    <glyph glyph-name="Euro.op.weight" 
d="M37 451v217h135q28 227 174 361t385 134q138 0 249 -54.5t185 -152.5l-209 -157q-37 55 -95.5 88t-131.5 33q-111 0 -184.5 -65t-95.5 -187h550v-217h-550q23 -120 96.5 -183t187.5 -63q71 0 128.5 33t94.5 88l209 -158q-74 -98 -185.5 -153.5t-248.5 -55.5
q-237 0 -383 134t-176 358h-135z" />
    <glyph glyph-name="cent.op.weight" horiz-adv-x="1232" 
d="M702 246q73 0 132.5 32.5t95.5 88.5l209 -158q-135 -174 -353 -203v-149h-219v155q-138 27 -241 107.5t-155 194.5t-52 247t52 247t155 194.5t241 107.5v156h219v-150q220 -29 353 -201l-209 -157q-37 55 -97 88t-135 33q-133 0 -221 -90.5t-88 -227.5t88.5 -226
t224.5 -89z" />
    <glyph glyph-name="yen.op.weight" 
d="M106 451v217h281l-330 458h322l239 -362l240 362h318l-326 -458h274v-217h-368v-451h-277v451h-373z" />
    <glyph glyph-name="dollar.ot.weight" horiz-adv-x="1232" 
d="M96 205l158 176q85 -77 191 -120.5t214 -43.5q79 0 123.5 28.5t44.5 78.5q0 25 -14.5 44t-47.5 33t-64 22.5t-87 20.5q-176 36 -252 70q-191 84 -192 264q0 129 89 224t255 116v144h219v-152q112 -22 210.5 -69.5t152.5 -106.5l-156 -172q-63 63 -156 105t-182 42
t-135.5 -31t-46.5 -75q0 -16 6.5 -29t21.5 -23t31 -17.5t43 -14.5t47.5 -11.5t54.5 -11.5q27 -5 40 -8q50 -11 84.5 -19.5t82 -24t79.5 -32.5t67 -43t56 -57t34.5 -74t13.5 -94q-5 -138 -97.5 -229.5t-250.5 -108.5v-141h-219v149q-121 22 -230 71.5t-188 119.5z" />
    <glyph glyph-name="Euro.ot.weight" 
d="M37 451v217h135q28 227 174 361t385 134q138 0 249 -54.5t185 -152.5l-209 -157q-37 55 -95.5 88t-131.5 33q-111 0 -184.5 -65t-95.5 -187h550v-217h-550q23 -120 96.5 -183t187.5 -63q71 0 128.5 33t94.5 88l209 -158q-74 -98 -185.5 -153.5t-248.5 -55.5
q-237 0 -383 134t-176 358h-135z" />
    <glyph glyph-name="cent.ot.weight" horiz-adv-x="1232" 
d="M702 246q73 0 132.5 32.5t95.5 88.5l209 -158q-135 -174 -353 -203v-149h-219v155q-138 27 -241 107.5t-155 194.5t-52 247t52 247t155 194.5t241 107.5v156h219v-150q220 -29 353 -201l-209 -157q-37 55 -97 88t-135 33q-133 0 -221 -90.5t-88 -227.5t88.5 -226
t224.5 -89z" />
    <glyph glyph-name="yen.ot.weight" 
d="M106 451v217h281l-330 458h322l239 -362l240 362h318l-326 -458h274v-217h-368v-451h-277v451h-373z" />
    <glyph glyph-name="a.superior" horiz-adv-x="733" 
d="M281 805q-95 0 -153 52.5t-58 143.5q0 75 55.5 127.5t157.5 67.5l170 31v6q0 41 -28.5 67.5t-74.5 26.5q-81 0 -123 -67l-137 100q95 129 266 129q136 0 209.5 -73t73.5 -183v-404h-186v52q-28 -34 -75 -55t-97 -21zM248 1008q0 -28 19.5 -44t54.5 -16q78 0 131 78v74
l-121 -21q-46 -9 -65 -25.5t-19 -45.5z" />
    <glyph glyph-name="b.superior" horiz-adv-x="862" 
d="M797 1147q0 -144 -87 -243t-235 -99q-111 0 -182 59v-35h-184v945h184v-344q75 59 182 59q148 0 235 -99t87 -243zM295 1063q60 -84 156 -84q70 0 112.5 46.5t42.5 121.5q0 74 -42.5 121t-112.5 47q-97 0 -156 -86l-2 2v-170z" />
    <glyph glyph-name="c.superior" horiz-adv-x="741" 
d="M418 979q79 0 123 65l147 -114q-95 -125 -270 -125q-160 0 -256 99t-96 243t96 243t256 99q172 0 270 -129l-147 -111q-45 66 -125 66q-68 0 -112 -47.5t-44 -120.5q0 -76 44 -122t114 -46z" />
    <glyph glyph-name="d.superior" horiz-adv-x="864" 
d="M66 1147q0 144 88 243t235 99q109 0 180 -59v344h187v-945h-187v33q-72 -57 -180 -57q-147 0 -235 99t-88 243zM260 1147q0 -76 41.5 -122t112.5 -46q98 0 155 82v170q-60 84 -155 84q-71 0 -112.5 -46.5t-41.5 -121.5z" />
    <glyph glyph-name="e.superior" horiz-adv-x="774" 
d="M702 930q-98 -125 -280 -125q-167 0 -261.5 98.5t-94.5 243.5t85.5 243.5t233.5 98.5q137 0 221 -81t84 -208q0 -66 -12 -100h-426q10 -62 55.5 -95.5t118.5 -33.5q100 0 143 65zM391 1335q-101 0 -129 -98h246q-3 40 -33.5 69t-83.5 29z" />
    <glyph glyph-name="egrave.superior" horiz-adv-x="774" 
d="M305 1565l-153 209h200l129 -209h-176zM702 930q-98 -125 -280 -125q-167 0 -261.5 98.5t-94.5 243.5t87 243.5t240 98.5q134 0 215.5 -81t81.5 -208q0 -66 -12 -100h-416q22 -129 164 -129q100 0 143 65zM395 1335q-100 0 -125 -98h238q-2 40 -31 69t-82 29z" />
    <glyph glyph-name="f.superior" horiz-adv-x="561" 
d="M33 1464h117v60q0 105 70.5 177.5t189.5 72.5q109 0 176 -58l-115 -135q-17 25 -61 25q-31 0 -52.5 -21.5t-21.5 -52.5v-68h182v-168h-182v-467h-186v467h-117v168z" />
    <glyph glyph-name="g.superior" horiz-adv-x="768" 
d="M74 711q0 94 96 155q-49 42 -49 99q0 76 72 125q-91 63 -91 176q0 97 69 160t189 63q74 0 132 -25h229v-155h-103q5 -35 5 -43q0 -97 -70.5 -160.5t-192.5 -63.5q-31 0 -45 2q-10 -10 -10 -24q0 -37 41 -37h141q114 0 181 -58t67 -145q0 -119 -93.5 -192.5t-250.5 -73.5
q-152 0 -234.5 50.5t-82.5 146.5zM362 1182q41 0 68 23.5t27 60.5t-27 60.5t-68 23.5t-66.5 -23.5t-25.5 -60.5t25.5 -60.5t66.5 -23.5zM252 748q0 -41 36.5 -63.5t108.5 -22.5q71 0 108.5 25.5t37.5 66.5q0 69 -88 69h-162q-41 -24 -41 -75z" />
    <glyph glyph-name="h.superior" horiz-adv-x="808" 
d="M109 829v945h184v-351q77 66 174 66q108 0 177 -74t69 -211v-375h-185v367q0 55 -28.5 87t-79.5 32q-78 0 -127 -82v-404h-184z" />
    <glyph glyph-name="j.superior" horiz-adv-x="401" 
d="M197 1536q-47 0 -82 36t-35 83t35 83t82 36q49 0 83.5 -35.5t34.5 -83.5t-34.5 -83.5t-83.5 -35.5zM293 768q0 -254 -240 -254q-76 0 -127 23v159q42 -14 94 -14q43 0 66 22.5t23 63.5v696h184v-696z" />
    <glyph glyph-name="k.superior" horiz-adv-x="745" 
d="M109 829v881h186v-461l201 215h229l-258 -270l254 -365h-227l-156 228l-43 -43v-185h-186z" />
    <glyph glyph-name="l.superior" horiz-adv-x="401" 
d="M109 829v945h184v-945h-184z" />
    <glyph glyph-name="m.superior" horiz-adv-x="1175" 
d="M109 829v635h184v-39q67 64 162 64q127 0 192 -105q85 105 201 105q102 0 167.5 -70.5t65.5 -201.5v-388h-184v379q0 48 -26 77.5t-70 29.5q-70 0 -113 -82v-16v-388h-186v379q0 48 -25.5 77.5t-70.5 29.5q-12 0 -23 -2.5t-19.5 -6t-17.5 -10.5t-14 -11.5t-12.5 -14
t-10 -13t-9 -13.5t-7.5 -11v-404h-184z" />
    <glyph glyph-name="o.superior" horiz-adv-x="831" 
d="M418 1489q153 0 250.5 -97.5t97.5 -244.5t-97.5 -244.5t-250.5 -97.5q-155 0 -253.5 97.5t-98.5 244.5t98.5 244.5t253.5 97.5zM418 979q68 0 111.5 47.5t43.5 120.5q0 75 -43.5 121.5t-111.5 46.5q-69 0 -113.5 -46.5t-44.5 -121.5t44.5 -121.5t113.5 -46.5z" />
    <glyph glyph-name="p.superior" horiz-adv-x="862" 
d="M109 520v944h184v-34q75 59 182 59q148 0 235 -99t87 -243t-87 -243t-235 -99q-111 0 -182 59v-344h-184zM295 1063q60 -84 156 -84q70 0 112.5 46.5t42.5 121.5q0 74 -42.5 121t-112.5 47q-97 0 -156 -86l-2 2v-170z" />
    <glyph glyph-name="q.superior" horiz-adv-x="862" 
d="M756 520h-187v344q-71 -59 -182 -59q-147 0 -234 99t-87 243t87 243t234 99q107 0 182 -59v34h187v-944zM256 1147q0 -75 43 -121.5t113 -46.5q97 0 157 84v166q-59 86 -157 86q-70 0 -113 -47t-43 -121z" />
    <glyph glyph-name="r.superior" horiz-adv-x="555" 
d="M109 829v635h184v-55q71 68 158 68q31 0 57 -11v-192q-40 8 -76 8q-50 0 -87 -22t-52 -48v-383h-184z" />
    <glyph glyph-name="s.superior" horiz-adv-x="622" 
d="M57 924l121 112q67 -82 139 -82q30 0 47 14t17 38q0 25 -30 42t-72.5 31.5t-85.5 35.5t-73 64.5t-30 106.5q0 88 67.5 145.5t168.5 57.5q72 0 138 -31.5t103 -77.5l-123 -112q-56 71 -116 71t-60 -45q0 -21 21.5 -36.5t53.5 -24.5t69.5 -25.5t69.5 -37t53.5 -60
t21.5 -92.5q-3 -101 -72 -157t-166 -56q-158 0 -262 119z" />
    <glyph glyph-name="t.superior" horiz-adv-x="595" 
d="M150 1069v227h-117v168h117v158h186v-158h182v-168h-182v-227q0 -84 86 -84q64 0 96 14v-159q-47 -23 -127 -23q-122 0 -181.5 66t-59.5 186z" />
    <glyph glyph-name="u.superior" horiz-adv-x="794" 
d="M514 1104v360h186v-350q0 -143 -80 -226t-223 -83t-223 83t-80 226v350h187v-360q0 -59 29.5 -92t88.5 -33q56 0 85.5 33.5t29.5 91.5z" />
    <glyph glyph-name="v.superior" horiz-adv-x="724" 
d="M18 1464h199l148 -415l145 415h199l-224 -635h-243z" />
    <glyph glyph-name="w.superior" horiz-adv-x="1112" 
d="M45 1464h182l101 -428l102 428h250l102 -426l103 426h180l-147 -635h-256l-107 441l-106 -441h-256z" />
    <glyph glyph-name="x.superior" horiz-adv-x="763" 
d="M250 829h-205l223 326l-211 309h201l123 -188l125 188h201l-211 -309l223 -326h-203l-135 201z" />
    <glyph glyph-name="y.superior" horiz-adv-x="751" 
d="M420 688q-73 -174 -244 -174q-62 0 -119 23v159q35 -14 78 -14q45 0 70.5 18t44.5 62l29 69l-261 633h207l152 -387l158 387h198z" />
    <glyph glyph-name="z.superior" horiz-adv-x="727" 
d="M94 829v168l293 299h-283v168h521v-168l-293 -299h301v-168h-539z" />
    <glyph glyph-name="zero.numr" horiz-adv-x="796" 
d="M397 1458q115 0 194 -62t114.5 -164.5t35.5 -238.5t-35.5 -238.5t-114.5 -164.5t-194 -62q-114 0 -193 62t-115 164.5t-36 238.5t36 238.5t115 164.5t193 62zM399 1278q-72 0 -107.5 -74.5t-35.5 -210.5q0 -284 143 -284q69 0 105.5 75t36.5 209q0 135 -36 210t-106 75z
" />
    <glyph glyph-name="one.numr" horiz-adv-x="796" 
d="M109 553v178h223v500l-174 -94l-97 141l279 156h188v-703h199v-178h-618z" />
    <glyph glyph-name="two.numr" horiz-adv-x="796" 
d="M88 553v178l303 293q3 3 18.5 19t21.5 22.5t18.5 23t18 29t10.5 30.5t5 36q0 46 -28.5 73t-75.5 27q-54 0 -93 -32.5t-77 -96.5l-158 98q61 99 142 152t196 53q129 0 212 -70t83 -184q0 -88 -42 -153.5t-116 -135.5l-194 -184h375v-178h-619z" />
    <glyph glyph-name="three.numr" horiz-adv-x="796" 
d="M721 811q0 -132 -90.5 -207.5t-239.5 -75.5q-246 0 -354 193l172 106q32 -65 76 -95t106 -30q56 0 92.5 31.5t36.5 83.5q0 54 -38 83.5t-103 29.5h-143v176h135q47 0 78.5 24t31.5 66t-28 65t-72 23q-91 0 -141 -92l-162 98q110 168 315 168q126 0 207.5 -65t81.5 -172
q0 -122 -92 -195q63 -34 97 -90t34 -125z" />
    <glyph glyph-name="four.numr" horiz-adv-x="796" 
d="M455 553v225h-387v162l358 494h225v-494h84v-162h-84v-225h-196zM264 940h191v260z" />
    <glyph glyph-name="five.numr" horiz-adv-x="796" 
d="M131 932l27 502h544v-179h-356l-8 -149h41q161 0 255.5 -76t94.5 -215q0 -133 -92 -210t-236 -77q-245 0 -356 193l174 106q61 -125 182 -125q57 0 92 31.5t35 83.5q0 55 -41 84t-118 29h-129z" />
    <glyph glyph-name="six.numr" horiz-adv-x="796" 
d="M438 1458q201 0 314 -139l-150 -123q-35 43 -72 64.5t-88 21.5q-170 0 -182 -242q81 84 209 84t204.5 -81t76.5 -207q0 -131 -90 -219.5t-246 -88.5q-178 0 -268.5 122.5t-90.5 342.5q0 214 97.5 339.5t285.5 125.5zM424 952q-104 0 -160 -78q13 -90 50.5 -129.5
t103.5 -39.5q61 0 95 34t34 92q0 53 -33.5 87t-89.5 34z" />
    <glyph glyph-name="seven.numr" horiz-adv-x="796" 
d="M336 553h-240l420 702h-424v179h643v-179z" />
    <glyph glyph-name="eight.numr" horiz-adv-x="796" 
d="M397 1458q147 0 227.5 -70t80.5 -171q0 -56 -30 -106t-87 -83q76 -33 115.5 -93t39.5 -136q0 -119 -90.5 -195t-255.5 -76q-162 0 -253 76.5t-91 194.5q0 76 40 136t116 93q-58 31 -88.5 82t-30.5 107q0 100 80.5 170.5t226.5 70.5zM401 1102q46 0 74.5 25.5t28.5 68.5
q0 41 -28.5 67.5t-74.5 26.5q-51 0 -79.5 -26t-28.5 -68q0 -45 28 -69.5t80 -24.5zM399 696q66 0 104 31t38 84q0 56 -38 88.5t-104 32.5q-67 0 -106 -32.5t-39 -88.5q0 -53 39 -84t106 -31z" />
    <glyph glyph-name="nine.numr" horiz-adv-x="796" 
d="M362 528q-197 0 -311 140l148 123q36 -42 73 -64t88 -22q168 0 183 241q-81 -84 -209 -84q-129 0 -205 81.5t-76 207.5q0 132 89.5 219.5t246.5 87.5q177 0 266.5 -122t89.5 -343q0 -215 -97 -340t-286 -125zM254 1155q0 -53 34.5 -87t90.5 -34q99 0 160 76
q-13 92 -50.5 132t-103.5 40q-61 0 -96 -34.5t-35 -92.5z" />
    <glyph glyph-name="zero.dnom" horiz-adv-x="796" 
d="M397 905q115 0 194 -62t114.5 -164.5t35.5 -238.5t-35.5 -238.5t-114.5 -164.5t-194 -62q-114 0 -193 62t-115 164.5t-36 238.5t36 238.5t115 164.5t193 62zM399 725q-72 0 -107.5 -74.5t-35.5 -210.5q0 -284 143 -284q69 0 105.5 75t36.5 209q0 135 -36 210t-106 75z
" />
    <glyph glyph-name="one.dnom" horiz-adv-x="796" 
d="M109 0v178h223v500l-174 -94l-97 141l279 156h188v-703h199v-178h-618z" />
    <glyph glyph-name="two.dnom" horiz-adv-x="796" 
d="M88 0v178l303 293q3 3 18.5 19t21.5 22.5t18.5 23t18 29t10.5 30.5t5 36q0 46 -28.5 73t-75.5 27q-54 0 -93 -32.5t-77 -96.5l-158 98q61 99 142 152t196 53q129 0 212 -70t83 -184q0 -88 -42 -153.5t-116 -135.5l-194 -184h375v-178h-619z" />
    <glyph glyph-name="three.dnom" horiz-adv-x="796" 
d="M721 258q0 -132 -90.5 -207.5t-239.5 -75.5q-246 0 -354 193l172 106q32 -65 76 -94.5t106 -29.5q56 0 92.5 31t36.5 83q0 54 -38 83.5t-103 29.5h-143v176h135q47 0 78.5 24t31.5 66t-28 65t-72 23q-91 0 -141 -92l-162 98q110 168 315 168q126 0 207.5 -65t81.5 -172
q0 -122 -92 -195q63 -34 97 -90t34 -125z" />
    <glyph glyph-name="four.dnom" horiz-adv-x="796" 
d="M68 225v162l358 494h225v-494h84v-162h-84v-225h-196v225h-387zM264 387h191v260z" />
    <glyph glyph-name="five.dnom" horiz-adv-x="796" 
d="M131 379l27 502h544v-179h-356l-8 -149h41q161 0 255.5 -76t94.5 -215q0 -133 -92 -210t-236 -77q-245 0 -356 193l174 106q61 -124 182 -124q57 0 92 31t35 83q0 55 -41 84t-118 29h-129z" />
    <glyph glyph-name="six.dnom" horiz-adv-x="796" 
d="M438 905q201 0 314 -139l-150 -123q-35 43 -72 64.5t-88 21.5q-170 0 -182 -242q81 84 209 84t204.5 -81t76.5 -207q0 -131 -90 -219.5t-246 -88.5q-178 0 -268.5 122.5t-90.5 342.5q0 214 97.5 339.5t285.5 125.5zM424 399q-105 0 -160 -77q13 -90 50.5 -130t103.5 -40
q61 0 95 34.5t34 92.5q0 53 -33.5 86.5t-89.5 33.5z" />
    <glyph glyph-name="seven.dnom" horiz-adv-x="794" 
d="M336 0h-240l420 702h-424v179h643v-179z" />
    <glyph glyph-name="eight.dnom" horiz-adv-x="796" 
d="M397 905q147 0 227.5 -70t80.5 -171q0 -56 -30 -106t-87 -83q76 -33 115.5 -93t39.5 -136q0 -119 -90.5 -195t-255.5 -76q-162 0 -253 76.5t-91 194.5q0 76 40 136t116 93q-58 31 -88.5 82t-30.5 107q0 100 80.5 170.5t226.5 70.5zM401 549q46 0 74.5 25.5t28.5 68.5
q0 41 -28.5 67.5t-74.5 26.5q-51 0 -79.5 -26t-28.5 -68q0 -45 28 -69.5t80 -24.5zM399 143q66 0 104 31t38 84q0 56 -38 88.5t-104 32.5q-67 0 -106 -32.5t-39 -88.5q0 -53 39 -84t106 -31z" />
    <glyph glyph-name="nine.dnom" horiz-adv-x="796" 
d="M362 -25q-197 0 -311 140l148 123q36 -42 73 -64t88 -22q168 0 183 241q-81 -84 -209 -84q-129 0 -205 81.5t-76 207.5q0 132 89.5 219.5t246.5 87.5q177 0 266.5 -122t89.5 -343q0 -215 -97 -340t-286 -125zM254 602q0 -53 34.5 -87t90.5 -34q99 0 160 76
q-13 92 -50.5 132t-103.5 40q-61 0 -96 -34.5t-35 -92.5z" />
    </font>
</defs>
</svg>
